<svg width="20" height="20" viewBox="0 0 20 20" fill="none" xmlns="http://www.w3.org/2000/svg">
<g id="LinkSimple">
<path id="Vector" d="M7.35156 12.6484L12.6484 7.34375" stroke="white" stroke-width="2" stroke-linecap="round" stroke-linejoin="round"/>
<path id="Vector_2" d="M11.3281 13.9766L9.11719 16.1875C8.76888 16.5358 8.35537 16.8121 7.90028 17.0006C7.44519 17.1891 6.95743 17.2861 6.46484 17.2861C5.47002 17.2861 4.51595 16.8909 3.8125 16.1875C3.10905 15.4841 2.71386 14.53 2.71386 13.5352C2.71386 12.5403 3.10905 11.5863 3.8125 10.8828L6.02344 8.67188" stroke="white" stroke-width="2" stroke-linecap="round" stroke-linejoin="round"/>
<path id="Vector_3" d="M13.9766 11.3281L16.1875 9.11719C16.8909 8.41375 17.2861 7.45967 17.2861 6.46485C17.2861 5.47003 16.8909 4.51595 16.1875 3.8125C15.4841 3.10906 14.53 2.71387 13.5352 2.71387C12.5403 2.71387 11.5863 3.10906 10.8828 3.8125L8.67188 6.02344" stroke="white" stroke-width="2" stroke-linecap="round" stroke-linejoin="round"/>
</g>
</svg>
