<svg width="24" height="24" viewBox="0 0 24 24" fill="none" xmlns="http://www.w3.org/2000/svg">
<g id="Coins">
<path id="Vector" d="M9 11.25C13.1421 11.25 16.5 9.73896 16.5 7.875C16.5 6.01104 13.1421 4.5 9 4.5C4.85786 4.5 1.5 6.01104 1.5 7.875C1.5 9.73896 4.85786 11.25 9 11.25Z" stroke="white" stroke-width="2" stroke-linecap="round" stroke-linejoin="round"/>
<path id="Vector_2" d="M1.5 7.875V11.625C1.5 13.4906 4.85625 15 9 15C13.1438 15 16.5 13.4906 16.5 11.625V7.875" stroke="white" stroke-width="2" stroke-linecap="round" stroke-linejoin="round"/>
<path id="Vector_3" d="M6 10.9688V14.7188" stroke="white" stroke-width="2" stroke-linecap="round" stroke-linejoin="round"/>
<path id="Vector_4" d="M16.5 9.06543C19.9219 9.38418 22.5 10.7436 22.5 12.3748C22.5 14.2404 19.1438 15.7498 15 15.7498C13.1625 15.7498 11.475 15.4498 10.1719 14.9623" stroke="white" stroke-width="2" stroke-linecap="round" stroke-linejoin="round"/>
<path id="Vector_5" d="M7.5 14.9344V16.125C7.5 17.9906 10.8562 19.5 15 19.5C19.1438 19.5 22.5 17.9906 22.5 16.125V12.375" stroke="white" stroke-width="2" stroke-linecap="round" stroke-linejoin="round"/>
<path id="Vector_6" d="M18 15.4688V19.2188" stroke="white" stroke-width="2" stroke-linecap="round" stroke-linejoin="round"/>
<path id="Vector_7" d="M12 10.9688V19.2188" stroke="white" stroke-width="2" stroke-linecap="round" stroke-linejoin="round"/>
</g>
</svg>
