<svg width="25" height="4" viewBox="0 0 25 4" fill="none" xmlns="http://www.w3.org/2000/svg">
<g id="Group 959">
<path id="Vector" d="M12 4C13.1046 4 14 3.10457 14 2C14 0.895431 13.1046 0 12 0C10.8954 0 10 0.895431 10 2C10 3.10457 10.8954 4 12 4Z" fill="white"/>
<path id="Vector_2" d="M23 4C24.1046 4 25 3.10457 25 2C25 0.895431 24.1046 0 23 0C21.8954 0 21 0.895431 21 2C21 3.10457 21.8954 4 23 4Z" fill="white"/>
<path id="Vector_3" d="M2 4C3.10457 4 4 3.10457 4 2C4 0.895431 3.10457 0 2 0C0.895431 0 0 0.895431 0 2C0 3.10457 0.895431 4 2 4Z" fill="white"/>
</g>
</svg>
