<svg width="16" height="16" viewBox="0 0 16 16" fill="none" xmlns="http://www.w3.org/2000/svg">
<g id="File">
<path id="Vector" d="M13.3562 5.14376L9.85625 1.64376C9.761 1.5509 9.63302 1.49926 9.5 1.50001H3.5C3.23478 1.50001 2.98043 1.60536 2.79289 1.7929C2.60536 1.98044 2.5 2.23479 2.5 2.50001V13.5C2.5 13.7652 2.60536 14.0196 2.79289 14.2071C2.98043 14.3947 3.23478 14.5 3.5 14.5H12.5C12.7652 14.5 13.0196 14.3947 13.2071 14.2071C13.3946 14.0196 13.5 13.7652 13.5 13.5V5.50001C13.5007 5.36698 13.4491 5.23901 13.3562 5.14376ZM9.5 5.50001V2.75001L12.25 5.50001H9.5Z" fill="url(#paint0_linear_141_2499)"/>
</g>
<defs>
<linearGradient id="paint0_linear_141_2499" x1="16.982" y1="1.5" x2="-3.41571" y2="3.38717" gradientUnits="userSpaceOnUse">
<stop stop-color="#7FFC8D"/>
<stop offset="1" stop-color="#C6FA56"/>
</linearGradient>
</defs>
</svg>
