<svg width="24" height="24" viewBox="0 0 24 24" fill="none" xmlns="http://www.w3.org/2000/svg">
<g id="GitDiff">
<path id="Vector" d="M18.375 20.25C19.8247 20.25 21 19.0747 21 17.625C21 16.1753 19.8247 15 18.375 15C16.9253 15 15.75 16.1753 15.75 17.625C15.75 19.0747 16.9253 20.25 18.375 20.25Z" stroke="white" stroke-width="1.8" stroke-linecap="round" stroke-linejoin="round"/>
<path id="Vector_2" d="M18.375 15V11.2406C18.3734 10.0451 17.8981 8.89893 17.0531 8.05313L13.5 4.5" stroke="white" stroke-width="1.8" stroke-linecap="round" stroke-linejoin="round"/>
<path id="Vector_3" d="M13.5 8.25V4.5H17.25" stroke="white" stroke-width="1.8" stroke-linecap="round" stroke-linejoin="round"/>
<path id="Vector_4" d="M5.625 9C7.07475 9 8.25 7.82475 8.25 6.375C8.25 4.92525 7.07475 3.75 5.625 3.75C4.17525 3.75 3 4.92525 3 6.375C3 7.82475 4.17525 9 5.625 9Z" stroke="white" stroke-width="1.8" stroke-linecap="round" stroke-linejoin="round"/>
<path id="Vector_5" d="M5.625 9V12.7594C5.62662 13.9549 6.10194 15.1011 6.94687 15.9469L10.5 19.5" stroke="white" stroke-width="1.8" stroke-linecap="round" stroke-linejoin="round"/>
<path id="Vector_6" d="M10.5 15.75V19.5H6.75" stroke="white" stroke-width="1.8" stroke-linecap="round" stroke-linejoin="round"/>
</g>
</svg>
