<svg width="37" height="20" viewBox="0 0 37 20" fill="none" xmlns="http://www.w3.org/2000/svg">
<g id="Group 427320788">
<g id="Group 427320787">
<g id="Middn">
<path d="M0.240234 5.42407H3.38423V18.4801H0.240234V5.42407Z" fill="white"/>
</g>
<path id="Middn_2" d="M0.48 0.48C0.16 0.8 0 1.248 0 1.824C0 2.384 0.16 2.824 0.48 3.144C0.8 3.464 1.24 3.624 1.8 3.624C2.392 3.624 2.84 3.464 3.144 3.144C3.464 2.824 3.624 2.384 3.624 1.824C3.624 1.248 3.464 0.8 3.144 0.48C2.824 0.16 2.376 0 1.8 0C1.24 0 0.8 0.16 0.48 0.48Z" fill="url(#paint0_linear_13_1568)"/>
</g>
<g id="&#226;&#156;&#143;&#239;&#184;&#143;Menu Item">
<path d="M14.2083 19.168C12.866 19.168 11.6398 18.8614 10.5296 18.2483C9.4359 17.6186 8.57422 16.7652 7.94453 15.6881C7.31484 14.5945 7 13.3848 7 12.0591C7 10.7335 7.31484 9.5321 7.94453 8.455C8.57422 7.3779 9.4359 6.53279 10.5296 5.91968C11.6398 5.30656 12.866 5 14.2083 5C15.7328 5 17.0667 5.38113 18.2101 6.14338C19.3701 6.90564 20.1572 7.91645 20.5714 9.17583L17.3401 10.5678C17.1082 9.88837 16.7105 9.34982 16.1471 8.95212C15.5836 8.55443 14.9374 8.35558 14.2083 8.35558C13.2306 8.35558 12.4269 8.70356 11.7972 9.39953C11.1675 10.0955 10.8527 10.9903 10.8527 12.084C10.8527 13.1777 11.1675 14.0725 11.7972 14.7685C12.4269 15.4644 13.2306 15.8124 14.2083 15.8124C14.954 15.8124 15.6002 15.6136 16.1471 15.2159C16.7105 14.8182 17.1082 14.2796 17.3401 13.6002L20.5714 15.017C20.1737 16.2433 19.3949 17.2458 18.235 18.0246C17.075 18.7869 15.7328 19.168 14.2083 19.168Z" fill="white"/>
<path d="M29.4781 19.168C28.1524 19.168 26.9262 18.8614 25.7994 18.2483C24.6891 17.6352 23.8109 16.7901 23.1646 15.713C22.5184 14.6359 22.1952 13.4262 22.1952 12.084C22.1952 10.7418 22.5184 9.5321 23.1646 8.455C23.8109 7.3779 24.6891 6.53279 25.7994 5.91968C26.9262 5.30656 28.1524 5 29.4781 5C30.8037 5 32.0217 5.30656 33.1319 5.91968C34.2422 6.53279 35.1204 7.3779 35.7667 8.455C36.4129 9.5321 36.7361 10.7418 36.7361 12.084C36.7361 13.4262 36.4129 14.6359 35.7667 15.713C35.1204 16.7901 34.2422 17.6352 33.1319 18.2483C32.0217 18.8614 30.8037 19.168 29.4781 19.168ZM26.0479 12.084C26.0479 13.1777 26.3628 14.0725 26.9925 14.7685C27.6387 15.4644 28.4673 15.8124 29.4781 15.8124C30.4889 15.8124 31.3092 15.4644 31.9388 14.7685C32.5685 14.0725 32.8834 13.1777 32.8834 12.084C32.8834 10.9903 32.5602 10.0955 31.914 9.39953C31.2843 8.70356 30.4723 8.35558 29.4781 8.35558C28.4673 8.35558 27.6387 8.70356 26.9925 9.39953C26.3628 10.0955 26.0479 10.9903 26.0479 12.084Z" fill="white"/>
</g>
</g>
<defs>
<linearGradient id="paint0_linear_13_1568" x1="4.77117" y1="-4.06951e-07" x2="-1.92641" y2="0.732316" gradientUnits="userSpaceOnUse">
<stop stop-color="#7FFC8D"/>
<stop offset="1" stop-color="#C6FA56"/>
</linearGradient>
</defs>
</svg>
