<svg width="26" height="24" viewBox="0 0 26 24" fill="none" xmlns="http://www.w3.org/2000/svg">
<path id="Vector" d="M15.7125 19.4875L13.8625 22.575C13.7719 22.7224 13.6451 22.844 13.4941 22.9284C13.3431 23.0129 13.173 23.0572 13 23.0572C12.827 23.0572 12.6569 23.0129 12.5059 22.9284C12.3549 22.844 12.2281 22.7224 12.1375 22.575L10.2875 19.4875C10.2005 19.3393 10.0763 19.2164 9.92723 19.1309C9.77816 19.0454 9.60935 19.0003 9.4375 19H2C1.73478 19 1.48043 18.8946 1.29289 18.7071C1.10536 18.5196 1 18.2652 1 18V2C1 1.73478 1.10536 1.48043 1.29289 1.29289C1.48043 1.10536 1.73478 1 2 1H24C24.2652 1 24.5196 1.10536 24.7071 1.29289C24.8946 1.48043 25 1.73478 25 2V18C25 18.2652 24.8946 18.5196 24.7071 18.7071C24.5196 18.8946 24.2652 19 24 19H16.5625C16.3906 19.0003 16.2218 19.0454 16.0728 19.1309C15.9237 19.2164 15.7995 19.3393 15.7125 19.4875V19.4875Z" stroke="#808191" stroke-width="1.5" stroke-linecap="round" stroke-linejoin="round"/>
</svg>
