<svg width="35" height="35" viewBox="0 0 35 35" fill="none" xmlns="http://www.w3.org/2000/svg">
<g id="Trash">
<path id="Vector" d="M29.0769 7.53833H5.38455" stroke="white" stroke-width="2.15385" stroke-linecap="round" stroke-linejoin="round"/>
<path id="Vector_2" d="M13.9999 14V22.6154" stroke="white" stroke-width="2.15385" stroke-linecap="round" stroke-linejoin="round"/>
<path id="Vector_3" d="M20.4615 14V22.6154" stroke="white" stroke-width="2.15385" stroke-linecap="round" stroke-linejoin="round"/>
<path id="Vector_4" d="M26.923 7.53833V27.9999C26.923 28.2855 26.8095 28.5594 26.6076 28.7614C26.4056 28.9633 26.1317 29.0768 25.8461 29.0768H8.61531C8.3297 29.0768 8.05578 28.9633 7.85381 28.7614C7.65185 28.5594 7.53839 28.2855 7.53839 27.9999V7.53833" stroke="white" stroke-width="2.15385" stroke-linecap="round" stroke-linejoin="round"/>
<path id="Vector_5" d="M22.6153 7.53841V5.38456C22.6153 4.81332 22.3884 4.26548 21.9845 3.86156C21.5806 3.45764 21.0327 3.23071 20.4615 3.23071H13.9999C13.4287 3.23071 12.8809 3.45764 12.4769 3.86156C12.073 4.26548 11.8461 4.81332 11.8461 5.38456V7.53841" stroke="white" stroke-width="2.15385" stroke-linecap="round" stroke-linejoin="round"/>
</g>
</svg>
