<?xml version="1.0" standalone="no"?>
<!DOCTYPE svg PUBLIC "-//W3C//DTD SVG 1.1//EN" "http://www.w3.org/Graphics/SVG/1.1/DTD/svg11.dtd" >
<svg xmlns="http://www.w3.org/2000/svg" xmlns:xlink="http://www.w3.org/1999/xlink" version="1.1">
<metadata>
Created by FontForge 20170731 at Fri Jan  8 00:23:18 2021
 By Aleksey,,,
Copyright 2021 Stijn de Vries &#38; The Plus Jakarta Sans Project Authors (https://github.com/tokotype/PlusJakartaSans)
</metadata>
<defs>
<font id="EudoxusSans-ExtraLight" horiz-adv-x="570" >
  <font-face 
    font-family="Eudoxus Sans ExtraLight"
    font-weight="200"
    font-stretch="normal"
    units-per-em="1000"
    panose-1="0 0 0 0 0 0 0 0 0 0"
    ascent="800"
    descent="-200"
    x-height="526"
    cap-height="745"
    bbox="-228 -293 1317 1149"
    underline-thickness="40"
    underline-position="-215"
    unicode-range="U+000D-FB02"
  />
<missing-glyph horiz-adv-x="600" 
d="M492 -240h-380v1200h380v-1200zM400 -157v39h-123l84 57h39v39h-200v-39h84l-84 -57v-39h200zM400 6v136h-200v-136h200zM400 214v135h-120v-67h40v28h40v-57h-120v96h-40v-135h200zM400 376v120h-40v-80h-160v-40h200zM320 444v84h80v40h-200v-40h80v-44h-80v-40h120z
M400 600v41h-80v84h-120v-125h200zM400 756v40h-80v44h80v40h-198v-40h78v-44h-80v-40h200zM240 102h120v-56h-120v56zM240 684h40v-43h-40v43z" />
    <glyph glyph-name="fi" unicode="fi" horiz-adv-x="562" 
d="M143 486h-109v40h109v53q0 83 44 130.5t118 47.5q22 0 39 -5v-41q-16 3 -36 3q-56 0 -88 -35.5t-32 -99.5v-53h304v-526h-45v486h-259v-486h-45v486z" />
    <glyph glyph-name="fl" unicode="fl" horiz-adv-x="608" 
d="M143 486h-109v40h109v53q0 83 44 130.5t118 47.5q22 0 39 -5v-41q-16 3 -36 3q-56 0 -88 -35.5t-32 -99.5v-53h287v231h45v-757h-45v486h-287v-486h-45v486z" />
    <glyph glyph-name="f_f" unicode="ff" horiz-adv-x="764" 
d="M143 486h-109v40h109v53q0 83 44 130.5t118 47.5q22 0 39 -5v-41q-16 3 -36 3q-56 0 -88 -35.5t-32 -99.5v-53h332v53q0 83 44 130.5t118 47.5q22 0 39 -5v-41q-16 3 -36 3q-56 0 -88 -35.5t-32 -99.5v-53h133v-40h-133v-486h-45v486h-332v-486h-45v486z" />
    <glyph glyph-name="f_f_i" unicode="ffi" horiz-adv-x="949" 
d="M143 486h-109v40h109v53q0 83 44 130.5t118 47.5q22 0 39 -5v-41q-16 3 -36 3q-56 0 -88 -35.5t-32 -99.5v-53h342v53q0 83 44 130.5t118 47.5q22 0 39 -5v-41q-16 3 -36 3q-56 0 -88 -35.5t-32 -99.5v-53h304v-526h-45v486h-259v-486h-45v486h-342v-486h-45v486z" />
    <glyph glyph-name="f_f_l" unicode="ffl" horiz-adv-x="995" 
d="M143 486h-109v40h109v53q0 83 44 130.5t118 47.5q22 0 39 -5v-41q-16 3 -36 3q-56 0 -88 -35.5t-32 -99.5v-53h342v53q0 83 44 130.5t118 47.5q22 0 39 -5v-41q-16 3 -36 3q-56 0 -88 -35.5t-32 -99.5v-53h287v231h45v-757h-45v486h-287v-486h-45v486h-342v-486h-45v486z
" />
    <glyph glyph-name=".notdef" horiz-adv-x="600" 
d="M492 -240h-380v1200h380v-1200zM400 -157v39h-123l84 57h39v39h-200v-39h84l-84 -57v-39h200zM400 6v136h-200v-136h200zM400 214v135h-120v-67h40v28h40v-57h-120v96h-40v-135h200zM400 376v120h-40v-80h-160v-40h200zM320 444v84h80v40h-200v-40h80v-44h-80v-40h120z
M400 600v41h-80v84h-120v-125h200zM400 756v40h-80v44h80v40h-198v-40h78v-44h-80v-40h200zM240 102h120v-56h-120v56zM240 684h40v-43h-40v43z" />
    <glyph glyph-name=".null" horiz-adv-x="0" 
 />
    <glyph glyph-name="nonmarkingreturn" unicode="&#xd;" horiz-adv-x="170" 
 />
    <glyph glyph-name="space" unicode=" " horiz-adv-x="170" 
 />
    <glyph glyph-name="exclam" unicode="!" horiz-adv-x="255" 
d="M103 745h50l-3 -537h-45zM102.5 63.5q10.5 10.5 26.5 10.5t26 -10.5t10 -26.5q0 -15 -10.5 -26t-25.5 -11q-16 0 -26.5 11t-10.5 26q0 16 10.5 26.5z" />
    <glyph glyph-name="quotedbl" unicode="&#x22;" horiz-adv-x="346" 
d="M83 745h55l-10 -185h-35zM263 745l-10 -185h-35l-10 185h55z" />
    <glyph glyph-name="numbersign" unicode="#" horiz-adv-x="742" 
d="M156 213h-120v45h133l66 230h-120v45h133l61 212h52l-61 -212h234l62 212h52l-62 -212h120v-46h-132l-67 -229h120v-45h-133l-61 -213h-52l61 213h-234l-61 -213h-52zM455 258l67 230h-235l-66 -230h234z" />
    <glyph glyph-name="dollar" unicode="$" horiz-adv-x="639" 
d="M306 -11q-91 7 -154 60t-86 125l45 14q27 -70 76.5 -110t118.5 -46v319l-49 14q-82 24 -121 75.5t-39 122.5q0 56 27.5 100t75 69t106.5 25v88h45v-91q74 -12 128 -59.5t74 -111.5l-45 -14q-21 58 -62.5 94.5t-94.5 46.5v-320l54 -16q74 -22 115.5 -72t41.5 -119
q0 -54 -27 -96.5t-75 -68.5t-109 -29v-89h-45v89zM175 470q30 -35 104 -58l27 -8v310q-70 -2 -115.5 -43t-45.5 -109q0 -57 30 -92zM351 32q73 5 118 45.5t45 106.5q0 57 -33 91.5t-85 49.5l-45 13v-306z" />
    <glyph glyph-name="percent" unicode="%" horiz-adv-x="928" 
d="M739 745h61l-615 -745h-61zM77.5 664q25.5 43 68 68t91.5 25t91 -25t67 -68t25 -93t-25 -93t-67 -68t-91 -25t-91.5 25t-68 68t-25.5 93t25.5 93zM115.5 502q18.5 -33 50.5 -53.5t71 -20.5t70.5 20.5t49.5 53.5t18 69t-18 69t-49.5 53.5t-70.5 20.5t-71 -20.5
t-50.5 -53.5t-18.5 -69t18.5 -69zM533.5 267q25.5 43 68 68t91.5 25t91 -25t67 -68t25 -93t-25 -93t-67 -68t-91 -25t-91.5 25t-68 68t-25.5 93t25.5 93zM571.5 105q18.5 -33 50.5 -53.5t71 -20.5t70.5 20.5t49.5 53.5t18 69t-18 69t-49.5 53.5t-70.5 20.5t-71 -20.5
t-50.5 -53.5t-18.5 -69t18.5 -69z" />
    <glyph glyph-name="ampersand" unicode="&#x26;" horiz-adv-x="722" 
d="M150.5 9.5q-44.5 21.5 -69.5 61t-25 91.5q0 50 22.5 90.5t54.5 70t86 70.5l1 1q-46 46 -76 93.5t-30 105.5q0 46 21.5 83.5t58.5 59t82 21.5q44 0 81 -21t59 -58t22 -84q0 -45 -20 -81.5t-47.5 -62t-67.5 -56.5l-6 -5l177 -178l108 162h60l-132 -198l175 -175h-70
l-133 133q-44 -64 -98 -104.5t-134 -40.5q-55 0 -99.5 21.5zM146 70q40 -34 104 -34q68 0 111.5 35.5t84.5 97.5l-190 189l-7 -5q-50 -38 -78 -63.5t-46.5 -57t-18.5 -70.5q0 -58 40 -92zM190 508.5q26 -38.5 71 -83.5l12 9q57 43 86 78t29 82q0 50 -32.5 82.5t-79.5 32.5
q-48 0 -80 -33.5t-32 -82.5q0 -46 26 -84.5z" />
    <glyph glyph-name="quotesingle" unicode="'" horiz-adv-x="221" 
d="M83 745h55l-10 -185h-35z" />
    <glyph glyph-name="parenleft" unicode="(" horiz-adv-x="269" 
d="M88 70.5q-38 114.5 -38 237.5q0 128 38 240t110 197h51q-72 -95 -110.5 -208t-38.5 -229q0 -113 38.5 -226.5t110.5 -211.5h-51q-72 86 -110 200.5z" />
    <glyph glyph-name="parenright" unicode=")" horiz-adv-x="269" 
d="M130.5 81.5q38.5 113.5 38.5 226.5q0 116 -38.5 229t-110.5 208h51q72 -85 110 -197t38 -240q0 -123 -38 -237.5t-110 -200.5h-51q72 98 110.5 211.5z" />
    <glyph glyph-name="asterisk" unicode="*" horiz-adv-x="459" 
d="M93 427l95 125l-136 46l14 47l138 -45v145h50v-145l137 45l16 -47l-135 -46l94 -125l-40 -29l-97 125l-96 -125z" />
    <glyph glyph-name="plus" unicode="+" horiz-adv-x="596" 
d="M276 228h-228v45h228v227h45v-227h227v-45h-227v-228h-45v228z" />
    <glyph glyph-name="comma" unicode="," horiz-adv-x="248" 
d="M118 -52q12 22 11 52q-12 0 -21.5 10t-9.5 22q0 14 9 22.5t22 8.5t21 -11.5t9 -29.5q3 -50 -17.5 -85.5t-56.5 -46.5v29q21 7 33 29z" />
    <glyph glyph-name="hyphen" unicode="-" horiz-adv-x="468" 
d="M74 286h320v-45h-320v45z" />
    <glyph glyph-name="period" unicode="." horiz-adv-x="261" 
d="M107 10q-10 10 -10 26t10 26.5t24 10.5t23.5 -10.5t9.5 -26.5t-9.5 -26t-23.5 -10t-24 10z" />
    <glyph glyph-name="slash" unicode="/" horiz-adv-x="397" 
d="M340 785h55l-338 -825h-55z" />
    <glyph glyph-name="zero" unicode="0" horiz-adv-x="714" 
d="M209 36.5q-65 48.5 -101 136t-36 200.5t36 200.5t100.5 135.5t148.5 48t149 -48t100.5 -135t35.5 -201t-35.5 -201.5t-100 -135.5t-148.5 -48t-149 48.5zM150.5 197.5q28.5 -76.5 81.5 -119t126 -42.5t125.5 42.5t80.5 118.5t28 176t-28 176t-81 118t-126 42t-126 -42.5
t-81 -118.5t-28 -175t28.5 -175.5z" />
    <glyph glyph-name="one" unicode="1" horiz-adv-x="338" 
d="M178 700h-140v45h190v-745h-50v700z" />
    <glyph glyph-name="two" unicode="2" horiz-adv-x="578" 
d="M56 30l210 230l39 42q61 66 90 102t45.5 73t16.5 81q0 72 -44 113t-124 41q-76 0 -126 -43.5t-68 -122.5l-45 10q21 96 85 148.5t154 52.5q61 0 111 -24.5t78.5 -69.5t28.5 -105q0 -46 -20 -90t-55 -88.5t-98 -112.5l-204 -222h390v-45h-464v30z" />
    <glyph glyph-name="three" unicode="3" horiz-adv-x="599" 
d="M133 41.5q-67 53.5 -85 147.5l46 12q16 -79 67 -123.5t131 -44.5q59 0 104 24t69.5 67.5t24.5 99.5q0 87 -55.5 133.5t-140.5 46.5q-25 0 -45 -4l-6 20l208 280h-376v45h440v-30l-201 -270q59 0 110.5 -27.5t82.5 -78t31 -116.5q0 -65 -31 -118.5t-86.5 -85t-127.5 -31.5
q-93 0 -160 53.5z" />
    <glyph glyph-name="four" unicode="4" horiz-adv-x="606" 
d="M432 176h-389v40l394 529h45v-524h81v-45h-81v-176h-50v176zM432 221v439l-329 -439h329z" />
    <glyph glyph-name="five" unicode="5" horiz-adv-x="608" 
d="M141 42q-67 54 -85 147l46 12q16 -80 69.5 -124t132.5 -44q57 0 100.5 25t67.5 70.5t24 103.5q0 54 -25.5 98t-69.5 69t-96 25q-55 0 -102 -25.5t-69 -62.5l-43 10l54 400h370v-45h-331l-39 -290q28 28 71 44t91 16q67 0 121.5 -31.5t86 -86t31.5 -121.5
q0 -70 -31 -125.5t-86 -87t-125 -31.5q-96 0 -163 54z" />
    <glyph glyph-name="six" unicode="6" horiz-adv-x="587" 
d="M174.5 19.5q-53.5 31.5 -84 87.5t-30.5 126q0 67 25 124.5t79 128.5l196 259h59l-235 -316q50 30 116 30q63 0 116 -29.5t83.5 -83t30.5 -121.5t-31.5 -122t-85 -84.5t-119.5 -30.5t-119.5 31.5zM135.5 124.5q24.5 -43.5 66.5 -67.5t93 -24q52 0 94 24.5t66 67.5t24 97
q0 55 -24 99t-66 68.5t-94 24.5t-94 -24.5t-66 -68.5t-24 -99q0 -54 24.5 -97.5z" />
    <glyph glyph-name="seven" unicode="7" horiz-adv-x="523" 
d="M423 701h-382v45h440v-40l-352 -706h-55z" />
    <glyph glyph-name="eight" unicode="8" horiz-adv-x="606" 
d="M180.5 17.5q-54.5 29.5 -86 81t-31.5 115.5q0 69 37.5 124t99.5 80q-44 25 -68.5 64.5t-24.5 88.5q0 52 26 94.5t70.5 67t99.5 24.5t99.5 -24t70 -66.5t25.5 -95.5q0 -99 -92 -153q62 -24 99.5 -79.5t37.5 -124.5q0 -64 -31.5 -115.5t-86 -81t-122.5 -29.5t-122.5 29.5z
M165.5 82.5q52.5 -49.5 137.5 -49.5t137.5 49.5t52.5 129.5q0 53 -24 94t-67 63.5t-99 22.5t-99 -22.5t-67 -63.5t-24 -94q0 -80 52.5 -129.5zM198.5 477q41.5 -39 104.5 -39q62 0 103.5 39t41.5 98t-41.5 98t-103.5 39t-104 -39t-42 -98t41.5 -98z" />
    <glyph glyph-name="nine" unicode="9" horiz-adv-x="587" 
d="M403 316q-50 -30 -116 -30q-63 0 -116 29.5t-83.5 83t-30.5 121.5t31.5 122t85 84.5t119.5 30.5t119.5 -31.5t84 -87.5t30.5 -126q0 -67 -25 -124.5t-79 -128.5l-196 -259h-59zM132 424q24 -44 66 -68.5t94 -24.5t94 24.5t66 68.5t24 99q0 54 -24.5 97.5t-66.5 67.5
t-93 24q-52 0 -94 -24.5t-66 -67.5t-24 -97q0 -55 24 -99z" />
    <glyph glyph-name="colon" unicode=":" horiz-adv-x="261" 
d="M107 10q-10 10 -10 24t10 23.5t24 9.5t23.5 -9.5t9.5 -23.5t-9.5 -24t-23.5 -10t-24 10zM107 516.5q10 9.5 24 9.5t23.5 -9.5t9.5 -23.5t-9.5 -24t-23.5 -10t-24 10t-10 24t10 23.5z" />
    <glyph glyph-name="semicolon" unicode=";" horiz-adv-x="281" 
d="M127 469q-10 10 -10 24t10 23.5t24 9.5t23.5 -9.5t9.5 -23.5t-9.5 -24t-23.5 -10t-24 10zM107 -81q21 7 33 29t11 52q-12 0 -21.5 10t-9.5 22q0 14 9 22.5t22 8.5t21 -11.5t9 -29.5q3 -50 -17.5 -85.5t-56.5 -46.5v29z" />
    <glyph glyph-name="less" unicode="&#x3c;" horiz-adv-x="511" 
d="M63 245v36l385 195v-50l-319 -163l319 -163v-50z" />
    <glyph glyph-name="equal" unicode="=" horiz-adv-x="670" 
d="M110 391h450v-45h-450v45zM110 156h450v-45h-450v45z" />
    <glyph glyph-name="greater" unicode="&#x3e;" horiz-adv-x="499" 
d="M63 100l319 163l-319 163v50l385 -195v-36l-385 -195v50z" />
    <glyph glyph-name="question" unicode="?" horiz-adv-x="474" 
d="M189 318q29 44 85 95q52 49 79 89t27 90q0 31 -16.5 59t-47.5 45t-72 17q-63 0 -106.5 -38.5t-58.5 -107.5l-44 9q14 83 71.5 132t137.5 49q51 0 94 -22.5t67.5 -61t24.5 -83.5q0 -40 -15.5 -73t-38 -59t-59.5 -62l-22 -22q-44 -45 -67 -81t-23 -81v-4h-45v4q0 62 29 106
zM157.5 62.5q10.5 10.5 26.5 10.5q15 0 25.5 -10t10.5 -26t-10 -26.5t-26 -10.5t-26.5 10.5t-10.5 26.5q0 15 10.5 25.5z" />
    <glyph glyph-name="at" unicode="@" horiz-adv-x="926" 
d="M277 -5.5q-93 54.5 -146.5 148.5t-53.5 207t54 206t147 147t205 54q118 0 210.5 -56t143 -148.5t50.5 -198.5q0 -64 -20 -111.5t-53.5 -72.5t-74.5 -25q-43 0 -76 23.5t-45 61.5q-23 -43 -61 -64t-86 -21q-56 0 -102 27.5t-72.5 75.5t-26.5 108q0 58 26.5 106.5
t72.5 76.5t102 28q43 0 81.5 -17.5t61.5 -52.5v60h48v-283q0 -38 20.5 -61t58.5 -23q43 0 70.5 43.5t27.5 121.5q0 100 -45.5 181.5t-127 128.5t-183.5 47q-103 0 -185 -48.5t-127.5 -130t-45.5 -178.5q0 -102 46 -186.5t129 -134t188 -49.5q96 0 166 43l21 -41
q-40 -23 -89.5 -35t-102.5 -12q-113 0 -206 54.5zM337.5 270.5q19.5 -37.5 54 -59t77.5 -21.5q64 0 104.5 46.5t40.5 119.5t-40 119.5t-104 46.5q-42 0 -76.5 -21t-55 -58.5t-20.5 -86.5q0 -48 19.5 -85.5z" />
    <glyph glyph-name="A" unicode="A" horiz-adv-x="644" 
d="M298 745h48l276 -745h-55l-72 197h-346l-72 -197h-55zM479 242l-157 429l-157 -429h314z" />
    <glyph glyph-name="B" unicode="B" horiz-adv-x="695" 
d="M99 745h301q58 0 103.5 -24.5t70.5 -67t25 -96.5q0 -55 -27.5 -98t-75.5 -62q61 -20 97 -71.5t36 -117.5q0 -95 -60 -151.5t-169 -56.5h-301v745zM391 45q87 0 137.5 44.5t50.5 117.5q0 74 -48.5 118.5t-129.5 44.5h-252v-325h242zM394 415q71 0 113 39t42 104t-41 103.5
t-114 38.5h-245v-285h245z" />
    <glyph glyph-name="C" unicode="C" horiz-adv-x="788" 
d="M249.5 37.5q-80.5 49.5 -126.5 137.5t-46 198q0 109 46 197t126.5 137.5t180.5 49.5q70 0 130 -26.5t101.5 -68t60.5 -86.5l-47 -21q-34 71 -98 112.5t-147 41.5q-88 0 -157 -42.5t-107.5 -119t-38.5 -174.5q0 -99 38.5 -175.5t107.5 -119t157 -42.5q83 0 147 41.5
t98 112.5l47 -21q-19 -45 -60.5 -86.5t-101.5 -68t-130 -26.5q-100 0 -180.5 49.5z" />
    <glyph glyph-name="D" unicode="D" horiz-adv-x="744" 
d="M99 745h238q107 0 186.5 -45.5t122.5 -129.5t43 -197t-43 -197t-122.5 -130t-186.5 -46h-238v745zM335 45q90 0 159 41t107 115.5t38 171.5t-38 171t-107 115t-159 41h-186v-655h186z" />
    <glyph glyph-name="E" unicode="E" horiz-adv-x="614" 
d="M99 745h460v-45h-410v-304h390v-45h-390v-306h410v-45h-460v745z" />
    <glyph glyph-name="F" unicode="F" horiz-adv-x="593" 
d="M99 745h450v-45h-400v-304h360v-45h-360v-351h-50v745z" />
    <glyph glyph-name="G" unicode="G" horiz-adv-x="834" 
d="M249 37q-81 49 -126.5 136.5t-45.5 198.5q0 110 46 198t127.5 137.5t183.5 49.5q73 0 134.5 -26.5t103.5 -68t61 -86.5l-47 -21q-34 72 -99 113t-153 41t-158 -42.5t-109.5 -119.5t-39.5 -175q0 -99 39 -175.5t109 -118.5t158 -42q81 0 145.5 37t101.5 101.5t37 144.5v4
h-283v45h333v-49q0 -90 -42.5 -165.5t-119 -120.5t-172.5 -45q-103 0 -184 49z" />
    <glyph glyph-name="H" unicode="H" horiz-adv-x="738" 
d="M99 745h50v-343h440v343h50v-745h-50v357h-440v-357h-50v745z" />
    <glyph glyph-name="I" unicode="I" horiz-adv-x="248" 
d="M99 745h50v-745h-50v745z" />
    <glyph glyph-name="J" unicode="J" horiz-adv-x="381" 
d="M66 50h38q61 0 94.5 37t33.5 107v551h50v-554q0 -89 -48 -140t-130 -51h-38v50z" />
    <glyph glyph-name="K" unicode="K" horiz-adv-x="651" 
d="M99 745h50v-430l390 430h67l-288 -319l311 -426h-62l-284 390l-134 -149v-241h-50v745z" />
    <glyph glyph-name="L" unicode="L" horiz-adv-x="533" 
d="M99 745h50v-700h340v-45h-390v745z" />
    <glyph glyph-name="M" unicode="M" horiz-adv-x="818" 
d="M99 745h40l269 -411l271 411h40v-745h-50v645l-259 -399h-2l-259 396v-642h-50v745z" />
    <glyph glyph-name="N" unicode="N" horiz-adv-x="738" 
d="M99 745h40l450 -644v644h50v-745h-40l-450 644v-644h-50v745z" />
    <glyph glyph-name="O" unicode="O" horiz-adv-x="884" 
d="M258.5 37.5q-83.5 49.5 -132.5 137.5t-49 198t49 198t132.5 137t183.5 49q99 0 183 -49.5t133 -137t49 -197.5t-49 -198t-132.5 -137.5t-183.5 -49.5t-183.5 49.5zM167 205q40 -77 112 -123t163 -46t163 46t112 123t40 168q0 90 -40 167t-111.5 123t-163.5 46
q-91 0 -163 -46t-112 -123t-40 -167q0 -91 40 -168z" />
    <glyph glyph-name="P" unicode="P" horiz-adv-x="645" 
d="M99 745h244q69 0 122.5 -28t83.5 -79t30 -116t-30 -115.5t-83.5 -78.5t-122.5 -28h-194v-300h-50v745zM343 345q54 0 96.5 22.5t66 63t23.5 92.5t-23.5 92t-66 62.5t-96.5 22.5h-194v-355h194z" />
    <glyph glyph-name="Q" unicode="Q" horiz-adv-x="884" 
d="M258.5 37.5q-83.5 49.5 -132.5 137.5t-49 198t49 198t132.5 137t183.5 49q99 0 183 -49.5t133 -137t49 -197.5q0 -89 -32 -163.5t-89 -127.5l95 -105l-36 -28l-95 104q-45 -31 -98 -48t-110 -17q-100 0 -183.5 49.5zM167 205q40 -77 112 -123t163 -46q99 0 175 54
l-187 207l37 27l186 -205q49 47 76.5 113.5t27.5 140.5q0 90 -40 167t-111.5 123t-163.5 46q-91 0 -163 -46t-112 -123t-40 -167q0 -91 40 -168z" />
    <glyph glyph-name="R" unicode="R" horiz-adv-x="635" 
d="M99 745h244q69 0 122.5 -28t83.5 -79t30 -116q0 -80 -45 -137.5t-121 -76.5l178 -308h-59l-171 300h-212v-300h-50v745zM343 345q54 0 96.5 22.5t66 63t23.5 92.5t-23.5 92t-66 62.5t-96.5 22.5h-194v-355h194z" />
    <glyph glyph-name="S" unicode="S" horiz-adv-x="639" 
d="M209 14q-55 26 -91 68t-52 92l45 14q29 -76 85.5 -116.5t134.5 -40.5q81 0 132 41t51 112q0 57 -33 91.5t-85 49.5l-139 40q-82 24 -121 75.5t-39 122.5q0 56 28 100.5t76.5 69t107.5 24.5t109.5 -24t85 -63.5t49.5 -86.5l-45 -14q-26 70 -78.5 107.5t-119.5 37.5
q-71 0 -118 -42t-47 -110q0 -57 30 -92t104 -58l126 -38q74 -22 115.5 -72t41.5 -119q0 -57 -30 -101t-82.5 -69t-117.5 -25q-68 0 -123 26z" />
    <glyph glyph-name="T" unicode="T" horiz-adv-x="514" 
d="M233 700h-211v45h470v-45h-209v-700h-50v700z" />
    <glyph glyph-name="U" unicode="U" horiz-adv-x="690" 
d="M214.5 21q-56.5 33 -88 92.5t-31.5 137.5v494h50v-498q0 -62 25 -111t70.5 -76t104.5 -27t104.5 27t70.5 76t25 111v498h50v-494q0 -78 -31.5 -137.5t-88 -92.5t-130.5 -33t-130.5 33z" />
    <glyph glyph-name="V" unicode="V" horiz-adv-x="654" 
d="M22 745h55l250 -671l250 671h55l-281 -745h-48z" />
    <glyph glyph-name="W" unicode="W" horiz-adv-x="988" 
d="M22 745h54l193 -657l201 657h48l201 -657l193 657h54l-223 -745h-48l-201 660l-201 -660h-48z" />
    <glyph glyph-name="X" unicode="X" horiz-adv-x="589" 
d="M262 382l-230 363h62l200 -318l200 318h61l-230 -363l242 -382h-62l-211 337l-210 -337h-62z" />
    <glyph glyph-name="Y" unicode="Y" horiz-adv-x="624" 
d="M287 333l-265 412h57l234 -356l232 356h57l-265 -412v-333h-50v333z" />
    <glyph glyph-name="Z" unicode="Z" horiz-adv-x="606" 
d="M33 30l462 670h-435v45h503v-30l-461 -670h471v-45h-540v30z" />
    <glyph glyph-name="bracketleft" unicode="[" horiz-adv-x="281" 
d="M88 745h170v-45h-120v-785h120v-45h-170v875z" />
    <glyph glyph-name="backslash" unicode="\" horiz-adv-x="397" 
d="M2 785h55l338 -825h-55z" />
    <glyph glyph-name="bracketright" unicode="]" horiz-adv-x="281" 
d="M23 -85h120v785h-120v45h170v-875h-170v45z" />
    <glyph glyph-name="asciicircum" unicode="^" horiz-adv-x="468" 
d="M216 745h36l167 -317h-52l-133 253l-133 -253h-52z" />
    <glyph glyph-name="underscore" unicode="_" horiz-adv-x="548" 
d="M74 0h400v-45h-400v45z" />
    <glyph glyph-name="grave" unicode="`" horiz-adv-x="336" 
d="M103 784h52l78 -144h-39z" />
    <glyph glyph-name="a" unicode="a" horiz-adv-x="574" 
d="M115 29q-49 41 -49 107q0 60 41 104t130 59l204 34v32q0 59 -40.5 94.5t-107.5 35.5q-51 0 -94 -24.5t-67 -66.5l-40 21q24 47 79 80t122 33q56 0 100 -22t68.5 -61.5t24.5 -89.5v-365h-45v106q-24 -49 -79.5 -83.5t-124.5 -34.5q-73 0 -122 41zM148.5 59.5
q36.5 -29.5 92.5 -29.5q59 0 104.5 28.5t70.5 76t25 103.5v52l-189 -31q-74 -12 -107 -44t-33 -77q0 -49 36.5 -78.5z" />
    <glyph glyph-name="b" unicode="b" horiz-adv-x="674" 
d="M221.5 22.5q-57.5 34.5 -88.5 92.5v-115h-45v757h45v-346q31 58 88.5 92.5t127.5 34.5q72 0 131.5 -36t93.5 -99t34 -140t-34 -140t-93.5 -99t-131.5 -36q-70 0 -127.5 34.5zM164 145.5q28 -52.5 76.5 -82.5t108.5 -30t108 30t75.5 82.5t27.5 117.5t-27.5 117.5
t-75.5 82.5t-108 30t-108.5 -30t-76.5 -82.5t-28 -117.5t28 -117.5z" />
    <glyph glyph-name="c" unicode="c" horiz-adv-x="607" 
d="M193.5 24q-60.5 36 -95.5 99t-35 140t35 140t95.5 99t134.5 36q71 0 129.5 -34.5t86.5 -89.5l-38 -21q-28 49 -74.5 76t-103.5 27q-61 0 -111 -29.5t-79.5 -82.5t-29.5 -121t29.5 -121t79.5 -82.5t111 -29.5q57 0 103.5 27t74.5 76l38 -20q-28 -55 -86.5 -90t-129.5 -35
q-74 0 -134.5 36z" />
    <glyph glyph-name="d" unicode="d" horiz-adv-x="674" 
d="M193.5 24q-59.5 36 -93.5 99t-34 140t34 140t93.5 99t131.5 36q70 0 127.5 -34.5t88.5 -92.5v346h45v-757h-45v115q-31 -58 -88.5 -92.5t-127.5 -34.5q-72 0 -131.5 36zM141.5 145.5q27.5 -52.5 75.5 -82.5t108 -30t108.5 30t76.5 82.5t28 117.5t-28 117.5t-76.5 82.5
t-108.5 30t-108 -30t-75.5 -82.5t-27.5 -117.5t27.5 -117.5z" />
    <glyph glyph-name="e" unicode="e" horiz-adv-x="627" 
d="M196.5 24.5q-60.5 36.5 -95.5 99.5t-35 139q0 77 33.5 140t92 99t129.5 36q67 0 122 -33t86.5 -90t31.5 -127q0 -16 -3 -39h-447q3 -62 32.5 -112t78.5 -78.5t109 -28.5q57 0 103 27t74 76l38 -20q-29 -58 -87 -91.5t-128 -33.5q-74 0 -134.5 36.5zM515 289
q0 58 -25.5 105t-70 74.5t-98.5 27.5t-100 -27t-75 -74.5t-34 -105.5h403z" />
    <glyph glyph-name="f" unicode="f" horiz-adv-x="387" 
d="M143 486h-109v40h109v53q0 83 44 130.5t118 47.5q22 0 39 -5v-41q-16 3 -36 3q-56 0 -88 -35.5t-32 -99.5v-53h133v-40h-133v-486h-45v486z" />
    <glyph glyph-name="g" unicode="g" horiz-adv-x="664" 
d="M197.5 -185q-59.5 35 -89.5 90l38 22q30 -50 77.5 -77.5t107.5 -27.5q52 0 97.5 21.5t74 65.5t28.5 109v114q-31 -58 -86.5 -91t-124.5 -33q-72 0 -130 35.5t-91 96.5t-33 133t33 133t91 96.5t130 35.5q69 0 124.5 -33t86.5 -91v112h45v-508q0 -69 -31.5 -123t-87 -84.5
t-126.5 -30.5q-74 0 -133.5 35zM140 162q26 -50 73 -79.5t107 -29.5q59 0 106.5 29t74.5 79.5t27 111.5t-27 111.5t-74.5 79.5t-106.5 29q-60 0 -107 -29.5t-73 -79.5t-26 -111t26 -111z" />
    <glyph glyph-name="h" unicode="h" 
d="M88 757h45v-308q22 41 65 65t97 24q53 0 98.5 -24.5t72.5 -68.5t27 -100v-345h-45v340q0 46 -21 81.5t-56.5 54.5t-79.5 19q-73 0 -115.5 -50t-42.5 -125v-320h-45v757z" />
    <glyph glyph-name="i" unicode="i" horiz-adv-x="221" 
d="M88 526h45v-526h-45v526zM88 687.5q9 9.5 23 9.5t22.5 -9t8.5 -24t-8.5 -24.5t-22.5 -9.5t-23 9.5t-9 24.5q0 14 9 23.5z" />
    <glyph glyph-name="j" unicode="j" horiz-adv-x="221" 
d="M-57 -215v41q16 -3 36 -3q52 0 80.5 29.5t28.5 85.5v588h45v-588q0 -76 -40.5 -117t-110.5 -41q-22 0 -39 5zM88 687.5q9 9.5 23 9.5t22.5 -9t8.5 -24t-8.5 -24.5t-22.5 -9.5t-23 9.5t-9 24.5q0 14 9 23.5z" />
    <glyph glyph-name="k" unicode="k" horiz-adv-x="540" 
d="M88 757h45v-523l297 292h68l-218 -213l238 -313h-60l-215 282l-110 -112v-170h-45v757z" />
    <glyph glyph-name="l" unicode="l" horiz-adv-x="221" 
d="M88 757h45v-757h-45v757z" />
    <glyph glyph-name="m" unicode="m" horiz-adv-x="910" 
d="M88 526h45v-77q22 41 64 65t93 24q57 0 105 -30.5t71 -81.5q20 50 68 81t106 31q51 0 95 -24.5t71 -68.5t27 -100v-345h-45v340q0 46 -20.5 81.5t-55.5 54.5t-76 19q-69 0 -111 -50t-42 -125v-320h-45v340q0 46 -20.5 81.5t-55.5 54.5t-76 19q-69 0 -111 -50t-42 -125
v-320h-45v526z" />
    <glyph glyph-name="n" unicode="n" 
d="M88 526h45v-77q22 41 65 65t97 24q53 0 98.5 -24.5t72.5 -68.5t27 -100v-345h-45v340q0 46 -21 81.5t-56.5 54.5t-79.5 19q-73 0 -115.5 -50t-42.5 -125v-320h-45v526z" />
    <glyph glyph-name="o" unicode="o" horiz-adv-x="662" 
d="M196 24q-61 36 -95.5 99t-34.5 140t34.5 140t95.5 99t135 36t135 -36t95.5 -99t34.5 -140t-34.5 -140t-95.5 -99t-135 -36t-135 36zM142.5 145.5q28.5 -53.5 78.5 -84t110 -30.5t110 30.5t78.5 84t28.5 117.5q0 65 -28.5 118t-78 83.5t-110.5 30.5t-110.5 -30.5
t-78 -83.5t-28.5 -118q0 -64 28.5 -117.5z" />
    <glyph glyph-name="p" unicode="p" horiz-adv-x="674" 
d="M88 526h45v-115q31 58 88.5 92.5t127.5 34.5q72 0 131.5 -36t93.5 -99t34 -140t-34 -140t-93.5 -99t-131.5 -36q-70 0 -127.5 34.5t-88.5 92.5v-315h-45v726zM164 145.5q28 -52.5 76.5 -82.5t108.5 -30t108 30t75.5 82.5t27.5 117.5t-27.5 117.5t-75.5 82.5t-108 30
t-108.5 -30t-76.5 -82.5t-28 -117.5t28 -117.5z" />
    <glyph glyph-name="q" unicode="q" horiz-adv-x="674" 
d="M541 115q-31 -58 -88.5 -92.5t-127.5 -34.5q-72 0 -131.5 36t-93.5 99t-34 140t34 140t93.5 99t131.5 36q70 0 127.5 -34.5t88.5 -92.5v115h45v-726h-45v315zM141.5 145.5q27.5 -52.5 75.5 -82.5t108 -30t108.5 30t76.5 82.5t28 117.5t-28 117.5t-76.5 82.5t-108.5 30
t-108 -30t-75.5 -82.5t-27.5 -117.5t27.5 -117.5z" />
    <glyph glyph-name="r" unicode="r" horiz-adv-x="340" 
d="M88 526h45v-76q21 39 61 60.5t91 21.5h33v-45h-34q-71 0 -111 -46.5t-40 -120.5v-320h-45v526z" />
    <glyph glyph-name="s" unicode="s" horiz-adv-x="506" 
d="M139.5 21.5q-53.5 33.5 -81.5 93.5l41 19q26 -49 68.5 -76t93.5 -27q58 0 96 29t38 74q0 37 -25 62t-72 37l-88 22q-64 16 -97 52t-33 89q0 41 21.5 73.5t58.5 50.5t82 18q63 0 115 -31.5t73 -83.5l-43 -21q-22 44 -60 68.5t-84 24.5q-51 0 -84 -28t-33 -71
q0 -34 23 -57.5t67 -34.5l89 -23q66 -16 101.5 -54.5t35.5 -91.5q0 -42 -23.5 -75.5t-65 -52.5t-91.5 -19q-69 0 -122.5 33.5z" />
    <glyph glyph-name="t" unicode="t" horiz-adv-x="379" 
d="M175.5 27.5q-32.5 33.5 -32.5 98.5v360h-100v40h50q26 0 38 13t12 41v70h45v-124h114v-40h-114v-360q0 -89 86 -89q24 0 39 3v-41q-17 -5 -43 -5q-62 0 -94.5 33.5z" />
    <glyph glyph-name="u" unicode="u" 
d="M176.5 11.5q-45.5 23.5 -72.5 68.5t-27 106v340h45v-340q0 -73 45 -114t112 -41q74 0 116 49.5t42 125.5v320h45v-526h-45v77q-22 -41 -65 -65t-97 -24q-53 0 -98.5 23.5z" />
    <glyph glyph-name="v" unicode="v" horiz-adv-x="519" 
d="M22 526h51l186 -463l186 463h52l-215 -526h-48z" />
    <glyph glyph-name="w" unicode="w" horiz-adv-x="769" 
d="M22 526h50l154 -459l134 459h48l134 -458l155 458h50l-181 -526h-48l-134 455l-134 -455h-48z" />
    <glyph glyph-name="x" unicode="x" horiz-adv-x="474" 
d="M209 263l-185 263h57l156 -222l156 222h58l-185 -263l186 -263h-58l-157 222l-158 -222h-57z" />
    <glyph glyph-name="y" unicode="y" horiz-adv-x="523" 
d="M235 2l-213 524h51l187 -462l189 462h52l-301 -726h-49z" />
    <glyph glyph-name="z" unicode="z" horiz-adv-x="435" 
d="M33 30l316 456h-297v40h358v-30l-317 -456h320v-40h-380v30z" />
    <glyph glyph-name="braceleft" unicode="{" horiz-adv-x="291" 
d="M151 -93.5q-35 36.5 -35 94.5v204q0 37 -17.5 58.5t-53.5 21.5h-27v46h27q36 0 53.5 21.5t17.5 59.5v202q0 58 35 94.5t89 36.5h28v-45h-28q-34 0 -54 -23.5t-20 -60.5v-204q0 -32 -9 -57.5t-31 -46.5q40 -39 40 -105v-204q0 -37 20 -60.5t54 -23.5h28v-45h-28
q-54 0 -89 36.5z" />
    <glyph glyph-name="bar" unicode="|" horiz-adv-x="270" 
d="M110 845h50v-1035h-50v1035z" />
    <glyph glyph-name="braceright" unicode="}" horiz-adv-x="291" 
d="M23 -85h28q34 0 54 23.5t20 60.5v204q0 66 40 105q-22 21 -31 46.5t-9 57.5v204q0 37 -20 60.5t-54 23.5h-28v45h28q54 0 89 -36.5t35 -94.5v-202q0 -38 17.5 -59.5t53.5 -21.5h27v-46h-27q-36 0 -53.5 -21.5t-17.5 -58.5v-204q0 -58 -35 -94.5t-89 -36.5h-28v45z" />
    <glyph glyph-name="asciitilde" unicode="~" horiz-adv-x="602" 
d="M343 213.5q-22 10.5 -52 32.5q-26 20 -44.5 29.5t-42.5 9.5q-30 0 -48 -17t-23 -59h-43q2 59 35.5 90t81.5 31q30 0 52 -10.5t52 -32.5q26 -20 44.5 -29.5t42.5 -9.5q30 0 48 17t23 59h43q-2 -59 -35.5 -90t-81.5 -31q-30 0 -52 10.5z" />
    <glyph glyph-name="uni00A0" unicode="&#xa0;" horiz-adv-x="170" 
 />
    <glyph glyph-name="exclamdown" unicode="&#xa1;" horiz-adv-x="255" 
d="M105 318h45l3 -537h-50zM102.5 515.5q10.5 10.5 26.5 10.5q15 0 25.5 -10t10.5 -26t-10 -26.5t-26 -10.5t-26.5 10.5t-10.5 26.5q0 15 10.5 25.5z" />
    <glyph glyph-name="cent" unicode="&#xa2;" horiz-adv-x="607" 
d="M304 99q-67 6 -121.5 43t-85.5 97.5t-31 133.5t31 133.5t85.5 97.5t121.5 43v98h45v-98q64 -5 115.5 -38.5t76.5 -84.5l-38 -21q-26 45 -65.5 71.5t-88.5 30.5v-464q49 4 88.5 30.5t65.5 71.5l38 -20q-25 -51 -76.5 -85t-115.5 -39v-99h-45v99zM136 258.5
q25 -50.5 69 -81t99 -36.5v464q-55 -6 -99 -36.5t-69 -81t-25 -114.5t25 -114.5z" />
    <glyph glyph-name="sterling" unicode="&#xa3;" horiz-adv-x="648" 
d="M50 45h100v311h-100v45h100v133q0 66 27.5 116.5t77 78.5t114.5 28q90 0 153 -50t76 -141l-45 -10q-10 74 -58.5 115t-125.5 41q-76 0 -122.5 -48.5t-46.5 -129.5v-133h200v-45h-200v-311h349v-45h-499v45z" />
    <glyph glyph-name="currency" unicode="&#xa4;" horiz-adv-x="584" 
d="M66 75l74 74q-42 54 -42 120q0 64 42 121l-74 75l31 30l74 -74q26 20 58.5 32t62.5 12q62 0 121 -44l74 74l31 -30l-73 -75q41 -58 41 -121q0 -65 -41 -120l73 -74l-31 -32l-74 74q-55 -42 -121 -42q-30 0 -62 10.5t-59 31.5l-74 -74zM163.5 196.5q20.5 -33.5 55 -53.5
t73.5 -20q40 0 74 20t54 53.5t20 72.5t-20 73t-54 54t-74 20q-39 0 -73.5 -20t-55 -54t-20.5 -73t20.5 -72.5z" />
    <glyph glyph-name="yen" unicode="&#xa5;" horiz-adv-x="624" 
d="M287 153h-150v45h150v110h-150v45h137l-252 392h57l234 -356l232 356h57l-252 -392h137v-45h-150v-110h150v-45h-150v-153h-50v153z" />
    <glyph glyph-name="brokenbar" unicode="&#xa6;" horiz-adv-x="270" 
d="M110 845h50v-417h-50v417zM110 228h50v-418h-50v418z" />
    <glyph glyph-name="section" unicode="&#xa7;" horiz-adv-x="546" 
d="M141 -52.5q-59 37.5 -86 99.5l44 20q26 -54 74 -83t103 -29q58 0 96.5 30.5t38.5 77.5q0 76 -101 105l-92 26q-66 19 -100.5 56.5t-34.5 89.5q0 49 28.5 86t75.5 54q-42 21 -63 53t-21 73q0 43 22.5 77.5t62 54t87.5 19.5q66 0 121 -34.5t77 -89.5l-46 -21
q-23 47 -63.5 73.5t-89.5 26.5q-53 0 -88 -30t-35 -75q0 -33 24 -59t70 -38l93 -26q67 -19 104.5 -59.5t37.5 -93.5q0 -46 -27.5 -82.5t-73.5 -55.5q39 -23 60 -55.5t21 -72.5q0 -44 -24 -79.5t-67 -55.5t-96 -20q-73 0 -132 37.5zM155 282q24 -26 70 -38l93 -26l11 -3
q46 10 74 40.5t28 73.5q0 76 -101 105l-78 22q-52 -1 -86.5 -33.5t-34.5 -81.5q0 -33 24 -59z" />
    <glyph glyph-name="dieresis" unicode="&#xa8;" horiz-adv-x="416" 
d="M115 681.5q-12 11.5 -12 28.5t12 28.5t28 11.5t28 -11.5t12 -28.5t-12 -28.5t-28 -11.5t-28 11.5zM245 738.5q12 11.5 28 11.5t28 -11.5t12 -28.5t-12 -28.5t-28 -11.5t-28 11.5t-12 28.5t12 28.5z" />
    <glyph glyph-name="copyright" unicode="&#xa9;" horiz-adv-x="895" 
d="M254.5 39.5q-88.5 51.5 -140 140t-51.5 193.5q0 104 51.5 192t139.5 140t194 52q105 0 193 -52t139.5 -140t51.5 -192q0 -106 -52 -194t-140 -139.5t-192 -51.5q-105 0 -193.5 51.5zM157.5 203q44.5 -77 121.5 -122t169 -45t168.5 45t121 122t44.5 170q0 91 -44.5 168.5
t-121 122.5t-168.5 45t-169 -45t-121.5 -122t-44.5 -169q0 -93 44.5 -170zM280 480.5q26 47.5 71 74.5t100 27q59 0 104 -30.5t61 -71.5l-44 -21q-15 34 -47 55.5t-74 21.5q-65 0 -106 -45.5t-41 -117.5q0 -73 41 -118.5t106 -45.5q43 0 74 21t47 56l44 -21
q-16 -41 -61 -71.5t-104 -30.5q-55 0 -100 27.5t-71 75t-26 107.5t26 107.5z" />
    <glyph glyph-name="ordfeminine" unicode="&#xaa;" horiz-adv-x="456" 
d="M101 396q-35 29 -35 75q0 43 29.5 74.5t91.5 42.5l138 23v20q0 37 -26.5 60t-69.5 23q-34 0 -62.5 -17t-42.5 -46l-39 22q17 35 57.5 58.5t86.5 23.5q61 0 100 -35t39 -89v-256h-43v64q-18 -31 -55.5 -51.5t-81.5 -20.5q-52 0 -87 29zM135 424q23 -19 56 -19
q59 0 96.5 39t37.5 95v32l-127 -21q-86 -15 -86 -77q0 -30 23 -49z" />
    <glyph glyph-name="guillemotleft" unicode="&#xab;" horiz-adv-x="472" 
d="M29 269l151 186h47l-147 -186l147 -186h-47zM396 455h47l-147 -186l147 -186h-47l-151 186z" />
    <glyph glyph-name="logicalnot" unicode="&#xac;" horiz-adv-x="668" 
d="M513 228h-455v45h500v-233h-45v188z" />
    <glyph glyph-name="uni00AD" unicode="&#xad;" horiz-adv-x="468" 
d="M74 286h320v-45h-320v45z" />
    <glyph glyph-name="registered" unicode="&#xae;" horiz-adv-x="639" 
d="M191 306.5q-59 34.5 -93.5 93t-34.5 128.5q0 69 34 128t93 93.5t130 34.5q69 0 128 -34.5t93.5 -93.5t34.5 -128q0 -70 -34.5 -128.5t-93.5 -93t-128 -34.5q-70 0 -129 34.5zM135 421q28 -49 77 -77.5t108 -28.5q58 0 106.5 28.5t77 77.5t28.5 107t-28.5 106.5t-77 77
t-106.5 28.5q-59 0 -108 -28.5t-77 -77t-28 -106.5t28 -107zM231 664h100q41 0 66.5 -23t25.5 -62q0 -26 -12.5 -46.5t-38.5 -31.5l63 -107h-50l-57 101h-53v-101h-44v270zM331 533q22 0 35 13t13 33q0 21 -13 33t-35 12h-56v-91h56z" />
    <glyph glyph-name="macron" unicode="&#xaf;" horiz-adv-x="456" 
d="M103 710h250v-40h-250v40z" />
    <glyph glyph-name="degree" unicode="&#xb0;" horiz-adv-x="440" 
d="M123.5 524.5q-38.5 38.5 -38.5 96.5t38.5 97t96.5 39t96.5 -39.5t38.5 -97.5q0 -57 -38.5 -95.5t-96.5 -38.5t-96.5 38.5zM152 551q28 -27 68 -27q38 0 67 27.5t29 69.5q0 43 -29 70t-67 27q-39 0 -67.5 -27t-28.5 -70t28 -70z" />
    <glyph glyph-name="plusminus" unicode="&#xb1;" horiz-adv-x="596" 
d="M276 343h-228v45h228v197h45v-197h227v-45h-227v-198h-45v198zM48 45h500v-45h-500v45z" />
    <glyph glyph-name="uni00B2" unicode="&#xb2;" horiz-adv-x="428" 
d="M45 253l147 159l18 20q44 47 65 72.5t32.5 51t11.5 54.5q0 47 -28.5 74t-78.5 27t-83.5 -28t-45.5 -80l-42 10q14 64 59.5 102t110.5 38q67 0 111 -39.5t44 -102.5q0 -44 -26.5 -86.5t-89.5 -110.5l-138 -149h265v-42h-332v30z" />
    <glyph glyph-name="uni00B3" unicode="&#xb3;" horiz-adv-x="430" 
d="M101.5 249.5q-46.5 34.5 -62.5 94.5l40 15q14 -48 48.5 -75.5t84.5 -27.5q57 0 92.5 34t35.5 91q0 56 -36 87.5t-92 31.5q-18 0 -36 -3l-8 20l144 186h-251v42h306v-36l-132 -172q64 -4 108 -47.5t44 -109.5q0 -45 -22.5 -83t-62.5 -60t-90 -22q-64 0 -110.5 34.5z" />
    <glyph glyph-name="acute" unicode="&#xb4;" horiz-adv-x="336" 
d="M181 784h52l-91 -144h-39z" />
    <glyph glyph-name="uni00B5" unicode="&#xb5;" 
d="M77 526h45v-340q0 -73 45 -114t112 -41q74 0 116 49.5t42 125.5v320h45v-526h-45v77q-22 -41 -65 -65t-97 -24q-46 0 -86 17t-67 50v-195h-45v666z" />
    <glyph glyph-name="paragraph" unicode="&#xb6;" horiz-adv-x="358" 
d="M89 493q-41 40 -41 106t40.5 106t109.5 40h50v-845h-50v553q-68 0 -109 40z" />
    <glyph glyph-name="periodcentered" unicode="&#xb7;" horiz-adv-x="261" 
d="M107 236q-10 10 -10 26t10 26.5t24 10.5t23.5 -10.5t9.5 -26.5t-9.5 -26t-23.5 -10t-24 10z" />
    <glyph glyph-name="cedilla" unicode="&#xb8;" horiz-adv-x="366" 
d="M136 -185q-21 5 -33 13l13 29q34 -13 60 -13q24 0 37.5 12t13.5 32q0 17 -10.5 26.5t-29.5 9.5q-21 0 -44 -13l-20 7l11 102h32l-7 -67q15 6 33 6q31 0 51 -20t20 -50q0 -35 -24 -57t-63 -22q-19 0 -40 5z" />
    <glyph glyph-name="uni00B9" unicode="&#xb9;" horiz-adv-x="292" 
d="M126 703h-98v42h145v-522h-47v480z" />
    <glyph glyph-name="ordmasculine" unicode="&#xba;" horiz-adv-x="509" 
d="M159.5 392.5q-43.5 25.5 -68.5 69.5t-25 99t25 99t68 69.5t96 25.5q52 0 95 -25.5t68 -69.5t25 -99t-25 -99.5t-68 -69.5t-95 -25t-95.5 25.5zM131 484q19 -35 52 -55t72 -20t71.5 20t51.5 55t19 77t-19 77t-51.5 55t-71.5 20t-72 -20t-52 -55t-19 -77t19 -77z" />
    <glyph glyph-name="guillemotright" unicode="&#xbb;" horiz-adv-x="472" 
d="M392 269l-147 186h47l151 -186l-151 -186h-47zM176 269l-147 186h47l151 -186l-151 -186h-47z" />
    <glyph glyph-name="onequarter" unicode="&#xbc;" horiz-adv-x="863" 
d="M107 705h-79v40h124v-418h-45v378zM568 745h52l-446 -745h-52zM722 97h-210v37l211 284h41v-283h52v-38h-52v-97h-42v97zM722 135v220l-163 -220h163z" />
    <glyph glyph-name="onehalf" unicode="&#xbd;" horiz-adv-x="835" 
d="M107 705h-79v40h124v-418h-45v378zM568 745h52l-446 -745h-52zM515 30l117 126q44 47 61 67.5t27 40.5t10 43q0 36 -22 56t-58 20q-37 0 -62.5 -21t-35.5 -60l-40 11q11 51 48.5 81t88.5 30q55 0 90.5 -32t35.5 -83q0 -37 -21.5 -70t-67.5 -83l-108 -116h206v-40h-269v30
z" />
    <glyph glyph-name="threequarters" unicode="&#xbe;" horiz-adv-x="956" 
d="M90 348q-38 27 -51 74l38 15q11 -36 38 -56.5t64 -20.5q43 0 69.5 25.5t26.5 68.5t-27 67t-69 24q-16 0 -32 -4l-8 20l113 144h-194v40h246v-36l-101 -130q51 -4 84.5 -38.5t33.5 -86.5q0 -37 -18.5 -67.5t-50.5 -48t-73 -17.5q-51 0 -89 27zM661 745h52l-446 -745h-52z
M815 97h-210v37l211 284h41v-283h52v-38h-52v-97h-42v97zM815 135v220l-163 -220h163z" />
    <glyph glyph-name="questiondown" unicode="&#xbf;" horiz-adv-x="474" 
d="M136 -208.5q-43 22.5 -67.5 61t-24.5 83.5q0 40 15.5 73t38 59t59.5 62l22 22q44 45 67 81t23 81v4h45v-4q0 -62 -29 -106t-85 -95q-52 -49 -79 -89t-27 -90q0 -31 16.5 -59t47.5 -45t72 -17q63 0 106.5 38.5t58.5 107.5l44 -9q-14 -83 -71.5 -132t-137.5 -49
q-51 0 -94 22.5zM263 526h55v-90h-55v90z" />
    <glyph glyph-name="Agrave" unicode="&#xc0;" horiz-adv-x="644" 
d="M298 745h48l276 -745h-55l-72 197h-346l-72 -197h-55zM479 242l-157 429l-157 -429h314zM211 1003h52l78 -144h-39z" />
    <glyph glyph-name="Aacute" unicode="&#xc1;" horiz-adv-x="644" 
d="M298 745h48l276 -745h-55l-72 197h-346l-72 -197h-55zM479 242l-157 429l-157 -429h314zM380 1003h52l-91 -144h-39z" />
    <glyph glyph-name="Acircumflex" unicode="&#xc2;" horiz-adv-x="644" 
d="M298 745h48l276 -745h-55l-72 197h-346l-72 -197h-55zM479 242l-157 429l-157 -429h314zM301 1003h40l126 -144h-46l-100 111l-98 -111h-46z" />
    <glyph glyph-name="Atilde" unicode="&#xc3;" horiz-adv-x="644" 
d="M298 745h48l276 -745h-55l-72 197h-346l-72 -197h-55zM479 242l-157 429l-157 -429h314zM346.5 895q-12.5 6 -30.5 17q-17 10 -27 15t-22 5q-13 0 -22.5 -10t-11.5 -29h-36q1 34 20.5 55t50.5 21q17 0 29.5 -6t30.5 -17q17 -10 27 -15t22 -5q31 0 34 39h36
q-1 -34 -20.5 -55t-50.5 -21q-17 0 -29.5 6z" />
    <glyph glyph-name="Adieresis" unicode="&#xc4;" horiz-adv-x="644" 
d="M298 745h48l276 -745h-55l-72 197h-346l-72 -197h-55zM479 242l-157 429l-157 -429h314zM229 900.5q-12 11.5 -12 28.5t12 28.5t28 11.5t28 -11.5t12 -28.5t-12 -28.5t-28 -11.5t-28 11.5zM359 957.5q12 11.5 28 11.5t28 -11.5t12 -28.5t-12 -28.5t-28 -11.5t-28 11.5
t-12 28.5t12 28.5z" />
    <glyph glyph-name="Aring" unicode="&#xc5;" horiz-adv-x="644" 
d="M298 745h48l276 -745h-55l-72 197h-346l-72 -197h-55zM479 242l-157 429l-157 -429h314zM249 838q-29 29 -29 72q0 44 29.5 73t72.5 29t72 -29.5t29 -73.5q0 -43 -29 -71.5t-72 -28.5q-44 0 -73 29zM276 862.5q19 -18.5 46 -18.5q26 0 45.5 18.5t19.5 47.5t-19.5 47.5
t-45.5 18.5q-27 0 -46 -18t-19 -48q0 -29 19 -47.5z" />
    <glyph glyph-name="AE" unicode="&#xc6;" horiz-adv-x="987" 
d="M298 745h634v-45h-410v-304h390v-45h-390v-306h410v-45h-460v197h-323l-72 -197h-55zM472 242v458h-139l-168 -458h307z" />
    <glyph glyph-name="Ccedilla" unicode="&#xc7;" horiz-adv-x="788" 
d="M409 -11l-6 -56q15 6 33 6q31 0 51 -20t20 -50q0 -35 -24 -57t-63 -22q-19 0 -40 5t-33 13l13 29q34 -13 60 -13q24 0 37.5 12t13.5 32q0 17 -10.5 26.5t-29.5 9.5q-21 0 -44 -13l-20 7l10 94q-87 12 -155 64t-106.5 134.5t-38.5 182.5q0 109 46 197t126.5 137.5
t180.5 49.5q70 0 130 -26.5t101.5 -68t60.5 -86.5l-47 -21q-34 71 -98 112.5t-147 41.5q-88 0 -157 -42.5t-107.5 -119t-38.5 -174.5q0 -99 38.5 -175.5t107.5 -119t157 -42.5q83 0 147 41.5t98 112.5l47 -21q-19 -45 -60.5 -86.5t-101.5 -68t-130 -26.5z" />
    <glyph glyph-name="Egrave" unicode="&#xc8;" horiz-adv-x="614" 
d="M99 745h460v-45h-410v-304h390v-45h-390v-306h410v-45h-460v745zM218 1003h52l78 -144h-39z" />
    <glyph glyph-name="Eacute" unicode="&#xc9;" horiz-adv-x="614" 
d="M99 745h460v-45h-410v-304h390v-45h-390v-306h410v-45h-460v745zM387 1003h52l-91 -144h-39z" />
    <glyph glyph-name="Ecircumflex" unicode="&#xca;" horiz-adv-x="614" 
d="M99 745h460v-45h-410v-304h390v-45h-390v-306h410v-45h-460v745zM308 1003h40l126 -144h-46l-100 111l-98 -111h-46z" />
    <glyph glyph-name="Edieresis" unicode="&#xcb;" horiz-adv-x="614" 
d="M99 745h460v-45h-410v-304h390v-45h-390v-306h410v-45h-460v745zM236 900.5q-12 11.5 -12 28.5t12 28.5t28 11.5t28 -11.5t12 -28.5t-12 -28.5t-28 -11.5t-28 11.5zM366 957.5q12 11.5 28 11.5t28 -11.5t12 -28.5t-12 -28.5t-28 -11.5t-28 11.5t-12 28.5t12 28.5z" />
    <glyph glyph-name="Igrave" unicode="&#xcc;" horiz-adv-x="248" 
d="M99 745h50v-745h-50v745zM13 1003h52l78 -144h-39z" />
    <glyph glyph-name="Iacute" unicode="&#xcd;" horiz-adv-x="248" 
d="M99 745h50v-745h-50v745zM182 1003h52l-91 -144h-39z" />
    <glyph glyph-name="Icircumflex" unicode="&#xce;" horiz-adv-x="248" 
d="M99 745h50v-745h-50v745zM103 1003h40l126 -144h-46l-100 111l-98 -111h-46z" />
    <glyph glyph-name="Idieresis" unicode="&#xcf;" horiz-adv-x="248" 
d="M99 745h50v-745h-50v745zM31 900.5q-12 11.5 -12 28.5t12 28.5t28 11.5t28 -11.5t12 -28.5t-12 -28.5t-28 -11.5t-28 11.5zM161 957.5q12 11.5 28 11.5t28 -11.5t12 -28.5t-12 -28.5t-28 -11.5t-28 11.5t-12 28.5t12 28.5z" />
    <glyph glyph-name="Eth" unicode="&#xd0;" horiz-adv-x="744" 
d="M99 350h-85v45h85v350h238q107 0 186.5 -45.5t122.5 -129.5t43 -197t-43 -197t-122.5 -130t-186.5 -46h-238v350zM335 45q90 0 159 41t107 115.5t38 171.5t-38 171t-107 115t-159 41h-186v-305h185v-45h-185v-305h186z" />
    <glyph glyph-name="Ntilde" unicode="&#xd1;" horiz-adv-x="738" 
d="M99 745h40l450 -644v644h50v-745h-40l-450 644v-644h-50v745zM393.5 895q-12.5 6 -30.5 17q-17 10 -27 15t-22 5q-13 0 -22.5 -10t-11.5 -29h-36q1 34 20.5 55t50.5 21q17 0 29.5 -6t30.5 -17q17 -10 27 -15t22 -5q31 0 34 39h36q-1 -34 -20.5 -55t-50.5 -21
q-17 0 -29.5 6z" />
    <glyph glyph-name="Ograve" unicode="&#xd2;" horiz-adv-x="884" 
d="M258.5 37.5q-83.5 49.5 -132.5 137.5t-49 198t49 198t132.5 137t183.5 49q99 0 183 -49.5t133 -137t49 -197.5t-49 -198t-132.5 -137.5t-183.5 -49.5t-183.5 49.5zM167 205q40 -77 112 -123t163 -46t163 46t112 123t40 168q0 90 -40 167t-111.5 123t-163.5 46
q-91 0 -163 -46t-112 -123t-40 -167q0 -91 40 -168zM331 1003h52l78 -144h-39z" />
    <glyph glyph-name="Oacute" unicode="&#xd3;" horiz-adv-x="884" 
d="M258.5 37.5q-83.5 49.5 -132.5 137.5t-49 198t49 198t132.5 137t183.5 49q99 0 183 -49.5t133 -137t49 -197.5t-49 -198t-132.5 -137.5t-183.5 -49.5t-183.5 49.5zM167 205q40 -77 112 -123t163 -46t163 46t112 123t40 168q0 90 -40 167t-111.5 123t-163.5 46
q-91 0 -163 -46t-112 -123t-40 -167q0 -91 40 -168zM500 1003h52l-91 -144h-39z" />
    <glyph glyph-name="Ocircumflex" unicode="&#xd4;" horiz-adv-x="884" 
d="M258.5 37.5q-83.5 49.5 -132.5 137.5t-49 198t49 198t132.5 137t183.5 49q99 0 183 -49.5t133 -137t49 -197.5t-49 -198t-132.5 -137.5t-183.5 -49.5t-183.5 49.5zM167 205q40 -77 112 -123t163 -46t163 46t112 123t40 168q0 90 -40 167t-111.5 123t-163.5 46
q-91 0 -163 -46t-112 -123t-40 -167q0 -91 40 -168zM421 1003h40l126 -144h-46l-100 111l-98 -111h-46z" />
    <glyph glyph-name="Otilde" unicode="&#xd5;" horiz-adv-x="884" 
d="M258.5 37.5q-83.5 49.5 -132.5 137.5t-49 198t49 198t132.5 137t183.5 49q99 0 183 -49.5t133 -137t49 -197.5t-49 -198t-132.5 -137.5t-183.5 -49.5t-183.5 49.5zM167 205q40 -77 112 -123t163 -46t163 46t112 123t40 168q0 90 -40 167t-111.5 123t-163.5 46
q-91 0 -163 -46t-112 -123t-40 -167q0 -91 40 -168zM466.5 895q-12.5 6 -30.5 17q-17 10 -27 15t-22 5q-13 0 -22.5 -10t-11.5 -29h-36q1 34 20.5 55t50.5 21q17 0 29.5 -6t30.5 -17q17 -10 27 -15t22 -5q31 0 34 39h36q-1 -34 -20.5 -55t-50.5 -21q-17 0 -29.5 6z" />
    <glyph glyph-name="Odieresis" unicode="&#xd6;" horiz-adv-x="884" 
d="M258.5 37.5q-83.5 49.5 -132.5 137.5t-49 198t49 198t132.5 137t183.5 49q99 0 183 -49.5t133 -137t49 -197.5t-49 -198t-132.5 -137.5t-183.5 -49.5t-183.5 49.5zM167 205q40 -77 112 -123t163 -46t163 46t112 123t40 168q0 90 -40 167t-111.5 123t-163.5 46
q-91 0 -163 -46t-112 -123t-40 -167q0 -91 40 -168zM349 900.5q-12 11.5 -12 28.5t12 28.5t28 11.5t28 -11.5t12 -28.5t-12 -28.5t-28 -11.5t-28 11.5zM479 957.5q12 11.5 28 11.5t28 -11.5t12 -28.5t-12 -28.5t-28 -11.5t-28 11.5t-12 28.5t12 28.5z" />
    <glyph glyph-name="multiply" unicode="&#xd7;" horiz-adv-x="524" 
d="M55 31l175 176l-174 174l31 32l175 -174l175 174l31 -32l-174 -174l175 -176l-32 -31l-175 175l-175 -175z" />
    <glyph glyph-name="Oslash" unicode="&#xd8;" horiz-adv-x="884" 
d="M322.5 8q-57.5 20 -104.5 57l-54 -65h-65l82 99q-49 52 -76.5 122.5t-27.5 151.5q0 110 49 198t132.5 137t183.5 49q62 0 119 -20t104 -57l54 65h65l-82 -98q50 -52 77.5 -122t27.5 -152q0 -110 -49 -198t-132.5 -137.5t-183.5 -49.5q-62 0 -119.5 20zM149.5 245
q22.5 -61 63.5 -108l421 506q-39 32 -88 49t-104 17q-91 0 -163 -46t-112 -123t-40 -167q0 -67 22.5 -128zM338 53.5q49 -17.5 104 -17.5q91 0 163 46t112 123t40 168q0 67 -22.5 128t-64.5 107l-420 -505q39 -32 88 -49.5z" />
    <glyph glyph-name="Ugrave" unicode="&#xd9;" horiz-adv-x="690" 
d="M214.5 21q-56.5 33 -88 92.5t-31.5 137.5v494h50v-498q0 -62 25 -111t70.5 -76t104.5 -27t104.5 27t70.5 76t25 111v498h50v-494q0 -78 -31.5 -137.5t-88 -92.5t-130.5 -33t-130.5 33zM234 1003h52l78 -144h-39z" />
    <glyph glyph-name="Uacute" unicode="&#xda;" horiz-adv-x="690" 
d="M214.5 21q-56.5 33 -88 92.5t-31.5 137.5v494h50v-498q0 -62 25 -111t70.5 -76t104.5 -27t104.5 27t70.5 76t25 111v498h50v-494q0 -78 -31.5 -137.5t-88 -92.5t-130.5 -33t-130.5 33zM403 1003h52l-91 -144h-39z" />
    <glyph glyph-name="Ucircumflex" unicode="&#xdb;" horiz-adv-x="690" 
d="M214.5 21q-56.5 33 -88 92.5t-31.5 137.5v494h50v-498q0 -62 25 -111t70.5 -76t104.5 -27t104.5 27t70.5 76t25 111v498h50v-494q0 -78 -31.5 -137.5t-88 -92.5t-130.5 -33t-130.5 33zM324 1003h40l126 -144h-46l-100 111l-98 -111h-46z" />
    <glyph glyph-name="Udieresis" unicode="&#xdc;" horiz-adv-x="690" 
d="M214.5 21q-56.5 33 -88 92.5t-31.5 137.5v494h50v-498q0 -62 25 -111t70.5 -76t104.5 -27t104.5 27t70.5 76t25 111v498h50v-494q0 -78 -31.5 -137.5t-88 -92.5t-130.5 -33t-130.5 33zM252 900.5q-12 11.5 -12 28.5t12 28.5t28 11.5t28 -11.5t12 -28.5t-12 -28.5
t-28 -11.5t-28 11.5zM382 957.5q12 11.5 28 11.5t28 -11.5t12 -28.5t-12 -28.5t-28 -11.5t-28 11.5t-12 28.5t12 28.5z" />
    <glyph glyph-name="Yacute" unicode="&#xdd;" horiz-adv-x="624" 
d="M287 333l-265 412h57l234 -356l232 356h57l-265 -412v-333h-50v333zM370 1003h52l-91 -144h-39z" />
    <glyph glyph-name="Thorn" unicode="&#xde;" horiz-adv-x="635" 
d="M95 745h50v-150h194q69 0 122.5 -28t83.5 -79t30 -116t-30 -115.5t-83.5 -78.5t-122.5 -28h-194v-150h-50v745zM339 195q54 0 96.5 22.5t66 63t23.5 92.5t-23.5 92t-66 62.5t-96.5 22.5h-194v-355h194z" />
    <glyph glyph-name="germandbls" unicode="&#xdf;" horiz-adv-x="605" 
d="M126.5 659q27.5 47 75 72.5t105.5 25.5q56 0 101.5 -23.5t72.5 -67.5t27 -101q0 -61 -29 -101.5t-86 -66.5q146 -49 146 -188q0 -62 -29 -109.5t-80.5 -73.5t-115.5 -26h-69v45h69q77 0 125.5 45t48.5 118t-50 118.5t-131 45.5h-62v45h55q68 0 112.5 40.5t44.5 107.5
q0 64 -42.5 105.5t-109.5 41.5q-45 0 -81.5 -20t-57.5 -56.5t-21 -84.5v-691h-46v691q0 61 27.5 108z" />
    <glyph glyph-name="agrave" unicode="&#xe0;" horiz-adv-x="574" 
d="M115 29q-49 41 -49 107q0 60 41 104t130 59l204 34v32q0 59 -40.5 94.5t-107.5 35.5q-51 0 -94 -24.5t-67 -66.5l-40 21q24 47 79 80t122 33q56 0 100 -22t68.5 -61.5t24.5 -89.5v-365h-45v106q-24 -49 -79.5 -83.5t-124.5 -34.5q-73 0 -122 41zM148.5 59.5
q36.5 -29.5 92.5 -29.5q59 0 104.5 28.5t70.5 76t25 103.5v52l-189 -31q-74 -12 -107 -44t-33 -77q0 -49 36.5 -78.5zM176 784h52l78 -144h-39z" />
    <glyph glyph-name="aacute" unicode="&#xe1;" horiz-adv-x="574" 
d="M115 29q-49 41 -49 107q0 60 41 104t130 59l204 34v32q0 59 -40.5 94.5t-107.5 35.5q-51 0 -94 -24.5t-67 -66.5l-40 21q24 47 79 80t122 33q56 0 100 -22t68.5 -61.5t24.5 -89.5v-365h-45v106q-24 -49 -79.5 -83.5t-124.5 -34.5q-73 0 -122 41zM148.5 59.5
q36.5 -29.5 92.5 -29.5q59 0 104.5 28.5t70.5 76t25 103.5v52l-189 -31q-74 -12 -107 -44t-33 -77q0 -49 36.5 -78.5zM345 784h52l-91 -144h-39z" />
    <glyph glyph-name="acircumflex" unicode="&#xe2;" horiz-adv-x="574" 
d="M115 29q-49 41 -49 107q0 60 41 104t130 59l204 34v32q0 59 -40.5 94.5t-107.5 35.5q-51 0 -94 -24.5t-67 -66.5l-40 21q24 47 79 80t122 33q56 0 100 -22t68.5 -61.5t24.5 -89.5v-365h-45v106q-24 -49 -79.5 -83.5t-124.5 -34.5q-73 0 -122 41zM148.5 59.5
q36.5 -29.5 92.5 -29.5q59 0 104.5 28.5t70.5 76t25 103.5v52l-189 -31q-74 -12 -107 -44t-33 -77q0 -49 36.5 -78.5zM266 784h40l126 -144h-46l-100 111l-98 -111h-46z" />
    <glyph glyph-name="atilde" unicode="&#xe3;" horiz-adv-x="574" 
d="M115 29q-49 41 -49 107q0 60 41 104t130 59l204 34v32q0 59 -40.5 94.5t-107.5 35.5q-51 0 -94 -24.5t-67 -66.5l-40 21q24 47 79 80t122 33q56 0 100 -22t68.5 -61.5t24.5 -89.5v-365h-45v106q-24 -49 -79.5 -83.5t-124.5 -34.5q-73 0 -122 41zM148.5 59.5
q36.5 -29.5 92.5 -29.5q59 0 104.5 28.5t70.5 76t25 103.5v52l-189 -31q-74 -12 -107 -44t-33 -77q0 -49 36.5 -78.5zM311.5 676q-12.5 6 -30.5 17q-17 10 -27 15t-22 5q-13 0 -22.5 -10t-11.5 -29h-36q1 34 20.5 55t50.5 21q17 0 29.5 -6t30.5 -17q17 -10 27 -15t22 -5
q31 0 34 39h36q-1 -34 -20.5 -55t-50.5 -21q-17 0 -29.5 6z" />
    <glyph glyph-name="adieresis" unicode="&#xe4;" horiz-adv-x="574" 
d="M115 29q-49 41 -49 107q0 60 41 104t130 59l204 34v32q0 59 -40.5 94.5t-107.5 35.5q-51 0 -94 -24.5t-67 -66.5l-40 21q24 47 79 80t122 33q56 0 100 -22t68.5 -61.5t24.5 -89.5v-365h-45v106q-24 -49 -79.5 -83.5t-124.5 -34.5q-73 0 -122 41zM148.5 59.5
q36.5 -29.5 92.5 -29.5q59 0 104.5 28.5t70.5 76t25 103.5v52l-189 -31q-74 -12 -107 -44t-33 -77q0 -49 36.5 -78.5zM194 681.5q-12 11.5 -12 28.5t12 28.5t28 11.5t28 -11.5t12 -28.5t-12 -28.5t-28 -11.5t-28 11.5zM324 738.5q12 11.5 28 11.5t28 -11.5t12 -28.5
t-12 -28.5t-28 -11.5t-28 11.5t-12 28.5t12 28.5z" />
    <glyph glyph-name="aring" unicode="&#xe5;" horiz-adv-x="574" 
d="M115 29q-49 41 -49 107q0 60 41 104t130 59l204 34v32q0 59 -40.5 94.5t-107.5 35.5q-51 0 -94 -24.5t-67 -66.5l-40 21q24 47 79 80t122 33q56 0 100 -22t68.5 -61.5t24.5 -89.5v-365h-45v106q-24 -49 -79.5 -83.5t-124.5 -34.5q-73 0 -122 41zM148.5 59.5
q36.5 -29.5 92.5 -29.5q59 0 104.5 28.5t70.5 76t25 103.5v52l-189 -31q-74 -12 -107 -44t-33 -77q0 -49 36.5 -78.5zM214 619q-29 29 -29 72q0 44 29.5 73t72.5 29t72 -29.5t29 -73.5q0 -43 -29 -71.5t-72 -28.5q-44 0 -73 29zM241 643.5q19 -18.5 46 -18.5q26 0 45.5 18.5
t19.5 47.5t-19.5 47.5t-45.5 18.5q-27 0 -46 -18t-19 -48q0 -29 19 -47.5z" />
    <glyph glyph-name="ae" unicode="&#xe6;" horiz-adv-x="1002" 
d="M115 29q-49 41 -49 107q0 60 41 104t130 59l203 34v32q0 59 -40 94.5t-107 35.5q-51 0 -94 -24.5t-67 -66.5l-40 21q24 47 79 80t122 33q71 0 121 -34.5t66 -91.5q33 59 90 92.5t126 33.5q67 0 122 -33t86.5 -90t31.5 -127q0 -16 -3 -39h-447q3 -62 32.5 -112t78.5 -78.5
t109 -28.5q57 0 103 27t74 76l38 -20q-29 -58 -87 -91.5t-128 -33.5q-69 0 -126.5 31.5t-93.5 87.5v-107h-46v103q-25 -48 -80 -81.5t-123 -33.5q-73 0 -122 41zM148.5 59.5q36.5 -29.5 92.5 -29.5q59 0 104 28.5t70 76t25 103.5v52l-188 -31q-74 -12 -107 -44t-33 -77
q0 -49 36.5 -78.5zM890 289q0 58 -25.5 105t-70 74.5t-98.5 27.5t-100 -27t-75 -74.5t-34 -105.5h403z" />
    <glyph glyph-name="ccedilla" unicode="&#xe7;" horiz-adv-x="607" 
d="M314 -205q-21 5 -33 13l13 29q34 -13 60 -13q24 0 37.5 12t13.5 32q0 17 -10.5 26.5t-29.5 9.5q-21 0 -44 -13l-20 7l10 91q-70 4 -126.5 40.5t-89 98t-32.5 135.5q0 77 35 140t95.5 99t134.5 36q71 0 129.5 -34.5t86.5 -89.5l-38 -21q-28 49 -74.5 76t-103.5 27
q-61 0 -111 -29.5t-79.5 -82.5t-29.5 -121t29.5 -121t79.5 -82.5t111 -29.5q57 0 103.5 27t74.5 76l38 -20q-26 -51 -80.5 -86t-120.5 -39l-6 -55q15 6 33 6q31 0 51 -20t20 -50q0 -35 -24 -57t-63 -22q-19 0 -40 5z" />
    <glyph glyph-name="egrave" unicode="&#xe8;" horiz-adv-x="627" 
d="M196.5 24.5q-60.5 36.5 -95.5 99.5t-35 139q0 77 33.5 140t92 99t129.5 36q67 0 122 -33t86.5 -90t31.5 -127q0 -16 -3 -39h-447q3 -62 32.5 -112t78.5 -78.5t109 -28.5q57 0 103 27t74 76l38 -20q-29 -58 -87 -91.5t-128 -33.5q-74 0 -134.5 36.5zM515 289
q0 58 -25.5 105t-70 74.5t-98.5 27.5t-100 -27t-75 -74.5t-34 -105.5h403zM203 784h52l78 -144h-39z" />
    <glyph glyph-name="eacute" unicode="&#xe9;" horiz-adv-x="627" 
d="M196.5 24.5q-60.5 36.5 -95.5 99.5t-35 139q0 77 33.5 140t92 99t129.5 36q67 0 122 -33t86.5 -90t31.5 -127q0 -16 -3 -39h-447q3 -62 32.5 -112t78.5 -78.5t109 -28.5q57 0 103 27t74 76l38 -20q-29 -58 -87 -91.5t-128 -33.5q-74 0 -134.5 36.5zM515 289
q0 58 -25.5 105t-70 74.5t-98.5 27.5t-100 -27t-75 -74.5t-34 -105.5h403zM372 784h52l-91 -144h-39z" />
    <glyph glyph-name="ecircumflex" unicode="&#xea;" horiz-adv-x="627" 
d="M196.5 24.5q-60.5 36.5 -95.5 99.5t-35 139q0 77 33.5 140t92 99t129.5 36q67 0 122 -33t86.5 -90t31.5 -127q0 -16 -3 -39h-447q3 -62 32.5 -112t78.5 -78.5t109 -28.5q57 0 103 27t74 76l38 -20q-29 -58 -87 -91.5t-128 -33.5q-74 0 -134.5 36.5zM515 289
q0 58 -25.5 105t-70 74.5t-98.5 27.5t-100 -27t-75 -74.5t-34 -105.5h403zM293 784h40l126 -144h-46l-100 111l-98 -111h-46z" />
    <glyph glyph-name="edieresis" unicode="&#xeb;" horiz-adv-x="627" 
d="M196.5 24.5q-60.5 36.5 -95.5 99.5t-35 139q0 77 33.5 140t92 99t129.5 36q67 0 122 -33t86.5 -90t31.5 -127q0 -16 -3 -39h-447q3 -62 32.5 -112t78.5 -78.5t109 -28.5q57 0 103 27t74 76l38 -20q-29 -58 -87 -91.5t-128 -33.5q-74 0 -134.5 36.5zM515 289
q0 58 -25.5 105t-70 74.5t-98.5 27.5t-100 -27t-75 -74.5t-34 -105.5h403zM221 681.5q-12 11.5 -12 28.5t12 28.5t28 11.5t28 -11.5t12 -28.5t-12 -28.5t-28 -11.5t-28 11.5zM351 738.5q12 11.5 28 11.5t28 -11.5t12 -28.5t-12 -28.5t-28 -11.5t-28 11.5t-12 28.5t12 28.5z
" />
    <glyph glyph-name="igrave" unicode="&#xec;" horiz-adv-x="185" 
d="M70 526h45v-526h-45v526zM-19 784h52l78 -144h-39z" />
    <glyph glyph-name="iacute" unicode="&#xed;" horiz-adv-x="185" 
d="M70 526h45v-526h-45v526zM150 784h52l-91 -144h-39z" />
    <glyph glyph-name="icircumflex" unicode="&#xee;" horiz-adv-x="185" 
d="M70 526h45v-526h-45v526zM71 784h40l126 -144h-46l-100 111l-98 -111h-46z" />
    <glyph glyph-name="idieresis" unicode="&#xef;" horiz-adv-x="185" 
d="M70 526h45v-526h-45v526zM-1 681.5q-12 11.5 -12 28.5t12 28.5t28 11.5t28 -11.5t12 -28.5t-12 -28.5t-28 -11.5t-28 11.5zM129 738.5q12 11.5 28 11.5t28 -11.5t12 -28.5t-12 -28.5t-28 -11.5t-28 11.5t-12 28.5t12 28.5z" />
    <glyph glyph-name="eth" unicode="&#xf0;" horiz-adv-x="664" 
d="M197 23.5q-61 35.5 -96 97.5t-35 138q0 75 34 136.5t95 97t137 35.5q63 0 117.5 -26.5t91.5 -85.5q-11 63 -42.5 123t-77.5 108l-170 -59v42l137 48q-90 75 -197 75q-49 0 -100 -17l-13 42q60 18 118 18q139 0 245 -99l86 30v-43l-56 -19q61 -72 94 -169t33 -195
q0 -101 -34.5 -171.5t-94 -106t-134.5 -35.5q-77 0 -138 35.5zM143.5 143q29.5 -52 79 -82t108.5 -30q60 0 109.5 30.5t78.5 83t29 115.5q0 62 -28 113.5t-77.5 81.5t-111.5 30t-111.5 -30t-77.5 -82t-28 -114q0 -64 29.5 -116z" />
    <glyph glyph-name="ntilde" unicode="&#xf1;" 
d="M88 526h45v-77q22 41 65 65t97 24q53 0 98.5 -24.5t72.5 -68.5t27 -100v-345h-45v340q0 46 -21 81.5t-56.5 54.5t-79.5 19q-73 0 -115.5 -50t-42.5 -125v-320h-45v526zM309.5 676q-12.5 6 -30.5 17q-17 10 -27 15t-22 5q-13 0 -22.5 -10t-11.5 -29h-36q1 34 20.5 55
t50.5 21q17 0 29.5 -6t30.5 -17q17 -10 27 -15t22 -5q31 0 34 39h36q-1 -34 -20.5 -55t-50.5 -21q-17 0 -29.5 6z" />
    <glyph glyph-name="ograve" unicode="&#xf2;" horiz-adv-x="662" 
d="M196 24q-61 36 -95.5 99t-34.5 140t34.5 140t95.5 99t135 36t135 -36t95.5 -99t34.5 -140t-34.5 -140t-95.5 -99t-135 -36t-135 36zM142.5 145.5q28.5 -53.5 78.5 -84t110 -30.5t110 30.5t78.5 84t28.5 117.5q0 65 -28.5 118t-78 83.5t-110.5 30.5t-110.5 -30.5
t-78 -83.5t-28.5 -118q0 -64 28.5 -117.5zM220 784h52l78 -144h-39z" />
    <glyph glyph-name="oacute" unicode="&#xf3;" horiz-adv-x="662" 
d="M196 24q-61 36 -95.5 99t-34.5 140t34.5 140t95.5 99t135 36t135 -36t95.5 -99t34.5 -140t-34.5 -140t-95.5 -99t-135 -36t-135 36zM142.5 145.5q28.5 -53.5 78.5 -84t110 -30.5t110 30.5t78.5 84t28.5 117.5q0 65 -28.5 118t-78 83.5t-110.5 30.5t-110.5 -30.5
t-78 -83.5t-28.5 -118q0 -64 28.5 -117.5zM389 784h52l-91 -144h-39z" />
    <glyph glyph-name="ocircumflex" unicode="&#xf4;" horiz-adv-x="662" 
d="M196 24q-61 36 -95.5 99t-34.5 140t34.5 140t95.5 99t135 36t135 -36t95.5 -99t34.5 -140t-34.5 -140t-95.5 -99t-135 -36t-135 36zM142.5 145.5q28.5 -53.5 78.5 -84t110 -30.5t110 30.5t78.5 84t28.5 117.5q0 65 -28.5 118t-78 83.5t-110.5 30.5t-110.5 -30.5
t-78 -83.5t-28.5 -118q0 -64 28.5 -117.5zM310 784h40l126 -144h-46l-100 111l-98 -111h-46z" />
    <glyph glyph-name="otilde" unicode="&#xf5;" horiz-adv-x="662" 
d="M196 24q-61 36 -95.5 99t-34.5 140t34.5 140t95.5 99t135 36t135 -36t95.5 -99t34.5 -140t-34.5 -140t-95.5 -99t-135 -36t-135 36zM142.5 145.5q28.5 -53.5 78.5 -84t110 -30.5t110 30.5t78.5 84t28.5 117.5q0 65 -28.5 118t-78 83.5t-110.5 30.5t-110.5 -30.5
t-78 -83.5t-28.5 -118q0 -64 28.5 -117.5zM355.5 676q-12.5 6 -30.5 17q-17 10 -27 15t-22 5q-13 0 -22.5 -10t-11.5 -29h-36q1 34 20.5 55t50.5 21q17 0 29.5 -6t30.5 -17q17 -10 27 -15t22 -5q31 0 34 39h36q-1 -34 -20.5 -55t-50.5 -21q-17 0 -29.5 6z" />
    <glyph glyph-name="odieresis" unicode="&#xf6;" horiz-adv-x="662" 
d="M196 24q-61 36 -95.5 99t-34.5 140t34.5 140t95.5 99t135 36t135 -36t95.5 -99t34.5 -140t-34.5 -140t-95.5 -99t-135 -36t-135 36zM142.5 145.5q28.5 -53.5 78.5 -84t110 -30.5t110 30.5t78.5 84t28.5 117.5q0 65 -28.5 118t-78 83.5t-110.5 30.5t-110.5 -30.5
t-78 -83.5t-28.5 -118q0 -64 28.5 -117.5zM238 681.5q-12 11.5 -12 28.5t12 28.5t28 11.5t28 -11.5t12 -28.5t-12 -28.5t-28 -11.5t-28 11.5zM368 738.5q12 11.5 28 11.5t28 -11.5t12 -28.5t-12 -28.5t-28 -11.5t-28 11.5t-12 28.5t12 28.5z" />
    <glyph glyph-name="divide" unicode="&#xf7;" horiz-adv-x="609" 
d="M49 273h500v-45h-500v45zM272 78h55v-78h-55v78zM272 500h55v-78h-55v78z" />
    <glyph glyph-name="oslash" unicode="&#xf8;" horiz-adv-x="662" 
d="M173 39l-32 -39h-59l58 69q-35 37 -54.5 87t-19.5 107q0 77 34.5 140t95.5 99t135 36q88 0 158 -51l32 39h59l-58 -69q35 -37 54.5 -87t19.5 -107q0 -77 -34.5 -140t-95.5 -99t-135 -36q-88 0 -158 51zM128.5 176.5q14.5 -40.5 41.5 -71.5l289 347q-56 43 -128 43
q-61 0 -110.5 -30.5t-78 -83.5t-28.5 -118q0 -46 14.5 -86.5zM331 31q60 0 110 30.5t78.5 84t28.5 117.5q0 46 -14.5 86.5t-41.5 71.5l-289 -347q57 -43 128 -43z" />
    <glyph glyph-name="ugrave" unicode="&#xf9;" 
d="M176.5 11.5q-45.5 23.5 -72.5 68.5t-27 106v340h45v-340q0 -73 45 -114t112 -41q74 0 116 49.5t42 125.5v320h45v-526h-45v77q-22 -41 -65 -65t-97 -24q-53 0 -98.5 23.5zM174 784h52l78 -144h-39z" />
    <glyph glyph-name="uacute" unicode="&#xfa;" 
d="M176.5 11.5q-45.5 23.5 -72.5 68.5t-27 106v340h45v-340q0 -73 45 -114t112 -41q74 0 116 49.5t42 125.5v320h45v-526h-45v77q-22 -41 -65 -65t-97 -24q-53 0 -98.5 23.5zM343 784h52l-91 -144h-39z" />
    <glyph glyph-name="ucircumflex" unicode="&#xfb;" 
d="M176.5 11.5q-45.5 23.5 -72.5 68.5t-27 106v340h45v-340q0 -73 45 -114t112 -41q74 0 116 49.5t42 125.5v320h45v-526h-45v77q-22 -41 -65 -65t-97 -24q-53 0 -98.5 23.5zM264 784h40l126 -144h-46l-100 111l-98 -111h-46z" />
    <glyph glyph-name="udieresis" unicode="&#xfc;" 
d="M176.5 11.5q-45.5 23.5 -72.5 68.5t-27 106v340h45v-340q0 -73 45 -114t112 -41q74 0 116 49.5t42 125.5v320h45v-526h-45v77q-22 -41 -65 -65t-97 -24q-53 0 -98.5 23.5zM192 681.5q-12 11.5 -12 28.5t12 28.5t28 11.5t28 -11.5t12 -28.5t-12 -28.5t-28 -11.5t-28 11.5z
M322 738.5q12 11.5 28 11.5t28 -11.5t12 -28.5t-12 -28.5t-28 -11.5t-28 11.5t-12 28.5t12 28.5z" />
    <glyph glyph-name="yacute" unicode="&#xfd;" horiz-adv-x="529" 
d="M323 784h52l-91 -144h-39z" />
    <glyph glyph-name="thorn" unicode="&#xfe;" horiz-adv-x="674" 
d="M88 745h45v-334q31 58 88.5 92.5t127.5 34.5q72 0 131.5 -36t93.5 -99t34 -140t-34 -140t-93.5 -99t-131.5 -36q-70 0 -127.5 34.5t-88.5 92.5v-315h-45v945zM164 145.5q28 -52.5 76.5 -82.5t108.5 -30t108 30t75.5 82.5t27.5 117.5t-27.5 117.5t-75.5 82.5t-108 30
t-108.5 -30t-76.5 -82.5t-28 -117.5t28 -117.5z" />
    <glyph glyph-name="ydieresis" unicode="&#xff;" horiz-adv-x="529" 
d="M172 681.5q-12 11.5 -12 28.5t12 28.5t28 11.5t28 -11.5t12 -28.5t-12 -28.5t-28 -11.5t-28 11.5zM302 738.5q12 11.5 28 11.5t28 -11.5t12 -28.5t-12 -28.5t-28 -11.5t-28 11.5t-12 28.5t12 28.5z" />
    <glyph glyph-name="Amacron" unicode="&#x100;" horiz-adv-x="644" 
d="M298 745h48l276 -745h-55l-72 197h-346l-72 -197h-55zM479 242l-157 429l-157 -429h314zM197 929h250v-40h-250v40z" />
    <glyph glyph-name="amacron" unicode="&#x101;" horiz-adv-x="574" 
d="M115 29q-49 41 -49 107q0 60 41 104t130 59l204 34v32q0 59 -40.5 94.5t-107.5 35.5q-51 0 -94 -24.5t-67 -66.5l-40 21q24 47 79 80t122 33q56 0 100 -22t68.5 -61.5t24.5 -89.5v-365h-45v106q-24 -49 -79.5 -83.5t-124.5 -34.5q-73 0 -122 41zM148.5 59.5
q36.5 -29.5 92.5 -29.5q59 0 104.5 28.5t70.5 76t25 103.5v52l-189 -31q-74 -12 -107 -44t-33 -77q0 -49 36.5 -78.5zM162 710h250v-40h-250v40z" />
    <glyph glyph-name="Abreve" unicode="&#x102;" horiz-adv-x="644" 
d="M298 745h48l276 -745h-55l-72 197h-346l-72 -197h-55zM479 242l-157 429l-157 -429h314zM225.5 896q-38.5 37 -38.5 93h40q0 -39 27 -65.5t68 -26.5q40 0 67.5 26.5t27.5 65.5h40q0 -55 -39 -92.5t-96 -37.5q-58 0 -96.5 37z" />
    <glyph glyph-name="abreve" unicode="&#x103;" horiz-adv-x="574" 
d="M115 29q-49 41 -49 107q0 60 41 104t130 59l204 34v32q0 59 -40.5 94.5t-107.5 35.5q-51 0 -94 -24.5t-67 -66.5l-40 21q24 47 79 80t122 33q56 0 100 -22t68.5 -61.5t24.5 -89.5v-365h-45v106q-24 -49 -79.5 -83.5t-124.5 -34.5q-73 0 -122 41zM148.5 59.5
q36.5 -29.5 92.5 -29.5q59 0 104.5 28.5t70.5 76t25 103.5v52l-189 -31q-74 -12 -107 -44t-33 -77q0 -49 36.5 -78.5zM190.5 677q-38.5 37 -38.5 93h40q0 -39 27 -65.5t68 -26.5q40 0 67.5 26.5t27.5 65.5h40q0 -55 -39 -92.5t-96 -37.5q-58 0 -96.5 37z" />
    <glyph glyph-name="Aogonek" unicode="&#x104;" horiz-adv-x="644" 
d="M298 745h48l276 -745h-45q-51 -35 -51 -79q0 -22 14 -34t36 -12q31 0 64 25l19 -31q-40 -33 -86 -33q-38 0 -63.5 21t-25.5 55q0 31 19.5 59t56.5 49l-65 177h-346l-72 -197h-55zM479 242l-157 429l-157 -429h314z" />
    <glyph glyph-name="aogonek" unicode="&#x105;" horiz-adv-x="574" 
d="M115 29q-49 41 -49 107q0 60 41 104t130 59l204 34v32q0 59 -40.5 94.5t-107.5 35.5q-51 0 -94 -24.5t-67 -66.5l-40 21q24 47 79 80t122 33q56 0 100 -22t68.5 -61.5t24.5 -89.5v-365h-40q-51 -35 -51 -79q0 -22 14 -34t36 -12q31 0 64 25l19 -31q-40 -33 -86 -33
q-38 0 -63.5 21t-25.5 55q0 33 23 63t65 51v80q-24 -49 -79.5 -83.5t-124.5 -34.5q-73 0 -122 41zM148.5 59.5q36.5 -29.5 92.5 -29.5q59 0 104.5 28.5t70.5 76t25 103.5v52l-189 -31q-74 -12 -107 -44t-33 -77q0 -49 36.5 -78.5z" />
    <glyph glyph-name="Cacute" unicode="&#x106;" horiz-adv-x="788" 
d="M249.5 37.5q-80.5 49.5 -126.5 137.5t-46 198q0 109 46 197t126.5 137.5t180.5 49.5q70 0 130 -26.5t101.5 -68t60.5 -86.5l-47 -21q-34 71 -98 112.5t-147 41.5q-88 0 -157 -42.5t-107.5 -119t-38.5 -174.5q0 -99 38.5 -175.5t107.5 -119t157 -42.5q83 0 147 41.5
t98 112.5l47 -21q-19 -45 -60.5 -86.5t-101.5 -68t-130 -26.5q-100 0 -180.5 49.5zM452 1003h52l-91 -144h-39z" />
    <glyph glyph-name="cacute" unicode="&#x107;" horiz-adv-x="607" 
d="M193.5 24q-60.5 36 -95.5 99t-35 140t35 140t95.5 99t134.5 36q71 0 129.5 -34.5t86.5 -89.5l-38 -21q-28 49 -74.5 76t-103.5 27q-61 0 -111 -29.5t-79.5 -82.5t-29.5 -121t29.5 -121t79.5 -82.5t111 -29.5q57 0 103.5 27t74.5 76l38 -20q-28 -55 -86.5 -90t-129.5 -35
q-74 0 -134.5 36zM386 784h52l-91 -144h-39z" />
    <glyph glyph-name="Ccircumflex" unicode="&#x108;" horiz-adv-x="788" 
d="M249.5 37.5q-80.5 49.5 -126.5 137.5t-46 198q0 109 46 197t126.5 137.5t180.5 49.5q70 0 130 -26.5t101.5 -68t60.5 -86.5l-47 -21q-34 71 -98 112.5t-147 41.5q-88 0 -157 -42.5t-107.5 -119t-38.5 -174.5q0 -99 38.5 -175.5t107.5 -119t157 -42.5q83 0 147 41.5
t98 112.5l47 -21q-19 -45 -60.5 -86.5t-101.5 -68t-130 -26.5q-100 0 -180.5 49.5zM373 1003h40l126 -144h-46l-100 111l-98 -111h-46z" />
    <glyph glyph-name="ccircumflex" unicode="&#x109;" horiz-adv-x="607" 
d="M193.5 24q-60.5 36 -95.5 99t-35 140t35 140t95.5 99t134.5 36q71 0 129.5 -34.5t86.5 -89.5l-38 -21q-28 49 -74.5 76t-103.5 27q-61 0 -111 -29.5t-79.5 -82.5t-29.5 -121t29.5 -121t79.5 -82.5t111 -29.5q57 0 103.5 27t74.5 76l38 -20q-28 -55 -86.5 -90t-129.5 -35
q-74 0 -134.5 36zM307 784h40l126 -144h-46l-100 111l-98 -111h-46z" />
    <glyph glyph-name="Cdotaccent" unicode="&#x10a;" horiz-adv-x="788" 
d="M249.5 37.5q-80.5 49.5 -126.5 137.5t-46 198q0 109 46 197t126.5 137.5t180.5 49.5q70 0 130 -26.5t101.5 -68t60.5 -86.5l-47 -21q-34 71 -98 112.5t-147 41.5q-88 0 -157 -42.5t-107.5 -119t-38.5 -174.5q0 -99 38.5 -175.5t107.5 -119t157 -42.5q83 0 147 41.5
t98 112.5l47 -21q-19 -45 -60.5 -86.5t-101.5 -68t-130 -26.5q-100 0 -180.5 49.5zM366 900.5q-12 11.5 -12 28.5t12 28.5t28 11.5t28 -11.5t12 -28.5t-12 -28.5t-28 -11.5t-28 11.5z" />
    <glyph glyph-name="cdotaccent" unicode="&#x10b;" horiz-adv-x="607" 
d="M193.5 24q-60.5 36 -95.5 99t-35 140t35 140t95.5 99t134.5 36q71 0 129.5 -34.5t86.5 -89.5l-38 -21q-28 49 -74.5 76t-103.5 27q-61 0 -111 -29.5t-79.5 -82.5t-29.5 -121t29.5 -121t79.5 -82.5t111 -29.5q57 0 103.5 27t74.5 76l38 -20q-28 -55 -86.5 -90t-129.5 -35
q-74 0 -134.5 36zM300 681.5q-12 11.5 -12 28.5t12 28.5t28 11.5t28 -11.5t12 -28.5t-12 -28.5t-28 -11.5t-28 11.5z" />
    <glyph glyph-name="Ccaron" unicode="&#x10c;" horiz-adv-x="788" 
d="M249.5 37.5q-80.5 49.5 -126.5 137.5t-46 198q0 109 46 197t126.5 137.5t180.5 49.5q70 0 130 -26.5t101.5 -68t60.5 -86.5l-47 -21q-34 71 -98 112.5t-147 41.5q-88 0 -157 -42.5t-107.5 -119t-38.5 -174.5q0 -99 38.5 -175.5t107.5 -119t157 -42.5q83 0 147 41.5
t98 112.5l47 -21q-19 -45 -60.5 -86.5t-101.5 -68t-130 -26.5q-100 0 -180.5 49.5zM249 1003h46l98 -111l100 111h46l-126 -144h-40z" />
    <glyph glyph-name="ccaron" unicode="&#x10d;" horiz-adv-x="607" 
d="M193.5 24q-60.5 36 -95.5 99t-35 140t35 140t95.5 99t134.5 36q71 0 129.5 -34.5t86.5 -89.5l-38 -21q-28 49 -74.5 76t-103.5 27q-61 0 -111 -29.5t-79.5 -82.5t-29.5 -121t29.5 -121t79.5 -82.5t111 -29.5q57 0 103.5 27t74.5 76l38 -20q-28 -55 -86.5 -90t-129.5 -35
q-74 0 -134.5 36zM183 784h46l98 -111l100 111h46l-126 -144h-40z" />
    <glyph glyph-name="Dcaron" unicode="&#x10e;" horiz-adv-x="744" 
d="M99 745h238q107 0 186.5 -45.5t122.5 -129.5t43 -197t-43 -197t-122.5 -130t-186.5 -46h-238v745zM335 45q90 0 159 41t107 115.5t38 171.5t-38 171t-107 115t-159 41h-186v-655h186zM238 1003h46l98 -111l100 111h46l-126 -144h-40z" />
    <glyph glyph-name="dcaron" unicode="&#x10f;" horiz-adv-x="767" 
d="M193.5 24q-59.5 36 -93.5 99t-34 140t34 140t93.5 99t131.5 36q70 0 127.5 -34.5t88.5 -92.5v346h45v-757h-45v115q-31 -58 -88.5 -92.5t-127.5 -34.5q-72 0 -131.5 36zM141.5 145.5q27.5 -52.5 75.5 -82.5t108 -30t108.5 30t76.5 82.5t28 117.5t-28 117.5t-76.5 82.5
t-108.5 30t-108 -30t-75.5 -82.5t-27.5 -117.5t27.5 -117.5zM694 853h55l-10 -184h-35z" />
    <glyph glyph-name="Dcroat" unicode="&#x110;" horiz-adv-x="744" 
d="M99 350h-85v45h85v350h238q107 0 186.5 -45.5t122.5 -129.5t43 -197t-43 -197t-122.5 -130t-186.5 -46h-238v350zM335 45q90 0 159 41t107 115.5t38 171.5t-38 171t-107 115t-159 41h-186v-305h185v-45h-185v-305h186z" />
    <glyph glyph-name="dcroat" unicode="&#x111;" horiz-adv-x="674" 
d="M193.5 24q-59.5 36 -93.5 99t-34 140t34 140t93.5 99t131.5 36q70 0 127.5 -34.5t88.5 -92.5v206h-87v45h87v95h45v-95h88v-45h-88v-617h-45v115q-31 -58 -88.5 -92.5t-127.5 -34.5q-72 0 -131.5 36zM141.5 145.5q27.5 -52.5 75.5 -82.5t108 -30t108.5 30t76.5 82.5
t28 117.5t-28 117.5t-76.5 82.5t-108.5 30t-108 -30t-75.5 -82.5t-27.5 -117.5t27.5 -117.5z" />
    <glyph glyph-name="Emacron" unicode="&#x112;" horiz-adv-x="614" 
d="M99 745h460v-45h-410v-304h390v-45h-390v-306h410v-45h-460v745zM204 929h250v-40h-250v40z" />
    <glyph glyph-name="emacron" unicode="&#x113;" horiz-adv-x="627" 
d="M196.5 24.5q-60.5 36.5 -95.5 99.5t-35 139q0 77 33.5 140t92 99t129.5 36q67 0 122 -33t86.5 -90t31.5 -127q0 -16 -3 -39h-447q3 -62 32.5 -112t78.5 -78.5t109 -28.5q57 0 103 27t74 76l38 -20q-29 -58 -87 -91.5t-128 -33.5q-74 0 -134.5 36.5zM515 289
q0 58 -25.5 105t-70 74.5t-98.5 27.5t-100 -27t-75 -74.5t-34 -105.5h403zM189 710h250v-40h-250v40z" />
    <glyph glyph-name="Ebreve" unicode="&#x114;" horiz-adv-x="614" 
d="M99 745h460v-45h-410v-304h390v-45h-390v-306h410v-45h-460v745zM232.5 896q-38.5 37 -38.5 93h40q0 -39 27 -65.5t68 -26.5q40 0 67.5 26.5t27.5 65.5h40q0 -55 -39 -92.5t-96 -37.5q-58 0 -96.5 37z" />
    <glyph glyph-name="ebreve" unicode="&#x115;" horiz-adv-x="627" 
d="M196.5 24.5q-60.5 36.5 -95.5 99.5t-35 139q0 77 33.5 140t92 99t129.5 36q67 0 122 -33t86.5 -90t31.5 -127q0 -16 -3 -39h-447q3 -62 32.5 -112t78.5 -78.5t109 -28.5q57 0 103 27t74 76l38 -20q-29 -58 -87 -91.5t-128 -33.5q-74 0 -134.5 36.5zM515 289
q0 58 -25.5 105t-70 74.5t-98.5 27.5t-100 -27t-75 -74.5t-34 -105.5h403zM217.5 677q-38.5 37 -38.5 93h40q0 -39 27 -65.5t68 -26.5q40 0 67.5 26.5t27.5 65.5h40q0 -55 -39 -92.5t-96 -37.5q-58 0 -96.5 37z" />
    <glyph glyph-name="Edotaccent" unicode="&#x116;" horiz-adv-x="614" 
d="M99 745h460v-45h-410v-304h390v-45h-390v-306h410v-45h-460v745zM301 900.5q-12 11.5 -12 28.5t12 28.5t28 11.5t28 -11.5t12 -28.5t-12 -28.5t-28 -11.5t-28 11.5z" />
    <glyph glyph-name="edotaccent" unicode="&#x117;" horiz-adv-x="627" 
d="M196.5 24.5q-60.5 36.5 -95.5 99.5t-35 139q0 77 33.5 140t92 99t129.5 36q67 0 122 -33t86.5 -90t31.5 -127q0 -16 -3 -39h-447q3 -62 32.5 -112t78.5 -78.5t109 -28.5q57 0 103 27t74 76l38 -20q-29 -58 -87 -91.5t-128 -33.5q-74 0 -134.5 36.5zM515 289
q0 58 -25.5 105t-70 74.5t-98.5 27.5t-100 -27t-75 -74.5t-34 -105.5h403zM286 681.5q-12 11.5 -12 28.5t12 28.5t28 11.5t28 -11.5t12 -28.5t-12 -28.5t-28 -11.5t-28 11.5z" />
    <glyph glyph-name="Eogonek" unicode="&#x118;" horiz-adv-x="614" 
d="M99 745h460v-45h-410v-304h390v-45h-390v-306h410v-45h-48q-51 -35 -51 -79q0 -22 14 -34t36 -12q31 0 64 25l19 -31q-40 -33 -86 -33q-38 0 -63.5 21t-25.5 55q0 50 47 88h-366v745z" />
    <glyph glyph-name="eogonek" unicode="&#x119;" horiz-adv-x="627" 
d="M300 -10q-38 -32 -38 -69q0 -22 14 -34t36 -12q31 0 64 25l19 -31q-40 -33 -86 -33q-38 0 -63.5 21t-25.5 55q0 47 43 85q-57 15 -102 53t-70 93.5t-25 119.5q0 77 33.5 140t92 99t129.5 36q67 0 122 -33t86.5 -90t31.5 -127q0 -16 -3 -39h-447q3 -62 32.5 -112
t78.5 -78.5t109 -28.5q57 0 103 27t74 76l38 -20q-29 -58 -87 -91.5t-128 -33.5q-11 0 -31 2zM515 289q0 58 -25.5 105t-70 74.5t-98.5 27.5t-100 -27t-75 -74.5t-34 -105.5h403z" />
    <glyph glyph-name="Ecaron" unicode="&#x11a;" horiz-adv-x="614" 
d="M99 745h460v-45h-410v-304h390v-45h-390v-306h410v-45h-460v745zM184 1003h46l98 -111l100 111h46l-126 -144h-40z" />
    <glyph glyph-name="ecaron" unicode="&#x11b;" horiz-adv-x="627" 
d="M196.5 24.5q-60.5 36.5 -95.5 99.5t-35 139q0 77 33.5 140t92 99t129.5 36q67 0 122 -33t86.5 -90t31.5 -127q0 -16 -3 -39h-447q3 -62 32.5 -112t78.5 -78.5t109 -28.5q57 0 103 27t74 76l38 -20q-29 -58 -87 -91.5t-128 -33.5q-74 0 -134.5 36.5zM515 289
q0 58 -25.5 105t-70 74.5t-98.5 27.5t-100 -27t-75 -74.5t-34 -105.5h403zM169 784h46l98 -111l100 111h46l-126 -144h-40z" />
    <glyph glyph-name="Gcircumflex" unicode="&#x11c;" horiz-adv-x="834" 
d="M249 37q-81 49 -126.5 136.5t-45.5 198.5q0 110 46 198t127.5 137.5t183.5 49.5q73 0 134.5 -26.5t103.5 -68t61 -86.5l-47 -21q-34 72 -99 113t-153 41t-158 -42.5t-109.5 -119.5t-39.5 -175q0 -99 39 -175.5t109 -118.5t158 -42q81 0 145.5 37t101.5 101.5t37 144.5v4
h-283v45h333v-49q0 -90 -42.5 -165.5t-119 -120.5t-172.5 -45q-103 0 -184 49zM396 1003h40l126 -144h-46l-100 111l-98 -111h-46z" />
    <glyph glyph-name="gcircumflex" unicode="&#x11d;" horiz-adv-x="664" 
d="M197.5 -185q-59.5 35 -89.5 90l38 22q30 -50 77.5 -77.5t107.5 -27.5q52 0 97.5 21.5t74 65.5t28.5 109v114q-31 -58 -86.5 -91t-124.5 -33q-72 0 -130 35.5t-91 96.5t-33 133t33 133t91 96.5t130 35.5q69 0 124.5 -33t86.5 -91v112h45v-508q0 -69 -31.5 -123t-87 -84.5
t-126.5 -30.5q-74 0 -133.5 35zM140 162q26 -50 73 -79.5t107 -29.5q59 0 106.5 29t74.5 79.5t27 111.5t-27 111.5t-74.5 79.5t-106.5 29q-60 0 -107 -29.5t-73 -79.5t-26 -111t26 -111zM311 784h40l126 -144h-46l-100 111l-98 -111h-46z" />
    <glyph glyph-name="Gbreve" unicode="&#x11e;" horiz-adv-x="834" 
d="M249 37q-81 49 -126.5 136.5t-45.5 198.5q0 110 46 198t127.5 137.5t183.5 49.5q73 0 134.5 -26.5t103.5 -68t61 -86.5l-47 -21q-34 72 -99 113t-153 41t-158 -42.5t-109.5 -119.5t-39.5 -175q0 -99 39 -175.5t109 -118.5t158 -42q81 0 145.5 37t101.5 101.5t37 144.5v4
h-283v45h333v-49q0 -90 -42.5 -165.5t-119 -120.5t-172.5 -45q-103 0 -184 49zM320.5 896q-38.5 37 -38.5 93h40q0 -39 27 -65.5t68 -26.5q40 0 67.5 26.5t27.5 65.5h40q0 -55 -39 -92.5t-96 -37.5q-58 0 -96.5 37z" />
    <glyph glyph-name="gbreve" unicode="&#x11f;" horiz-adv-x="664" 
d="M197.5 -185q-59.5 35 -89.5 90l38 22q30 -50 77.5 -77.5t107.5 -27.5q52 0 97.5 21.5t74 65.5t28.5 109v114q-31 -58 -86.5 -91t-124.5 -33q-72 0 -130 35.5t-91 96.5t-33 133t33 133t91 96.5t130 35.5q69 0 124.5 -33t86.5 -91v112h45v-508q0 -69 -31.5 -123t-87 -84.5
t-126.5 -30.5q-74 0 -133.5 35zM140 162q26 -50 73 -79.5t107 -29.5q59 0 106.5 29t74.5 79.5t27 111.5t-27 111.5t-74.5 79.5t-106.5 29q-60 0 -107 -29.5t-73 -79.5t-26 -111t26 -111zM235.5 677q-38.5 37 -38.5 93h40q0 -39 27 -65.5t68 -26.5q40 0 67.5 26.5t27.5 65.5
h40q0 -55 -39 -92.5t-96 -37.5q-58 0 -96.5 37z" />
    <glyph glyph-name="Gdotaccent" unicode="&#x120;" horiz-adv-x="834" 
d="M249 37q-81 49 -126.5 136.5t-45.5 198.5q0 110 46 198t127.5 137.5t183.5 49.5q73 0 134.5 -26.5t103.5 -68t61 -86.5l-47 -21q-34 72 -99 113t-153 41t-158 -42.5t-109.5 -119.5t-39.5 -175q0 -99 39 -175.5t109 -118.5t158 -42q81 0 145.5 37t101.5 101.5t37 144.5v4
h-283v45h333v-49q0 -90 -42.5 -165.5t-119 -120.5t-172.5 -45q-103 0 -184 49zM389 900.5q-12 11.5 -12 28.5t12 28.5t28 11.5t28 -11.5t12 -28.5t-12 -28.5t-28 -11.5t-28 11.5z" />
    <glyph glyph-name="gdotaccent" unicode="&#x121;" horiz-adv-x="664" 
d="M197.5 -185q-59.5 35 -89.5 90l38 22q30 -50 77.5 -77.5t107.5 -27.5q52 0 97.5 21.5t74 65.5t28.5 109v114q-31 -58 -86.5 -91t-124.5 -33q-72 0 -130 35.5t-91 96.5t-33 133t33 133t91 96.5t130 35.5q69 0 124.5 -33t86.5 -91v112h45v-508q0 -69 -31.5 -123t-87 -84.5
t-126.5 -30.5q-74 0 -133.5 35zM140 162q26 -50 73 -79.5t107 -29.5q59 0 106.5 29t74.5 79.5t27 111.5t-27 111.5t-74.5 79.5t-106.5 29q-60 0 -107 -29.5t-73 -79.5t-26 -111t26 -111zM304 681.5q-12 11.5 -12 28.5t12 28.5t28 11.5t28 -11.5t12 -28.5t-12 -28.5
t-28 -11.5t-28 11.5z" />
    <glyph glyph-name="uni0122" unicode="&#x122;" horiz-adv-x="834" 
d="M249 37q-81 49 -126.5 136.5t-45.5 198.5q0 110 46 198t127.5 137.5t183.5 49.5q73 0 134.5 -26.5t103.5 -68t61 -86.5l-47 -21q-34 72 -99 113t-153 41t-158 -42.5t-109.5 -119.5t-39.5 -175q0 -99 39 -175.5t109 -118.5t158 -42q81 0 145.5 37t101.5 101.5t37 144.5v4
h-283v45h333v-49q0 -90 -42.5 -165.5t-119 -120.5t-172.5 -45q-103 0 -184 49zM413 -233q13 24 14 63h-28v90h55v-70q0 -60 -19.5 -96t-55.5 -47v29q21 7 34 31z" />
    <glyph glyph-name="uni0123" unicode="&#x123;" horiz-adv-x="664" 
d="M197.5 -185q-59.5 35 -89.5 90l38 22q30 -50 77.5 -77.5t107.5 -27.5q52 0 97.5 21.5t74 65.5t28.5 109v114q-31 -58 -86.5 -91t-124.5 -33q-72 0 -130 35.5t-91 96.5t-33 133t33 133t91 96.5t130 35.5q69 0 124.5 -33t86.5 -91v112h45v-508q0 -69 -31.5 -123t-87 -84.5
t-126.5 -30.5q-74 0 -133.5 35zM140 162q26 -50 73 -79.5t107 -29.5q59 0 106.5 29t74.5 79.5t27 111.5t-27 111.5t-74.5 79.5t-106.5 29q-60 0 -107 -29.5t-73 -79.5t-26 -111t26 -111zM325 779.5q21 32.5 54 41.5v-27q-21 -5 -35 -27t-14 -51h29v-90h-55v76q0 45 21 77.5z
" />
    <glyph glyph-name="Hcircumflex" unicode="&#x124;" horiz-adv-x="738" 
d="M99 745h50v-343h440v343h50v-745h-50v357h-440v-357h-50v745zM348 1003h40l126 -144h-46l-100 111l-98 -111h-46z" />
    <glyph glyph-name="hcircumflex" unicode="&#x125;" 
d="M88 757h45v-308q22 41 65 65t97 24q53 0 98.5 -24.5t72.5 -68.5t27 -100v-345h-45v340q0 46 -21 81.5t-56.5 54.5t-79.5 19q-73 0 -115.5 -50t-42.5 -125v-320h-45v757zM90 1003h40l126 -144h-46l-100 111l-98 -111h-46z" />
    <glyph glyph-name="Hbar" unicode="&#x126;" horiz-adv-x="738" 
d="M99 572h-75v45h75v128h50v-128h440v128h50v-128h75v-45h-75v-572h-50v357h-440v-357h-50v572zM589 402v170h-440v-170h440z" />
    <glyph glyph-name="hbar" unicode="&#x127;" 
d="M88 617h-87v45h87v95h45v-95h88v-45h-88v-168q22 41 65 65t97 24q53 0 98.5 -24.5t72.5 -68.5t27 -100v-345h-45v340q0 46 -21 81.5t-56.5 54.5t-79.5 19q-73 0 -115.5 -50t-42.5 -125v-320h-45v617z" />
    <glyph glyph-name="Itilde" unicode="&#x128;" horiz-adv-x="248" 
d="M99 745h50v-745h-50v745zM148.5 895q-12.5 6 -30.5 17q-17 10 -27 15t-22 5q-13 0 -22.5 -10t-11.5 -29h-36q1 34 20.5 55t50.5 21q17 0 29.5 -6t30.5 -17q17 -10 27 -15t22 -5q31 0 34 39h36q-1 -34 -20.5 -55t-50.5 -21q-17 0 -29.5 6z" />
    <glyph glyph-name="itilde" unicode="&#x129;" horiz-adv-x="185" 
d="M70 526h45v-526h-45v526zM116.5 676q-12.5 6 -30.5 17q-17 10 -27 15t-22 5q-13 0 -22.5 -10t-11.5 -29h-36q1 34 20.5 55t50.5 21q17 0 29.5 -6t30.5 -17q17 -10 27 -15t22 -5q31 0 34 39h36q-1 -34 -20.5 -55t-50.5 -21q-17 0 -29.5 6z" />
    <glyph glyph-name="Imacron" unicode="&#x12a;" horiz-adv-x="248" 
d="M99 745h50v-745h-50v745zM-1 929h250v-40h-250v40z" />
    <glyph glyph-name="imacron" unicode="&#x12b;" horiz-adv-x="185" 
d="M70 526h45v-526h-45v526zM-33 710h250v-40h-250v40z" />
    <glyph glyph-name="Ibreve" unicode="&#x12c;" horiz-adv-x="248" 
d="M99 745h50v-745h-50v745zM27.5 896q-38.5 37 -38.5 93h40q0 -39 27 -65.5t68 -26.5q40 0 67.5 26.5t27.5 65.5h40q0 -55 -39 -92.5t-96 -37.5q-58 0 -96.5 37z" />
    <glyph glyph-name="ibreve" unicode="&#x12d;" horiz-adv-x="185" 
d="M70 526h45v-526h-45v526zM-4.5 677q-38.5 37 -38.5 93h40q0 -39 27 -65.5t68 -26.5q40 0 67.5 26.5t27.5 65.5h40q0 -55 -39 -92.5t-96 -37.5q-58 0 -96.5 37z" />
    <glyph glyph-name="Iogonek" unicode="&#x12e;" horiz-adv-x="248" 
d="M38.5 -143q-25.5 21 -25.5 55q0 33 22.5 62.5t63.5 50.5v720h50v-745h-43q-51 -35 -51 -79q0 -22 14 -34t36 -12q31 0 64 25l19 -31q-40 -33 -86 -33q-38 0 -63.5 21z" />
    <glyph glyph-name="iogonek" unicode="&#x12f;" horiz-adv-x="185" 
d="M64 681.5q-12 11.5 -12 28.5t12 28.5t28 11.5t28 -11.5t12 -28.5t-12 -28.5t-28 -11.5t-28 11.5zM5 -25q23 30 65 51v500h45v-526h-40q-51 -35 -51 -79q0 -22 14 -34t36 -12q31 0 64 25l19 -31q-40 -33 -86 -33q-38 0 -63.5 21t-25.5 55q0 33 23 63z" />
    <glyph glyph-name="Idotaccent" unicode="&#x130;" horiz-adv-x="248" 
d="M99 745h50v-745h-50v745zM96 900.5q-12 11.5 -12 28.5t12 28.5t28 11.5t28 -11.5t12 -28.5t-12 -28.5t-28 -11.5t-28 11.5z" />
    <glyph glyph-name="dotlessi" unicode="&#x131;" horiz-adv-x="185" 
d="M70 526h45v-526h-45v526z" />
    <glyph glyph-name="Jcircumflex" unicode="&#x134;" horiz-adv-x="381" 
d="M66 50h38q61 0 94.5 37t33.5 107v551h50v-554q0 -89 -48 -140t-130 -51h-38v50zM236 1003h40l126 -144h-46l-100 111l-98 -111h-46z" />
    <glyph glyph-name="jcircumflex" unicode="&#x135;" horiz-adv-x="221" 
d="M-57 -215v41q16 -3 36 -3q52 0 80.5 29.5t28.5 85.5v588h45v-588q0 -76 -40.5 -117t-110.5 -41q-22 0 -39 5zM90 784h40l126 -144h-46l-100 111l-98 -111h-46z" />
    <glyph glyph-name="uni0136" unicode="&#x136;" horiz-adv-x="651" 
d="M99 745h50v-430l390 430h67l-288 -319l311 -426h-62l-284 390l-134 -149v-241h-50v745zM322 -233q13 24 14 63h-28v90h55v-70q0 -60 -19.5 -96t-55.5 -47v29q21 7 34 31z" />
    <glyph glyph-name="uni0137" unicode="&#x137;" horiz-adv-x="540" 
d="M88 757h45v-523l297 292h68l-218 -213l238 -313h-60l-215 282l-110 -112v-170h-45v757zM266 -233q13 24 14 63h-28v90h55v-70q0 -60 -19.5 -96t-55.5 -47v29q21 7 34 31z" />
    <glyph glyph-name="kgreenlandic" unicode="&#x138;" horiz-adv-x="540" 
d="M268 266h-135v-266h-45v526h45v-220h133l154 220h58l-166 -237l206 -289h-56z" />
    <glyph glyph-name="Lacute" unicode="&#x139;" horiz-adv-x="533" 
d="M99 745h50v-700h340v-45h-390v745zM182 1003h52l-91 -144h-39z" />
    <glyph glyph-name="lacute" unicode="&#x13a;" horiz-adv-x="221" 
d="M88 757h45v-757h-45v757zM169 1003h52l-91 -144h-39z" />
    <glyph glyph-name="uni013B" unicode="&#x13b;" horiz-adv-x="533" 
d="M99 745h50v-700h340v-45h-390v745zM290 -233q13 24 14 63h-28v90h55v-70q0 -60 -19.5 -96t-55.5 -47v29q21 7 34 31z" />
    <glyph glyph-name="uni013C" unicode="&#x13c;" horiz-adv-x="221" 
d="M88 757h45v-757h-45v757zM107 -233q13 24 14 63h-28v90h55v-70q0 -60 -19.5 -96t-55.5 -47v29q21 7 34 31z" />
    <glyph glyph-name="Lcaron" unicode="&#x13d;" horiz-adv-x="599" 
d="M99 745h50v-700h340v-45h-390v745zM389 745h55l-10 -184h-35z" />
    <glyph glyph-name="lcaron" unicode="&#x13e;" horiz-adv-x="314" 
d="M88 757h45v-757h-45v757zM241 853h55l-10 -184h-35z" />
    <glyph glyph-name="Ldot" unicode="&#x13f;" horiz-adv-x="533" 
d="M99 745h50v-700h340v-45h-390v745zM291 400.5q12 11.5 28 11.5t28 -11.5t12 -28.5t-12 -28.5t-28 -11.5t-28 11.5t-12 28.5t12 28.5z" />
    <glyph glyph-name="ldot" unicode="&#x140;" horiz-adv-x="355" 
d="M88 757h45v-757h-45v757zM243 400.5q12 11.5 28 11.5t28 -11.5t12 -28.5t-12 -28.5t-28 -11.5t-28 11.5t-12 28.5t12 28.5z" />
    <glyph glyph-name="Lslash" unicode="&#x141;" horiz-adv-x="533" 
d="M99 340l-110 -41v48l110 41v357h50v-339l110 41v-48l-110 -41v-313h340v-45h-390v340z" />
    <glyph glyph-name="lslash" unicode="&#x142;" horiz-adv-x="221" 
d="M88 355l-87 -40v49l87 40v353h45v-333l88 40v-49l-88 -40v-375h-45v355z" />
    <glyph glyph-name="Nacute" unicode="&#x143;" horiz-adv-x="738" 
d="M99 745h40l450 -644v644h50v-745h-40l-450 644v-644h-50v745zM427 1003h52l-91 -144h-39z" />
    <glyph glyph-name="nacute" unicode="&#x144;" 
d="M88 526h45v-77q22 41 65 65t97 24q53 0 98.5 -24.5t72.5 -68.5t27 -100v-345h-45v340q0 46 -21 81.5t-56.5 54.5t-79.5 19q-73 0 -115.5 -50t-42.5 -125v-320h-45v526zM343 784h52l-91 -144h-39z" />
    <glyph glyph-name="uni0145" unicode="&#x145;" horiz-adv-x="738" 
d="M99 745h40l450 -644v644h50v-745h-40l-450 644v-644h-50v745zM365 -233q13 24 14 63h-28v90h55v-70q0 -60 -19.5 -96t-55.5 -47v29q21 7 34 31z" />
    <glyph glyph-name="uni0146" unicode="&#x146;" 
d="M88 526h45v-77q22 41 65 65t97 24q53 0 98.5 -24.5t72.5 -68.5t27 -100v-345h-45v340q0 46 -21 81.5t-56.5 54.5t-79.5 19q-73 0 -115.5 -50t-42.5 -125v-320h-45v526zM281 -233q13 24 14 63h-28v90h55v-70q0 -60 -19.5 -96t-55.5 -47v29q21 7 34 31z" />
    <glyph glyph-name="Ncaron" unicode="&#x147;" horiz-adv-x="738" 
d="M99 745h40l450 -644v644h50v-745h-40l-450 644v-644h-50v745zM224 1003h46l98 -111l100 111h46l-126 -144h-40z" />
    <glyph glyph-name="ncaron" unicode="&#x148;" 
d="M88 526h45v-77q22 41 65 65t97 24q53 0 98.5 -24.5t72.5 -68.5t27 -100v-345h-45v340q0 46 -21 81.5t-56.5 54.5t-79.5 19q-73 0 -115.5 -50t-42.5 -125v-320h-45v526zM140 784h46l98 -111l100 111h46l-126 -144h-40z" />
    <glyph glyph-name="Eng" unicode="&#x14a;" horiz-adv-x="738" 
d="M444 -215v43q17 -3 36 -3q52 0 80.5 28.5t28.5 84.5v76l-440 630v-644h-50v745h40l450 -644v644h50v-807q0 -75 -43 -116.5t-113 -41.5q-22 0 -39 5z" />
    <glyph glyph-name="eng" unicode="&#x14b;" horiz-adv-x="600" 
d="M292 -215v41q17 -3 36 -3q52 0 80.5 29.5t28.5 85.5v402q0 46 -21 81.5t-56.5 54.5t-79.5 19q-73 0 -115.5 -50t-42.5 -125v-320h-45v526h45v-77q22 41 65 65t97 24q53 0 98.5 -24.5t72.5 -68.5t27 -100v-407q0 -76 -40.5 -117t-110.5 -41q-22 0 -39 5z" />
    <glyph glyph-name="Omacron" unicode="&#x14c;" horiz-adv-x="884" 
d="M258.5 37.5q-83.5 49.5 -132.5 137.5t-49 198t49 198t132.5 137t183.5 49q99 0 183 -49.5t133 -137t49 -197.5t-49 -198t-132.5 -137.5t-183.5 -49.5t-183.5 49.5zM167 205q40 -77 112 -123t163 -46t163 46t112 123t40 168q0 90 -40 167t-111.5 123t-163.5 46
q-91 0 -163 -46t-112 -123t-40 -167q0 -91 40 -168zM317 929h250v-40h-250v40z" />
    <glyph glyph-name="omacron" unicode="&#x14d;" horiz-adv-x="662" 
d="M196 24q-61 36 -95.5 99t-34.5 140t34.5 140t95.5 99t135 36t135 -36t95.5 -99t34.5 -140t-34.5 -140t-95.5 -99t-135 -36t-135 36zM142.5 145.5q28.5 -53.5 78.5 -84t110 -30.5t110 30.5t78.5 84t28.5 117.5q0 65 -28.5 118t-78 83.5t-110.5 30.5t-110.5 -30.5
t-78 -83.5t-28.5 -118q0 -64 28.5 -117.5zM206 710h250v-40h-250v40z" />
    <glyph glyph-name="Obreve" unicode="&#x14e;" horiz-adv-x="884" 
d="M258.5 37.5q-83.5 49.5 -132.5 137.5t-49 198t49 198t132.5 137t183.5 49q99 0 183 -49.5t133 -137t49 -197.5t-49 -198t-132.5 -137.5t-183.5 -49.5t-183.5 49.5zM167 205q40 -77 112 -123t163 -46t163 46t112 123t40 168q0 90 -40 167t-111.5 123t-163.5 46
q-91 0 -163 -46t-112 -123t-40 -167q0 -91 40 -168zM345.5 896q-38.5 37 -38.5 93h40q0 -39 27 -65.5t68 -26.5q40 0 67.5 26.5t27.5 65.5h40q0 -55 -39 -92.5t-96 -37.5q-58 0 -96.5 37z" />
    <glyph glyph-name="obreve" unicode="&#x14f;" horiz-adv-x="662" 
d="M196 24q-61 36 -95.5 99t-34.5 140t34.5 140t95.5 99t135 36t135 -36t95.5 -99t34.5 -140t-34.5 -140t-95.5 -99t-135 -36t-135 36zM142.5 145.5q28.5 -53.5 78.5 -84t110 -30.5t110 30.5t78.5 84t28.5 117.5q0 65 -28.5 118t-78 83.5t-110.5 30.5t-110.5 -30.5
t-78 -83.5t-28.5 -118q0 -64 28.5 -117.5zM234.5 677q-38.5 37 -38.5 93h40q0 -39 27 -65.5t68 -26.5q40 0 67.5 26.5t27.5 65.5h40q0 -55 -39 -92.5t-96 -37.5q-58 0 -96.5 37z" />
    <glyph glyph-name="Ohungarumlaut" unicode="&#x150;" horiz-adv-x="884" 
d="M258.5 37.5q-83.5 49.5 -132.5 137.5t-49 198t49 198t132.5 137t183.5 49q99 0 183 -49.5t133 -137t49 -197.5t-49 -198t-132.5 -137.5t-183.5 -49.5t-183.5 49.5zM167 205q40 -77 112 -123t163 -46t163 46t112 123t40 168q0 90 -40 167t-111.5 123t-163.5 46
q-91 0 -163 -46t-112 -123t-40 -167q0 -91 40 -168zM437 1003h52l-91 -144h-39zM564 1003h52l-91 -144h-39z" />
    <glyph glyph-name="ohungarumlaut" unicode="&#x151;" horiz-adv-x="662" 
d="M196 24q-61 36 -95.5 99t-34.5 140t34.5 140t95.5 99t135 36t135 -36t95.5 -99t34.5 -140t-34.5 -140t-95.5 -99t-135 -36t-135 36zM142.5 145.5q28.5 -53.5 78.5 -84t110 -30.5t110 30.5t78.5 84t28.5 117.5q0 65 -28.5 118t-78 83.5t-110.5 30.5t-110.5 -30.5
t-78 -83.5t-28.5 -118q0 -64 28.5 -117.5zM326 784h52l-91 -144h-39zM453 784h52l-91 -144h-39z" />
    <glyph glyph-name="OE" unicode="&#x152;" horiz-adv-x="1278" 
d="M258.5 37.5q-83.5 49.5 -132.5 137.5t-49 198t49 198t132.5 137t183.5 49q103 0 189 -52.5t132 -143.5v184h460v-45h-410v-304h390v-45h-390v-306h410v-45h-460v184q-46 -91 -132 -143.5t-189 -52.5q-100 0 -183.5 49.5zM167 205q40 -77 112 -123t163 -46t163 46t112 123
t40 168q0 90 -40 167t-111.5 123t-163.5 46q-91 0 -163 -46t-112 -123t-40 -167q0 -91 40 -168z" />
    <glyph glyph-name="oe" unicode="&#x153;" horiz-adv-x="1113" 
d="M196 24q-61 36 -95.5 99t-34.5 140t34.5 140t95.5 99t135 36q83 0 148 -44t95 -118q30 74 92 118t141 44q67 0 122 -33t86.5 -90t31.5 -127q0 -16 -3 -39h-447q3 -62 32.5 -112t78.5 -78.5t109 -28.5q57 0 103 27t74 76l38 -20q-29 -58 -87 -91.5t-128 -33.5
q-82 0 -147 44t-96 118q-30 -74 -95 -118t-148 -44q-74 0 -135 36zM142.5 145.5q28.5 -53.5 78.5 -84t110 -30.5t110 30.5t78.5 84t28.5 117.5q0 65 -28.5 118t-78 83.5t-110.5 30.5t-110.5 -30.5t-78 -83.5t-28.5 -118q0 -64 28.5 -117.5zM1001 289q0 58 -25.5 105
t-70 74.5t-98.5 27.5t-100 -27t-75 -74.5t-34 -105.5h403z" />
    <glyph glyph-name="Racute" unicode="&#x154;" horiz-adv-x="635" 
d="M99 745h244q69 0 122.5 -28t83.5 -79t30 -116q0 -80 -45 -137.5t-121 -76.5l178 -308h-59l-171 300h-212v-300h-50v745zM343 345q54 0 96.5 22.5t66 63t23.5 92.5t-23.5 92t-66 62.5t-96.5 22.5h-194v-355h194zM370 1003h52l-91 -144h-39z" />
    <glyph glyph-name="racute" unicode="&#x155;" horiz-adv-x="340" 
d="M88 526h45v-76q21 39 61 60.5t91 21.5h33v-45h-34q-71 0 -111 -46.5t-40 -120.5v-320h-45v526zM261 784h52l-91 -144h-39z" />
    <glyph glyph-name="uni0156" unicode="&#x156;" horiz-adv-x="635" 
d="M99 745h244q69 0 122.5 -28t83.5 -79t30 -116q0 -80 -45 -137.5t-121 -76.5l178 -308h-59l-171 300h-212v-300h-50v745zM343 345q54 0 96.5 22.5t66 63t23.5 92.5t-23.5 92t-66 62.5t-96.5 22.5h-194v-355h194zM308 -233q13 24 14 63h-28v90h55v-70q0 -60 -19.5 -96
t-55.5 -47v29q21 7 34 31z" />
    <glyph glyph-name="uni0157" unicode="&#x157;" horiz-adv-x="340" 
d="M88 526h45v-76q21 39 61 60.5t91 21.5h33v-45h-34q-71 0 -111 -46.5t-40 -120.5v-320h-45v526zM107 -233q13 24 14 63h-28v90h55v-70q0 -60 -19.5 -96t-55.5 -47v29q21 7 34 31z" />
    <glyph glyph-name="Rcaron" unicode="&#x158;" horiz-adv-x="635" 
d="M99 745h244q69 0 122.5 -28t83.5 -79t30 -116q0 -80 -45 -137.5t-121 -76.5l178 -308h-59l-171 300h-212v-300h-50v745zM343 345q54 0 96.5 22.5t66 63t23.5 92.5t-23.5 92t-66 62.5t-96.5 22.5h-194v-355h194zM167 1003h46l98 -111l100 111h46l-126 -144h-40z" />
    <glyph glyph-name="rcaron" unicode="&#x159;" horiz-adv-x="340" 
d="M88 526h45v-76q21 39 61 60.5t91 21.5h33v-45h-34q-71 0 -111 -46.5t-40 -120.5v-320h-45v526zM58 784h46l98 -111l100 111h46l-126 -144h-40z" />
    <glyph glyph-name="Sacute" unicode="&#x15a;" horiz-adv-x="639" 
d="M209 14q-55 26 -91 68t-52 92l45 14q29 -76 85.5 -116.5t134.5 -40.5q81 0 132 41t51 112q0 57 -33 91.5t-85 49.5l-139 40q-82 24 -121 75.5t-39 122.5q0 56 28 100.5t76.5 69t107.5 24.5t109.5 -24t85 -63.5t49.5 -86.5l-45 -14q-26 70 -78.5 107.5t-119.5 37.5
q-71 0 -118 -42t-47 -110q0 -57 30 -92t104 -58l126 -38q74 -22 115.5 -72t41.5 -119q0 -57 -30 -101t-82.5 -69t-117.5 -25q-68 0 -123 26zM378 1003h52l-91 -144h-39z" />
    <glyph glyph-name="sacute" unicode="&#x15b;" horiz-adv-x="506" 
d="M139.5 21.5q-53.5 33.5 -81.5 93.5l41 19q26 -49 68.5 -76t93.5 -27q58 0 96 29t38 74q0 37 -25 62t-72 37l-88 22q-64 16 -97 52t-33 89q0 41 21.5 73.5t58.5 50.5t82 18q63 0 115 -31.5t73 -83.5l-43 -21q-22 44 -60 68.5t-84 24.5q-51 0 -84 -28t-33 -71
q0 -34 23 -57.5t67 -34.5l89 -23q66 -16 101.5 -54.5t35.5 -91.5q0 -42 -23.5 -75.5t-65 -52.5t-91.5 -19q-69 0 -122.5 33.5zM311 784h52l-91 -144h-39z" />
    <glyph glyph-name="Scircumflex" unicode="&#x15c;" horiz-adv-x="639" 
d="M209 14q-55 26 -91 68t-52 92l45 14q29 -76 85.5 -116.5t134.5 -40.5q81 0 132 41t51 112q0 57 -33 91.5t-85 49.5l-139 40q-82 24 -121 75.5t-39 122.5q0 56 28 100.5t76.5 69t107.5 24.5t109.5 -24t85 -63.5t49.5 -86.5l-45 -14q-26 70 -78.5 107.5t-119.5 37.5
q-71 0 -118 -42t-47 -110q0 -57 30 -92t104 -58l126 -38q74 -22 115.5 -72t41.5 -119q0 -57 -30 -101t-82.5 -69t-117.5 -25q-68 0 -123 26zM299 1003h40l126 -144h-46l-100 111l-98 -111h-46z" />
    <glyph glyph-name="scircumflex" unicode="&#x15d;" horiz-adv-x="506" 
d="M139.5 21.5q-53.5 33.5 -81.5 93.5l41 19q26 -49 68.5 -76t93.5 -27q58 0 96 29t38 74q0 37 -25 62t-72 37l-88 22q-64 16 -97 52t-33 89q0 41 21.5 73.5t58.5 50.5t82 18q63 0 115 -31.5t73 -83.5l-43 -21q-22 44 -60 68.5t-84 24.5q-51 0 -84 -28t-33 -71
q0 -34 23 -57.5t67 -34.5l89 -23q66 -16 101.5 -54.5t35.5 -91.5q0 -42 -23.5 -75.5t-65 -52.5t-91.5 -19q-69 0 -122.5 33.5zM232 784h40l126 -144h-46l-100 111l-98 -111h-46z" />
    <glyph glyph-name="Scedilla" unicode="&#x15e;" horiz-adv-x="639" 
d="M306 -205q-21 5 -33 13l13 29q34 -13 60 -13q24 0 37.5 12t13.5 32q0 17 -10.5 26.5t-29.5 9.5q-21 0 -44 -13l-20 7l10 91q-90 9 -152 61.5t-85 123.5l45 14q29 -76 85.5 -116.5t134.5 -40.5q81 0 132 41t51 112q0 57 -33 91.5t-85 49.5l-139 40q-82 24 -121 75.5
t-39 122.5q0 56 28 100.5t76.5 69t107.5 24.5t109.5 -24t85 -63.5t49.5 -86.5l-45 -14q-26 70 -78.5 107.5t-119.5 37.5q-71 0 -118 -42t-47 -110q0 -57 30 -92t104 -58l126 -38q74 -22 115.5 -72t41.5 -119q0 -56 -29.5 -100.5t-81.5 -69.5t-116 -25l-6 -55q15 6 33 6
q31 0 51 -20t20 -50q0 -35 -24 -57t-63 -22q-19 0 -40 5z" />
    <glyph glyph-name="scedilla" unicode="&#x15f;" horiz-adv-x="506" 
d="M239 -205q-21 5 -33 13l13 29q34 -13 60 -13q24 0 37.5 12t13.5 32q0 17 -10.5 26.5t-29.5 9.5q-21 0 -44 -13l-20 7l10 91q-60 6 -106.5 39t-71.5 87l41 19q26 -49 68.5 -76t93.5 -27q58 0 96 29t38 74q0 37 -25 62t-72 37l-88 22q-64 16 -97 52t-33 89q0 41 21.5 73.5
t58.5 50.5t82 18q63 0 115 -31.5t73 -83.5l-43 -21q-22 44 -60 68.5t-84 24.5q-51 0 -84 -28t-33 -71q0 -34 23 -57.5t67 -34.5l89 -23q66 -16 101.5 -54.5t35.5 -91.5q0 -41 -23 -74t-62.5 -52.5t-88.5 -20.5l-6 -55q15 6 33 6q31 0 51 -20t20 -50q0 -35 -24 -57t-63 -22
q-19 0 -40 5z" />
    <glyph glyph-name="Scaron" unicode="&#x160;" horiz-adv-x="639" 
d="M209 14q-55 26 -91 68t-52 92l45 14q29 -76 85.5 -116.5t134.5 -40.5q81 0 132 41t51 112q0 57 -33 91.5t-85 49.5l-139 40q-82 24 -121 75.5t-39 122.5q0 56 28 100.5t76.5 69t107.5 24.5t109.5 -24t85 -63.5t49.5 -86.5l-45 -14q-26 70 -78.5 107.5t-119.5 37.5
q-71 0 -118 -42t-47 -110q0 -57 30 -92t104 -58l126 -38q74 -22 115.5 -72t41.5 -119q0 -57 -30 -101t-82.5 -69t-117.5 -25q-68 0 -123 26zM175 1003h46l98 -111l100 111h46l-126 -144h-40z" />
    <glyph glyph-name="scaron" unicode="&#x161;" horiz-adv-x="506" 
d="M139.5 21.5q-53.5 33.5 -81.5 93.5l41 19q26 -49 68.5 -76t93.5 -27q58 0 96 29t38 74q0 37 -25 62t-72 37l-88 22q-64 16 -97 52t-33 89q0 41 21.5 73.5t58.5 50.5t82 18q63 0 115 -31.5t73 -83.5l-43 -21q-22 44 -60 68.5t-84 24.5q-51 0 -84 -28t-33 -71
q0 -34 23 -57.5t67 -34.5l89 -23q66 -16 101.5 -54.5t35.5 -91.5q0 -42 -23.5 -75.5t-65 -52.5t-91.5 -19q-69 0 -122.5 33.5zM108 784h46l98 -111l100 111h46l-126 -144h-40z" />
    <glyph glyph-name="uni0162" unicode="&#x162;" horiz-adv-x="514" 
d="M233 700h-211v45h470v-45h-209v-700h-50v700zM243 -205q-21 5 -33 13l13 29q34 -13 60 -13q24 0 37.5 12t13.5 32q0 17 -10.5 26.5t-29.5 9.5q-21 0 -44 -13l-20 7l11 102h32l-7 -67q15 6 33 6q31 0 51 -20t20 -50q0 -35 -24 -57t-63 -22q-19 0 -40 5z" />
    <glyph glyph-name="uni0163" unicode="&#x163;" horiz-adv-x="379" 
d="M255 -6l-6 -61q15 6 33 6q31 0 51 -20t20 -50q0 -35 -24 -57t-63 -22q-19 0 -40 5t-33 13l13 29q34 -13 60 -13q24 0 37.5 12t13.5 32q0 17 -10.5 26.5t-29.5 9.5q-21 0 -44 -13l-20 7l11 102q-81 21 -81 126v360h-100v40h50q26 0 38 13t12 41v70h45v-124h114v-40h-114
v-360q0 -89 86 -89q24 0 39 3v-41q-17 -5 -43 -5h-15z" />
    <glyph glyph-name="Tcaron" unicode="&#x164;" horiz-adv-x="514" 
d="M233 700h-211v45h470v-45h-209v-700h-50v700zM112 1003h46l98 -111l100 111h46l-126 -144h-40z" />
    <glyph glyph-name="tcaron" unicode="&#x165;" horiz-adv-x="353" 
d="M175.5 27.5q-32.5 33.5 -32.5 98.5v360h-100v40h50q26 0 38 13t12 41v70h45v-124h114v-40h-114v-360q0 -89 86 -89q24 0 39 3v-41q-17 -5 -43 -5q-62 0 -94.5 33.5zM265 853h55l-10 -184h-35z" />
    <glyph glyph-name="Tbar" unicode="&#x166;" horiz-adv-x="514" 
d="M233 350h-136v45h136v305h-211v45h470v-45h-209v-305h134v-45h-134v-350h-50v350z" />
    <glyph glyph-name="tbar" unicode="&#x167;" horiz-adv-x="379" 
d="M175.5 27.5q-32.5 33.5 -32.5 98.5v117h-99v40h99v203h-100v40h50q26 0 38 13t12 41v70h45v-124h114v-40h-114v-203h115v-40h-115v-117q0 -89 86 -89q24 0 39 3v-41q-17 -5 -43 -5q-62 0 -94.5 33.5z" />
    <glyph glyph-name="Utilde" unicode="&#x168;" horiz-adv-x="690" 
d="M214.5 21q-56.5 33 -88 92.5t-31.5 137.5v494h50v-498q0 -62 25 -111t70.5 -76t104.5 -27t104.5 27t70.5 76t25 111v498h50v-494q0 -78 -31.5 -137.5t-88 -92.5t-130.5 -33t-130.5 33zM369.5 895q-12.5 6 -30.5 17q-17 10 -27 15t-22 5q-13 0 -22.5 -10t-11.5 -29h-36
q1 34 20.5 55t50.5 21q17 0 29.5 -6t30.5 -17q17 -10 27 -15t22 -5q31 0 34 39h36q-1 -34 -20.5 -55t-50.5 -21q-17 0 -29.5 6z" />
    <glyph glyph-name="utilde" unicode="&#x169;" 
d="M176.5 11.5q-45.5 23.5 -72.5 68.5t-27 106v340h45v-340q0 -73 45 -114t112 -41q74 0 116 49.5t42 125.5v320h45v-526h-45v77q-22 -41 -65 -65t-97 -24q-53 0 -98.5 23.5zM309.5 676q-12.5 6 -30.5 17q-17 10 -27 15t-22 5q-13 0 -22.5 -10t-11.5 -29h-36q1 34 20.5 55
t50.5 21q17 0 29.5 -6t30.5 -17q17 -10 27 -15t22 -5q31 0 34 39h36q-1 -34 -20.5 -55t-50.5 -21q-17 0 -29.5 6z" />
    <glyph glyph-name="Umacron" unicode="&#x16a;" horiz-adv-x="690" 
d="M214.5 21q-56.5 33 -88 92.5t-31.5 137.5v494h50v-498q0 -62 25 -111t70.5 -76t104.5 -27t104.5 27t70.5 76t25 111v498h50v-494q0 -78 -31.5 -137.5t-88 -92.5t-130.5 -33t-130.5 33zM220 929h250v-40h-250v40z" />
    <glyph glyph-name="umacron" unicode="&#x16b;" 
d="M176.5 11.5q-45.5 23.5 -72.5 68.5t-27 106v340h45v-340q0 -73 45 -114t112 -41q74 0 116 49.5t42 125.5v320h45v-526h-45v77q-22 -41 -65 -65t-97 -24q-53 0 -98.5 23.5zM160 710h250v-40h-250v40z" />
    <glyph glyph-name="Ubreve" unicode="&#x16c;" horiz-adv-x="690" 
d="M214.5 21q-56.5 33 -88 92.5t-31.5 137.5v494h50v-498q0 -62 25 -111t70.5 -76t104.5 -27t104.5 27t70.5 76t25 111v498h50v-494q0 -78 -31.5 -137.5t-88 -92.5t-130.5 -33t-130.5 33zM248.5 896q-38.5 37 -38.5 93h40q0 -39 27 -65.5t68 -26.5q40 0 67.5 26.5t27.5 65.5
h40q0 -55 -39 -92.5t-96 -37.5q-58 0 -96.5 37z" />
    <glyph glyph-name="ubreve" unicode="&#x16d;" 
d="M176.5 11.5q-45.5 23.5 -72.5 68.5t-27 106v340h45v-340q0 -73 45 -114t112 -41q74 0 116 49.5t42 125.5v320h45v-526h-45v77q-22 -41 -65 -65t-97 -24q-53 0 -98.5 23.5zM188.5 677q-38.5 37 -38.5 93h40q0 -39 27 -65.5t68 -26.5q40 0 67.5 26.5t27.5 65.5h40
q0 -55 -39 -92.5t-96 -37.5q-58 0 -96.5 37z" />
    <glyph glyph-name="Uring" unicode="&#x16e;" horiz-adv-x="690" 
d="M214.5 21q-56.5 33 -88 92.5t-31.5 137.5v494h50v-498q0 -62 25 -111t70.5 -76t104.5 -27t104.5 27t70.5 76t25 111v498h50v-494q0 -78 -31.5 -137.5t-88 -92.5t-130.5 -33t-130.5 33zM272 838q-29 29 -29 72q0 44 29.5 73t72.5 29t72 -29.5t29 -73.5q0 -43 -29 -71.5
t-72 -28.5q-44 0 -73 29zM299 862.5q19 -18.5 46 -18.5q26 0 45.5 18.5t19.5 47.5t-19.5 47.5t-45.5 18.5q-27 0 -46 -18t-19 -48q0 -29 19 -47.5z" />
    <glyph glyph-name="uring" unicode="&#x16f;" 
d="M176.5 11.5q-45.5 23.5 -72.5 68.5t-27 106v340h45v-340q0 -73 45 -114t112 -41q74 0 116 49.5t42 125.5v320h45v-526h-45v77q-22 -41 -65 -65t-97 -24q-53 0 -98.5 23.5zM212 619q-29 29 -29 72q0 44 29.5 73t72.5 29t72 -29.5t29 -73.5q0 -43 -29 -71.5t-72 -28.5
q-44 0 -73 29zM239 643.5q19 -18.5 46 -18.5q26 0 45.5 18.5t19.5 47.5t-19.5 47.5t-45.5 18.5q-27 0 -46 -18t-19 -48q0 -29 19 -47.5z" />
    <glyph glyph-name="Uhungarumlaut" unicode="&#x170;" horiz-adv-x="690" 
d="M214.5 21q-56.5 33 -88 92.5t-31.5 137.5v494h50v-498q0 -62 25 -111t70.5 -76t104.5 -27t104.5 27t70.5 76t25 111v498h50v-494q0 -78 -31.5 -137.5t-88 -92.5t-130.5 -33t-130.5 33zM340 1003h52l-91 -144h-39zM467 1003h52l-91 -144h-39z" />
    <glyph glyph-name="uhungarumlaut" unicode="&#x171;" 
d="M176.5 11.5q-45.5 23.5 -72.5 68.5t-27 106v340h45v-340q0 -73 45 -114t112 -41q74 0 116 49.5t42 125.5v320h45v-526h-45v77q-22 -41 -65 -65t-97 -24q-53 0 -98.5 23.5zM280 784h52l-91 -144h-39zM407 784h52l-91 -144h-39z" />
    <glyph glyph-name="Uogonek" unicode="&#x172;" horiz-adv-x="690" 
d="M309.5 -143q-25.5 21 -25.5 55q0 42 35 77q-67 6 -117.5 40t-78.5 91t-28 131v494h50v-498q0 -62 25 -111t70.5 -76t104.5 -27t104.5 27t70.5 76t25 111v498h50v-494q0 -75 -29 -133.5t-82 -92t-122 -37.5q-36 -30 -36 -67q0 -22 14 -34t36 -12q31 0 64 25l19 -31
q-40 -33 -86 -33q-38 0 -63.5 21z" />
    <glyph glyph-name="uogonek" unicode="&#x173;" 
d="M176.5 11.5q-45.5 23.5 -72.5 68.5t-27 106v340h45v-340q0 -73 45 -114t112 -41q74 0 116 49.5t42 125.5v320h45v-526h-36q-51 -35 -51 -79q0 -22 14 -34t36 -12q31 0 64 25l19 -31q-40 -33 -86 -33q-38 0 -63.5 21t-25.5 55q0 32 22 61.5t62 50.5v53q-22 -41 -65 -65
t-97 -24q-53 0 -98.5 23.5z" />
    <glyph glyph-name="Wcircumflex" unicode="&#x174;" horiz-adv-x="988" 
d="M22 745h54l193 -657l201 657h48l201 -657l193 657h54l-223 -745h-48l-201 660l-201 -660h-48zM473 1003h40l126 -144h-46l-100 111l-98 -111h-46z" />
    <glyph glyph-name="wcircumflex" unicode="&#x175;" horiz-adv-x="769" 
d="M22 526h50l154 -459l134 459h48l134 -458l155 458h50l-181 -526h-48l-134 455l-134 -455h-48zM364 784h40l126 -144h-46l-100 111l-98 -111h-46z" />
    <glyph glyph-name="Ycircumflex" unicode="&#x176;" horiz-adv-x="624" 
d="M287 333l-265 412h57l234 -356l232 356h57l-265 -412v-333h-50v333zM291 1003h40l126 -144h-46l-100 111l-98 -111h-46z" />
    <glyph glyph-name="ycircumflex" unicode="&#x177;" horiz-adv-x="529" 
d="M244 784h40l126 -144h-46l-100 111l-98 -111h-46z" />
    <glyph glyph-name="Ydieresis" unicode="&#x178;" horiz-adv-x="624" 
d="M287 333l-265 412h57l234 -356l232 356h57l-265 -412v-333h-50v333zM219 900.5q-12 11.5 -12 28.5t12 28.5t28 11.5t28 -11.5t12 -28.5t-12 -28.5t-28 -11.5t-28 11.5zM349 957.5q12 11.5 28 11.5t28 -11.5t12 -28.5t-12 -28.5t-28 -11.5t-28 11.5t-12 28.5t12 28.5z" />
    <glyph glyph-name="Zacute" unicode="&#x179;" horiz-adv-x="606" 
d="M33 30l462 670h-435v45h503v-30l-461 -670h471v-45h-540v30zM361 1003h52l-91 -144h-39z" />
    <glyph glyph-name="zacute" unicode="&#x17a;" horiz-adv-x="435" 
d="M33 30l316 456h-297v40h358v-30l-317 -456h320v-40h-380v30zM276 784h52l-91 -144h-39z" />
    <glyph glyph-name="Zdotaccent" unicode="&#x17b;" horiz-adv-x="606" 
d="M33 30l462 670h-435v45h503v-30l-461 -670h471v-45h-540v30zM275 900.5q-12 11.5 -12 28.5t12 28.5t28 11.5t28 -11.5t12 -28.5t-12 -28.5t-28 -11.5t-28 11.5z" />
    <glyph glyph-name="zdotaccent" unicode="&#x17c;" horiz-adv-x="435" 
d="M33 30l316 456h-297v40h358v-30l-317 -456h320v-40h-380v30zM190 681.5q-12 11.5 -12 28.5t12 28.5t28 11.5t28 -11.5t12 -28.5t-12 -28.5t-28 -11.5t-28 11.5z" />
    <glyph glyph-name="Zcaron" unicode="&#x17d;" horiz-adv-x="606" 
d="M33 30l462 670h-435v45h503v-30l-461 -670h471v-45h-540v30zM158 1003h46l98 -111l100 111h46l-126 -144h-40z" />
    <glyph glyph-name="zcaron" unicode="&#x17e;" horiz-adv-x="435" 
d="M33 30l316 456h-297v40h358v-30l-317 -456h320v-40h-380v30zM73 784h46l98 -111l100 111h46l-126 -144h-40z" />
    <glyph glyph-name="uni018F" unicode="&#x18f;" horiz-adv-x="844" 
d="M240.5 34q-76.5 46 -120 126t-43.5 178q0 23 4 50h636q-3 91 -45.5 164t-114 115t-159.5 42q-86 0 -158 -40t-112 -109l-41 22q40 79 125 127t186 48q102 0 186.5 -51t133.5 -139.5t49 -195.5q0 -106 -47.5 -193.5t-129 -138.5t-180.5 -51q-93 0 -169.5 46zM163 186
q37 -70 102 -110t144 -40q80 0 147.5 40t110 110t49.5 156h-590q0 -86 37 -156z" />
    <glyph glyph-name="florin" unicode="&#x192;" horiz-adv-x="462" 
d="M53 -7v41q17 -3 36 -3q57 0 88.5 37.5t31.5 107.5v175h-133v45h133v173q0 90 44 139t118 49q22 0 39 -5v-41q-16 3 -36 3q-57 0 -88.5 -37.5t-31.5 -107.5v-173h133v-45h-133v-175q0 -90 -44 -139t-118 -49q-22 0 -39 5z" />
    <glyph glyph-name="Ohorn" unicode="&#x1a0;" horiz-adv-x="884" 
d="M258.5 37.5q-83.5 49.5 -132.5 137.5t-49 198t49 198t132.5 137t183.5 49h213q53 0 53 55q0 19 -5 36t-15 45h45q10 -27 15.5 -47t5.5 -40q0 -43 -26.5 -66.5t-69.5 -23.5h-48q90 -47 143.5 -137.5t53.5 -205.5q0 -110 -49 -198t-132.5 -137.5t-183.5 -49.5t-183.5 49.5z
M167 205q40 -77 112 -123t163 -46t163 46t112 123t40 168q0 90 -40 167t-111.5 123t-163.5 46q-91 0 -163 -46t-112 -123t-40 -167q0 -91 40 -168z" />
    <glyph glyph-name="ohorn" unicode="&#x1a1;" horiz-adv-x="662" 
d="M196 24q-61 36 -95.5 99t-34.5 140t34.5 140t95.5 99t135 36h113q53 0 53 55q0 19 -5 36t-15 45h45q10 -27 15.5 -47t5.5 -40q0 -37 -19.5 -59.5t-52.5 -28.5q58 -36 91.5 -98t33.5 -138q0 -77 -34.5 -140t-95.5 -99t-135 -36t-135 36zM142.5 145.5q28.5 -53.5 78.5 -84
t110 -30.5t110 30.5t78.5 84t28.5 117.5q0 65 -28.5 118t-78 83.5t-110.5 30.5t-110.5 -30.5t-78 -83.5t-28.5 -118q0 -64 28.5 -117.5z" />
    <glyph glyph-name="Uhorn" unicode="&#x1af;" horiz-adv-x="690" 
d="M214.5 21q-56.5 33 -88 92.5t-31.5 137.5v494h50v-498q0 -62 25 -111t70.5 -76t104.5 -27t104.5 27t70.5 76t25 111v498h43q53 0 53 55q0 19 -5 36t-15 45h45q10 -27 15.5 -47t5.5 -40q0 -42 -25 -65t-67 -25v-453q0 -78 -31.5 -137.5t-88 -92.5t-130.5 -33t-130.5 33z
" />
    <glyph glyph-name="uhorn" unicode="&#x1b0;" horiz-adv-x="575" 
d="M176.5 11.5q-45.5 23.5 -72.5 68.5t-27 106v340h45v-340q0 -73 45 -114t112 -41q74 0 116 49.5t42 125.5v320h28q53 0 53 55q0 19 -5 36t-15 45h45q10 -27 15.5 -47t5.5 -40q0 -39 -22 -62t-60 -27v-486h-45v77q-22 -41 -65 -65t-97 -24q-53 0 -98.5 23.5z" />
    <glyph glyph-name="uni01C4" unicode="&#x1c4;" horiz-adv-x="1350" 
d="M99 745h238q107 0 186.5 -45.5t122.5 -129.5t43 -197t-43 -197t-122.5 -130t-186.5 -46h-238v745zM335 45q90 0 159 41t107 115.5t38 171.5t-38 171t-107 115t-159 41h-186v-655h186zM777 30l462 670h-435v45h503v-30l-461 -670h471v-45h-540v30zM948 1003l98 -111
l100 111h46l-126 -144h-40l-124 144h46z" />
    <glyph glyph-name="uni01C5" unicode="&#x1c5;" horiz-adv-x="1179" 
d="M99 745h238q107 0 186.5 -45.5t122.5 -129.5t43 -197t-43 -197t-122.5 -130t-186.5 -46h-238v745zM335 45q90 0 159 41t107 115.5t38 171.5t-38 171t-107 115t-159 41h-186v-655h186zM777 30l316 456h-297v40h358v-30l-317 -456h320v-40h-380v30zM863 784l98 -111
l100 111h46l-126 -144h-40l-124 144h46z" />
    <glyph glyph-name="uni01C6" unicode="&#x1c6;" horiz-adv-x="1109" 
d="M193.5 24q-59.5 36 -93.5 99t-34 140t34 140t93.5 99t131.5 36q70 0 127.5 -34.5t88.5 -92.5v334h45v-745h-45v115q-31 -58 -88.5 -92.5t-127.5 -34.5q-72 0 -131.5 36zM141.5 145.5q27.5 -52.5 75.5 -82.5t108 -30t108.5 30t76.5 82.5t28 117.5t-28 117.5t-76.5 82.5
t-108.5 30t-108 -30t-75.5 -82.5t-27.5 -117.5t27.5 -117.5zM707 30l316 456h-297v40h358v-30l-317 -456h320v-40h-380v30zM793 784l98 -111l100 111h46l-126 -144h-40l-124 144h46z" />
    <glyph glyph-name="uni01C7" unicode="&#x1c7;" horiz-adv-x="1087" 
d="M99 745h50v-700h340v-45h-390v745zM654.5 32q-54.5 44 -76.5 119l46 15q19 -60 62 -96.5t104 -36.5q63 0 105.5 41.5t42.5 110.5v560h50v-560q0 -59 -26 -104t-71 -69t-102 -24q-80 0 -134.5 44z" />
    <glyph glyph-name="uni01C8" unicode="&#x1c8;" horiz-adv-x="754" 
d="M99 745h50v-700h340v-45h-390v745zM476 -215v41q16 -3 36 -3q52 0 80.5 29.5t28.5 85.5v588h45v-588q0 -76 -40.5 -117t-110.5 -41q-22 0 -39 5zM621 687.5q9 9.5 23 9.5t22.5 -9t8.5 -24t-8.5 -24.5t-22.5 -9.5t-23 9.5t-9 24.5q0 14 9 23.5z" />
    <glyph glyph-name="uni01C9" unicode="&#x1c9;" horiz-adv-x="442" 
d="M88 757h45v-757h-45v757zM164 -215v41q16 -3 36 -3q52 0 80.5 29.5t28.5 85.5v588h45v-588q0 -76 -40.5 -117t-110.5 -41q-22 0 -39 5zM309 687.5q9 9.5 23 9.5t22.5 -9t8.5 -24t-8.5 -24.5t-22.5 -9.5t-23 9.5t-9 24.5q0 14 9 23.5z" />
    <glyph glyph-name="uni01CA" unicode="&#x1ca;" horiz-adv-x="1119" 
d="M99 745h40l450 -644v644h50v-745h-40l-450 644v-644h-50v745zM804 50h38q61 0 94.5 37t33.5 107v551h50v-554q0 -89 -48 -140t-130 -51h-38v50z" />
    <glyph glyph-name="uni01CB" unicode="&#x1cb;" horiz-adv-x="959" 
d="M99 745h40l450 -644v644h50v-745h-40l-450 644v-644h-50v745zM681 -215v41q16 -3 36 -3q52 0 80.5 29.5t28.5 85.5v588h45v-588q0 -76 -40.5 -117t-110.5 -41q-22 0 -39 5zM826 687.5q9 9.5 23 9.5t22.5 -9t8.5 -24t-8.5 -24.5t-22.5 -9.5t-23 9.5t-9 24.5q0 14 9 23.5z
" />
    <glyph glyph-name="uni01CC" unicode="&#x1cc;" horiz-adv-x="791" 
d="M88 526h45v-77q22 41 65 65t97 24q53 0 98.5 -24.5t72.5 -68.5t27 -100v-345h-45v340q0 46 -21 81.5t-56.5 54.5t-79.5 19q-73 0 -115.5 -50t-42.5 -125v-320h-45v526zM513 -215v41q16 -3 36 -3q52 0 80.5 29.5t28.5 85.5v588h45v-588q0 -76 -40.5 -117t-110.5 -41
q-22 0 -39 5zM658 687.5q9 9.5 23 9.5t22.5 -9t8.5 -24t-8.5 -24.5t-22.5 -9.5t-23 9.5t-9 24.5q0 14 9 23.5z" />
    <glyph glyph-name="Gcaron" unicode="&#x1e6;" horiz-adv-x="834" 
d="M249 37q-81 49 -126.5 136.5t-45.5 198.5q0 110 46 198t127.5 137.5t183.5 49.5q73 0 134.5 -26.5t103.5 -68t61 -86.5l-47 -21q-34 72 -99 113t-153 41t-158 -42.5t-109.5 -119.5t-39.5 -175q0 -99 39 -175.5t109 -118.5t158 -42q81 0 145.5 37t101.5 101.5t37 144.5v4
h-283v45h333v-49q0 -90 -42.5 -165.5t-119 -120.5t-172.5 -45q-103 0 -184 49zM272 1003h46l98 -111l100 111h46l-126 -144h-40z" />
    <glyph glyph-name="gcaron" unicode="&#x1e7;" horiz-adv-x="664" 
d="M197.5 -185q-59.5 35 -89.5 90l38 22q30 -50 77.5 -77.5t107.5 -27.5q52 0 97.5 21.5t74 65.5t28.5 109v114q-31 -58 -86.5 -91t-124.5 -33q-72 0 -130 35.5t-91 96.5t-33 133t33 133t91 96.5t130 35.5q69 0 124.5 -33t86.5 -91v112h45v-508q0 -69 -31.5 -123t-87 -84.5
t-126.5 -30.5q-74 0 -133.5 35zM140 162q26 -50 73 -79.5t107 -29.5q59 0 106.5 29t74.5 79.5t27 111.5t-27 111.5t-74.5 79.5t-106.5 29q-60 0 -107 -29.5t-73 -79.5t-26 -111t26 -111zM187 784h46l98 -111l100 111h46l-126 -144h-40z" />
    <glyph glyph-name="uni01EA" unicode="&#x1ea;" horiz-adv-x="884" 
d="M605 82q72 46 112 123t40 168q0 90 -40 167t-111.5 123t-163.5 46q-91 0 -163 -46t-112 -123t-40 -167q0 -91 40 -168t112 -123t163 -46t163 46zM126 571q49 88 132.5 137t183.5 49q99 0 183 -49.5t133 -137t49 -197.5q0 -108 -46.5 -194t-126 -136.5t-175.5 -54.5
q-36 -30 -36 -67q0 -22 14 -34t36 -12q31 0 64 25l19 -31q-40 -33 -86 -33q-38 0 -63.5 21t-25.5 55q0 42 35 77q-94 6 -171.5 57t-122.5 136t-45 191q0 110 49 198z" />
    <glyph glyph-name="uni01EB" unicode="&#x1eb;" horiz-adv-x="662" 
d="M441 61.5q50 30.5 78.5 84t28.5 117.5q0 65 -28.5 118t-78 83.5t-110.5 30.5t-110.5 -30.5t-78 -83.5t-28.5 -118q0 -64 28.5 -117.5t78.5 -84t110 -30.5t110 30.5zM100.5 403q34.5 63 95.5 99t135 36t135 -36t95.5 -99t34.5 -140q0 -74 -32 -135.5t-88.5 -98
t-127.5 -40.5q-36 -31 -36 -68q0 -22 14 -34t36 -12q31 0 64 25l19 -31q-40 -33 -86 -33q-38 0 -63.5 21t-25.5 55q0 42 35 77q-68 6 -122.5 43.5t-85.5 97.5t-31 133q0 77 34.5 140z" />
    <glyph glyph-name="Aringacute" unicode="&#x1fa;" horiz-adv-x="644" 
d="M298 745h48l276 -745h-55l-72 197h-346l-72 -197h-55zM479 242l-157 429l-157 -429h314zM249 838q-29 29 -29 72q0 44 29.5 73t72.5 29t72 -29.5t29 -73.5q0 -43 -29 -71.5t-72 -28.5q-44 0 -73 29zM276 862.5q19 -18.5 46 -18.5q26 0 45.5 18.5t19.5 47.5t-19.5 47.5
t-45.5 18.5q-27 0 -46 -18t-19 -48q0 -29 19 -47.5zM353 1137h51l-59 -95h-43z" />
    <glyph glyph-name="aringacute" unicode="&#x1fb;" horiz-adv-x="574" 
d="M115 29q-49 41 -49 107q0 60 41 104t130 59l204 34v32q0 59 -40.5 94.5t-107.5 35.5q-51 0 -94 -24.5t-67 -66.5l-40 21q24 47 79 80t122 33q56 0 100 -22t68.5 -61.5t24.5 -89.5v-365h-45v106q-24 -49 -79.5 -83.5t-124.5 -34.5q-73 0 -122 41zM148.5 59.5
q36.5 -29.5 92.5 -29.5q59 0 104.5 28.5t70.5 76t25 103.5v52l-189 -31q-74 -12 -107 -44t-33 -77q0 -49 36.5 -78.5zM214 619q-29 29 -29 72q0 44 29.5 73t72.5 29t72 -29.5t29 -73.5q0 -43 -29 -71.5t-72 -28.5q-44 0 -73 29zM241 643.5q19 -18.5 46 -18.5q26 0 45.5 18.5
t19.5 47.5t-19.5 47.5t-45.5 18.5q-27 0 -46 -18t-19 -48q0 -29 19 -47.5zM318 918h51l-59 -95h-43z" />
    <glyph glyph-name="AEacute" unicode="&#x1fc;" horiz-adv-x="987" 
d="M298 745h634v-45h-410v-304h390v-45h-390v-306h410v-45h-460v197h-323l-72 -197h-55zM472 242v458h-139l-168 -458h307zM552 1003h52l-91 -144h-39z" />
    <glyph glyph-name="aeacute" unicode="&#x1fd;" horiz-adv-x="1002" 
d="M115 29q-49 41 -49 107q0 60 41 104t130 59l203 34v32q0 59 -40 94.5t-107 35.5q-51 0 -94 -24.5t-67 -66.5l-40 21q24 47 79 80t122 33q71 0 121 -34.5t66 -91.5q33 59 90 92.5t126 33.5q67 0 122 -33t86.5 -90t31.5 -127q0 -16 -3 -39h-447q3 -62 32.5 -112t78.5 -78.5
t109 -28.5q57 0 103 27t74 76l38 -20q-29 -58 -87 -91.5t-128 -33.5q-69 0 -126.5 31.5t-93.5 87.5v-107h-46v103q-25 -48 -80 -81.5t-123 -33.5q-73 0 -122 41zM148.5 59.5q36.5 -29.5 92.5 -29.5q59 0 104 28.5t70 76t25 103.5v52l-188 -31q-74 -12 -107 -44t-33 -77
q0 -49 36.5 -78.5zM890 289q0 58 -25.5 105t-70 74.5t-98.5 27.5t-100 -27t-75 -74.5t-34 -105.5h403zM559 784h52l-91 -144h-39z" />
    <glyph glyph-name="Oslashacute" unicode="&#x1fe;" horiz-adv-x="884" 
d="M322.5 8q-57.5 20 -104.5 57l-54 -65h-65l82 99q-49 52 -76.5 122.5t-27.5 151.5q0 110 49 198t132.5 137t183.5 49q62 0 119 -20t104 -57l54 65h65l-82 -98q50 -52 77.5 -122t27.5 -152q0 -110 -49 -198t-132.5 -137.5t-183.5 -49.5q-62 0 -119.5 20zM149.5 245
q22.5 -61 63.5 -108l421 506q-39 32 -88 49t-104 17q-91 0 -163 -46t-112 -123t-40 -167q0 -67 22.5 -128zM338 53.5q49 -17.5 104 -17.5q91 0 163 46t112 123t40 168q0 67 -22.5 128t-64.5 107l-420 -505q39 -32 88 -49.5zM500 1003h52l-91 -144h-39z" />
    <glyph glyph-name="oslashacute" unicode="&#x1ff;" horiz-adv-x="662" 
d="M173 39l-32 -39h-59l58 69q-35 37 -54.5 87t-19.5 107q0 77 34.5 140t95.5 99t135 36q88 0 158 -51l32 39h59l-58 -69q35 -37 54.5 -87t19.5 -107q0 -77 -34.5 -140t-95.5 -99t-135 -36q-88 0 -158 51zM128.5 176.5q14.5 -40.5 41.5 -71.5l289 347q-56 43 -128 43
q-61 0 -110.5 -30.5t-78 -83.5t-28.5 -118q0 -46 14.5 -86.5zM331 31q60 0 110 30.5t78.5 84t28.5 117.5q0 46 -14.5 86.5t-41.5 71.5l-289 -347q57 -43 128 -43zM389 784h52l-91 -144h-39z" />
    <glyph glyph-name="uni0200" unicode="&#x200;" horiz-adv-x="644" 
d="M298 745h48l276 -745h-55l-72 197h-346l-72 -197h-55zM479 242l-157 429l-157 -429h314zM275 1003h52l78 -144h-39zM200 1003l78 -144h-39l-91 144h52z" />
    <glyph glyph-name="uni0201" unicode="&#x201;" horiz-adv-x="574" 
d="M115 29q-49 41 -49 107q0 60 41 104t130 59l204 34v32q0 59 -40.5 94.5t-107.5 35.5q-51 0 -94 -24.5t-67 -66.5l-40 21q24 47 79 80t122 33q56 0 100 -22t68.5 -61.5t24.5 -89.5v-365h-45v106q-24 -49 -79.5 -83.5t-124.5 -34.5q-73 0 -122 41zM148.5 59.5
q36.5 -29.5 92.5 -29.5q59 0 104.5 28.5t70.5 76t25 103.5v52l-189 -31q-74 -12 -107 -44t-33 -77q0 -49 36.5 -78.5zM240 784h52l78 -144h-39zM165 784l78 -144h-39l-91 144h52z" />
    <glyph glyph-name="uni0202" unicode="&#x202;" horiz-adv-x="644" 
d="M298 745h48l276 -745h-55l-72 197h-346l-72 -197h-55zM479 242l-157 429l-157 -429h314zM225.5 952q38.5 37 96.5 37q57 0 96 -37.5t39 -92.5h-40q0 39 -27.5 65.5t-67.5 26.5q-41 0 -68 -26.5t-27 -65.5h-40q0 56 38.5 93z" />
    <glyph glyph-name="uni0203" unicode="&#x203;" horiz-adv-x="574" 
d="M115 29q-49 41 -49 107q0 60 41 104t130 59l204 34v32q0 59 -40.5 94.5t-107.5 35.5q-51 0 -94 -24.5t-67 -66.5l-40 21q24 47 79 80t122 33q56 0 100 -22t68.5 -61.5t24.5 -89.5v-365h-45v106q-24 -49 -79.5 -83.5t-124.5 -34.5q-73 0 -122 41zM148.5 59.5
q36.5 -29.5 92.5 -29.5q59 0 104.5 28.5t70.5 76t25 103.5v52l-189 -31q-74 -12 -107 -44t-33 -77q0 -49 36.5 -78.5zM190.5 733q38.5 37 96.5 37q57 0 96 -37.5t39 -92.5h-40q0 39 -27.5 65.5t-67.5 26.5q-41 0 -68 -26.5t-27 -65.5h-40q0 56 38.5 93z" />
    <glyph glyph-name="uni0204" unicode="&#x204;" horiz-adv-x="614" 
d="M99 745h460v-45h-410v-304h390v-45h-390v-306h410v-45h-460v745zM282 1003h52l78 -144h-39zM207 1003l78 -144h-39l-91 144h52z" />
    <glyph glyph-name="uni0205" unicode="&#x205;" horiz-adv-x="627" 
d="M196.5 24.5q-60.5 36.5 -95.5 99.5t-35 139q0 77 33.5 140t92 99t129.5 36q67 0 122 -33t86.5 -90t31.5 -127q0 -16 -3 -39h-447q3 -62 32.5 -112t78.5 -78.5t109 -28.5q57 0 103 27t74 76l38 -20q-29 -58 -87 -91.5t-128 -33.5q-74 0 -134.5 36.5zM515 289
q0 58 -25.5 105t-70 74.5t-98.5 27.5t-100 -27t-75 -74.5t-34 -105.5h403zM267 784h52l78 -144h-39zM192 784l78 -144h-39l-91 144h52z" />
    <glyph glyph-name="uni0206" unicode="&#x206;" horiz-adv-x="614" 
d="M99 745h460v-45h-410v-304h390v-45h-390v-306h410v-45h-460v745zM232.5 952q38.5 37 96.5 37q57 0 96 -37.5t39 -92.5h-40q0 39 -27.5 65.5t-67.5 26.5q-41 0 -68 -26.5t-27 -65.5h-40q0 56 38.5 93z" />
    <glyph glyph-name="uni0207" unicode="&#x207;" horiz-adv-x="627" 
d="M196.5 24.5q-60.5 36.5 -95.5 99.5t-35 139q0 77 33.5 140t92 99t129.5 36q67 0 122 -33t86.5 -90t31.5 -127q0 -16 -3 -39h-447q3 -62 32.5 -112t78.5 -78.5t109 -28.5q57 0 103 27t74 76l38 -20q-29 -58 -87 -91.5t-128 -33.5q-74 0 -134.5 36.5zM515 289
q0 58 -25.5 105t-70 74.5t-98.5 27.5t-100 -27t-75 -74.5t-34 -105.5h403zM217.5 733q38.5 37 96.5 37q57 0 96 -37.5t39 -92.5h-40q0 39 -27.5 65.5t-67.5 26.5q-41 0 -68 -26.5t-27 -65.5h-40q0 56 38.5 93z" />
    <glyph glyph-name="uni0208" unicode="&#x208;" horiz-adv-x="248" 
d="M99 745h50v-745h-50v745zM77 1003h52l78 -144h-39zM2 1003l78 -144h-39l-91 144h52z" />
    <glyph glyph-name="uni0209" unicode="&#x209;" horiz-adv-x="185" 
d="M70 526h45v-526h-45v526zM45 784h52l78 -144h-39zM-30 784l78 -144h-39l-91 144h52z" />
    <glyph glyph-name="uni020A" unicode="&#x20a;" horiz-adv-x="248" 
d="M99 745h50v-745h-50v745zM27.5 952q38.5 37 96.5 37q57 0 96 -37.5t39 -92.5h-40q0 39 -27.5 65.5t-67.5 26.5q-41 0 -68 -26.5t-27 -65.5h-40q0 56 38.5 93z" />
    <glyph glyph-name="uni020B" unicode="&#x20b;" horiz-adv-x="185" 
d="M70 526h45v-526h-45v526zM-4.5 733q38.5 37 96.5 37q57 0 96 -37.5t39 -92.5h-40q0 39 -27.5 65.5t-67.5 26.5q-41 0 -68 -26.5t-27 -65.5h-40q0 56 38.5 93z" />
    <glyph glyph-name="uni020C" unicode="&#x20c;" horiz-adv-x="884" 
d="M258.5 37.5q-83.5 49.5 -132.5 137.5t-49 198t49 198t132.5 137t183.5 49q99 0 183 -49.5t133 -137t49 -197.5t-49 -198t-132.5 -137.5t-183.5 -49.5t-183.5 49.5zM167 205q40 -77 112 -123t163 -46t163 46t112 123t40 168q0 90 -40 167t-111.5 123t-163.5 46
q-91 0 -163 -46t-112 -123t-40 -167q0 -91 40 -168zM395 1003h52l78 -144h-39zM320 1003l78 -144h-39l-91 144h52z" />
    <glyph glyph-name="uni020D" unicode="&#x20d;" horiz-adv-x="662" 
d="M196 24q-61 36 -95.5 99t-34.5 140t34.5 140t95.5 99t135 36t135 -36t95.5 -99t34.5 -140t-34.5 -140t-95.5 -99t-135 -36t-135 36zM142.5 145.5q28.5 -53.5 78.5 -84t110 -30.5t110 30.5t78.5 84t28.5 117.5q0 65 -28.5 118t-78 83.5t-110.5 30.5t-110.5 -30.5
t-78 -83.5t-28.5 -118q0 -64 28.5 -117.5zM284 784h52l78 -144h-39zM209 784l78 -144h-39l-91 144h52z" />
    <glyph glyph-name="uni020E" unicode="&#x20e;" horiz-adv-x="884" 
d="M258.5 37.5q-83.5 49.5 -132.5 137.5t-49 198t49 198t132.5 137t183.5 49q99 0 183 -49.5t133 -137t49 -197.5t-49 -198t-132.5 -137.5t-183.5 -49.5t-183.5 49.5zM167 205q40 -77 112 -123t163 -46t163 46t112 123t40 168q0 90 -40 167t-111.5 123t-163.5 46
q-91 0 -163 -46t-112 -123t-40 -167q0 -91 40 -168zM345.5 952q38.5 37 96.5 37q57 0 96 -37.5t39 -92.5h-40q0 39 -27.5 65.5t-67.5 26.5q-41 0 -68 -26.5t-27 -65.5h-40q0 56 38.5 93z" />
    <glyph glyph-name="uni020F" unicode="&#x20f;" horiz-adv-x="662" 
d="M196 24q-61 36 -95.5 99t-34.5 140t34.5 140t95.5 99t135 36t135 -36t95.5 -99t34.5 -140t-34.5 -140t-95.5 -99t-135 -36t-135 36zM142.5 145.5q28.5 -53.5 78.5 -84t110 -30.5t110 30.5t78.5 84t28.5 117.5q0 65 -28.5 118t-78 83.5t-110.5 30.5t-110.5 -30.5
t-78 -83.5t-28.5 -118q0 -64 28.5 -117.5zM234.5 733q38.5 37 96.5 37q57 0 96 -37.5t39 -92.5h-40q0 39 -27.5 65.5t-67.5 26.5q-41 0 -68 -26.5t-27 -65.5h-40q0 56 38.5 93z" />
    <glyph glyph-name="uni0210" unicode="&#x210;" horiz-adv-x="635" 
d="M99 745h244q69 0 122.5 -28t83.5 -79t30 -116q0 -80 -45 -137.5t-121 -76.5l178 -308h-59l-171 300h-212v-300h-50v745zM343 345q54 0 96.5 22.5t66 63t23.5 92.5t-23.5 92t-66 62.5t-96.5 22.5h-194v-355h194zM265 1003h52l78 -144h-39zM190 1003l78 -144h-39l-91 144
h52z" />
    <glyph glyph-name="uni0211" unicode="&#x211;" horiz-adv-x="340" 
d="M88 526h45v-76q21 39 61 60.5t91 21.5h33v-45h-34q-71 0 -111 -46.5t-40 -120.5v-320h-45v526zM156 784h52l78 -144h-39zM81 784l78 -144h-39l-91 144h52z" />
    <glyph glyph-name="uni0212" unicode="&#x212;" horiz-adv-x="635" 
d="M99 745h244q69 0 122.5 -28t83.5 -79t30 -116q0 -80 -45 -137.5t-121 -76.5l178 -308h-59l-171 300h-212v-300h-50v745zM343 345q54 0 96.5 22.5t66 63t23.5 92.5t-23.5 92t-66 62.5t-96.5 22.5h-194v-355h194zM215.5 952q38.5 37 96.5 37q57 0 96 -37.5t39 -92.5h-40
q0 39 -27.5 65.5t-67.5 26.5q-41 0 -68 -26.5t-27 -65.5h-40q0 56 38.5 93z" />
    <glyph glyph-name="uni0213" unicode="&#x213;" horiz-adv-x="340" 
d="M88 526h45v-76q21 39 61 60.5t91 21.5h33v-45h-34q-71 0 -111 -46.5t-40 -120.5v-320h-45v526zM106.5 733q38.5 37 96.5 37q57 0 96 -37.5t39 -92.5h-40q0 39 -27.5 65.5t-67.5 26.5q-41 0 -68 -26.5t-27 -65.5h-40q0 56 38.5 93z" />
    <glyph glyph-name="uni0214" unicode="&#x214;" horiz-adv-x="690" 
d="M214.5 21q-56.5 33 -88 92.5t-31.5 137.5v494h50v-498q0 -62 25 -111t70.5 -76t104.5 -27t104.5 27t70.5 76t25 111v498h50v-494q0 -78 -31.5 -137.5t-88 -92.5t-130.5 -33t-130.5 33zM298 1003h52l78 -144h-39zM223 1003l78 -144h-39l-91 144h52z" />
    <glyph glyph-name="uni0215" unicode="&#x215;" 
d="M176.5 11.5q-45.5 23.5 -72.5 68.5t-27 106v340h45v-340q0 -73 45 -114t112 -41q74 0 116 49.5t42 125.5v320h45v-526h-45v77q-22 -41 -65 -65t-97 -24q-53 0 -98.5 23.5zM238 784h52l78 -144h-39zM163 784l78 -144h-39l-91 144h52z" />
    <glyph glyph-name="uni0216" unicode="&#x216;" horiz-adv-x="690" 
d="M214.5 21q-56.5 33 -88 92.5t-31.5 137.5v494h50v-498q0 -62 25 -111t70.5 -76t104.5 -27t104.5 27t70.5 76t25 111v498h50v-494q0 -78 -31.5 -137.5t-88 -92.5t-130.5 -33t-130.5 33zM248.5 952q38.5 37 96.5 37q57 0 96 -37.5t39 -92.5h-40q0 39 -27.5 65.5t-67.5 26.5
q-41 0 -68 -26.5t-27 -65.5h-40q0 56 38.5 93z" />
    <glyph glyph-name="uni0217" unicode="&#x217;" 
d="M176.5 11.5q-45.5 23.5 -72.5 68.5t-27 106v340h45v-340q0 -73 45 -114t112 -41q74 0 116 49.5t42 125.5v320h45v-526h-45v77q-22 -41 -65 -65t-97 -24q-53 0 -98.5 23.5zM188.5 733q38.5 37 96.5 37q57 0 96 -37.5t39 -92.5h-40q0 39 -27.5 65.5t-67.5 26.5
q-41 0 -68 -26.5t-27 -65.5h-40q0 56 38.5 93z" />
    <glyph glyph-name="uni0218" unicode="&#x218;" horiz-adv-x="639" 
d="M209 14q-55 26 -91 68t-52 92l45 14q29 -76 85.5 -116.5t134.5 -40.5q81 0 132 41t51 112q0 57 -33 91.5t-85 49.5l-139 40q-82 24 -121 75.5t-39 122.5q0 56 28 100.5t76.5 69t107.5 24.5t109.5 -24t85 -63.5t49.5 -86.5l-45 -14q-26 70 -78.5 107.5t-119.5 37.5
q-71 0 -118 -42t-47 -110q0 -57 30 -92t104 -58l126 -38q74 -22 115.5 -72t41.5 -119q0 -57 -30 -101t-82.5 -69t-117.5 -25q-68 0 -123 26zM316 -233q13 24 14 63h-28v90h55v-70q0 -60 -19.5 -96t-55.5 -47v29q21 7 34 31z" />
    <glyph glyph-name="uni0219" unicode="&#x219;" horiz-adv-x="506" 
d="M139.5 21.5q-53.5 33.5 -81.5 93.5l41 19q26 -49 68.5 -76t93.5 -27q58 0 96 29t38 74q0 37 -25 62t-72 37l-88 22q-64 16 -97 52t-33 89q0 41 21.5 73.5t58.5 50.5t82 18q63 0 115 -31.5t73 -83.5l-43 -21q-22 44 -60 68.5t-84 24.5q-51 0 -84 -28t-33 -71
q0 -34 23 -57.5t67 -34.5l89 -23q66 -16 101.5 -54.5t35.5 -91.5q0 -42 -23.5 -75.5t-65 -52.5t-91.5 -19q-69 0 -122.5 33.5zM249 -233q13 24 14 63h-28v90h55v-70q0 -60 -19.5 -96t-55.5 -47v29q21 7 34 31z" />
    <glyph glyph-name="uni021A" unicode="&#x21a;" horiz-adv-x="514" 
d="M233 700h-211v45h470v-45h-209v-700h-50v700zM253 -233q13 24 14 63h-28v90h55v-70q0 -60 -19.5 -96t-55.5 -47v29q21 7 34 31z" />
    <glyph glyph-name="uni021B" unicode="&#x21b;" horiz-adv-x="379" 
d="M175.5 27.5q-32.5 33.5 -32.5 98.5v360h-100v40h50q26 0 38 13t12 41v70h45v-124h114v-40h-114v-360q0 -89 86 -89q24 0 39 3v-41q-17 -5 -43 -5q-62 0 -94.5 33.5zM236 -233q13 24 14 63h-28v90h55v-70q0 -60 -19.5 -96t-55.5 -47v29q21 7 34 31z" />
    <glyph glyph-name="uni022A" unicode="&#x22a;" horiz-adv-x="884" 
d="M258.5 37.5q-83.5 49.5 -132.5 137.5t-49 198t49 198t132.5 137t183.5 49q99 0 183 -49.5t133 -137t49 -197.5t-49 -198t-132.5 -137.5t-183.5 -49.5t-183.5 49.5zM167 205q40 -77 112 -123t163 -46t163 46t112 123t40 168q0 90 -40 167t-111.5 123t-163.5 46
q-91 0 -163 -46t-112 -123t-40 -167q0 -91 40 -168zM349 900.5q-12 11.5 -12 28.5t12 28.5t28 11.5t28 -11.5t12 -28.5t-12 -28.5t-28 -11.5t-28 11.5zM342 1059h200v-40h-200v40zM479 957.5q12 11.5 28 11.5t28 -11.5t12 -28.5t-12 -28.5t-28 -11.5t-28 11.5t-12 28.5
t12 28.5z" />
    <glyph glyph-name="uni022B" unicode="&#x22b;" horiz-adv-x="662" 
d="M196 24q-61 36 -95.5 99t-34.5 140t34.5 140t95.5 99t135 36t135 -36t95.5 -99t34.5 -140t-34.5 -140t-95.5 -99t-135 -36t-135 36zM142.5 145.5q28.5 -53.5 78.5 -84t110 -30.5t110 30.5t78.5 84t28.5 117.5q0 65 -28.5 118t-78 83.5t-110.5 30.5t-110.5 -30.5
t-78 -83.5t-28.5 -118q0 -64 28.5 -117.5zM238 681.5q-12 11.5 -12 28.5t12 28.5t28 11.5t28 -11.5t12 -28.5t-12 -28.5t-28 -11.5t-28 11.5zM231 840h200v-40h-200v40zM368 738.5q12 11.5 28 11.5t28 -11.5t12 -28.5t-12 -28.5t-28 -11.5t-28 11.5t-12 28.5t12 28.5z" />
    <glyph glyph-name="uni022C" unicode="&#x22c;" horiz-adv-x="884" 
d="M258.5 37.5q-83.5 49.5 -132.5 137.5t-49 198t49 198t132.5 137t183.5 49q99 0 183 -49.5t133 -137t49 -197.5t-49 -198t-132.5 -137.5t-183.5 -49.5t-183.5 49.5zM167 205q40 -77 112 -123t163 -46t163 46t112 123t40 168q0 90 -40 167t-111.5 123t-163.5 46
q-91 0 -163 -46t-112 -123t-40 -167q0 -91 40 -168zM466.5 885q-12.5 6 -30.5 17q-17 10 -27 15t-22 5q-13 0 -22.5 -10t-11.5 -29h-36q1 34 20.5 55t50.5 21q17 0 29.5 -6t30.5 -17q17 -10 27 -15t22 -5q31 0 34 39h36q-1 -34 -20.5 -55t-50.5 -21q-17 0 -29.5 6zM342 1079
h200v-40h-200v40z" />
    <glyph glyph-name="uni022D" unicode="&#x22d;" horiz-adv-x="662" 
d="M196 24q-61 36 -95.5 99t-34.5 140t34.5 140t95.5 99t135 36t135 -36t95.5 -99t34.5 -140t-34.5 -140t-95.5 -99t-135 -36t-135 36zM142.5 145.5q28.5 -53.5 78.5 -84t110 -30.5t110 30.5t78.5 84t28.5 117.5q0 65 -28.5 118t-78 83.5t-110.5 30.5t-110.5 -30.5
t-78 -83.5t-28.5 -118q0 -64 28.5 -117.5zM355.5 666q-12.5 6 -30.5 17q-17 10 -27 15t-22 5q-13 0 -22.5 -10t-11.5 -29h-36q1 34 20.5 55t50.5 21q17 0 29.5 -6t30.5 -17q17 -10 27 -15t22 -5q31 0 34 39h36q-1 -34 -20.5 -55t-50.5 -21q-17 0 -29.5 6zM231 860h200v-40
h-200v40z" />
    <glyph glyph-name="uni0230" unicode="&#x230;" horiz-adv-x="884" 
d="M258.5 37.5q-83.5 49.5 -132.5 137.5t-49 198t49 198t132.5 137t183.5 49q99 0 183 -49.5t133 -137t49 -197.5t-49 -198t-132.5 -137.5t-183.5 -49.5t-183.5 49.5zM167 205q40 -77 112 -123t163 -46t163 46t112 123t40 168q0 90 -40 167t-111.5 123t-163.5 46
q-91 0 -163 -46t-112 -123t-40 -167q0 -91 40 -168zM342 1059h200v-40h-200v40zM414 957.5q12 11.5 28 11.5t28 -11.5t12 -28.5t-12 -28.5t-28 -11.5t-28 11.5t-12 28.5t12 28.5z" />
    <glyph glyph-name="uni0231" unicode="&#x231;" horiz-adv-x="662" 
d="M196 24q-61 36 -95.5 99t-34.5 140t34.5 140t95.5 99t135 36t135 -36t95.5 -99t34.5 -140t-34.5 -140t-95.5 -99t-135 -36t-135 36zM142.5 145.5q28.5 -53.5 78.5 -84t110 -30.5t110 30.5t78.5 84t28.5 117.5q0 65 -28.5 118t-78 83.5t-110.5 30.5t-110.5 -30.5
t-78 -83.5t-28.5 -118q0 -64 28.5 -117.5zM231 840h200v-40h-200v40zM303 738.5q12 11.5 28 11.5t28 -11.5t12 -28.5t-12 -28.5t-28 -11.5t-28 11.5t-12 28.5t12 28.5z" />
    <glyph glyph-name="uni0232" unicode="&#x232;" horiz-adv-x="624" 
d="M287 333l-265 412h57l234 -356l232 356h57l-265 -412v-333h-50v333zM187 929h250v-40h-250v40z" />
    <glyph glyph-name="uni0233" unicode="&#x233;" horiz-adv-x="529" 
d="M140 710h250v-40h-250v40z" />
    <glyph glyph-name="uni0237" unicode="&#x237;" horiz-adv-x="221" 
d="M-57 -215v41q16 -3 36 -3q52 0 80.5 29.5t28.5 85.5v588h45v-588q0 -76 -40.5 -117t-110.5 -41q-22 0 -39 5z" />
    <glyph glyph-name="uni0259" unicode="&#x259;" horiz-adv-x="627" 
d="M184 21q-55 33 -86.5 90t-31.5 127q0 17 3 39h447q-3 62 -32.5 112t-78.5 78.5t-109 28.5q-57 0 -103 -27t-74 -76l-38 20q29 58 87 91.5t128 33.5q74 0 134.5 -36.5t95.5 -99.5t35 -139q0 -77 -33.5 -140t-92 -99t-129.5 -36q-67 0 -122 33zM137.5 132
q25.5 -47 70 -74.5t98.5 -27.5t100 27t75 74.5t34 105.5h-403q0 -58 25.5 -105z" />
    <glyph glyph-name="uni02BB" unicode="&#x2bb;" horiz-adv-x="281" 
d="M141 686q-12 -22 -11 -52q12 0 21.5 -10t9.5 -22q0 -13 -8.5 -22t-22.5 -9q-13 0 -21 11.5t-9 29.5q-3 50 17.5 85.5t56.5 46.5v-29q-21 -7 -33 -29z" />
    <glyph glyph-name="uni02BC" unicode="&#x2bc;" horiz-adv-x="261" 
d="M103 745h55l-10 -185h-35z" />
    <glyph glyph-name="uni02BE" unicode="&#x2be;" horiz-adv-x="308" 
d="M149 643.5q19 18.5 19 47.5q0 30 -19 48t-46 18v36q44 0 73 -29t29 -73q0 -43 -29 -72t-73 -29v35q27 0 46 18.5z" />
    <glyph glyph-name="uni02BF" unicode="&#x2bf;" horiz-adv-x="308" 
d="M132 619q-29 29 -29 72q0 44 29.5 73t72.5 29v-36q-27 0 -46 -18t-19 -48q0 -29 19 -47.5t46 -18.5v-35q-44 0 -73 29z" />
    <glyph glyph-name="circumflex" unicode="&#x2c6;" horiz-adv-x="496" 
d="M227 784h40l126 -144h-46l-100 111l-98 -111h-46z" />
    <glyph glyph-name="caron" unicode="&#x2c7;" horiz-adv-x="496" 
d="M103 784h46l98 -111l100 111h46l-126 -144h-40z" />
    <glyph glyph-name="uni02C8" unicode="&#x2c8;" horiz-adv-x="261" 
d="M103 745h55v-195h-55v195z" />
    <glyph glyph-name="uni02C9" unicode="&#x2c9;" horiz-adv-x="456" 
d="M103 710h250v-40h-250v40z" />
    <glyph glyph-name="uni02CA" unicode="&#x2ca;" horiz-adv-x="336" 
d="M181 784h52l-91 -144h-39z" />
    <glyph glyph-name="uni02CB" unicode="&#x2cb;" horiz-adv-x="336" 
d="M103 784h52l78 -144h-39z" />
    <glyph glyph-name="uni02CC" unicode="&#x2cc;" horiz-adv-x="261" 
d="M103 0h55v-195h-55v195z" />
    <glyph glyph-name="breve" unicode="&#x2d8;" horiz-adv-x="476" 
d="M141.5 677q-38.5 37 -38.5 93h40q0 -39 27 -65.5t68 -26.5q40 0 67.5 26.5t27.5 65.5h40q0 -55 -39 -92.5t-96 -37.5q-58 0 -96.5 37z" />
    <glyph glyph-name="dotaccent" unicode="&#x2d9;" horiz-adv-x="286" 
d="M115 681.5q-12 11.5 -12 28.5t12 28.5t28 11.5t28 -11.5t12 -28.5t-12 -28.5t-28 -11.5t-28 11.5z" />
    <glyph glyph-name="ring" unicode="&#x2da;" horiz-adv-x="409" 
d="M132 619q-29 29 -29 72q0 44 29.5 73t72.5 29t72 -29.5t29 -73.5q0 -43 -29 -71.5t-72 -28.5q-44 0 -73 29zM159 643.5q19 -18.5 46 -18.5q26 0 45.5 18.5t19.5 47.5t-19.5 47.5t-45.5 18.5q-27 0 -46 -18t-19 -48q0 -29 19 -47.5z" />
    <glyph glyph-name="ogonek" unicode="&#x2db;" horiz-adv-x="381" 
d="M128.5 -153q-25.5 21 -25.5 55q0 35 25 66t71 52h29v-11q-83 -43 -83 -98q0 -22 14 -34t36 -12q31 0 64 25l19 -31q-40 -33 -86 -33q-38 0 -63.5 21z" />
    <glyph glyph-name="tilde" unicode="&#x2dc;" horiz-adv-x="456" 
d="M252.5 646q-12.5 6 -30.5 17q-17 10 -27 15t-22 5q-13 0 -22.5 -10t-11.5 -29h-36q1 34 20.5 55t50.5 21q17 0 29.5 -6t30.5 -17q17 -10 27 -15t22 -5q31 0 34 39h36q-1 -34 -20.5 -55t-50.5 -21q-17 0 -29.5 6z" />
    <glyph glyph-name="hungarumlaut" unicode="&#x2dd;" horiz-adv-x="463" 
d="M181 784h52l-91 -144h-39zM308 784h52l-91 -144h-39z" />
    <glyph glyph-name="gravecomb" unicode="&#x300;" horiz-adv-x="0" 
d="M103 784h52l78 -144h-39z" />
    <glyph glyph-name="acutecomb" unicode="&#x301;" horiz-adv-x="0" 
d="M181 784h52l-91 -144h-39z" />
    <glyph glyph-name="uni0302" unicode="&#x302;" horiz-adv-x="0" 
d="M227 784h40l126 -144h-46l-100 111l-98 -111h-46z" />
    <glyph glyph-name="tildecomb" unicode="&#x303;" horiz-adv-x="0" 
d="M252.5 646q-12.5 6 -30.5 17q-17 10 -27 15t-22 5q-13 0 -22.5 -10t-11.5 -29h-36q1 34 20.5 55t50.5 21q17 0 29.5 -6t30.5 -17q17 -10 27 -15t22 -5q31 0 34 39h36q-1 -34 -20.5 -55t-50.5 -21q-17 0 -29.5 6z" />
    <glyph glyph-name="uni0304" unicode="&#x304;" horiz-adv-x="0" 
d="M103 710h250v-40h-250v40z" />
    <glyph glyph-name="uni0306" unicode="&#x306;" horiz-adv-x="0" 
d="M141.5 677q-38.5 37 -38.5 93h40q0 -39 27 -65.5t68 -26.5q40 0 67.5 26.5t27.5 65.5h40q0 -55 -39 -92.5t-96 -37.5q-58 0 -96.5 37z" />
    <glyph glyph-name="uni0307" unicode="&#x307;" horiz-adv-x="0" 
d="M115 681.5q-12 11.5 -12 28.5t12 28.5t28 11.5t28 -11.5t12 -28.5t-12 -28.5t-28 -11.5t-28 11.5z" />
    <glyph glyph-name="uni0308" unicode="&#x308;" horiz-adv-x="0" 
d="M115 681.5q-12 11.5 -12 28.5t12 28.5t28 11.5t28 -11.5t12 -28.5t-12 -28.5t-28 -11.5t-28 11.5zM245 738.5q12 11.5 28 11.5t28 -11.5t12 -28.5t-12 -28.5t-28 -11.5t-28 11.5t-12 28.5t12 28.5z" />
    <glyph glyph-name="hookabovecomb" unicode="&#x309;" horiz-adv-x="0" 
d="M191.5 627.5q19.5 20.5 19.5 42.5q0 25 -17.5 39t-46.5 14q-24 0 -44 -8v31q19 9 54 9q43 0 68.5 -21t25.5 -56q0 -66 -99 -108l-11 24q31 13 50.5 33.5z" />
    <glyph glyph-name="uni030A" unicode="&#x30a;" horiz-adv-x="0" 
d="M132 619q-29 29 -29 72q0 44 29.5 73t72.5 29t72 -29.5t29 -73.5q0 -43 -29 -71.5t-72 -28.5q-44 0 -73 29zM159 643.5q19 -18.5 46 -18.5q26 0 45.5 18.5t19.5 47.5t-19.5 47.5t-45.5 18.5q-27 0 -46 -18t-19 -48q0 -29 19 -47.5z" />
    <glyph glyph-name="uni030B" unicode="&#x30b;" horiz-adv-x="0" 
d="M181 784h52l-91 -144h-39zM308 784h52l-91 -144h-39z" />
    <glyph glyph-name="uni030C" unicode="&#x30c;" horiz-adv-x="0" 
d="M103 784h46l98 -111l100 111h46l-126 -144h-40z" />
    <glyph glyph-name="uni030F" unicode="&#x30f;" horiz-adv-x="0" 
d="M230 784h52l78 -144h-39zM155 784l78 -144h-39l-91 144h52z" />
    <glyph glyph-name="uni0311" unicode="&#x311;" horiz-adv-x="0" 
d="M141.5 733q38.5 37 96.5 37q57 0 96 -37.5t39 -92.5h-40q0 39 -27.5 65.5t-67.5 26.5q-41 0 -68 -26.5t-27 -65.5h-40q0 56 38.5 93z" />
    <glyph glyph-name="uni0312" unicode="&#x312;" horiz-adv-x="0" 
d="M124 765.5q21 32.5 54 41.5v-27q-21 -5 -35 -27t-14 -51h29v-90h-55v76q0 45 21 77.5z" />
    <glyph glyph-name="uni031B" unicode="&#x31b;" horiz-adv-x="0" 
d="M103 682h13q53 0 53 55q0 19 -5 36t-15 45h45q10 -27 15.5 -47t5.5 -40q0 -43 -26.5 -66.5t-69.5 -23.5h-16v41z" />
    <glyph glyph-name="dotbelowcomb" unicode="&#x323;" horiz-adv-x="0" 
d="M115 -148.5q-12 11.5 -12 28.5t12 28.5t28 11.5t28 -11.5t12 -28.5t-12 -28.5t-28 -11.5t-28 11.5z" />
    <glyph glyph-name="uni0324" unicode="&#x324;" horiz-adv-x="0" 
d="M115 -148.5q-12 11.5 -12 28.5t12 28.5t28 11.5t28 -11.5t12 -28.5t-12 -28.5t-28 -11.5t-28 11.5zM245 -91.5q12 11.5 28 11.5t28 -11.5t12 -28.5t-12 -28.5t-28 -11.5t-28 11.5t-12 28.5t12 28.5z" />
    <glyph glyph-name="uni0326" unicode="&#x326;" horiz-adv-x="0" 
d="M137 -233q13 24 14 63h-28v90h55v-70q0 -60 -19.5 -96t-55.5 -47v29q21 7 34 31z" />
    <glyph glyph-name="uni0327" unicode="&#x327;" horiz-adv-x="0" 
d="M136 -185q-21 5 -33 13l13 29q34 -13 60 -13q24 0 37.5 12t13.5 32q0 17 -10.5 26.5t-29.5 9.5q-21 0 -44 -13l-20 7l11 102h32l-7 -67q15 6 33 6q31 0 51 -20t20 -50q0 -35 -24 -57t-63 -22q-19 0 -40 5z" />
    <glyph glyph-name="uni0328" unicode="&#x328;" horiz-adv-x="0" 
d="M128.5 -153q-25.5 21 -25.5 55q0 35 25 66t71 52h29v-11q-83 -43 -83 -98q0 -22 14 -34t36 -12q31 0 64 25l19 -31q-40 -33 -86 -33q-38 0 -63.5 21z" />
    <glyph glyph-name="uni032E" unicode="&#x32e;" horiz-adv-x="0" 
d="M141.5 -173q-38.5 37 -38.5 93h40q0 -39 27 -65.5t68 -26.5q40 0 67.5 26.5t27.5 65.5h40q0 -55 -39 -92.5t-96 -37.5q-58 0 -96.5 37z" />
    <glyph glyph-name="uni0331" unicode="&#x331;" horiz-adv-x="0" 
d="M103 -100h250v-40h-250v40z" />
    <glyph glyph-name="uni0394" unicode="&#x394;" horiz-adv-x="610" 
d="M22 45l259 700h48l259 -700v-45h-566v45zM534 45l-229 627l-229 -627h458z" />
    <glyph glyph-name="uni03A9" unicode="&#x3a9;" horiz-adv-x="884" 
d="M77 45h175q-81 52 -128 137t-47 191q0 110 49 198t132.5 137t183.5 49t183.5 -49t132.5 -137t49 -198q0 -106 -47 -191t-128 -137h175v-45h-250v45q92 40 146 129t54 199q0 90 -40 167t-112 123t-163 46t-163 -46t-112 -123t-40 -167q0 -110 54 -199t146 -129v-45h-250
v45z" />
    <glyph glyph-name="pi" unicode="&#x3c0;" horiz-adv-x="626" 
d="M143 486h-100v40h540v-40h-100v-486h-45v486h-250v-486h-45v486z" />
    <glyph glyph-name="uni0E3F" unicode="&#xe3f;" horiz-adv-x="695" 
d="M99 745h217v100h45v-100h39q58 0 103.5 -24.5t70.5 -67t25 -96.5q0 -55 -27.5 -98t-75.5 -62q61 -20 97 -71.5t36 -117.5q0 -95 -60 -151.5t-169 -56.5h-39v-100h-45v100h-217v745zM316 45v325h-167v-325h167zM316 415v285h-167v-285h167zM391 45q87 0 137.5 44.5
t50.5 117.5q0 74 -48.5 118.5t-129.5 44.5h-40v-325h30zM394 415q71 0 113 39t42 104t-41 103.5t-114 38.5h-33v-285h33z" />
    <glyph glyph-name="uni1E08" unicode="&#x1e08;" horiz-adv-x="788" 
d="M409 -11l-6 -56q15 6 33 6q31 0 51 -20t20 -50q0 -35 -24 -57t-63 -22q-19 0 -40 5t-33 13l13 29q34 -13 60 -13q24 0 37.5 12t13.5 32q0 17 -10.5 26.5t-29.5 9.5q-21 0 -44 -13l-20 7l10 94q-87 12 -155 64t-106.5 134.5t-38.5 182.5q0 109 46 197t126.5 137.5
t180.5 49.5q70 0 130 -26.5t101.5 -68t60.5 -86.5l-47 -21q-34 71 -98 112.5t-147 41.5q-88 0 -157 -42.5t-107.5 -119t-38.5 -174.5q0 -99 38.5 -175.5t107.5 -119t157 -42.5q83 0 147 41.5t98 112.5l47 -21q-19 -45 -60.5 -86.5t-101.5 -68t-130 -26.5zM452 1003h52
l-91 -144h-39z" />
    <glyph glyph-name="uni1E09" unicode="&#x1e09;" horiz-adv-x="607" 
d="M314 -205q-21 5 -33 13l13 29q34 -13 60 -13q24 0 37.5 12t13.5 32q0 17 -10.5 26.5t-29.5 9.5q-21 0 -44 -13l-20 7l10 91q-70 4 -126.5 40.5t-89 98t-32.5 135.5q0 77 35 140t95.5 99t134.5 36q71 0 129.5 -34.5t86.5 -89.5l-38 -21q-28 49 -74.5 76t-103.5 27
q-61 0 -111 -29.5t-79.5 -82.5t-29.5 -121t29.5 -121t79.5 -82.5t111 -29.5q57 0 103.5 27t74.5 76l38 -20q-26 -51 -80.5 -86t-120.5 -39l-6 -55q15 6 33 6q31 0 51 -20t20 -50q0 -35 -24 -57t-63 -22q-19 0 -40 5zM386 784h52l-91 -144h-39z" />
    <glyph glyph-name="uni1E0C" unicode="&#x1e0c;" horiz-adv-x="744" 
d="M99 745h238q107 0 186.5 -45.5t122.5 -129.5t43 -197t-43 -197t-122.5 -130t-186.5 -46h-238v745zM335 45q90 0 159 41t107 115.5t38 171.5t-38 171t-107 115t-159 41h-186v-655h186zM355 -148.5q-12 11.5 -12 28.5t12 28.5t28 11.5t28 -11.5t12 -28.5t-12 -28.5
t-28 -11.5t-28 11.5z" />
    <glyph glyph-name="uni1E0D" unicode="&#x1e0d;" horiz-adv-x="674" 
d="M193.5 24q-59.5 36 -93.5 99t-34 140t34 140t93.5 99t131.5 36q70 0 127.5 -34.5t88.5 -92.5v346h45v-757h-45v115q-31 -58 -88.5 -92.5t-127.5 -34.5q-72 0 -131.5 36zM141.5 145.5q27.5 -52.5 75.5 -82.5t108 -30t108.5 30t76.5 82.5t28 117.5t-28 117.5t-76.5 82.5
t-108.5 30t-108 -30t-75.5 -82.5t-27.5 -117.5t27.5 -117.5zM309 -148.5q-12 11.5 -12 28.5t12 28.5t28 11.5t28 -11.5t12 -28.5t-12 -28.5t-28 -11.5t-28 11.5z" />
    <glyph glyph-name="uni1E0E" unicode="&#x1e0e;" horiz-adv-x="744" 
d="M99 745h238q107 0 186.5 -45.5t122.5 -129.5t43 -197t-43 -197t-122.5 -130t-186.5 -46h-238v745zM335 45q90 0 159 41t107 115.5t38 171.5t-38 171t-107 115t-159 41h-186v-655h186zM258 -100h250v-40h-250v40z" />
    <glyph glyph-name="uni1E0F" unicode="&#x1e0f;" horiz-adv-x="674" 
d="M193.5 24q-59.5 36 -93.5 99t-34 140t34 140t93.5 99t131.5 36q70 0 127.5 -34.5t88.5 -92.5v346h45v-757h-45v115q-31 -58 -88.5 -92.5t-127.5 -34.5q-72 0 -131.5 36zM141.5 145.5q27.5 -52.5 75.5 -82.5t108 -30t108.5 30t76.5 82.5t28 117.5t-28 117.5t-76.5 82.5
t-108.5 30t-108 -30t-75.5 -82.5t-27.5 -117.5t27.5 -117.5zM212 -100h250v-40h-250v40z" />
    <glyph glyph-name="uni1E14" unicode="&#x1e14;" horiz-adv-x="614" 
d="M99 745h460v-45h-410v-304h390v-45h-390v-306h410v-45h-460v745zM204 929h250v-40h-250v40zM309 1074l51 -95h-43l-59 95h51z" />
    <glyph glyph-name="uni1E15" unicode="&#x1e15;" horiz-adv-x="627" 
d="M196.5 24.5q-60.5 36.5 -95.5 99.5t-35 139q0 77 33.5 140t92 99t129.5 36q67 0 122 -33t86.5 -90t31.5 -127q0 -16 -3 -39h-447q3 -62 32.5 -112t78.5 -78.5t109 -28.5q57 0 103 27t74 76l38 -20q-29 -58 -87 -91.5t-128 -33.5q-74 0 -134.5 36.5zM515 289
q0 58 -25.5 105t-70 74.5t-98.5 27.5t-100 -27t-75 -74.5t-34 -105.5h403zM189 710h250v-40h-250v40zM294 855l51 -95h-43l-59 95h51z" />
    <glyph glyph-name="uni1E16" unicode="&#x1e16;" horiz-adv-x="614" 
d="M99 745h460v-45h-410v-304h390v-45h-390v-306h410v-45h-460v745zM204 929h250v-40h-250v40zM349 1074h51l-59 -95h-43z" />
    <glyph glyph-name="uni1E17" unicode="&#x1e17;" horiz-adv-x="627" 
d="M196.5 24.5q-60.5 36.5 -95.5 99.5t-35 139q0 77 33.5 140t92 99t129.5 36q67 0 122 -33t86.5 -90t31.5 -127q0 -16 -3 -39h-447q3 -62 32.5 -112t78.5 -78.5t109 -28.5q57 0 103 27t74 76l38 -20q-29 -58 -87 -91.5t-128 -33.5q-74 0 -134.5 36.5zM515 289
q0 58 -25.5 105t-70 74.5t-98.5 27.5t-100 -27t-75 -74.5t-34 -105.5h403zM189 710h250v-40h-250v40zM334 855h51l-59 -95h-43z" />
    <glyph glyph-name="uni1E1C" unicode="&#x1e1c;" horiz-adv-x="614" 
d="M99 745h460v-45h-410v-304h390v-45h-390v-306h410v-45h-460v745zM315 -205q-21 5 -33 13l13 29q34 -13 60 -13q24 0 37.5 12t13.5 32q0 17 -10.5 26.5t-29.5 9.5q-21 0 -44 -13l-20 7l11 102h32l-7 -67q15 6 33 6q31 0 51 -20t20 -50q0 -35 -24 -57t-63 -22q-19 0 -40 5z
M232.5 896q-38.5 37 -38.5 93h40q0 -39 27 -65.5t68 -26.5q40 0 67.5 26.5t27.5 65.5h40q0 -55 -39 -92.5t-96 -37.5q-58 0 -96.5 37z" />
    <glyph glyph-name="uni1E1D" unicode="&#x1e1d;" horiz-adv-x="627" 
d="M329 -12l-6 -55q15 6 33 6q31 0 51 -20t20 -50q0 -35 -24 -57t-63 -22q-19 0 -40 5t-33 13l13 29q34 -13 60 -13q24 0 37.5 12t13.5 32q0 17 -10.5 26.5t-29.5 9.5q-21 0 -44 -13l-20 7l10 92q-66 8 -118.5 46t-82.5 97.5t-30 129.5q0 77 33.5 140t92 99t129.5 36
q67 0 122 -33t86.5 -90t31.5 -127q0 -16 -3 -39h-447q3 -62 32.5 -112t78.5 -78.5t109 -28.5q57 0 103 27t74 76l38 -20q-29 -58 -87 -91.5t-128 -33.5h-2zM515 289q0 58 -25.5 105t-70 74.5t-98.5 27.5t-100 -27t-75 -74.5t-34 -105.5h403zM219 770q0 -39 27 -65.5
t68 -26.5q40 0 67.5 26.5t27.5 65.5h40q0 -55 -39 -92.5t-96 -37.5q-58 0 -96.5 37t-38.5 93h40z" />
    <glyph glyph-name="uni1E20" unicode="&#x1e20;" horiz-adv-x="834" 
d="M249 37q-81 49 -126.5 136.5t-45.5 198.5q0 110 46 198t127.5 137.5t183.5 49.5q73 0 134.5 -26.5t103.5 -68t61 -86.5l-47 -21q-34 72 -99 113t-153 41t-158 -42.5t-109.5 -119.5t-39.5 -175q0 -99 39 -175.5t109 -118.5t158 -42q81 0 145.5 37t101.5 101.5t37 144.5v4
h-283v45h333v-49q0 -90 -42.5 -165.5t-119 -120.5t-172.5 -45q-103 0 -184 49zM292 929h250v-40h-250v40z" />
    <glyph glyph-name="uni1E21" unicode="&#x1e21;" horiz-adv-x="664" 
d="M197.5 -185q-59.5 35 -89.5 90l38 22q30 -50 77.5 -77.5t107.5 -27.5q52 0 97.5 21.5t74 65.5t28.5 109v114q-31 -58 -86.5 -91t-124.5 -33q-72 0 -130 35.5t-91 96.5t-33 133t33 133t91 96.5t130 35.5q69 0 124.5 -33t86.5 -91v112h45v-508q0 -69 -31.5 -123t-87 -84.5
t-126.5 -30.5q-74 0 -133.5 35zM140 162q26 -50 73 -79.5t107 -29.5q59 0 106.5 29t74.5 79.5t27 111.5t-27 111.5t-74.5 79.5t-106.5 29q-60 0 -107 -29.5t-73 -79.5t-26 -111t26 -111zM207 710h250v-40h-250v40z" />
    <glyph glyph-name="uni1E24" unicode="&#x1e24;" horiz-adv-x="738" 
d="M99 745h50v-343h440v343h50v-745h-50v357h-440v-357h-50v745zM341 -148.5q-12 11.5 -12 28.5t12 28.5t28 11.5t28 -11.5t12 -28.5t-12 -28.5t-28 -11.5t-28 11.5z" />
    <glyph glyph-name="uni1E25" unicode="&#x1e25;" 
d="M88 757h45v-308q22 41 65 65t97 24q53 0 98.5 -24.5t72.5 -68.5t27 -100v-345h-45v340q0 46 -21 81.5t-56.5 54.5t-79.5 19q-73 0 -115.5 -50t-42.5 -125v-320h-45v757zM257 -148.5q-12 11.5 -12 28.5t12 28.5t28 11.5t28 -11.5t12 -28.5t-12 -28.5t-28 -11.5t-28 11.5z
" />
    <glyph glyph-name="uni1E2A" unicode="&#x1e2a;" horiz-adv-x="738" 
d="M99 745h50v-343h440v343h50v-745h-50v357h-440v-357h-50v745zM272.5 -173q-38.5 37 -38.5 93h40q0 -39 27 -65.5t68 -26.5q40 0 67.5 26.5t27.5 65.5h40q0 -55 -39 -92.5t-96 -37.5q-58 0 -96.5 37z" />
    <glyph glyph-name="uni1E2B" unicode="&#x1e2b;" 
d="M88 757h45v-308q22 41 65 65t97 24q53 0 98.5 -24.5t72.5 -68.5t27 -100v-345h-45v340q0 46 -21 81.5t-56.5 54.5t-79.5 19q-73 0 -115.5 -50t-42.5 -125v-320h-45v757zM188.5 -173q-38.5 37 -38.5 93h40q0 -39 27 -65.5t68 -26.5q40 0 67.5 26.5t27.5 65.5h40
q0 -55 -39 -92.5t-96 -37.5q-58 0 -96.5 37z" />
    <glyph glyph-name="uni1E2E" unicode="&#x1e2e;" horiz-adv-x="248" 
d="M99 745h50v-745h-50v745zM31 900.5q-12 11.5 -12 28.5t12 28.5t28 11.5t28 -11.5t12 -28.5t-12 -28.5t-28 -11.5t-28 11.5zM148 1094h51l-59 -95h-43zM161 957.5q12 11.5 28 11.5t28 -11.5t12 -28.5t-12 -28.5t-28 -11.5t-28 11.5t-12 28.5t12 28.5z" />
    <glyph glyph-name="uni1E2F" unicode="&#x1e2f;" horiz-adv-x="185" 
d="M70 526h45v-526h-45v526zM-1 681.5q-12 11.5 -12 28.5t12 28.5t28 11.5t28 -11.5t12 -28.5t-12 -28.5t-28 -11.5t-28 11.5zM116 875h51l-59 -95h-43zM129 738.5q12 11.5 28 11.5t28 -11.5t12 -28.5t-12 -28.5t-28 -11.5t-28 11.5t-12 28.5t12 28.5z" />
    <glyph glyph-name="uni1E36" unicode="&#x1e36;" horiz-adv-x="533" 
d="M99 745h50v-700h340v-45h-390v745zM266 -148.5q-12 11.5 -12 28.5t12 28.5t28 11.5t28 -11.5t12 -28.5t-12 -28.5t-28 -11.5t-28 11.5z" />
    <glyph glyph-name="uni1E37" unicode="&#x1e37;" horiz-adv-x="221" 
d="M88 757h45v-757h-45v757zM83 -148.5q-12 11.5 -12 28.5t12 28.5t28 11.5t28 -11.5t12 -28.5t-12 -28.5t-28 -11.5t-28 11.5z" />
    <glyph glyph-name="uni1E3A" unicode="&#x1e3a;" horiz-adv-x="533" 
d="M99 745h50v-700h340v-45h-390v745zM169 -100h250v-40h-250v40z" />
    <glyph glyph-name="uni1E3B" unicode="&#x1e3b;" horiz-adv-x="221" 
d="M88 757h45v-757h-45v757zM-14 -100h250v-40h-250v40z" />
    <glyph glyph-name="uni1E42" unicode="&#x1e42;" horiz-adv-x="818" 
d="M99 745h40l269 -411l271 411h40v-745h-50v645l-259 -399h-2l-259 396v-642h-50v745zM381 -148.5q-12 11.5 -12 28.5t12 28.5t28 11.5t28 -11.5t12 -28.5t-12 -28.5t-28 -11.5t-28 11.5z" />
    <glyph glyph-name="uni1E43" unicode="&#x1e43;" horiz-adv-x="910" 
d="M88 526h45v-77q22 41 64 65t93 24q57 0 105 -30.5t71 -81.5q20 50 68 81t106 31q51 0 95 -24.5t71 -68.5t27 -100v-345h-45v340q0 46 -20.5 81.5t-55.5 54.5t-76 19q-69 0 -111 -50t-42 -125v-320h-45v340q0 46 -20.5 81.5t-55.5 54.5t-76 19q-69 0 -111 -50t-42 -125
v-320h-45v526zM427 -148.5q-12 11.5 -12 28.5t12 28.5t28 11.5t28 -11.5t12 -28.5t-12 -28.5t-28 -11.5t-28 11.5z" />
    <glyph glyph-name="uni1E44" unicode="&#x1e44;" horiz-adv-x="738" 
d="M99 745h40l450 -644v644h50v-745h-40l-450 644v-644h-50v745zM341 900.5q-12 11.5 -12 28.5t12 28.5t28 11.5t28 -11.5t12 -28.5t-12 -28.5t-28 -11.5t-28 11.5z" />
    <glyph glyph-name="uni1E45" unicode="&#x1e45;" 
d="M88 526h45v-77q22 41 65 65t97 24q53 0 98.5 -24.5t72.5 -68.5t27 -100v-345h-45v340q0 46 -21 81.5t-56.5 54.5t-79.5 19q-73 0 -115.5 -50t-42.5 -125v-320h-45v526zM257 681.5q-12 11.5 -12 28.5t12 28.5t28 11.5t28 -11.5t12 -28.5t-12 -28.5t-28 -11.5t-28 11.5z
" />
    <glyph glyph-name="uni1E46" unicode="&#x1e46;" horiz-adv-x="738" 
d="M99 745h40l450 -644v644h50v-745h-40l-450 644v-644h-50v745zM341 -148.5q-12 11.5 -12 28.5t12 28.5t28 11.5t28 -11.5t12 -28.5t-12 -28.5t-28 -11.5t-28 11.5z" />
    <glyph glyph-name="uni1E47" unicode="&#x1e47;" 
d="M88 526h45v-77q22 41 65 65t97 24q53 0 98.5 -24.5t72.5 -68.5t27 -100v-345h-45v340q0 46 -21 81.5t-56.5 54.5t-79.5 19q-73 0 -115.5 -50t-42.5 -125v-320h-45v526zM257 -148.5q-12 11.5 -12 28.5t12 28.5t28 11.5t28 -11.5t12 -28.5t-12 -28.5t-28 -11.5t-28 11.5z
" />
    <glyph glyph-name="uni1E48" unicode="&#x1e48;" horiz-adv-x="738" 
d="M99 745h40l450 -644v644h50v-745h-40l-450 644v-644h-50v745zM244 -100h250v-40h-250v40z" />
    <glyph glyph-name="uni1E49" unicode="&#x1e49;" 
d="M88 526h45v-77q22 41 65 65t97 24q53 0 98.5 -24.5t72.5 -68.5t27 -100v-345h-45v340q0 46 -21 81.5t-56.5 54.5t-79.5 19q-73 0 -115.5 -50t-42.5 -125v-320h-45v526zM160 -100h250v-40h-250v40z" />
    <glyph glyph-name="uni1E4C" unicode="&#x1e4c;" horiz-adv-x="884" 
d="M258.5 37.5q-83.5 49.5 -132.5 137.5t-49 198t49 198t132.5 137t183.5 49q99 0 183 -49.5t133 -137t49 -197.5t-49 -198t-132.5 -137.5t-183.5 -49.5t-183.5 49.5zM167 205q40 -77 112 -123t163 -46t163 46t112 123t40 168q0 90 -40 167t-111.5 123t-163.5 46
q-91 0 -163 -46t-112 -123t-40 -167q0 -91 40 -168zM466.5 895q-12.5 6 -30.5 17q-17 10 -27 15t-22 5q-13 0 -22.5 -10t-11.5 -29h-36q1 34 20.5 55t50.5 21q17 0 29.5 -6t30.5 -17q17 -10 27 -15t22 -5q31 0 34 39h36q-1 -34 -20.5 -55t-50.5 -21q-17 0 -29.5 6zM482 1094
h51l-59 -95h-43z" />
    <glyph glyph-name="uni1E4D" unicode="&#x1e4d;" horiz-adv-x="662" 
d="M196 24q-61 36 -95.5 99t-34.5 140t34.5 140t95.5 99t135 36t135 -36t95.5 -99t34.5 -140t-34.5 -140t-95.5 -99t-135 -36t-135 36zM142.5 145.5q28.5 -53.5 78.5 -84t110 -30.5t110 30.5t78.5 84t28.5 117.5q0 65 -28.5 118t-78 83.5t-110.5 30.5t-110.5 -30.5
t-78 -83.5t-28.5 -118q0 -64 28.5 -117.5zM355.5 676q-12.5 6 -30.5 17q-17 10 -27 15t-22 5q-13 0 -22.5 -10t-11.5 -29h-36q1 34 20.5 55t50.5 21q17 0 29.5 -6t30.5 -17q17 -10 27 -15t22 -5q31 0 34 39h36q-1 -34 -20.5 -55t-50.5 -21q-17 0 -29.5 6zM371 875h51
l-59 -95h-43z" />
    <glyph glyph-name="uni1E4E" unicode="&#x1e4e;" horiz-adv-x="884" 
d="M258.5 37.5q-83.5 49.5 -132.5 137.5t-49 198t49 198t132.5 137t183.5 49q99 0 183 -49.5t133 -137t49 -197.5t-49 -198t-132.5 -137.5t-183.5 -49.5t-183.5 49.5zM167 205q40 -77 112 -123t163 -46t163 46t112 123t40 168q0 90 -40 167t-111.5 123t-163.5 46
q-91 0 -163 -46t-112 -123t-40 -167q0 -91 40 -168zM466.5 895q-12.5 6 -30.5 17q-17 10 -27 15t-22 5q-13 0 -22.5 -10t-11.5 -29h-36q1 34 20.5 55t50.5 21q17 0 29.5 -6t30.5 -17q17 -10 27 -15t22 -5q31 0 34 39h36q-1 -34 -20.5 -55t-50.5 -21q-17 0 -29.5 6z
M349 1077.5q12 11.5 28 11.5t28 -11.5t12 -28.5t-12 -28.5t-28 -11.5t-28 11.5t-12 28.5t12 28.5zM479 1077.5q12 11.5 28 11.5t28 -11.5t12 -28.5t-12 -28.5t-28 -11.5t-28 11.5t-12 28.5t12 28.5z" />
    <glyph glyph-name="uni1E4F" unicode="&#x1e4f;" horiz-adv-x="662" 
d="M196 24q-61 36 -95.5 99t-34.5 140t34.5 140t95.5 99t135 36t135 -36t95.5 -99t34.5 -140t-34.5 -140t-95.5 -99t-135 -36t-135 36zM142.5 145.5q28.5 -53.5 78.5 -84t110 -30.5t110 30.5t78.5 84t28.5 117.5q0 65 -28.5 118t-78 83.5t-110.5 30.5t-110.5 -30.5
t-78 -83.5t-28.5 -118q0 -64 28.5 -117.5zM355.5 676q-12.5 6 -30.5 17q-17 10 -27 15t-22 5q-13 0 -22.5 -10t-11.5 -29h-36q1 34 20.5 55t50.5 21q17 0 29.5 -6t30.5 -17q17 -10 27 -15t22 -5q31 0 34 39h36q-1 -34 -20.5 -55t-50.5 -21q-17 0 -29.5 6zM238 858.5
q12 11.5 28 11.5t28 -11.5t12 -28.5t-12 -28.5t-28 -11.5t-28 11.5t-12 28.5t12 28.5zM368 858.5q12 11.5 28 11.5t28 -11.5t12 -28.5t-12 -28.5t-28 -11.5t-28 11.5t-12 28.5t12 28.5z" />
    <glyph glyph-name="uni1E50" unicode="&#x1e50;" horiz-adv-x="884" 
d="M258.5 37.5q-83.5 49.5 -132.5 137.5t-49 198t49 198t132.5 137t183.5 49q99 0 183 -49.5t133 -137t49 -197.5t-49 -198t-132.5 -137.5t-183.5 -49.5t-183.5 49.5zM167 205q40 -77 112 -123t163 -46t163 46t112 123t40 168q0 90 -40 167t-111.5 123t-163.5 46
q-91 0 -163 -46t-112 -123t-40 -167q0 -91 40 -168zM317 929h250v-40h-250v40zM422 1074l51 -95h-43l-59 95h51z" />
    <glyph glyph-name="uni1E51" unicode="&#x1e51;" horiz-adv-x="662" 
d="M196 24q-61 36 -95.5 99t-34.5 140t34.5 140t95.5 99t135 36t135 -36t95.5 -99t34.5 -140t-34.5 -140t-95.5 -99t-135 -36t-135 36zM142.5 145.5q28.5 -53.5 78.5 -84t110 -30.5t110 30.5t78.5 84t28.5 117.5q0 65 -28.5 118t-78 83.5t-110.5 30.5t-110.5 -30.5
t-78 -83.5t-28.5 -118q0 -64 28.5 -117.5zM206 710h250v-40h-250v40zM311 855l51 -95h-43l-59 95h51z" />
    <glyph glyph-name="uni1E52" unicode="&#x1e52;" horiz-adv-x="884" 
d="M258.5 37.5q-83.5 49.5 -132.5 137.5t-49 198t49 198t132.5 137t183.5 49q99 0 183 -49.5t133 -137t49 -197.5t-49 -198t-132.5 -137.5t-183.5 -49.5t-183.5 49.5zM167 205q40 -77 112 -123t163 -46t163 46t112 123t40 168q0 90 -40 167t-111.5 123t-163.5 46
q-91 0 -163 -46t-112 -123t-40 -167q0 -91 40 -168zM317 929h250v-40h-250v40zM462 1074h51l-59 -95h-43z" />
    <glyph glyph-name="uni1E53" unicode="&#x1e53;" horiz-adv-x="662" 
d="M196 24q-61 36 -95.5 99t-34.5 140t34.5 140t95.5 99t135 36t135 -36t95.5 -99t34.5 -140t-34.5 -140t-95.5 -99t-135 -36t-135 36zM142.5 145.5q28.5 -53.5 78.5 -84t110 -30.5t110 30.5t78.5 84t28.5 117.5q0 65 -28.5 118t-78 83.5t-110.5 30.5t-110.5 -30.5
t-78 -83.5t-28.5 -118q0 -64 28.5 -117.5zM206 710h250v-40h-250v40zM351 855h51l-59 -95h-43z" />
    <glyph glyph-name="uni1E5A" unicode="&#x1e5a;" horiz-adv-x="635" 
d="M99 745h244q69 0 122.5 -28t83.5 -79t30 -116q0 -80 -45 -137.5t-121 -76.5l178 -308h-59l-171 300h-212v-300h-50v745zM343 345q54 0 96.5 22.5t66 63t23.5 92.5t-23.5 92t-66 62.5t-96.5 22.5h-194v-355h194zM284 -148.5q-12 11.5 -12 28.5t12 28.5t28 11.5t28 -11.5
t12 -28.5t-12 -28.5t-28 -11.5t-28 11.5z" />
    <glyph glyph-name="uni1E5B" unicode="&#x1e5b;" horiz-adv-x="340" 
d="M88 526h45v-76q21 39 61 60.5t91 21.5h33v-45h-34q-71 0 -111 -46.5t-40 -120.5v-320h-45v526zM83 -148.5q-12 11.5 -12 28.5t12 28.5t28 11.5t28 -11.5t12 -28.5t-12 -28.5t-28 -11.5t-28 11.5z" />
    <glyph glyph-name="uni1E5E" unicode="&#x1e5e;" horiz-adv-x="635" 
d="M99 745h244q69 0 122.5 -28t83.5 -79t30 -116q0 -80 -45 -137.5t-121 -76.5l178 -308h-59l-171 300h-212v-300h-50v745zM343 345q54 0 96.5 22.5t66 63t23.5 92.5t-23.5 92t-66 62.5t-96.5 22.5h-194v-355h194zM187 -100h250v-40h-250v40z" />
    <glyph glyph-name="uni1E5F" unicode="&#x1e5f;" horiz-adv-x="340" 
d="M88 526h45v-76q21 39 61 60.5t91 21.5h33v-45h-34q-71 0 -111 -46.5t-40 -120.5v-320h-45v526zM-14 -100h250v-40h-250v40z" />
    <glyph glyph-name="uni1E60" unicode="&#x1e60;" horiz-adv-x="639" 
d="M209 14q-55 26 -91 68t-52 92l45 14q29 -76 85.5 -116.5t134.5 -40.5q81 0 132 41t51 112q0 57 -33 91.5t-85 49.5l-139 40q-82 24 -121 75.5t-39 122.5q0 56 28 100.5t76.5 69t107.5 24.5t109.5 -24t85 -63.5t49.5 -86.5l-45 -14q-26 70 -78.5 107.5t-119.5 37.5
q-71 0 -118 -42t-47 -110q0 -57 30 -92t104 -58l126 -38q74 -22 115.5 -72t41.5 -119q0 -57 -30 -101t-82.5 -69t-117.5 -25q-68 0 -123 26zM292 900.5q-12 11.5 -12 28.5t12 28.5t28 11.5t28 -11.5t12 -28.5t-12 -28.5t-28 -11.5t-28 11.5z" />
    <glyph glyph-name="uni1E61" unicode="&#x1e61;" horiz-adv-x="506" 
d="M139.5 21.5q-53.5 33.5 -81.5 93.5l41 19q26 -49 68.5 -76t93.5 -27q58 0 96 29t38 74q0 37 -25 62t-72 37l-88 22q-64 16 -97 52t-33 89q0 41 21.5 73.5t58.5 50.5t82 18q63 0 115 -31.5t73 -83.5l-43 -21q-22 44 -60 68.5t-84 24.5q-51 0 -84 -28t-33 -71
q0 -34 23 -57.5t67 -34.5l89 -23q66 -16 101.5 -54.5t35.5 -91.5q0 -42 -23.5 -75.5t-65 -52.5t-91.5 -19q-69 0 -122.5 33.5zM225 681.5q-12 11.5 -12 28.5t12 28.5t28 11.5t28 -11.5t12 -28.5t-12 -28.5t-28 -11.5t-28 11.5z" />
    <glyph glyph-name="uni1E62" unicode="&#x1e62;" horiz-adv-x="639" 
d="M209 14q-55 26 -91 68t-52 92l45 14q29 -76 85.5 -116.5t134.5 -40.5q81 0 132 41t51 112q0 57 -33 91.5t-85 49.5l-139 40q-82 24 -121 75.5t-39 122.5q0 56 28 100.5t76.5 69t107.5 24.5t109.5 -24t85 -63.5t49.5 -86.5l-45 -14q-26 70 -78.5 107.5t-119.5 37.5
q-71 0 -118 -42t-47 -110q0 -57 30 -92t104 -58l126 -38q74 -22 115.5 -72t41.5 -119q0 -57 -30 -101t-82.5 -69t-117.5 -25q-68 0 -123 26zM292 -148.5q-12 11.5 -12 28.5t12 28.5t28 11.5t28 -11.5t12 -28.5t-12 -28.5t-28 -11.5t-28 11.5z" />
    <glyph glyph-name="uni1E63" unicode="&#x1e63;" horiz-adv-x="506" 
d="M139.5 21.5q-53.5 33.5 -81.5 93.5l41 19q26 -49 68.5 -76t93.5 -27q58 0 96 29t38 74q0 37 -25 62t-72 37l-88 22q-64 16 -97 52t-33 89q0 41 21.5 73.5t58.5 50.5t82 18q63 0 115 -31.5t73 -83.5l-43 -21q-22 44 -60 68.5t-84 24.5q-51 0 -84 -28t-33 -71
q0 -34 23 -57.5t67 -34.5l89 -23q66 -16 101.5 -54.5t35.5 -91.5q0 -42 -23.5 -75.5t-65 -52.5t-91.5 -19q-69 0 -122.5 33.5zM225 -148.5q-12 11.5 -12 28.5t12 28.5t28 11.5t28 -11.5t12 -28.5t-12 -28.5t-28 -11.5t-28 11.5z" />
    <glyph glyph-name="uni1E64" unicode="&#x1e64;" horiz-adv-x="639" 
d="M209 14q-55 26 -91 68t-52 92l45 14q29 -76 85.5 -116.5t134.5 -40.5q81 0 132 41t51 112q0 57 -33 91.5t-85 49.5l-139 40q-82 24 -121 75.5t-39 122.5q0 56 28 100.5t76.5 69t107.5 24.5t109.5 -24t85 -63.5t49.5 -86.5l-45 -14q-26 70 -78.5 107.5t-119.5 37.5
q-71 0 -118 -42t-47 -110q0 -57 30 -92t104 -58l126 -38q74 -22 115.5 -72t41.5 -119q0 -57 -30 -101t-82.5 -69t-117.5 -25q-68 0 -123 26zM291 900.5q-12 11.5 -12 28.5t12 28.5t28 11.5t28 -11.5t12 -28.5t-12 -28.5t-28 -11.5t-28 11.5zM348 1094h51l-59 -95h-43z" />
    <glyph glyph-name="uni1E65" unicode="&#x1e65;" horiz-adv-x="506" 
d="M139.5 21.5q-53.5 33.5 -81.5 93.5l41 19q26 -49 68.5 -76t93.5 -27q58 0 96 29t38 74q0 37 -25 62t-72 37l-88 22q-64 16 -97 52t-33 89q0 41 21.5 73.5t58.5 50.5t82 18q63 0 115 -31.5t73 -83.5l-43 -21q-22 44 -60 68.5t-84 24.5q-51 0 -84 -28t-33 -71
q0 -34 23 -57.5t67 -34.5l89 -23q66 -16 101.5 -54.5t35.5 -91.5q0 -42 -23.5 -75.5t-65 -52.5t-91.5 -19q-69 0 -122.5 33.5zM224 681.5q-12 11.5 -12 28.5t12 28.5t28 11.5t28 -11.5t12 -28.5t-12 -28.5t-28 -11.5t-28 11.5zM281 875h51l-59 -95h-43z" />
    <glyph glyph-name="uni1E66" unicode="&#x1e66;" horiz-adv-x="639" 
d="M209 14q-55 26 -91 68t-52 92l45 14q29 -76 85.5 -116.5t134.5 -40.5q81 0 132 41t51 112q0 57 -33 91.5t-85 49.5l-139 40q-82 24 -121 75.5t-39 122.5q0 56 28 100.5t76.5 69t107.5 24.5t109.5 -24t85 -63.5t49.5 -86.5l-45 -14q-26 70 -78.5 107.5t-119.5 37.5
q-71 0 -118 -42t-47 -110q0 -57 30 -92t104 -58l126 -38q74 -22 115.5 -72t41.5 -119q0 -57 -30 -101t-82.5 -69t-117.5 -25q-68 0 -123 26zM175 1003h46l98 -111l100 111h46l-126 -144h-40zM292 1070.5q12 11.5 28 11.5t28 -11.5t12 -28.5t-12 -28.5t-28 -11.5t-28 11.5
t-12 28.5t12 28.5z" />
    <glyph glyph-name="uni1E67" unicode="&#x1e67;" horiz-adv-x="506" 
d="M139.5 21.5q-53.5 33.5 -81.5 93.5l41 19q26 -49 68.5 -76t93.5 -27q58 0 96 29t38 74q0 37 -25 62t-72 37l-88 22q-64 16 -97 52t-33 89q0 41 21.5 73.5t58.5 50.5t82 18q63 0 115 -31.5t73 -83.5l-43 -21q-22 44 -60 68.5t-84 24.5q-51 0 -84 -28t-33 -71
q0 -34 23 -57.5t67 -34.5l89 -23q66 -16 101.5 -54.5t35.5 -91.5q0 -42 -23.5 -75.5t-65 -52.5t-91.5 -19q-69 0 -122.5 33.5zM108 784h46l98 -111l100 111h46l-126 -144h-40zM225 851.5q12 11.5 28 11.5t28 -11.5t12 -28.5t-12 -28.5t-28 -11.5t-28 11.5t-12 28.5t12 28.5z
" />
    <glyph glyph-name="uni1E68" unicode="&#x1e68;" horiz-adv-x="639" 
d="M209 14q-55 26 -91 68t-52 92l45 14q29 -76 85.5 -116.5t134.5 -40.5q81 0 132 41t51 112q0 57 -33 91.5t-85 49.5l-139 40q-82 24 -121 75.5t-39 122.5q0 56 28 100.5t76.5 69t107.5 24.5t109.5 -24t85 -63.5t49.5 -86.5l-45 -14q-26 70 -78.5 107.5t-119.5 37.5
q-71 0 -118 -42t-47 -110q0 -57 30 -92t104 -58l126 -38q74 -22 115.5 -72t41.5 -119q0 -57 -30 -101t-82.5 -69t-117.5 -25q-68 0 -123 26zM292 -148.5q-12 11.5 -12 28.5t12 28.5t28 11.5t28 -11.5t12 -28.5t-12 -28.5t-28 -11.5t-28 11.5zM292 900.5q-12 11.5 -12 28.5
t12 28.5t28 11.5t28 -11.5t12 -28.5t-12 -28.5t-28 -11.5t-28 11.5z" />
    <glyph glyph-name="uni1E69" unicode="&#x1e69;" horiz-adv-x="506" 
d="M139.5 21.5q-53.5 33.5 -81.5 93.5l41 19q26 -49 68.5 -76t93.5 -27q58 0 96 29t38 74q0 37 -25 62t-72 37l-88 22q-64 16 -97 52t-33 89q0 41 21.5 73.5t58.5 50.5t82 18q63 0 115 -31.5t73 -83.5l-43 -21q-22 44 -60 68.5t-84 24.5q-51 0 -84 -28t-33 -71
q0 -34 23 -57.5t67 -34.5l89 -23q66 -16 101.5 -54.5t35.5 -91.5q0 -42 -23.5 -75.5t-65 -52.5t-91.5 -19q-69 0 -122.5 33.5zM225 -148.5q-12 11.5 -12 28.5t12 28.5t28 11.5t28 -11.5t12 -28.5t-12 -28.5t-28 -11.5t-28 11.5zM225 681.5q-12 11.5 -12 28.5t12 28.5
t28 11.5t28 -11.5t12 -28.5t-12 -28.5t-28 -11.5t-28 11.5z" />
    <glyph glyph-name="uni1E6C" unicode="&#x1e6c;" horiz-adv-x="514" 
d="M233 700h-211v45h470v-45h-209v-700h-50v700zM229 -148.5q-12 11.5 -12 28.5t12 28.5t28 11.5t28 -11.5t12 -28.5t-12 -28.5t-28 -11.5t-28 11.5z" />
    <glyph glyph-name="uni1E6D" unicode="&#x1e6d;" horiz-adv-x="379" 
d="M175.5 27.5q-32.5 33.5 -32.5 98.5v360h-100v40h50q26 0 38 13t12 41v70h45v-124h114v-40h-114v-360q0 -89 86 -89q24 0 39 3v-41q-17 -5 -43 -5q-62 0 -94.5 33.5zM212 -148.5q-12 11.5 -12 28.5t12 28.5t28 11.5t28 -11.5t12 -28.5t-12 -28.5t-28 -11.5t-28 11.5z" />
    <glyph glyph-name="uni1E6E" unicode="&#x1e6e;" horiz-adv-x="514" 
d="M233 700h-211v45h470v-45h-209v-700h-50v700zM132 -100h250v-40h-250v40z" />
    <glyph glyph-name="uni1E6F" unicode="&#x1e6f;" horiz-adv-x="379" 
d="M175.5 27.5q-32.5 33.5 -32.5 98.5v360h-100v40h50q26 0 38 13t12 41v70h45v-124h114v-40h-114v-360q0 -89 86 -89q24 0 39 3v-41q-17 -5 -43 -5q-62 0 -94.5 33.5zM115 -100h250v-40h-250v40z" />
    <glyph glyph-name="uni1E78" unicode="&#x1e78;" horiz-adv-x="690" 
d="M214.5 21q-56.5 33 -88 92.5t-31.5 137.5v494h50v-498q0 -62 25 -111t70.5 -76t104.5 -27t104.5 27t70.5 76t25 111v498h50v-494q0 -78 -31.5 -137.5t-88 -92.5t-130.5 -33t-130.5 33zM369.5 895q-12.5 6 -30.5 17q-17 10 -27 15t-22 5q-13 0 -22.5 -10t-11.5 -29h-36
q1 34 20.5 55t50.5 21q17 0 29.5 -6t30.5 -17q17 -10 27 -15t22 -5q31 0 34 39h36q-1 -34 -20.5 -55t-50.5 -21q-17 0 -29.5 6zM385 1094h51l-59 -95h-43z" />
    <glyph glyph-name="uni1E79" unicode="&#x1e79;" 
d="M176.5 11.5q-45.5 23.5 -72.5 68.5t-27 106v340h45v-340q0 -73 45 -114t112 -41q74 0 116 49.5t42 125.5v320h45v-526h-45v77q-22 -41 -65 -65t-97 -24q-53 0 -98.5 23.5zM309.5 676q-12.5 6 -30.5 17q-17 10 -27 15t-22 5q-13 0 -22.5 -10t-11.5 -29h-36q1 34 20.5 55
t50.5 21q17 0 29.5 -6t30.5 -17q17 -10 27 -15t22 -5q31 0 34 39h36q-1 -34 -20.5 -55t-50.5 -21q-17 0 -29.5 6zM325 875h51l-59 -95h-43z" />
    <glyph glyph-name="uni1E7A" unicode="&#x1e7a;" horiz-adv-x="690" 
d="M214.5 21q-56.5 33 -88 92.5t-31.5 137.5v494h50v-498q0 -62 25 -111t70.5 -76t104.5 -27t104.5 27t70.5 76t25 111v498h50v-494q0 -78 -31.5 -137.5t-88 -92.5t-130.5 -33t-130.5 33zM220 929h250v-40h-250v40zM252 1047.5q12 11.5 28 11.5t28 -11.5t12 -28.5t-12 -28.5
t-28 -11.5t-28 11.5t-12 28.5t12 28.5zM382 1047.5q12 11.5 28 11.5t28 -11.5t12 -28.5t-12 -28.5t-28 -11.5t-28 11.5t-12 28.5t12 28.5z" />
    <glyph glyph-name="uni1E7B" unicode="&#x1e7b;" 
d="M176.5 11.5q-45.5 23.5 -72.5 68.5t-27 106v340h45v-340q0 -73 45 -114t112 -41q74 0 116 49.5t42 125.5v320h45v-526h-45v77q-22 -41 -65 -65t-97 -24q-53 0 -98.5 23.5zM160 710h250v-40h-250v40zM192 828.5q12 11.5 28 11.5t28 -11.5t12 -28.5t-12 -28.5t-28 -11.5
t-28 11.5t-12 28.5t12 28.5zM322 828.5q12 11.5 28 11.5t28 -11.5t12 -28.5t-12 -28.5t-28 -11.5t-28 11.5t-12 28.5t12 28.5z" />
    <glyph glyph-name="Wgrave" unicode="&#x1e80;" horiz-adv-x="988" 
d="M22 745h54l193 -657l201 657h48l201 -657l193 657h54l-223 -745h-48l-201 660l-201 -660h-48zM383 1003h52l78 -144h-39z" />
    <glyph glyph-name="wgrave" unicode="&#x1e81;" horiz-adv-x="769" 
d="M22 526h50l154 -459l134 459h48l134 -458l155 458h50l-181 -526h-48l-134 455l-134 -455h-48zM274 784h52l78 -144h-39z" />
    <glyph glyph-name="Wacute" unicode="&#x1e82;" horiz-adv-x="988" 
d="M22 745h54l193 -657l201 657h48l201 -657l193 657h54l-223 -745h-48l-201 660l-201 -660h-48zM552 1003h52l-91 -144h-39z" />
    <glyph glyph-name="wacute" unicode="&#x1e83;" horiz-adv-x="769" 
d="M22 526h50l154 -459l134 459h48l134 -458l155 458h50l-181 -526h-48l-134 455l-134 -455h-48zM443 784h52l-91 -144h-39z" />
    <glyph glyph-name="Wdieresis" unicode="&#x1e84;" horiz-adv-x="988" 
d="M22 745h54l193 -657l201 657h48l201 -657l193 657h54l-223 -745h-48l-201 660l-201 -660h-48zM401 900.5q-12 11.5 -12 28.5t12 28.5t28 11.5t28 -11.5t12 -28.5t-12 -28.5t-28 -11.5t-28 11.5zM531 957.5q12 11.5 28 11.5t28 -11.5t12 -28.5t-12 -28.5t-28 -11.5
t-28 11.5t-12 28.5t12 28.5z" />
    <glyph glyph-name="wdieresis" unicode="&#x1e85;" horiz-adv-x="769" 
d="M22 526h50l154 -459l134 459h48l134 -458l155 458h50l-181 -526h-48l-134 455l-134 -455h-48zM292 681.5q-12 11.5 -12 28.5t12 28.5t28 11.5t28 -11.5t12 -28.5t-12 -28.5t-28 -11.5t-28 11.5zM422 738.5q12 11.5 28 11.5t28 -11.5t12 -28.5t-12 -28.5t-28 -11.5
t-28 11.5t-12 28.5t12 28.5z" />
    <glyph glyph-name="uni1E8E" unicode="&#x1e8e;" horiz-adv-x="624" 
d="M287 333l-265 412h57l234 -356l232 356h57l-265 -412v-333h-50v333zM284 900.5q-12 11.5 -12 28.5t12 28.5t28 11.5t28 -11.5t12 -28.5t-12 -28.5t-28 -11.5t-28 11.5z" />
    <glyph glyph-name="uni1E8F" unicode="&#x1e8f;" horiz-adv-x="529" 
d="M237 681.5q-12 11.5 -12 28.5t12 28.5t28 11.5t28 -11.5t12 -28.5t-12 -28.5t-28 -11.5t-28 11.5z" />
    <glyph glyph-name="uni1E92" unicode="&#x1e92;" horiz-adv-x="606" 
d="M33 30l462 670h-435v45h503v-30l-461 -670h471v-45h-540v30zM275 -148.5q-12 11.5 -12 28.5t12 28.5t28 11.5t28 -11.5t12 -28.5t-12 -28.5t-28 -11.5t-28 11.5z" />
    <glyph glyph-name="uni1E93" unicode="&#x1e93;" horiz-adv-x="435" 
d="M33 30l316 456h-297v40h358v-30l-317 -456h320v-40h-380v30zM190 -148.5q-12 11.5 -12 28.5t12 28.5t28 11.5t28 -11.5t12 -28.5t-12 -28.5t-28 -11.5t-28 11.5z" />
    <glyph glyph-name="uni1E97" unicode="&#x1e97;" horiz-adv-x="379" 
d="M175.5 27.5q-32.5 33.5 -32.5 98.5v360h-100v40h50q26 0 38 13t12 41v70h45v-124h114v-40h-114v-360q0 -89 86 -89q24 0 39 3v-41q-17 -5 -43 -5q-62 0 -94.5 33.5zM73 805.5q-12 11.5 -12 28.5t12 28.5t28 11.5t28 -11.5t12 -28.5t-12 -28.5t-28 -11.5t-28 11.5z
M203 862.5q12 11.5 28 11.5t28 -11.5t12 -28.5t-12 -28.5t-28 -11.5t-28 11.5t-12 28.5t12 28.5z" />
    <glyph glyph-name="uni1E9E" unicode="&#x1e9e;" horiz-adv-x="1278" 
d="M209 14q-55 26 -91 68t-52 92l45 14q29 -76 85.5 -116.5t134.5 -40.5q81 0 132 41t51 112q0 57 -33 91.5t-85 49.5l-139 40q-82 24 -121 75.5t-39 122.5q0 56 28 100.5t76.5 69t107.5 24.5t109.5 -24t85 -63.5t49.5 -86.5l-45 -14q-26 70 -78.5 107.5t-119.5 37.5
q-71 0 -118 -42t-47 -110q0 -57 30 -92t104 -58l126 -38q74 -22 115.5 -72t41.5 -119q0 -57 -30 -101t-82.5 -69t-117.5 -25q-68 0 -123 26zM848 14q-55 26 -91 68t-52 92l45 14q29 -76 85.5 -116.5t134.5 -40.5q81 0 132 41t51 112q0 57 -33 91.5t-85 49.5l-139 40
q-82 24 -121 75.5t-39 122.5q0 56 28 100.5t76.5 69t107.5 24.5t109.5 -24t85 -63.5t49.5 -86.5l-45 -14q-26 70 -78.5 107.5t-119.5 37.5q-71 0 -118 -42t-47 -110q0 -57 30 -92t104 -58l126 -38q74 -22 115.5 -72t41.5 -119q0 -57 -30 -101t-82.5 -69t-117.5 -25
q-68 0 -123 26z" />
    <glyph glyph-name="uni1EA0" unicode="&#x1ea0;" horiz-adv-x="644" 
d="M298 745h48l276 -745h-55l-72 197h-346l-72 -197h-55zM479 242l-157 429l-157 -429h314zM294 -148.5q-12 11.5 -12 28.5t12 28.5t28 11.5t28 -11.5t12 -28.5t-12 -28.5t-28 -11.5t-28 11.5z" />
    <glyph glyph-name="uni1EA1" unicode="&#x1ea1;" horiz-adv-x="574" 
d="M115 29q-49 41 -49 107q0 60 41 104t130 59l204 34v32q0 59 -40.5 94.5t-107.5 35.5q-51 0 -94 -24.5t-67 -66.5l-40 21q24 47 79 80t122 33q56 0 100 -22t68.5 -61.5t24.5 -89.5v-365h-45v106q-24 -49 -79.5 -83.5t-124.5 -34.5q-73 0 -122 41zM148.5 59.5
q36.5 -29.5 92.5 -29.5q59 0 104.5 28.5t70.5 76t25 103.5v52l-189 -31q-74 -12 -107 -44t-33 -77q0 -49 36.5 -78.5zM259 -148.5q-12 11.5 -12 28.5t12 28.5t28 11.5t28 -11.5t12 -28.5t-12 -28.5t-28 -11.5t-28 11.5z" />
    <glyph glyph-name="uni1EA2" unicode="&#x1ea2;" horiz-adv-x="644" 
d="M298 745h48l276 -745h-55l-72 197h-346l-72 -197h-55zM479 242l-157 429l-157 -429h314zM336.5 846.5q19.5 20.5 19.5 42.5q0 25 -17.5 39t-46.5 14q-24 0 -44 -8v31q19 9 54 9q43 0 68.5 -21t25.5 -56q0 -66 -99 -108l-11 24q31 13 50.5 33.5z" />
    <glyph glyph-name="uni1EA3" unicode="&#x1ea3;" horiz-adv-x="574" 
d="M115 29q-49 41 -49 107q0 60 41 104t130 59l204 34v32q0 59 -40.5 94.5t-107.5 35.5q-51 0 -94 -24.5t-67 -66.5l-40 21q24 47 79 80t122 33q56 0 100 -22t68.5 -61.5t24.5 -89.5v-365h-45v106q-24 -49 -79.5 -83.5t-124.5 -34.5q-73 0 -122 41zM148.5 59.5
q36.5 -29.5 92.5 -29.5q59 0 104.5 28.5t70.5 76t25 103.5v52l-189 -31q-74 -12 -107 -44t-33 -77q0 -49 36.5 -78.5zM301.5 627.5q19.5 20.5 19.5 42.5q0 25 -17.5 39t-46.5 14q-24 0 -44 -8v31q19 9 54 9q43 0 68.5 -21t25.5 -56q0 -66 -99 -108l-11 24q31 13 50.5 33.5z
" />
    <glyph glyph-name="uni1EA4" unicode="&#x1ea4;" horiz-adv-x="644" 
d="M298 745h48l276 -745h-55l-72 197h-346l-72 -197h-55zM479 242l-157 429l-157 -429h314zM301 1003h40l126 -144h-46l-100 111l-98 -111h-46zM432 1078h51l-59 -95h-43z" />
    <glyph glyph-name="uni1EA5" unicode="&#x1ea5;" horiz-adv-x="574" 
d="M115 29q-49 41 -49 107q0 60 41 104t130 59l204 34v32q0 59 -40.5 94.5t-107.5 35.5q-51 0 -94 -24.5t-67 -66.5l-40 21q24 47 79 80t122 33q56 0 100 -22t68.5 -61.5t24.5 -89.5v-365h-45v106q-24 -49 -79.5 -83.5t-124.5 -34.5q-73 0 -122 41zM148.5 59.5
q36.5 -29.5 92.5 -29.5q59 0 104.5 28.5t70.5 76t25 103.5v52l-189 -31q-74 -12 -107 -44t-33 -77q0 -49 36.5 -78.5zM266 784h40l126 -144h-46l-100 111l-98 -111h-46zM397 859h51l-59 -95h-43z" />
    <glyph glyph-name="uni1EA6" unicode="&#x1ea6;" horiz-adv-x="644" 
d="M298 745h48l276 -745h-55l-72 197h-346l-72 -197h-55zM479 242l-157 429l-157 -429h314zM301 1003h40l126 -144h-46l-100 111l-98 -111h-46zM392 1078l51 -95h-43l-59 95h51z" />
    <glyph glyph-name="uni1EA7" unicode="&#x1ea7;" horiz-adv-x="574" 
d="M115 29q-49 41 -49 107q0 60 41 104t130 59l204 34v32q0 59 -40.5 94.5t-107.5 35.5q-51 0 -94 -24.5t-67 -66.5l-40 21q24 47 79 80t122 33q56 0 100 -22t68.5 -61.5t24.5 -89.5v-365h-45v106q-24 -49 -79.5 -83.5t-124.5 -34.5q-73 0 -122 41zM148.5 59.5
q36.5 -29.5 92.5 -29.5q59 0 104.5 28.5t70.5 76t25 103.5v52l-189 -31q-74 -12 -107 -44t-33 -77q0 -49 36.5 -78.5zM266 784h40l126 -144h-46l-100 111l-98 -111h-46zM357 859l51 -95h-43l-59 95h51z" />
    <glyph glyph-name="uni1EA8" unicode="&#x1ea8;" horiz-adv-x="644" 
d="M298 745h48l276 -745h-55l-72 197h-346l-72 -197h-55zM479 242l-157 429l-157 -429h314zM301 1003h40l126 -144h-46l-100 111l-98 -111h-46zM363 1135q19 9 54 9q43 0 68.5 -21t25.5 -56q0 -66 -99 -108l-11 24q31 13 50.5 33.5t19.5 42.5q0 25 -17.5 39t-46.5 14
q-24 0 -44 -8v31z" />
    <glyph glyph-name="uni1EA9" unicode="&#x1ea9;" horiz-adv-x="574" 
d="M115 29q-49 41 -49 107q0 60 41 104t130 59l204 34v32q0 59 -40.5 94.5t-107.5 35.5q-51 0 -94 -24.5t-67 -66.5l-40 21q24 47 79 80t122 33q56 0 100 -22t68.5 -61.5t24.5 -89.5v-365h-45v106q-24 -49 -79.5 -83.5t-124.5 -34.5q-73 0 -122 41zM148.5 59.5
q36.5 -29.5 92.5 -29.5q59 0 104.5 28.5t70.5 76t25 103.5v52l-189 -31q-74 -12 -107 -44t-33 -77q0 -49 36.5 -78.5zM266 784h40l126 -144h-46l-100 111l-98 -111h-46zM328 916q19 9 54 9q43 0 68.5 -21t25.5 -56q0 -66 -99 -108l-11 24q31 13 50.5 33.5t19.5 42.5
q0 25 -17.5 39t-46.5 14q-24 0 -44 -8v31z" />
    <glyph glyph-name="uni1EAA" unicode="&#x1eaa;" horiz-adv-x="644" 
d="M298 745h48l276 -745h-55l-72 197h-346l-72 -197h-55zM479 242l-157 429l-157 -429h314zM301 1003h40l126 -144h-46l-100 111l-98 -111h-46zM217.5 1108q19.5 21 50.5 21q17 0 29.5 -6t30.5 -17q17 -10 27 -15t22 -5q31 0 34 39h36q-1 -34 -20.5 -55t-50.5 -21
q-17 0 -29.5 6t-30.5 17q-17 10 -27 15t-22 5q-13 0 -22.5 -10t-11.5 -29h-36q1 34 20.5 55z" />
    <glyph glyph-name="uni1EAB" unicode="&#x1eab;" horiz-adv-x="574" 
d="M115 29q-49 41 -49 107q0 60 41 104t130 59l204 34v32q0 59 -40.5 94.5t-107.5 35.5q-51 0 -94 -24.5t-67 -66.5l-40 21q24 47 79 80t122 33q56 0 100 -22t68.5 -61.5t24.5 -89.5v-365h-45v106q-24 -49 -79.5 -83.5t-124.5 -34.5q-73 0 -122 41zM148.5 59.5
q36.5 -29.5 92.5 -29.5q59 0 104.5 28.5t70.5 76t25 103.5v52l-189 -31q-74 -12 -107 -44t-33 -77q0 -49 36.5 -78.5zM266 784h40l126 -144h-46l-100 111l-98 -111h-46zM182.5 889q19.5 21 50.5 21q17 0 29.5 -6t30.5 -17q17 -10 27 -15t22 -5q31 0 34 39h36
q-1 -34 -20.5 -55t-50.5 -21q-17 0 -29.5 6t-30.5 17q-17 10 -27 15t-22 5q-13 0 -22.5 -10t-11.5 -29h-36q1 34 20.5 55z" />
    <glyph glyph-name="uni1EAC" unicode="&#x1eac;" horiz-adv-x="644" 
d="M298 745h48l276 -745h-55l-72 197h-346l-72 -197h-55zM479 242l-157 429l-157 -429h314zM294 -148.5q-12 11.5 -12 28.5t12 28.5t28 11.5t28 -11.5t12 -28.5t-12 -28.5t-28 -11.5t-28 11.5zM301 1003h40l126 -144h-46l-100 111l-98 -111h-46z" />
    <glyph glyph-name="uni1EAD" unicode="&#x1ead;" horiz-adv-x="574" 
d="M115 29q-49 41 -49 107q0 60 41 104t130 59l204 34v32q0 59 -40.5 94.5t-107.5 35.5q-51 0 -94 -24.5t-67 -66.5l-40 21q24 47 79 80t122 33q56 0 100 -22t68.5 -61.5t24.5 -89.5v-365h-45v106q-24 -49 -79.5 -83.5t-124.5 -34.5q-73 0 -122 41zM148.5 59.5
q36.5 -29.5 92.5 -29.5q59 0 104.5 28.5t70.5 76t25 103.5v52l-189 -31q-74 -12 -107 -44t-33 -77q0 -49 36.5 -78.5zM259 -148.5q-12 11.5 -12 28.5t12 28.5t28 11.5t28 -11.5t12 -28.5t-12 -28.5t-28 -11.5t-28 11.5zM266 784h40l126 -144h-46l-100 111l-98 -111h-46z" />
    <glyph glyph-name="uni1EAE" unicode="&#x1eae;" horiz-adv-x="644" 
d="M298 745h48l276 -745h-55l-72 197h-346l-72 -197h-55zM479 242l-157 429l-157 -429h314zM225.5 896q-38.5 37 -38.5 93h40q0 -39 27 -65.5t68 -26.5q40 0 67.5 26.5t27.5 65.5h40q0 -55 -39 -92.5t-96 -37.5q-58 0 -96.5 37zM352 1094h51l-59 -95h-43z" />
    <glyph glyph-name="uni1EAF" unicode="&#x1eaf;" horiz-adv-x="574" 
d="M115 29q-49 41 -49 107q0 60 41 104t130 59l204 34v32q0 59 -40.5 94.5t-107.5 35.5q-51 0 -94 -24.5t-67 -66.5l-40 21q24 47 79 80t122 33q56 0 100 -22t68.5 -61.5t24.5 -89.5v-365h-45v106q-24 -49 -79.5 -83.5t-124.5 -34.5q-73 0 -122 41zM148.5 59.5
q36.5 -29.5 92.5 -29.5q59 0 104.5 28.5t70.5 76t25 103.5v52l-189 -31q-74 -12 -107 -44t-33 -77q0 -49 36.5 -78.5zM190.5 677q-38.5 37 -38.5 93h40q0 -39 27 -65.5t68 -26.5q40 0 67.5 26.5t27.5 65.5h40q0 -55 -39 -92.5t-96 -37.5q-58 0 -96.5 37zM317 875h51l-59 -95
h-43z" />
    <glyph glyph-name="uni1EB0" unicode="&#x1eb0;" horiz-adv-x="644" 
d="M298 745h48l276 -745h-55l-72 197h-346l-72 -197h-55zM479 242l-157 429l-157 -429h314zM226 896.5q-39 37.5 -39 92.5h40q0 -39 27.5 -65.5t67.5 -26.5q41 0 68 26.5t27 65.5h40q0 -56 -38.5 -93t-96.5 -37q-57 0 -96 37.5zM292 1094l51 -95h-43l-59 95h51z" />
    <glyph glyph-name="uni1EB1" unicode="&#x1eb1;" horiz-adv-x="574" 
d="M115 29q-49 41 -49 107q0 60 41 104t130 59l204 34v32q0 59 -40.5 94.5t-107.5 35.5q-51 0 -94 -24.5t-67 -66.5l-40 21q24 47 79 80t122 33q56 0 100 -22t68.5 -61.5t24.5 -89.5v-365h-45v106q-24 -49 -79.5 -83.5t-124.5 -34.5q-73 0 -122 41zM148.5 59.5
q36.5 -29.5 92.5 -29.5q59 0 104.5 28.5t70.5 76t25 103.5v52l-189 -31q-74 -12 -107 -44t-33 -77q0 -49 36.5 -78.5zM191 677.5q-39 37.5 -39 92.5h40q0 -39 27.5 -65.5t67.5 -26.5q41 0 68 26.5t27 65.5h40q0 -56 -38.5 -93t-96.5 -37q-57 0 -96 37.5zM257 875l51 -95h-43
l-59 95h51z" />
    <glyph glyph-name="uni1EB2" unicode="&#x1eb2;" horiz-adv-x="644" 
d="M298 745h48l276 -745h-55l-72 197h-346l-72 -197h-55zM479 242l-157 429l-157 -429h314zM225.5 896q-38.5 37 -38.5 93h40q0 -39 27 -65.5t68 -26.5q40 0 67.5 26.5t27.5 65.5h40q0 -55 -39 -92.5t-96 -37.5q-58 0 -96.5 37zM248 1140q19 9 54 9q43 0 68.5 -21t25.5 -56
q0 -66 -99 -108l-11 24q31 13 50.5 33.5t19.5 42.5q0 25 -17.5 39t-46.5 14q-24 0 -44 -8v31z" />
    <glyph glyph-name="uni1EB3" unicode="&#x1eb3;" horiz-adv-x="574" 
d="M115 29q-49 41 -49 107q0 60 41 104t130 59l204 34v32q0 59 -40.5 94.5t-107.5 35.5q-51 0 -94 -24.5t-67 -66.5l-40 21q24 47 79 80t122 33q56 0 100 -22t68.5 -61.5t24.5 -89.5v-365h-45v106q-24 -49 -79.5 -83.5t-124.5 -34.5q-73 0 -122 41zM148.5 59.5
q36.5 -29.5 92.5 -29.5q59 0 104.5 28.5t70.5 76t25 103.5v52l-189 -31q-74 -12 -107 -44t-33 -77q0 -49 36.5 -78.5zM190.5 677q-38.5 37 -38.5 93h40q0 -39 27 -65.5t68 -26.5q40 0 67.5 26.5t27.5 65.5h40q0 -55 -39 -92.5t-96 -37.5q-58 0 -96.5 37zM213 921q19 9 54 9
q43 0 68.5 -21t25.5 -56q0 -66 -99 -108l-11 24q31 13 50.5 33.5t19.5 42.5q0 25 -17.5 39t-46.5 14q-24 0 -44 -8v31z" />
    <glyph glyph-name="uni1EB4" unicode="&#x1eb4;" horiz-adv-x="644" 
d="M298 745h48l276 -745h-55l-72 197h-346l-72 -197h-55zM479 242l-157 429l-157 -429h314zM225.5 896q-38.5 37 -38.5 93h40q0 -39 27 -65.5t68 -26.5q40 0 67.5 26.5t27.5 65.5h40q0 -55 -39 -92.5t-96 -37.5q-58 0 -96.5 37zM217.5 1098q19.5 21 50.5 21q17 0 29.5 -6
t30.5 -17q17 -10 27 -15t22 -5q31 0 34 39h36q-1 -34 -20.5 -55t-50.5 -21q-17 0 -29.5 6t-30.5 17q-17 10 -27 15t-22 5q-13 0 -22.5 -10t-11.5 -29h-36q1 34 20.5 55z" />
    <glyph glyph-name="uni1EB5" unicode="&#x1eb5;" horiz-adv-x="574" 
d="M115 29q-49 41 -49 107q0 60 41 104t130 59l204 34v32q0 59 -40.5 94.5t-107.5 35.5q-51 0 -94 -24.5t-67 -66.5l-40 21q24 47 79 80t122 33q56 0 100 -22t68.5 -61.5t24.5 -89.5v-365h-45v106q-24 -49 -79.5 -83.5t-124.5 -34.5q-73 0 -122 41zM148.5 59.5
q36.5 -29.5 92.5 -29.5q59 0 104.5 28.5t70.5 76t25 103.5v52l-189 -31q-74 -12 -107 -44t-33 -77q0 -49 36.5 -78.5zM190.5 677q-38.5 37 -38.5 93h40q0 -39 27 -65.5t68 -26.5q40 0 67.5 26.5t27.5 65.5h40q0 -55 -39 -92.5t-96 -37.5q-58 0 -96.5 37zM182.5 879
q19.5 21 50.5 21q17 0 29.5 -6t30.5 -17q17 -10 27 -15t22 -5q31 0 34 39h36q-1 -34 -20.5 -55t-50.5 -21q-17 0 -29.5 6t-30.5 17q-17 10 -27 15t-22 5q-13 0 -22.5 -10t-11.5 -29h-36q1 34 20.5 55z" />
    <glyph glyph-name="uni1EB6" unicode="&#x1eb6;" horiz-adv-x="644" 
d="M298 745h48l276 -745h-55l-72 197h-346l-72 -197h-55zM479 242l-157 429l-157 -429h314zM294 -148.5q-12 11.5 -12 28.5t12 28.5t28 11.5t28 -11.5t12 -28.5t-12 -28.5t-28 -11.5t-28 11.5zM225.5 896q-38.5 37 -38.5 93h40q0 -39 27 -65.5t68 -26.5q40 0 67.5 26.5
t27.5 65.5h40q0 -55 -39 -92.5t-96 -37.5q-58 0 -96.5 37z" />
    <glyph glyph-name="uni1EB7" unicode="&#x1eb7;" horiz-adv-x="574" 
d="M115 29q-49 41 -49 107q0 60 41 104t130 59l204 34v32q0 59 -40.5 94.5t-107.5 35.5q-51 0 -94 -24.5t-67 -66.5l-40 21q24 47 79 80t122 33q56 0 100 -22t68.5 -61.5t24.5 -89.5v-365h-45v106q-24 -49 -79.5 -83.5t-124.5 -34.5q-73 0 -122 41zM148.5 59.5
q36.5 -29.5 92.5 -29.5q59 0 104.5 28.5t70.5 76t25 103.5v52l-189 -31q-74 -12 -107 -44t-33 -77q0 -49 36.5 -78.5zM259 -148.5q-12 11.5 -12 28.5t12 28.5t28 11.5t28 -11.5t12 -28.5t-12 -28.5t-28 -11.5t-28 11.5zM190.5 677q-38.5 37 -38.5 93h40q0 -39 27 -65.5
t68 -26.5q40 0 67.5 26.5t27.5 65.5h40q0 -55 -39 -92.5t-96 -37.5q-58 0 -96.5 37z" />
    <glyph glyph-name="uni1EB8" unicode="&#x1eb8;" horiz-adv-x="614" 
d="M99 745h460v-45h-410v-304h390v-45h-390v-306h410v-45h-460v745zM301 -148.5q-12 11.5 -12 28.5t12 28.5t28 11.5t28 -11.5t12 -28.5t-12 -28.5t-28 -11.5t-28 11.5z" />
    <glyph glyph-name="uni1EB9" unicode="&#x1eb9;" horiz-adv-x="627" 
d="M196.5 24.5q-60.5 36.5 -95.5 99.5t-35 139q0 77 33.5 140t92 99t129.5 36q67 0 122 -33t86.5 -90t31.5 -127q0 -16 -3 -39h-447q3 -62 32.5 -112t78.5 -78.5t109 -28.5q57 0 103 27t74 76l38 -20q-29 -58 -87 -91.5t-128 -33.5q-74 0 -134.5 36.5zM515 289
q0 58 -25.5 105t-70 74.5t-98.5 27.5t-100 -27t-75 -74.5t-34 -105.5h403zM286 -148.5q-12 11.5 -12 28.5t12 28.5t28 11.5t28 -11.5t12 -28.5t-12 -28.5t-28 -11.5t-28 11.5z" />
    <glyph glyph-name="uni1EBA" unicode="&#x1eba;" horiz-adv-x="614" 
d="M99 745h460v-45h-410v-304h390v-45h-390v-306h410v-45h-460v745zM343.5 846.5q19.5 20.5 19.5 42.5q0 25 -17.5 39t-46.5 14q-24 0 -44 -8v31q19 9 54 9q43 0 68.5 -21t25.5 -56q0 -66 -99 -108l-11 24q31 13 50.5 33.5z" />
    <glyph glyph-name="uni1EBB" unicode="&#x1ebb;" horiz-adv-x="627" 
d="M196.5 24.5q-60.5 36.5 -95.5 99.5t-35 139q0 77 33.5 140t92 99t129.5 36q67 0 122 -33t86.5 -90t31.5 -127q0 -16 -3 -39h-447q3 -62 32.5 -112t78.5 -78.5t109 -28.5q57 0 103 27t74 76l38 -20q-29 -58 -87 -91.5t-128 -33.5q-74 0 -134.5 36.5zM515 289
q0 58 -25.5 105t-70 74.5t-98.5 27.5t-100 -27t-75 -74.5t-34 -105.5h403zM328.5 627.5q19.5 20.5 19.5 42.5q0 25 -17.5 39t-46.5 14q-24 0 -44 -8v31q19 9 54 9q43 0 68.5 -21t25.5 -56q0 -66 -99 -108l-11 24q31 13 50.5 33.5z" />
    <glyph glyph-name="uni1EBC" unicode="&#x1ebc;" horiz-adv-x="614" 
d="M99 745h460v-45h-410v-304h390v-45h-390v-306h410v-45h-460v745zM353.5 895q-12.5 6 -30.5 17q-17 10 -27 15t-22 5q-13 0 -22.5 -10t-11.5 -29h-36q1 34 20.5 55t50.5 21q17 0 29.5 -6t30.5 -17q17 -10 27 -15t22 -5q31 0 34 39h36q-1 -34 -20.5 -55t-50.5 -21
q-17 0 -29.5 6z" />
    <glyph glyph-name="uni1EBD" unicode="&#x1ebd;" horiz-adv-x="627" 
d="M196.5 24.5q-60.5 36.5 -95.5 99.5t-35 139q0 77 33.5 140t92 99t129.5 36q67 0 122 -33t86.5 -90t31.5 -127q0 -16 -3 -39h-447q3 -62 32.5 -112t78.5 -78.5t109 -28.5q57 0 103 27t74 76l38 -20q-29 -58 -87 -91.5t-128 -33.5q-74 0 -134.5 36.5zM515 289
q0 58 -25.5 105t-70 74.5t-98.5 27.5t-100 -27t-75 -74.5t-34 -105.5h403zM338.5 676q-12.5 6 -30.5 17q-17 10 -27 15t-22 5q-13 0 -22.5 -10t-11.5 -29h-36q1 34 20.5 55t50.5 21q17 0 29.5 -6t30.5 -17q17 -10 27 -15t22 -5q31 0 34 39h36q-1 -34 -20.5 -55t-50.5 -21
q-17 0 -29.5 6z" />
    <glyph glyph-name="uni1EBE" unicode="&#x1ebe;" horiz-adv-x="614" 
d="M99 745h460v-45h-410v-304h390v-45h-390v-306h410v-45h-460v745zM308 1003h40l126 -144h-46l-100 111l-98 -111h-46zM439 1078h51l-59 -95h-43z" />
    <glyph glyph-name="uni1EBF" unicode="&#x1ebf;" horiz-adv-x="627" 
d="M196.5 24.5q-60.5 36.5 -95.5 99.5t-35 139q0 77 33.5 140t92 99t129.5 36q67 0 122 -33t86.5 -90t31.5 -127q0 -16 -3 -39h-447q3 -62 32.5 -112t78.5 -78.5t109 -28.5q57 0 103 27t74 76l38 -20q-29 -58 -87 -91.5t-128 -33.5q-74 0 -134.5 36.5zM515 289
q0 58 -25.5 105t-70 74.5t-98.5 27.5t-100 -27t-75 -74.5t-34 -105.5h403zM293 784h40l126 -144h-46l-100 111l-98 -111h-46zM424 859h51l-59 -95h-43z" />
    <glyph glyph-name="uni1EC0" unicode="&#x1ec0;" horiz-adv-x="614" 
d="M99 745h460v-45h-410v-304h390v-45h-390v-306h410v-45h-460v745zM308 1003h40l126 -144h-46l-100 111l-98 -111h-46zM399 1078l51 -95h-43l-59 95h51z" />
    <glyph glyph-name="uni1EC1" unicode="&#x1ec1;" horiz-adv-x="627" 
d="M196.5 24.5q-60.5 36.5 -95.5 99.5t-35 139q0 77 33.5 140t92 99t129.5 36q67 0 122 -33t86.5 -90t31.5 -127q0 -16 -3 -39h-447q3 -62 32.5 -112t78.5 -78.5t109 -28.5q57 0 103 27t74 76l38 -20q-29 -58 -87 -91.5t-128 -33.5q-74 0 -134.5 36.5zM515 289
q0 58 -25.5 105t-70 74.5t-98.5 27.5t-100 -27t-75 -74.5t-34 -105.5h403zM293 784h40l126 -144h-46l-100 111l-98 -111h-46zM384 859l51 -95h-43l-59 95h51z" />
    <glyph glyph-name="uni1EC2" unicode="&#x1ec2;" horiz-adv-x="614" 
d="M99 745h460v-45h-410v-304h390v-45h-390v-306h410v-45h-460v745zM308 1003h40l126 -144h-46l-100 111l-98 -111h-46zM370 1135q19 9 54 9q43 0 68.5 -21t25.5 -56q0 -66 -99 -108l-11 24q31 13 50.5 33.5t19.5 42.5q0 25 -17.5 39t-46.5 14q-24 0 -44 -8v31z" />
    <glyph glyph-name="uni1EC3" unicode="&#x1ec3;" horiz-adv-x="627" 
d="M196.5 24.5q-60.5 36.5 -95.5 99.5t-35 139q0 77 33.5 140t92 99t129.5 36q67 0 122 -33t86.5 -90t31.5 -127q0 -16 -3 -39h-447q3 -62 32.5 -112t78.5 -78.5t109 -28.5q57 0 103 27t74 76l38 -20q-29 -58 -87 -91.5t-128 -33.5q-74 0 -134.5 36.5zM515 289
q0 58 -25.5 105t-70 74.5t-98.5 27.5t-100 -27t-75 -74.5t-34 -105.5h403zM293 784h40l126 -144h-46l-100 111l-98 -111h-46zM355 916q19 9 54 9q43 0 68.5 -21t25.5 -56q0 -66 -99 -108l-11 24q31 13 50.5 33.5t19.5 42.5q0 25 -17.5 39t-46.5 14q-24 0 -44 -8v31z" />
    <glyph glyph-name="uni1EC4" unicode="&#x1ec4;" horiz-adv-x="614" 
d="M99 745h460v-45h-410v-304h390v-45h-390v-306h410v-45h-460v745zM308 1003h40l126 -144h-46l-100 111l-98 -111h-46zM224.5 1108q19.5 21 50.5 21q17 0 29.5 -6t30.5 -17q17 -10 27 -15t22 -5q31 0 34 39h36q-1 -34 -20.5 -55t-50.5 -21q-17 0 -29.5 6t-30.5 17
q-17 10 -27 15t-22 5q-13 0 -22.5 -10t-11.5 -29h-36q1 34 20.5 55z" />
    <glyph glyph-name="uni1EC5" unicode="&#x1ec5;" horiz-adv-x="627" 
d="M196.5 24.5q-60.5 36.5 -95.5 99.5t-35 139q0 77 33.5 140t92 99t129.5 36q67 0 122 -33t86.5 -90t31.5 -127q0 -16 -3 -39h-447q3 -62 32.5 -112t78.5 -78.5t109 -28.5q57 0 103 27t74 76l38 -20q-29 -58 -87 -91.5t-128 -33.5q-74 0 -134.5 36.5zM515 289
q0 58 -25.5 105t-70 74.5t-98.5 27.5t-100 -27t-75 -74.5t-34 -105.5h403zM293 784h40l126 -144h-46l-100 111l-98 -111h-46zM209.5 889q19.5 21 50.5 21q17 0 29.5 -6t30.5 -17q17 -10 27 -15t22 -5q31 0 34 39h36q-1 -34 -20.5 -55t-50.5 -21q-17 0 -29.5 6t-30.5 17
q-17 10 -27 15t-22 5q-13 0 -22.5 -10t-11.5 -29h-36q1 34 20.5 55z" />
    <glyph glyph-name="uni1EC6" unicode="&#x1ec6;" horiz-adv-x="614" 
d="M99 745h460v-45h-410v-304h390v-45h-390v-306h410v-45h-460v745zM301 -148.5q-12 11.5 -12 28.5t12 28.5t28 11.5t28 -11.5t12 -28.5t-12 -28.5t-28 -11.5t-28 11.5zM308 1003h40l126 -144h-46l-100 111l-98 -111h-46z" />
    <glyph glyph-name="uni1EC7" unicode="&#x1ec7;" horiz-adv-x="627" 
d="M196.5 24.5q-60.5 36.5 -95.5 99.5t-35 139q0 77 33.5 140t92 99t129.5 36q67 0 122 -33t86.5 -90t31.5 -127q0 -16 -3 -39h-447q3 -62 32.5 -112t78.5 -78.5t109 -28.5q57 0 103 27t74 76l38 -20q-29 -58 -87 -91.5t-128 -33.5q-74 0 -134.5 36.5zM515 289
q0 58 -25.5 105t-70 74.5t-98.5 27.5t-100 -27t-75 -74.5t-34 -105.5h403zM286 -148.5q-12 11.5 -12 28.5t12 28.5t28 11.5t28 -11.5t12 -28.5t-12 -28.5t-28 -11.5t-28 11.5zM293 784h40l126 -144h-46l-100 111l-98 -111h-46z" />
    <glyph glyph-name="uni1EC8" unicode="&#x1ec8;" horiz-adv-x="248" 
d="M99 745h50v-745h-50v745zM138.5 846.5q19.5 20.5 19.5 42.5q0 25 -17.5 39t-46.5 14q-24 0 -44 -8v31q19 9 54 9q43 0 68.5 -21t25.5 -56q0 -66 -99 -108l-11 24q31 13 50.5 33.5z" />
    <glyph glyph-name="uni1EC9" unicode="&#x1ec9;" horiz-adv-x="185" 
d="M70 526h45v-526h-45v526zM106.5 627.5q19.5 20.5 19.5 42.5q0 25 -17.5 39t-46.5 14q-24 0 -44 -8v31q19 9 54 9q43 0 68.5 -21t25.5 -56q0 -66 -99 -108l-11 24q31 13 50.5 33.5z" />
    <glyph glyph-name="uni1ECA" unicode="&#x1eca;" horiz-adv-x="248" 
d="M99 745h50v-745h-50v745zM96 -148.5q-12 11.5 -12 28.5t12 28.5t28 11.5t28 -11.5t12 -28.5t-12 -28.5t-28 -11.5t-28 11.5z" />
    <glyph glyph-name="uni1ECB" unicode="&#x1ecb;" horiz-adv-x="221" 
d="M88 526h45v-526h-45v526zM88 687.5q9 9.5 23 9.5t22.5 -9t8.5 -24t-8.5 -24.5t-22.5 -9.5t-23 9.5t-9 24.5q0 14 9 23.5zM83 -148.5q-12 11.5 -12 28.5t12 28.5t28 11.5t28 -11.5t12 -28.5t-12 -28.5t-28 -11.5t-28 11.5z" />
    <glyph glyph-name="uni1ECC" unicode="&#x1ecc;" horiz-adv-x="884" 
d="M258.5 37.5q-83.5 49.5 -132.5 137.5t-49 198t49 198t132.5 137t183.5 49q99 0 183 -49.5t133 -137t49 -197.5t-49 -198t-132.5 -137.5t-183.5 -49.5t-183.5 49.5zM167 205q40 -77 112 -123t163 -46t163 46t112 123t40 168q0 90 -40 167t-111.5 123t-163.5 46
q-91 0 -163 -46t-112 -123t-40 -167q0 -91 40 -168zM414 -148.5q-12 11.5 -12 28.5t12 28.5t28 11.5t28 -11.5t12 -28.5t-12 -28.5t-28 -11.5t-28 11.5z" />
    <glyph glyph-name="uni1ECD" unicode="&#x1ecd;" horiz-adv-x="662" 
d="M196 24q-61 36 -95.5 99t-34.5 140t34.5 140t95.5 99t135 36t135 -36t95.5 -99t34.5 -140t-34.5 -140t-95.5 -99t-135 -36t-135 36zM142.5 145.5q28.5 -53.5 78.5 -84t110 -30.5t110 30.5t78.5 84t28.5 117.5q0 65 -28.5 118t-78 83.5t-110.5 30.5t-110.5 -30.5
t-78 -83.5t-28.5 -118q0 -64 28.5 -117.5zM303 -148.5q-12 11.5 -12 28.5t12 28.5t28 11.5t28 -11.5t12 -28.5t-12 -28.5t-28 -11.5t-28 11.5z" />
    <glyph glyph-name="uni1ECE" unicode="&#x1ece;" horiz-adv-x="884" 
d="M258.5 37.5q-83.5 49.5 -132.5 137.5t-49 198t49 198t132.5 137t183.5 49q99 0 183 -49.5t133 -137t49 -197.5t-49 -198t-132.5 -137.5t-183.5 -49.5t-183.5 49.5zM167 205q40 -77 112 -123t163 -46t163 46t112 123t40 168q0 90 -40 167t-111.5 123t-163.5 46
q-91 0 -163 -46t-112 -123t-40 -167q0 -91 40 -168zM456.5 846.5q19.5 20.5 19.5 42.5q0 25 -17.5 39t-46.5 14q-24 0 -44 -8v31q19 9 54 9q43 0 68.5 -21t25.5 -56q0 -66 -99 -108l-11 24q31 13 50.5 33.5z" />
    <glyph glyph-name="uni1ECF" unicode="&#x1ecf;" horiz-adv-x="662" 
d="M196 24q-61 36 -95.5 99t-34.5 140t34.5 140t95.5 99t135 36t135 -36t95.5 -99t34.5 -140t-34.5 -140t-95.5 -99t-135 -36t-135 36zM142.5 145.5q28.5 -53.5 78.5 -84t110 -30.5t110 30.5t78.5 84t28.5 117.5q0 65 -28.5 118t-78 83.5t-110.5 30.5t-110.5 -30.5
t-78 -83.5t-28.5 -118q0 -64 28.5 -117.5zM345.5 627.5q19.5 20.5 19.5 42.5q0 25 -17.5 39t-46.5 14q-24 0 -44 -8v31q19 9 54 9q43 0 68.5 -21t25.5 -56q0 -66 -99 -108l-11 24q31 13 50.5 33.5z" />
    <glyph glyph-name="uni1ED0" unicode="&#x1ed0;" horiz-adv-x="884" 
d="M258.5 37.5q-83.5 49.5 -132.5 137.5t-49 198t49 198t132.5 137t183.5 49q99 0 183 -49.5t133 -137t49 -197.5t-49 -198t-132.5 -137.5t-183.5 -49.5t-183.5 49.5zM167 205q40 -77 112 -123t163 -46t163 46t112 123t40 168q0 90 -40 167t-111.5 123t-163.5 46
q-91 0 -163 -46t-112 -123t-40 -167q0 -91 40 -168zM421 1003h40l126 -144h-46l-100 111l-98 -111h-46zM552 1078h51l-59 -95h-43z" />
    <glyph glyph-name="uni1ED1" unicode="&#x1ed1;" horiz-adv-x="662" 
d="M196 24q-61 36 -95.5 99t-34.5 140t34.5 140t95.5 99t135 36t135 -36t95.5 -99t34.5 -140t-34.5 -140t-95.5 -99t-135 -36t-135 36zM142.5 145.5q28.5 -53.5 78.5 -84t110 -30.5t110 30.5t78.5 84t28.5 117.5q0 65 -28.5 118t-78 83.5t-110.5 30.5t-110.5 -30.5
t-78 -83.5t-28.5 -118q0 -64 28.5 -117.5zM310 784h40l126 -144h-46l-100 111l-98 -111h-46zM441 859h51l-59 -95h-43z" />
    <glyph glyph-name="uni1ED2" unicode="&#x1ed2;" horiz-adv-x="884" 
d="M258.5 37.5q-83.5 49.5 -132.5 137.5t-49 198t49 198t132.5 137t183.5 49q99 0 183 -49.5t133 -137t49 -197.5t-49 -198t-132.5 -137.5t-183.5 -49.5t-183.5 49.5zM167 205q40 -77 112 -123t163 -46t163 46t112 123t40 168q0 90 -40 167t-111.5 123t-163.5 46
q-91 0 -163 -46t-112 -123t-40 -167q0 -91 40 -168zM421 1003h40l126 -144h-46l-100 111l-98 -111h-46zM512 1078l51 -95h-43l-59 95h51z" />
    <glyph glyph-name="uni1ED3" unicode="&#x1ed3;" horiz-adv-x="662" 
d="M196 24q-61 36 -95.5 99t-34.5 140t34.5 140t95.5 99t135 36t135 -36t95.5 -99t34.5 -140t-34.5 -140t-95.5 -99t-135 -36t-135 36zM142.5 145.5q28.5 -53.5 78.5 -84t110 -30.5t110 30.5t78.5 84t28.5 117.5q0 65 -28.5 118t-78 83.5t-110.5 30.5t-110.5 -30.5
t-78 -83.5t-28.5 -118q0 -64 28.5 -117.5zM310 784h40l126 -144h-46l-100 111l-98 -111h-46zM401 859l51 -95h-43l-59 95h51z" />
    <glyph glyph-name="uni1ED4" unicode="&#x1ed4;" horiz-adv-x="884" 
d="M258.5 37.5q-83.5 49.5 -132.5 137.5t-49 198t49 198t132.5 137t183.5 49q99 0 183 -49.5t133 -137t49 -197.5t-49 -198t-132.5 -137.5t-183.5 -49.5t-183.5 49.5zM167 205q40 -77 112 -123t163 -46t163 46t112 123t40 168q0 90 -40 167t-111.5 123t-163.5 46
q-91 0 -163 -46t-112 -123t-40 -167q0 -91 40 -168zM421 1003h40l126 -144h-46l-100 111l-98 -111h-46zM483 1135q19 9 54 9q43 0 68.5 -21t25.5 -56q0 -66 -99 -108l-11 24q31 13 50.5 33.5t19.5 42.5q0 25 -17.5 39t-46.5 14q-24 0 -44 -8v31z" />
    <glyph glyph-name="uni1ED5" unicode="&#x1ed5;" horiz-adv-x="662" 
d="M196 24q-61 36 -95.5 99t-34.5 140t34.5 140t95.5 99t135 36t135 -36t95.5 -99t34.5 -140t-34.5 -140t-95.5 -99t-135 -36t-135 36zM142.5 145.5q28.5 -53.5 78.5 -84t110 -30.5t110 30.5t78.5 84t28.5 117.5q0 65 -28.5 118t-78 83.5t-110.5 30.5t-110.5 -30.5
t-78 -83.5t-28.5 -118q0 -64 28.5 -117.5zM310 784h40l126 -144h-46l-100 111l-98 -111h-46zM372 916q19 9 54 9q43 0 68.5 -21t25.5 -56q0 -66 -99 -108l-11 24q31 13 50.5 33.5t19.5 42.5q0 25 -17.5 39t-46.5 14q-24 0 -44 -8v31z" />
    <glyph glyph-name="uni1ED6" unicode="&#x1ed6;" horiz-adv-x="884" 
d="M258.5 37.5q-83.5 49.5 -132.5 137.5t-49 198t49 198t132.5 137t183.5 49q99 0 183 -49.5t133 -137t49 -197.5t-49 -198t-132.5 -137.5t-183.5 -49.5t-183.5 49.5zM167 205q40 -77 112 -123t163 -46t163 46t112 123t40 168q0 90 -40 167t-111.5 123t-163.5 46
q-91 0 -163 -46t-112 -123t-40 -167q0 -91 40 -168zM421 1003h40l126 -144h-46l-100 111l-98 -111h-46zM337.5 1108q19.5 21 50.5 21q17 0 29.5 -6t30.5 -17q17 -10 27 -15t22 -5q31 0 34 39h36q-1 -34 -20.5 -55t-50.5 -21q-17 0 -29.5 6t-30.5 17q-17 10 -27 15t-22 5
q-13 0 -22.5 -10t-11.5 -29h-36q1 34 20.5 55z" />
    <glyph glyph-name="uni1ED7" unicode="&#x1ed7;" horiz-adv-x="662" 
d="M196 24q-61 36 -95.5 99t-34.5 140t34.5 140t95.5 99t135 36t135 -36t95.5 -99t34.5 -140t-34.5 -140t-95.5 -99t-135 -36t-135 36zM142.5 145.5q28.5 -53.5 78.5 -84t110 -30.5t110 30.5t78.5 84t28.5 117.5q0 65 -28.5 118t-78 83.5t-110.5 30.5t-110.5 -30.5
t-78 -83.5t-28.5 -118q0 -64 28.5 -117.5zM310 784h40l126 -144h-46l-100 111l-98 -111h-46zM226.5 889q19.5 21 50.5 21q17 0 29.5 -6t30.5 -17q17 -10 27 -15t22 -5q31 0 34 39h36q-1 -34 -20.5 -55t-50.5 -21q-17 0 -29.5 6t-30.5 17q-17 10 -27 15t-22 5
q-13 0 -22.5 -10t-11.5 -29h-36q1 34 20.5 55z" />
    <glyph glyph-name="uni1ED8" unicode="&#x1ed8;" horiz-adv-x="884" 
d="M258.5 37.5q-83.5 49.5 -132.5 137.5t-49 198t49 198t132.5 137t183.5 49q99 0 183 -49.5t133 -137t49 -197.5t-49 -198t-132.5 -137.5t-183.5 -49.5t-183.5 49.5zM167 205q40 -77 112 -123t163 -46t163 46t112 123t40 168q0 90 -40 167t-111.5 123t-163.5 46
q-91 0 -163 -46t-112 -123t-40 -167q0 -91 40 -168zM414 -148.5q-12 11.5 -12 28.5t12 28.5t28 11.5t28 -11.5t12 -28.5t-12 -28.5t-28 -11.5t-28 11.5zM421 1003h40l126 -144h-46l-100 111l-98 -111h-46z" />
    <glyph glyph-name="uni1ED9" unicode="&#x1ed9;" horiz-adv-x="662" 
d="M196 24q-61 36 -95.5 99t-34.5 140t34.5 140t95.5 99t135 36t135 -36t95.5 -99t34.5 -140t-34.5 -140t-95.5 -99t-135 -36t-135 36zM142.5 145.5q28.5 -53.5 78.5 -84t110 -30.5t110 30.5t78.5 84t28.5 117.5q0 65 -28.5 118t-78 83.5t-110.5 30.5t-110.5 -30.5
t-78 -83.5t-28.5 -118q0 -64 28.5 -117.5zM303 -148.5q-12 11.5 -12 28.5t12 28.5t28 11.5t28 -11.5t12 -28.5t-12 -28.5t-28 -11.5t-28 11.5zM310 784h40l126 -144h-46l-100 111l-98 -111h-46z" />
    <glyph glyph-name="uni1EDA" unicode="&#x1eda;" horiz-adv-x="884" 
d="M258.5 37.5q-83.5 49.5 -132.5 137.5t-49 198t49 198t132.5 137t183.5 49h213q53 0 53 55q0 19 -5 36t-15 45h45q10 -27 15.5 -47t5.5 -40q0 -43 -26.5 -66.5t-69.5 -23.5h-48q90 -47 143.5 -137.5t53.5 -205.5q0 -110 -49 -198t-132.5 -137.5t-183.5 -49.5t-183.5 49.5z
M167 205q40 -77 112 -123t163 -46t163 46t112 123t40 168q0 90 -40 167t-111.5 123t-163.5 46q-91 0 -163 -46t-112 -123t-40 -167q0 -91 40 -168zM500 1003h52l-91 -144h-39z" />
    <glyph glyph-name="uni1EDB" unicode="&#x1edb;" horiz-adv-x="662" 
d="M196 24q-61 36 -95.5 99t-34.5 140t34.5 140t95.5 99t135 36h113q53 0 53 55q0 19 -5 36t-15 45h45q10 -27 15.5 -47t5.5 -40q0 -37 -19.5 -59.5t-52.5 -28.5q58 -36 91.5 -98t33.5 -138q0 -77 -34.5 -140t-95.5 -99t-135 -36t-135 36zM142.5 145.5q28.5 -53.5 78.5 -84
t110 -30.5t110 30.5t78.5 84t28.5 117.5q0 65 -28.5 118t-78 83.5t-110.5 30.5t-110.5 -30.5t-78 -83.5t-28.5 -118q0 -64 28.5 -117.5zM389 784h52l-91 -144h-39z" />
    <glyph glyph-name="uni1EDC" unicode="&#x1edc;" horiz-adv-x="884" 
d="M258.5 37.5q-83.5 49.5 -132.5 137.5t-49 198t49 198t132.5 137t183.5 49h213q53 0 53 55q0 19 -5 36t-15 45h45q10 -27 15.5 -47t5.5 -40q0 -43 -26.5 -66.5t-69.5 -23.5h-48q90 -47 143.5 -137.5t53.5 -205.5q0 -110 -49 -198t-132.5 -137.5t-183.5 -49.5t-183.5 49.5z
M167 205q40 -77 112 -123t163 -46t163 46t112 123t40 168q0 90 -40 167t-111.5 123t-163.5 46q-91 0 -163 -46t-112 -123t-40 -167q0 -91 40 -168zM331 1003h52l78 -144h-39z" />
    <glyph glyph-name="uni1EDD" unicode="&#x1edd;" horiz-adv-x="662" 
d="M196 24q-61 36 -95.5 99t-34.5 140t34.5 140t95.5 99t135 36h113q53 0 53 55q0 19 -5 36t-15 45h45q10 -27 15.5 -47t5.5 -40q0 -37 -19.5 -59.5t-52.5 -28.5q58 -36 91.5 -98t33.5 -138q0 -77 -34.5 -140t-95.5 -99t-135 -36t-135 36zM142.5 145.5q28.5 -53.5 78.5 -84
t110 -30.5t110 30.5t78.5 84t28.5 117.5q0 65 -28.5 118t-78 83.5t-110.5 30.5t-110.5 -30.5t-78 -83.5t-28.5 -118q0 -64 28.5 -117.5zM220 784h52l78 -144h-39z" />
    <glyph glyph-name="uni1EDE" unicode="&#x1ede;" horiz-adv-x="884" 
d="M258.5 37.5q-83.5 49.5 -132.5 137.5t-49 198t49 198t132.5 137t183.5 49h213q53 0 53 55q0 19 -5 36t-15 45h45q10 -27 15.5 -47t5.5 -40q0 -43 -26.5 -66.5t-69.5 -23.5h-48q90 -47 143.5 -137.5t53.5 -205.5q0 -110 -49 -198t-132.5 -137.5t-183.5 -49.5t-183.5 49.5z
M167 205q40 -77 112 -123t163 -46t163 46t112 123t40 168q0 90 -40 167t-111.5 123t-163.5 46q-91 0 -163 -46t-112 -123t-40 -167q0 -91 40 -168zM456.5 846.5q19.5 20.5 19.5 42.5q0 25 -17.5 39t-46.5 14q-24 0 -44 -8v31q19 9 54 9q43 0 68.5 -21t25.5 -56
q0 -66 -99 -108l-11 24q31 13 50.5 33.5z" />
    <glyph glyph-name="uni1EDF" unicode="&#x1edf;" horiz-adv-x="662" 
d="M196 24q-61 36 -95.5 99t-34.5 140t34.5 140t95.5 99t135 36h113q53 0 53 55q0 19 -5 36t-15 45h45q10 -27 15.5 -47t5.5 -40q0 -37 -19.5 -59.5t-52.5 -28.5q58 -36 91.5 -98t33.5 -138q0 -77 -34.5 -140t-95.5 -99t-135 -36t-135 36zM142.5 145.5q28.5 -53.5 78.5 -84
t110 -30.5t110 30.5t78.5 84t28.5 117.5q0 65 -28.5 118t-78 83.5t-110.5 30.5t-110.5 -30.5t-78 -83.5t-28.5 -118q0 -64 28.5 -117.5zM345.5 627.5q19.5 20.5 19.5 42.5q0 25 -17.5 39t-46.5 14q-24 0 -44 -8v31q19 9 54 9q43 0 68.5 -21t25.5 -56q0 -66 -99 -108l-11 24
q31 13 50.5 33.5z" />
    <glyph glyph-name="uni1EE0" unicode="&#x1ee0;" horiz-adv-x="884" 
d="M258.5 37.5q-83.5 49.5 -132.5 137.5t-49 198t49 198t132.5 137t183.5 49h213q53 0 53 55q0 19 -5 36t-15 45h45q10 -27 15.5 -47t5.5 -40q0 -43 -26.5 -66.5t-69.5 -23.5h-48q90 -47 143.5 -137.5t53.5 -205.5q0 -110 -49 -198t-132.5 -137.5t-183.5 -49.5t-183.5 49.5z
M167 205q40 -77 112 -123t163 -46t163 46t112 123t40 168q0 90 -40 167t-111.5 123t-163.5 46q-91 0 -163 -46t-112 -123t-40 -167q0 -91 40 -168zM466.5 895q-12.5 6 -30.5 17q-17 10 -27 15t-22 5q-13 0 -22.5 -10t-11.5 -29h-36q1 34 20.5 55t50.5 21q17 0 29.5 -6
t30.5 -17q17 -10 27 -15t22 -5q31 0 34 39h36q-1 -34 -20.5 -55t-50.5 -21q-17 0 -29.5 6z" />
    <glyph glyph-name="uni1EE1" unicode="&#x1ee1;" horiz-adv-x="662" 
d="M196 24q-61 36 -95.5 99t-34.5 140t34.5 140t95.5 99t135 36h113q53 0 53 55q0 19 -5 36t-15 45h45q10 -27 15.5 -47t5.5 -40q0 -37 -19.5 -59.5t-52.5 -28.5q58 -36 91.5 -98t33.5 -138q0 -77 -34.5 -140t-95.5 -99t-135 -36t-135 36zM142.5 145.5q28.5 -53.5 78.5 -84
t110 -30.5t110 30.5t78.5 84t28.5 117.5q0 65 -28.5 118t-78 83.5t-110.5 30.5t-110.5 -30.5t-78 -83.5t-28.5 -118q0 -64 28.5 -117.5zM355.5 676q-12.5 6 -30.5 17q-17 10 -27 15t-22 5q-13 0 -22.5 -10t-11.5 -29h-36q1 34 20.5 55t50.5 21q17 0 29.5 -6t30.5 -17
q17 -10 27 -15t22 -5q31 0 34 39h36q-1 -34 -20.5 -55t-50.5 -21q-17 0 -29.5 6z" />
    <glyph glyph-name="uni1EE2" unicode="&#x1ee2;" horiz-adv-x="884" 
d="M258.5 37.5q-83.5 49.5 -132.5 137.5t-49 198t49 198t132.5 137t183.5 49h213q53 0 53 55q0 19 -5 36t-15 45h45q10 -27 15.5 -47t5.5 -40q0 -43 -26.5 -66.5t-69.5 -23.5h-48q90 -47 143.5 -137.5t53.5 -205.5q0 -110 -49 -198t-132.5 -137.5t-183.5 -49.5t-183.5 49.5z
M167 205q40 -77 112 -123t163 -46t163 46t112 123t40 168q0 90 -40 167t-111.5 123t-163.5 46q-91 0 -163 -46t-112 -123t-40 -167q0 -91 40 -168zM414 -148.5q-12 11.5 -12 28.5t12 28.5t28 11.5t28 -11.5t12 -28.5t-12 -28.5t-28 -11.5t-28 11.5z" />
    <glyph glyph-name="uni1EE3" unicode="&#x1ee3;" horiz-adv-x="662" 
d="M196 24q-61 36 -95.5 99t-34.5 140t34.5 140t95.5 99t135 36h113q53 0 53 55q0 19 -5 36t-15 45h45q10 -27 15.5 -47t5.5 -40q0 -37 -19.5 -59.5t-52.5 -28.5q58 -36 91.5 -98t33.5 -138q0 -77 -34.5 -140t-95.5 -99t-135 -36t-135 36zM142.5 145.5q28.5 -53.5 78.5 -84
t110 -30.5t110 30.5t78.5 84t28.5 117.5q0 65 -28.5 118t-78 83.5t-110.5 30.5t-110.5 -30.5t-78 -83.5t-28.5 -118q0 -64 28.5 -117.5zM303 -148.5q-12 11.5 -12 28.5t12 28.5t28 11.5t28 -11.5t12 -28.5t-12 -28.5t-28 -11.5t-28 11.5z" />
    <glyph glyph-name="uni1EE4" unicode="&#x1ee4;" horiz-adv-x="690" 
d="M214.5 21q-56.5 33 -88 92.5t-31.5 137.5v494h50v-498q0 -62 25 -111t70.5 -76t104.5 -27t104.5 27t70.5 76t25 111v498h50v-494q0 -78 -31.5 -137.5t-88 -92.5t-130.5 -33t-130.5 33zM317 -148.5q-12 11.5 -12 28.5t12 28.5t28 11.5t28 -11.5t12 -28.5t-12 -28.5
t-28 -11.5t-28 11.5z" />
    <glyph glyph-name="uni1EE5" unicode="&#x1ee5;" 
d="M176.5 11.5q-45.5 23.5 -72.5 68.5t-27 106v340h45v-340q0 -73 45 -114t112 -41q74 0 116 49.5t42 125.5v320h45v-526h-45v77q-22 -41 -65 -65t-97 -24q-53 0 -98.5 23.5zM257 -148.5q-12 11.5 -12 28.5t12 28.5t28 11.5t28 -11.5t12 -28.5t-12 -28.5t-28 -11.5t-28 11.5
z" />
    <glyph glyph-name="uni1EE6" unicode="&#x1ee6;" horiz-adv-x="690" 
d="M214.5 21q-56.5 33 -88 92.5t-31.5 137.5v494h50v-498q0 -62 25 -111t70.5 -76t104.5 -27t104.5 27t70.5 76t25 111v498h50v-494q0 -78 -31.5 -137.5t-88 -92.5t-130.5 -33t-130.5 33zM359.5 846.5q19.5 20.5 19.5 42.5q0 25 -17.5 39t-46.5 14q-24 0 -44 -8v31
q19 9 54 9q43 0 68.5 -21t25.5 -56q0 -66 -99 -108l-11 24q31 13 50.5 33.5z" />
    <glyph glyph-name="uni1EE7" unicode="&#x1ee7;" 
d="M176.5 11.5q-45.5 23.5 -72.5 68.5t-27 106v340h45v-340q0 -73 45 -114t112 -41q74 0 116 49.5t42 125.5v320h45v-526h-45v77q-22 -41 -65 -65t-97 -24q-53 0 -98.5 23.5zM299.5 627.5q19.5 20.5 19.5 42.5q0 25 -17.5 39t-46.5 14q-24 0 -44 -8v31q19 9 54 9
q43 0 68.5 -21t25.5 -56q0 -66 -99 -108l-11 24q31 13 50.5 33.5z" />
    <glyph glyph-name="uni1EE8" unicode="&#x1ee8;" horiz-adv-x="690" 
d="M214.5 21q-56.5 33 -88 92.5t-31.5 137.5v494h50v-498q0 -62 25 -111t70.5 -76t104.5 -27t104.5 27t70.5 76t25 111v498h43q53 0 53 55q0 19 -5 36t-15 45h45q10 -27 15.5 -47t5.5 -40q0 -42 -25 -65t-67 -25v-453q0 -78 -31.5 -137.5t-88 -92.5t-130.5 -33t-130.5 33z
M403 1003h52l-91 -144h-39z" />
    <glyph glyph-name="uni1EE9" unicode="&#x1ee9;" horiz-adv-x="575" 
d="M176.5 11.5q-45.5 23.5 -72.5 68.5t-27 106v340h45v-340q0 -73 45 -114t112 -41q74 0 116 49.5t42 125.5v320h28q53 0 53 55q0 19 -5 36t-15 45h45q10 -27 15.5 -47t5.5 -40q0 -39 -22 -62t-60 -27v-486h-45v77q-22 -41 -65 -65t-97 -24q-53 0 -98.5 23.5zM343 784h52
l-91 -144h-39z" />
    <glyph glyph-name="uni1EEA" unicode="&#x1eea;" horiz-adv-x="690" 
d="M214.5 21q-56.5 33 -88 92.5t-31.5 137.5v494h50v-498q0 -62 25 -111t70.5 -76t104.5 -27t104.5 27t70.5 76t25 111v498h43q53 0 53 55q0 19 -5 36t-15 45h45q10 -27 15.5 -47t5.5 -40q0 -42 -25 -65t-67 -25v-453q0 -78 -31.5 -137.5t-88 -92.5t-130.5 -33t-130.5 33z
M234 1003h52l78 -144h-39z" />
    <glyph glyph-name="uni1EEB" unicode="&#x1eeb;" horiz-adv-x="575" 
d="M176.5 11.5q-45.5 23.5 -72.5 68.5t-27 106v340h45v-340q0 -73 45 -114t112 -41q74 0 116 49.5t42 125.5v320h28q53 0 53 55q0 19 -5 36t-15 45h45q10 -27 15.5 -47t5.5 -40q0 -39 -22 -62t-60 -27v-486h-45v77q-22 -41 -65 -65t-97 -24q-53 0 -98.5 23.5zM174 784h52
l78 -144h-39z" />
    <glyph glyph-name="uni1EEC" unicode="&#x1eec;" horiz-adv-x="690" 
d="M214.5 21q-56.5 33 -88 92.5t-31.5 137.5v494h50v-498q0 -62 25 -111t70.5 -76t104.5 -27t104.5 27t70.5 76t25 111v498h43q53 0 53 55q0 19 -5 36t-15 45h45q10 -27 15.5 -47t5.5 -40q0 -42 -25 -65t-67 -25v-453q0 -78 -31.5 -137.5t-88 -92.5t-130.5 -33t-130.5 33z
M359.5 846.5q19.5 20.5 19.5 42.5q0 25 -17.5 39t-46.5 14q-24 0 -44 -8v31q19 9 54 9q43 0 68.5 -21t25.5 -56q0 -66 -99 -108l-11 24q31 13 50.5 33.5z" />
    <glyph glyph-name="uni1EED" unicode="&#x1eed;" horiz-adv-x="575" 
d="M176.5 11.5q-45.5 23.5 -72.5 68.5t-27 106v340h45v-340q0 -73 45 -114t112 -41q74 0 116 49.5t42 125.5v320h28q53 0 53 55q0 19 -5 36t-15 45h45q10 -27 15.5 -47t5.5 -40q0 -39 -22 -62t-60 -27v-486h-45v77q-22 -41 -65 -65t-97 -24q-53 0 -98.5 23.5zM299.5 627.5
q19.5 20.5 19.5 42.5q0 25 -17.5 39t-46.5 14q-24 0 -44 -8v31q19 9 54 9q43 0 68.5 -21t25.5 -56q0 -66 -99 -108l-11 24q31 13 50.5 33.5z" />
    <glyph glyph-name="uni1EEE" unicode="&#x1eee;" horiz-adv-x="690" 
d="M214.5 21q-56.5 33 -88 92.5t-31.5 137.5v494h50v-498q0 -62 25 -111t70.5 -76t104.5 -27t104.5 27t70.5 76t25 111v498h43q53 0 53 55q0 19 -5 36t-15 45h45q10 -27 15.5 -47t5.5 -40q0 -42 -25 -65t-67 -25v-453q0 -78 -31.5 -137.5t-88 -92.5t-130.5 -33t-130.5 33z
M369.5 895q-12.5 6 -30.5 17q-17 10 -27 15t-22 5q-13 0 -22.5 -10t-11.5 -29h-36q1 34 20.5 55t50.5 21q17 0 29.5 -6t30.5 -17q17 -10 27 -15t22 -5q31 0 34 39h36q-1 -34 -20.5 -55t-50.5 -21q-17 0 -29.5 6z" />
    <glyph glyph-name="uni1EEF" unicode="&#x1eef;" horiz-adv-x="575" 
d="M176.5 11.5q-45.5 23.5 -72.5 68.5t-27 106v340h45v-340q0 -73 45 -114t112 -41q74 0 116 49.5t42 125.5v320h28q53 0 53 55q0 19 -5 36t-15 45h45q10 -27 15.5 -47t5.5 -40q0 -39 -22 -62t-60 -27v-486h-45v77q-22 -41 -65 -65t-97 -24q-53 0 -98.5 23.5zM309.5 676
q-12.5 6 -30.5 17q-17 10 -27 15t-22 5q-13 0 -22.5 -10t-11.5 -29h-36q1 34 20.5 55t50.5 21q17 0 29.5 -6t30.5 -17q17 -10 27 -15t22 -5q31 0 34 39h36q-1 -34 -20.5 -55t-50.5 -21q-17 0 -29.5 6z" />
    <glyph glyph-name="uni1EF0" unicode="&#x1ef0;" horiz-adv-x="690" 
d="M214.5 21q-56.5 33 -88 92.5t-31.5 137.5v494h50v-498q0 -62 25 -111t70.5 -76t104.5 -27t104.5 27t70.5 76t25 111v498h43q53 0 53 55q0 19 -5 36t-15 45h45q10 -27 15.5 -47t5.5 -40q0 -42 -25 -65t-67 -25v-453q0 -78 -31.5 -137.5t-88 -92.5t-130.5 -33t-130.5 33z
M317 -148.5q-12 11.5 -12 28.5t12 28.5t28 11.5t28 -11.5t12 -28.5t-12 -28.5t-28 -11.5t-28 11.5z" />
    <glyph glyph-name="uni1EF1" unicode="&#x1ef1;" horiz-adv-x="575" 
d="M176.5 11.5q-45.5 23.5 -72.5 68.5t-27 106v340h45v-340q0 -73 45 -114t112 -41q74 0 116 49.5t42 125.5v320h28q53 0 53 55q0 19 -5 36t-15 45h45q10 -27 15.5 -47t5.5 -40q0 -39 -22 -62t-60 -27v-486h-45v77q-22 -41 -65 -65t-97 -24q-53 0 -98.5 23.5zM257 -148.5
q-12 11.5 -12 28.5t12 28.5t28 11.5t28 -11.5t12 -28.5t-12 -28.5t-28 -11.5t-28 11.5z" />
    <glyph glyph-name="Ygrave" unicode="&#x1ef2;" horiz-adv-x="624" 
d="M287 333l-265 412h57l234 -356l232 356h57l-265 -412v-333h-50v333zM201 1003h52l78 -144h-39z" />
    <glyph glyph-name="ygrave" unicode="&#x1ef3;" horiz-adv-x="529" 
d="M154 784h52l78 -144h-39z" />
    <glyph glyph-name="uni1EF4" unicode="&#x1ef4;" horiz-adv-x="624" 
d="M287 333l-265 412h57l234 -356l232 356h57l-265 -412v-333h-50v333zM284 -148.5q-12 11.5 -12 28.5t12 28.5t28 11.5t28 -11.5t12 -28.5t-12 -28.5t-28 -11.5t-28 11.5z" />
    <glyph glyph-name="uni1EF5" unicode="&#x1ef5;" horiz-adv-x="529" 
d="M451 -48.5q-12 11.5 -12 28.5t12 28.5t28 11.5t28 -11.5t12 -28.5t-12 -28.5t-28 -11.5t-28 11.5z" />
    <glyph glyph-name="uni1EF6" unicode="&#x1ef6;" horiz-adv-x="624" 
d="M287 333l-265 412h57l234 -356l232 356h57l-265 -412v-333h-50v333zM326.5 846.5q19.5 20.5 19.5 42.5q0 25 -17.5 39t-46.5 14q-24 0 -44 -8v31q19 9 54 9q43 0 68.5 -21t25.5 -56q0 -66 -99 -108l-11 24q31 13 50.5 33.5z" />
    <glyph glyph-name="uni1EF7" unicode="&#x1ef7;" horiz-adv-x="529" 
d="M279.5 627.5q19.5 20.5 19.5 42.5q0 25 -17.5 39t-46.5 14q-24 0 -44 -8v31q19 9 54 9q43 0 68.5 -21t25.5 -56q0 -66 -99 -108l-11 24q31 13 50.5 33.5z" />
    <glyph glyph-name="uni1EF8" unicode="&#x1ef8;" horiz-adv-x="624" 
d="M287 333l-265 412h57l234 -356l232 356h57l-265 -412v-333h-50v333zM336.5 895q-12.5 6 -30.5 17q-17 10 -27 15t-22 5q-13 0 -22.5 -10t-11.5 -29h-36q1 34 20.5 55t50.5 21q17 0 29.5 -6t30.5 -17q17 -10 27 -15t22 -5q31 0 34 39h36q-1 -34 -20.5 -55t-50.5 -21
q-17 0 -29.5 6z" />
    <glyph glyph-name="uni1EF9" unicode="&#x1ef9;" horiz-adv-x="529" 
d="M289.5 676q-12.5 6 -30.5 17q-17 10 -27 15t-22 5q-13 0 -22.5 -10t-11.5 -29h-36q1 34 20.5 55t50.5 21q17 0 29.5 -6t30.5 -17q17 -10 27 -15t22 -5q31 0 34 39h36q-1 -34 -20.5 -55t-50.5 -21q-17 0 -29.5 6z" />
    <glyph glyph-name="uni2007" unicode="&#x2007;" horiz-adv-x="714" 
 />
    <glyph glyph-name="uni2008" unicode="&#x2008;" horiz-adv-x="261" 
 />
    <glyph glyph-name="uni2009" unicode="&#x2009;" horiz-adv-x="200" 
 />
    <glyph glyph-name="uni200A" unicode="&#x200a;" horiz-adv-x="143" 
 />
    <glyph glyph-name="uni200B" unicode="&#x200b;" horiz-adv-x="0" 
 />
    <glyph glyph-name="uni2010" unicode="&#x2010;" horiz-adv-x="468" 
d="M38 286h320v-45h-320v45z" />
    <glyph glyph-name="figuredash" unicode="&#x2012;" horiz-adv-x="548" 
d="M38 286h400v-45h-400v45z" />
    <glyph glyph-name="endash" unicode="&#x2013;" horiz-adv-x="548" 
d="M74 286h400v-45h-400v45z" />
    <glyph glyph-name="emdash" unicode="&#x2014;" horiz-adv-x="888" 
d="M74 286h740v-45h-740v45z" />
    <glyph glyph-name="uni2015" unicode="&#x2015;" horiz-adv-x="888" 
d="M38 286h740v-45h-740v45z" />
    <glyph glyph-name="quoteleft" unicode="&#x2018;" horiz-adv-x="248" 
d="M102 715.5q21 32.5 54 41.5v-27q-21 -5 -35 -27t-14 -51h29v-90h-55v76q0 45 21 77.5z" />
    <glyph glyph-name="quoteright" unicode="&#x2019;" horiz-adv-x="248" 
d="M116 604q14 22 14 51h-29v90h55v-76q0 -45 -21 -77.5t-54 -41.5v27q21 5 35 27z" />
    <glyph glyph-name="quotesinglbase" unicode="&#x201a;" horiz-adv-x="248" 
d="M116 -51q14 22 14 51h-29v90h55v-76q0 -45 -21 -77.5t-54 -41.5v27q21 5 35 27z" />
    <glyph glyph-name="quotedblleft" unicode="&#x201c;" horiz-adv-x="378" 
d="M232 715.5q21 32.5 54 41.5v-27q-21 -5 -35 -27t-14 -51h29v-90h-55v76q0 45 21 77.5zM81 638q0 45 21 77.5t54 41.5v-27q-21 -5 -35 -27t-14 -51h29v-90h-55v76z" />
    <glyph glyph-name="quotedblright" unicode="&#x201d;" horiz-adv-x="378" 
d="M246 619q14 22 14 51h-29v75h55v-61q0 -45 -21 -77.5t-54 -41.5v27q21 5 35 27zM81 592q21 5 35 27t14 51h-29v75h55v-61q0 -45 -21 -77.5t-54 -41.5v27z" />
    <glyph glyph-name="quotedblbase" unicode="&#x201e;" horiz-adv-x="378" 
d="M246 -51q14 22 14 51h-29v90h55v-76q0 -45 -21 -77.5t-54 -41.5v27q21 5 35 27zM81 -78q21 5 35 27t14 51h-29v90h55v-76q0 -45 -21 -77.5t-54 -41.5v27z" />
    <glyph glyph-name="dagger" unicode="&#x2020;" horiz-adv-x="618" 
d="M284 481h-245v45h245v219h50v-219h245v-45h-245v-671h-50v671z" />
    <glyph glyph-name="daggerdbl" unicode="&#x2021;" horiz-adv-x="640" 
d="M295 30h-245v45h245v406h-245v45h245v219h50v-219h245v-45h-245v-406h245v-45h-245v-220h-50v220z" />
    <glyph glyph-name="bullet" unicode="&#x2022;" horiz-adv-x="346" 
d="M123.5 213.5q-20.5 20.5 -20.5 51.5q0 29 20.5 49t50.5 20q29 0 48.5 -20t20.5 -49q0 -31 -20 -51.5t-49 -20.5q-30 0 -50.5 20.5z" />
    <glyph glyph-name="ellipsis" unicode="&#x2026;" horiz-adv-x="661" 
d="M107 10q-10 10 -10 26t10 26.5t24 10.5t23.5 -10.5t9.5 -26.5t-9.5 -26t-23.5 -10t-24 10zM307 10q-10 10 -10 26t10 26.5t24 10.5t23.5 -10.5t9.5 -26.5t-9.5 -26t-23.5 -10t-24 10zM507 10q-10 10 -10 26t10 26.5t24 10.5t23.5 -10.5t9.5 -26.5t-9.5 -26t-23.5 -10
t-24 10z" />
    <glyph glyph-name="perthousand" unicode="&#x2030;" horiz-adv-x="1356" 
d="M739 745h61l-615 -745h-61zM77.5 664q25.5 43 68 68t91.5 25t91 -25t67 -68t25 -93t-25 -93t-67 -68t-91 -25t-91.5 25t-68 68t-25.5 93t25.5 93zM115.5 502q18.5 -33 50.5 -53.5t71 -20.5t70.5 20.5t49.5 53.5t18 69t-18 69t-49.5 53.5t-70.5 20.5t-71 -20.5
t-50.5 -53.5t-18.5 -69t18.5 -69zM533.5 267q25.5 43 68 68t91.5 25t91 -25t67 -68t25 -93t-25 -93t-67 -68t-91 -25t-91.5 25t-68 68t-25.5 93t25.5 93zM571.5 105q18.5 -33 50.5 -53.5t71 -20.5t70.5 20.5t49.5 53.5t18 69t-18 69t-49.5 53.5t-70.5 20.5t-71 -20.5
t-50.5 -53.5t-18.5 -69t18.5 -69zM961.5 267q25.5 43 68 68t91.5 25t91 -25t67 -68t25 -93t-25 -93t-67 -68t-91 -25t-91.5 25t-68 68t-25.5 93t25.5 93zM999.5 105q18.5 -33 50.5 -53.5t71 -20.5t70.5 20.5t49.5 53.5t18 69t-18 69t-49.5 53.5t-70.5 20.5t-71 -20.5
t-50.5 -53.5t-18.5 -69t18.5 -69z" />
    <glyph glyph-name="minute" unicode="&#x2032;" horiz-adv-x="270" 
d="M110 745h55l-10 -185h-45v185z" />
    <glyph glyph-name="second" unicode="&#x2033;" horiz-adv-x="395" 
d="M110 745h55l-10 -185h-45v185zM235 745h55l-10 -185h-45v185z" />
    <glyph glyph-name="guilsinglleft" unicode="&#x2039;" horiz-adv-x="256" 
d="M29 269l151 186h47l-147 -186l147 -186h-47z" />
    <glyph glyph-name="guilsinglright" unicode="&#x203a;" horiz-adv-x="256" 
d="M176 269l-147 186h47l151 -186l-151 -186h-47z" />
    <glyph glyph-name="fraction" unicode="&#x2044;" horiz-adv-x="200" 
d="M297 745h52l-446 -745h-52z" />
    <glyph glyph-name="uni2070" unicode="&#x2070;" horiz-adv-x="516" 
d="M152.5 249q-46.5 34 -72 95t-25.5 140t25.5 140t71.5 95t106 34t105.5 -34t71 -95t25.5 -140t-25 -140t-71 -95t-105 -34q-60 0 -106.5 34zM144 321q43 -62 115 -62q71 0 113 62t42 163t-42 163t-114 62t-114.5 -62t-42.5 -163t43 -163z" />
    <glyph glyph-name="uni2074" unicode="&#x2074;" horiz-adv-x="461" 
d="M308 346h-267v37l270 362h41v-360h62v-39h-62v-123h-44v123zM308 385v290l-217 -290h217z" />
    <glyph glyph-name="uni2075" unicode="&#x2075;" horiz-adv-x="446" 
d="M104.5 250q-47.5 35 -62.5 94l39 15q13 -48 49.5 -75.5t85.5 -27.5q55 0 90.5 36.5t35.5 92.5q0 55 -36 91.5t-89 36.5q-35 0 -66 -16.5t-46 -41.5l-38 8l38 282h262v-41h-227l-25 -184q42 36 105 36q47 0 86 -22.5t61 -62t22 -86.5q0 -48 -22 -87t-61.5 -61t-89.5 -22
q-64 0 -111.5 35z" />
    </font>
</defs>
</svg>
