<?xml version="1.0" standalone="no"?>
<!DOCTYPE svg PUBLIC "-//W3C//DTD SVG 1.1//EN" "http://www.w3.org/Graphics/SVG/1.1/DTD/svg11.dtd" >
<svg xmlns="http://www.w3.org/2000/svg" xmlns:xlink="http://www.w3.org/1999/xlink" version="1.1">
<metadata>
Created by FontForge 20170731 at Fri Jan  8 00:23:18 2021
 By Aleksey,,,
Copyright 2021 Stijn de Vries &#38; The Plus Jakarta Sans Project Authors (https://github.com/tokotype/PlusJakartaSans)
</metadata>
<defs>
<font id="EudoxusSans-Light" horiz-adv-x="572" >
  <font-face 
    font-family="Eudoxus Sans Light"
    font-weight="300"
    font-stretch="normal"
    units-per-em="1000"
    panose-1="0 0 0 0 0 0 0 0 0 0"
    ascent="800"
    descent="-200"
    x-height="531"
    cap-height="745"
    bbox="-153 -307 1332 1167"
    underline-thickness="40"
    underline-position="-215"
    unicode-range="U+000D-FB02"
  />
<missing-glyph horiz-adv-x="600" 
d="M492 -240h-380v1200h380v-1200zM400 -157v39h-123l84 57h39v39h-200v-39h84l-84 -57v-39h200zM400 6v136h-200v-136h200zM400 214v135h-120v-67h40v28h40v-57h-120v96h-40v-135h200zM400 376v120h-40v-80h-160v-40h200zM320 444v84h80v40h-200v-40h80v-44h-80v-40h120z
M400 600v41h-80v84h-120v-125h200zM400 756v40h-80v44h80v40h-198v-40h78v-44h-80v-40h200zM240 102h120v-56h-120v56zM240 684h40v-43h-40v43z" />
    <glyph glyph-name="fi" unicode="fi" 
d="M138 474h-108v57h108v51q0 82 48 128.5t122 46.5q24 0 42 -5v-54q-15 3 -36 3q-54 0 -85 -30t-31 -89v-51h308v-531h-60v474h-248v-474h-60v474z" />
    <glyph glyph-name="fl" unicode="fl" horiz-adv-x="615" 
d="M138 474h-108v57h108v51q0 82 48 128.5t122 46.5q24 0 42 -5v-54q-15 3 -36 3q-54 0 -85 -30t-31 -89v-51h275v226h60v-757h-60v474h-275v-474h-60v474z" />
    <glyph glyph-name="f_f" unicode="ff" horiz-adv-x="770" 
d="M138 474h-108v57h108v51q0 82 48 128.5t122 46.5q24 0 42 -5v-54q-15 3 -36 3q-54 0 -85 -30t-31 -89v-51h320v51q0 82 48 128.5t122 46.5q24 0 42 -5v-54q-15 3 -36 3q-54 0 -85 -30t-31 -89v-51h132v-57h-132v-474h-60v474h-320v-474h-60v474z" />
    <glyph glyph-name="f_f_i" unicode="ffi" horiz-adv-x="962" 
d="M138 474h-108v57h108v51q0 82 48 128.5t122 46.5q24 0 42 -5v-54q-15 3 -36 3q-54 0 -85 -30t-31 -89v-51h330v51q0 82 48 128.5t122 46.5q24 0 42 -5v-54q-15 3 -36 3q-54 0 -85 -30t-31 -89v-51h308v-531h-60v474h-248v-474h-60v474h-330v-474h-60v474z" />
    <glyph glyph-name="f_f_l" unicode="ffl" horiz-adv-x="1005" 
d="M138 474h-108v57h108v51q0 82 48 128.5t122 46.5q24 0 42 -5v-54q-15 3 -36 3q-54 0 -85 -30t-31 -89v-51h330v51q0 82 48 128.5t122 46.5q24 0 42 -5v-54q-15 3 -36 3q-54 0 -85 -30t-31 -89v-51h275v226h60v-757h-60v474h-275v-474h-60v474h-330v-474h-60v474z" />
    <glyph glyph-name=".notdef" horiz-adv-x="600" 
d="M492 -240h-380v1200h380v-1200zM400 -157v39h-123l84 57h39v39h-200v-39h84l-84 -57v-39h200zM400 6v136h-200v-136h200zM400 214v135h-120v-67h40v28h40v-57h-120v96h-40v-135h200zM400 376v120h-40v-80h-160v-40h200zM320 444v84h80v40h-200v-40h80v-44h-80v-40h120z
M400 600v41h-80v84h-120v-125h200zM400 756v40h-80v44h80v40h-198v-40h78v-44h-80v-40h200zM240 102h120v-56h-120v56zM240 684h40v-43h-40v43z" />
    <glyph glyph-name=".null" horiz-adv-x="0" 
 />
    <glyph glyph-name="nonmarkingreturn" unicode="&#xd;" horiz-adv-x="170" 
 />
    <glyph glyph-name="space" unicode=" " horiz-adv-x="170" 
 />
    <glyph glyph-name="exclam" unicode="!" horiz-adv-x="269" 
d="M102 745h65l-4 -534h-57zM105 73.5q12 12.5 30 12.5t30 -12t12 -31q0 -18 -12 -30.5t-30 -12.5t-30 12.5t-12 30.5t12 30.5z" />
    <glyph glyph-name="quotedbl" unicode="&#x22;" horiz-adv-x="371" 
d="M83 745h67l-11 -201h-45zM288 745l-11 -201h-45l-12 201h68z" />
    <glyph glyph-name="numbersign" unicode="#" horiz-adv-x="766" 
d="M158 204h-120v58h136l64 222h-120v58h137l58 203h66l-58 -203h222l59 203h66l-59 -203h120v-58h-136l-65 -222h120v-58h-136l-59 -204h-66l59 204h-222l-59 -204h-66zM462 262l65 222h-223l-64 -222h222z" />
    <glyph glyph-name="dollar" unicode="$" horiz-adv-x="643" 
d="M301 -10q-89 9 -153 63t-87 128l58 21q25 -67 71 -106.5t111 -47.5v298l-47 14q-80 23 -121 76t-41 123q0 56 27 100.5t74.5 70t107.5 27.5v88h58v-92q75 -13 129.5 -60.5t74.5 -111.5l-57 -21q-21 55 -58.5 89.5t-88.5 45.5v-300l45 -13q81 -24 124 -74t43 -121
q0 -54 -27 -98t-75 -70t-110 -30v-89h-58v90zM186 474q30 -36 96 -56l19 -6v288q-64 -3 -104.5 -40.5t-40.5 -97.5q0 -52 30 -88zM466.5 89.5q40.5 36.5 40.5 94.5q0 102 -117 136l-31 9v-282q67 6 107.5 42.5z" />
    <glyph glyph-name="percent" unicode="%" horiz-adv-x="951" 
d="M744 745h79l-613 -745h-79zM77.5 662.5q25.5 43.5 69.5 69t95 25.5t94.5 -25.5t69 -69t25.5 -95.5t-25.5 -96t-69 -69.5t-94.5 -25.5t-95 25.5t-69.5 69.5t-25.5 96t25.5 95.5zM129 502.5q17 -30.5 47 -49.5t66 -19t65.5 19t46.5 49.5t17 64.5t-17 64.5t-46.5 49.5
t-65.5 19t-66 -19t-47 -50t-17 -64q0 -34 17 -64.5zM545.5 274.5q25.5 43.5 69.5 69t95 25.5t94.5 -25.5t69 -69t25.5 -95.5t-25.5 -96t-69 -69.5t-94.5 -25.5t-95 25.5t-69.5 69.5t-25.5 96t25.5 95.5zM597 114.5q17 -30.5 47 -49.5t66 -19t65.5 19t46.5 49.5t17 64.5
t-17 64.5t-46.5 49.5t-65.5 19t-66 -19t-47 -50t-17 -64q0 -34 17 -64.5z" />
    <glyph glyph-name="ampersand" unicode="&#x26;" horiz-adv-x="728" 
d="M154 10.5q-46 22.5 -72 63.5t-26 94q0 54 24.5 96.5t54 68.5t77.5 60l1 1q-44 46 -71 92t-27 101q0 48 22.5 87t61.5 61t86 22q46 0 84.5 -21.5t61.5 -59.5t23 -86q0 -67 -39 -113t-99 -88l-3 -2l162 -166l101 150h75l-130 -197l169 -174h-88l-118 119q-42 -58 -96 -94.5
t-131 -36.5q-57 0 -103 22.5zM161 81.5q37 -32.5 97 -32.5q61 0 102.5 31.5t77.5 85.5l-180 183l-6 -4q-41 -29 -66 -51.5t-43.5 -54t-18.5 -70.5q0 -55 37 -87.5zM204.5 510.5q24.5 -37.5 65.5 -78.5l6 4q53 36 83.5 71t30.5 83q0 46 -30.5 76t-74.5 30q-46 0 -75.5 -30.5
t-29.5 -76.5q0 -41 24.5 -78.5z" />
    <glyph glyph-name="quotesingle" unicode="'" horiz-adv-x="233" 
d="M83 745h67l-11 -201h-45z" />
    <glyph glyph-name="parenleft" unicode="(" horiz-adv-x="282" 
d="M89 67q-40 114 -40 239q0 128 39.5 240t115.5 199h58q-72 -97 -110 -210t-38 -229q0 -115 38 -228t110 -213h-58q-75 88 -115 202z" />
    <glyph glyph-name="parenright" unicode=")" horiz-adv-x="282" 
d="M130 78q38 113 38 228q0 116 -38 229t-110 210h58q76 -87 115.5 -199t39.5 -240q0 -126 -39.5 -239.5t-115.5 -201.5h-58q72 100 110 213z" />
    <glyph glyph-name="asterisk" unicode="*" horiz-adv-x="469" 
d="M94 426l90 120l-131 44l18 58l133 -44v141h61v-141l132 44l19 -58l-131 -44l90 -120l-49 -35l-92 119l-91 -119z" />
    <glyph glyph-name="plus" unicode="+" horiz-adv-x="601" 
d="M271 221h-220v60h220v219h60v-219h220v-60h-220v-221h-60v221z" />
    <glyph glyph-name="comma" unicode="," horiz-adv-x="259" 
d="M122 -60q14 24 14 60q-16 0 -27.5 11.5t-11.5 26.5q0 17 11 27.5t27 10.5q17 0 27 -16t10 -40q0 -55 -24 -92t-65 -48v29q25 7 39 31z" />
    <glyph glyph-name="hyphen" unicode="-" horiz-adv-x="483" 
d="M74 295h335v-58h-335v58z" />
    <glyph glyph-name="period" unicode="." horiz-adv-x="274" 
d="M108 12q-12 12 -12 31t12 31.5t29 12.5t29 -12.5t12 -31.5t-11.5 -31t-29.5 -12q-17 0 -29 12z" />
    <glyph glyph-name="slash" unicode="/" horiz-adv-x="413" 
d="M340 785h71l-338 -825h-71z" />
    <glyph glyph-name="zero" unicode="0" horiz-adv-x="723" 
d="M211 36.5q-66 48.5 -102.5 136t-36.5 200.5q0 114 36.5 201t102 135t151.5 48t151.5 -48t101.5 -135t36 -201t-36 -201.5t-101 -135.5t-151 -48t-152 48.5zM164.5 204.5q27.5 -73.5 79 -114t119.5 -40.5t118.5 40.5t78 113.5t27.5 169t-27.5 169t-78.5 113.5t-119 40.5
t-119 -40.5t-78.5 -113.5t-27.5 -169q0 -95 27.5 -168.5z" />
    <glyph glyph-name="one" unicode="1" horiz-adv-x="355" 
d="M180 688h-140v57h205v-745h-65v688z" />
    <glyph glyph-name="two" unicode="2" horiz-adv-x="589" 
d="M57 40l209 230q-2 -3 38 41q60 65 87.5 99t43 68.5t15.5 74.5q0 69 -41.5 108t-114.5 39q-71 0 -119 -40.5t-65 -114.5l-59 13q20 93 85.5 146t157.5 53q63 0 113.5 -25.5t79 -72t28.5 -106.5q0 -43 -18.5 -84.5t-52.5 -84.5t-96 -111l-196 -215h379v-58h-474v40z" />
    <glyph glyph-name="three" unicode="3" horiz-adv-x="604" 
d="M137.5 36.5q-66.5 48.5 -90.5 134.5l55 21q20 -68 70 -107t121 -39q83 0 134 48.5t51 129.5q0 83 -51.5 128t-132.5 45q-22 0 -50 -4l-11 27l205 268h-360v57h437v-50l-190 -247q60 -4 109.5 -32.5t78.5 -78t29 -113.5q0 -65 -31.5 -119t-88 -85.5t-128.5 -31.5
q-90 0 -156.5 48.5z" />
    <glyph glyph-name="four" unicode="4" horiz-adv-x="618" 
d="M429 176h-384v53l386 516h58v-514h86v-55h-86v-176h-60v176zM429 231v417l-314 -417h314z" />
    <glyph glyph-name="five" unicode="5" horiz-adv-x="612" 
d="M144.5 37.5q-67.5 49.5 -90.5 133.5l54 21q19 -68 72 -107t123 -39q53 0 94 24t64 66.5t23 95.5q0 52 -24 94t-65 65.5t-91 23.5q-51 0 -95.5 -23.5t-65.5 -58.5l-53 11l55 402h374v-57h-326l-37 -265q29 25 68.5 38t82.5 13q68 0 123.5 -32t87 -88t31.5 -123
q0 -69 -31.5 -125t-88 -87.5t-126.5 -31.5q-91 0 -158.5 49.5z" />
    <glyph glyph-name="six" unicode="6" horiz-adv-x="592" 
d="M175 19.5q-54 31.5 -84.5 87.5t-30.5 127q0 63 23.5 121t71.5 121l203 269h78l-234 -310q41 25 103 25q64 0 116.5 -30t83 -83.5t30.5 -121.5q0 -67 -31 -121.5t-85.5 -85t-121.5 -30.5q-68 0 -122 31.5zM148.5 132q22.5 -40 62 -63t87.5 -23q49 0 88 23t61.5 63.5
t22.5 90.5q0 51 -22.5 92t-61.5 64t-88 23t-88 -23t-61.5 -64t-22.5 -92t22.5 -91z" />
    <glyph glyph-name="seven" unicode="7" horiz-adv-x="533" 
d="M419 689h-377v57h448v-55l-344 -691h-69z" />
    <glyph glyph-name="eight" unicode="8" horiz-adv-x="617" 
d="M183.5 17.5q-55.5 29.5 -87.5 81t-32 116.5q0 67 35.5 120.5t95.5 79.5q-43 25 -66.5 65.5t-23.5 87.5q0 53 26.5 96.5t73.5 68t104 24.5t103.5 -24.5t72.5 -67.5t26 -97q0 -49 -23 -88t-66 -65q61 -26 96.5 -79.5t35.5 -120.5q0 -65 -32 -116.5t-88 -81t-125 -29.5
q-70 0 -125.5 29.5zM178.5 92q49.5 -46 130.5 -46q80 0 130 46t50 122q0 75 -50 121.5t-130 46.5q-81 0 -130.5 -46.5t-49.5 -121.5q0 -76 49.5 -122zM209.5 476.5q39.5 -36.5 99.5 -36.5q59 0 98 36.5t39 93.5t-39 93.5t-98 36.5q-60 0 -99.5 -36.5t-39.5 -93.5t39.5 -93.5
z" />
    <glyph glyph-name="nine" unicode="9" horiz-adv-x="592" 
d="M391 311q-44 -26 -104 -26q-64 0 -116.5 30t-83 84t-30.5 122q0 67 31.5 121t86 84.5t120.5 30.5q68 0 122 -31.5t84.5 -87t30.5 -126.5q0 -64 -23.5 -121.5t-71.5 -121.5l-203 -269h-77zM145 430.5q22 -40.5 61.5 -63.5t88.5 -23t88 23t61.5 63.5t22.5 91.5t-22.5 91.5
t-62 63.5t-87.5 23q-49 0 -88 -23t-61.5 -63.5t-22.5 -91.5t22 -91.5z" />
    <glyph glyph-name="colon" unicode=":" horiz-adv-x="274" 
d="M106.5 12.5q-12.5 12.5 -12.5 31.5q0 18 12.5 30.5t30.5 12.5q19 0 31 -12.5t12 -30.5q0 -19 -12 -31.5t-31 -12.5q-18 0 -30.5 12.5zM106.5 519q12.5 12 30.5 12q19 0 31 -12t12 -31q0 -18 -12 -30.5t-31 -12.5q-18 0 -30.5 12.5t-12.5 30.5q0 19 12.5 31z" />
    <glyph glyph-name="semicolon" unicode=";" horiz-adv-x="294" 
d="M125.5 457.5q-12.5 12.5 -12.5 30.5q0 19 12.5 31t31.5 12q18 0 30.5 -12t12.5 -31q0 -18 -12 -30.5t-31 -12.5t-31.5 12.5zM103 -91q25 7 39 31t14 60q-16 0 -27.5 11.5t-11.5 26.5q0 17 11 27.5t27 10.5q17 0 27 -16t10 -40q0 -55 -24 -92t-65 -48v29z" />
    <glyph glyph-name="less" unicode="&#x3c;" horiz-adv-x="533" 
d="M68 240v52l397 195v-66l-321 -155l321 -156v-65z" />
    <glyph glyph-name="equal" unicode="=" horiz-adv-x="670" 
d="M110 399h450v-60h-450v60zM110 164h450v-60h-450v60z" />
    <glyph glyph-name="greater" unicode="&#x3e;" horiz-adv-x="518" 
d="M68 110l321 156l-321 155v66l397 -195v-52l-397 -195v65z" />
    <glyph glyph-name="question" unicode="?" horiz-adv-x="487" 
d="M192.5 322.5q28.5 43.5 83.5 94.5q52 50 77 85.5t25 82.5t-35 81t-94 34q-60 0 -101.5 -36.5t-54.5 -100.5l-58 12q14 83 72.5 132.5t141.5 49.5q55 0 99 -23.5t69.5 -63.5t25.5 -86q0 -55 -27.5 -95.5t-81.5 -92.5l-21 -21q-42 -42 -64.5 -78t-22.5 -79v-7h-62v7
q0 61 28.5 104.5zM167 73q12 12 30 12t30 -11.5t12 -30.5q0 -18 -12 -30.5t-30 -12.5t-30 12.5t-12 30.5t12 30z" />
    <glyph glyph-name="at" unicode="@" horiz-adv-x="928" 
d="M275 -10q-94 55 -148.5 149.5t-54.5 208.5q0 113 54.5 207t149 148t207.5 54q118 0 211.5 -56.5t145.5 -149.5t52 -199q0 -96 -43.5 -153.5t-113.5 -57.5q-42 0 -75 21t-47 57q-24 -39 -62 -58.5t-86 -19.5q-57 0 -103.5 27.5t-73 76t-26.5 108.5q0 59 27 108t73.5 77
t102.5 28q44 0 82.5 -18t62.5 -51v59h57v-280q0 -37 18 -57t52 -20q43 0 68 39.5t25 112.5q0 98 -44.5 177.5t-123.5 125.5t-179 46t-180 -46.5t-125 -126t-45 -176.5q0 -99 44.5 -181t125 -130t183.5 -48q94 0 165 41l26 -51q-41 -23 -91 -35t-103 -12q-114 0 -208 55z
M342.5 274q18.5 -35 51 -55t72.5 -20q61 0 100 43.5t39 111.5q0 67 -39 110t-100 43q-40 0 -72.5 -19.5t-51 -54.5t-18.5 -80q0 -44 18.5 -79z" />
    <glyph glyph-name="A" unicode="A" horiz-adv-x="648" 
d="M291 745h67l274 -745h-70l-68 190h-339l-69 -190h-69zM472 250l-148 412l-148 -412h296z" />
    <glyph glyph-name="B" unicode="B" horiz-adv-x="694" 
d="M94 745h307q60 0 106 -23.5t71.5 -66t25.5 -97.5q0 -52 -24.5 -94t-68.5 -65q57 -24 90 -74t33 -112q0 -98 -62 -155.5t-171 -57.5h-307v745zM397 60q79 0 125.5 41t46.5 111q0 69 -45.5 110.5t-121.5 41.5h-243v-304h238zM395 423q65 0 104.5 37t39.5 97t-38.5 94
t-105.5 34h-236v-262h236z" />
    <glyph glyph-name="C" unicode="C" horiz-adv-x="785" 
d="M245.5 37.5q-81.5 49.5 -127.5 137.5t-46 198t46 197.5t127.5 137t183.5 49.5q71 0 131.5 -26.5t102.5 -68.5t61 -88l-61 -27q-31 69 -92 109t-142 40q-85 0 -151.5 -40.5t-103.5 -114t-37 -168.5t37 -168.5t103.5 -114t151.5 -40.5q81 0 142 39.5t92 108.5l61 -27
q-19 -46 -61 -88t-102.5 -68.5t-131.5 -26.5q-102 0 -183.5 49.5z" />
    <glyph glyph-name="D" unicode="D" horiz-adv-x="743" 
d="M94 745h241q108 0 189.5 -45.5t125.5 -129.5t44 -197q0 -112 -44.5 -196.5t-125.5 -130.5t-189 -46h-241v745zM334 60q88 0 154 39t102.5 109.5t36.5 164.5q0 93 -36.5 164t-103 109.5t-153.5 38.5h-175v-625h175z" />
    <glyph glyph-name="E" unicode="E" horiz-adv-x="613" 
d="M94 745h470v-60h-405v-281h385v-60h-385v-284h405v-60h-470v745z" />
    <glyph glyph-name="F" unicode="F" horiz-adv-x="587" 
d="M94 745h455v-60h-390v-281h355v-60h-355v-344h-65v745z" />
    <glyph glyph-name="G" unicode="G" horiz-adv-x="828" 
d="M246 37.5q-82 49.5 -128 137t-46 197.5t46.5 198t128 137.5t184.5 49.5q73 0 134 -26t103.5 -68t61.5 -89l-60 -28q-31 70 -92.5 110t-146.5 40t-152 -41t-104.5 -114.5t-37.5 -168.5t37.5 -168t104.5 -113.5t152 -40.5q77 0 138.5 34.5t97 95t35.5 135.5v4h-271v58h336
v-56q0 -92 -44 -168.5t-120.5 -120.5t-171.5 -44q-103 0 -185 49.5z" />
    <glyph glyph-name="H" unicode="H" horiz-adv-x="737" 
d="M94 745h65v-339h420v339h65v-745h-65v346h-420v-346h-65v745z" />
    <glyph glyph-name="I" unicode="I" horiz-adv-x="252" 
d="M94 745h65v-745h-65v745z" />
    <glyph glyph-name="J" unicode="J" horiz-adv-x="382" 
d="M61 65h39q58 0 91 35.5t33 99.5v545h65v-547q0 -91 -51 -144.5t-138 -53.5h-39v65z" />
    <glyph glyph-name="K" unicode="K" horiz-adv-x="653" 
d="M94 745h65v-417l373 417h84l-282 -317l302 -428h-79l-269 379l-129 -146v-233h-65v745z" />
    <glyph glyph-name="L" unicode="L" horiz-adv-x="532" 
d="M94 745h65v-685h335v-60h-400v745z" />
    <glyph glyph-name="M" unicode="M" horiz-adv-x="827" 
d="M94 745h55l265 -394l265 394h55v-745h-65v617l-254 -379h-3l-253 378v-616h-65v745z" />
    <glyph glyph-name="N" unicode="N" horiz-adv-x="737" 
d="M94 745h55l430 -617v617h65v-745h-55l-430 618v-618h-65v745z" />
    <glyph glyph-name="O" unicode="O" horiz-adv-x="881" 
d="M255.5 37.5q-84.5 49.5 -134 137.5t-49.5 198t49.5 197.5t134 137t185.5 49.5t185.5 -49.5t134 -137t49.5 -197.5t-49.5 -198t-134 -137.5t-185.5 -49.5t-185.5 49.5zM175.5 211q38.5 -74 108 -117.5t157.5 -43.5q87 0 156.5 43.5t108.5 117.5t39 162q0 87 -38.5 161
t-108 118t-157.5 44t-157.5 -44t-108 -118t-38.5 -161q0 -88 38.5 -162z" />
    <glyph glyph-name="P" unicode="P" horiz-adv-x="644" 
d="M94 745h250q70 0 124.5 -28.5t85 -79.5t30.5 -117t-30 -117t-84.5 -79.5t-125.5 -28.5h-185v-295h-65v745zM346 355q77 0 125 45.5t48 120.5q0 74 -47.5 119t-125.5 45h-187v-330h187z" />
    <glyph glyph-name="Q" unicode="Q" horiz-adv-x="881" 
d="M255.5 37.5q-84.5 49.5 -134 137.5t-49.5 198t49.5 197.5t134 137t185.5 49.5t185.5 -49.5t134 -137t49.5 -197.5q0 -83 -28.5 -154t-79.5 -123l94 -104l-53 -41l-92 102q-93 -65 -210 -65q-101 0 -185.5 49.5zM175.5 211q38.5 -74 108 -117.5t157.5 -43.5q94 0 167 50
l-180 199l54 40l177 -195q41 45 63.5 104t22.5 125q0 87 -38.5 161t-108 118t-157.5 44t-157.5 -44t-108 -118t-38.5 -161q0 -88 38.5 -162z" />
    <glyph glyph-name="R" unicode="R" horiz-adv-x="638" 
d="M94 745h250q70 0 124.5 -28.5t85 -79.5t30.5 -117q0 -80 -43 -137t-117 -77l176 -306h-77l-167 295h-197v-295h-65v745zM346 355q77 0 125 45.5t48 120.5q0 74 -47.5 119t-125.5 45h-187v-330h187z" />
    <glyph glyph-name="S" unicode="S" horiz-adv-x="643" 
d="M210.5 14.5q-56.5 26.5 -95 70.5t-54.5 96l58 20q27 -73 87 -114t129 -41q49 0 88.5 19t61.5 50.5t22 68.5q0 51 -32 87t-85 49l-136 36q-79 20 -120.5 76t-41.5 127q0 58 28 103t77.5 70t111.5 25t114.5 -23.5t88.5 -64t51 -88.5l-57 -21q-25 66 -80 103t-116 37
q-44 0 -79 -18.5t-55 -50t-20 -69.5q0 -52 32 -89.5t94 -54.5l122 -32q80 -21 123.5 -73.5t43.5 -125.5q0 -58 -30 -103t-83.5 -70.5t-121.5 -25.5q-69 0 -125.5 26.5z" />
    <glyph glyph-name="T" unicode="T" horiz-adv-x="513" 
d="M225 685h-208v60h480v-60h-207v-685h-65v685z" />
    <glyph glyph-name="U" unicode="U" horiz-adv-x="695" 
d="M213.5 21q-58.5 33 -91 91.5t-32.5 134.5v498h65v-500q0 -58 24 -102.5t68 -69.5t101 -25q56 0 100 25t68 69.5t24 102.5v500h65v-498q0 -76 -32 -135t-90.5 -91.5t-134.5 -32.5t-134.5 33z" />
    <glyph glyph-name="V" unicode="V" horiz-adv-x="653" 
d="M17 745h69l241 -661l240 661h70l-277 -745h-66z" />
    <glyph glyph-name="W" unicode="W" horiz-adv-x="986" 
d="M17 745h67l185 -646l191 646h67l190 -646l185 646h68l-219 -745h-66l-191 649l-192 -649h-67z" />
    <glyph glyph-name="X" unicode="X" horiz-adv-x="593" 
d="M258 381l-232 364h76l195 -308l194 308h75l-232 -364l243 -381h-76l-204 325l-205 -325h-75z" />
    <glyph glyph-name="Y" unicode="Y" horiz-adv-x="624" 
d="M280 340l-263 405h73l222 -339l222 339h73l-262 -405v-340h-65v340z" />
    <glyph glyph-name="Z" unicode="Z" horiz-adv-x="595" 
d="M28 42l444 643h-418v60h504v-42l-443 -643h453v-60h-540v42z" />
    <glyph glyph-name="bracketleft" unicode="[" horiz-adv-x="298" 
d="M88 745h185v-57h-120v-766h120v-57h-185v880z" />
    <glyph glyph-name="backslash" unicode="\" horiz-adv-x="413" 
d="M2 785h71l338 -825h-71z" />
    <glyph glyph-name="bracketright" unicode="]" horiz-adv-x="298" 
d="M25 -78h120v766h-120v57h185v-880h-185v57z" />
    <glyph glyph-name="asciicircum" unicode="^" horiz-adv-x="486" 
d="M217 745h53l168 -318h-69l-125 240l-126 -240h-69z" />
    <glyph glyph-name="underscore" unicode="_" horiz-adv-x="573" 
d="M74 0h425v-58h-425v58z" />
    <glyph glyph-name="grave" unicode="`" horiz-adv-x="348" 
d="M103 784h64l78 -144h-51z" />
    <glyph glyph-name="a" unicode="a" horiz-adv-x="573" 
d="M146 7q-40 19 -62.5 53t-22.5 78q0 62 41.5 106.5t129.5 59.5l199 33v30q0 53 -38 86t-99 33q-49 0 -89.5 -24.5t-61.5 -65.5l-54 29q23 50 80.5 84t124.5 34q57 0 102 -22.5t70 -62.5t25 -91v-367h-60v92q-26 -45 -78.5 -74.5t-117.5 -29.5q-49 0 -89 19zM156.5 70
q32.5 -27 82.5 -27q56 0 100 26t68 70t24 96v46l-183 -30q-124 -20 -124 -111q0 -43 32.5 -70z" />
    <glyph glyph-name="b" unicode="b" horiz-adv-x="671" 
d="M228.5 18q-54.5 30 -85.5 83v-101h-60v757h60v-324q32 51 86 80.5t120 29.5q73 0 133 -36t94 -99.5t34 -141.5t-34 -141.5t-94 -100t-133 -36.5q-66 0 -120.5 30zM170.5 154.5q26.5 -49.5 73 -78t103.5 -28.5t102.5 28.5t71 78t25.5 111.5q0 61 -26 110.5t-71.5 78
t-101.5 28.5q-57 0 -103.5 -28.5t-73 -78t-26.5 -110.5q0 -62 26.5 -111.5z" />
    <glyph glyph-name="c" unicode="c" horiz-adv-x="604" 
d="M188 24.5q-61 36.5 -95.5 100t-34.5 141.5q0 79 34.5 142t95.5 99t137 36q73 0 133.5 -36.5t87.5 -93.5l-53 -28q-24 46 -68.5 73t-99.5 27q-57 0 -103.5 -28t-74 -78t-27.5 -113t27.5 -113t74 -78t103.5 -28q55 0 99.5 27t68.5 74l53 -29q-27 -57 -88 -94t-133 -37
q-76 0 -137 36.5z" />
    <glyph glyph-name="d" unicode="d" horiz-adv-x="671" 
d="M189 24.5q-60 36.5 -94 100t-34 141.5t34 141.5t94 99.5t133 36q66 0 120 -29.5t86 -80.5v324h60v-757h-60v101q-31 -53 -85.5 -83t-120.5 -30q-73 0 -133 36.5zM150.5 154.5q25.5 -49.5 71 -78t102.5 -28.5t103.5 28.5t73 78t26.5 111.5q0 61 -26.5 110.5t-73 78
t-103.5 28.5q-56 0 -101.5 -28.5t-71.5 -78t-26 -110.5q0 -62 25.5 -111.5z" />
    <glyph glyph-name="e" unicode="e" horiz-adv-x="621" 
d="M191.5 24.5q-60.5 36.5 -95.5 100.5t-35 142t33.5 141t92 99t130.5 36q71 0 126.5 -34.5t86.5 -92t31 -125.5q0 -23 -4 -44h-434q2 -59 30 -105.5t73.5 -72t99.5 -25.5q56 0 99.5 27t71.5 74l51 -27q-28 -58 -87.5 -94t-134.5 -36q-74 0 -134.5 36.5zM497 302
q0 52 -24 94.5t-65 66.5t-91 24q-49 0 -91.5 -23.5t-69.5 -65.5t-32 -96h373z" />
    <glyph glyph-name="f" unicode="f" horiz-adv-x="390" 
d="M138 474h-108v57h108v51q0 82 48 128.5t122 46.5q24 0 42 -5v-54q-15 3 -36 3q-54 0 -85 -30t-31 -89v-51h132v-57h-132v-474h-60v474z" />
    <glyph glyph-name="g" unicode="g" horiz-adv-x="663" 
d="M192.5 -184.5q-60.5 35.5 -89.5 92.5l54 30q23 -46 68 -73t105 -27q51 0 94.5 20.5t70 61.5t26.5 100v100q-31 -53 -84 -82.5t-117 -29.5q-73 0 -132.5 35.5t-93 97t-33.5 135.5q0 73 33.5 134.5t93 97t132.5 35.5q64 0 116.5 -29t84.5 -79v96h60v-511q0 -69 -32 -123.5
t-89 -85.5t-129 -31q-78 0 -138.5 35.5zM150.5 171.5q25.5 -47.5 70.5 -75.5t101 -28q55 0 100 28t71 75.5t26 104.5q0 56 -26 103.5t-71 75.5t-100 28q-56 0 -101 -28t-70.5 -75t-25.5 -104t25.5 -104.5z" />
    <glyph glyph-name="h" unicode="h" 
d="M83 757h60v-297q24 39 65.5 61t92.5 22q54 0 99.5 -25t72.5 -70t27 -101v-347h-60v330q0 71 -41.5 112.5t-106.5 41.5q-67 0 -108 -45.5t-41 -118.5v-320h-60v757z" />
    <glyph glyph-name="i" unicode="i" horiz-adv-x="225" 
d="M83 531h60v-531h-60v531zM84.5 700q11.5 12 28.5 12t28.5 -11.5t11.5 -29.5t-11 -30t-29 -12q-17 0 -28.5 12t-11.5 30q0 17 11.5 29z" />
    <glyph glyph-name="j" unicode="j" horiz-adv-x="225" 
d="M-60 -216v55q18 -3 39 -3q48 0 76 28t28 80v587h60v-587q0 -78 -45.5 -121t-118.5 -43q-26 0 -39 4zM84.5 700q11.5 12 28.5 12t28.5 -11.5t11.5 -29.5t-11 -30t-29 -12q-17 0 -28.5 12t-11.5 30q0 17 11.5 29z" />
    <glyph glyph-name="k" unicode="k" horiz-adv-x="544" 
d="M83 757h60v-507l283 281h82l-214 -214l234 -317h-75l-204 274l-106 -109v-165h-60v757z" />
    <glyph glyph-name="l" unicode="l" horiz-adv-x="225" 
d="M83 757h60v-757h-60v757z" />
    <glyph glyph-name="m" unicode="m" horiz-adv-x="909" 
d="M83 531h60v-70q23 38 63.5 60t89.5 22q55 0 102 -29t72 -77q22 49 68.5 77.5t102.5 28.5q52 0 97.5 -25t72.5 -70t27 -101v-347h-60v330q0 70 -41 112t-102 42q-64 0 -104.5 -46t-40.5 -118v-320h-60v330q0 70 -40.5 112t-102.5 42q-64 0 -104 -46t-40 -118v-320h-60v531
z" />
    <glyph glyph-name="n" unicode="n" 
d="M83 531h60v-71q24 39 65.5 61t92.5 22q54 0 99.5 -25t72.5 -70t27 -101v-347h-60v330q0 71 -41.5 112.5t-106.5 41.5q-68 0 -108.5 -45.5t-40.5 -118.5v-320h-60v531z" />
    <glyph glyph-name="o" unicode="o" horiz-adv-x="659" 
d="M193.5 24.5q-61.5 36.5 -97 100t-35.5 141.5t35 141.5t96.5 99.5t137.5 36t137 -36t96 -99.5t35 -141.5q0 -79 -35.5 -142.5t-97 -99.5t-135.5 -36q-75 0 -136.5 36.5zM152 155q27 -50 74 -79t104 -29q56 0 103 29t74 79t27 111t-27 111t-73.5 78.5t-103.5 28.5
t-104 -28.5t-74 -78.5t-27 -111t27 -111z" />
    <glyph glyph-name="p" unicode="p" horiz-adv-x="671" 
d="M83 531h60v-98q32 51 86 80.5t120 29.5q73 0 133 -36t94 -99.5t34 -141.5t-34 -141.5t-94 -100t-133 -36.5q-66 0 -120.5 30t-85.5 83v-301h-60v731zM170.5 154.5q26.5 -49.5 73 -78t103.5 -28.5t102.5 28.5t71 78t25.5 111.5q0 61 -26 110.5t-71.5 78t-101.5 28.5
q-57 0 -103.5 -28.5t-73 -78t-26.5 -110.5q0 -62 26.5 -111.5z" />
    <glyph glyph-name="q" unicode="q" horiz-adv-x="671" 
d="M528 101q-31 -53 -85.5 -83t-120.5 -30q-73 0 -133 36.5t-94 100t-34 141.5t34 141.5t94 99.5t133 36q66 0 120 -29.5t86 -80.5v98h60v-731h-60v301zM150.5 154.5q25.5 -49.5 71 -78t102.5 -28.5t103.5 28.5t73 78t26.5 111.5q0 61 -26.5 110.5t-73 78t-103.5 28.5
q-56 0 -101.5 -28.5t-71.5 -78t-26 -110.5q0 -62 25.5 -111.5z" />
    <glyph glyph-name="r" unicode="r" horiz-adv-x="339" 
d="M83 531h60v-67q20 35 58.5 54.5t87.5 19.5h34v-60h-41q-64 0 -101.5 -41.5t-37.5 -111.5v-325h-60v531z" />
    <glyph glyph-name="s" unicode="s" horiz-adv-x="508" 
d="M136 23.5q-56 35.5 -84 98.5l52 26q26 -49 68 -76.5t91 -27.5q53 0 88.5 26.5t35.5 67.5q0 37 -27 61t-67 32l-82 15q-69 17 -103 56t-34 92q0 44 23 78t62.5 52.5t87.5 18.5q65 0 118 -33.5t75 -88.5l-53 -27q-22 44 -59.5 69t-82.5 25q-48 0 -78.5 -25.5t-30.5 -64.5
q0 -36 24.5 -59t60.5 -30l89 -16q66 -17 102.5 -58.5t36.5 -95.5q0 -43 -24 -77.5t-66 -54t-95 -19.5q-72 0 -128 35.5z" />
    <glyph glyph-name="t" unicode="t" horiz-adv-x="384" 
d="M173.5 31.5q-35.5 37.5 -35.5 109.5v333h-100v57h38q29 0 45.5 17.5t16.5 49.5v57h60v-124h116v-57h-116v-333q0 -90 87 -90q23 0 38 3v-55q-19 -5 -47 -5q-67 0 -102.5 37.5z" />
    <glyph glyph-name="u" unicode="u" 
d="M171.5 13q-45.5 25 -72.5 71.5t-27 107.5v339h60v-334q0 -69 41.5 -109.5t106.5 -40.5q68 0 108.5 45.5t40.5 119.5v319h60v-531h-60v71q-24 -39 -65.5 -61t-92.5 -22q-54 0 -99.5 25z" />
    <glyph glyph-name="v" unicode="v" horiz-adv-x="518" 
d="M17 531h67l175 -448l174 448h69l-213 -531h-62z" />
    <glyph glyph-name="w" unicode="w" horiz-adv-x="783" 
d="M17 531h67l145 -440l132 440h61l132 -440l146 440h67l-183 -531h-61l-131 439l-132 -439h-61z" />
    <glyph glyph-name="x" unicode="x" horiz-adv-x="481" 
d="M204 266l-186 265h75l148 -213l148 213h75l-186 -265l186 -266h-75l-148 214l-149 -214h-75z" />
    <glyph glyph-name="y" unicode="y" horiz-adv-x="530" 
d="M231 1l-214 531h66l181 -453l182 453h67l-300 -732h-66z" />
    <glyph glyph-name="z" unicode="z" horiz-adv-x="442" 
d="M28 48l309 426h-291v57h372v-47l-308 -426h310v-58h-392v48z" />
    <glyph glyph-name="braceleft" unicode="{" horiz-adv-x="304" 
d="M151.5 -97.5q-37.5 37.5 -37.5 98.5v199q0 35 -16.5 55.5t-50.5 20.5h-28v58h28q34 0 50.5 20.5t16.5 56.5v198q0 61 37.5 98.5t96.5 37.5h31v-57h-31q-32 0 -51 -22t-18 -56v-197q3 -65 -44 -108q23 -20 34 -48.5t10 -58.5v-198q-1 -34 18 -56t51 -22h31v-57h-31
q-59 0 -96.5 37.5z" />
    <glyph glyph-name="bar" unicode="|" horiz-adv-x="285" 
d="M110 845h65v-1035h-65v1035z" />
    <glyph glyph-name="braceright" unicode="}" horiz-adv-x="304" 
d="M25 -78h31q32 0 51 22t18 56v198q-1 30 10.5 58.5t33.5 48.5q-46 43 -44 108v197q1 34 -18 56t-51 22h-31v57h31q59 0 96.5 -37.5t37.5 -98.5v-198q0 -36 17 -56.5t51 -20.5h27v-58h-27q-34 0 -51 -20.5t-17 -55.5v-199q0 -61 -37.5 -98.5t-96.5 -37.5h-31v57z" />
    <glyph glyph-name="asciitilde" unicode="~" horiz-adv-x="610" 
d="M348 222.5q-22 10.5 -51 30.5q-24 18 -42 26.5t-40 8.5q-62 0 -72 -72h-55q4 62 38.5 95.5t85.5 33.5q31 0 53 -10.5t51 -30.5q24 -18 42 -26.5t40 -8.5q58 0 69 72h55q-4 -63 -37 -96t-84 -33q-31 0 -53 10.5z" />
    <glyph glyph-name="uni00A0" unicode="&#xa0;" horiz-adv-x="170" 
 />
    <glyph glyph-name="exclamdown" unicode="&#xa1;" horiz-adv-x="269" 
d="M106 320h57l4 -534h-65zM105 519q12 12 30 12t30 -11.5t12 -30.5q0 -18 -12 -30.5t-30 -12.5t-30 12.5t-12 30.5t12 30z" />
    <glyph glyph-name="cent" unicode="&#xa2;" horiz-adv-x="604" 
d="M292 98q-67 8 -119.5 45.5t-82 97.5t-29.5 133q0 72 29.5 132t82 97.5t119.5 45.5v96h58v-95q65 -7 117 -42.5t76 -87.5l-53 -28q-21 41 -57.5 67t-82.5 32v-436q46 6 82.5 32t57.5 68l53 -28q-24 -52 -76 -87.5t-117 -42.5v-97h-58v98zM170.5 228q47.5 -60 121.5 -71
v432q-74 -11 -121.5 -70.5t-47.5 -145.5q0 -85 47.5 -145z" />
    <glyph glyph-name="sterling" unicode="&#xa3;" horiz-adv-x="646" 
d="M47 58h100v293h-100v55h100v131q0 65 28 115t79 77.5t117 27.5q91 0 153 -51t75 -141l-59 -13q-9 71 -54 109.5t-115 38.5q-73 0 -116 -44t-43 -119v-131h185v-55h-185v-293h344v-58h-509v58z" />
    <glyph glyph-name="currency" unicode="&#xa4;" horiz-adv-x="586" 
d="M61 77l75 75q-40 52 -40 117q0 63 40 118l-75 75l40 40l75 -75q25 18 56 29t61 11q62 0 118 -40l75 75l40 -40l-75 -75q39 -56 39 -118q0 -64 -39 -117l75 -75l-40 -40l-75 75q-53 -40 -118 -40q-29 0 -60 10t-57 30l-75 -75zM174.5 202q18.5 -31 50.5 -49.5t68 -18.5
q37 0 68 18.5t49.5 49.5t18.5 67q0 37 -18.5 68t-49.5 49.5t-68 18.5q-36 0 -68 -18.5t-50.5 -49.5t-18.5 -68q0 -36 18.5 -67z" />
    <glyph glyph-name="yen" unicode="&#xa5;" horiz-adv-x="624" 
d="M280 153h-143v55h143v100h-143v55h128l-248 382h73l222 -339l222 339h73l-247 -382h127v-55h-142v-100h142v-55h-142v-153h-65v153z" />
    <glyph glyph-name="brokenbar" unicode="&#xa6;" horiz-adv-x="285" 
d="M110 845h65v-417h-65v417zM110 228h65v-418h-65v418z" />
    <glyph glyph-name="section" unicode="&#xa7;" horiz-adv-x="538" 
d="M137 -58.5q-60 39.5 -87 105.5l54 26q26 -53 71.5 -83t99.5 -30q55 0 91.5 28t36.5 72q0 37 -27 60.5t-71 36.5l-87 25q-71 20 -106 58.5t-35 91.5q0 47 25.5 84t69.5 56q-85 44 -85 128q0 46 24 81.5t65 55.5t92 20q69 0 125.5 -36t78.5 -96l-55 -26q-22 47 -62.5 74
t-88.5 27q-51 0 -83 -27t-32 -69q0 -35 25 -57.5t64 -33.5l94 -27q68 -20 105.5 -61t37.5 -96q0 -44 -24.5 -80t-67.5 -56q39 -24 60.5 -57.5t21.5 -74.5q0 -45 -25 -81.5t-69 -57t-99 -20.5q-77 0 -137 39.5zM166 279.5q25 -23.5 64 -34.5l92 -26q41 9 66 37t25 67
q0 74 -98 102l-71 20q-46 -4 -74.5 -33t-28.5 -72q0 -37 25 -60.5z" />
    <glyph glyph-name="dieresis" unicode="&#xa8;" horiz-adv-x="451" 
d="M117.5 679q-14.5 14 -14.5 35t14.5 35t34.5 14t34.5 -14t14.5 -35t-14.5 -35t-34.5 -14t-34.5 14zM265.5 749q14.5 14 34.5 14t34 -14t14 -35t-14 -35t-34 -14t-34.5 14t-14.5 35t14.5 35z" />
    <glyph glyph-name="copyright" unicode="&#xa9;" horiz-adv-x="895" 
d="M254.5 39.5q-88.5 51.5 -140 140t-51.5 193.5q0 104 51.5 192t139.5 140t194 52q105 0 193 -52t139.5 -140t51.5 -192q0 -106 -52 -194t-140 -139.5t-192 -51.5q-105 0 -193.5 51.5zM166 208.5q43 -74.5 117.5 -118t164.5 -43.5q89 0 163.5 43.5t117.5 118t43 164.5
q0 89 -43 163.5t-117.5 118t-163.5 43.5q-90 0 -164.5 -43.5t-117.5 -118t-43 -163.5q0 -90 43 -164.5zM279 480.5q26 47.5 72 74.5t102 27q60 0 105.5 -30.5t61.5 -72.5l-53 -26q-13 33 -43 53.5t-71 20.5q-62 0 -101 -43t-39 -111q0 -69 39 -112t101 -43q40 0 70 20.5
t44 53.5l53 -25q-16 -43 -61.5 -73.5t-105.5 -30.5q-56 0 -102 27t-72 75t-26 108t26 107.5z" />
    <glyph glyph-name="ordfeminine" unicode="&#xaa;" horiz-adv-x="456" 
d="M96.5 393.5q-35.5 29.5 -35.5 76.5q0 45 30.5 76.5t92.5 41.5l131 22v18q0 33 -24.5 53.5t-62.5 20.5q-33 0 -59 -16.5t-39 -44.5l-51 27q17 38 59 62.5t91 24.5q64 0 104 -35.5t40 -91.5v-256h-56v56q-20 -29 -54.5 -46.5t-76.5 -17.5q-54 0 -89.5 29.5zM142 429.5
q20 -16.5 50 -16.5q54 0 88.5 34.5t34.5 85.5v27l-118 -19q-75 -14 -75 -69q0 -26 20 -42.5z" />
    <glyph glyph-name="guillemotleft" unicode="&#xab;" horiz-adv-x="506" 
d="M29 269l152 188h68l-149 -188l149 -188h-68zM409 457h68l-149 -188l149 -188h-68l-152 188z" />
    <glyph glyph-name="logicalnot" unicode="&#xac;" horiz-adv-x="672" 
d="M502 221h-440v60h500v-241h-60v181z" />
    <glyph glyph-name="uni00AD" unicode="&#xad;" horiz-adv-x="483" 
d="M74 295h335v-58h-335v58z" />
    <glyph glyph-name="registered" unicode="&#xae;" horiz-adv-x="639" 
d="M191 306.5q-59 34.5 -93.5 93.5t-34.5 128t34.5 128t93.5 93.5t129 34.5q69 0 128 -34.5t93.5 -93.5t34.5 -128t-34.5 -128t-93.5 -93.5t-128 -34.5q-70 0 -129 34.5zM141.5 425q27.5 -47 74.5 -74.5t104 -27.5q56 0 103 27.5t74.5 74.5t27.5 103t-27.5 103t-74.5 74.5
t-103 27.5q-57 0 -104 -27.5t-74.5 -74.5t-27.5 -103t27.5 -103zM227 664h104q42 0 68 -23t26 -63q0 -55 -48 -77l63 -107h-58l-55 98h-49v-98h-51v270zM331 537q19 0 31 11.5t12 29.5t-12 29t-31 11h-53v-81h53z" />
    <glyph glyph-name="macron" unicode="&#xaf;" horiz-adv-x="461" 
d="M103 720h255v-50h-255v50z" />
    <glyph glyph-name="degree" unicode="&#xb0;" horiz-adv-x="461" 
d="M156 482q-34 19 -53.5 53t-19.5 75t19.5 74.5t53.5 53t75 19.5t75 -19.5t53 -53.5t19 -75t-19 -74.5t-53 -52.5t-75 -19t-75 19zM162 540q28 -27 68 -27t68.5 27t28.5 70q0 42 -29 69.5t-68 27.5q-40 0 -68 -27t-28 -70t28 -70z" />
    <glyph glyph-name="plusminus" unicode="&#xb1;" horiz-adv-x="601" 
d="M271 331h-220v60h220v184h60v-184h220v-60h-220v-186h-60v186zM51 60h500v-60h-500v60z" />
    <glyph glyph-name="uni00B2" unicode="&#xb2;" horiz-adv-x="428" 
d="M43 266l145 156l15 17q62 67 83.5 98.5t21.5 68.5q0 43 -26 67.5t-70 24.5q-45 0 -76 -25.5t-42 -72.5l-55 15q13 63 60 100.5t112 37.5q70 0 114.5 -40t44.5 -104q0 -44 -25 -84.5t-84 -104.5l-133 -143h253v-54h-338v43z" />
    <glyph glyph-name="uni00B3" unicode="&#xb3;" horiz-adv-x="433" 
d="M101 249q-48 34 -64 92l53 20q14 -43 46 -67t77 -24q52 0 84.5 30.5t32.5 82.5t-33 81t-84 29q-21 0 -41 -5l-13 27l141 176h-238v54h309v-49l-124 -157q63 -5 104 -48t41 -108q0 -47 -23 -85t-64 -60.5t-92 -22.5q-64 0 -112 34z" />
    <glyph glyph-name="acute" unicode="&#xb4;" horiz-adv-x="348" 
d="M181 784h64l-91 -144h-51z" />
    <glyph glyph-name="uni00B5" unicode="&#xb5;" 
d="M72 531h60v-334q0 -69 41.5 -109.5t106.5 -40.5q68 0 108.5 45.5t40.5 119.5v319h60v-531h-60v72q-23 -39 -64.5 -61.5t-93.5 -22.5q-40 0 -76 14t-63 41v-183h-60v671z" />
    <glyph glyph-name="paragraph" unicode="&#xb6;" horiz-adv-x="378" 
d="M92 481.5q-44 43.5 -44 110.5q0 66 43.5 109.5t111.5 43.5h65v-845h-65v538q-67 0 -111 43.5z" />
    <glyph glyph-name="periodcentered" unicode="&#xb7;" horiz-adv-x="274" 
d="M108 232q-12 12 -12 31t12 31.5t29 12.5t29 -12.5t12 -31.5t-11.5 -31t-29.5 -12q-17 0 -29 12z" />
    <glyph glyph-name="cedilla" unicode="&#xb8;" horiz-adv-x="376" 
d="M137.5 -190.5q-20.5 4.5 -34.5 11.5l13 36q30 -12 59 -12q24 0 37 11t13 30q0 16 -10 25.5t-28 9.5q-20 0 -42 -12l-20 8l11 103h42l-6 -65q16 4 26 4q33 0 54 -20t21 -51q0 -36 -26.5 -59.5t-69.5 -23.5q-19 0 -39.5 4.5z" />
    <glyph glyph-name="uni00B9" unicode="&#xb9;" horiz-adv-x="297" 
d="M123 691h-98v54h160v-522h-62v468z" />
    <glyph glyph-name="ordmasculine" unicode="&#xba;" horiz-adv-x="506" 
d="M156.5 389.5q-44.5 25.5 -70 70.5t-25.5 100t25.5 99.5t69.5 70t98 25.5q53 0 97 -25.5t69.5 -70t25.5 -99.5q0 -56 -25.5 -100.5t-69.5 -70t-97 -25.5t-97.5 25.5zM160 460.5q38 -40.5 94 -40.5q36 0 65.5 18.5t47 50.5t17.5 71t-17 71t-47 50.5t-66 18.5
q-56 0 -94 -40.5t-38 -99.5t38 -99.5z" />
    <glyph glyph-name="guillemotright" unicode="&#xbb;" horiz-adv-x="506" 
d="M407 269l-150 188h69l151 -188l-151 -188h-69zM179 269l-150 188h69l151 -188l-151 -188h-69z" />
    <glyph glyph-name="onequarter" unicode="&#xbc;" horiz-adv-x="877" 
d="M104 694h-79v51h138v-417h-59v366zM568 745h67l-446 -745h-67zM723 95h-203v49l201 274h58v-274h56v-49h-56v-95h-56v95zM723 144v198l-144 -198h144z" />
    <glyph glyph-name="onehalf" unicode="&#xbd;" horiz-adv-x="844" 
d="M104 694h-79v51h138v-417h-59v366zM568 745h67l-446 -745h-67zM524 42l115 123q56 59 74 84.5t18 54.5q0 31 -19.5 49t-51.5 18q-33 0 -55.5 -18.5t-31.5 -53.5l-52 16q10 50 48.5 79.5t90.5 29.5q57 0 93.5 -32.5t36.5 -83.5q0 -37 -20.5 -68.5t-63.5 -77.5l-103 -111
h195v-51h-274v42z" />
    <glyph glyph-name="threequarters" unicode="&#xbe;" horiz-adv-x="969" 
d="M89 348.5q-39 27.5 -52 73.5l50 19q11 -32 36 -50t57 -18q38 0 62 23t24 61t-24 60t-62 22q-17 0 -37 -6l-12 27l111 135h-184v50h250v-47l-94 -116q49 -5 80 -39t31 -85q0 -38 -19 -69.5t-52 -49.5t-74 -18q-52 0 -91 27.5zM660 745h67l-446 -745h-67zM815 95h-203v49
l201 274h58v-274h56v-49h-56v-95h-56v95zM815 144v198l-144 -198h144z" />
    <glyph glyph-name="questiondown" unicode="&#xbf;" horiz-adv-x="487" 
d="M139 -202.5q-44 23.5 -69.5 63.5t-25.5 86q0 39 15 71.5t36.5 57.5t58.5 61l20 20q43 43 65 78t22 78v7h62v-7q0 -61 -29 -104.5t-83 -93.5q-52 -50 -77 -86t-25 -83t35 -81t94 -34q60 0 101.5 36.5t54.5 100.5l58 -12q-14 -83 -72.5 -132.5t-141.5 -49.5q-55 0 -99 23.5
zM256 531h68v-100h-68v100z" />
    <glyph glyph-name="Agrave" unicode="&#xc0;" horiz-adv-x="648" 
d="M291 745h67l274 -745h-70l-68 190h-339l-69 -190h-69zM472 250l-148 412l-148 -412h296zM207 998h64l78 -144h-51z" />
    <glyph glyph-name="Aacute" unicode="&#xc1;" horiz-adv-x="648" 
d="M291 745h67l274 -745h-70l-68 190h-339l-69 -190h-69zM472 250l-148 412l-148 -412h296zM376 998h64l-91 -144h-51z" />
    <glyph glyph-name="Acircumflex" unicode="&#xc2;" horiz-adv-x="648" 
d="M291 745h67l274 -745h-70l-68 190h-339l-69 -190h-69zM472 250l-148 412l-148 -412h296zM295 998h57l120 -144h-57l-91 107l-90 -107h-57z" />
    <glyph glyph-name="Atilde" unicode="&#xc3;" horiz-adv-x="648" 
d="M291 745h67l274 -745h-70l-68 190h-339l-69 -190h-69zM472 250l-148 412l-148 -412h296zM347.5 895.5q-14.5 6.5 -31.5 18.5q-15 10 -24.5 14.5t-20.5 4.5q-13 0 -22.5 -10t-11.5 -29h-45q1 39 22.5 62.5t53.5 23.5q19 0 33 -6.5t33 -18.5q13 -9 23 -14t22 -5q30 0 33 40
h45q-1 -40 -21.5 -63.5t-53.5 -23.5q-20 0 -34.5 6.5z" />
    <glyph glyph-name="Adieresis" unicode="&#xc4;" horiz-adv-x="648" 
d="M291 745h67l274 -745h-70l-68 190h-339l-69 -190h-69zM472 250l-148 412l-148 -412h296zM216.5 893q-14.5 14 -14.5 35t14.5 35t34.5 14t34.5 -14t14.5 -35t-14.5 -35t-34.5 -14t-34.5 14zM364.5 963q14.5 14 34.5 14t34 -14t14 -35t-14 -35t-34 -14t-34.5 14t-14.5 35
t14.5 35z" />
    <glyph glyph-name="Aring" unicode="&#xc5;" horiz-adv-x="648" 
d="M291 745h67l274 -745h-70l-68 190h-339l-69 -190h-69zM472 250l-148 412l-148 -412h296zM245 835.5q-32 31.5 -32 78.5t32 79t80 32q47 0 78.5 -32t31.5 -79t-31.5 -78.5t-78.5 -31.5q-48 0 -80 31.5zM278 866.5q19 -18.5 46 -18.5t46.5 18.5t19.5 47.5t-19.5 48
t-46.5 19q-28 0 -46.5 -18.5t-18.5 -48.5q0 -29 19 -47.5z" />
    <glyph glyph-name="AE" unicode="&#xc6;" horiz-adv-x="986" 
d="M291 745h646v-60h-405v-281h385v-60h-385v-284h405v-60h-470v190h-312l-69 -190h-69zM467 250v435h-134l-157 -435h291z" />
    <glyph glyph-name="Ccedilla" unicode="&#xc7;" horiz-adv-x="785" 
d="M413 -12l-5 -53q16 4 26 4q33 0 54 -20t21 -51q0 -36 -26.5 -59.5t-69.5 -23.5q-19 0 -39.5 4.5t-34.5 11.5l13 36q30 -12 59 -12q24 0 37 11t13 30q0 16 -10 25.5t-28 9.5q-20 0 -42 -12l-20 8l10 95q-87 14 -155 66t-106 133.5t-38 181.5q0 110 46 197.5t127.5 137
t183.5 49.5q71 0 131.5 -26.5t102.5 -68.5t61 -88l-61 -27q-31 69 -92 109t-142 40q-85 0 -151.5 -40.5t-103.5 -114t-37 -168.5t37 -168.5t103.5 -114t151.5 -40.5q81 0 142 39.5t92 108.5l61 -27q-19 -46 -61 -88t-102.5 -68.5t-131.5 -26.5h-16z" />
    <glyph glyph-name="Egrave" unicode="&#xc8;" horiz-adv-x="613" 
d="M94 745h470v-60h-405v-281h385v-60h-385v-284h405v-60h-470v745zM212 998h64l78 -144h-51z" />
    <glyph glyph-name="Eacute" unicode="&#xc9;" horiz-adv-x="613" 
d="M94 745h470v-60h-405v-281h385v-60h-385v-284h405v-60h-470v745zM381 998h64l-91 -144h-51z" />
    <glyph glyph-name="Ecircumflex" unicode="&#xca;" horiz-adv-x="613" 
d="M94 745h470v-60h-405v-281h385v-60h-385v-284h405v-60h-470v745zM299 998h57l120 -144h-57l-91 107l-90 -107h-57z" />
    <glyph glyph-name="Edieresis" unicode="&#xcb;" horiz-adv-x="613" 
d="M94 745h470v-60h-405v-281h385v-60h-385v-284h405v-60h-470v745zM220.5 893q-14.5 14 -14.5 35t14.5 35t34.5 14t34.5 -14t14.5 -35t-14.5 -35t-34.5 -14t-34.5 14zM368.5 963q14.5 14 34.5 14t34 -14t14 -35t-14 -35t-34 -14t-34.5 14t-14.5 35t14.5 35z" />
    <glyph glyph-name="Igrave" unicode="&#xcc;" horiz-adv-x="252" 
d="M94 745h65v-745h-65v745zM9 998h64l78 -144h-51z" />
    <glyph glyph-name="Iacute" unicode="&#xcd;" horiz-adv-x="252" 
d="M94 745h65v-745h-65v745zM178 998h64l-91 -144h-51z" />
    <glyph glyph-name="Icircumflex" unicode="&#xce;" horiz-adv-x="252" 
d="M94 745h65v-745h-65v745zM96 998h57l120 -144h-57l-91 107l-90 -107h-57z" />
    <glyph glyph-name="Idieresis" unicode="&#xcf;" horiz-adv-x="252" 
d="M94 745h65v-745h-65v745zM17.5 893q-14.5 14 -14.5 35t14.5 35t34.5 14t34.5 -14t14.5 -35t-14.5 -35t-34.5 -14t-34.5 14zM165.5 963q14.5 14 34.5 14t34 -14t14 -35t-14 -35t-34 -14t-34.5 14t-14.5 35t14.5 35z" />
    <glyph glyph-name="Eth" unicode="&#xd0;" horiz-adv-x="743" 
d="M94 345h-86v55h86v345h241q108 0 189.5 -45.5t125.5 -129.5t44 -197q0 -112 -44.5 -196.5t-125.5 -130.5t-189 -46h-241v345zM334 60q88 0 154 39t102.5 109.5t36.5 164.5q0 93 -36.5 164t-103 109.5t-153.5 38.5h-175v-285h184v-55h-184v-285h175z" />
    <glyph glyph-name="Ntilde" unicode="&#xd1;" horiz-adv-x="737" 
d="M94 745h55l430 -617v617h65v-745h-55l-430 618v-618h-65v745zM391.5 895.5q-14.5 6.5 -31.5 18.5q-15 10 -24.5 14.5t-20.5 4.5q-13 0 -22.5 -10t-11.5 -29h-45q1 39 22.5 62.5t53.5 23.5q19 0 33 -6.5t33 -18.5q13 -9 23 -14t22 -5q30 0 33 40h45q-1 -40 -21.5 -63.5
t-53.5 -23.5q-20 0 -34.5 6.5z" />
    <glyph glyph-name="Ograve" unicode="&#xd2;" horiz-adv-x="881" 
d="M255.5 37.5q-84.5 49.5 -134 137.5t-49.5 198t49.5 197.5t134 137t185.5 49.5t185.5 -49.5t134 -137t49.5 -197.5t-49.5 -198t-134 -137.5t-185.5 -49.5t-185.5 49.5zM175.5 211q38.5 -74 108 -117.5t157.5 -43.5q87 0 156.5 43.5t108.5 117.5t39 162q0 87 -38.5 161
t-108 118t-157.5 44t-157.5 -44t-108 -118t-38.5 -161q0 -88 38.5 -162zM324 998h64l78 -144h-51z" />
    <glyph glyph-name="Oacute" unicode="&#xd3;" horiz-adv-x="881" 
d="M255.5 37.5q-84.5 49.5 -134 137.5t-49.5 198t49.5 197.5t134 137t185.5 49.5t185.5 -49.5t134 -137t49.5 -197.5t-49.5 -198t-134 -137.5t-185.5 -49.5t-185.5 49.5zM175.5 211q38.5 -74 108 -117.5t157.5 -43.5q87 0 156.5 43.5t108.5 117.5t39 162q0 87 -38.5 161
t-108 118t-157.5 44t-157.5 -44t-108 -118t-38.5 -161q0 -88 38.5 -162zM493 998h64l-91 -144h-51z" />
    <glyph glyph-name="Ocircumflex" unicode="&#xd4;" horiz-adv-x="881" 
d="M255.5 37.5q-84.5 49.5 -134 137.5t-49.5 198t49.5 197.5t134 137t185.5 49.5t185.5 -49.5t134 -137t49.5 -197.5t-49.5 -198t-134 -137.5t-185.5 -49.5t-185.5 49.5zM175.5 211q38.5 -74 108 -117.5t157.5 -43.5q87 0 156.5 43.5t108.5 117.5t39 162q0 87 -38.5 161
t-108 118t-157.5 44t-157.5 -44t-108 -118t-38.5 -161q0 -88 38.5 -162zM411 998h57l120 -144h-57l-91 107l-90 -107h-57z" />
    <glyph glyph-name="Otilde" unicode="&#xd5;" horiz-adv-x="881" 
d="M255.5 37.5q-84.5 49.5 -134 137.5t-49.5 198t49.5 197.5t134 137t185.5 49.5t185.5 -49.5t134 -137t49.5 -197.5t-49.5 -198t-134 -137.5t-185.5 -49.5t-185.5 49.5zM175.5 211q38.5 -74 108 -117.5t157.5 -43.5q87 0 156.5 43.5t108.5 117.5t39 162q0 87 -38.5 161
t-108 118t-157.5 44t-157.5 -44t-108 -118t-38.5 -161q0 -88 38.5 -162zM463.5 895.5q-14.5 6.5 -31.5 18.5q-15 10 -24.5 14.5t-20.5 4.5q-13 0 -22.5 -10t-11.5 -29h-45q1 39 22.5 62.5t53.5 23.5q19 0 33 -6.5t33 -18.5q13 -9 23 -14t22 -5q30 0 33 40h45
q-1 -40 -21.5 -63.5t-53.5 -23.5q-20 0 -34.5 6.5z" />
    <glyph glyph-name="Odieresis" unicode="&#xd6;" horiz-adv-x="881" 
d="M255.5 37.5q-84.5 49.5 -134 137.5t-49.5 198t49.5 197.5t134 137t185.5 49.5t185.5 -49.5t134 -137t49.5 -197.5t-49.5 -198t-134 -137.5t-185.5 -49.5t-185.5 49.5zM175.5 211q38.5 -74 108 -117.5t157.5 -43.5q87 0 156.5 43.5t108.5 117.5t39 162q0 87 -38.5 161
t-108 118t-157.5 44t-157.5 -44t-108 -118t-38.5 -161q0 -88 38.5 -162zM332.5 893q-14.5 14 -14.5 35t14.5 35t34.5 14t34.5 -14t14.5 -35t-14.5 -35t-34.5 -14t-34.5 14zM480.5 963q14.5 14 34.5 14t34 -14t14 -35t-14 -35t-34 -14t-34.5 14t-14.5 35t14.5 35z" />
    <glyph glyph-name="multiply" unicode="&#xd7;" horiz-adv-x="538" 
d="M57 42l170 171l-169 169l42 42l169 -169l170 169l42 -42l-169 -169l170 -171l-43 -42l-170 170l-170 -170z" />
    <glyph glyph-name="Oslash" unicode="&#xd8;" horiz-adv-x="881" 
d="M322.5 7q-56.5 19 -102.5 54l-51 -61h-78l84 101q-49 52 -76 121.5t-27 150.5q0 110 49.5 197.5t134 137t185.5 49.5q61 0 117 -18.5t103 -53.5l50 60h78l-83 -100q49 -52 76.5 -121.5t27.5 -150.5q0 -110 -49.5 -198t-134 -137.5t-185.5 -49.5q-62 0 -118.5 19z
M158 252.5q21 -57.5 59 -101.5l404 486q-78 59 -180 59q-88 0 -157.5 -44t-108 -118t-38.5 -161q0 -63 21 -120.5zM441 50q87 0 156.5 43.5t108.5 117.5t39 162q0 63 -21 121t-59 102l-405 -486q77 -60 181 -60z" />
    <glyph glyph-name="Ugrave" unicode="&#xd9;" horiz-adv-x="695" 
d="M213.5 21q-58.5 33 -91 91.5t-32.5 134.5v498h65v-500q0 -58 24 -102.5t68 -69.5t101 -25q56 0 100 25t68 69.5t24 102.5v500h65v-498q0 -76 -32 -135t-90.5 -91.5t-134.5 -32.5t-134.5 33zM231 998h64l78 -144h-51z" />
    <glyph glyph-name="Uacute" unicode="&#xda;" horiz-adv-x="695" 
d="M213.5 21q-58.5 33 -91 91.5t-32.5 134.5v498h65v-500q0 -58 24 -102.5t68 -69.5t101 -25q56 0 100 25t68 69.5t24 102.5v500h65v-498q0 -76 -32 -135t-90.5 -91.5t-134.5 -32.5t-134.5 33zM400 998h64l-91 -144h-51z" />
    <glyph glyph-name="Ucircumflex" unicode="&#xdb;" horiz-adv-x="695" 
d="M213.5 21q-58.5 33 -91 91.5t-32.5 134.5v498h65v-500q0 -58 24 -102.5t68 -69.5t101 -25q56 0 100 25t68 69.5t24 102.5v500h65v-498q0 -76 -32 -135t-90.5 -91.5t-134.5 -32.5t-134.5 33zM318 998h57l120 -144h-57l-91 107l-90 -107h-57z" />
    <glyph glyph-name="Udieresis" unicode="&#xdc;" horiz-adv-x="695" 
d="M213.5 21q-58.5 33 -91 91.5t-32.5 134.5v498h65v-500q0 -58 24 -102.5t68 -69.5t101 -25q56 0 100 25t68 69.5t24 102.5v500h65v-498q0 -76 -32 -135t-90.5 -91.5t-134.5 -32.5t-134.5 33zM239.5 893q-14.5 14 -14.5 35t14.5 35t34.5 14t34.5 -14t14.5 -35t-14.5 -35
t-34.5 -14t-34.5 14zM387.5 963q14.5 14 34.5 14t34 -14t14 -35t-14 -35t-34 -14t-34.5 14t-14.5 35t14.5 35z" />
    <glyph glyph-name="Yacute" unicode="&#xdd;" horiz-adv-x="624" 
d="M280 340l-263 405h73l222 -339l222 339h73l-262 -405v-340h-65v340zM364 998h64l-91 -144h-51z" />
    <glyph glyph-name="Thorn" unicode="&#xde;" horiz-adv-x="635" 
d="M88 745h65v-147h185q70 0 124.5 -28.5t85 -80t30.5 -117.5t-30 -117t-84.5 -79t-125.5 -28h-185v-148h-65v745zM340 208q77 0 125 45t48 120t-47.5 120t-125.5 45h-187v-330h187z" />
    <glyph glyph-name="germandbls" unicode="&#xdf;" horiz-adv-x="604" 
d="M122 657q28 48 76.5 74t108.5 26q59 0 106 -23.5t73.5 -67t26.5 -100.5q0 -59 -26.5 -101.5t-75.5 -66.5q133 -54 133 -186q0 -63 -29.5 -111t-81.5 -74.5t-120 -26.5h-64v58h64q74 0 119.5 42.5t45.5 111.5t-46 111.5t-122 42.5h-61v58h54q63 0 104 38.5t41 100.5
q0 60 -39.5 98.5t-102.5 38.5q-66 0 -109 -42.5t-43 -111.5v-691h-60v691q0 63 28 111z" />
    <glyph glyph-name="agrave" unicode="&#xe0;" horiz-adv-x="573" 
d="M146 7q-40 19 -62.5 53t-22.5 78q0 62 41.5 106.5t129.5 59.5l199 33v30q0 53 -38 86t-99 33q-49 0 -89.5 -24.5t-61.5 -65.5l-54 29q23 50 80.5 84t124.5 34q57 0 102 -22.5t70 -62.5t25 -91v-367h-60v92q-26 -45 -78.5 -74.5t-117.5 -29.5q-49 0 -89 19zM156.5 70
q32.5 -27 82.5 -27q56 0 100 26t68 70t24 96v46l-183 -30q-124 -20 -124 -111q0 -43 32.5 -70zM170 784h64l78 -144h-51z" />
    <glyph glyph-name="aacute" unicode="&#xe1;" horiz-adv-x="573" 
d="M146 7q-40 19 -62.5 53t-22.5 78q0 62 41.5 106.5t129.5 59.5l199 33v30q0 53 -38 86t-99 33q-49 0 -89.5 -24.5t-61.5 -65.5l-54 29q23 50 80.5 84t124.5 34q57 0 102 -22.5t70 -62.5t25 -91v-367h-60v92q-26 -45 -78.5 -74.5t-117.5 -29.5q-49 0 -89 19zM156.5 70
q32.5 -27 82.5 -27q56 0 100 26t68 70t24 96v46l-183 -30q-124 -20 -124 -111q0 -43 32.5 -70zM339 784h64l-91 -144h-51z" />
    <glyph glyph-name="acircumflex" unicode="&#xe2;" horiz-adv-x="573" 
d="M146 7q-40 19 -62.5 53t-22.5 78q0 62 41.5 106.5t129.5 59.5l199 33v30q0 53 -38 86t-99 33q-49 0 -89.5 -24.5t-61.5 -65.5l-54 29q23 50 80.5 84t124.5 34q57 0 102 -22.5t70 -62.5t25 -91v-367h-60v92q-26 -45 -78.5 -74.5t-117.5 -29.5q-49 0 -89 19zM156.5 70
q32.5 -27 82.5 -27q56 0 100 26t68 70t24 96v46l-183 -30q-124 -20 -124 -111q0 -43 32.5 -70zM257 784h57l120 -144h-57l-91 107l-90 -107h-57z" />
    <glyph glyph-name="atilde" unicode="&#xe3;" horiz-adv-x="573" 
d="M146 7q-40 19 -62.5 53t-22.5 78q0 62 41.5 106.5t129.5 59.5l199 33v30q0 53 -38 86t-99 33q-49 0 -89.5 -24.5t-61.5 -65.5l-54 29q23 50 80.5 84t124.5 34q57 0 102 -22.5t70 -62.5t25 -91v-367h-60v92q-26 -45 -78.5 -74.5t-117.5 -29.5q-49 0 -89 19zM156.5 70
q32.5 -27 82.5 -27q56 0 100 26t68 70t24 96v46l-183 -30q-124 -20 -124 -111q0 -43 32.5 -70zM309.5 681.5q-14.5 6.5 -31.5 18.5q-15 10 -24.5 14.5t-20.5 4.5q-13 0 -22.5 -10t-11.5 -29h-45q1 39 22.5 62.5t53.5 23.5q19 0 33 -6.5t33 -18.5q13 -9 23 -14t22 -5
q30 0 33 40h45q-1 -40 -21.5 -63.5t-53.5 -23.5q-20 0 -34.5 6.5z" />
    <glyph glyph-name="adieresis" unicode="&#xe4;" horiz-adv-x="573" 
d="M146 7q-40 19 -62.5 53t-22.5 78q0 62 41.5 106.5t129.5 59.5l199 33v30q0 53 -38 86t-99 33q-49 0 -89.5 -24.5t-61.5 -65.5l-54 29q23 50 80.5 84t124.5 34q57 0 102 -22.5t70 -62.5t25 -91v-367h-60v92q-26 -45 -78.5 -74.5t-117.5 -29.5q-49 0 -89 19zM156.5 70
q32.5 -27 82.5 -27q56 0 100 26t68 70t24 96v46l-183 -30q-124 -20 -124 -111q0 -43 32.5 -70zM178.5 679q-14.5 14 -14.5 35t14.5 35t34.5 14t34.5 -14t14.5 -35t-14.5 -35t-34.5 -14t-34.5 14zM326.5 749q14.5 14 34.5 14t34 -14t14 -35t-14 -35t-34 -14t-34.5 14
t-14.5 35t14.5 35z" />
    <glyph glyph-name="aring" unicode="&#xe5;" horiz-adv-x="573" 
d="M146 7q-40 19 -62.5 53t-22.5 78q0 62 41.5 106.5t129.5 59.5l199 33v30q0 53 -38 86t-99 33q-49 0 -89.5 -24.5t-61.5 -65.5l-54 29q23 50 80.5 84t124.5 34q57 0 102 -22.5t70 -62.5t25 -91v-367h-60v92q-26 -45 -78.5 -74.5t-117.5 -29.5q-49 0 -89 19zM156.5 70
q32.5 -27 82.5 -27q56 0 100 26t68 70t24 96v46l-183 -30q-124 -20 -124 -111q0 -43 32.5 -70zM207 621.5q-32 31.5 -32 78.5t32 79t80 32q47 0 78.5 -32t31.5 -79t-31.5 -78.5t-78.5 -31.5q-48 0 -80 31.5zM240 652.5q19 -18.5 46 -18.5t46.5 18.5t19.5 47.5t-19.5 48
t-46.5 19q-28 0 -46.5 -18.5t-18.5 -48.5q0 -29 19 -47.5z" />
    <glyph glyph-name="ae" unicode="&#xe6;" horiz-adv-x="993" 
d="M146 7q-40 19 -62.5 53t-22.5 78q0 62 41.5 106.5t129.5 59.5l198 33v30q0 53 -37.5 86t-98.5 33q-49 0 -89.5 -24.5t-61.5 -65.5l-54 29q23 50 80.5 84t124.5 34t116 -30.5t69 -83.5q34 54 89 84t121 30q70 0 125.5 -34.5t86.5 -92t31 -125.5q0 -20 -3 -44h-435
q2 -59 30 -105t74 -72t100 -26q56 0 99.5 27t70.5 74l51 -27q-28 -58 -87.5 -94t-133.5 -36q-64 0 -117.5 27t-89.5 76v-91h-61v91q-26 -45 -78.5 -74t-116.5 -29q-49 0 -89 19zM156.5 70q32.5 -27 82.5 -27q56 0 99.5 26t67.5 69.5t24 96.5v46l-182 -30q-124 -20 -124 -111
q0 -43 32.5 -70zM869 302q0 52 -24 94.5t-65.5 66.5t-90.5 24t-91 -23.5t-69.5 -65.5t-32.5 -96h373z" />
    <glyph glyph-name="ccedilla" unicode="&#xe7;" horiz-adv-x="604" 
d="M305.5 -210.5q-20.5 4.5 -34.5 11.5l13 36q30 -12 59 -12q24 0 37 11t13 30q0 16 -10 25.5t-28 9.5q-20 0 -42 -12l-20 8l10 92q-71 5 -127 42.5t-87 99t-31 135.5q0 79 34.5 142t95.5 99t137 36q73 0 133.5 -36.5t87.5 -93.5l-53 -28q-24 46 -68.5 73t-99.5 27
q-57 0 -103.5 -28t-74 -78t-27.5 -113t27.5 -113t74 -78t103.5 -28q55 0 99.5 27t68.5 74l53 -29q-25 -53 -80 -89t-121 -41l-5 -54q16 4 26 4q33 0 54 -20t21 -51q0 -36 -26.5 -59.5t-69.5 -23.5q-19 0 -39.5 4.5z" />
    <glyph glyph-name="egrave" unicode="&#xe8;" horiz-adv-x="621" 
d="M191.5 24.5q-60.5 36.5 -95.5 100.5t-35 142t33.5 141t92 99t130.5 36q71 0 126.5 -34.5t86.5 -92t31 -125.5q0 -23 -4 -44h-434q2 -59 30 -105.5t73.5 -72t99.5 -25.5q56 0 99.5 27t71.5 74l51 -27q-28 -58 -87.5 -94t-134.5 -36q-74 0 -134.5 36.5zM497 302
q0 52 -24 94.5t-65 66.5t-91 24q-49 0 -91.5 -23.5t-69.5 -65.5t-32 -96h373zM194 784h64l78 -144h-51z" />
    <glyph glyph-name="eacute" unicode="&#xe9;" horiz-adv-x="621" 
d="M191.5 24.5q-60.5 36.5 -95.5 100.5t-35 142t33.5 141t92 99t130.5 36q71 0 126.5 -34.5t86.5 -92t31 -125.5q0 -23 -4 -44h-434q2 -59 30 -105.5t73.5 -72t99.5 -25.5q56 0 99.5 27t71.5 74l51 -27q-28 -58 -87.5 -94t-134.5 -36q-74 0 -134.5 36.5zM497 302
q0 52 -24 94.5t-65 66.5t-91 24q-49 0 -91.5 -23.5t-69.5 -65.5t-32 -96h373zM363 784h64l-91 -144h-51z" />
    <glyph glyph-name="ecircumflex" unicode="&#xea;" horiz-adv-x="621" 
d="M191.5 24.5q-60.5 36.5 -95.5 100.5t-35 142t33.5 141t92 99t130.5 36q71 0 126.5 -34.5t86.5 -92t31 -125.5q0 -23 -4 -44h-434q2 -59 30 -105.5t73.5 -72t99.5 -25.5q56 0 99.5 27t71.5 74l51 -27q-28 -58 -87.5 -94t-134.5 -36q-74 0 -134.5 36.5zM497 302
q0 52 -24 94.5t-65 66.5t-91 24q-49 0 -91.5 -23.5t-69.5 -65.5t-32 -96h373zM282 784h57l120 -144h-57l-91 107l-90 -107h-57z" />
    <glyph glyph-name="edieresis" unicode="&#xeb;" horiz-adv-x="621" 
d="M191.5 24.5q-60.5 36.5 -95.5 100.5t-35 142t33.5 141t92 99t130.5 36q71 0 126.5 -34.5t86.5 -92t31 -125.5q0 -23 -4 -44h-434q2 -59 30 -105.5t73.5 -72t99.5 -25.5q56 0 99.5 27t71.5 74l51 -27q-28 -58 -87.5 -94t-134.5 -36q-74 0 -134.5 36.5zM497 302
q0 52 -24 94.5t-65 66.5t-91 24q-49 0 -91.5 -23.5t-69.5 -65.5t-32 -96h373zM203.5 679q-14.5 14 -14.5 35t14.5 35t34.5 14t34.5 -14t14.5 -35t-14.5 -35t-34.5 -14t-34.5 14zM351.5 749q14.5 14 34.5 14t34 -14t14 -35t-14 -35t-34 -14t-34.5 14t-14.5 35t14.5 35z" />
    <glyph glyph-name="igrave" unicode="&#xec;" horiz-adv-x="192" 
d="M66 531h60v-531h-60v531zM-22 784h64l78 -144h-51z" />
    <glyph glyph-name="iacute" unicode="&#xed;" horiz-adv-x="192" 
d="M66 531h60v-531h-60v531zM147 784h64l-91 -144h-51z" />
    <glyph glyph-name="icircumflex" unicode="&#xee;" horiz-adv-x="192" 
d="M66 531h60v-531h-60v531zM66 784h57l120 -144h-57l-91 107l-90 -107h-57z" />
    <glyph glyph-name="idieresis" unicode="&#xef;" horiz-adv-x="192" 
d="M66 531h60v-531h-60v531zM-12.5 679q-14.5 14 -14.5 35t14.5 35t34.5 14t34.5 -14t14.5 -35t-14.5 -35t-34.5 -14t-34.5 14zM135.5 749q14.5 14 34.5 14t34 -14t14 -35t-14 -35t-34 -14t-34.5 14t-14.5 35t14.5 35z" />
    <glyph glyph-name="eth" unicode="&#xf0;" horiz-adv-x="660" 
d="M194.5 24q-62.5 36 -98 98.5t-35.5 139.5q0 76 34.5 138t96 97.5t138.5 35.5q55 0 105 -20.5t86 -66.5q-12 57 -40.5 108.5t-69.5 91.5l-164 -58v51l121 43q-81 57 -175 57q-53 0 -109 -19l-15 55q66 21 128 21q139 0 239 -89l98 35v-52l-60 -21q60 -70 92.5 -165.5
t32.5 -195.5q0 -106 -35 -178t-94.5 -107t-134.5 -35q-78 0 -140.5 36zM152.5 152.5q27.5 -49.5 75 -77.5t102.5 -28q56 0 103 28.5t74 78t27 109.5q0 58 -26.5 106.5t-73 76.5t-104.5 28t-105 -28t-73.5 -77t-26.5 -107q0 -60 27.5 -109.5z" />
    <glyph glyph-name="ntilde" unicode="&#xf1;" 
d="M83 531h60v-71q24 39 65.5 61t92.5 22q54 0 99.5 -25t72.5 -70t27 -101v-347h-60v330q0 71 -41.5 112.5t-106.5 41.5q-68 0 -108.5 -45.5t-40.5 -118.5v-320h-60v531zM309.5 681.5q-14.5 6.5 -31.5 18.5q-15 10 -24.5 14.5t-20.5 4.5q-13 0 -22.5 -10t-11.5 -29h-45
q1 39 22.5 62.5t53.5 23.5q19 0 33 -6.5t33 -18.5q13 -9 23 -14t22 -5q30 0 33 40h45q-1 -40 -21.5 -63.5t-53.5 -23.5q-20 0 -34.5 6.5z" />
    <glyph glyph-name="ograve" unicode="&#xf2;" horiz-adv-x="659" 
d="M193.5 24.5q-61.5 36.5 -97 100t-35.5 141.5t35 141.5t96.5 99.5t137.5 36t137 -36t96 -99.5t35 -141.5q0 -79 -35.5 -142.5t-97 -99.5t-135.5 -36q-75 0 -136.5 36.5zM152 155q27 -50 74 -79t104 -29q56 0 103 29t74 79t27 111t-27 111t-73.5 78.5t-103.5 28.5
t-104 -28.5t-74 -78.5t-27 -111t27 -111zM213 784h64l78 -144h-51z" />
    <glyph glyph-name="oacute" unicode="&#xf3;" horiz-adv-x="659" 
d="M193.5 24.5q-61.5 36.5 -97 100t-35.5 141.5t35 141.5t96.5 99.5t137.5 36t137 -36t96 -99.5t35 -141.5q0 -79 -35.5 -142.5t-97 -99.5t-135.5 -36q-75 0 -136.5 36.5zM152 155q27 -50 74 -79t104 -29q56 0 103 29t74 79t27 111t-27 111t-73.5 78.5t-103.5 28.5
t-104 -28.5t-74 -78.5t-27 -111t27 -111zM382 784h64l-91 -144h-51z" />
    <glyph glyph-name="ocircumflex" unicode="&#xf4;" horiz-adv-x="659" 
d="M193.5 24.5q-61.5 36.5 -97 100t-35.5 141.5t35 141.5t96.5 99.5t137.5 36t137 -36t96 -99.5t35 -141.5q0 -79 -35.5 -142.5t-97 -99.5t-135.5 -36q-75 0 -136.5 36.5zM152 155q27 -50 74 -79t104 -29q56 0 103 29t74 79t27 111t-27 111t-73.5 78.5t-103.5 28.5
t-104 -28.5t-74 -78.5t-27 -111t27 -111zM300 784h57l120 -144h-57l-91 107l-90 -107h-57z" />
    <glyph glyph-name="otilde" unicode="&#xf5;" horiz-adv-x="659" 
d="M193.5 24.5q-61.5 36.5 -97 100t-35.5 141.5t35 141.5t96.5 99.5t137.5 36t137 -36t96 -99.5t35 -141.5q0 -79 -35.5 -142.5t-97 -99.5t-135.5 -36q-75 0 -136.5 36.5zM152 155q27 -50 74 -79t104 -29q56 0 103 29t74 79t27 111t-27 111t-73.5 78.5t-103.5 28.5
t-104 -28.5t-74 -78.5t-27 -111t27 -111zM352.5 681.5q-14.5 6.5 -31.5 18.5q-15 10 -24.5 14.5t-20.5 4.5q-13 0 -22.5 -10t-11.5 -29h-45q1 39 22.5 62.5t53.5 23.5q19 0 33 -6.5t33 -18.5q13 -9 23 -14t22 -5q30 0 33 40h45q-1 -40 -21.5 -63.5t-53.5 -23.5
q-20 0 -34.5 6.5z" />
    <glyph glyph-name="odieresis" unicode="&#xf6;" horiz-adv-x="659" 
d="M193.5 24.5q-61.5 36.5 -97 100t-35.5 141.5t35 141.5t96.5 99.5t137.5 36t137 -36t96 -99.5t35 -141.5q0 -79 -35.5 -142.5t-97 -99.5t-135.5 -36q-75 0 -136.5 36.5zM152 155q27 -50 74 -79t104 -29q56 0 103 29t74 79t27 111t-27 111t-73.5 78.5t-103.5 28.5
t-104 -28.5t-74 -78.5t-27 -111t27 -111zM221.5 679q-14.5 14 -14.5 35t14.5 35t34.5 14t34.5 -14t14.5 -35t-14.5 -35t-34.5 -14t-34.5 14zM369.5 749q14.5 14 34.5 14t34 -14t14 -35t-14 -35t-34 -14t-34.5 14t-14.5 35t14.5 35z" />
    <glyph glyph-name="divide" unicode="&#xf7;" horiz-adv-x="612" 
d="M52 281h500v-60h-500v60zM269 91h67v-91h-67v91zM269 500h67v-90h-67v90z" />
    <glyph glyph-name="oslash" unicode="&#xf8;" horiz-adv-x="659" 
d="M174 37l-30 -37h-72l61 73q-34 37 -53 87t-19 106q0 78 35 141.5t96.5 99.5t137.5 36q88 0 155 -48l30 36h72l-60 -72q34 -38 52.5 -87t18.5 -106q0 -79 -35.5 -142.5t-97 -99.5t-135.5 -36q-86 0 -156 49zM174 122l271 326q-50 36 -115 36q-57 0 -104 -28.5t-74 -78.5
t-27 -111q0 -84 49 -144zM330 47q56 0 103 29t74 79t27 111q0 41 -12.5 78t-35.5 65l-272 -325q53 -37 116 -37z" />
    <glyph glyph-name="ugrave" unicode="&#xf9;" 
d="M171.5 13q-45.5 25 -72.5 71.5t-27 107.5v339h60v-334q0 -69 41.5 -109.5t106.5 -40.5q68 0 108.5 45.5t40.5 119.5v319h60v-531h-60v71q-24 -39 -65.5 -61t-92.5 -22q-54 0 -99.5 25zM169 784h64l78 -144h-51z" />
    <glyph glyph-name="uacute" unicode="&#xfa;" 
d="M171.5 13q-45.5 25 -72.5 71.5t-27 107.5v339h60v-334q0 -69 41.5 -109.5t106.5 -40.5q68 0 108.5 45.5t40.5 119.5v319h60v-531h-60v71q-24 -39 -65.5 -61t-92.5 -22q-54 0 -99.5 25zM338 784h64l-91 -144h-51z" />
    <glyph glyph-name="ucircumflex" unicode="&#xfb;" 
d="M171.5 13q-45.5 25 -72.5 71.5t-27 107.5v339h60v-334q0 -69 41.5 -109.5t106.5 -40.5q68 0 108.5 45.5t40.5 119.5v319h60v-531h-60v71q-24 -39 -65.5 -61t-92.5 -22q-54 0 -99.5 25zM257 784h57l120 -144h-57l-91 107l-90 -107h-57z" />
    <glyph glyph-name="udieresis" unicode="&#xfc;" 
d="M171.5 13q-45.5 25 -72.5 71.5t-27 107.5v339h60v-334q0 -69 41.5 -109.5t106.5 -40.5q68 0 108.5 45.5t40.5 119.5v319h60v-531h-60v71q-24 -39 -65.5 -61t-92.5 -22q-54 0 -99.5 25zM178.5 679q-14.5 14 -14.5 35t14.5 35t34.5 14t34.5 -14t14.5 -35t-14.5 -35
t-34.5 -14t-34.5 14zM326.5 749q14.5 14 34.5 14t34 -14t14 -35t-14 -35t-34 -14t-34.5 14t-14.5 35t14.5 35z" />
    <glyph glyph-name="yacute" unicode="&#xfd;" horiz-adv-x="533" 
d="M319 784h64l-91 -144h-51z" />
    <glyph glyph-name="thorn" unicode="&#xfe;" horiz-adv-x="671" 
d="M83 745h60v-312q32 51 86 80.5t120 29.5q73 0 133 -36t94 -99.5t34 -141.5t-34 -141.5t-94 -100t-133 -36.5q-66 0 -120.5 30t-85.5 83v-301h-60v945zM170.5 154.5q26.5 -49.5 73 -78t103.5 -28.5t102.5 28.5t71 78t25.5 111.5q0 61 -26 110.5t-71.5 78t-101.5 28.5
q-57 0 -103.5 -28.5t-73 -78t-26.5 -110.5q0 -62 26.5 -111.5z" />
    <glyph glyph-name="ydieresis" unicode="&#xff;" horiz-adv-x="533" 
d="M158.5 679q-14.5 14 -14.5 35t14.5 35t34.5 14t34.5 -14t14.5 -35t-14.5 -35t-34.5 -14t-34.5 14zM306.5 749q14.5 14 34.5 14t34 -14t14 -35t-14 -35t-34 -14t-34.5 14t-14.5 35t14.5 35z" />
    <glyph glyph-name="Amacron" unicode="&#x100;" horiz-adv-x="648" 
d="M291 745h67l274 -745h-70l-68 190h-339l-69 -190h-69zM472 250l-148 412l-148 -412h296zM197 934h255v-50h-255v50z" />
    <glyph glyph-name="amacron" unicode="&#x101;" horiz-adv-x="573" 
d="M146 7q-40 19 -62.5 53t-22.5 78q0 62 41.5 106.5t129.5 59.5l199 33v30q0 53 -38 86t-99 33q-49 0 -89.5 -24.5t-61.5 -65.5l-54 29q23 50 80.5 84t124.5 34q57 0 102 -22.5t70 -62.5t25 -91v-367h-60v92q-26 -45 -78.5 -74.5t-117.5 -29.5q-49 0 -89 19zM156.5 70
q32.5 -27 82.5 -27q56 0 100 26t68 70t24 96v46l-183 -30q-124 -20 -124 -111q0 -43 32.5 -70zM159 720h255v-50h-255v50z" />
    <glyph glyph-name="Abreve" unicode="&#x102;" horiz-adv-x="648" 
d="M291 745h67l274 -745h-70l-68 190h-339l-69 -190h-69zM472 250l-148 412l-148 -412h296zM255.5 872q-31.5 18 -49.5 48.5t-18 66.5h48q0 -36 25.5 -62t62.5 -26t63.5 26t26.5 62h47q0 -36 -18.5 -66.5t-50 -48.5t-68.5 -18t-68.5 18z" />
    <glyph glyph-name="abreve" unicode="&#x103;" horiz-adv-x="573" 
d="M146 7q-40 19 -62.5 53t-22.5 78q0 62 41.5 106.5t129.5 59.5l199 33v30q0 53 -38 86t-99 33q-49 0 -89.5 -24.5t-61.5 -65.5l-54 29q23 50 80.5 84t124.5 34q57 0 102 -22.5t70 -62.5t25 -91v-367h-60v92q-26 -45 -78.5 -74.5t-117.5 -29.5q-49 0 -89 19zM156.5 70
q32.5 -27 82.5 -27q56 0 100 26t68 70t24 96v46l-183 -30q-124 -20 -124 -111q0 -43 32.5 -70zM217.5 658q-31.5 18 -49.5 48.5t-18 66.5h48q0 -36 25.5 -62t62.5 -26t63.5 26t26.5 62h47q0 -36 -18.5 -66.5t-50 -48.5t-68.5 -18t-68.5 18z" />
    <glyph glyph-name="Aogonek" unicode="&#x104;" horiz-adv-x="648" 
d="M291 745h67l274 -745h-51q-52 -34 -52 -77q0 -22 14 -34.5t37 -12.5q30 0 67 26l22 -34q-41 -35 -93 -35q-41 0 -67.5 22t-26.5 58q0 30 19 57.5t55 47.5l-62 172h-339l-69 -190h-69zM472 250l-148 412l-148 -412h296z" />
    <glyph glyph-name="aogonek" unicode="&#x105;" horiz-adv-x="573" 
d="M146 7q-40 19 -62.5 53t-22.5 78q0 62 41.5 106.5t129.5 59.5l199 33v30q0 53 -38 86t-99 33q-49 0 -89.5 -24.5t-61.5 -65.5l-54 29q23 50 80.5 84t124.5 34q57 0 102 -22.5t70 -62.5t25 -91v-367h-43q-45 -33 -45 -72q0 -22 14 -34.5t37 -12.5q30 0 67 26l22 -34
q-41 -35 -93 -35q-41 0 -67.5 22t-26.5 58q0 31 19.5 58.5t55.5 46.5v69q-26 -45 -78.5 -74.5t-117.5 -29.5q-49 0 -89 19zM156.5 70q32.5 -27 82.5 -27q56 0 100 26t68 70t24 96v46l-183 -30q-124 -20 -124 -111q0 -43 32.5 -70z" />
    <glyph glyph-name="Cacute" unicode="&#x106;" horiz-adv-x="785" 
d="M245.5 37.5q-81.5 49.5 -127.5 137.5t-46 198t46 197.5t127.5 137t183.5 49.5q71 0 131.5 -26.5t102.5 -68.5t61 -88l-61 -27q-31 69 -92 109t-142 40q-85 0 -151.5 -40.5t-103.5 -114t-37 -168.5t37 -168.5t103.5 -114t151.5 -40.5q81 0 142 39.5t92 108.5l61 -27
q-19 -46 -61 -88t-102.5 -68.5t-131.5 -26.5q-102 0 -183.5 49.5zM445 998h64l-91 -144h-51z" />
    <glyph glyph-name="cacute" unicode="&#x107;" horiz-adv-x="604" 
d="M188 24.5q-61 36.5 -95.5 100t-34.5 141.5q0 79 34.5 142t95.5 99t137 36q73 0 133.5 -36.5t87.5 -93.5l-53 -28q-24 46 -68.5 73t-99.5 27q-57 0 -103.5 -28t-74 -78t-27.5 -113t27.5 -113t74 -78t103.5 -28q55 0 99.5 27t68.5 74l53 -29q-27 -57 -88 -94t-133 -37
q-76 0 -137 36.5zM377 784h64l-91 -144h-51z" />
    <glyph glyph-name="Ccircumflex" unicode="&#x108;" horiz-adv-x="785" 
d="M245.5 37.5q-81.5 49.5 -127.5 137.5t-46 198t46 197.5t127.5 137t183.5 49.5q71 0 131.5 -26.5t102.5 -68.5t61 -88l-61 -27q-31 69 -92 109t-142 40q-85 0 -151.5 -40.5t-103.5 -114t-37 -168.5t37 -168.5t103.5 -114t151.5 -40.5q81 0 142 39.5t92 108.5l61 -27
q-19 -46 -61 -88t-102.5 -68.5t-131.5 -26.5q-102 0 -183.5 49.5zM363 998h57l120 -144h-57l-91 107l-90 -107h-57z" />
    <glyph glyph-name="ccircumflex" unicode="&#x109;" horiz-adv-x="604" 
d="M188 24.5q-61 36.5 -95.5 100t-34.5 141.5q0 79 34.5 142t95.5 99t137 36q73 0 133.5 -36.5t87.5 -93.5l-53 -28q-24 46 -68.5 73t-99.5 27q-57 0 -103.5 -28t-74 -78t-27.5 -113t27.5 -113t74 -78t103.5 -28q55 0 99.5 27t68.5 74l53 -29q-27 -57 -88 -94t-133 -37
q-76 0 -137 36.5zM296 784h57l120 -144h-57l-91 107l-90 -107h-57z" />
    <glyph glyph-name="Cdotaccent" unicode="&#x10a;" horiz-adv-x="785" 
d="M245.5 37.5q-81.5 49.5 -127.5 137.5t-46 198t46 197.5t127.5 137t183.5 49.5q71 0 131.5 -26.5t102.5 -68.5t61 -88l-61 -27q-31 69 -92 109t-142 40q-85 0 -151.5 -40.5t-103.5 -114t-37 -168.5t37 -168.5t103.5 -114t151.5 -40.5q81 0 142 39.5t92 108.5l61 -27
q-19 -46 -61 -88t-102.5 -68.5t-131.5 -26.5q-102 0 -183.5 49.5zM358.5 893q-14.5 14 -14.5 35t14.5 35t34.5 14t34.5 -14t14.5 -35t-14.5 -35t-34.5 -14t-34.5 14z" />
    <glyph glyph-name="cdotaccent" unicode="&#x10b;" horiz-adv-x="604" 
d="M188 24.5q-61 36.5 -95.5 100t-34.5 141.5q0 79 34.5 142t95.5 99t137 36q73 0 133.5 -36.5t87.5 -93.5l-53 -28q-24 46 -68.5 73t-99.5 27q-57 0 -103.5 -28t-74 -78t-27.5 -113t27.5 -113t74 -78t103.5 -28q55 0 99.5 27t68.5 74l53 -29q-27 -57 -88 -94t-133 -37
q-76 0 -137 36.5zM290.5 679q-14.5 14 -14.5 35t14.5 35t34.5 14t34.5 -14t14.5 -35t-14.5 -35t-34.5 -14t-34.5 14z" />
    <glyph glyph-name="Ccaron" unicode="&#x10c;" horiz-adv-x="785" 
d="M245.5 37.5q-81.5 49.5 -127.5 137.5t-46 198t46 197.5t127.5 137t183.5 49.5q71 0 131.5 -26.5t102.5 -68.5t61 -88l-61 -27q-31 69 -92 109t-142 40q-85 0 -151.5 -40.5t-103.5 -114t-37 -168.5t37 -168.5t103.5 -114t151.5 -40.5q81 0 142 39.5t92 108.5l61 -27
q-19 -46 -61 -88t-102.5 -68.5t-131.5 -26.5q-102 0 -183.5 49.5zM245 998h57l90 -106l91 106h57l-120 -144h-57z" />
    <glyph glyph-name="ccaron" unicode="&#x10d;" horiz-adv-x="604" 
d="M188 24.5q-61 36.5 -95.5 100t-34.5 141.5q0 79 34.5 142t95.5 99t137 36q73 0 133.5 -36.5t87.5 -93.5l-53 -28q-24 46 -68.5 73t-99.5 27q-57 0 -103.5 -28t-74 -78t-27.5 -113t27.5 -113t74 -78t103.5 -28q55 0 99.5 27t68.5 74l53 -29q-27 -57 -88 -94t-133 -37
q-76 0 -137 36.5zM178 784h57l90 -106l91 106h57l-120 -144h-57z" />
    <glyph glyph-name="Dcaron" unicode="&#x10e;" horiz-adv-x="743" 
d="M94 745h241q108 0 189.5 -45.5t125.5 -129.5t44 -197q0 -112 -44.5 -196.5t-125.5 -130.5t-189 -46h-241v745zM334 60q88 0 154 39t102.5 109.5t36.5 164.5q0 93 -36.5 164t-103 109.5t-153.5 38.5h-175v-625h175zM235 998h57l90 -106l91 106h57l-120 -144h-57z" />
    <glyph glyph-name="dcaron" unicode="&#x10f;" horiz-adv-x="775" 
d="M189 24.5q-60 36.5 -94 100t-34 141.5t34 141.5t94 99.5t133 36q66 0 120 -29.5t86 -80.5v324h60v-757h-60v101q-31 -53 -85.5 -83t-120.5 -30q-73 0 -133 36.5zM150.5 154.5q25.5 -49.5 71 -78t102.5 -28.5t103.5 28.5t73 78t26.5 111.5q0 61 -26.5 110.5t-73 78
t-103.5 28.5q-56 0 -101.5 -28.5t-71.5 -78t-26 -110.5q0 -62 25.5 -111.5zM691 848h68l-11 -184h-45z" />
    <glyph glyph-name="Dcroat" unicode="&#x110;" horiz-adv-x="743" 
d="M94 345h-86v55h86v345h241q108 0 189.5 -45.5t125.5 -129.5t44 -197q0 -112 -44.5 -196.5t-125.5 -130.5t-189 -46h-241v345zM334 60q88 0 154 39t102.5 109.5t36.5 164.5q0 93 -36.5 164t-103 109.5t-153.5 38.5h-175v-285h184v-55h-184v-285h175z" />
    <glyph glyph-name="dcroat" unicode="&#x111;" horiz-adv-x="671" 
d="M189 24.5q-60 36.5 -94 100t-34 141.5t34 141.5t94 99.5t133 36q66 0 120 -29.5t86 -80.5v179h-87v55h87v90h60v-90h88v-55h-88v-612h-60v101q-31 -53 -85.5 -83t-120.5 -30q-73 0 -133 36.5zM150.5 154.5q25.5 -49.5 71 -78t102.5 -28.5t103.5 28.5t73 78t26.5 111.5
q0 61 -26.5 110.5t-73 78t-103.5 28.5q-56 0 -101.5 -28.5t-71.5 -78t-26 -110.5q0 -62 25.5 -111.5z" />
    <glyph glyph-name="Emacron" unicode="&#x112;" horiz-adv-x="613" 
d="M94 745h470v-60h-405v-281h385v-60h-385v-284h405v-60h-470v745zM201 934h255v-50h-255v50z" />
    <glyph glyph-name="emacron" unicode="&#x113;" horiz-adv-x="621" 
d="M191.5 24.5q-60.5 36.5 -95.5 100.5t-35 142t33.5 141t92 99t130.5 36q71 0 126.5 -34.5t86.5 -92t31 -125.5q0 -23 -4 -44h-434q2 -59 30 -105.5t73.5 -72t99.5 -25.5q56 0 99.5 27t71.5 74l51 -27q-28 -58 -87.5 -94t-134.5 -36q-74 0 -134.5 36.5zM497 302
q0 52 -24 94.5t-65 66.5t-91 24q-49 0 -91.5 -23.5t-69.5 -65.5t-32 -96h373zM184 720h255v-50h-255v50z" />
    <glyph glyph-name="Ebreve" unicode="&#x114;" horiz-adv-x="613" 
d="M94 745h470v-60h-405v-281h385v-60h-385v-284h405v-60h-470v745zM259.5 872q-31.5 18 -49.5 48.5t-18 66.5h48q0 -36 25.5 -62t62.5 -26t63.5 26t26.5 62h47q0 -36 -18.5 -66.5t-50 -48.5t-68.5 -18t-68.5 18z" />
    <glyph glyph-name="ebreve" unicode="&#x115;" horiz-adv-x="621" 
d="M191.5 24.5q-60.5 36.5 -95.5 100.5t-35 142t33.5 141t92 99t130.5 36q71 0 126.5 -34.5t86.5 -92t31 -125.5q0 -23 -4 -44h-434q2 -59 30 -105.5t73.5 -72t99.5 -25.5q56 0 99.5 27t71.5 74l51 -27q-28 -58 -87.5 -94t-134.5 -36q-74 0 -134.5 36.5zM497 302
q0 52 -24 94.5t-65 66.5t-91 24q-49 0 -91.5 -23.5t-69.5 -65.5t-32 -96h373zM242.5 658q-31.5 18 -49.5 48.5t-18 66.5h48q0 -36 25.5 -62t62.5 -26t63.5 26t26.5 62h47q0 -36 -18.5 -66.5t-50 -48.5t-68.5 -18t-68.5 18z" />
    <glyph glyph-name="Edotaccent" unicode="&#x116;" horiz-adv-x="613" 
d="M94 745h470v-60h-405v-281h385v-60h-385v-284h405v-60h-470v745zM294.5 893q-14.5 14 -14.5 35t14.5 35t34.5 14t34.5 -14t14.5 -35t-14.5 -35t-34.5 -14t-34.5 14z" />
    <glyph glyph-name="edotaccent" unicode="&#x117;" horiz-adv-x="621" 
d="M191.5 24.5q-60.5 36.5 -95.5 100.5t-35 142t33.5 141t92 99t130.5 36q71 0 126.5 -34.5t86.5 -92t31 -125.5q0 -23 -4 -44h-434q2 -59 30 -105.5t73.5 -72t99.5 -25.5q56 0 99.5 27t71.5 74l51 -27q-28 -58 -87.5 -94t-134.5 -36q-74 0 -134.5 36.5zM497 302
q0 52 -24 94.5t-65 66.5t-91 24q-49 0 -91.5 -23.5t-69.5 -65.5t-32 -96h373zM276.5 679q-14.5 14 -14.5 35t14.5 35t34.5 14t34.5 -14t14.5 -35t-14.5 -35t-34.5 -14t-34.5 14z" />
    <glyph glyph-name="Eogonek" unicode="&#x118;" horiz-adv-x="613" 
d="M94 745h470v-60h-405v-281h385v-60h-385v-284h405v-60h-52q-52 -34 -52 -77q0 -22 14 -34.5t37 -12.5q30 0 67 26l22 -34q-41 -35 -93 -35q-41 0 -67.5 22t-26.5 58q0 24 12 46.5t35 40.5h-366v745z" />
    <glyph glyph-name="eogonek" unicode="&#x119;" horiz-adv-x="621" 
d="M290 -10q-32 -27 -32 -62q0 -22 14 -34.5t37 -12.5q30 0 67 26l22 -34q-41 -35 -93 -35q-41 0 -67.5 22t-26.5 58q0 44 40 81q-85 24 -137.5 97.5t-52.5 170.5q0 78 33.5 141t92 99t130.5 36q71 0 126.5 -34.5t86.5 -92t31 -125.5q0 -23 -4 -44h-434q2 -59 30 -105.5
t73.5 -72t99.5 -25.5q56 0 99.5 27t71.5 74l51 -27q-28 -58 -87.5 -94t-134.5 -36q-12 0 -36 2zM497 302q0 52 -24 94.5t-65 66.5t-91 24q-49 0 -91.5 -23.5t-69.5 -65.5t-32 -96h373z" />
    <glyph glyph-name="Ecaron" unicode="&#x11a;" horiz-adv-x="613" 
d="M94 745h470v-60h-405v-281h385v-60h-385v-284h405v-60h-470v745zM181 998h57l90 -106l91 106h57l-120 -144h-57z" />
    <glyph glyph-name="ecaron" unicode="&#x11b;" horiz-adv-x="621" 
d="M191.5 24.5q-60.5 36.5 -95.5 100.5t-35 142t33.5 141t92 99t130.5 36q71 0 126.5 -34.5t86.5 -92t31 -125.5q0 -23 -4 -44h-434q2 -59 30 -105.5t73.5 -72t99.5 -25.5q56 0 99.5 27t71.5 74l51 -27q-28 -58 -87.5 -94t-134.5 -36q-74 0 -134.5 36.5zM497 302
q0 52 -24 94.5t-65 66.5t-91 24q-49 0 -91.5 -23.5t-69.5 -65.5t-32 -96h373zM164 784h57l90 -106l91 106h57l-120 -144h-57z" />
    <glyph glyph-name="Gcircumflex" unicode="&#x11c;" horiz-adv-x="828" 
d="M246 37.5q-82 49.5 -128 137t-46 197.5t46.5 198t128 137.5t184.5 49.5q73 0 134 -26t103.5 -68t61.5 -89l-60 -28q-31 70 -92.5 110t-146.5 40t-152 -41t-104.5 -114.5t-37.5 -168.5t37.5 -168t104.5 -113.5t152 -40.5q77 0 138.5 34.5t97 95t35.5 135.5v4h-271v58h336
v-56q0 -92 -44 -168.5t-120.5 -120.5t-171.5 -44q-103 0 -185 49.5zM385 998h57l120 -144h-57l-91 107l-90 -107h-57z" />
    <glyph glyph-name="gcircumflex" unicode="&#x11d;" horiz-adv-x="663" 
d="M192.5 -184.5q-60.5 35.5 -89.5 92.5l54 30q23 -46 68 -73t105 -27q51 0 94.5 20.5t70 61.5t26.5 100v100q-31 -53 -84 -82.5t-117 -29.5q-73 0 -132.5 35.5t-93 97t-33.5 135.5q0 73 33.5 134.5t93 97t132.5 35.5q64 0 116.5 -29t84.5 -79v96h60v-511q0 -69 -32 -123.5
t-89 -85.5t-129 -31q-78 0 -138.5 35.5zM150.5 171.5q25.5 -47.5 70.5 -75.5t101 -28q55 0 100 28t71 75.5t26 104.5q0 56 -26 103.5t-71 75.5t-100 28q-56 0 -101 -28t-70.5 -75t-25.5 -104t25.5 -104.5zM302 784h57l120 -144h-57l-91 107l-90 -107h-57z" />
    <glyph glyph-name="Gbreve" unicode="&#x11e;" horiz-adv-x="828" 
d="M246 37.5q-82 49.5 -128 137t-46 197.5t46.5 198t128 137.5t184.5 49.5q73 0 134 -26t103.5 -68t61.5 -89l-60 -28q-31 70 -92.5 110t-146.5 40t-152 -41t-104.5 -114.5t-37.5 -168.5t37.5 -168t104.5 -113.5t152 -40.5q77 0 138.5 34.5t97 95t35.5 135.5v4h-271v58h336
v-56q0 -92 -44 -168.5t-120.5 -120.5t-171.5 -44q-103 0 -185 49.5zM345.5 872q-31.5 18 -49.5 48.5t-18 66.5h48q0 -36 25.5 -62t62.5 -26t63.5 26t26.5 62h47q0 -36 -18.5 -66.5t-50 -48.5t-68.5 -18t-68.5 18z" />
    <glyph glyph-name="gbreve" unicode="&#x11f;" horiz-adv-x="663" 
d="M192.5 -184.5q-60.5 35.5 -89.5 92.5l54 30q23 -46 68 -73t105 -27q51 0 94.5 20.5t70 61.5t26.5 100v100q-31 -53 -84 -82.5t-117 -29.5q-73 0 -132.5 35.5t-93 97t-33.5 135.5q0 73 33.5 134.5t93 97t132.5 35.5q64 0 116.5 -29t84.5 -79v96h60v-511q0 -69 -32 -123.5
t-89 -85.5t-129 -31q-78 0 -138.5 35.5zM150.5 171.5q25.5 -47.5 70.5 -75.5t101 -28q55 0 100 28t71 75.5t26 104.5q0 56 -26 103.5t-71 75.5t-100 28q-56 0 -101 -28t-70.5 -75t-25.5 -104t25.5 -104.5zM262.5 658q-31.5 18 -49.5 48.5t-18 66.5h48q0 -36 25.5 -62
t62.5 -26t63.5 26t26.5 62h47q0 -36 -18.5 -66.5t-50 -48.5t-68.5 -18t-68.5 18z" />
    <glyph glyph-name="Gdotaccent" unicode="&#x120;" horiz-adv-x="828" 
d="M246 37.5q-82 49.5 -128 137t-46 197.5t46.5 198t128 137.5t184.5 49.5q73 0 134 -26t103.5 -68t61.5 -89l-60 -28q-31 70 -92.5 110t-146.5 40t-152 -41t-104.5 -114.5t-37.5 -168.5t37.5 -168t104.5 -113.5t152 -40.5q77 0 138.5 34.5t97 95t35.5 135.5v4h-271v58h336
v-56q0 -92 -44 -168.5t-120.5 -120.5t-171.5 -44q-103 0 -185 49.5zM379.5 893q-14.5 14 -14.5 35t14.5 35t34.5 14t34.5 -14t14.5 -35t-14.5 -35t-34.5 -14t-34.5 14z" />
    <glyph glyph-name="gdotaccent" unicode="&#x121;" horiz-adv-x="663" 
d="M192.5 -184.5q-60.5 35.5 -89.5 92.5l54 30q23 -46 68 -73t105 -27q51 0 94.5 20.5t70 61.5t26.5 100v100q-31 -53 -84 -82.5t-117 -29.5q-73 0 -132.5 35.5t-93 97t-33.5 135.5q0 73 33.5 134.5t93 97t132.5 35.5q64 0 116.5 -29t84.5 -79v96h60v-511q0 -69 -32 -123.5
t-89 -85.5t-129 -31q-78 0 -138.5 35.5zM150.5 171.5q25.5 -47.5 70.5 -75.5t101 -28q55 0 100 28t71 75.5t26 104.5q0 56 -26 103.5t-71 75.5t-100 28q-56 0 -101 -28t-70.5 -75t-25.5 -104t25.5 -104.5zM297.5 679q-14.5 14 -14.5 35t14.5 35t34.5 14t34.5 -14t14.5 -35
t-14.5 -35t-34.5 -14t-34.5 14z" />
    <glyph glyph-name="uni0122" unicode="&#x122;" horiz-adv-x="828" 
d="M246 37.5q-82 49.5 -128 137t-46 197.5t46.5 198t128 137.5t184.5 49.5q73 0 134 -26t103.5 -68t61.5 -89l-60 -28q-31 70 -92.5 110t-146.5 40t-152 -41t-104.5 -114.5t-37.5 -168.5t37.5 -168t104.5 -113.5t152 -40.5q77 0 138.5 34.5t97 95t35.5 135.5v4h-271v58h336
v-56q0 -92 -44 -168.5t-120.5 -120.5t-171.5 -44q-103 0 -185 49.5zM410.5 -244.5q14.5 24.5 15.5 64.5h-36v100h68v-77q0 -63 -22.5 -101t-65.5 -49v30q26 8 40.5 32.5z" />
    <glyph glyph-name="uni0123" unicode="&#x123;" horiz-adv-x="663" 
d="M192.5 -184.5q-60.5 35.5 -89.5 92.5l54 30q23 -46 68 -73t105 -27q51 0 94.5 20.5t70 61.5t26.5 100v100q-31 -53 -84 -82.5t-117 -29.5q-73 0 -132.5 35.5t-93 97t-33.5 135.5q0 73 33.5 134.5t93 97t132.5 35.5q64 0 116.5 -29t84.5 -79v96h60v-511q0 -69 -32 -123.5
t-89 -85.5t-129 -31q-78 0 -138.5 35.5zM150.5 171.5q25.5 -47.5 70.5 -75.5t101 -28q55 0 100 28t71 75.5t26 104.5q0 56 -26 103.5t-71 75.5t-100 28q-56 0 -101 -28t-70.5 -75t-25.5 -104t25.5 -104.5zM321.5 798.5q23.5 35.5 64.5 45.5v-28q-25 -7 -40 -29.5t-16 -54.5
h36v-100h-68v80q0 51 23.5 86.5z" />
    <glyph glyph-name="Hcircumflex" unicode="&#x124;" horiz-adv-x="737" 
d="M94 745h65v-339h420v339h65v-745h-65v346h-420v-346h-65v745zM339 998h57l120 -144h-57l-91 107l-90 -107h-57z" />
    <glyph glyph-name="hcircumflex" unicode="&#x125;" 
d="M83 757h60v-297q24 39 65.5 61t92.5 22q54 0 99.5 -25t72.5 -70t27 -101v-347h-60v330q0 71 -41.5 112.5t-106.5 41.5q-67 0 -108 -45.5t-41 -118.5v-320h-60v757zM83 998h57l120 -144h-57l-91 107l-90 -107h-57z" />
    <glyph glyph-name="Hbar" unicode="&#x126;" horiz-adv-x="737" 
d="M94 568h-73v55h73v122h65v-122h420v122h65v-122h72v-55h-72v-568h-65v346h-420v-346h-65v568zM579 406v162h-420v-162h420z" />
    <glyph glyph-name="hbar" unicode="&#x127;" 
d="M83 612h-88v55h88v90h60v-90h87v-55h-87v-152q24 39 65.5 61t92.5 22q54 0 99.5 -25t72.5 -70t27 -101v-347h-60v330q0 71 -41.5 112.5t-106.5 41.5q-67 0 -108 -45.5t-41 -118.5v-320h-60v612z" />
    <glyph glyph-name="Itilde" unicode="&#x128;" horiz-adv-x="252" 
d="M94 745h65v-745h-65v745zM148.5 895.5q-14.5 6.5 -31.5 18.5q-15 10 -24.5 14.5t-20.5 4.5q-13 0 -22.5 -10t-11.5 -29h-45q1 39 22.5 62.5t53.5 23.5q19 0 33 -6.5t33 -18.5q13 -9 23 -14t22 -5q30 0 33 40h45q-1 -40 -21.5 -63.5t-53.5 -23.5q-20 0 -34.5 6.5z" />
    <glyph glyph-name="itilde" unicode="&#x129;" horiz-adv-x="192" 
d="M66 531h60v-531h-60v531zM118.5 681.5q-14.5 6.5 -31.5 18.5q-15 10 -24.5 14.5t-20.5 4.5q-13 0 -22.5 -10t-11.5 -29h-45q1 39 22.5 62.5t53.5 23.5q19 0 33 -6.5t33 -18.5q13 -9 23 -14t22 -5q30 0 33 40h45q-1 -40 -21.5 -63.5t-53.5 -23.5q-20 0 -34.5 6.5z" />
    <glyph glyph-name="Imacron" unicode="&#x12a;" horiz-adv-x="252" 
d="M94 745h65v-745h-65v745zM-2 934h255v-50h-255v50z" />
    <glyph glyph-name="imacron" unicode="&#x12b;" horiz-adv-x="192" 
d="M66 531h60v-531h-60v531zM-32 720h255v-50h-255v50z" />
    <glyph glyph-name="Ibreve" unicode="&#x12c;" horiz-adv-x="252" 
d="M94 745h65v-745h-65v745zM56.5 872q-31.5 18 -49.5 48.5t-18 66.5h48q0 -36 25.5 -62t62.5 -26t63.5 26t26.5 62h47q0 -36 -18.5 -66.5t-50 -48.5t-68.5 -18t-68.5 18z" />
    <glyph glyph-name="ibreve" unicode="&#x12d;" horiz-adv-x="192" 
d="M66 531h60v-531h-60v531zM26.5 658q-31.5 18 -49.5 48.5t-18 66.5h48q0 -36 25.5 -62t62.5 -26t63.5 26t26.5 62h47q0 -36 -18.5 -66.5t-50 -48.5t-68.5 -18t-68.5 18z" />
    <glyph glyph-name="Iogonek" unicode="&#x12e;" horiz-adv-x="252" 
d="M36.5 -145q-26.5 22 -26.5 58q0 33 21.5 61.5t62.5 48.5v722h65v-745h-50q-52 -34 -52 -77q0 -22 14 -34.5t37 -12.5q30 0 67 26l22 -34q-41 -35 -93 -35q-41 0 -67.5 22z" />
    <glyph glyph-name="iogonek" unicode="&#x12f;" horiz-adv-x="192" 
d="M60.5 679q-14.5 14 -14.5 35t14.5 35t34.5 14t34.5 -14t14.5 -35t-14.5 -35t-34.5 -14t-34.5 14zM3 -20q22 29 63 48v503h60v-531h-53q-45 -33 -45 -72q0 -22 14 -34.5t37 -12.5q30 0 67 26l22 -34q-41 -35 -93 -35q-41 0 -67.5 22t-26.5 58q0 33 22 62z" />
    <glyph glyph-name="Idotaccent" unicode="&#x130;" horiz-adv-x="252" 
d="M94 745h65v-745h-65v745zM91.5 893q-14.5 14 -14.5 35t14.5 35t34.5 14t34.5 -14t14.5 -35t-14.5 -35t-34.5 -14t-34.5 14z" />
    <glyph glyph-name="dotlessi" unicode="&#x131;" horiz-adv-x="192" 
d="M66 531h60v-531h-60v531z" />
    <glyph glyph-name="Jcircumflex" unicode="&#x134;" horiz-adv-x="382" 
d="M61 65h39q58 0 91 35.5t33 99.5v545h65v-547q0 -91 -51 -144.5t-138 -53.5h-39v65zM227 998h57l120 -144h-57l-91 107l-90 -107h-57z" />
    <glyph glyph-name="jcircumflex" unicode="&#x135;" horiz-adv-x="225" 
d="M-60 -216v55q18 -3 39 -3q48 0 76 28t28 80v587h60v-587q0 -78 -45.5 -121t-118.5 -43q-26 0 -39 4zM83 784h57l120 -144h-57l-91 107l-90 -107h-57z" />
    <glyph glyph-name="uni0136" unicode="&#x136;" horiz-adv-x="653" 
d="M94 745h65v-417l373 417h84l-282 -317l302 -428h-79l-269 379l-129 -146v-233h-65v745zM323.5 -244.5q14.5 24.5 15.5 64.5h-36v100h68v-77q0 -63 -22.5 -101t-65.5 -49v30q26 8 40.5 32.5z" />
    <glyph glyph-name="uni0137" unicode="&#x137;" horiz-adv-x="544" 
d="M83 757h60v-507l283 281h82l-214 -214l234 -317h-75l-204 274l-106 -109v-165h-60v757zM268.5 -244.5q14.5 24.5 15.5 64.5h-36v100h68v-77q0 -63 -22.5 -101t-65.5 -49v30q26 8 40.5 32.5z" />
    <glyph glyph-name="kgreenlandic" unicode="&#x138;" horiz-adv-x="544" 
d="M269 257h-126v-257h-60v531h60v-217h125l149 217h75l-168 -244l204 -287h-73z" />
    <glyph glyph-name="Lacute" unicode="&#x139;" horiz-adv-x="532" 
d="M94 745h65v-685h335v-60h-400v745zM178 998h64l-91 -144h-51z" />
    <glyph glyph-name="lacute" unicode="&#x13a;" horiz-adv-x="225" 
d="M83 757h60v-757h-60v757zM165 998h64l-91 -144h-51z" />
    <glyph glyph-name="uni013B" unicode="&#x13b;" horiz-adv-x="532" 
d="M94 745h65v-685h335v-60h-400v745zM290.5 -244.5q14.5 24.5 15.5 64.5h-36v100h68v-77q0 -63 -22.5 -101t-65.5 -49v30q26 8 40.5 32.5z" />
    <glyph glyph-name="uni013C" unicode="&#x13c;" horiz-adv-x="225" 
d="M83 757h60v-757h-60v757zM109.5 -244.5q14.5 24.5 15.5 64.5h-36v100h68v-77q0 -63 -22.5 -101t-65.5 -49v30q26 8 40.5 32.5z" />
    <glyph glyph-name="Lcaron" unicode="&#x13d;" horiz-adv-x="609" 
d="M94 745h65v-685h335v-60h-400v745zM396 745h68l-11 -184h-45z" />
    <glyph glyph-name="lcaron" unicode="&#x13e;" horiz-adv-x="329" 
d="M83 757h60v-757h-60v757zM245 848h68l-11 -184h-45z" />
    <glyph glyph-name="Ldot" unicode="&#x13f;" horiz-adv-x="532" 
d="M94 745h65v-685h335v-60h-400v745zM292.5 408q14.5 14 34.5 14t34 -14t14 -35t-14 -35t-34 -14t-34.5 14t-14.5 35t14.5 35z" />
    <glyph glyph-name="ldot" unicode="&#x140;" horiz-adv-x="366" 
d="M83 757h60v-757h-60v757zM241.5 407q14.5 14 34.5 14t34 -14t14 -34q0 -21 -14 -35t-34 -14t-34.5 14t-14.5 35q0 20 14.5 34z" />
    <glyph glyph-name="Lslash" unicode="&#x141;" horiz-adv-x="532" 
d="M94 333l-111 -39v59l111 39v353h65v-330l109 38v-59l-109 -38v-296h335v-60h-400v333z" />
    <glyph glyph-name="lslash" unicode="&#x142;" horiz-adv-x="225" 
d="M83 349l-88 -37v59l88 37v349h60v-323l87 37v-59l-87 -37v-375h-60v349z" />
    <glyph glyph-name="Nacute" unicode="&#x143;" horiz-adv-x="737" 
d="M94 745h55l430 -617v617h65v-745h-55l-430 618v-618h-65v745zM421 998h64l-91 -144h-51z" />
    <glyph glyph-name="nacute" unicode="&#x144;" 
d="M83 531h60v-71q24 39 65.5 61t92.5 22q54 0 99.5 -25t72.5 -70t27 -101v-347h-60v330q0 71 -41.5 112.5t-106.5 41.5q-68 0 -108.5 -45.5t-40.5 -118.5v-320h-60v531zM338 784h64l-91 -144h-51z" />
    <glyph glyph-name="uni0145" unicode="&#x145;" horiz-adv-x="737" 
d="M94 745h55l430 -617v617h65v-745h-55l-430 618v-618h-65v745zM365.5 -244.5q14.5 24.5 15.5 64.5h-36v100h68v-77q0 -63 -22.5 -101t-65.5 -49v30q26 8 40.5 32.5z" />
    <glyph glyph-name="uni0146" unicode="&#x146;" 
d="M83 531h60v-71q24 39 65.5 61t92.5 22q54 0 99.5 -25t72.5 -70t27 -101v-347h-60v330q0 71 -41.5 112.5t-106.5 41.5q-68 0 -108.5 -45.5t-40.5 -118.5v-320h-60v531zM282.5 -244.5q14.5 24.5 15.5 64.5h-36v100h68v-77q0 -63 -22.5 -101t-65.5 -49v30q26 8 40.5 32.5z
" />
    <glyph glyph-name="Ncaron" unicode="&#x147;" horiz-adv-x="737" 
d="M94 745h55l430 -617v617h65v-745h-55l-430 618v-618h-65v745zM221 998h57l90 -106l91 106h57l-120 -144h-57z" />
    <glyph glyph-name="ncaron" unicode="&#x148;" 
d="M83 531h60v-71q24 39 65.5 61t92.5 22q54 0 99.5 -25t72.5 -70t27 -101v-347h-60v330q0 71 -41.5 112.5t-106.5 41.5q-68 0 -108.5 -45.5t-40.5 -118.5v-320h-60v531zM139 784h57l90 -106l91 106h57l-120 -144h-57z" />
    <glyph glyph-name="Eng" unicode="&#x14a;" horiz-adv-x="737" 
d="M439 -216v59q18 -3 39 -3q47 0 74 26t27 78v68l-420 606v-618h-65v745h55l430 -616v616h65v-801q0 -78 -46.5 -121t-119.5 -43q-26 0 -39 4z" />
    <glyph glyph-name="eng" unicode="&#x14b;" horiz-adv-x="600" 
d="M286 -216v55q20 -3 39 -3q48 0 76 28t28 80v386q0 71 -41.5 112.5t-106.5 41.5q-68 0 -109 -45.5t-41 -118.5v-320h-60v531h60v-72q23 39 64.5 61.5t93.5 22.5q55 0 100.5 -25t72.5 -70t27 -101v-403q0 -78 -45.5 -121t-117.5 -43q-27 0 -40 4z" />
    <glyph glyph-name="Omacron" unicode="&#x14c;" horiz-adv-x="881" 
d="M255.5 37.5q-84.5 49.5 -134 137.5t-49.5 198t49.5 197.5t134 137t185.5 49.5t185.5 -49.5t134 -137t49.5 -197.5t-49.5 -198t-134 -137.5t-185.5 -49.5t-185.5 49.5zM175.5 211q38.5 -74 108 -117.5t157.5 -43.5q87 0 156.5 43.5t108.5 117.5t39 162q0 87 -38.5 161
t-108 118t-157.5 44t-157.5 -44t-108 -118t-38.5 -161q0 -88 38.5 -162zM313 934h255v-50h-255v50z" />
    <glyph glyph-name="omacron" unicode="&#x14d;" horiz-adv-x="659" 
d="M193.5 24.5q-61.5 36.5 -97 100t-35.5 141.5t35 141.5t96.5 99.5t137.5 36t137 -36t96 -99.5t35 -141.5q0 -79 -35.5 -142.5t-97 -99.5t-135.5 -36q-75 0 -136.5 36.5zM152 155q27 -50 74 -79t104 -29q56 0 103 29t74 79t27 111t-27 111t-73.5 78.5t-103.5 28.5
t-104 -28.5t-74 -78.5t-27 -111t27 -111zM202 720h255v-50h-255v50z" />
    <glyph glyph-name="Obreve" unicode="&#x14e;" horiz-adv-x="881" 
d="M255.5 37.5q-84.5 49.5 -134 137.5t-49.5 198t49.5 197.5t134 137t185.5 49.5t185.5 -49.5t134 -137t49.5 -197.5t-49.5 -198t-134 -137.5t-185.5 -49.5t-185.5 49.5zM175.5 211q38.5 -74 108 -117.5t157.5 -43.5q87 0 156.5 43.5t108.5 117.5t39 162q0 87 -38.5 161
t-108 118t-157.5 44t-157.5 -44t-108 -118t-38.5 -161q0 -88 38.5 -162zM371.5 872q-31.5 18 -49.5 48.5t-18 66.5h48q0 -36 25.5 -62t62.5 -26t63.5 26t26.5 62h47q0 -36 -18.5 -66.5t-50 -48.5t-68.5 -18t-68.5 18z" />
    <glyph glyph-name="obreve" unicode="&#x14f;" horiz-adv-x="659" 
d="M193.5 24.5q-61.5 36.5 -97 100t-35.5 141.5t35 141.5t96.5 99.5t137.5 36t137 -36t96 -99.5t35 -141.5q0 -79 -35.5 -142.5t-97 -99.5t-135.5 -36q-75 0 -136.5 36.5zM152 155q27 -50 74 -79t104 -29q56 0 103 29t74 79t27 111t-27 111t-73.5 78.5t-103.5 28.5
t-104 -28.5t-74 -78.5t-27 -111t27 -111zM260.5 658q-31.5 18 -49.5 48.5t-18 66.5h48q0 -36 25.5 -62t62.5 -26t63.5 26t26.5 62h47q0 -36 -18.5 -66.5t-50 -48.5t-68.5 -18t-68.5 18z" />
    <glyph glyph-name="Ohungarumlaut" unicode="&#x150;" horiz-adv-x="881" 
d="M255.5 37.5q-84.5 49.5 -134 137.5t-49.5 198t49.5 197.5t134 137t185.5 49.5t185.5 -49.5t134 -137t49.5 -197.5t-49.5 -198t-134 -137.5t-185.5 -49.5t-185.5 49.5zM175.5 211q38.5 -74 108 -117.5t157.5 -43.5q87 0 156.5 43.5t108.5 117.5t39 162q0 87 -38.5 161
t-108 118t-157.5 44t-157.5 -44t-108 -118t-38.5 -161q0 -88 38.5 -162zM426 998h64l-91 -144h-51zM560 998h64l-91 -144h-51z" />
    <glyph glyph-name="ohungarumlaut" unicode="&#x151;" horiz-adv-x="659" 
d="M193.5 24.5q-61.5 36.5 -97 100t-35.5 141.5t35 141.5t96.5 99.5t137.5 36t137 -36t96 -99.5t35 -141.5q0 -79 -35.5 -142.5t-97 -99.5t-135.5 -36q-75 0 -136.5 36.5zM152 155q27 -50 74 -79t104 -29q56 0 103 29t74 79t27 111t-27 111t-73.5 78.5t-103.5 28.5
t-104 -28.5t-74 -78.5t-27 -111t27 -111zM315 784h64l-91 -144h-51zM449 784h64l-91 -144h-51z" />
    <glyph glyph-name="OE" unicode="&#x152;" horiz-adv-x="1270" 
d="M255.5 37.5q-84.5 49.5 -134 137.5t-49.5 198t49.5 197.5t134 137t185.5 49.5q96 0 177.5 -45.5t131.5 -124.5v158h470v-60h-405v-281h385v-60h-385v-284h405v-60h-470v159q-50 -80 -131.5 -125.5t-177.5 -45.5q-101 0 -185.5 49.5zM175.5 211q38.5 -74 108 -117.5
t157.5 -43.5q87 0 156.5 43.5t108.5 117.5t39 162q0 87 -38.5 161t-108 118t-157.5 44t-157.5 -44t-108 -118t-38.5 -161q0 -88 38.5 -162z" />
    <glyph glyph-name="oe" unicode="&#x153;" horiz-adv-x="1099" 
d="M193.5 24.5q-61.5 36.5 -97 100t-35.5 141.5t35 141.5t96.5 99.5t137.5 36q79 0 142 -39.5t96 -106.5q32 68 92 107t135 39q71 0 126.5 -34.5t86.5 -92t31 -125.5q0 -23 -4 -44h-434q2 -59 30 -105t73.5 -72t99.5 -26q56 0 99.5 27t71.5 74l51 -27q-28 -58 -87.5 -94
t-134.5 -36q-78 0 -140.5 40t-95.5 108q-33 -68 -96.5 -108t-141.5 -40q-75 0 -136.5 36.5zM152 155q27 -50 74 -79t104 -29q56 0 103 29t74 79t27 111t-27 111t-73.5 78.5t-103.5 28.5t-104 -28.5t-74 -78.5t-27 -111t27 -111zM975 302q0 52 -24 94.5t-65.5 66.5t-90.5 24
t-91 -23.5t-69.5 -66t-32.5 -95.5h373z" />
    <glyph glyph-name="Racute" unicode="&#x154;" horiz-adv-x="638" 
d="M94 745h250q70 0 124.5 -28.5t85 -79.5t30.5 -117q0 -80 -43 -137t-117 -77l176 -306h-77l-167 295h-197v-295h-65v745zM346 355q77 0 125 45.5t48 120.5q0 74 -47.5 119t-125.5 45h-187v-330h187zM366 998h64l-91 -144h-51z" />
    <glyph glyph-name="racute" unicode="&#x155;" horiz-adv-x="339" 
d="M83 531h60v-67q20 35 58.5 54.5t87.5 19.5h34v-60h-41q-64 0 -101.5 -41.5t-37.5 -111.5v-325h-60v531zM255 784h64l-91 -144h-51z" />
    <glyph glyph-name="uni0156" unicode="&#x156;" horiz-adv-x="638" 
d="M94 745h250q70 0 124.5 -28.5t85 -79.5t30.5 -117q0 -80 -43 -137t-117 -77l176 -306h-77l-167 295h-197v-295h-65v745zM346 355q77 0 125 45.5t48 120.5q0 74 -47.5 119t-125.5 45h-187v-330h187zM310.5 -244.5q14.5 24.5 15.5 64.5h-36v100h68v-77q0 -63 -22.5 -101
t-65.5 -49v30q26 8 40.5 32.5z" />
    <glyph glyph-name="uni0157" unicode="&#x157;" horiz-adv-x="339" 
d="M83 531h60v-67q20 35 58.5 54.5t87.5 19.5h34v-60h-41q-64 0 -101.5 -41.5t-37.5 -111.5v-325h-60v531zM109.5 -244.5q14.5 24.5 15.5 64.5h-36v100h68v-77q0 -63 -22.5 -101t-65.5 -49v30q26 8 40.5 32.5z" />
    <glyph glyph-name="Rcaron" unicode="&#x158;" horiz-adv-x="638" 
d="M94 745h250q70 0 124.5 -28.5t85 -79.5t30.5 -117q0 -80 -43 -137t-117 -77l176 -306h-77l-167 295h-197v-295h-65v745zM346 355q77 0 125 45.5t48 120.5q0 74 -47.5 119t-125.5 45h-187v-330h187zM166 998h57l90 -106l91 106h57l-120 -144h-57z" />
    <glyph glyph-name="rcaron" unicode="&#x159;" horiz-adv-x="339" 
d="M83 531h60v-67q20 35 58.5 54.5t87.5 19.5h34v-60h-41q-64 0 -101.5 -41.5t-37.5 -111.5v-325h-60v531zM55 784h57l90 -106l91 106h57l-120 -144h-57z" />
    <glyph glyph-name="Sacute" unicode="&#x15a;" horiz-adv-x="643" 
d="M210.5 14.5q-56.5 26.5 -95 70.5t-54.5 96l58 20q27 -73 87 -114t129 -41q49 0 88.5 19t61.5 50.5t22 68.5q0 51 -32 87t-85 49l-136 36q-79 20 -120.5 76t-41.5 127q0 58 28 103t77.5 70t111.5 25t114.5 -23.5t88.5 -64t51 -88.5l-57 -21q-25 66 -80 103t-116 37
q-44 0 -79 -18.5t-55 -50t-20 -69.5q0 -52 32 -89.5t94 -54.5l122 -32q80 -21 123.5 -73.5t43.5 -125.5q0 -58 -30 -103t-83.5 -70.5t-121.5 -25.5q-69 0 -125.5 26.5zM374 998h64l-91 -144h-51z" />
    <glyph glyph-name="sacute" unicode="&#x15b;" horiz-adv-x="508" 
d="M136 23.5q-56 35.5 -84 98.5l52 26q26 -49 68 -76.5t91 -27.5q53 0 88.5 26.5t35.5 67.5q0 37 -27 61t-67 32l-82 15q-69 17 -103 56t-34 92q0 44 23 78t62.5 52.5t87.5 18.5q65 0 118 -33.5t75 -88.5l-53 -27q-22 44 -59.5 69t-82.5 25q-48 0 -78.5 -25.5t-30.5 -64.5
q0 -36 24.5 -59t60.5 -30l89 -16q66 -17 102.5 -58.5t36.5 -95.5q0 -43 -24 -77.5t-66 -54t-95 -19.5q-72 0 -128 35.5zM306 784h64l-91 -144h-51z" />
    <glyph glyph-name="Scircumflex" unicode="&#x15c;" horiz-adv-x="643" 
d="M210.5 14.5q-56.5 26.5 -95 70.5t-54.5 96l58 20q27 -73 87 -114t129 -41q49 0 88.5 19t61.5 50.5t22 68.5q0 51 -32 87t-85 49l-136 36q-79 20 -120.5 76t-41.5 127q0 58 28 103t77.5 70t111.5 25t114.5 -23.5t88.5 -64t51 -88.5l-57 -21q-25 66 -80 103t-116 37
q-44 0 -79 -18.5t-55 -50t-20 -69.5q0 -52 32 -89.5t94 -54.5l122 -32q80 -21 123.5 -73.5t43.5 -125.5q0 -58 -30 -103t-83.5 -70.5t-121.5 -25.5q-69 0 -125.5 26.5zM292 998h57l120 -144h-57l-91 107l-90 -107h-57z" />
    <glyph glyph-name="scircumflex" unicode="&#x15d;" horiz-adv-x="508" 
d="M136 23.5q-56 35.5 -84 98.5l52 26q26 -49 68 -76.5t91 -27.5q53 0 88.5 26.5t35.5 67.5q0 37 -27 61t-67 32l-82 15q-69 17 -103 56t-34 92q0 44 23 78t62.5 52.5t87.5 18.5q65 0 118 -33.5t75 -88.5l-53 -27q-22 44 -59.5 69t-82.5 25q-48 0 -78.5 -25.5t-30.5 -64.5
q0 -36 24.5 -59t60.5 -30l89 -16q66 -17 102.5 -58.5t36.5 -95.5q0 -43 -24 -77.5t-66 -54t-95 -19.5q-72 0 -128 35.5zM225 784h57l120 -144h-57l-91 107l-90 -107h-57z" />
    <glyph glyph-name="Scedilla" unicode="&#x15e;" horiz-adv-x="643" 
d="M302.5 -210.5q-20.5 4.5 -34.5 11.5l13 36q30 -12 59 -12q24 0 37 11t13 30q0 16 -10 25.5t-28 9.5q-20 0 -42 -12l-20 8l10 93q-89 10 -152.5 63.5t-86.5 127.5l58 20q27 -73 87 -114t129 -41q49 0 88.5 19t61.5 50.5t22 68.5q0 51 -32 87t-85 49l-136 36
q-79 20 -120.5 76t-41.5 127q0 58 28 103t77.5 70t111.5 25t114.5 -23.5t88.5 -64t51 -88.5l-57 -21q-25 66 -80 103t-116 37q-44 0 -79 -18.5t-55 -50t-20 -69.5q0 -52 32 -89.5t94 -54.5l122 -32q80 -21 123.5 -73.5t43.5 -125.5q0 -57 -29 -102t-81.5 -70.5t-118.5 -26.5
l-5 -53q16 4 26 4q33 0 54 -20t21 -51q0 -36 -26.5 -59.5t-69.5 -23.5q-19 0 -39.5 4.5z" />
    <glyph glyph-name="scedilla" unicode="&#x15f;" horiz-adv-x="508" 
d="M234.5 -210.5q-20.5 4.5 -34.5 11.5l13 36q30 -12 59 -12q24 0 37 11t13 30q0 16 -10 25.5t-28 9.5q-20 0 -42 -12l-20 8l10 93q-62 8 -109 42.5t-71 89.5l52 26q26 -49 68 -76.5t91 -27.5q53 0 88.5 26.5t35.5 67.5q0 37 -27 61t-67 32l-82 15q-69 17 -103 56t-34 92
q0 44 23 78t62.5 52.5t87.5 18.5q65 0 118 -33.5t75 -88.5l-53 -27q-22 44 -59.5 69t-82.5 25q-48 0 -78.5 -25.5t-30.5 -64.5q0 -36 24.5 -59t60.5 -30l89 -16q66 -17 102.5 -58.5t36.5 -95.5q0 -63 -49.5 -105t-125.5 -46l-5 -53q16 4 26 4q33 0 54 -20t21 -51
q0 -36 -26.5 -59.5t-69.5 -23.5q-19 0 -39.5 4.5z" />
    <glyph glyph-name="Scaron" unicode="&#x160;" horiz-adv-x="643" 
d="M210.5 14.5q-56.5 26.5 -95 70.5t-54.5 96l58 20q27 -73 87 -114t129 -41q49 0 88.5 19t61.5 50.5t22 68.5q0 51 -32 87t-85 49l-136 36q-79 20 -120.5 76t-41.5 127q0 58 28 103t77.5 70t111.5 25t114.5 -23.5t88.5 -64t51 -88.5l-57 -21q-25 66 -80 103t-116 37
q-44 0 -79 -18.5t-55 -50t-20 -69.5q0 -52 32 -89.5t94 -54.5l122 -32q80 -21 123.5 -73.5t43.5 -125.5q0 -58 -30 -103t-83.5 -70.5t-121.5 -25.5q-69 0 -125.5 26.5zM174 998h57l90 -106l91 106h57l-120 -144h-57z" />
    <glyph glyph-name="scaron" unicode="&#x161;" horiz-adv-x="508" 
d="M136 23.5q-56 35.5 -84 98.5l52 26q26 -49 68 -76.5t91 -27.5q53 0 88.5 26.5t35.5 67.5q0 37 -27 61t-67 32l-82 15q-69 17 -103 56t-34 92q0 44 23 78t62.5 52.5t87.5 18.5q65 0 118 -33.5t75 -88.5l-53 -27q-22 44 -59.5 69t-82.5 25q-48 0 -78.5 -25.5t-30.5 -64.5
q0 -36 24.5 -59t60.5 -30l89 -16q66 -17 102.5 -58.5t36.5 -95.5q0 -43 -24 -77.5t-66 -54t-95 -19.5q-72 0 -128 35.5zM107 784h57l90 -106l91 106h57l-120 -144h-57z" />
    <glyph glyph-name="uni0162" unicode="&#x162;" horiz-adv-x="513" 
d="M225 685h-208v60h480v-60h-207v-685h-65v685zM237.5 -210.5q-20.5 4.5 -34.5 11.5l13 36q30 -12 59 -12q24 0 37 11t13 30q0 16 -10 25.5t-28 9.5q-20 0 -42 -12l-20 8l11 103h42l-6 -65q16 4 26 4q33 0 54 -20t21 -51q0 -36 -26.5 -59.5t-69.5 -23.5q-19 0 -39.5 4.5z
" />
    <glyph glyph-name="uni0163" unicode="&#x163;" horiz-adv-x="384" 
d="M237.5 -210.5q-20.5 4.5 -34.5 11.5l13 36q30 -12 59 -12q24 0 37 11t13 30q0 16 -10 25.5t-28 9.5q-20 0 -42 -12l-20 8l11 101q-48 11 -73 47t-25 96v333h-100v57h38q29 0 45.5 17.5t16.5 49.5v57h60v-124h116v-57h-116v-333q0 -90 87 -90q23 0 38 3v-55q-17 -5 -46 -5
l-5 -59q16 4 26 4q33 0 54 -20t21 -51q0 -36 -26.5 -59.5t-69.5 -23.5q-19 0 -39.5 4.5z" />
    <glyph glyph-name="Tcaron" unicode="&#x164;" horiz-adv-x="513" 
d="M225 685h-208v60h480v-60h-207v-685h-65v685zM109 998h57l90 -106l91 106h57l-120 -144h-57z" />
    <glyph glyph-name="tcaron" unicode="&#x165;" horiz-adv-x="374" 
d="M173.5 31.5q-35.5 37.5 -35.5 109.5v333h-100v57h38q29 0 45.5 17.5t16.5 49.5v57h60v-124h116v-57h-116v-333q0 -90 87 -90q23 0 38 3v-55q-19 -5 -47 -5q-67 0 -102.5 37.5zM276 848h68l-11 -184h-45z" />
    <glyph glyph-name="Tbar" unicode="&#x166;" horiz-adv-x="513" 
d="M225 345h-136v55h136v285h-208v60h480v-60h-207v-285h134v-55h-134v-345h-65v345z" />
    <glyph glyph-name="tbar" unicode="&#x167;" horiz-adv-x="384" 
d="M173.5 31.5q-35.5 37.5 -35.5 109.5v96h-98v57h98v180h-100v57h38q29 0 45.5 17.5t16.5 49.5v57h60v-124h116v-57h-116v-180h118v-57h-118v-96q0 -90 87 -90q23 0 38 3v-55q-19 -5 -47 -5q-67 0 -102.5 37.5z" />
    <glyph glyph-name="Utilde" unicode="&#x168;" horiz-adv-x="695" 
d="M213.5 21q-58.5 33 -91 91.5t-32.5 134.5v498h65v-500q0 -58 24 -102.5t68 -69.5t101 -25q56 0 100 25t68 69.5t24 102.5v500h65v-498q0 -76 -32 -135t-90.5 -91.5t-134.5 -32.5t-134.5 33zM370.5 895.5q-14.5 6.5 -31.5 18.5q-15 10 -24.5 14.5t-20.5 4.5
q-13 0 -22.5 -10t-11.5 -29h-45q1 39 22.5 62.5t53.5 23.5q19 0 33 -6.5t33 -18.5q13 -9 23 -14t22 -5q30 0 33 40h45q-1 -40 -21.5 -63.5t-53.5 -23.5q-20 0 -34.5 6.5z" />
    <glyph glyph-name="utilde" unicode="&#x169;" 
d="M171.5 13q-45.5 25 -72.5 71.5t-27 107.5v339h60v-334q0 -69 41.5 -109.5t106.5 -40.5q68 0 108.5 45.5t40.5 119.5v319h60v-531h-60v71q-24 -39 -65.5 -61t-92.5 -22q-54 0 -99.5 25zM309.5 681.5q-14.5 6.5 -31.5 18.5q-15 10 -24.5 14.5t-20.5 4.5q-13 0 -22.5 -10
t-11.5 -29h-45q1 39 22.5 62.5t53.5 23.5q19 0 33 -6.5t33 -18.5q13 -9 23 -14t22 -5q30 0 33 40h45q-1 -40 -21.5 -63.5t-53.5 -23.5q-20 0 -34.5 6.5z" />
    <glyph glyph-name="Umacron" unicode="&#x16a;" horiz-adv-x="695" 
d="M213.5 21q-58.5 33 -91 91.5t-32.5 134.5v498h65v-500q0 -58 24 -102.5t68 -69.5t101 -25q56 0 100 25t68 69.5t24 102.5v500h65v-498q0 -76 -32 -135t-90.5 -91.5t-134.5 -32.5t-134.5 33zM220 934h255v-50h-255v50z" />
    <glyph glyph-name="umacron" unicode="&#x16b;" 
d="M171.5 13q-45.5 25 -72.5 71.5t-27 107.5v339h60v-334q0 -69 41.5 -109.5t106.5 -40.5q68 0 108.5 45.5t40.5 119.5v319h60v-531h-60v71q-24 -39 -65.5 -61t-92.5 -22q-54 0 -99.5 25zM159 720h255v-50h-255v50z" />
    <glyph glyph-name="Ubreve" unicode="&#x16c;" horiz-adv-x="695" 
d="M213.5 21q-58.5 33 -91 91.5t-32.5 134.5v498h65v-500q0 -58 24 -102.5t68 -69.5t101 -25q56 0 100 25t68 69.5t24 102.5v500h65v-498q0 -76 -32 -135t-90.5 -91.5t-134.5 -32.5t-134.5 33zM278.5 872q-31.5 18 -49.5 48.5t-18 66.5h48q0 -36 25.5 -62t62.5 -26t63.5 26
t26.5 62h47q0 -36 -18.5 -66.5t-50 -48.5t-68.5 -18t-68.5 18z" />
    <glyph glyph-name="ubreve" unicode="&#x16d;" 
d="M171.5 13q-45.5 25 -72.5 71.5t-27 107.5v339h60v-334q0 -69 41.5 -109.5t106.5 -40.5q68 0 108.5 45.5t40.5 119.5v319h60v-531h-60v71q-24 -39 -65.5 -61t-92.5 -22q-54 0 -99.5 25zM217.5 658q-31.5 18 -49.5 48.5t-18 66.5h48q0 -36 25.5 -62t62.5 -26t63.5 26
t26.5 62h47q0 -36 -18.5 -66.5t-50 -48.5t-68.5 -18t-68.5 18z" />
    <glyph glyph-name="Uring" unicode="&#x16e;" horiz-adv-x="695" 
d="M213.5 21q-58.5 33 -91 91.5t-32.5 134.5v498h65v-500q0 -58 24 -102.5t68 -69.5t101 -25q56 0 100 25t68 69.5t24 102.5v500h65v-498q0 -76 -32 -135t-90.5 -91.5t-134.5 -32.5t-134.5 33zM268 835.5q-32 31.5 -32 78.5t32 79t80 32q47 0 78.5 -32t31.5 -79t-31.5 -78.5
t-78.5 -31.5q-48 0 -80 31.5zM301 866.5q19 -18.5 46 -18.5t46.5 18.5t19.5 47.5t-19.5 48t-46.5 19q-28 0 -46.5 -18.5t-18.5 -48.5q0 -29 19 -47.5z" />
    <glyph glyph-name="uring" unicode="&#x16f;" 
d="M171.5 13q-45.5 25 -72.5 71.5t-27 107.5v339h60v-334q0 -69 41.5 -109.5t106.5 -40.5q68 0 108.5 45.5t40.5 119.5v319h60v-531h-60v71q-24 -39 -65.5 -61t-92.5 -22q-54 0 -99.5 25zM207 621.5q-32 31.5 -32 78.5t32 79t80 32q47 0 78.5 -32t31.5 -79t-31.5 -78.5
t-78.5 -31.5q-48 0 -80 31.5zM240 652.5q19 -18.5 46 -18.5t46.5 18.5t19.5 47.5t-19.5 48t-46.5 19q-28 0 -46.5 -18.5t-18.5 -48.5q0 -29 19 -47.5z" />
    <glyph glyph-name="Uhungarumlaut" unicode="&#x170;" horiz-adv-x="695" 
d="M213.5 21q-58.5 33 -91 91.5t-32.5 134.5v498h65v-500q0 -58 24 -102.5t68 -69.5t101 -25q56 0 100 25t68 69.5t24 102.5v500h65v-498q0 -76 -32 -135t-90.5 -91.5t-134.5 -32.5t-134.5 33zM333 998h64l-91 -144h-51zM467 998h64l-91 -144h-51z" />
    <glyph glyph-name="uhungarumlaut" unicode="&#x171;" 
d="M171.5 13q-45.5 25 -72.5 71.5t-27 107.5v339h60v-334q0 -69 41.5 -109.5t106.5 -40.5q68 0 108.5 45.5t40.5 119.5v319h60v-531h-60v71q-24 -39 -65.5 -61t-92.5 -22q-54 0 -99.5 25zM272 784h64l-91 -144h-51zM406 784h64l-91 -144h-51z" />
    <glyph glyph-name="Uogonek" unicode="&#x172;" horiz-adv-x="695" 
d="M308.5 -145q-26.5 22 -26.5 58q0 43 35 76q-68 7 -119.5 41.5t-79.5 90.5t-28 126v498h65v-500q0 -58 24 -102.5t68 -69.5t101 -25q56 0 100 25t68 69.5t24 102.5v500h65v-498q0 -73 -30 -130.5t-84 -91t-126 -37.5q-36 -30 -36 -65q0 -22 14 -34.5t37 -12.5q30 0 67 26
l22 -34q-41 -35 -93 -35q-41 0 -67.5 22z" />
    <glyph glyph-name="uogonek" unicode="&#x173;" 
d="M171.5 13q-45.5 25 -72.5 71.5t-27 107.5v339h60v-334q0 -69 41.5 -109.5t106.5 -40.5q68 0 108.5 45.5t40.5 119.5v319h60v-531h-41q-45 -33 -45 -72q0 -22 14 -34.5t37 -12.5q30 0 67 26l22 -34q-41 -35 -93 -35q-41 0 -67.5 22t-26.5 58q0 30 18.5 57.5t54.5 46.5v49
q-24 -39 -65.5 -61t-92.5 -22q-54 0 -99.5 25z" />
    <glyph glyph-name="Wcircumflex" unicode="&#x174;" horiz-adv-x="986" 
d="M17 745h67l185 -646l191 646h67l190 -646l185 646h68l-219 -745h-66l-191 649l-192 -649h-67zM464 998h57l120 -144h-57l-91 107l-90 -107h-57z" />
    <glyph glyph-name="wcircumflex" unicode="&#x175;" horiz-adv-x="783" 
d="M17 531h67l145 -440l132 440h61l132 -440l146 440h67l-183 -531h-61l-131 439l-132 -439h-61zM363 784h57l120 -144h-57l-91 107l-90 -107h-57z" />
    <glyph glyph-name="Ycircumflex" unicode="&#x176;" horiz-adv-x="624" 
d="M280 340l-263 405h73l222 -339l222 339h73l-262 -405v-340h-65v340zM283 998h57l120 -144h-57l-91 107l-90 -107h-57z" />
    <glyph glyph-name="ycircumflex" unicode="&#x177;" horiz-adv-x="533" 
d="M237 784h57l120 -144h-57l-91 107l-90 -107h-57z" />
    <glyph glyph-name="Ydieresis" unicode="&#x178;" horiz-adv-x="624" 
d="M280 340l-263 405h73l222 -339l222 339h73l-262 -405v-340h-65v340zM204.5 893q-14.5 14 -14.5 35t14.5 35t34.5 14t34.5 -14t14.5 -35t-14.5 -35t-34.5 -14t-34.5 14zM352.5 963q14.5 14 34.5 14t34 -14t14 -35t-14 -35t-34 -14t-34.5 14t-14.5 35t14.5 35z" />
    <glyph glyph-name="Zacute" unicode="&#x179;" horiz-adv-x="595" 
d="M28 42l444 643h-418v60h504v-42l-443 -643h453v-60h-540v42zM350 998h64l-91 -144h-51z" />
    <glyph glyph-name="zacute" unicode="&#x17a;" horiz-adv-x="442" 
d="M28 48l309 426h-291v57h372v-47l-308 -426h310v-58h-392v48zM271 784h64l-91 -144h-51z" />
    <glyph glyph-name="Zdotaccent" unicode="&#x17b;" horiz-adv-x="595" 
d="M28 42l444 643h-418v60h504v-42l-443 -643h453v-60h-540v42zM263.5 893q-14.5 14 -14.5 35t14.5 35t34.5 14t34.5 -14t14.5 -35t-14.5 -35t-34.5 -14t-34.5 14z" />
    <glyph glyph-name="zdotaccent" unicode="&#x17c;" horiz-adv-x="442" 
d="M28 48l309 426h-291v57h372v-47l-308 -426h310v-58h-392v48zM184.5 679q-14.5 14 -14.5 35t14.5 35t34.5 14t34.5 -14t14.5 -35t-14.5 -35t-34.5 -14t-34.5 14z" />
    <glyph glyph-name="Zcaron" unicode="&#x17d;" horiz-adv-x="595" 
d="M28 42l444 643h-418v60h504v-42l-443 -643h453v-60h-540v42zM150 998h57l90 -106l91 106h57l-120 -144h-57z" />
    <glyph glyph-name="zcaron" unicode="&#x17e;" horiz-adv-x="442" 
d="M28 48l309 426h-291v57h372v-47l-308 -426h310v-58h-392v48zM71 784h57l90 -106l91 106h57l-120 -144h-57z" />
    <glyph glyph-name="uni018F" unicode="&#x18f;" horiz-adv-x="838" 
d="M237.5 34q-77.5 46 -121.5 126.5t-44 178.5q0 30 5 55h625q-4 85 -45 154t-109 108.5t-152 39.5q-82 0 -150 -38.5t-105 -104.5l-56 29q39 79 124 127t187 48q104 0 188.5 -50.5t133.5 -139t49 -197.5q0 -105 -45.5 -192.5t-126.5 -138.5t-184 -51q-96 0 -173.5 46z
M176 186.5q35 -63.5 97.5 -100t139.5 -36.5q75 0 138 36t102.5 100.5t46.5 147.5h-559v-5q0 -79 35 -142.5z" />
    <glyph glyph-name="florin" unicode="&#x192;" horiz-adv-x="475" 
d="M56 -7v55q15 -3 36 -3q54 0 85 31.5t31 97.5v172h-132v55h132v171q0 88 48 136.5t122 48.5q24 0 42 -5v-54q-15 3 -36 3q-55 0 -85.5 -32t-30.5 -97v-171h132v-55h-132v-172q0 -88 -48 -137t-123 -49q-24 0 -41 5z" />
    <glyph glyph-name="Ohorn" unicode="&#x1a0;" horiz-adv-x="881" 
d="M255.5 37.5q-84.5 49.5 -134 137.5t-49.5 198t49.5 197.5t134 137t185.5 49.5h213q51 0 51 54q0 19 -5 36.5t-16 43.5h68q23 -48 23 -87q0 -52 -30 -78t-83 -26h-23q79 -51 125 -136t46 -191q0 -110 -49.5 -198t-134 -137.5t-185.5 -49.5t-185.5 49.5zM175.5 211
q38.5 -74 108 -117.5t157.5 -43.5q87 0 156.5 43.5t108.5 117.5t39 162q0 87 -38.5 161t-108 118t-157.5 44t-157.5 -44t-108 -118t-38.5 -161q0 -88 38.5 -162z" />
    <glyph glyph-name="ohorn" unicode="&#x1a1;" horiz-adv-x="659" 
d="M193.5 24.5q-61.5 36.5 -97 100t-35.5 141.5t35 141.5t96.5 99.5t137.5 36h113q52 0 52 54q0 19 -5.5 37.5t-15.5 43.5h59q22 -51 22 -87q0 -39 -19 -63t-52 -32q53 -37 83.5 -97.5t30.5 -132.5q0 -79 -35.5 -142.5t-97 -99.5t-135.5 -36q-75 0 -136.5 36.5zM152 155
q27 -50 74 -79t104 -29q56 0 103 29t74 79t27 111t-27 111t-73.5 78.5t-103.5 28.5t-104 -28.5t-74 -78.5t-27 -111t27 -111z" />
    <glyph glyph-name="Uhorn" unicode="&#x1af;" horiz-adv-x="695" 
d="M213.5 21q-58.5 33 -91 91.5t-32.5 134.5v498h65v-500q0 -58 24 -102.5t68 -69.5t101 -25q56 0 100 25t68 69.5t24 102.5v500h58q52 0 52 54q0 19 -5.5 37t-16.5 43h69q11 -25 17 -45t6 -42q0 -52 -30.5 -78t-82.5 -26h-2v-441q0 -76 -32 -135t-90.5 -91.5t-134.5 -32.5
t-134.5 33z" />
    <glyph glyph-name="uhorn" unicode="&#x1b0;" horiz-adv-x="585" 
d="M171.5 13q-45.5 25 -72.5 71.5t-27 107.5v339h60v-334q0 -69 41.5 -109.5t106.5 -40.5q68 0 108.5 45.5t40.5 119.5v319h33q52 0 52 54q0 19 -5.5 37.5t-15.5 43.5h60q11 -28 16.5 -47t5.5 -40q0 -43 -23 -68t-63 -30v-481h-60v71q-24 -39 -65.5 -61t-92.5 -22
q-54 0 -99.5 25z" />
    <glyph glyph-name="uni01C4" unicode="&#x1c4;" horiz-adv-x="1338" 
d="M94 745h241q108 0 189.5 -45.5t125.5 -129.5t44 -197q0 -112 -44.5 -196.5t-125.5 -130.5t-189 -46h-241v745zM334 60q88 0 154 39t102.5 109.5t36.5 164.5q0 93 -36.5 164t-103 109.5t-153.5 38.5h-175v-625h175zM771 42l444 643h-418v60h504v-42l-443 -643h453v-60
h-540v42zM950 998l90 -106l91 106h57l-120 -144h-57l-118 144h57z" />
    <glyph glyph-name="uni01C5" unicode="&#x1c5;" horiz-adv-x="1185" 
d="M94 745h241q108 0 189.5 -45.5t125.5 -129.5t44 -197q0 -112 -44.5 -196.5t-125.5 -130.5t-189 -46h-241v745zM334 60q88 0 154 39t102.5 109.5t36.5 164.5q0 93 -36.5 164t-103 109.5t-153.5 38.5h-175v-625h175zM771 48l309 426h-291v57h372v-47l-308 -426h310v-58
h-392v48zM871 784l90 -106l91 106h57l-120 -144h-57l-118 144h57z" />
    <glyph glyph-name="uni01C6" unicode="&#x1c6;" horiz-adv-x="1113" 
d="M189 24.5q-60 36.5 -94 100t-34 141.5t34 141.5t94 99.5t133 36q66 0 120 -29.5t86 -80.5v312h60v-745h-60v101q-31 -53 -85.5 -83t-120.5 -30q-73 0 -133 36.5zM150.5 154.5q25.5 -49.5 71 -78t102.5 -28.5t103.5 28.5t73 78t26.5 111.5q0 61 -26.5 110.5t-73 78
t-103.5 28.5q-56 0 -101.5 -28.5t-71.5 -78t-26 -110.5q0 -62 25.5 -111.5zM698 48l309 426h-291v57h372v-47l-308 -426h311v-58h-393v48zM799 784l89 -107l92 107h57l-120 -144h-57l-118 144h57z" />
    <glyph glyph-name="uni01C7" unicode="&#x1c7;" horiz-adv-x="1098" 
d="M94 745h65v-685h335v-60h-400v745zM657 34q-59 46 -80 123l60 19q18 -59 60.5 -93.5t101.5 -34.5q62 0 101.5 39.5t39.5 102.5v555h65v-555q0 -59 -26 -105t-73 -71.5t-107 -25.5q-83 0 -142 46z" />
    <glyph glyph-name="uni01C8" unicode="&#x1c8;" horiz-adv-x="757" 
d="M94 745h65v-685h335v-60h-400v745zM472 -216v55q18 -3 39 -3q48 0 76 28t28 80v587h60v-587q0 -78 -45.5 -121t-118.5 -43q-26 0 -39 4zM616.5 700q11.5 12 28.5 12t28.5 -11.5t11.5 -29.5t-11 -30t-29 -12q-17 0 -28.5 12t-11.5 30q0 17 11.5 29z" />
    <glyph glyph-name="uni01C9" unicode="&#x1c9;" horiz-adv-x="450" 
d="M83 757h60v-757h-60v757zM165 -216v55q18 -3 39 -3q48 0 76 28t28 80v587h60v-587q0 -78 -45.5 -121t-118.5 -43q-26 0 -39 4zM309.5 700q11.5 12 28.5 12t28.5 -11.5t11.5 -29.5t-11 -30t-29 -12q-17 0 -28.5 12t-11.5 30q0 17 11.5 29z" />
    <glyph glyph-name="uni01CA" unicode="&#x1ca;" horiz-adv-x="1119" 
d="M94 745h55l430 -617v617h65v-745h-55l-430 618v-618h-65v745zM798 65h39q58 0 91 35.5t33 99.5v545h65v-547q0 -91 -51 -144.5t-138 -53.5h-39v65z" />
    <glyph glyph-name="uni01CB" unicode="&#x1cb;" horiz-adv-x="962" 
d="M94 745h55l430 -617v617h65v-745h-55l-430 618v-618h-65v745zM677 -216v55q18 -3 39 -3q48 0 76 28t28 80v587h60v-587q0 -78 -45.5 -121t-118.5 -43q-26 0 -39 4zM821.5 700q11.5 12 28.5 12t28.5 -11.5t11.5 -29.5t-11 -30t-29 -12q-17 0 -28.5 12t-11.5 30
q0 17 11.5 29z" />
    <glyph glyph-name="uni01CC" unicode="&#x1cc;" horiz-adv-x="797" 
d="M83 531h60v-71q24 39 65.5 61t92.5 22q54 0 99.5 -25t72.5 -70t27 -101v-347h-60v330q0 71 -41.5 112.5t-106.5 41.5q-68 0 -108.5 -45.5t-40.5 -118.5v-320h-60v531zM512 -216v55q18 -3 39 -3q48 0 76 28t28 80v587h60v-587q0 -78 -45.5 -121t-118.5 -43q-26 0 -39 4z
M656.5 700q11.5 12 28.5 12t28.5 -11.5t11.5 -29.5t-11 -30t-29 -12q-17 0 -28.5 12t-11.5 30q0 17 11.5 29z" />
    <glyph glyph-name="Gcaron" unicode="&#x1e6;" horiz-adv-x="828" 
d="M246 37.5q-82 49.5 -128 137t-46 197.5t46.5 198t128 137.5t184.5 49.5q73 0 134 -26t103.5 -68t61.5 -89l-60 -28q-31 70 -92.5 110t-146.5 40t-152 -41t-104.5 -114.5t-37.5 -168.5t37.5 -168t104.5 -113.5t152 -40.5q77 0 138.5 34.5t97 95t35.5 135.5v4h-271v58h336
v-56q0 -92 -44 -168.5t-120.5 -120.5t-171.5 -44q-103 0 -185 49.5zM267 998h57l90 -106l91 106h57l-120 -144h-57z" />
    <glyph glyph-name="gcaron" unicode="&#x1e7;" horiz-adv-x="663" 
d="M192.5 -184.5q-60.5 35.5 -89.5 92.5l54 30q23 -46 68 -73t105 -27q51 0 94.5 20.5t70 61.5t26.5 100v100q-31 -53 -84 -82.5t-117 -29.5q-73 0 -132.5 35.5t-93 97t-33.5 135.5q0 73 33.5 134.5t93 97t132.5 35.5q64 0 116.5 -29t84.5 -79v96h60v-511q0 -69 -32 -123.5
t-89 -85.5t-129 -31q-78 0 -138.5 35.5zM150.5 171.5q25.5 -47.5 70.5 -75.5t101 -28q55 0 100 28t71 75.5t26 104.5q0 56 -26 103.5t-71 75.5t-100 28q-56 0 -101 -28t-70.5 -75t-25.5 -104t25.5 -104.5zM184 784h57l90 -106l91 106h57l-120 -144h-57z" />
    <glyph glyph-name="uni01EA" unicode="&#x1ea;" horiz-adv-x="881" 
d="M597.5 93.5q69.5 43.5 108.5 117.5t39 162q0 87 -38.5 161t-108 118t-157.5 44t-157.5 -44t-108 -118t-38.5 -161q0 -88 38.5 -162t108 -117.5t157.5 -43.5q87 0 156.5 43.5zM121.5 570.5q49.5 87.5 134 137t185.5 49.5t185.5 -49.5t134 -137t49.5 -197.5
q0 -107 -46.5 -193.5t-127 -137t-178.5 -54.5q-36 -30 -36 -65q0 -22 14 -34.5t37 -12.5q30 0 67 26l22 -34q-41 -35 -93 -35q-41 0 -67.5 22t-26.5 58q0 43 35 76q-95 8 -172 59t-121.5 136t-44.5 189q0 110 49.5 197.5z" />
    <glyph glyph-name="uni01EB" unicode="&#x1eb;" horiz-adv-x="659" 
d="M433 76q47 29 74 79t27 111t-27 111t-73.5 78.5t-103.5 28.5t-104 -28.5t-74 -78.5t-27 -111t27 -111t74 -79t104 -29q56 0 103 29zM96 407.5q35 63.5 96.5 99.5t137.5 36t137 -36t96 -99.5t35 -141.5q0 -77 -34 -139.5t-92.5 -99t-130.5 -39.5q-30 -27 -30 -60
q0 -22 14 -34.5t37 -12.5q30 0 67 26l22 -34q-41 -35 -93 -35q-41 0 -67.5 22t-26.5 58q0 39 31 72q-67 8 -120.5 46t-83.5 98t-30 132q0 78 35 141.5z" />
    <glyph glyph-name="Aringacute" unicode="&#x1fa;" horiz-adv-x="648" 
d="M291 745h67l274 -745h-70l-68 190h-339l-69 -190h-69zM472 250l-148 412l-148 -412h296zM245 835.5q-32 31.5 -32 78.5t32 79t80 32q47 0 78.5 -32t31.5 -79t-31.5 -78.5t-78.5 -31.5q-48 0 -80 31.5zM278 866.5q19 -18.5 46 -18.5t46.5 18.5t19.5 47.5t-19.5 48
t-46.5 19q-28 0 -46.5 -18.5t-18.5 -48.5q0 -29 19 -47.5zM345 1140h63l-56 -90h-55z" />
    <glyph glyph-name="aringacute" unicode="&#x1fb;" horiz-adv-x="573" 
d="M146 7q-40 19 -62.5 53t-22.5 78q0 62 41.5 106.5t129.5 59.5l199 33v30q0 53 -38 86t-99 33q-49 0 -89.5 -24.5t-61.5 -65.5l-54 29q23 50 80.5 84t124.5 34q57 0 102 -22.5t70 -62.5t25 -91v-367h-60v92q-26 -45 -78.5 -74.5t-117.5 -29.5q-49 0 -89 19zM156.5 70
q32.5 -27 82.5 -27q56 0 100 26t68 70t24 96v46l-183 -30q-124 -20 -124 -111q0 -43 32.5 -70zM207 621.5q-32 31.5 -32 78.5t32 79t80 32q47 0 78.5 -32t31.5 -79t-31.5 -78.5t-78.5 -31.5q-48 0 -80 31.5zM240 652.5q19 -18.5 46 -18.5t46.5 18.5t19.5 47.5t-19.5 48
t-46.5 19q-28 0 -46.5 -18.5t-18.5 -48.5q0 -29 19 -47.5zM307 926h63l-56 -90h-55z" />
    <glyph glyph-name="AEacute" unicode="&#x1fc;" horiz-adv-x="986" 
d="M291 745h646v-60h-405v-281h385v-60h-385v-284h405v-60h-470v190h-312l-69 -190h-69zM467 250v435h-134l-157 -435h291zM546 998h64l-91 -144h-51z" />
    <glyph glyph-name="aeacute" unicode="&#x1fd;" horiz-adv-x="993" 
d="M146 7q-40 19 -62.5 53t-22.5 78q0 62 41.5 106.5t129.5 59.5l198 33v30q0 53 -37.5 86t-98.5 33q-49 0 -89.5 -24.5t-61.5 -65.5l-54 29q23 50 80.5 84t124.5 34t116 -30.5t69 -83.5q34 54 89 84t121 30q70 0 125.5 -34.5t86.5 -92t31 -125.5q0 -20 -3 -44h-435
q2 -59 30 -105t74 -72t100 -26q56 0 99.5 27t70.5 74l51 -27q-28 -58 -87.5 -94t-133.5 -36q-64 0 -117.5 27t-89.5 76v-91h-61v91q-26 -45 -78.5 -74t-116.5 -29q-49 0 -89 19zM156.5 70q32.5 -27 82.5 -27q56 0 99.5 26t67.5 69.5t24 96.5v46l-182 -30q-124 -20 -124 -111
q0 -43 32.5 -70zM869 302q0 52 -24 94.5t-65.5 66.5t-90.5 24t-91 -23.5t-69.5 -65.5t-32.5 -96h373zM549 784h64l-91 -144h-51z" />
    <glyph glyph-name="Oslashacute" unicode="&#x1fe;" horiz-adv-x="881" 
d="M322.5 7q-56.5 19 -102.5 54l-51 -61h-78l84 101q-49 52 -76 121.5t-27 150.5q0 110 49.5 197.5t134 137t185.5 49.5q61 0 117 -18.5t103 -53.5l50 60h78l-83 -100q49 -52 76.5 -121.5t27.5 -150.5q0 -110 -49.5 -198t-134 -137.5t-185.5 -49.5q-62 0 -118.5 19z
M158 252.5q21 -57.5 59 -101.5l404 486q-78 59 -180 59q-88 0 -157.5 -44t-108 -118t-38.5 -161q0 -63 21 -120.5zM441 50q87 0 156.5 43.5t108.5 117.5t39 162q0 63 -21 121t-59 102l-405 -486q77 -60 181 -60zM493 998h64l-91 -144h-51z" />
    <glyph glyph-name="oslashacute" unicode="&#x1ff;" horiz-adv-x="659" 
d="M174 37l-30 -37h-72l61 73q-34 37 -53 87t-19 106q0 78 35 141.5t96.5 99.5t137.5 36q88 0 155 -48l30 36h72l-60 -72q34 -38 52.5 -87t18.5 -106q0 -79 -35.5 -142.5t-97 -99.5t-135.5 -36q-86 0 -156 49zM174 122l271 326q-50 36 -115 36q-57 0 -104 -28.5t-74 -78.5
t-27 -111q0 -84 49 -144zM330 47q56 0 103 29t74 79t27 111q0 41 -12.5 78t-35.5 65l-272 -325q53 -37 116 -37zM382 784h64l-91 -144h-51z" />
    <glyph glyph-name="uni0200" unicode="&#x200;" horiz-adv-x="648" 
d="M291 745h67l274 -745h-70l-68 190h-339l-69 -190h-69zM472 250l-148 412l-148 -412h296zM275 998h64l78 -144h-51zM205 998l78 -144h-51l-91 144h64z" />
    <glyph glyph-name="uni0201" unicode="&#x201;" horiz-adv-x="573" 
d="M146 7q-40 19 -62.5 53t-22.5 78q0 62 41.5 106.5t129.5 59.5l199 33v30q0 53 -38 86t-99 33q-49 0 -89.5 -24.5t-61.5 -65.5l-54 29q23 50 80.5 84t124.5 34q57 0 102 -22.5t70 -62.5t25 -91v-367h-60v92q-26 -45 -78.5 -74.5t-117.5 -29.5q-49 0 -89 19zM156.5 70
q32.5 -27 82.5 -27q56 0 100 26t68 70t24 96v46l-183 -30q-124 -20 -124 -111q0 -43 32.5 -70zM237 784h64l78 -144h-51zM167 784l78 -144h-51l-91 144h64z" />
    <glyph glyph-name="uni0202" unicode="&#x202;" horiz-adv-x="648" 
d="M291 745h67l274 -745h-70l-68 190h-339l-69 -190h-69zM472 250l-148 412l-148 -412h296zM206 920.5q18 30.5 49.5 48.5t68.5 18t68.5 -17.5t50 -48t18.5 -67.5h-47q0 37 -26 62.5t-64 25.5q-37 0 -62.5 -25.5t-25.5 -62.5h-48q0 36 18 66.5z" />
    <glyph glyph-name="uni0203" unicode="&#x203;" horiz-adv-x="573" 
d="M146 7q-40 19 -62.5 53t-22.5 78q0 62 41.5 106.5t129.5 59.5l199 33v30q0 53 -38 86t-99 33q-49 0 -89.5 -24.5t-61.5 -65.5l-54 29q23 50 80.5 84t124.5 34q57 0 102 -22.5t70 -62.5t25 -91v-367h-60v92q-26 -45 -78.5 -74.5t-117.5 -29.5q-49 0 -89 19zM156.5 70
q32.5 -27 82.5 -27q56 0 100 26t68 70t24 96v46l-183 -30q-124 -20 -124 -111q0 -43 32.5 -70zM168 706.5q18 30.5 49.5 48.5t68.5 18t68.5 -17.5t50 -48t18.5 -67.5h-47q0 37 -26 62.5t-64 25.5q-37 0 -62.5 -25.5t-25.5 -62.5h-48q0 36 18 66.5z" />
    <glyph glyph-name="uni0204" unicode="&#x204;" horiz-adv-x="613" 
d="M94 745h470v-60h-405v-281h385v-60h-385v-284h405v-60h-470v745zM279 998h64l78 -144h-51zM209 998l78 -144h-51l-91 144h64z" />
    <glyph glyph-name="uni0205" unicode="&#x205;" horiz-adv-x="621" 
d="M191.5 24.5q-60.5 36.5 -95.5 100.5t-35 142t33.5 141t92 99t130.5 36q71 0 126.5 -34.5t86.5 -92t31 -125.5q0 -23 -4 -44h-434q2 -59 30 -105.5t73.5 -72t99.5 -25.5q56 0 99.5 27t71.5 74l51 -27q-28 -58 -87.5 -94t-134.5 -36q-74 0 -134.5 36.5zM497 302
q0 52 -24 94.5t-65 66.5t-91 24q-49 0 -91.5 -23.5t-69.5 -65.5t-32 -96h373zM262 784h64l78 -144h-51zM192 784l78 -144h-51l-91 144h64z" />
    <glyph glyph-name="uni0206" unicode="&#x206;" horiz-adv-x="613" 
d="M94 745h470v-60h-405v-281h385v-60h-385v-284h405v-60h-470v745zM210 920.5q18 30.5 49.5 48.5t68.5 18t68.5 -17.5t50 -48t18.5 -67.5h-47q0 37 -26 62.5t-64 25.5q-37 0 -62.5 -25.5t-25.5 -62.5h-48q0 36 18 66.5z" />
    <glyph glyph-name="uni0207" unicode="&#x207;" horiz-adv-x="621" 
d="M191.5 24.5q-60.5 36.5 -95.5 100.5t-35 142t33.5 141t92 99t130.5 36q71 0 126.5 -34.5t86.5 -92t31 -125.5q0 -23 -4 -44h-434q2 -59 30 -105.5t73.5 -72t99.5 -25.5q56 0 99.5 27t71.5 74l51 -27q-28 -58 -87.5 -94t-134.5 -36q-74 0 -134.5 36.5zM497 302
q0 52 -24 94.5t-65 66.5t-91 24q-49 0 -91.5 -23.5t-69.5 -65.5t-32 -96h373zM193 706.5q18 30.5 49.5 48.5t68.5 18t68.5 -17.5t50 -48t18.5 -67.5h-47q0 37 -26 62.5t-64 25.5q-37 0 -62.5 -25.5t-25.5 -62.5h-48q0 36 18 66.5z" />
    <glyph glyph-name="uni0208" unicode="&#x208;" horiz-adv-x="252" 
d="M94 745h65v-745h-65v745zM76 998h64l78 -144h-51zM6 998l78 -144h-51l-91 144h64z" />
    <glyph glyph-name="uni0209" unicode="&#x209;" horiz-adv-x="192" 
d="M66 531h60v-531h-60v531zM46 784h64l78 -144h-51zM-24 784l78 -144h-51l-91 144h64z" />
    <glyph glyph-name="uni020A" unicode="&#x20a;" horiz-adv-x="252" 
d="M94 745h65v-745h-65v745zM7 920.5q18 30.5 49.5 48.5t68.5 18t68.5 -17.5t50 -48t18.5 -67.5h-47q0 37 -26 62.5t-64 25.5q-37 0 -62.5 -25.5t-25.5 -62.5h-48q0 36 18 66.5z" />
    <glyph glyph-name="uni020B" unicode="&#x20b;" horiz-adv-x="192" 
d="M66 531h60v-531h-60v531zM-23 706.5q18 30.5 49.5 48.5t68.5 18t68.5 -17.5t50 -48t18.5 -67.5h-47q0 37 -26 62.5t-64 25.5q-37 0 -62.5 -25.5t-25.5 -62.5h-48q0 36 18 66.5z" />
    <glyph glyph-name="uni020C" unicode="&#x20c;" horiz-adv-x="881" 
d="M255.5 37.5q-84.5 49.5 -134 137.5t-49.5 198t49.5 197.5t134 137t185.5 49.5t185.5 -49.5t134 -137t49.5 -197.5t-49.5 -198t-134 -137.5t-185.5 -49.5t-185.5 49.5zM175.5 211q38.5 -74 108 -117.5t157.5 -43.5q87 0 156.5 43.5t108.5 117.5t39 162q0 87 -38.5 161
t-108 118t-157.5 44t-157.5 -44t-108 -118t-38.5 -161q0 -88 38.5 -162zM391 998h64l78 -144h-51zM321 998l78 -144h-51l-91 144h64z" />
    <glyph glyph-name="uni020D" unicode="&#x20d;" horiz-adv-x="659" 
d="M193.5 24.5q-61.5 36.5 -97 100t-35.5 141.5t35 141.5t96.5 99.5t137.5 36t137 -36t96 -99.5t35 -141.5q0 -79 -35.5 -142.5t-97 -99.5t-135.5 -36q-75 0 -136.5 36.5zM152 155q27 -50 74 -79t104 -29q56 0 103 29t74 79t27 111t-27 111t-73.5 78.5t-103.5 28.5
t-104 -28.5t-74 -78.5t-27 -111t27 -111zM280 784h64l78 -144h-51zM210 784l78 -144h-51l-91 144h64z" />
    <glyph glyph-name="uni020E" unicode="&#x20e;" horiz-adv-x="881" 
d="M255.5 37.5q-84.5 49.5 -134 137.5t-49.5 198t49.5 197.5t134 137t185.5 49.5t185.5 -49.5t134 -137t49.5 -197.5t-49.5 -198t-134 -137.5t-185.5 -49.5t-185.5 49.5zM175.5 211q38.5 -74 108 -117.5t157.5 -43.5q87 0 156.5 43.5t108.5 117.5t39 162q0 87 -38.5 161
t-108 118t-157.5 44t-157.5 -44t-108 -118t-38.5 -161q0 -88 38.5 -162zM322 920.5q18 30.5 49.5 48.5t68.5 18t68.5 -17.5t50 -48t18.5 -67.5h-47q0 37 -26 62.5t-64 25.5q-37 0 -62.5 -25.5t-25.5 -62.5h-48q0 36 18 66.5z" />
    <glyph glyph-name="uni020F" unicode="&#x20f;" horiz-adv-x="659" 
d="M193.5 24.5q-61.5 36.5 -97 100t-35.5 141.5t35 141.5t96.5 99.5t137.5 36t137 -36t96 -99.5t35 -141.5q0 -79 -35.5 -142.5t-97 -99.5t-135.5 -36q-75 0 -136.5 36.5zM152 155q27 -50 74 -79t104 -29q56 0 103 29t74 79t27 111t-27 111t-73.5 78.5t-103.5 28.5
t-104 -28.5t-74 -78.5t-27 -111t27 -111zM211 706.5q18 30.5 49.5 48.5t68.5 18t68.5 -17.5t50 -48t18.5 -67.5h-47q0 37 -26 62.5t-64 25.5q-37 0 -62.5 -25.5t-25.5 -62.5h-48q0 36 18 66.5z" />
    <glyph glyph-name="uni0210" unicode="&#x210;" horiz-adv-x="638" 
d="M94 745h250q70 0 124.5 -28.5t85 -79.5t30.5 -117q0 -80 -43 -137t-117 -77l176 -306h-77l-167 295h-197v-295h-65v745zM346 355q77 0 125 45.5t48 120.5q0 74 -47.5 119t-125.5 45h-187v-330h187zM264 998h64l78 -144h-51zM194 998l78 -144h-51l-91 144h64z" />
    <glyph glyph-name="uni0211" unicode="&#x211;" horiz-adv-x="339" 
d="M83 531h60v-67q20 35 58.5 54.5t87.5 19.5h34v-60h-41q-64 0 -101.5 -41.5t-37.5 -111.5v-325h-60v531zM153 784h64l78 -144h-51zM83 784l78 -144h-51l-91 144h64z" />
    <glyph glyph-name="uni0212" unicode="&#x212;" horiz-adv-x="638" 
d="M94 745h250q70 0 124.5 -28.5t85 -79.5t30.5 -117q0 -80 -43 -137t-117 -77l176 -306h-77l-167 295h-197v-295h-65v745zM346 355q77 0 125 45.5t48 120.5q0 74 -47.5 119t-125.5 45h-187v-330h187zM195 920.5q18 30.5 49.5 48.5t68.5 18t68.5 -17.5t50 -48t18.5 -67.5
h-47q0 37 -26 62.5t-64 25.5q-37 0 -62.5 -25.5t-25.5 -62.5h-48q0 36 18 66.5z" />
    <glyph glyph-name="uni0213" unicode="&#x213;" horiz-adv-x="339" 
d="M83 531h60v-67q20 35 58.5 54.5t87.5 19.5h34v-60h-41q-64 0 -101.5 -41.5t-37.5 -111.5v-325h-60v531zM84 706.5q18 30.5 49.5 48.5t68.5 18t68.5 -17.5t50 -48t18.5 -67.5h-47q0 37 -26 62.5t-64 25.5q-37 0 -62.5 -25.5t-25.5 -62.5h-48q0 36 18 66.5z" />
    <glyph glyph-name="uni0214" unicode="&#x214;" horiz-adv-x="695" 
d="M213.5 21q-58.5 33 -91 91.5t-32.5 134.5v498h65v-500q0 -58 24 -102.5t68 -69.5t101 -25q56 0 100 25t68 69.5t24 102.5v500h65v-498q0 -76 -32 -135t-90.5 -91.5t-134.5 -32.5t-134.5 33zM298 998h64l78 -144h-51zM228 998l78 -144h-51l-91 144h64z" />
    <glyph glyph-name="uni0215" unicode="&#x215;" 
d="M171.5 13q-45.5 25 -72.5 71.5t-27 107.5v339h60v-334q0 -69 41.5 -109.5t106.5 -40.5q68 0 108.5 45.5t40.5 119.5v319h60v-531h-60v71q-24 -39 -65.5 -61t-92.5 -22q-54 0 -99.5 25zM236 784h64l78 -144h-51zM166 784l78 -144h-51l-91 144h64z" />
    <glyph glyph-name="uni0216" unicode="&#x216;" horiz-adv-x="695" 
d="M213.5 21q-58.5 33 -91 91.5t-32.5 134.5v498h65v-500q0 -58 24 -102.5t68 -69.5t101 -25q56 0 100 25t68 69.5t24 102.5v500h65v-498q0 -76 -32 -135t-90.5 -91.5t-134.5 -32.5t-134.5 33zM229 920.5q18 30.5 49.5 48.5t68.5 18t68.5 -17.5t50 -48t18.5 -67.5h-47
q0 37 -26 62.5t-64 25.5q-37 0 -62.5 -25.5t-25.5 -62.5h-48q0 36 18 66.5z" />
    <glyph glyph-name="uni0217" unicode="&#x217;" 
d="M171.5 13q-45.5 25 -72.5 71.5t-27 107.5v339h60v-334q0 -69 41.5 -109.5t106.5 -40.5q68 0 108.5 45.5t40.5 119.5v319h60v-531h-60v71q-24 -39 -65.5 -61t-92.5 -22q-54 0 -99.5 25zM168 706.5q18 30.5 49.5 48.5t68.5 18t68.5 -17.5t50 -48t18.5 -67.5h-47
q0 37 -26 62.5t-64 25.5q-37 0 -62.5 -25.5t-25.5 -62.5h-48q0 36 18 66.5z" />
    <glyph glyph-name="uni0218" unicode="&#x218;" horiz-adv-x="643" 
d="M210.5 14.5q-56.5 26.5 -95 70.5t-54.5 96l58 20q27 -73 87 -114t129 -41q49 0 88.5 19t61.5 50.5t22 68.5q0 51 -32 87t-85 49l-136 36q-79 20 -120.5 76t-41.5 127q0 58 28 103t77.5 70t111.5 25t114.5 -23.5t88.5 -64t51 -88.5l-57 -21q-25 66 -80 103t-116 37
q-44 0 -79 -18.5t-55 -50t-20 -69.5q0 -52 32 -89.5t94 -54.5l122 -32q80 -21 123.5 -73.5t43.5 -125.5q0 -58 -30 -103t-83.5 -70.5t-121.5 -25.5q-69 0 -125.5 26.5zM318.5 -244.5q14.5 24.5 15.5 64.5h-36v100h68v-77q0 -63 -22.5 -101t-65.5 -49v30q26 8 40.5 32.5z" />
    <glyph glyph-name="uni0219" unicode="&#x219;" horiz-adv-x="508" 
d="M136 23.5q-56 35.5 -84 98.5l52 26q26 -49 68 -76.5t91 -27.5q53 0 88.5 26.5t35.5 67.5q0 37 -27 61t-67 32l-82 15q-69 17 -103 56t-34 92q0 44 23 78t62.5 52.5t87.5 18.5q65 0 118 -33.5t75 -88.5l-53 -27q-22 44 -59.5 69t-82.5 25q-48 0 -78.5 -25.5t-30.5 -64.5
q0 -36 24.5 -59t60.5 -30l89 -16q66 -17 102.5 -58.5t36.5 -95.5q0 -43 -24 -77.5t-66 -54t-95 -19.5q-72 0 -128 35.5zM250.5 -244.5q14.5 24.5 15.5 64.5h-36v100h68v-77q0 -63 -22.5 -101t-65.5 -49v30q26 8 40.5 32.5z" />
    <glyph glyph-name="uni021A" unicode="&#x21a;" horiz-adv-x="513" 
d="M225 685h-208v60h480v-60h-207v-685h-65v685zM253.5 -244.5q14.5 24.5 15.5 64.5h-36v100h68v-77q0 -63 -22.5 -101t-65.5 -49v30q26 8 40.5 32.5z" />
    <glyph glyph-name="uni021B" unicode="&#x21b;" horiz-adv-x="384" 
d="M173.5 31.5q-35.5 37.5 -35.5 109.5v333h-100v57h38q29 0 45.5 17.5t16.5 49.5v57h60v-124h116v-57h-116v-333q0 -90 87 -90q23 0 38 3v-55q-19 -5 -47 -5q-67 0 -102.5 37.5zM253.5 -244.5q14.5 24.5 15.5 64.5h-36v100h68v-77q0 -63 -22.5 -101t-65.5 -49v30
q26 8 40.5 32.5z" />
    <glyph glyph-name="uni022A" unicode="&#x22a;" horiz-adv-x="881" 
d="M255.5 37.5q-84.5 49.5 -134 137.5t-49.5 198t49.5 197.5t134 137t185.5 49.5t185.5 -49.5t134 -137t49.5 -197.5t-49.5 -198t-134 -137.5t-185.5 -49.5t-185.5 49.5zM175.5 211q38.5 -74 108 -117.5t157.5 -43.5q87 0 156.5 43.5t108.5 117.5t39 162q0 87 -38.5 161
t-108 118t-157.5 44t-157.5 -44t-108 -118t-38.5 -161q0 -88 38.5 -162zM332.5 893q-14.5 14 -14.5 35t14.5 35t34.5 14t34.5 -14t14.5 -35t-14.5 -35t-34.5 -14t-34.5 14zM329 1067h225v-50h-225v50zM480.5 963q14.5 14 34.5 14t34 -14t14 -35t-14 -35t-34 -14t-34.5 14
t-14.5 35t14.5 35z" />
    <glyph glyph-name="uni022B" unicode="&#x22b;" horiz-adv-x="659" 
d="M193.5 24.5q-61.5 36.5 -97 100t-35.5 141.5t35 141.5t96.5 99.5t137.5 36t137 -36t96 -99.5t35 -141.5q0 -79 -35.5 -142.5t-97 -99.5t-135.5 -36q-75 0 -136.5 36.5zM152 155q27 -50 74 -79t104 -29q56 0 103 29t74 79t27 111t-27 111t-73.5 78.5t-103.5 28.5
t-104 -28.5t-74 -78.5t-27 -111t27 -111zM221.5 679q-14.5 14 -14.5 35t14.5 35t34.5 14t34.5 -14t14.5 -35t-14.5 -35t-34.5 -14t-34.5 14zM218 853h225v-50h-225v50zM369.5 749q14.5 14 34.5 14t34 -14t14 -35t-14 -35t-34 -14t-34.5 14t-14.5 35t14.5 35z" />
    <glyph glyph-name="uni022C" unicode="&#x22c;" horiz-adv-x="881" 
d="M255.5 37.5q-84.5 49.5 -134 137.5t-49.5 198t49.5 197.5t134 137t185.5 49.5t185.5 -49.5t134 -137t49.5 -197.5t-49.5 -198t-134 -137.5t-185.5 -49.5t-185.5 49.5zM175.5 211q38.5 -74 108 -117.5t157.5 -43.5q87 0 156.5 43.5t108.5 117.5t39 162q0 87 -38.5 161
t-108 118t-157.5 44t-157.5 -44t-108 -118t-38.5 -161q0 -88 38.5 -162zM464.5 890.5q-14.5 6.5 -31.5 18.5q-15 10 -24.5 14.5t-20.5 4.5q-13 0 -22.5 -10t-11.5 -29h-45q1 39 22.5 62.5t53.5 23.5q19 0 33 -6.5t33 -18.5q13 -9 23 -14t22 -5q30 0 33 40h45
q-1 -40 -21.5 -63.5t-53.5 -23.5q-20 0 -34.5 6.5zM329 1092h225v-50h-225v50z" />
    <glyph glyph-name="uni022D" unicode="&#x22d;" horiz-adv-x="659" 
d="M193.5 24.5q-61.5 36.5 -97 100t-35.5 141.5t35 141.5t96.5 99.5t137.5 36t137 -36t96 -99.5t35 -141.5q0 -79 -35.5 -142.5t-97 -99.5t-135.5 -36q-75 0 -136.5 36.5zM152 155q27 -50 74 -79t104 -29q56 0 103 29t74 79t27 111t-27 111t-73.5 78.5t-103.5 28.5
t-104 -28.5t-74 -78.5t-27 -111t27 -111zM353.5 676.5q-14.5 6.5 -31.5 18.5q-15 10 -24.5 14.5t-20.5 4.5q-13 0 -22.5 -10t-11.5 -29h-45q1 39 22.5 62.5t53.5 23.5q19 0 33 -6.5t33 -18.5q13 -9 23 -14t22 -5q30 0 33 40h45q-1 -40 -21.5 -63.5t-53.5 -23.5
q-20 0 -34.5 6.5zM218 878h225v-50h-225v50z" />
    <glyph glyph-name="uni0230" unicode="&#x230;" horiz-adv-x="881" 
d="M255.5 37.5q-84.5 49.5 -134 137.5t-49.5 198t49.5 197.5t134 137t185.5 49.5t185.5 -49.5t134 -137t49.5 -197.5t-49.5 -198t-134 -137.5t-185.5 -49.5t-185.5 49.5zM175.5 211q38.5 -74 108 -117.5t157.5 -43.5q87 0 156.5 43.5t108.5 117.5t39 162q0 87 -38.5 161
t-108 118t-157.5 44t-157.5 -44t-108 -118t-38.5 -161q0 -88 38.5 -162zM328 1067h225v-50h-225v50zM406.5 963q14.5 14 34.5 14t34.5 -14t14.5 -35t-14.5 -35t-34.5 -14t-34.5 14t-14.5 35t14.5 35z" />
    <glyph glyph-name="uni0231" unicode="&#x231;" horiz-adv-x="659" 
d="M193.5 24.5q-61.5 36.5 -97 100t-35.5 141.5t35 141.5t96.5 99.5t137.5 36t137 -36t96 -99.5t35 -141.5q0 -79 -35.5 -142.5t-97 -99.5t-135.5 -36q-75 0 -136.5 36.5zM152 155q27 -50 74 -79t104 -29q56 0 103 29t74 79t27 111t-27 111t-73.5 78.5t-103.5 28.5
t-104 -28.5t-74 -78.5t-27 -111t27 -111zM217 853h225v-50h-225v50zM295.5 749q14.5 14 34.5 14t34.5 -14t14.5 -35t-14.5 -35t-34.5 -14t-34.5 14t-14.5 35t14.5 35z" />
    <glyph glyph-name="uni0232" unicode="&#x232;" horiz-adv-x="624" 
d="M280 340l-263 405h73l222 -339l222 339h73l-262 -405v-340h-65v340zM185 934h255v-50h-255v50z" />
    <glyph glyph-name="uni0233" unicode="&#x233;" horiz-adv-x="533" 
d="M139 720h255v-50h-255v50z" />
    <glyph glyph-name="uni0237" unicode="&#x237;" horiz-adv-x="225" 
d="M-60 -216v55q18 -3 39 -3q48 0 76 28t28 80v587h60v-587q0 -78 -45.5 -121t-118.5 -43q-26 0 -39 4z" />
    <glyph glyph-name="uni0259" unicode="&#x259;" horiz-adv-x="621" 
d="M178.5 22.5q-55.5 34.5 -86.5 92.5t-31 126q0 19 3 43h434q-2 59 -30 105.5t-73.5 72t-99.5 25.5q-56 0 -99.5 -26.5t-70.5 -73.5l-51 27q28 58 87.5 93.5t133.5 35.5t135 -36.5t96 -100t35 -141.5t-33.5 -141.5t-92.5 -99.5t-131 -36q-70 0 -125.5 34.5zM148.5 134.5
q24.5 -42.5 65.5 -66.5t90 -24t91.5 23.5t69.5 65.5t32 96h-373q0 -52 24.5 -94.5z" />
    <glyph glyph-name="uni02BB" unicode="&#x2bb;" horiz-adv-x="294" 
d="M149 689.5q-14 -23.5 -14 -58.5q16 0 27.5 -11.5t11.5 -26.5q0 -16 -10.5 -27t-26.5 -11t-26.5 14.5t-10.5 35.5q-1 58 22.5 96.5t66.5 49.5v-30q-26 -8 -40 -31.5z" />
    <glyph glyph-name="uni02BC" unicode="&#x2bc;" horiz-adv-x="274" 
d="M104 745h67l-11 -201h-45z" />
    <glyph glyph-name="uni02BE" unicode="&#x2be;" horiz-adv-x="318" 
d="M150 652.5q19 18.5 19 47.5q0 30 -19 48.5t-47 18.5v44q48 0 80 -32t32 -79t-32 -78.5t-80 -31.5v44q28 0 47 18.5z" />
    <glyph glyph-name="uni02BF" unicode="&#x2bf;" horiz-adv-x="318" 
d="M135 621.5q-32 31.5 -32 78.5t32 79t80 32v-44q-28 0 -47 -18.5t-19 -48.5q0 -29 19 -47.5t47 -18.5v-44q-48 0 -80 31.5z" />
    <glyph glyph-name="circumflex" unicode="&#x2c6;" horiz-adv-x="501" 
d="M221 784h57l120 -144h-57l-91 107l-90 -107h-57z" />
    <glyph glyph-name="caron" unicode="&#x2c7;" horiz-adv-x="501" 
d="M103 784h57l90 -106l91 106h57l-120 -144h-57z" />
    <glyph glyph-name="uni02C8" unicode="&#x2c8;" horiz-adv-x="274" 
d="M103 745h68v-195h-68v195z" />
    <glyph glyph-name="uni02C9" unicode="&#x2c9;" horiz-adv-x="461" 
d="M103 720h255v-50h-255v50z" />
    <glyph glyph-name="uni02CA" unicode="&#x2ca;" horiz-adv-x="348" 
d="M181 784h64l-91 -144h-51z" />
    <glyph glyph-name="uni02CB" unicode="&#x2cb;" horiz-adv-x="348" 
d="M103 784h64l78 -144h-51z" />
    <glyph glyph-name="uni02CC" unicode="&#x2cc;" horiz-adv-x="274" 
d="M103 0h68v-195h-68v195z" />
    <glyph glyph-name="breve" unicode="&#x2d8;" horiz-adv-x="479" 
d="M170.5 658q-31.5 18 -49.5 48.5t-18 66.5h48q0 -36 25.5 -62t62.5 -26t63.5 26t26.5 62h47q0 -36 -18.5 -66.5t-50 -48.5t-68.5 -18t-68.5 18z" />
    <glyph glyph-name="dotaccent" unicode="&#x2d9;" horiz-adv-x="304" 
d="M117.5 679q-14.5 14 -14.5 35t14.5 35t34.5 14t34.5 -14t14.5 -35t-14.5 -35t-34.5 -14t-34.5 14z" />
    <glyph glyph-name="ring" unicode="&#x2da;" horiz-adv-x="428" 
d="M135 621.5q-32 31.5 -32 78.5t32 79t80 32q47 0 78.5 -32t31.5 -79t-31.5 -78.5t-78.5 -31.5q-48 0 -80 31.5zM168 652.5q19 -18.5 46 -18.5t46.5 18.5t19.5 47.5t-19.5 48t-46.5 19q-28 0 -46.5 -18.5t-18.5 -48.5q0 -29 19 -47.5z" />
    <glyph glyph-name="ogonek" unicode="&#x2db;" horiz-adv-x="393" 
d="M129.5 -155q-26.5 22 -26.5 58t26 67t74 50h30v-13q-83 -39 -83 -94q0 -22 14 -34.5t37 -12.5q30 0 67 26l22 -34q-41 -35 -93 -35q-41 0 -67.5 22z" />
    <glyph glyph-name="tilde" unicode="&#x2dc;" horiz-adv-x="471" 
d="M258.5 651.5q-14.5 6.5 -31.5 18.5q-15 10 -24.5 14.5t-20.5 4.5q-13 0 -22.5 -10t-11.5 -29h-45q1 39 22.5 62.5t53.5 23.5q19 0 33 -6.5t33 -18.5q13 -9 23 -14t22 -5q30 0 33 40h45q-1 -40 -21.5 -63.5t-53.5 -23.5q-20 0 -34.5 6.5z" />
    <glyph glyph-name="hungarumlaut" unicode="&#x2dd;" horiz-adv-x="482" 
d="M181 784h64l-91 -144h-51zM315 784h64l-91 -144h-51z" />
    <glyph glyph-name="gravecomb" unicode="&#x300;" horiz-adv-x="0" 
d="M103 784h64l78 -144h-51z" />
    <glyph glyph-name="acutecomb" unicode="&#x301;" horiz-adv-x="0" 
d="M181 784h64l-91 -144h-51z" />
    <glyph glyph-name="uni0302" unicode="&#x302;" horiz-adv-x="0" 
d="M221 784h57l120 -144h-57l-91 107l-90 -107h-57z" />
    <glyph glyph-name="tildecomb" unicode="&#x303;" horiz-adv-x="0" 
d="M258.5 651.5q-14.5 6.5 -31.5 18.5q-15 10 -24.5 14.5t-20.5 4.5q-13 0 -22.5 -10t-11.5 -29h-45q1 39 22.5 62.5t53.5 23.5q19 0 33 -6.5t33 -18.5q13 -9 23 -14t22 -5q30 0 33 40h45q-1 -40 -21.5 -63.5t-53.5 -23.5q-20 0 -34.5 6.5z" />
    <glyph glyph-name="uni0304" unicode="&#x304;" horiz-adv-x="0" 
d="M103 720h255v-50h-255v50z" />
    <glyph glyph-name="uni0306" unicode="&#x306;" horiz-adv-x="0" 
d="M170.5 658q-31.5 18 -49.5 48.5t-18 66.5h48q0 -36 25.5 -62t62.5 -26t63.5 26t26.5 62h47q0 -36 -18.5 -66.5t-50 -48.5t-68.5 -18t-68.5 18z" />
    <glyph glyph-name="uni0307" unicode="&#x307;" horiz-adv-x="0" 
d="M117.5 679q-14.5 14 -14.5 35t14.5 35t34.5 14t34.5 -14t14.5 -35t-14.5 -35t-34.5 -14t-34.5 14z" />
    <glyph glyph-name="uni0308" unicode="&#x308;" horiz-adv-x="0" 
d="M117.5 679q-14.5 14 -14.5 35t14.5 35t34.5 14t34.5 -14t14.5 -35t-14.5 -35t-34.5 -14t-34.5 14zM265.5 749q14.5 14 34.5 14t34 -14t14 -35t-14 -35t-34 -14t-34.5 14t-14.5 35t14.5 35z" />
    <glyph glyph-name="hookabovecomb" unicode="&#x309;" horiz-adv-x="0" 
d="M190.5 642q17.5 19 17.5 42t-16.5 37.5t-46.5 14.5q-20 0 -42 -8v37q19 9 53 9q46 0 74 -22.5t28 -59.5q0 -70 -101 -112l-14 29q30 14 47.5 33z" />
    <glyph glyph-name="uni030A" unicode="&#x30a;" horiz-adv-x="0" 
d="M135 621.5q-32 31.5 -32 78.5t32 79t80 32q47 0 78.5 -32t31.5 -79t-31.5 -78.5t-78.5 -31.5q-48 0 -80 31.5zM168 652.5q19 -18.5 46 -18.5t46.5 18.5t19.5 47.5t-19.5 48t-46.5 19q-28 0 -46.5 -18.5t-18.5 -48.5q0 -29 19 -47.5z" />
    <glyph glyph-name="uni030B" unicode="&#x30b;" horiz-adv-x="0" 
d="M181 784h64l-91 -144h-51zM315 784h64l-91 -144h-51z" />
    <glyph glyph-name="uni030C" unicode="&#x30c;" horiz-adv-x="0" 
d="M103 784h57l90 -106l91 106h57l-120 -144h-57z" />
    <glyph glyph-name="uni030F" unicode="&#x30f;" horiz-adv-x="0" 
d="M237 784h64l78 -144h-51zM167 784l78 -144h-51l-91 144h64z" />
    <glyph glyph-name="uni0311" unicode="&#x311;" horiz-adv-x="0" 
d="M121 706.5q18 30.5 49.5 48.5t68.5 18t68.5 -17.5t50 -48t18.5 -67.5h-47q0 37 -26 62.5t-64 25.5q-37 0 -62.5 -25.5t-25.5 -62.5h-48q0 36 18 66.5z" />
    <glyph glyph-name="uni0312" unicode="&#x312;" horiz-adv-x="0" 
d="M126.5 761.5q23.5 35.5 64.5 45.5v-28q-25 -7 -40 -29.5t-16 -54.5h36v-100h-68v80q0 51 23.5 86.5z" />
    <glyph glyph-name="uni031B" unicode="&#x31b;" horiz-adv-x="0" 
d="M103 693h13q52 0 52 54q0 19 -5.5 37.5t-15.5 43.5h60q11 -28 16.5 -47t5.5 -40q0 -48 -29 -73.5t-77 -25.5h-20v51z" />
    <glyph glyph-name="dotbelowcomb" unicode="&#x323;" horiz-adv-x="0" 
d="M117.5 -164q-14.5 14 -14.5 35t14.5 35t34.5 14t34.5 -14t14.5 -35t-14.5 -35t-34.5 -14t-34.5 14z" />
    <glyph glyph-name="uni0324" unicode="&#x324;" horiz-adv-x="0" 
d="M117.5 -164q-14.5 14 -14.5 35t14.5 35t34.5 14t34.5 -14t14.5 -35t-14.5 -35t-34.5 -14t-34.5 14zM265.5 -94q14.5 14 34.5 14t34 -14t14 -35t-14 -35t-34 -14t-34.5 14t-14.5 35t14.5 35z" />
    <glyph glyph-name="uni0326" unicode="&#x326;" horiz-adv-x="0" 
d="M143.5 -244.5q14.5 24.5 15.5 64.5h-36v100h68v-77q0 -63 -22.5 -101t-65.5 -49v30q26 8 40.5 32.5z" />
    <glyph glyph-name="uni0327" unicode="&#x327;" horiz-adv-x="0" 
d="M137.5 -190.5q-20.5 4.5 -34.5 11.5l13 36q30 -12 59 -12q24 0 37 11t13 30q0 16 -10 25.5t-28 9.5q-20 0 -42 -12l-20 8l11 103h42l-6 -65q16 4 26 4q33 0 54 -20t21 -51q0 -36 -26.5 -59.5t-69.5 -23.5q-19 0 -39.5 4.5z" />
    <glyph glyph-name="uni0328" unicode="&#x328;" horiz-adv-x="0" 
d="M129.5 -155q-26.5 22 -26.5 58t26 67t74 50h30v-13q-83 -39 -83 -94q0 -22 14 -34.5t37 -12.5q30 0 67 26l22 -34q-41 -35 -93 -35q-41 0 -67.5 22z" />
    <glyph glyph-name="uni032E" unicode="&#x32e;" horiz-adv-x="0" 
d="M170.5 -195q-31.5 18 -49.5 48.5t-18 66.5h48q0 -37 25.5 -62.5t62.5 -25.5q38 0 64 25.5t26 62.5h47q0 -37 -18.5 -67.5t-50 -48t-68.5 -17.5t-68.5 18z" />
    <glyph glyph-name="uni0331" unicode="&#x331;" horiz-adv-x="0" 
d="M103 -100h255v-50h-255v50z" />
    <glyph glyph-name="uni0394" unicode="&#x394;" horiz-adv-x="604" 
d="M17 60l252 685h67l252 -685v-60h-571v60zM519 60l-217 602l-216 -602h433z" />
    <glyph glyph-name="uni03A9" unicode="&#x3a9;" horiz-adv-x="881" 
d="M72 60h160q-74 50 -117 131.5t-43 181.5q0 110 49.5 197.5t134 137t185.5 49.5t185.5 -49.5t134 -137t49.5 -197.5q0 -100 -43 -181.5t-118 -131.5h161v-60h-271v60q94 34 150 119t56 194q0 87 -39 161t-108 118t-157 44t-157.5 -44t-108 -118t-38.5 -161q0 -109 56 -194
t150 -119v-60h-271v60z" />
    <glyph glyph-name="pi" unicode="&#x3c0;" horiz-adv-x="636" 
d="M138 474h-100v57h560v-57h-100v-474h-60v474h-240v-474h-60v474z" />
    <glyph glyph-name="uni0E3F" unicode="&#xe3f;" horiz-adv-x="694" 
d="M94 745h214v100h57v-100h36q60 0 106 -23.5t71.5 -66t25.5 -97.5q0 -52 -24.5 -94t-68.5 -65q57 -24 90 -74t33 -112q0 -98 -62 -155.5t-171 -57.5h-36v-100h-57v100h-214v745zM308 60v304h-149v-304h149zM308 423v262h-149v-262h149zM397 60q79 0 125.5 41t46.5 111
q0 69 -45.5 110.5t-121.5 41.5h-37v-304h32zM395 423q65 0 104.5 37t39.5 97t-38.5 94t-105.5 34h-30v-262h30z" />
    <glyph glyph-name="uni1E08" unicode="&#x1e08;" horiz-adv-x="785" 
d="M413 -12l-5 -53q16 4 26 4q33 0 54 -20t21 -51q0 -36 -26.5 -59.5t-69.5 -23.5q-19 0 -39.5 4.5t-34.5 11.5l13 36q30 -12 59 -12q24 0 37 11t13 30q0 16 -10 25.5t-28 9.5q-20 0 -42 -12l-20 8l10 95q-87 14 -155 66t-106 133.5t-38 181.5q0 110 46 197.5t127.5 137
t183.5 49.5q71 0 131.5 -26.5t102.5 -68.5t61 -88l-61 -27q-31 69 -92 109t-142 40q-85 0 -151.5 -40.5t-103.5 -114t-37 -168.5t37 -168.5t103.5 -114t151.5 -40.5q81 0 142 39.5t92 108.5l61 -27q-19 -46 -61 -88t-102.5 -68.5t-131.5 -26.5h-16zM445 998h64l-91 -144h-51
z" />
    <glyph glyph-name="uni1E09" unicode="&#x1e09;" horiz-adv-x="604" 
d="M305.5 -210.5q-20.5 4.5 -34.5 11.5l13 36q30 -12 59 -12q24 0 37 11t13 30q0 16 -10 25.5t-28 9.5q-20 0 -42 -12l-20 8l10 92q-71 5 -127 42.5t-87 99t-31 135.5q0 79 34.5 142t95.5 99t137 36q73 0 133.5 -36.5t87.5 -93.5l-53 -28q-24 46 -68.5 73t-99.5 27
q-57 0 -103.5 -28t-74 -78t-27.5 -113t27.5 -113t74 -78t103.5 -28q55 0 99.5 27t68.5 74l53 -29q-25 -53 -80 -89t-121 -41l-5 -54q16 4 26 4q33 0 54 -20t21 -51q0 -36 -26.5 -59.5t-69.5 -23.5q-19 0 -39.5 4.5zM377 784h64l-91 -144h-51z" />
    <glyph glyph-name="uni1E0C" unicode="&#x1e0c;" horiz-adv-x="743" 
d="M94 745h241q108 0 189.5 -45.5t125.5 -129.5t44 -197q0 -112 -44.5 -196.5t-125.5 -130.5t-189 -46h-241v745zM334 60q88 0 154 39t102.5 109.5t36.5 164.5q0 93 -36.5 164t-103 109.5t-153.5 38.5h-175v-625h175zM348.5 -164q-14.5 14 -14.5 35t14.5 35t34.5 14
t34.5 -14t14.5 -35t-14.5 -35t-34.5 -14t-34.5 14z" />
    <glyph glyph-name="uni1E0D" unicode="&#x1e0d;" horiz-adv-x="671" 
d="M189 24.5q-60 36.5 -94 100t-34 141.5t34 141.5t94 99.5t133 36q66 0 120 -29.5t86 -80.5v324h60v-757h-60v101q-31 -53 -85.5 -83t-120.5 -30q-73 0 -133 36.5zM150.5 154.5q25.5 -49.5 71 -78t102.5 -28.5t103.5 28.5t73 78t26.5 111.5q0 61 -26.5 110.5t-73 78
t-103.5 28.5q-56 0 -101.5 -28.5t-71.5 -78t-26 -110.5q0 -62 25.5 -111.5zM301.5 -164q-14.5 14 -14.5 35t14.5 35t34.5 14t34.5 -14t14.5 -35t-14.5 -35t-34.5 -14t-34.5 14z" />
    <glyph glyph-name="uni1E0E" unicode="&#x1e0e;" horiz-adv-x="743" 
d="M94 745h241q108 0 189.5 -45.5t125.5 -129.5t44 -197q0 -112 -44.5 -196.5t-125.5 -130.5t-189 -46h-241v745zM334 60q88 0 154 39t102.5 109.5t36.5 164.5q0 93 -36.5 164t-103 109.5t-153.5 38.5h-175v-625h175zM255 -100h255v-50h-255v50z" />
    <glyph glyph-name="uni1E0F" unicode="&#x1e0f;" horiz-adv-x="671" 
d="M189 24.5q-60 36.5 -94 100t-34 141.5t34 141.5t94 99.5t133 36q66 0 120 -29.5t86 -80.5v324h60v-757h-60v101q-31 -53 -85.5 -83t-120.5 -30q-73 0 -133 36.5zM150.5 154.5q25.5 -49.5 71 -78t102.5 -28.5t103.5 28.5t73 78t26.5 111.5q0 61 -26.5 110.5t-73 78
t-103.5 28.5q-56 0 -101.5 -28.5t-71.5 -78t-26 -110.5q0 -62 25.5 -111.5zM208 -100h255v-50h-255v50z" />
    <glyph glyph-name="uni1E14" unicode="&#x1e14;" horiz-adv-x="613" 
d="M94 745h470v-60h-405v-281h385v-60h-385v-284h405v-60h-470v745zM201 934h255v-50h-255v50zM316 1072l48 -90h-55l-56 90h63z" />
    <glyph glyph-name="uni1E15" unicode="&#x1e15;" horiz-adv-x="621" 
d="M191.5 24.5q-60.5 36.5 -95.5 100.5t-35 142t33.5 141t92 99t130.5 36q71 0 126.5 -34.5t86.5 -92t31 -125.5q0 -23 -4 -44h-434q2 -59 30 -105.5t73.5 -72t99.5 -25.5q56 0 99.5 27t71.5 74l51 -27q-28 -58 -87.5 -94t-134.5 -36q-74 0 -134.5 36.5zM497 302
q0 52 -24 94.5t-65 66.5t-91 24q-49 0 -91.5 -23.5t-69.5 -65.5t-32 -96h373zM184 720h255v-50h-255v50zM299 858l48 -90h-55l-56 90h63z" />
    <glyph glyph-name="uni1E16" unicode="&#x1e16;" horiz-adv-x="613" 
d="M94 745h470v-60h-405v-281h385v-60h-385v-284h405v-60h-470v745zM201 934h255v-50h-255v50zM341 1072h63l-56 -90h-55z" />
    <glyph glyph-name="uni1E17" unicode="&#x1e17;" horiz-adv-x="621" 
d="M191.5 24.5q-60.5 36.5 -95.5 100.5t-35 142t33.5 141t92 99t130.5 36q71 0 126.5 -34.5t86.5 -92t31 -125.5q0 -23 -4 -44h-434q2 -59 30 -105.5t73.5 -72t99.5 -25.5q56 0 99.5 27t71.5 74l51 -27q-28 -58 -87.5 -94t-134.5 -36q-74 0 -134.5 36.5zM497 302
q0 52 -24 94.5t-65 66.5t-91 24q-49 0 -91.5 -23.5t-69.5 -65.5t-32 -96h373zM184 720h255v-50h-255v50zM324 858h63l-56 -90h-55z" />
    <glyph glyph-name="uni1E1C" unicode="&#x1e1c;" horiz-adv-x="613" 
d="M94 745h470v-60h-405v-281h385v-60h-385v-284h405v-60h-470v745zM309.5 -210.5q-20.5 4.5 -34.5 11.5l13 36q30 -12 59 -12q24 0 37 11t13 30q0 16 -10 25.5t-28 9.5q-20 0 -42 -12l-20 8l11 103h42l-6 -65q16 4 26 4q33 0 54 -20t21 -51q0 -36 -26.5 -59.5t-69.5 -23.5
q-19 0 -39.5 4.5zM259.5 872q-31.5 18 -49.5 48.5t-18 66.5h48q0 -36 25.5 -62t62.5 -26t63.5 26t26.5 62h47q0 -36 -18.5 -66.5t-50 -48.5t-68.5 -18t-68.5 18z" />
    <glyph glyph-name="uni1E1D" unicode="&#x1e1d;" horiz-adv-x="621" 
d="M291.5 -210.5q-20.5 4.5 -34.5 11.5l13 36q30 -12 59 -12q24 0 37 11t13 30q0 16 -10 25.5t-28 9.5q-20 0 -42 -12l-20 8l10 93q-65 9 -117 47t-81.5 98t-29.5 132q0 78 33.5 141t92 99t130.5 36q71 0 126.5 -34.5t86.5 -92t31 -125.5q0 -23 -4 -44h-434q2 -59 30 -105.5
t73.5 -72t99.5 -25.5q56 0 99.5 27t71.5 74l51 -27q-27 -57 -85 -93t-132 -37l-5 -53q16 4 26 4q33 0 54 -20t21 -51q0 -36 -26.5 -59.5t-69.5 -23.5q-19 0 -39.5 4.5zM497 302q0 52 -24 94.5t-65 66.5t-91 24q-49 0 -91.5 -23.5t-69.5 -65.5t-32 -96h373zM223 773
q0 -36 25.5 -62t62.5 -26t63.5 26t26.5 62h47q0 -36 -18.5 -66.5t-50 -48.5t-68.5 -18t-68.5 18t-49.5 48.5t-18 66.5h48z" />
    <glyph glyph-name="uni1E20" unicode="&#x1e20;" horiz-adv-x="828" 
d="M246 37.5q-82 49.5 -128 137t-46 197.5t46.5 198t128 137.5t184.5 49.5q73 0 134 -26t103.5 -68t61.5 -89l-60 -28q-31 70 -92.5 110t-146.5 40t-152 -41t-104.5 -114.5t-37.5 -168.5t37.5 -168t104.5 -113.5t152 -40.5q77 0 138.5 34.5t97 95t35.5 135.5v4h-271v58h336
v-56q0 -92 -44 -168.5t-120.5 -120.5t-171.5 -44q-103 0 -185 49.5zM287 934h255v-50h-255v50z" />
    <glyph glyph-name="uni1E21" unicode="&#x1e21;" horiz-adv-x="663" 
d="M192.5 -184.5q-60.5 35.5 -89.5 92.5l54 30q23 -46 68 -73t105 -27q51 0 94.5 20.5t70 61.5t26.5 100v100q-31 -53 -84 -82.5t-117 -29.5q-73 0 -132.5 35.5t-93 97t-33.5 135.5q0 73 33.5 134.5t93 97t132.5 35.5q64 0 116.5 -29t84.5 -79v96h60v-511q0 -69 -32 -123.5
t-89 -85.5t-129 -31q-78 0 -138.5 35.5zM150.5 171.5q25.5 -47.5 70.5 -75.5t101 -28q55 0 100 28t71 75.5t26 104.5q0 56 -26 103.5t-71 75.5t-100 28q-56 0 -101 -28t-70.5 -75t-25.5 -104t25.5 -104.5zM204 720h255v-50h-255v50z" />
    <glyph glyph-name="uni1E24" unicode="&#x1e24;" horiz-adv-x="737" 
d="M94 745h65v-339h420v339h65v-745h-65v346h-420v-346h-65v745zM334.5 -164q-14.5 14 -14.5 35t14.5 35t34.5 14t34.5 -14t14.5 -35t-14.5 -35t-34.5 -14t-34.5 14z" />
    <glyph glyph-name="uni1E25" unicode="&#x1e25;" 
d="M83 757h60v-297q24 39 65.5 61t92.5 22q54 0 99.5 -25t72.5 -70t27 -101v-347h-60v330q0 71 -41.5 112.5t-106.5 41.5q-67 0 -108 -45.5t-41 -118.5v-320h-60v757zM251.5 -164q-14.5 14 -14.5 35t14.5 35t34.5 14t34.5 -14t14.5 -35t-14.5 -35t-34.5 -14t-34.5 14z" />
    <glyph glyph-name="uni1E2A" unicode="&#x1e2a;" horiz-adv-x="737" 
d="M94 745h65v-339h420v339h65v-745h-65v346h-420v-346h-65v745zM299.5 -195q-31.5 18 -49.5 48.5t-18 66.5h48q0 -37 25.5 -62.5t62.5 -25.5q38 0 64 25.5t26 62.5h47q0 -37 -18.5 -67.5t-50 -48t-68.5 -17.5t-68.5 18z" />
    <glyph glyph-name="uni1E2B" unicode="&#x1e2b;" 
d="M83 757h60v-297q24 39 65.5 61t92.5 22q54 0 99.5 -25t72.5 -70t27 -101v-347h-60v330q0 71 -41.5 112.5t-106.5 41.5q-67 0 -108 -45.5t-41 -118.5v-320h-60v757zM217.5 -195q-31.5 18 -49.5 48.5t-18 66.5h48q0 -37 25.5 -62.5t62.5 -25.5q38 0 64 25.5t26 62.5h47
q0 -37 -18.5 -67.5t-50 -48t-68.5 -17.5t-68.5 18z" />
    <glyph glyph-name="uni1E2E" unicode="&#x1e2e;" horiz-adv-x="252" 
d="M94 745h65v-745h-65v745zM126 880q-3 -1 -9 -1q-20 0 -34.5 14t-14.5 35t14.5 35t34.5 14l9 -1q3 1 9 1q20 0 34 -14t14 -35t-14 -35t-34 -14zM143 1097h63l-56 -90h-55z" />
    <glyph glyph-name="uni1E2F" unicode="&#x1e2f;" horiz-adv-x="192" 
d="M66 531h60v-531h-60v531zM96 666q-3 -1 -9 -1q-20 0 -34.5 14t-14.5 35t14.5 35t34.5 14l9 -1q3 1 9 1q20 0 34 -14t14 -35t-14 -35t-34 -14zM113 883h63l-56 -90h-55z" />
    <glyph glyph-name="uni1E36" unicode="&#x1e36;" horiz-adv-x="532" 
d="M94 745h65v-685h335v-60h-400v745zM259.5 -164q-14.5 14 -14.5 35t14.5 35t34.5 14t34.5 -14t14.5 -35t-14.5 -35t-34.5 -14t-34.5 14z" />
    <glyph glyph-name="uni1E37" unicode="&#x1e37;" horiz-adv-x="225" 
d="M83 757h60v-757h-60v757zM78.5 -164q-14.5 14 -14.5 35t14.5 35t34.5 14t34.5 -14t14.5 -35t-14.5 -35t-34.5 -14t-34.5 14z" />
    <glyph glyph-name="uni1E3A" unicode="&#x1e3a;" horiz-adv-x="532" 
d="M94 745h65v-685h335v-60h-400v745zM166 -100h255v-50h-255v50z" />
    <glyph glyph-name="uni1E3B" unicode="&#x1e3b;" horiz-adv-x="225" 
d="M83 757h60v-757h-60v757zM-15 -100h255v-50h-255v50z" />
    <glyph glyph-name="uni1E42" unicode="&#x1e42;" horiz-adv-x="827" 
d="M94 745h55l265 -394l265 394h55v-745h-65v617l-254 -379h-3l-253 378v-616h-65v745zM379.5 -164q-14.5 14 -14.5 35t14.5 35t34.5 14t34.5 -14t14.5 -35t-14.5 -35t-34.5 -14t-34.5 14z" />
    <glyph glyph-name="uni1E43" unicode="&#x1e43;" horiz-adv-x="909" 
d="M83 531h60v-70q23 38 63.5 60t89.5 22q55 0 102 -29t72 -77q22 49 68.5 77.5t102.5 28.5q52 0 97.5 -25t72.5 -70t27 -101v-347h-60v330q0 70 -41 112t-102 42q-64 0 -104.5 -46t-40.5 -118v-320h-60v330q0 70 -40.5 112t-102.5 42q-64 0 -104 -46t-40 -118v-320h-60v531
zM420.5 -164q-14.5 14 -14.5 35t14.5 35t34.5 14t34.5 -14t14.5 -35t-14.5 -35t-34.5 -14t-34.5 14z" />
    <glyph glyph-name="uni1E44" unicode="&#x1e44;" horiz-adv-x="737" 
d="M94 745h55l430 -617v617h65v-745h-55l-430 618v-618h-65v745zM334.5 893q-14.5 14 -14.5 35t14.5 35t34.5 14t34.5 -14t14.5 -35t-14.5 -35t-34.5 -14t-34.5 14z" />
    <glyph glyph-name="uni1E45" unicode="&#x1e45;" 
d="M83 531h60v-71q24 39 65.5 61t92.5 22q54 0 99.5 -25t72.5 -70t27 -101v-347h-60v330q0 71 -41.5 112.5t-106.5 41.5q-68 0 -108.5 -45.5t-40.5 -118.5v-320h-60v531zM251.5 679q-14.5 14 -14.5 35t14.5 35t34.5 14t34.5 -14t14.5 -35t-14.5 -35t-34.5 -14t-34.5 14z" />
    <glyph glyph-name="uni1E46" unicode="&#x1e46;" horiz-adv-x="737" 
d="M94 745h55l430 -617v617h65v-745h-55l-430 618v-618h-65v745zM334.5 -164q-14.5 14 -14.5 35t14.5 35t34.5 14t34.5 -14t14.5 -35t-14.5 -35t-34.5 -14t-34.5 14z" />
    <glyph glyph-name="uni1E47" unicode="&#x1e47;" 
d="M83 531h60v-71q24 39 65.5 61t92.5 22q54 0 99.5 -25t72.5 -70t27 -101v-347h-60v330q0 71 -41.5 112.5t-106.5 41.5q-68 0 -108.5 -45.5t-40.5 -118.5v-320h-60v531zM251.5 -164q-14.5 14 -14.5 35t14.5 35t34.5 14t34.5 -14t14.5 -35t-14.5 -35t-34.5 -14t-34.5 14z
" />
    <glyph glyph-name="uni1E48" unicode="&#x1e48;" horiz-adv-x="737" 
d="M94 745h55l430 -617v617h65v-745h-55l-430 618v-618h-65v745zM241 -100h255v-50h-255v50z" />
    <glyph glyph-name="uni1E49" unicode="&#x1e49;" 
d="M83 531h60v-71q24 39 65.5 61t92.5 22q54 0 99.5 -25t72.5 -70t27 -101v-347h-60v330q0 71 -41.5 112.5t-106.5 41.5q-68 0 -108.5 -45.5t-40.5 -118.5v-320h-60v531zM159 -100h255v-50h-255v50z" />
    <glyph glyph-name="uni1E4C" unicode="&#x1e4c;" horiz-adv-x="881" 
d="M255.5 37.5q-84.5 49.5 -134 137.5t-49.5 198t49.5 197.5t134 137t185.5 49.5t185.5 -49.5t134 -137t49.5 -197.5t-49.5 -198t-134 -137.5t-185.5 -49.5t-185.5 49.5zM175.5 211q38.5 -74 108 -117.5t157.5 -43.5q87 0 156.5 43.5t108.5 117.5t39 162q0 87 -38.5 161
t-108 118t-157.5 44t-157.5 -44t-108 -118t-38.5 -161q0 -88 38.5 -162zM463.5 895.5q-14.5 6.5 -31.5 18.5q-15 10 -24.5 14.5t-20.5 4.5q-13 0 -22.5 -10t-11.5 -29h-45q1 39 22.5 62.5t53.5 23.5q19 0 33 -6.5t33 -18.5q13 -9 23 -14t22 -5q30 0 33 40h45
q-1 -40 -21.5 -63.5t-53.5 -23.5q-20 0 -34.5 6.5zM472 1097h63l-56 -90h-55z" />
    <glyph glyph-name="uni1E4D" unicode="&#x1e4d;" horiz-adv-x="659" 
d="M193.5 24.5q-61.5 36.5 -97 100t-35.5 141.5t35 141.5t96.5 99.5t137.5 36t137 -36t96 -99.5t35 -141.5q0 -79 -35.5 -142.5t-97 -99.5t-135.5 -36q-75 0 -136.5 36.5zM152 155q27 -50 74 -79t104 -29q56 0 103 29t74 79t27 111t-27 111t-73.5 78.5t-103.5 28.5
t-104 -28.5t-74 -78.5t-27 -111t27 -111zM352.5 681.5q-14.5 6.5 -31.5 18.5q-15 10 -24.5 14.5t-20.5 4.5q-13 0 -22.5 -10t-11.5 -29h-45q1 39 22.5 62.5t53.5 23.5q19 0 33 -6.5t33 -18.5q13 -9 23 -14t22 -5q30 0 33 40h45q-1 -40 -21.5 -63.5t-53.5 -23.5
q-20 0 -34.5 6.5zM361 883h63l-56 -90h-55z" />
    <glyph glyph-name="uni1E4E" unicode="&#x1e4e;" horiz-adv-x="881" 
d="M255.5 37.5q-84.5 49.5 -134 137.5t-49.5 198t49.5 197.5t134 137t185.5 49.5t185.5 -49.5t134 -137t49.5 -197.5t-49.5 -198t-134 -137.5t-185.5 -49.5t-185.5 49.5zM175.5 211q38.5 -74 108 -117.5t157.5 -43.5q87 0 156.5 43.5t108.5 117.5t39 162q0 87 -38.5 161
t-108 118t-157.5 44t-157.5 -44t-108 -118t-38.5 -161q0 -88 38.5 -162zM463.5 895.5q-14.5 6.5 -31.5 18.5q-15 10 -24.5 14.5t-20.5 4.5q-13 0 -22.5 -10t-11.5 -29h-45q1 39 22.5 62.5t53.5 23.5q19 0 33 -6.5t33 -18.5q13 -9 23 -14t22 -5q30 0 33 40h45
q-1 -40 -21.5 -63.5t-53.5 -23.5q-20 0 -34.5 6.5zM332.5 1103q14.5 14 34.5 14t34.5 -14t14.5 -35t-14.5 -35t-34.5 -14t-34.5 14t-14.5 35t14.5 35zM480.5 1103q14.5 14 34.5 14t34 -14t14 -35t-14 -35t-34 -14t-34.5 14t-14.5 35t14.5 35z" />
    <glyph glyph-name="uni1E4F" unicode="&#x1e4f;" horiz-adv-x="659" 
d="M193.5 24.5q-61.5 36.5 -97 100t-35.5 141.5t35 141.5t96.5 99.5t137.5 36t137 -36t96 -99.5t35 -141.5q0 -79 -35.5 -142.5t-97 -99.5t-135.5 -36q-75 0 -136.5 36.5zM152 155q27 -50 74 -79t104 -29q56 0 103 29t74 79t27 111t-27 111t-73.5 78.5t-103.5 28.5
t-104 -28.5t-74 -78.5t-27 -111t27 -111zM352.5 681.5q-14.5 6.5 -31.5 18.5q-15 10 -24.5 14.5t-20.5 4.5q-13 0 -22.5 -10t-11.5 -29h-45q1 39 22.5 62.5t53.5 23.5q19 0 33 -6.5t33 -18.5q13 -9 23 -14t22 -5q30 0 33 40h45q-1 -40 -21.5 -63.5t-53.5 -23.5
q-20 0 -34.5 6.5zM221.5 889q14.5 14 34.5 14t34.5 -14t14.5 -35t-14.5 -35t-34.5 -14t-34.5 14t-14.5 35t14.5 35zM369.5 889q14.5 14 34.5 14t34 -14t14 -35t-14 -35t-34 -14t-34.5 14t-14.5 35t14.5 35z" />
    <glyph glyph-name="uni1E50" unicode="&#x1e50;" horiz-adv-x="881" 
d="M255.5 37.5q-84.5 49.5 -134 137.5t-49.5 198t49.5 197.5t134 137t185.5 49.5t185.5 -49.5t134 -137t49.5 -197.5t-49.5 -198t-134 -137.5t-185.5 -49.5t-185.5 49.5zM175.5 211q38.5 -74 108 -117.5t157.5 -43.5q87 0 156.5 43.5t108.5 117.5t39 162q0 87 -38.5 161
t-108 118t-157.5 44t-157.5 -44t-108 -118t-38.5 -161q0 -88 38.5 -162zM313 934h255v-50h-255v50zM428 1072l48 -90h-55l-56 90h63z" />
    <glyph glyph-name="uni1E51" unicode="&#x1e51;" horiz-adv-x="659" 
d="M193.5 24.5q-61.5 36.5 -97 100t-35.5 141.5t35 141.5t96.5 99.5t137.5 36t137 -36t96 -99.5t35 -141.5q0 -79 -35.5 -142.5t-97 -99.5t-135.5 -36q-75 0 -136.5 36.5zM152 155q27 -50 74 -79t104 -29q56 0 103 29t74 79t27 111t-27 111t-73.5 78.5t-103.5 28.5
t-104 -28.5t-74 -78.5t-27 -111t27 -111zM202 720h255v-50h-255v50zM317 858l48 -90h-55l-56 90h63z" />
    <glyph glyph-name="uni1E52" unicode="&#x1e52;" horiz-adv-x="881" 
d="M255.5 37.5q-84.5 49.5 -134 137.5t-49.5 198t49.5 197.5t134 137t185.5 49.5t185.5 -49.5t134 -137t49.5 -197.5t-49.5 -198t-134 -137.5t-185.5 -49.5t-185.5 49.5zM175.5 211q38.5 -74 108 -117.5t157.5 -43.5q87 0 156.5 43.5t108.5 117.5t39 162q0 87 -38.5 161
t-108 118t-157.5 44t-157.5 -44t-108 -118t-38.5 -161q0 -88 38.5 -162zM313 934h255v-50h-255v50zM453 1072h63l-56 -90h-55z" />
    <glyph glyph-name="uni1E53" unicode="&#x1e53;" horiz-adv-x="659" 
d="M193.5 24.5q-61.5 36.5 -97 100t-35.5 141.5t35 141.5t96.5 99.5t137.5 36t137 -36t96 -99.5t35 -141.5q0 -79 -35.5 -142.5t-97 -99.5t-135.5 -36q-75 0 -136.5 36.5zM152 155q27 -50 74 -79t104 -29q56 0 103 29t74 79t27 111t-27 111t-73.5 78.5t-103.5 28.5
t-104 -28.5t-74 -78.5t-27 -111t27 -111zM202 720h255v-50h-255v50zM342 858h63l-56 -90h-55z" />
    <glyph glyph-name="uni1E5A" unicode="&#x1e5a;" horiz-adv-x="638" 
d="M94 745h250q70 0 124.5 -28.5t85 -79.5t30.5 -117q0 -80 -43 -137t-117 -77l176 -306h-77l-167 295h-197v-295h-65v745zM346 355q77 0 125 45.5t48 120.5q0 74 -47.5 119t-125.5 45h-187v-330h187zM279.5 -164q-14.5 14 -14.5 35t14.5 35t34.5 14t34.5 -14t14.5 -35
t-14.5 -35t-34.5 -14t-34.5 14z" />
    <glyph glyph-name="uni1E5B" unicode="&#x1e5b;" horiz-adv-x="339" 
d="M83 531h60v-67q20 35 58.5 54.5t87.5 19.5h34v-60h-41q-64 0 -101.5 -41.5t-37.5 -111.5v-325h-60v531zM78.5 -164q-14.5 14 -14.5 35t14.5 35t34.5 14t34.5 -14t14.5 -35t-14.5 -35t-34.5 -14t-34.5 14z" />
    <glyph glyph-name="uni1E5E" unicode="&#x1e5e;" horiz-adv-x="638" 
d="M94 745h250q70 0 124.5 -28.5t85 -79.5t30.5 -117q0 -80 -43 -137t-117 -77l176 -306h-77l-167 295h-197v-295h-65v745zM346 355q77 0 125 45.5t48 120.5q0 74 -47.5 119t-125.5 45h-187v-330h187zM186 -100h255v-50h-255v50z" />
    <glyph glyph-name="uni1E5F" unicode="&#x1e5f;" horiz-adv-x="339" 
d="M83 531h60v-67q20 35 58.5 54.5t87.5 19.5h34v-60h-41q-64 0 -101.5 -41.5t-37.5 -111.5v-325h-60v531zM-15 -100h255v-50h-255v50z" />
    <glyph glyph-name="uni1E60" unicode="&#x1e60;" horiz-adv-x="643" 
d="M210.5 14.5q-56.5 26.5 -95 70.5t-54.5 96l58 20q27 -73 87 -114t129 -41q49 0 88.5 19t61.5 50.5t22 68.5q0 51 -32 87t-85 49l-136 36q-79 20 -120.5 76t-41.5 127q0 58 28 103t77.5 70t111.5 25t114.5 -23.5t88.5 -64t51 -88.5l-57 -21q-25 66 -80 103t-116 37
q-44 0 -79 -18.5t-55 -50t-20 -69.5q0 -52 32 -89.5t94 -54.5l122 -32q80 -21 123.5 -73.5t43.5 -125.5q0 -58 -30 -103t-83.5 -70.5t-121.5 -25.5q-69 0 -125.5 26.5zM287.5 893q-14.5 14 -14.5 35t14.5 35t34.5 14t34.5 -14t14.5 -35t-14.5 -35t-34.5 -14t-34.5 14z" />
    <glyph glyph-name="uni1E61" unicode="&#x1e61;" horiz-adv-x="508" 
d="M136 23.5q-56 35.5 -84 98.5l52 26q26 -49 68 -76.5t91 -27.5q53 0 88.5 26.5t35.5 67.5q0 37 -27 61t-67 32l-82 15q-69 17 -103 56t-34 92q0 44 23 78t62.5 52.5t87.5 18.5q65 0 118 -33.5t75 -88.5l-53 -27q-22 44 -59.5 69t-82.5 25q-48 0 -78.5 -25.5t-30.5 -64.5
q0 -36 24.5 -59t60.5 -30l89 -16q66 -17 102.5 -58.5t36.5 -95.5q0 -43 -24 -77.5t-66 -54t-95 -19.5q-72 0 -128 35.5zM219.5 679q-14.5 14 -14.5 35t14.5 35t34.5 14t34.5 -14t14.5 -35t-14.5 -35t-34.5 -14t-34.5 14z" />
    <glyph glyph-name="uni1E62" unicode="&#x1e62;" horiz-adv-x="643" 
d="M210.5 14.5q-56.5 26.5 -95 70.5t-54.5 96l58 20q27 -73 87 -114t129 -41q49 0 88.5 19t61.5 50.5t22 68.5q0 51 -32 87t-85 49l-136 36q-79 20 -120.5 76t-41.5 127q0 58 28 103t77.5 70t111.5 25t114.5 -23.5t88.5 -64t51 -88.5l-57 -21q-25 66 -80 103t-116 37
q-44 0 -79 -18.5t-55 -50t-20 -69.5q0 -52 32 -89.5t94 -54.5l122 -32q80 -21 123.5 -73.5t43.5 -125.5q0 -58 -30 -103t-83.5 -70.5t-121.5 -25.5q-69 0 -125.5 26.5zM287.5 -164q-14.5 14 -14.5 35t14.5 35t34.5 14t34.5 -14t14.5 -35t-14.5 -35t-34.5 -14t-34.5 14z" />
    <glyph glyph-name="uni1E63" unicode="&#x1e63;" horiz-adv-x="508" 
d="M136 23.5q-56 35.5 -84 98.5l52 26q26 -49 68 -76.5t91 -27.5q53 0 88.5 26.5t35.5 67.5q0 37 -27 61t-67 32l-82 15q-69 17 -103 56t-34 92q0 44 23 78t62.5 52.5t87.5 18.5q65 0 118 -33.5t75 -88.5l-53 -27q-22 44 -59.5 69t-82.5 25q-48 0 -78.5 -25.5t-30.5 -64.5
q0 -36 24.5 -59t60.5 -30l89 -16q66 -17 102.5 -58.5t36.5 -95.5q0 -43 -24 -77.5t-66 -54t-95 -19.5q-72 0 -128 35.5zM219.5 -164q-14.5 14 -14.5 35t14.5 35t34.5 14t34.5 -14t14.5 -35t-14.5 -35t-34.5 -14t-34.5 14z" />
    <glyph glyph-name="uni1E64" unicode="&#x1e64;" horiz-adv-x="643" 
d="M210.5 14.5q-56.5 26.5 -95 70.5t-54.5 96l58 20q27 -73 87 -114t129 -41q49 0 88.5 19t61.5 50.5t22 68.5q0 51 -32 87t-85 49l-136 36q-79 20 -120.5 76t-41.5 127q0 58 28 103t77.5 70t111.5 25t114.5 -23.5t88.5 -64t51 -88.5l-57 -21q-25 66 -80 103t-116 37
q-44 0 -79 -18.5t-55 -50t-20 -69.5q0 -52 32 -89.5t94 -54.5l122 -32q80 -21 123.5 -73.5t43.5 -125.5q0 -58 -30 -103t-83.5 -70.5t-121.5 -25.5q-69 0 -125.5 26.5zM286.5 893q-14.5 14 -14.5 35t14.5 35t34.5 14t34.5 -14t14.5 -35t-14.5 -35t-34.5 -14t-34.5 14z
M342 1097h63l-56 -90h-55z" />
    <glyph glyph-name="uni1E65" unicode="&#x1e65;" horiz-adv-x="508" 
d="M136 23.5q-56 35.5 -84 98.5l52 26q26 -49 68 -76.5t91 -27.5q53 0 88.5 26.5t35.5 67.5q0 37 -27 61t-67 32l-82 15q-69 17 -103 56t-34 92q0 44 23 78t62.5 52.5t87.5 18.5q65 0 118 -33.5t75 -88.5l-53 -27q-22 44 -59.5 69t-82.5 25q-48 0 -78.5 -25.5t-30.5 -64.5
q0 -36 24.5 -59t60.5 -30l89 -16q66 -17 102.5 -58.5t36.5 -95.5q0 -43 -24 -77.5t-66 -54t-95 -19.5q-72 0 -128 35.5zM219.5 679q-14.5 14 -14.5 35t14.5 35t34.5 14t34.5 -14t14.5 -35t-14.5 -35t-34.5 -14t-34.5 14zM275 883h63l-56 -90h-55z" />
    <glyph glyph-name="uni1E66" unicode="&#x1e66;" horiz-adv-x="643" 
d="M210.5 14.5q-56.5 26.5 -95 70.5t-54.5 96l58 20q27 -73 87 -114t129 -41q49 0 88.5 19t61.5 50.5t22 68.5q0 51 -32 87t-85 49l-136 36q-79 20 -120.5 76t-41.5 127q0 58 28 103t77.5 70t111.5 25t114.5 -23.5t88.5 -64t51 -88.5l-57 -21q-25 66 -80 103t-116 37
q-44 0 -79 -18.5t-55 -50t-20 -69.5q0 -52 32 -89.5t94 -54.5l122 -32q80 -21 123.5 -73.5t43.5 -125.5q0 -58 -30 -103t-83.5 -70.5t-121.5 -25.5q-69 0 -125.5 26.5zM174 998h57l90 -106l91 106h57l-120 -144h-57zM287.5 1081q14.5 14 34.5 14t34.5 -14t14.5 -34
q0 -21 -14.5 -35t-34.5 -14t-34.5 14t-14.5 35q0 20 14.5 34z" />
    <glyph glyph-name="uni1E67" unicode="&#x1e67;" horiz-adv-x="508" 
d="M136 23.5q-56 35.5 -84 98.5l52 26q26 -49 68 -76.5t91 -27.5q53 0 88.5 26.5t35.5 67.5q0 37 -27 61t-67 32l-82 15q-69 17 -103 56t-34 92q0 44 23 78t62.5 52.5t87.5 18.5q65 0 118 -33.5t75 -88.5l-53 -27q-22 44 -59.5 69t-82.5 25q-48 0 -78.5 -25.5t-30.5 -64.5
q0 -36 24.5 -59t60.5 -30l89 -16q66 -17 102.5 -58.5t36.5 -95.5q0 -43 -24 -77.5t-66 -54t-95 -19.5q-72 0 -128 35.5zM107 784h57l90 -106l91 106h57l-120 -144h-57zM220.5 867q14.5 14 34.5 14t34.5 -14t14.5 -34q0 -21 -14.5 -35t-34.5 -14t-34.5 14t-14.5 35
q0 20 14.5 34z" />
    <glyph glyph-name="uni1E68" unicode="&#x1e68;" horiz-adv-x="643" 
d="M210.5 14.5q-56.5 26.5 -95 70.5t-54.5 96l58 20q27 -73 87 -114t129 -41q49 0 88.5 19t61.5 50.5t22 68.5q0 51 -32 87t-85 49l-136 36q-79 20 -120.5 76t-41.5 127q0 58 28 103t77.5 70t111.5 25t114.5 -23.5t88.5 -64t51 -88.5l-57 -21q-25 66 -80 103t-116 37
q-44 0 -79 -18.5t-55 -50t-20 -69.5q0 -52 32 -89.5t94 -54.5l122 -32q80 -21 123.5 -73.5t43.5 -125.5q0 -58 -30 -103t-83.5 -70.5t-121.5 -25.5q-69 0 -125.5 26.5zM287.5 -164q-14.5 14 -14.5 35t14.5 35t34.5 14t34.5 -14t14.5 -35t-14.5 -35t-34.5 -14t-34.5 14z
M287.5 893q-14.5 14 -14.5 35t14.5 35t34.5 14t34.5 -14t14.5 -35t-14.5 -35t-34.5 -14t-34.5 14z" />
    <glyph glyph-name="uni1E69" unicode="&#x1e69;" horiz-adv-x="508" 
d="M136 23.5q-56 35.5 -84 98.5l52 26q26 -49 68 -76.5t91 -27.5q53 0 88.5 26.5t35.5 67.5q0 37 -27 61t-67 32l-82 15q-69 17 -103 56t-34 92q0 44 23 78t62.5 52.5t87.5 18.5q65 0 118 -33.5t75 -88.5l-53 -27q-22 44 -59.5 69t-82.5 25q-48 0 -78.5 -25.5t-30.5 -64.5
q0 -36 24.5 -59t60.5 -30l89 -16q66 -17 102.5 -58.5t36.5 -95.5q0 -43 -24 -77.5t-66 -54t-95 -19.5q-72 0 -128 35.5zM219.5 -164q-14.5 14 -14.5 35t14.5 35t34.5 14t34.5 -14t14.5 -35t-14.5 -35t-34.5 -14t-34.5 14zM219.5 679q-14.5 14 -14.5 35t14.5 35t34.5 14
t34.5 -14t14.5 -35t-14.5 -35t-34.5 -14t-34.5 14z" />
    <glyph glyph-name="uni1E6C" unicode="&#x1e6c;" horiz-adv-x="513" 
d="M225 685h-208v60h480v-60h-207v-685h-65v685zM222.5 -164q-14.5 14 -14.5 35t14.5 35t34.5 14t34.5 -14t14.5 -35t-14.5 -35t-34.5 -14t-34.5 14z" />
    <glyph glyph-name="uni1E6D" unicode="&#x1e6d;" horiz-adv-x="384" 
d="M173.5 31.5q-35.5 37.5 -35.5 109.5v333h-100v57h38q29 0 45.5 17.5t16.5 49.5v57h60v-124h116v-57h-116v-333q0 -90 87 -90q23 0 38 3v-55q-19 -5 -47 -5q-67 0 -102.5 37.5zM222.5 -164q-14.5 14 -14.5 35t14.5 35t34.5 14t34.5 -14t14.5 -35t-14.5 -35t-34.5 -14
t-34.5 14z" />
    <glyph glyph-name="uni1E6E" unicode="&#x1e6e;" horiz-adv-x="513" 
d="M225 685h-208v60h480v-60h-207v-685h-65v685zM129 -100h255v-50h-255v50z" />
    <glyph glyph-name="uni1E6F" unicode="&#x1e6f;" horiz-adv-x="384" 
d="M173.5 31.5q-35.5 37.5 -35.5 109.5v333h-100v57h38q29 0 45.5 17.5t16.5 49.5v57h60v-124h116v-57h-116v-333q0 -90 87 -90q23 0 38 3v-55q-19 -5 -47 -5q-67 0 -102.5 37.5zM130 -100h255v-50h-255v50z" />
    <glyph glyph-name="uni1E78" unicode="&#x1e78;" horiz-adv-x="695" 
d="M213.5 21q-58.5 33 -91 91.5t-32.5 134.5v498h65v-500q0 -58 24 -102.5t68 -69.5t101 -25q56 0 100 25t68 69.5t24 102.5v500h65v-498q0 -76 -32 -135t-90.5 -91.5t-134.5 -32.5t-134.5 33zM370.5 895.5q-14.5 6.5 -31.5 18.5q-15 10 -24.5 14.5t-20.5 4.5
q-13 0 -22.5 -10t-11.5 -29h-45q1 39 22.5 62.5t53.5 23.5q19 0 33 -6.5t33 -18.5q13 -9 23 -14t22 -5q30 0 33 40h45q-1 -40 -21.5 -63.5t-53.5 -23.5q-20 0 -34.5 6.5zM379 1097h63l-56 -90h-55z" />
    <glyph glyph-name="uni1E79" unicode="&#x1e79;" 
d="M171.5 13q-45.5 25 -72.5 71.5t-27 107.5v339h60v-334q0 -69 41.5 -109.5t106.5 -40.5q68 0 108.5 45.5t40.5 119.5v319h60v-531h-60v71q-24 -39 -65.5 -61t-92.5 -22q-54 0 -99.5 25zM309.5 681.5q-14.5 6.5 -31.5 18.5q-15 10 -24.5 14.5t-20.5 4.5q-13 0 -22.5 -10
t-11.5 -29h-45q1 39 22.5 62.5t53.5 23.5q19 0 33 -6.5t33 -18.5q13 -9 23 -14t22 -5q30 0 33 40h45q-1 -40 -21.5 -63.5t-53.5 -23.5q-20 0 -34.5 6.5zM318 883h63l-56 -90h-55z" />
    <glyph glyph-name="uni1E7A" unicode="&#x1e7a;" horiz-adv-x="695" 
d="M213.5 21q-58.5 33 -91 91.5t-32.5 134.5v498h65v-500q0 -58 24 -102.5t68 -69.5t101 -25q56 0 100 25t68 69.5t24 102.5v500h65v-498q0 -76 -32 -135t-90.5 -91.5t-134.5 -32.5t-134.5 33zM220 934h255v-50h-255v50zM239.5 1068q14.5 14 34.5 14t34.5 -14t14.5 -35
t-14.5 -35t-34.5 -14t-34.5 14t-14.5 35t14.5 35zM387.5 1068q14.5 14 34.5 14t34 -14t14 -35t-14 -35t-34 -14t-34.5 14t-14.5 35t14.5 35z" />
    <glyph glyph-name="uni1E7B" unicode="&#x1e7b;" 
d="M171.5 13q-45.5 25 -72.5 71.5t-27 107.5v339h60v-334q0 -69 41.5 -109.5t106.5 -40.5q68 0 108.5 45.5t40.5 119.5v319h60v-531h-60v71q-24 -39 -65.5 -61t-92.5 -22q-54 0 -99.5 25zM159 720h255v-50h-255v50zM178.5 854q14.5 14 34.5 14t34.5 -14t14.5 -35t-14.5 -35
t-34.5 -14t-34.5 14t-14.5 35t14.5 35zM326.5 854q14.5 14 34.5 14t34 -14t14 -35t-14 -35t-34 -14t-34.5 14t-14.5 35t14.5 35z" />
    <glyph glyph-name="Wgrave" unicode="&#x1e80;" horiz-adv-x="986" 
d="M17 745h67l185 -646l191 646h67l190 -646l185 646h68l-219 -745h-66l-191 649l-192 -649h-67zM376 998h64l78 -144h-51z" />
    <glyph glyph-name="wgrave" unicode="&#x1e81;" horiz-adv-x="783" 
d="M17 531h67l145 -440l132 440h61l132 -440l146 440h67l-183 -531h-61l-131 439l-132 -439h-61zM275 784h64l78 -144h-51z" />
    <glyph glyph-name="Wacute" unicode="&#x1e82;" horiz-adv-x="986" 
d="M17 745h67l185 -646l191 646h67l190 -646l185 646h68l-219 -745h-66l-191 649l-192 -649h-67zM545 998h64l-91 -144h-51z" />
    <glyph glyph-name="wacute" unicode="&#x1e83;" horiz-adv-x="783" 
d="M17 531h67l145 -440l132 440h61l132 -440l146 440h67l-183 -531h-61l-131 439l-132 -439h-61zM444 784h64l-91 -144h-51z" />
    <glyph glyph-name="Wdieresis" unicode="&#x1e84;" horiz-adv-x="986" 
d="M17 745h67l185 -646l191 646h67l190 -646l185 646h68l-219 -745h-66l-191 649l-192 -649h-67zM385.5 893q-14.5 14 -14.5 35t14.5 35t34.5 14t34.5 -14t14.5 -35t-14.5 -35t-34.5 -14t-34.5 14zM533.5 963q14.5 14 34.5 14t34 -14t14 -35t-14 -35t-34 -14t-34.5 14
t-14.5 35t14.5 35z" />
    <glyph glyph-name="wdieresis" unicode="&#x1e85;" horiz-adv-x="783" 
d="M17 531h67l145 -440l132 440h61l132 -440l146 440h67l-183 -531h-61l-131 439l-132 -439h-61zM284.5 679q-14.5 14 -14.5 35t14.5 35t34.5 14t34.5 -14t14.5 -35t-14.5 -35t-34.5 -14t-34.5 14zM432.5 749q14.5 14 34.5 14t34 -14t14 -35t-14 -35t-34 -14t-34.5 14
t-14.5 35t14.5 35z" />
    <glyph glyph-name="uni1E8E" unicode="&#x1e8e;" horiz-adv-x="624" 
d="M280 340l-263 405h73l222 -339l222 339h73l-262 -405v-340h-65v340zM277.5 893q-14.5 14 -14.5 35t14.5 35t34.5 14t34.5 -14t14.5 -35t-14.5 -35t-34.5 -14t-34.5 14z" />
    <glyph glyph-name="uni1E8F" unicode="&#x1e8f;" horiz-adv-x="533" 
d="M232.5 679q-14.5 14 -14.5 35t14.5 35t34.5 14t34.5 -14t14.5 -35t-14.5 -35t-34.5 -14t-34.5 14z" />
    <glyph glyph-name="uni1E92" unicode="&#x1e92;" horiz-adv-x="595" 
d="M28 42l444 643h-418v60h504v-42l-443 -643h453v-60h-540v42zM263.5 -164q-14.5 14 -14.5 35t14.5 35t34.5 14t34.5 -14t14.5 -35t-14.5 -35t-34.5 -14t-34.5 14z" />
    <glyph glyph-name="uni1E93" unicode="&#x1e93;" horiz-adv-x="442" 
d="M28 48l309 426h-291v57h372v-47l-308 -426h310v-58h-392v48zM184.5 -164q-14.5 14 -14.5 35t14.5 35t34.5 14t34.5 -14t14.5 -35t-14.5 -35t-34.5 -14t-34.5 14z" />
    <glyph glyph-name="uni1E97" unicode="&#x1e97;" horiz-adv-x="384" 
d="M173.5 31.5q-35.5 37.5 -35.5 109.5v333h-100v57h38q29 0 45.5 17.5t16.5 49.5v57h60v-124h116v-57h-116v-333q0 -90 87 -90q23 0 38 3v-55q-19 -5 -47 -5q-67 0 -102.5 37.5zM59.5 803q-14.5 14 -14.5 35t14.5 35t34.5 14t34.5 -14t14.5 -35t-14.5 -35t-34.5 -14
t-34.5 14zM207.5 873q14.5 14 34.5 14t34 -14t14 -35t-14 -35t-34 -14t-34.5 14t-14.5 35t14.5 35z" />
    <glyph glyph-name="uni1E9E" unicode="&#x1e9e;" horiz-adv-x="1285" 
d="M210.5 14.5q-56.5 26.5 -95 70.5t-54.5 96l58 20q27 -73 87 -114t129 -41q49 0 88.5 19t61.5 50.5t22 68.5q0 51 -32 87t-85 49l-136 36q-79 20 -120.5 76t-41.5 127q0 58 28 103t77.5 70t111.5 25t114.5 -23.5t88.5 -64t51 -88.5l-57 -21q-25 66 -80 103t-116 37
q-44 0 -79 -18.5t-55 -50t-20 -69.5q0 -52 32 -89.5t94 -54.5l122 -32q80 -21 123.5 -73.5t43.5 -125.5q0 -58 -30 -103t-83.5 -70.5t-121.5 -25.5q-69 0 -125.5 26.5zM853.5 14.5q-56.5 26.5 -95 70.5t-54.5 96l58 20q27 -73 87 -114t129 -41q49 0 88.5 19t61.5 50.5
t22 68.5q0 51 -32 87t-85 49l-136 36q-79 20 -120.5 76t-41.5 127q0 58 28 103t77.5 70t111.5 25t114.5 -23.5t88.5 -64t51 -88.5l-57 -21q-25 66 -80 103t-116 37q-44 0 -79 -18.5t-55 -50t-20 -69.5q0 -52 32 -89.5t94 -54.5l122 -32q80 -21 123.5 -73.5t43.5 -125.5
q0 -58 -30 -103t-83.5 -70.5t-121.5 -25.5q-69 0 -125.5 26.5z" />
    <glyph glyph-name="uni1EA0" unicode="&#x1ea0;" horiz-adv-x="648" 
d="M291 745h67l274 -745h-70l-68 190h-339l-69 -190h-69zM472 250l-148 412l-148 -412h296zM289.5 -164q-14.5 14 -14.5 35t14.5 35t34.5 14t34.5 -14t14.5 -35t-14.5 -35t-34.5 -14t-34.5 14z" />
    <glyph glyph-name="uni1EA1" unicode="&#x1ea1;" horiz-adv-x="573" 
d="M146 7q-40 19 -62.5 53t-22.5 78q0 62 41.5 106.5t129.5 59.5l199 33v30q0 53 -38 86t-99 33q-49 0 -89.5 -24.5t-61.5 -65.5l-54 29q23 50 80.5 84t124.5 34q57 0 102 -22.5t70 -62.5t25 -91v-367h-60v92q-26 -45 -78.5 -74.5t-117.5 -29.5q-49 0 -89 19zM156.5 70
q32.5 -27 82.5 -27q56 0 100 26t68 70t24 96v46l-183 -30q-124 -20 -124 -111q0 -43 32.5 -70zM252.5 -164q-14.5 14 -14.5 35t14.5 35t34.5 14t34.5 -14t14.5 -35t-14.5 -35t-34.5 -14t-34.5 14z" />
    <glyph glyph-name="uni1EA2" unicode="&#x1ea2;" horiz-adv-x="648" 
d="M291 745h67l274 -745h-70l-68 190h-339l-69 -190h-69zM472 250l-148 412l-148 -412h296zM334.5 856q17.5 19 17.5 42t-16.5 37.5t-46.5 14.5q-20 0 -42 -8v37q19 9 53 9q46 0 74 -22.5t28 -59.5q0 -70 -101 -112l-14 29q30 14 47.5 33z" />
    <glyph glyph-name="uni1EA3" unicode="&#x1ea3;" horiz-adv-x="573" 
d="M146 7q-40 19 -62.5 53t-22.5 78q0 62 41.5 106.5t129.5 59.5l199 33v30q0 53 -38 86t-99 33q-49 0 -89.5 -24.5t-61.5 -65.5l-54 29q23 50 80.5 84t124.5 34q57 0 102 -22.5t70 -62.5t25 -91v-367h-60v92q-26 -45 -78.5 -74.5t-117.5 -29.5q-49 0 -89 19zM156.5 70
q32.5 -27 82.5 -27q56 0 100 26t68 70t24 96v46l-183 -30q-124 -20 -124 -111q0 -43 32.5 -70zM296.5 642q17.5 19 17.5 42t-16.5 37.5t-46.5 14.5q-20 0 -42 -8v37q19 9 53 9q46 0 74 -22.5t28 -59.5q0 -70 -101 -112l-14 29q30 14 47.5 33z" />
    <glyph glyph-name="uni1EA4" unicode="&#x1ea4;" horiz-adv-x="648" 
d="M291 745h67l274 -745h-70l-68 190h-339l-69 -190h-69zM472 250l-148 412l-148 -412h296zM295 998h57l120 -144h-57l-91 107l-90 -107h-57zM440 1063h63l-56 -90h-55z" />
    <glyph glyph-name="uni1EA5" unicode="&#x1ea5;" horiz-adv-x="573" 
d="M146 7q-40 19 -62.5 53t-22.5 78q0 62 41.5 106.5t129.5 59.5l199 33v30q0 53 -38 86t-99 33q-49 0 -89.5 -24.5t-61.5 -65.5l-54 29q23 50 80.5 84t124.5 34q57 0 102 -22.5t70 -62.5t25 -91v-367h-60v92q-26 -45 -78.5 -74.5t-117.5 -29.5q-49 0 -89 19zM156.5 70
q32.5 -27 82.5 -27q56 0 100 26t68 70t24 96v46l-183 -30q-124 -20 -124 -111q0 -43 32.5 -70zM257 784h57l120 -144h-57l-91 107l-90 -107h-57zM402 849h63l-56 -90h-55z" />
    <glyph glyph-name="uni1EA6" unicode="&#x1ea6;" horiz-adv-x="648" 
d="M291 745h67l274 -745h-70l-68 190h-339l-69 -190h-69zM472 250l-148 412l-148 -412h296zM295 998h57l120 -144h-57l-91 107l-90 -107h-57zM420 1063l48 -90h-55l-56 90h63z" />
    <glyph glyph-name="uni1EA7" unicode="&#x1ea7;" horiz-adv-x="573" 
d="M146 7q-40 19 -62.5 53t-22.5 78q0 62 41.5 106.5t129.5 59.5l199 33v30q0 53 -38 86t-99 33q-49 0 -89.5 -24.5t-61.5 -65.5l-54 29q23 50 80.5 84t124.5 34q57 0 102 -22.5t70 -62.5t25 -91v-367h-60v92q-26 -45 -78.5 -74.5t-117.5 -29.5q-49 0 -89 19zM156.5 70
q32.5 -27 82.5 -27q56 0 100 26t68 70t24 96v46l-183 -30q-124 -20 -124 -111q0 -43 32.5 -70zM257 784h57l120 -144h-57l-91 107l-90 -107h-57zM382 849l48 -90h-55l-56 90h63z" />
    <glyph glyph-name="uni1EA8" unicode="&#x1ea8;" horiz-adv-x="648" 
d="M291 745h67l274 -745h-70l-68 190h-339l-69 -190h-69zM472 250l-148 412l-148 -412h296zM295 998h57l120 -144h-57l-91 107l-90 -107h-57zM373 1134q18 9 53 9q46 0 73.5 -22.5t27.5 -59.5q0 -70 -100 -112l-15 29q31 14 48.5 33.5t17.5 41.5q0 23 -16.5 37.5t-46.5 14.5
q-20 0 -42 -8v37z" />
    <glyph glyph-name="uni1EA9" unicode="&#x1ea9;" horiz-adv-x="573" 
d="M146 7q-40 19 -62.5 53t-22.5 78q0 62 41.5 106.5t129.5 59.5l199 33v30q0 53 -38 86t-99 33q-49 0 -89.5 -24.5t-61.5 -65.5l-54 29q23 50 80.5 84t124.5 34q57 0 102 -22.5t70 -62.5t25 -91v-367h-60v92q-26 -45 -78.5 -74.5t-117.5 -29.5q-49 0 -89 19zM156.5 70
q32.5 -27 82.5 -27q56 0 100 26t68 70t24 96v46l-183 -30q-124 -20 -124 -111q0 -43 32.5 -70zM257 784h57l120 -144h-57l-91 107l-90 -107h-57zM335 920q18 9 53 9q46 0 73.5 -22.5t27.5 -59.5q0 -70 -100 -112l-15 29q31 14 48.5 33.5t17.5 41.5q0 23 -16.5 37.5
t-46.5 14.5q-20 0 -42 -8v37z" />
    <glyph glyph-name="uni1EAA" unicode="&#x1eaa;" horiz-adv-x="648" 
d="M291 745h67l274 -745h-70l-68 190h-339l-69 -190h-69zM472 250l-148 412l-148 -412h296zM295 998h57l120 -144h-57l-91 107l-90 -107h-57zM214.5 1105.5q21.5 23.5 53.5 23.5q19 0 33 -6.5t33 -18.5q13 -9 23 -14t22 -5q30 0 33 40h45q-1 -40 -21.5 -63.5t-53.5 -23.5
q-20 0 -34.5 6.5t-31.5 18.5q-15 10 -24.5 14.5t-20.5 4.5q-13 0 -22.5 -10t-11.5 -29h-45q1 39 22.5 62.5z" />
    <glyph glyph-name="uni1EAB" unicode="&#x1eab;" horiz-adv-x="573" 
d="M146 7q-40 19 -62.5 53t-22.5 78q0 62 41.5 106.5t129.5 59.5l199 33v30q0 53 -38 86t-99 33q-49 0 -89.5 -24.5t-61.5 -65.5l-54 29q23 50 80.5 84t124.5 34q57 0 102 -22.5t70 -62.5t25 -91v-367h-60v92q-26 -45 -78.5 -74.5t-117.5 -29.5q-49 0 -89 19zM156.5 70
q32.5 -27 82.5 -27q56 0 100 26t68 70t24 96v46l-183 -30q-124 -20 -124 -111q0 -43 32.5 -70zM257 784h57l120 -144h-57l-91 107l-90 -107h-57zM176.5 891.5q21.5 23.5 53.5 23.5q19 0 33 -6.5t33 -18.5q13 -9 23 -14t22 -5q30 0 33 40h45q-1 -40 -21.5 -63.5t-53.5 -23.5
q-20 0 -34.5 6.5t-31.5 18.5q-15 10 -24.5 14.5t-20.5 4.5q-13 0 -22.5 -10t-11.5 -29h-45q1 39 22.5 62.5z" />
    <glyph glyph-name="uni1EAC" unicode="&#x1eac;" horiz-adv-x="648" 
d="M291 745h67l274 -745h-70l-68 190h-339l-69 -190h-69zM472 250l-148 412l-148 -412h296zM289.5 -164q-14.5 14 -14.5 35t14.5 35t34.5 14t34.5 -14t14.5 -35t-14.5 -35t-34.5 -14t-34.5 14zM295 998h57l120 -144h-57l-91 107l-90 -107h-57z" />
    <glyph glyph-name="uni1EAD" unicode="&#x1ead;" horiz-adv-x="573" 
d="M146 7q-40 19 -62.5 53t-22.5 78q0 62 41.5 106.5t129.5 59.5l199 33v30q0 53 -38 86t-99 33q-49 0 -89.5 -24.5t-61.5 -65.5l-54 29q23 50 80.5 84t124.5 34q57 0 102 -22.5t70 -62.5t25 -91v-367h-60v92q-26 -45 -78.5 -74.5t-117.5 -29.5q-49 0 -89 19zM156.5 70
q32.5 -27 82.5 -27q56 0 100 26t68 70t24 96v46l-183 -30q-124 -20 -124 -111q0 -43 32.5 -70zM252.5 -164q-14.5 14 -14.5 35t14.5 35t34.5 14t34.5 -14t14.5 -35t-14.5 -35t-34.5 -14t-34.5 14zM257 784h57l120 -144h-57l-91 107l-90 -107h-57z" />
    <glyph glyph-name="uni1EAE" unicode="&#x1eae;" horiz-adv-x="648" 
d="M291 745h67l274 -745h-70l-68 190h-339l-69 -190h-69zM472 250l-148 412l-148 -412h296zM255.5 872q-31.5 18 -49.5 48.5t-18 66.5h48q0 -36 25.5 -62t62.5 -26t63.5 26t26.5 62h47q0 -36 -18.5 -66.5t-50 -48.5t-68.5 -18t-68.5 18zM345 1097h63l-56 -90h-55z" />
    <glyph glyph-name="uni1EAF" unicode="&#x1eaf;" horiz-adv-x="573" 
d="M146 7q-40 19 -62.5 53t-22.5 78q0 62 41.5 106.5t129.5 59.5l199 33v30q0 53 -38 86t-99 33q-49 0 -89.5 -24.5t-61.5 -65.5l-54 29q23 50 80.5 84t124.5 34q57 0 102 -22.5t70 -62.5t25 -91v-367h-60v92q-26 -45 -78.5 -74.5t-117.5 -29.5q-49 0 -89 19zM156.5 70
q32.5 -27 82.5 -27q56 0 100 26t68 70t24 96v46l-183 -30q-124 -20 -124 -111q0 -43 32.5 -70zM217.5 658q-31.5 18 -49.5 48.5t-18 66.5h48q0 -36 25.5 -62t62.5 -26t63.5 26t26.5 62h47q0 -36 -18.5 -66.5t-50 -48.5t-68.5 -18t-68.5 18zM307 883h63l-56 -90h-55z" />
    <glyph glyph-name="uni1EB0" unicode="&#x1eb0;" horiz-adv-x="648" 
d="M291 745h67l274 -745h-70l-68 190h-339l-69 -190h-69zM472 250l-148 412l-148 -412h296zM256.5 872q-31.5 18 -50 48.5t-18.5 66.5h47q0 -36 26.5 -62t63.5 -26t62.5 26t25.5 62h48q0 -36 -18 -66.5t-49.5 -48.5t-68.5 -18t-68.5 18zM304 1097l48 -90h-55l-56 90h63z" />
    <glyph glyph-name="uni1EB1" unicode="&#x1eb1;" horiz-adv-x="573" 
d="M146 7q-40 19 -62.5 53t-22.5 78q0 62 41.5 106.5t129.5 59.5l199 33v30q0 53 -38 86t-99 33q-49 0 -89.5 -24.5t-61.5 -65.5l-54 29q23 50 80.5 84t124.5 34q57 0 102 -22.5t70 -62.5t25 -91v-367h-60v92q-26 -45 -78.5 -74.5t-117.5 -29.5q-49 0 -89 19zM156.5 70
q32.5 -27 82.5 -27q56 0 100 26t68 70t24 96v46l-183 -30q-124 -20 -124 -111q0 -43 32.5 -70zM218.5 658q-31.5 18 -50 48.5t-18.5 66.5h47q0 -36 26.5 -62t63.5 -26t62.5 26t25.5 62h48q0 -36 -18 -66.5t-49.5 -48.5t-68.5 -18t-68.5 18zM266 883l48 -90h-55l-56 90h63z
" />
    <glyph glyph-name="uni1EB2" unicode="&#x1eb2;" horiz-adv-x="648" 
d="M291 745h67l274 -745h-70l-68 190h-339l-69 -190h-69zM472 250l-148 412l-148 -412h296zM255.5 872q-31.5 18 -49.5 48.5t-18 66.5h48q0 -36 25.5 -62t62.5 -26t63.5 26t26.5 62h47q0 -36 -18.5 -66.5t-50 -48.5t-68.5 -18t-68.5 18zM249 1158q21 9 53 9q46 0 73.5 -23
t27.5 -60q0 -69 -100 -111l-15 29q30 13 48 32.5t18 41.5q0 24 -16.5 38t-46.5 14q-23 0 -42 -7v37z" />
    <glyph glyph-name="uni1EB3" unicode="&#x1eb3;" horiz-adv-x="573" 
d="M146 7q-40 19 -62.5 53t-22.5 78q0 62 41.5 106.5t129.5 59.5l199 33v30q0 53 -38 86t-99 33q-49 0 -89.5 -24.5t-61.5 -65.5l-54 29q23 50 80.5 84t124.5 34q57 0 102 -22.5t70 -62.5t25 -91v-367h-60v92q-26 -45 -78.5 -74.5t-117.5 -29.5q-49 0 -89 19zM156.5 70
q32.5 -27 82.5 -27q56 0 100 26t68 70t24 96v46l-183 -30q-124 -20 -124 -111q0 -43 32.5 -70zM217.5 658q-31.5 18 -49.5 48.5t-18 66.5h48q0 -36 25.5 -62t62.5 -26t63.5 26t26.5 62h47q0 -36 -18.5 -66.5t-50 -48.5t-68.5 -18t-68.5 18zM211 944q21 9 53 9q46 0 73.5 -23
t27.5 -60q0 -69 -100 -111l-15 29q30 13 48 32.5t18 41.5q0 24 -16.5 38t-46.5 14q-23 0 -42 -7v37z" />
    <glyph glyph-name="uni1EB4" unicode="&#x1eb4;" horiz-adv-x="648" 
d="M291 745h67l274 -745h-70l-68 190h-339l-69 -190h-69zM472 250l-148 412l-148 -412h296zM256 871.5q-31 17.5 -49 48t-18 67.5h47q0 -36 26 -62t63 -26t63 26t26 62h47q0 -36 -18 -66.5t-49.5 -48.5t-68.5 -18q-38 0 -69 17.5zM214.5 1100.5q21.5 23.5 53.5 23.5
q19 0 33 -6.5t33 -18.5q13 -9 23 -14t22 -5q30 0 33 40h45q-1 -40 -21.5 -63.5t-53.5 -23.5q-20 0 -34.5 6.5t-31.5 18.5q-15 10 -24.5 14.5t-20.5 4.5q-13 0 -22.5 -10t-11.5 -29h-45q1 39 22.5 62.5z" />
    <glyph glyph-name="uni1EB5" unicode="&#x1eb5;" horiz-adv-x="573" 
d="M146 7q-40 19 -62.5 53t-22.5 78q0 62 41.5 106.5t129.5 59.5l199 33v30q0 53 -38 86t-99 33q-49 0 -89.5 -24.5t-61.5 -65.5l-54 29q23 50 80.5 84t124.5 34q57 0 102 -22.5t70 -62.5t25 -91v-367h-60v92q-26 -45 -78.5 -74.5t-117.5 -29.5q-49 0 -89 19zM156.5 70
q32.5 -27 82.5 -27q56 0 100 26t68 70t24 96v46l-183 -30q-124 -20 -124 -111q0 -43 32.5 -70zM218 657.5q-31 17.5 -49 48t-18 67.5h47q0 -36 26 -62t63 -26t63 26t26 62h47q0 -36 -18 -66.5t-49.5 -48.5t-68.5 -18q-38 0 -69 17.5zM176.5 886.5q21.5 23.5 53.5 23.5
q19 0 33 -6.5t33 -18.5q13 -9 23 -14t22 -5q30 0 33 40h45q-1 -40 -21.5 -63.5t-53.5 -23.5q-20 0 -34.5 6.5t-31.5 18.5q-15 10 -24.5 14.5t-20.5 4.5q-13 0 -22.5 -10t-11.5 -29h-45q1 39 22.5 62.5z" />
    <glyph glyph-name="uni1EB6" unicode="&#x1eb6;" horiz-adv-x="648" 
d="M291 745h67l274 -745h-70l-68 190h-339l-69 -190h-69zM472 250l-148 412l-148 -412h296zM289.5 -164q-14.5 14 -14.5 35t14.5 35t34.5 14t34.5 -14t14.5 -35t-14.5 -35t-34.5 -14t-34.5 14zM255.5 872q-31.5 18 -49.5 48.5t-18 66.5h48q0 -36 25.5 -62t62.5 -26t63.5 26
t26.5 62h47q0 -36 -18.5 -66.5t-50 -48.5t-68.5 -18t-68.5 18z" />
    <glyph glyph-name="uni1EB7" unicode="&#x1eb7;" horiz-adv-x="573" 
d="M146 7q-40 19 -62.5 53t-22.5 78q0 62 41.5 106.5t129.5 59.5l199 33v30q0 53 -38 86t-99 33q-49 0 -89.5 -24.5t-61.5 -65.5l-54 29q23 50 80.5 84t124.5 34q57 0 102 -22.5t70 -62.5t25 -91v-367h-60v92q-26 -45 -78.5 -74.5t-117.5 -29.5q-49 0 -89 19zM156.5 70
q32.5 -27 82.5 -27q56 0 100 26t68 70t24 96v46l-183 -30q-124 -20 -124 -111q0 -43 32.5 -70zM252.5 -164q-14.5 14 -14.5 35t14.5 35t34.5 14t34.5 -14t14.5 -35t-14.5 -35t-34.5 -14t-34.5 14zM217.5 658q-31.5 18 -49.5 48.5t-18 66.5h48q0 -36 25.5 -62t62.5 -26
t63.5 26t26.5 62h47q0 -36 -18.5 -66.5t-50 -48.5t-68.5 -18t-68.5 18z" />
    <glyph glyph-name="uni1EB8" unicode="&#x1eb8;" horiz-adv-x="613" 
d="M94 745h470v-60h-405v-281h385v-60h-385v-284h405v-60h-470v745zM294.5 -164q-14.5 14 -14.5 35t14.5 35t34.5 14t34.5 -14t14.5 -35t-14.5 -35t-34.5 -14t-34.5 14z" />
    <glyph glyph-name="uni1EB9" unicode="&#x1eb9;" horiz-adv-x="621" 
d="M191.5 24.5q-60.5 36.5 -95.5 100.5t-35 142t33.5 141t92 99t130.5 36q71 0 126.5 -34.5t86.5 -92t31 -125.5q0 -23 -4 -44h-434q2 -59 30 -105.5t73.5 -72t99.5 -25.5q56 0 99.5 27t71.5 74l51 -27q-28 -58 -87.5 -94t-134.5 -36q-74 0 -134.5 36.5zM497 302
q0 52 -24 94.5t-65 66.5t-91 24q-49 0 -91.5 -23.5t-69.5 -65.5t-32 -96h373zM276.5 -164q-14.5 14 -14.5 35t14.5 35t34.5 14t34.5 -14t14.5 -35t-14.5 -35t-34.5 -14t-34.5 14z" />
    <glyph glyph-name="uni1EBA" unicode="&#x1eba;" horiz-adv-x="613" 
d="M94 745h470v-60h-405v-281h385v-60h-385v-284h405v-60h-470v745zM338.5 856q17.5 19 17.5 42t-16.5 37.5t-46.5 14.5q-20 0 -42 -8v37q19 9 53 9q46 0 74 -22.5t28 -59.5q0 -70 -101 -112l-14 29q30 14 47.5 33z" />
    <glyph glyph-name="uni1EBB" unicode="&#x1ebb;" horiz-adv-x="621" 
d="M191.5 24.5q-60.5 36.5 -95.5 100.5t-35 142t33.5 141t92 99t130.5 36q71 0 126.5 -34.5t86.5 -92t31 -125.5q0 -23 -4 -44h-434q2 -59 30 -105.5t73.5 -72t99.5 -25.5q56 0 99.5 27t71.5 74l51 -27q-28 -58 -87.5 -94t-134.5 -36q-74 0 -134.5 36.5zM497 302
q0 52 -24 94.5t-65 66.5t-91 24q-49 0 -91.5 -23.5t-69.5 -65.5t-32 -96h373zM321.5 642q17.5 19 17.5 42t-16.5 37.5t-46.5 14.5q-20 0 -42 -8v37q19 9 53 9q46 0 74 -22.5t28 -59.5q0 -70 -101 -112l-14 29q30 14 47.5 33z" />
    <glyph glyph-name="uni1EBC" unicode="&#x1ebc;" horiz-adv-x="613" 
d="M94 745h470v-60h-405v-281h385v-60h-385v-284h405v-60h-470v745zM351.5 895.5q-14.5 6.5 -31.5 18.5q-15 10 -24.5 14.5t-20.5 4.5q-13 0 -22.5 -10t-11.5 -29h-45q1 39 22.5 62.5t53.5 23.5q19 0 33 -6.5t33 -18.5q13 -9 23 -14t22 -5q30 0 33 40h45q-1 -40 -21.5 -63.5
t-53.5 -23.5q-20 0 -34.5 6.5z" />
    <glyph glyph-name="uni1EBD" unicode="&#x1ebd;" horiz-adv-x="621" 
d="M191.5 24.5q-60.5 36.5 -95.5 100.5t-35 142t33.5 141t92 99t130.5 36q71 0 126.5 -34.5t86.5 -92t31 -125.5q0 -23 -4 -44h-434q2 -59 30 -105.5t73.5 -72t99.5 -25.5q56 0 99.5 27t71.5 74l51 -27q-28 -58 -87.5 -94t-134.5 -36q-74 0 -134.5 36.5zM497 302
q0 52 -24 94.5t-65 66.5t-91 24q-49 0 -91.5 -23.5t-69.5 -65.5t-32 -96h373zM334.5 681.5q-14.5 6.5 -31.5 18.5q-15 10 -24.5 14.5t-20.5 4.5q-13 0 -22.5 -10t-11.5 -29h-45q1 39 22.5 62.5t53.5 23.5q19 0 33 -6.5t33 -18.5q13 -9 23 -14t22 -5q30 0 33 40h45
q-1 -40 -21.5 -63.5t-53.5 -23.5q-20 0 -34.5 6.5z" />
    <glyph glyph-name="uni1EBE" unicode="&#x1ebe;" horiz-adv-x="613" 
d="M94 745h470v-60h-405v-281h385v-60h-385v-284h405v-60h-470v745zM299 998h57l120 -144h-57l-91 107l-90 -107h-57zM444 1063h63l-56 -90h-55z" />
    <glyph glyph-name="uni1EBF" unicode="&#x1ebf;" horiz-adv-x="621" 
d="M191.5 24.5q-60.5 36.5 -95.5 100.5t-35 142t33.5 141t92 99t130.5 36q71 0 126.5 -34.5t86.5 -92t31 -125.5q0 -23 -4 -44h-434q2 -59 30 -105.5t73.5 -72t99.5 -25.5q56 0 99.5 27t71.5 74l51 -27q-28 -58 -87.5 -94t-134.5 -36q-74 0 -134.5 36.5zM497 302
q0 52 -24 94.5t-65 66.5t-91 24q-49 0 -91.5 -23.5t-69.5 -65.5t-32 -96h373zM282 784h57l120 -144h-57l-91 107l-90 -107h-57zM427 849h63l-56 -90h-55z" />
    <glyph glyph-name="uni1EC0" unicode="&#x1ec0;" horiz-adv-x="613" 
d="M94 745h470v-60h-405v-281h385v-60h-385v-284h405v-60h-470v745zM299 998h57l120 -144h-57l-91 107l-90 -107h-57zM424 1063l48 -90h-55l-56 90h63z" />
    <glyph glyph-name="uni1EC1" unicode="&#x1ec1;" horiz-adv-x="621" 
d="M191.5 24.5q-60.5 36.5 -95.5 100.5t-35 142t33.5 141t92 99t130.5 36q71 0 126.5 -34.5t86.5 -92t31 -125.5q0 -23 -4 -44h-434q2 -59 30 -105.5t73.5 -72t99.5 -25.5q56 0 99.5 27t71.5 74l51 -27q-28 -58 -87.5 -94t-134.5 -36q-74 0 -134.5 36.5zM497 302
q0 52 -24 94.5t-65 66.5t-91 24q-49 0 -91.5 -23.5t-69.5 -65.5t-32 -96h373zM282 784h57l120 -144h-57l-91 107l-90 -107h-57zM407 849l48 -90h-55l-56 90h63z" />
    <glyph glyph-name="uni1EC2" unicode="&#x1ec2;" horiz-adv-x="613" 
d="M94 745h470v-60h-405v-281h385v-60h-385v-284h405v-60h-470v745zM299 998h57l120 -144h-57l-91 107l-90 -107h-57zM377 1134q18 9 53 9q46 0 73.5 -22.5t27.5 -59.5q0 -70 -100 -112l-15 29q31 14 48.5 33.5t17.5 41.5q0 23 -16.5 37.5t-46.5 14.5q-20 0 -42 -8v37z" />
    <glyph glyph-name="uni1EC3" unicode="&#x1ec3;" horiz-adv-x="621" 
d="M191.5 24.5q-60.5 36.5 -95.5 100.5t-35 142t33.5 141t92 99t130.5 36q71 0 126.5 -34.5t86.5 -92t31 -125.5q0 -23 -4 -44h-434q2 -59 30 -105.5t73.5 -72t99.5 -25.5q56 0 99.5 27t71.5 74l51 -27q-28 -58 -87.5 -94t-134.5 -36q-74 0 -134.5 36.5zM497 302
q0 52 -24 94.5t-65 66.5t-91 24q-49 0 -91.5 -23.5t-69.5 -65.5t-32 -96h373zM282 784h57l120 -144h-57l-91 107l-90 -107h-57zM360 920q18 9 53 9q46 0 73.5 -22.5t27.5 -59.5q0 -70 -100 -112l-15 29q31 14 48.5 33.5t17.5 41.5q0 23 -16.5 37.5t-46.5 14.5q-20 0 -42 -8
v37z" />
    <glyph glyph-name="uni1EC4" unicode="&#x1ec4;" horiz-adv-x="613" 
d="M94 745h470v-60h-405v-281h385v-60h-385v-284h405v-60h-470v745zM299 998h57l120 -144h-57l-91 107l-90 -107h-57zM218.5 1105.5q21.5 23.5 53.5 23.5q19 0 33 -6.5t33 -18.5q13 -9 23 -14t22 -5q30 0 33 40h45q-1 -40 -21.5 -63.5t-53.5 -23.5q-20 0 -34.5 6.5
t-31.5 18.5q-15 10 -24.5 14.5t-20.5 4.5q-13 0 -22.5 -10t-11.5 -29h-45q1 39 22.5 62.5z" />
    <glyph glyph-name="uni1EC5" unicode="&#x1ec5;" horiz-adv-x="621" 
d="M191.5 24.5q-60.5 36.5 -95.5 100.5t-35 142t33.5 141t92 99t130.5 36q71 0 126.5 -34.5t86.5 -92t31 -125.5q0 -23 -4 -44h-434q2 -59 30 -105.5t73.5 -72t99.5 -25.5q56 0 99.5 27t71.5 74l51 -27q-28 -58 -87.5 -94t-134.5 -36q-74 0 -134.5 36.5zM497 302
q0 52 -24 94.5t-65 66.5t-91 24q-49 0 -91.5 -23.5t-69.5 -65.5t-32 -96h373zM282 784h57l120 -144h-57l-91 107l-90 -107h-57zM201.5 891.5q21.5 23.5 53.5 23.5q19 0 33 -6.5t33 -18.5q13 -9 23 -14t22 -5q30 0 33 40h45q-1 -40 -21.5 -63.5t-53.5 -23.5q-20 0 -34.5 6.5
t-31.5 18.5q-15 10 -24.5 14.5t-20.5 4.5q-13 0 -22.5 -10t-11.5 -29h-45q1 39 22.5 62.5z" />
    <glyph glyph-name="uni1EC6" unicode="&#x1ec6;" horiz-adv-x="613" 
d="M94 745h470v-60h-405v-281h385v-60h-385v-284h405v-60h-470v745zM294.5 -164q-14.5 14 -14.5 35t14.5 35t34.5 14t34.5 -14t14.5 -35t-14.5 -35t-34.5 -14t-34.5 14zM299 998h57l120 -144h-57l-91 107l-90 -107h-57z" />
    <glyph glyph-name="uni1EC7" unicode="&#x1ec7;" horiz-adv-x="621" 
d="M191.5 24.5q-60.5 36.5 -95.5 100.5t-35 142t33.5 141t92 99t130.5 36q71 0 126.5 -34.5t86.5 -92t31 -125.5q0 -23 -4 -44h-434q2 -59 30 -105.5t73.5 -72t99.5 -25.5q56 0 99.5 27t71.5 74l51 -27q-28 -58 -87.5 -94t-134.5 -36q-74 0 -134.5 36.5zM497 302
q0 52 -24 94.5t-65 66.5t-91 24q-49 0 -91.5 -23.5t-69.5 -65.5t-32 -96h373zM276.5 -164q-14.5 14 -14.5 35t14.5 35t34.5 14t34.5 -14t14.5 -35t-14.5 -35t-34.5 -14t-34.5 14zM282 784h57l120 -144h-57l-91 107l-90 -107h-57z" />
    <glyph glyph-name="uni1EC8" unicode="&#x1ec8;" horiz-adv-x="252" 
d="M94 745h65v-745h-65v745zM135.5 856q17.5 19 17.5 42t-16.5 37.5t-46.5 14.5q-20 0 -42 -8v37q19 9 53 9q46 0 74 -22.5t28 -59.5q0 -70 -101 -112l-14 29q30 14 47.5 33z" />
    <glyph glyph-name="uni1EC9" unicode="&#x1ec9;" horiz-adv-x="192" 
d="M66 531h60v-531h-60v531zM105.5 642q17.5 19 17.5 42t-16.5 37.5t-46.5 14.5q-20 0 -42 -8v37q19 9 53 9q46 0 74 -22.5t28 -59.5q0 -70 -101 -112l-14 29q30 14 47.5 33z" />
    <glyph glyph-name="uni1ECA" unicode="&#x1eca;" horiz-adv-x="252" 
d="M94 745h65v-745h-65v745zM91.5 -164q-14.5 14 -14.5 35t14.5 35t34.5 14t34.5 -14t14.5 -35t-14.5 -35t-34.5 -14t-34.5 14z" />
    <glyph glyph-name="uni1ECB" unicode="&#x1ecb;" horiz-adv-x="225" 
d="M83 531h60v-531h-60v531zM84.5 700q11.5 12 28.5 12t28.5 -11.5t11.5 -29.5t-11 -30t-29 -12q-17 0 -28.5 12t-11.5 30q0 17 11.5 29zM78.5 -164q-14.5 14 -14.5 35t14.5 35t34.5 14t34.5 -14t14.5 -35t-14.5 -35t-34.5 -14t-34.5 14z" />
    <glyph glyph-name="uni1ECC" unicode="&#x1ecc;" horiz-adv-x="881" 
d="M255.5 37.5q-84.5 49.5 -134 137.5t-49.5 198t49.5 197.5t134 137t185.5 49.5t185.5 -49.5t134 -137t49.5 -197.5t-49.5 -198t-134 -137.5t-185.5 -49.5t-185.5 49.5zM175.5 211q38.5 -74 108 -117.5t157.5 -43.5q87 0 156.5 43.5t108.5 117.5t39 162q0 87 -38.5 161
t-108 118t-157.5 44t-157.5 -44t-108 -118t-38.5 -161q0 -88 38.5 -162zM406.5 -164q-14.5 14 -14.5 35t14.5 35t34.5 14t34.5 -14t14.5 -35t-14.5 -35t-34.5 -14t-34.5 14z" />
    <glyph glyph-name="uni1ECD" unicode="&#x1ecd;" horiz-adv-x="659" 
d="M193.5 24.5q-61.5 36.5 -97 100t-35.5 141.5t35 141.5t96.5 99.5t137.5 36t137 -36t96 -99.5t35 -141.5q0 -79 -35.5 -142.5t-97 -99.5t-135.5 -36q-75 0 -136.5 36.5zM152 155q27 -50 74 -79t104 -29q56 0 103 29t74 79t27 111t-27 111t-73.5 78.5t-103.5 28.5
t-104 -28.5t-74 -78.5t-27 -111t27 -111zM295.5 -164q-14.5 14 -14.5 35t14.5 35t34.5 14t34.5 -14t14.5 -35t-14.5 -35t-34.5 -14t-34.5 14z" />
    <glyph glyph-name="uni1ECE" unicode="&#x1ece;" horiz-adv-x="881" 
d="M255.5 37.5q-84.5 49.5 -134 137.5t-49.5 198t49.5 197.5t134 137t185.5 49.5t185.5 -49.5t134 -137t49.5 -197.5t-49.5 -198t-134 -137.5t-185.5 -49.5t-185.5 49.5zM175.5 211q38.5 -74 108 -117.5t157.5 -43.5q87 0 156.5 43.5t108.5 117.5t39 162q0 87 -38.5 161
t-108 118t-157.5 44t-157.5 -44t-108 -118t-38.5 -161q0 -88 38.5 -162zM450.5 856q17.5 19 17.5 42t-16.5 37.5t-46.5 14.5q-20 0 -42 -8v37q19 9 53 9q46 0 74 -22.5t28 -59.5q0 -70 -101 -112l-14 29q30 14 47.5 33z" />
    <glyph glyph-name="uni1ECF" unicode="&#x1ecf;" horiz-adv-x="659" 
d="M193.5 24.5q-61.5 36.5 -97 100t-35.5 141.5t35 141.5t96.5 99.5t137.5 36t137 -36t96 -99.5t35 -141.5q0 -79 -35.5 -142.5t-97 -99.5t-135.5 -36q-75 0 -136.5 36.5zM152 155q27 -50 74 -79t104 -29q56 0 103 29t74 79t27 111t-27 111t-73.5 78.5t-103.5 28.5
t-104 -28.5t-74 -78.5t-27 -111t27 -111zM339.5 642q17.5 19 17.5 42t-16.5 37.5t-46.5 14.5q-20 0 -42 -8v37q19 9 53 9q46 0 74 -22.5t28 -59.5q0 -70 -101 -112l-14 29q30 14 47.5 33z" />
    <glyph glyph-name="uni1ED0" unicode="&#x1ed0;" horiz-adv-x="881" 
d="M255.5 37.5q-84.5 49.5 -134 137.5t-49.5 198t49.5 197.5t134 137t185.5 49.5t185.5 -49.5t134 -137t49.5 -197.5t-49.5 -198t-134 -137.5t-185.5 -49.5t-185.5 49.5zM175.5 211q38.5 -74 108 -117.5t157.5 -43.5q87 0 156.5 43.5t108.5 117.5t39 162q0 87 -38.5 161
t-108 118t-157.5 44t-157.5 -44t-108 -118t-38.5 -161q0 -88 38.5 -162zM411 998h57l120 -144h-57l-91 107l-90 -107h-57zM556 1063h63l-56 -90h-55z" />
    <glyph glyph-name="uni1ED1" unicode="&#x1ed1;" horiz-adv-x="659" 
d="M193.5 24.5q-61.5 36.5 -97 100t-35.5 141.5t35 141.5t96.5 99.5t137.5 36t137 -36t96 -99.5t35 -141.5q0 -79 -35.5 -142.5t-97 -99.5t-135.5 -36q-75 0 -136.5 36.5zM152 155q27 -50 74 -79t104 -29q56 0 103 29t74 79t27 111t-27 111t-73.5 78.5t-103.5 28.5
t-104 -28.5t-74 -78.5t-27 -111t27 -111zM300 784h57l120 -144h-57l-91 107l-90 -107h-57zM445 849h63l-56 -90h-55z" />
    <glyph glyph-name="uni1ED2" unicode="&#x1ed2;" horiz-adv-x="881" 
d="M255.5 37.5q-84.5 49.5 -134 137.5t-49.5 198t49.5 197.5t134 137t185.5 49.5t185.5 -49.5t134 -137t49.5 -197.5t-49.5 -198t-134 -137.5t-185.5 -49.5t-185.5 49.5zM175.5 211q38.5 -74 108 -117.5t157.5 -43.5q87 0 156.5 43.5t108.5 117.5t39 162q0 87 -38.5 161
t-108 118t-157.5 44t-157.5 -44t-108 -118t-38.5 -161q0 -88 38.5 -162zM411 998h57l120 -144h-57l-91 107l-90 -107h-57zM536 1063l48 -90h-55l-56 90h63z" />
    <glyph glyph-name="uni1ED3" unicode="&#x1ed3;" horiz-adv-x="659" 
d="M193.5 24.5q-61.5 36.5 -97 100t-35.5 141.5t35 141.5t96.5 99.5t137.5 36t137 -36t96 -99.5t35 -141.5q0 -79 -35.5 -142.5t-97 -99.5t-135.5 -36q-75 0 -136.5 36.5zM152 155q27 -50 74 -79t104 -29q56 0 103 29t74 79t27 111t-27 111t-73.5 78.5t-103.5 28.5
t-104 -28.5t-74 -78.5t-27 -111t27 -111zM300 784h57l120 -144h-57l-91 107l-90 -107h-57zM425 849l48 -90h-55l-56 90h63z" />
    <glyph glyph-name="uni1ED4" unicode="&#x1ed4;" horiz-adv-x="881" 
d="M255.5 37.5q-84.5 49.5 -134 137.5t-49.5 198t49.5 197.5t134 137t185.5 49.5t185.5 -49.5t134 -137t49.5 -197.5t-49.5 -198t-134 -137.5t-185.5 -49.5t-185.5 49.5zM175.5 211q38.5 -74 108 -117.5t157.5 -43.5q87 0 156.5 43.5t108.5 117.5t39 162q0 87 -38.5 161
t-108 118t-157.5 44t-157.5 -44t-108 -118t-38.5 -161q0 -88 38.5 -162zM411 998h57l120 -144h-57l-91 107l-90 -107h-57zM489 1134q18 9 53 9q46 0 73.5 -22.5t27.5 -59.5q0 -70 -100 -112l-15 29q31 14 48.5 33.5t17.5 41.5q0 23 -16.5 37.5t-46.5 14.5q-20 0 -42 -8v37z
" />
    <glyph glyph-name="uni1ED5" unicode="&#x1ed5;" horiz-adv-x="659" 
d="M193.5 24.5q-61.5 36.5 -97 100t-35.5 141.5t35 141.5t96.5 99.5t137.5 36t137 -36t96 -99.5t35 -141.5q0 -79 -35.5 -142.5t-97 -99.5t-135.5 -36q-75 0 -136.5 36.5zM152 155q27 -50 74 -79t104 -29q56 0 103 29t74 79t27 111t-27 111t-73.5 78.5t-103.5 28.5
t-104 -28.5t-74 -78.5t-27 -111t27 -111zM300 784h57l120 -144h-57l-91 107l-90 -107h-57zM378 920q18 9 53 9q46 0 73.5 -22.5t27.5 -59.5q0 -70 -100 -112l-15 29q31 14 48.5 33.5t17.5 41.5q0 23 -16.5 37.5t-46.5 14.5q-20 0 -42 -8v37z" />
    <glyph glyph-name="uni1ED6" unicode="&#x1ed6;" horiz-adv-x="881" 
d="M255.5 37.5q-84.5 49.5 -134 137.5t-49.5 198t49.5 197.5t134 137t185.5 49.5t185.5 -49.5t134 -137t49.5 -197.5t-49.5 -198t-134 -137.5t-185.5 -49.5t-185.5 49.5zM175.5 211q38.5 -74 108 -117.5t157.5 -43.5q87 0 156.5 43.5t108.5 117.5t39 162q0 87 -38.5 161
t-108 118t-157.5 44t-157.5 -44t-108 -118t-38.5 -161q0 -88 38.5 -162zM411 998h57l120 -144h-57l-91 107l-90 -107h-57zM330.5 1105.5q21.5 23.5 53.5 23.5q19 0 33 -6.5t33 -18.5q13 -9 23 -14t22 -5q30 0 33 40h45q-1 -40 -21.5 -63.5t-53.5 -23.5q-20 0 -34.5 6.5
t-31.5 18.5q-15 10 -24.5 14.5t-20.5 4.5q-13 0 -22.5 -10t-11.5 -29h-45q1 39 22.5 62.5z" />
    <glyph glyph-name="uni1ED7" unicode="&#x1ed7;" horiz-adv-x="659" 
d="M193.5 24.5q-61.5 36.5 -97 100t-35.5 141.5t35 141.5t96.5 99.5t137.5 36t137 -36t96 -99.5t35 -141.5q0 -79 -35.5 -142.5t-97 -99.5t-135.5 -36q-75 0 -136.5 36.5zM152 155q27 -50 74 -79t104 -29q56 0 103 29t74 79t27 111t-27 111t-73.5 78.5t-103.5 28.5
t-104 -28.5t-74 -78.5t-27 -111t27 -111zM300 784h57l120 -144h-57l-91 107l-90 -107h-57zM219.5 891.5q21.5 23.5 53.5 23.5q19 0 33 -6.5t33 -18.5q13 -9 23 -14t22 -5q30 0 33 40h45q-1 -40 -21.5 -63.5t-53.5 -23.5q-20 0 -34.5 6.5t-31.5 18.5q-15 10 -24.5 14.5
t-20.5 4.5q-13 0 -22.5 -10t-11.5 -29h-45q1 39 22.5 62.5z" />
    <glyph glyph-name="uni1ED8" unicode="&#x1ed8;" horiz-adv-x="881" 
d="M255.5 37.5q-84.5 49.5 -134 137.5t-49.5 198t49.5 197.5t134 137t185.5 49.5t185.5 -49.5t134 -137t49.5 -197.5t-49.5 -198t-134 -137.5t-185.5 -49.5t-185.5 49.5zM175.5 211q38.5 -74 108 -117.5t157.5 -43.5q87 0 156.5 43.5t108.5 117.5t39 162q0 87 -38.5 161
t-108 118t-157.5 44t-157.5 -44t-108 -118t-38.5 -161q0 -88 38.5 -162zM406.5 -164q-14.5 14 -14.5 35t14.5 35t34.5 14t34.5 -14t14.5 -35t-14.5 -35t-34.5 -14t-34.5 14zM411 998h57l120 -144h-57l-91 107l-90 -107h-57z" />
    <glyph glyph-name="uni1ED9" unicode="&#x1ed9;" horiz-adv-x="659" 
d="M193.5 24.5q-61.5 36.5 -97 100t-35.5 141.5t35 141.5t96.5 99.5t137.5 36t137 -36t96 -99.5t35 -141.5q0 -79 -35.5 -142.5t-97 -99.5t-135.5 -36q-75 0 -136.5 36.5zM152 155q27 -50 74 -79t104 -29q56 0 103 29t74 79t27 111t-27 111t-73.5 78.5t-103.5 28.5
t-104 -28.5t-74 -78.5t-27 -111t27 -111zM295.5 -164q-14.5 14 -14.5 35t14.5 35t34.5 14t34.5 -14t14.5 -35t-14.5 -35t-34.5 -14t-34.5 14zM300 784h57l120 -144h-57l-91 107l-90 -107h-57z" />
    <glyph glyph-name="uni1EDA" unicode="&#x1eda;" horiz-adv-x="881" 
d="M255.5 37.5q-84.5 49.5 -134 137.5t-49.5 198t49.5 197.5t134 137t185.5 49.5h213q51 0 51 54q0 19 -5 36.5t-16 43.5h68q23 -48 23 -87q0 -52 -30 -78t-83 -26h-23q79 -51 125 -136t46 -191q0 -110 -49.5 -198t-134 -137.5t-185.5 -49.5t-185.5 49.5zM175.5 211
q38.5 -74 108 -117.5t157.5 -43.5q87 0 156.5 43.5t108.5 117.5t39 162q0 87 -38.5 161t-108 118t-157.5 44t-157.5 -44t-108 -118t-38.5 -161q0 -88 38.5 -162zM493 998h64l-91 -144h-51z" />
    <glyph glyph-name="uni1EDB" unicode="&#x1edb;" horiz-adv-x="659" 
d="M193.5 24.5q-61.5 36.5 -97 100t-35.5 141.5t35 141.5t96.5 99.5t137.5 36h113q52 0 52 54q0 19 -5.5 37.5t-15.5 43.5h59q22 -51 22 -87q0 -39 -19 -63t-52 -32q53 -37 83.5 -97.5t30.5 -132.5q0 -79 -35.5 -142.5t-97 -99.5t-135.5 -36q-75 0 -136.5 36.5zM152 155
q27 -50 74 -79t104 -29q56 0 103 29t74 79t27 111t-27 111t-73.5 78.5t-103.5 28.5t-104 -28.5t-74 -78.5t-27 -111t27 -111zM382 784h64l-91 -144h-51z" />
    <glyph glyph-name="uni1EDC" unicode="&#x1edc;" horiz-adv-x="881" 
d="M255.5 37.5q-84.5 49.5 -134 137.5t-49.5 198t49.5 197.5t134 137t185.5 49.5h213q51 0 51 54q0 19 -5 36.5t-16 43.5h68q23 -48 23 -87q0 -52 -30 -78t-83 -26h-23q79 -51 125 -136t46 -191q0 -110 -49.5 -198t-134 -137.5t-185.5 -49.5t-185.5 49.5zM175.5 211
q38.5 -74 108 -117.5t157.5 -43.5q87 0 156.5 43.5t108.5 117.5t39 162q0 87 -38.5 161t-108 118t-157.5 44t-157.5 -44t-108 -118t-38.5 -161q0 -88 38.5 -162zM324 998h64l78 -144h-51z" />
    <glyph glyph-name="uni1EDD" unicode="&#x1edd;" horiz-adv-x="659" 
d="M193.5 24.5q-61.5 36.5 -97 100t-35.5 141.5t35 141.5t96.5 99.5t137.5 36h113q52 0 52 54q0 19 -5.5 37.5t-15.5 43.5h59q22 -51 22 -87q0 -39 -19 -63t-52 -32q53 -37 83.5 -97.5t30.5 -132.5q0 -79 -35.5 -142.5t-97 -99.5t-135.5 -36q-75 0 -136.5 36.5zM152 155
q27 -50 74 -79t104 -29q56 0 103 29t74 79t27 111t-27 111t-73.5 78.5t-103.5 28.5t-104 -28.5t-74 -78.5t-27 -111t27 -111zM213 784h64l78 -144h-51z" />
    <glyph glyph-name="uni1EDE" unicode="&#x1ede;" horiz-adv-x="881" 
d="M255.5 37.5q-84.5 49.5 -134 137.5t-49.5 198t49.5 197.5t134 137t185.5 49.5h213q51 0 51 54q0 19 -5 36.5t-16 43.5h68q23 -48 23 -87q0 -52 -30 -78t-83 -26h-23q79 -51 125 -136t46 -191q0 -110 -49.5 -198t-134 -137.5t-185.5 -49.5t-185.5 49.5zM175.5 211
q38.5 -74 108 -117.5t157.5 -43.5q87 0 156.5 43.5t108.5 117.5t39 162q0 87 -38.5 161t-108 118t-157.5 44t-157.5 -44t-108 -118t-38.5 -161q0 -88 38.5 -162zM450.5 856q17.5 19 17.5 42t-16.5 37.5t-46.5 14.5q-20 0 -42 -8v37q19 9 53 9q46 0 74 -22.5t28 -59.5
q0 -70 -101 -112l-14 29q30 14 47.5 33z" />
    <glyph glyph-name="uni1EDF" unicode="&#x1edf;" horiz-adv-x="659" 
d="M193.5 24.5q-61.5 36.5 -97 100t-35.5 141.5t35 141.5t96.5 99.5t137.5 36h113q52 0 52 54q0 19 -5.5 37.5t-15.5 43.5h59q22 -51 22 -87q0 -39 -19 -63t-52 -32q53 -37 83.5 -97.5t30.5 -132.5q0 -79 -35.5 -142.5t-97 -99.5t-135.5 -36q-75 0 -136.5 36.5zM152 155
q27 -50 74 -79t104 -29q56 0 103 29t74 79t27 111t-27 111t-73.5 78.5t-103.5 28.5t-104 -28.5t-74 -78.5t-27 -111t27 -111zM339.5 642q17.5 19 17.5 42t-16.5 37.5t-46.5 14.5q-20 0 -42 -8v37q19 9 53 9q46 0 74 -22.5t28 -59.5q0 -70 -101 -112l-14 29q30 14 47.5 33z
" />
    <glyph glyph-name="uni1EE0" unicode="&#x1ee0;" horiz-adv-x="881" 
d="M255.5 37.5q-84.5 49.5 -134 137.5t-49.5 198t49.5 197.5t134 137t185.5 49.5h213q51 0 51 54q0 19 -5 36.5t-16 43.5h68q23 -48 23 -87q0 -52 -30 -78t-83 -26h-23q79 -51 125 -136t46 -191q0 -110 -49.5 -198t-134 -137.5t-185.5 -49.5t-185.5 49.5zM175.5 211
q38.5 -74 108 -117.5t157.5 -43.5q87 0 156.5 43.5t108.5 117.5t39 162q0 87 -38.5 161t-108 118t-157.5 44t-157.5 -44t-108 -118t-38.5 -161q0 -88 38.5 -162zM463.5 895.5q-14.5 6.5 -31.5 18.5q-15 10 -24.5 14.5t-20.5 4.5q-13 0 -22.5 -10t-11.5 -29h-45
q1 39 22.5 62.5t53.5 23.5q19 0 33 -6.5t33 -18.5q13 -9 23 -14t22 -5q30 0 33 40h45q-1 -40 -21.5 -63.5t-53.5 -23.5q-20 0 -34.5 6.5z" />
    <glyph glyph-name="uni1EE1" unicode="&#x1ee1;" horiz-adv-x="659" 
d="M193.5 24.5q-61.5 36.5 -97 100t-35.5 141.5t35 141.5t96.5 99.5t137.5 36h113q52 0 52 54q0 19 -5.5 37.5t-15.5 43.5h59q22 -51 22 -87q0 -39 -19 -63t-52 -32q53 -37 83.5 -97.5t30.5 -132.5q0 -79 -35.5 -142.5t-97 -99.5t-135.5 -36q-75 0 -136.5 36.5zM152 155
q27 -50 74 -79t104 -29q56 0 103 29t74 79t27 111t-27 111t-73.5 78.5t-103.5 28.5t-104 -28.5t-74 -78.5t-27 -111t27 -111zM352.5 681.5q-14.5 6.5 -31.5 18.5q-15 10 -24.5 14.5t-20.5 4.5q-13 0 -22.5 -10t-11.5 -29h-45q1 39 22.5 62.5t53.5 23.5q19 0 33 -6.5
t33 -18.5q13 -9 23 -14t22 -5q30 0 33 40h45q-1 -40 -21.5 -63.5t-53.5 -23.5q-20 0 -34.5 6.5z" />
    <glyph glyph-name="uni1EE2" unicode="&#x1ee2;" horiz-adv-x="881" 
d="M255.5 37.5q-84.5 49.5 -134 137.5t-49.5 198t49.5 197.5t134 137t185.5 49.5h213q51 0 51 54q0 19 -5 36.5t-16 43.5h68q23 -48 23 -87q0 -52 -30 -78t-83 -26h-23q79 -51 125 -136t46 -191q0 -110 -49.5 -198t-134 -137.5t-185.5 -49.5t-185.5 49.5zM175.5 211
q38.5 -74 108 -117.5t157.5 -43.5q87 0 156.5 43.5t108.5 117.5t39 162q0 87 -38.5 161t-108 118t-157.5 44t-157.5 -44t-108 -118t-38.5 -161q0 -88 38.5 -162zM406.5 -164q-14.5 14 -14.5 35t14.5 35t34.5 14t34.5 -14t14.5 -35t-14.5 -35t-34.5 -14t-34.5 14z" />
    <glyph glyph-name="uni1EE3" unicode="&#x1ee3;" horiz-adv-x="659" 
d="M193.5 24.5q-61.5 36.5 -97 100t-35.5 141.5t35 141.5t96.5 99.5t137.5 36h113q52 0 52 54q0 19 -5.5 37.5t-15.5 43.5h59q22 -51 22 -87q0 -39 -19 -63t-52 -32q53 -37 83.5 -97.5t30.5 -132.5q0 -79 -35.5 -142.5t-97 -99.5t-135.5 -36q-75 0 -136.5 36.5zM152 155
q27 -50 74 -79t104 -29q56 0 103 29t74 79t27 111t-27 111t-73.5 78.5t-103.5 28.5t-104 -28.5t-74 -78.5t-27 -111t27 -111zM295.5 -164q-14.5 14 -14.5 35t14.5 35t34.5 14t34.5 -14t14.5 -35t-14.5 -35t-34.5 -14t-34.5 14z" />
    <glyph glyph-name="uni1EE4" unicode="&#x1ee4;" horiz-adv-x="695" 
d="M213.5 21q-58.5 33 -91 91.5t-32.5 134.5v498h65v-500q0 -58 24 -102.5t68 -69.5t101 -25q56 0 100 25t68 69.5t24 102.5v500h65v-498q0 -76 -32 -135t-90.5 -91.5t-134.5 -32.5t-134.5 33zM313.5 -164q-14.5 14 -14.5 35t14.5 35t34.5 14t34.5 -14t14.5 -35t-14.5 -35
t-34.5 -14t-34.5 14z" />
    <glyph glyph-name="uni1EE5" unicode="&#x1ee5;" 
d="M171.5 13q-45.5 25 -72.5 71.5t-27 107.5v339h60v-334q0 -69 41.5 -109.5t106.5 -40.5q68 0 108.5 45.5t40.5 119.5v319h60v-531h-60v71q-24 -39 -65.5 -61t-92.5 -22q-54 0 -99.5 25zM251.5 -164q-14.5 14 -14.5 35t14.5 35t34.5 14t34.5 -14t14.5 -35t-14.5 -35
t-34.5 -14t-34.5 14z" />
    <glyph glyph-name="uni1EE6" unicode="&#x1ee6;" horiz-adv-x="695" 
d="M213.5 21q-58.5 33 -91 91.5t-32.5 134.5v498h65v-500q0 -58 24 -102.5t68 -69.5t101 -25q56 0 100 25t68 69.5t24 102.5v500h65v-498q0 -76 -32 -135t-90.5 -91.5t-134.5 -32.5t-134.5 33zM357.5 856q17.5 19 17.5 42t-16.5 37.5t-46.5 14.5q-20 0 -42 -8v37q19 9 53 9
q46 0 74 -22.5t28 -59.5q0 -70 -101 -112l-14 29q30 14 47.5 33z" />
    <glyph glyph-name="uni1EE7" unicode="&#x1ee7;" 
d="M171.5 13q-45.5 25 -72.5 71.5t-27 107.5v339h60v-334q0 -69 41.5 -109.5t106.5 -40.5q68 0 108.5 45.5t40.5 119.5v319h60v-531h-60v71q-24 -39 -65.5 -61t-92.5 -22q-54 0 -99.5 25zM296.5 642q17.5 19 17.5 42t-16.5 37.5t-46.5 14.5q-20 0 -42 -8v37q19 9 53 9
q46 0 74 -22.5t28 -59.5q0 -70 -101 -112l-14 29q30 14 47.5 33z" />
    <glyph glyph-name="uni1EE8" unicode="&#x1ee8;" horiz-adv-x="695" 
d="M213.5 21q-58.5 33 -91 91.5t-32.5 134.5v498h65v-500q0 -58 24 -102.5t68 -69.5t101 -25q56 0 100 25t68 69.5t24 102.5v500h58q52 0 52 54q0 19 -5.5 37t-16.5 43h69q11 -25 17 -45t6 -42q0 -52 -30.5 -78t-82.5 -26h-2v-441q0 -76 -32 -135t-90.5 -91.5t-134.5 -32.5
t-134.5 33zM400 998h64l-91 -144h-51z" />
    <glyph glyph-name="uni1EE9" unicode="&#x1ee9;" horiz-adv-x="585" 
d="M171.5 13q-45.5 25 -72.5 71.5t-27 107.5v339h60v-334q0 -69 41.5 -109.5t106.5 -40.5q68 0 108.5 45.5t40.5 119.5v319h33q52 0 52 54q0 19 -5.5 37.5t-15.5 43.5h60q11 -28 16.5 -47t5.5 -40q0 -43 -23 -68t-63 -30v-481h-60v71q-24 -39 -65.5 -61t-92.5 -22
q-54 0 -99.5 25zM338 784h64l-91 -144h-51z" />
    <glyph glyph-name="uni1EEA" unicode="&#x1eea;" horiz-adv-x="695" 
d="M213.5 21q-58.5 33 -91 91.5t-32.5 134.5v498h65v-500q0 -58 24 -102.5t68 -69.5t101 -25q56 0 100 25t68 69.5t24 102.5v500h58q52 0 52 54q0 19 -5.5 37t-16.5 43h69q11 -25 17 -45t6 -42q0 -52 -30.5 -78t-82.5 -26h-2v-441q0 -76 -32 -135t-90.5 -91.5t-134.5 -32.5
t-134.5 33zM231 998h64l78 -144h-51z" />
    <glyph glyph-name="uni1EEB" unicode="&#x1eeb;" horiz-adv-x="585" 
d="M171.5 13q-45.5 25 -72.5 71.5t-27 107.5v339h60v-334q0 -69 41.5 -109.5t106.5 -40.5q68 0 108.5 45.5t40.5 119.5v319h33q52 0 52 54q0 19 -5.5 37.5t-15.5 43.5h60q11 -28 16.5 -47t5.5 -40q0 -43 -23 -68t-63 -30v-481h-60v71q-24 -39 -65.5 -61t-92.5 -22
q-54 0 -99.5 25zM169 784h64l78 -144h-51z" />
    <glyph glyph-name="uni1EEC" unicode="&#x1eec;" horiz-adv-x="695" 
d="M213.5 21q-58.5 33 -91 91.5t-32.5 134.5v498h65v-500q0 -58 24 -102.5t68 -69.5t101 -25q56 0 100 25t68 69.5t24 102.5v500h58q52 0 52 54q0 19 -5.5 37t-16.5 43h69q11 -25 17 -45t6 -42q0 -52 -30.5 -78t-82.5 -26h-2v-441q0 -76 -32 -135t-90.5 -91.5t-134.5 -32.5
t-134.5 33zM357.5 856q17.5 19 17.5 42t-16.5 37.5t-46.5 14.5q-20 0 -42 -8v37q19 9 53 9q46 0 74 -22.5t28 -59.5q0 -70 -101 -112l-14 29q30 14 47.5 33z" />
    <glyph glyph-name="uni1EED" unicode="&#x1eed;" horiz-adv-x="585" 
d="M171.5 13q-45.5 25 -72.5 71.5t-27 107.5v339h60v-334q0 -69 41.5 -109.5t106.5 -40.5q68 0 108.5 45.5t40.5 119.5v319h33q52 0 52 54q0 19 -5.5 37.5t-15.5 43.5h60q11 -28 16.5 -47t5.5 -40q0 -43 -23 -68t-63 -30v-481h-60v71q-24 -39 -65.5 -61t-92.5 -22
q-54 0 -99.5 25zM296.5 642q17.5 19 17.5 42t-16.5 37.5t-46.5 14.5q-20 0 -42 -8v37q19 9 53 9q46 0 74 -22.5t28 -59.5q0 -70 -101 -112l-14 29q30 14 47.5 33z" />
    <glyph glyph-name="uni1EEE" unicode="&#x1eee;" horiz-adv-x="695" 
d="M213.5 21q-58.5 33 -91 91.5t-32.5 134.5v498h65v-500q0 -58 24 -102.5t68 -69.5t101 -25q56 0 100 25t68 69.5t24 102.5v500h58q52 0 52 54q0 19 -5.5 37t-16.5 43h69q11 -25 17 -45t6 -42q0 -52 -30.5 -78t-82.5 -26h-2v-441q0 -76 -32 -135t-90.5 -91.5t-134.5 -32.5
t-134.5 33zM370.5 895.5q-14.5 6.5 -31.5 18.5q-15 10 -24.5 14.5t-20.5 4.5q-13 0 -22.5 -10t-11.5 -29h-45q1 39 22.5 62.5t53.5 23.5q19 0 33 -6.5t33 -18.5q13 -9 23 -14t22 -5q30 0 33 40h45q-1 -40 -21.5 -63.5t-53.5 -23.5q-20 0 -34.5 6.5z" />
    <glyph glyph-name="uni1EEF" unicode="&#x1eef;" horiz-adv-x="585" 
d="M171.5 13q-45.5 25 -72.5 71.5t-27 107.5v339h60v-334q0 -69 41.5 -109.5t106.5 -40.5q68 0 108.5 45.5t40.5 119.5v319h33q52 0 52 54q0 19 -5.5 37.5t-15.5 43.5h60q11 -28 16.5 -47t5.5 -40q0 -43 -23 -68t-63 -30v-481h-60v71q-24 -39 -65.5 -61t-92.5 -22
q-54 0 -99.5 25zM309.5 681.5q-14.5 6.5 -31.5 18.5q-15 10 -24.5 14.5t-20.5 4.5q-13 0 -22.5 -10t-11.5 -29h-45q1 39 22.5 62.5t53.5 23.5q19 0 33 -6.5t33 -18.5q13 -9 23 -14t22 -5q30 0 33 40h45q-1 -40 -21.5 -63.5t-53.5 -23.5q-20 0 -34.5 6.5z" />
    <glyph glyph-name="uni1EF0" unicode="&#x1ef0;" horiz-adv-x="695" 
d="M213.5 21q-58.5 33 -91 91.5t-32.5 134.5v498h65v-500q0 -58 24 -102.5t68 -69.5t101 -25q56 0 100 25t68 69.5t24 102.5v500h58q52 0 52 54q0 19 -5.5 37t-16.5 43h69q11 -25 17 -45t6 -42q0 -52 -30.5 -78t-82.5 -26h-2v-441q0 -76 -32 -135t-90.5 -91.5t-134.5 -32.5
t-134.5 33zM313.5 -164q-14.5 14 -14.5 35t14.5 35t34.5 14t34.5 -14t14.5 -35t-14.5 -35t-34.5 -14t-34.5 14z" />
    <glyph glyph-name="uni1EF1" unicode="&#x1ef1;" horiz-adv-x="585" 
d="M171.5 13q-45.5 25 -72.5 71.5t-27 107.5v339h60v-334q0 -69 41.5 -109.5t106.5 -40.5q68 0 108.5 45.5t40.5 119.5v319h33q52 0 52 54q0 19 -5.5 37.5t-15.5 43.5h60q11 -28 16.5 -47t5.5 -40q0 -43 -23 -68t-63 -30v-481h-60v71q-24 -39 -65.5 -61t-92.5 -22
q-54 0 -99.5 25zM251.5 -164q-14.5 14 -14.5 35t14.5 35t34.5 14t34.5 -14t14.5 -35t-14.5 -35t-34.5 -14t-34.5 14z" />
    <glyph glyph-name="Ygrave" unicode="&#x1ef2;" horiz-adv-x="624" 
d="M280 340l-263 405h73l222 -339l222 339h73l-262 -405v-340h-65v340zM195 998h64l78 -144h-51z" />
    <glyph glyph-name="ygrave" unicode="&#x1ef3;" horiz-adv-x="533" 
d="M150 784h64l78 -144h-51z" />
    <glyph glyph-name="uni1EF4" unicode="&#x1ef4;" horiz-adv-x="624" 
d="M280 340l-263 405h73l222 -339l222 339h73l-262 -405v-340h-65v340zM277.5 -164q-14.5 14 -14.5 35t14.5 35t34.5 14t34.5 -14t14.5 -35t-14.5 -35t-34.5 -14t-34.5 14z" />
    <glyph glyph-name="uni1EF5" unicode="&#x1ef5;" horiz-adv-x="533" 
d="M448.5 -64q-14.5 14 -14.5 35t14.5 35t34.5 14t34.5 -14t14.5 -35t-14.5 -35t-34.5 -14t-34.5 14z" />
    <glyph glyph-name="uni1EF6" unicode="&#x1ef6;" horiz-adv-x="624" 
d="M280 340l-263 405h73l222 -339l222 339h73l-262 -405v-340h-65v340zM322.5 856q17.5 19 17.5 42t-16.5 37.5t-46.5 14.5q-20 0 -42 -8v37q19 9 53 9q46 0 74 -22.5t28 -59.5q0 -70 -101 -112l-14 29q30 14 47.5 33z" />
    <glyph glyph-name="uni1EF7" unicode="&#x1ef7;" horiz-adv-x="533" 
d="M276.5 642q17.5 19 17.5 42t-16.5 37.5t-46.5 14.5q-20 0 -42 -8v37q19 9 53 9q46 0 74 -22.5t28 -59.5q0 -70 -101 -112l-14 29q30 14 47.5 33z" />
    <glyph glyph-name="uni1EF8" unicode="&#x1ef8;" horiz-adv-x="624" 
d="M280 340l-263 405h73l222 -339l222 339h73l-262 -405v-340h-65v340zM335.5 895.5q-14.5 6.5 -31.5 18.5q-15 10 -24.5 14.5t-20.5 4.5q-13 0 -22.5 -10t-11.5 -29h-45q1 39 22.5 62.5t53.5 23.5q19 0 33 -6.5t33 -18.5q13 -9 23 -14t22 -5q30 0 33 40h45
q-1 -40 -21.5 -63.5t-53.5 -23.5q-20 0 -34.5 6.5z" />
    <glyph glyph-name="uni1EF9" unicode="&#x1ef9;" horiz-adv-x="533" 
d="M289.5 681.5q-14.5 6.5 -31.5 18.5q-15 10 -24.5 14.5t-20.5 4.5q-13 0 -22.5 -10t-11.5 -29h-45q1 39 22.5 62.5t53.5 23.5q19 0 33 -6.5t33 -18.5q13 -9 23 -14t22 -5q30 0 33 40h45q-1 -40 -21.5 -63.5t-53.5 -23.5q-20 0 -34.5 6.5z" />
    <glyph glyph-name="uni2007" unicode="&#x2007;" horiz-adv-x="723" 
 />
    <glyph glyph-name="uni2008" unicode="&#x2008;" horiz-adv-x="274" 
 />
    <glyph glyph-name="uni2009" unicode="&#x2009;" horiz-adv-x="200" 
 />
    <glyph glyph-name="uni200A" unicode="&#x200a;" horiz-adv-x="143" 
 />
    <glyph glyph-name="uni200B" unicode="&#x200b;" horiz-adv-x="0" 
 />
    <glyph glyph-name="uni2010" unicode="&#x2010;" horiz-adv-x="483" 
d="M45 295h335v-58h-335v58z" />
    <glyph glyph-name="figuredash" unicode="&#x2012;" horiz-adv-x="558" 
d="M45 295h410v-58h-410v58z" />
    <glyph glyph-name="endash" unicode="&#x2013;" horiz-adv-x="558" 
d="M74 295h410v-58h-410v58z" />
    <glyph glyph-name="emdash" unicode="&#x2014;" horiz-adv-x="893" 
d="M74 295h745v-58h-745v58z" />
    <glyph glyph-name="uni2015" unicode="&#x2015;" horiz-adv-x="893" 
d="M45 295h745v-58h-745v58z" />
    <glyph glyph-name="quoteleft" unicode="&#x2018;" horiz-adv-x="259" 
d="M104 711.5q23 35.5 64 45.5v-28q-25 -7 -40 -29.5t-16 -54.5h36v-100h-67v80q0 51 23 86.5z" />
    <glyph glyph-name="quoteright" unicode="&#x2019;" horiz-adv-x="259" 
d="M121 590.5q15 22.5 16 54.5h-36v100h67v-80q0 -51 -23 -86.5t-64 -45.5v28q25 7 40 29.5z" />
    <glyph glyph-name="quotesinglbase" unicode="&#x201a;" horiz-adv-x="259" 
d="M121 -55q15 23 16 55h-36v100h67v-80q0 -52 -23 -87.5t-64 -45.5v29q25 6 40 29z" />
    <glyph glyph-name="quotedblleft" unicode="&#x201c;" horiz-adv-x="399" 
d="M244 711.5q23 35.5 64 45.5v-28q-25 -7 -40 -29.5t-16 -54.5h36v-100h-67v80q0 51 23 86.5zM81 625q0 51 23 86.5t64 45.5v-28q-25 -7 -40 -29.5t-16 -54.5h36v-100h-67v80z" />
    <glyph glyph-name="quotedblright" unicode="&#x201d;" horiz-adv-x="399" 
d="M261 598q15 23 16 55h-36v92h67v-72q0 -52 -23 -87.5t-64 -45.5v29q25 6 40 29zM81 569q25 6 40 29t16 55h-36v92h67v-72q0 -52 -23 -87.5t-64 -45.5v29z" />
    <glyph glyph-name="quotedblbase" unicode="&#x201e;" horiz-adv-x="399" 
d="M186 -55q15 23 16 55h-36v100h77v-80q0 -52 -23 -87.5t-64 -45.5v3l-10 -3v29q25 6 40 29z" />
    <glyph glyph-name="dagger" unicode="&#x2020;" horiz-adv-x="621" 
d="M278 472h-237v60h237v213h65v-213h238v-60h-238v-662h-65v662z" />
    <glyph glyph-name="daggerdbl" unicode="&#x2021;" horiz-adv-x="645" 
d="M290 24h-237v60h237v388h-237v60h237v213h65v-213h238v-60h-238v-388h238v-60h-238v-214h-65v214z" />
    <glyph glyph-name="bullet" unicode="&#x2022;" horiz-adv-x="378" 
d="M128 205.5q-25 25.5 -25 62.5q0 35 25 60t62 25q36 0 60.5 -25.5t24.5 -61.5t-24.5 -61t-60.5 -25q-37 0 -62 25.5z" />
    </font>
</defs>
</svg>
