<?xml version="1.0" standalone="no"?>
<!DOCTYPE svg PUBLIC "-//W3C//DTD SVG 1.1//EN" "http://www.w3.org/Graphics/SVG/1.1/DTD/svg11.dtd" >
<svg xmlns="http://www.w3.org/2000/svg" xmlns:xlink="http://www.w3.org/1999/xlink" version="1.1">
<metadata>
Created by FontForge 20170731 at Fri Jan  8 00:23:18 2021
 By Aleksey,,,
Copyright 2021 Stijn de Vries &#38; The Plus Jakarta Sans Project Authors (https://github.com/tokotype/PlusJakartaSans)
</metadata>
<defs>
<font id="EudoxusSans-Bold" horiz-adv-x="593" >
  <font-face 
    font-family="Eudoxus Sans"
    font-weight="700"
    font-stretch="normal"
    units-per-em="1000"
    panose-1="0 0 0 0 0 0 0 0 0 0"
    ascent="800"
    descent="-200"
    x-height="544"
    cap-height="745"
    bbox="-177 -376 1407 1207"
    underline-thickness="40"
    underline-position="-215"
    unicode-range="U+000D-FB02"
  />
<missing-glyph horiz-adv-x="600" 
d="M492 -240h-380v1200h380v-1200zM400 -157v39h-123l84 57h39v39h-200v-39h84l-84 -57v-39h200zM400 6v136h-200v-136h200zM400 214v135h-120v-67h40v28h40v-57h-120v96h-40v-135h200zM400 376v120h-40v-80h-160v-40h200zM320 444v84h80v40h-200v-40h80v-44h-80v-40h120z
M400 600v41h-80v84h-120v-125h200zM400 756v40h-80v44h80v40h-198v-40h78v-44h-80v-40h200zM240 102h120v-56h-120v56zM240 684h40v-43h-40v43z" />
    <glyph glyph-name="fi" unicode="fi" horiz-adv-x="624" 
d="M124 427h-96v117h96v18q0 92 55.5 143.5t150.5 51.5q28 0 51 -5v-113q-18 3 -34 3q-92 0 -92 -80v-18h321v-544h-131v427h-190v-427h-131v427z" />
    <glyph glyph-name="fl" unicode="fl" horiz-adv-x="658" 
d="M124 427h-96v117h96v18q0 92 55.5 143.5t150.5 51.5q28 0 51 -5v-113q-18 3 -34 3q-92 0 -92 -80v-18h212v213h131v-757h-131v427h-212v-427h-131v427z" />
    <glyph glyph-name="f_f" unicode="ff" horiz-adv-x="802" 
d="M124 427h-96v117h96v18q0 92 55.5 143.5t150.5 51.5q28 0 51 -5v-113q-18 3 -34 3q-92 0 -92 -80v-18h238v-11h27v18q0 100 55.5 157.5t150.5 57.5q28 0 51 -5v-113q-18 3 -34 3q-92 0 -92 -100v-18h121v-116h-121v-417h-131v417h-96v10h-169v-427h-131v427z" />
    <glyph glyph-name="f_f_i" unicode="ffi" horiz-adv-x="1030" 
d="M124 427h-96v117h96v18q0 92 55.5 143.5t150.5 51.5q28 0 51 -5v-113q-18 3 -34 3q-92 0 -92 -80v-18h275v18q0 92 55.5 143.5t150.5 51.5q28 0 51 -5v-113q-18 3 -34 3q-92 0 -92 -80v-18h321v-544h-132v427h-189v-427h-131v427h-275v-427h-131v427z" />
    <glyph glyph-name="f_f_l" unicode="ffl" horiz-adv-x="1064" 
d="M124 427h-96v117h96v18q0 92 55.5 143.5t150.5 51.5q28 0 51 -5v-113q-18 3 -34 3q-92 0 -92 -80v-18h275v18q0 92 55.5 143.5t150.5 51.5q28 0 51 -5v-113q-18 3 -34 3q-92 0 -92 -80v-18h211v213h132v-757h-132v427h-211v-427h-131v427h-275v-427h-131v427z" />
    <glyph glyph-name=".notdef" horiz-adv-x="600" 
d="M492 -240h-380v1200h380v-1200zM400 -157v39h-123l84 57h39v39h-200v-39h84l-84 -57v-39h200zM400 6v136h-200v-136h200zM400 214v135h-120v-67h40v28h40v-57h-120v96h-40v-135h200zM400 376v120h-40v-80h-160v-40h200zM320 444v84h80v40h-200v-40h80v-44h-80v-40h120z
M400 600v41h-80v84h-120v-125h200zM400 756v40h-80v44h80v40h-198v-40h78v-44h-80v-40h200zM240 102h120v-56h-120v56zM240 684h40v-43h-40v43z" />
    <glyph glyph-name=".null" horiz-adv-x="0" 
 />
    <glyph glyph-name="nonmarkingreturn" unicode="&#xd;" horiz-adv-x="178" 
 />
    <glyph glyph-name="space" unicode=" " horiz-adv-x="178" 
 />
    <glyph glyph-name="exclam" unicode="!" horiz-adv-x="371" 
d="M119 745h133l-9 -519h-115zM128 138q23 23 57 23q35 0 58 -23t23 -57q0 -35 -23 -58t-58 -23q-34 0 -57 23.5t-23 57.5t23 57z" />
    <glyph glyph-name="quotedbl" unicode="&#x22;" horiz-adv-x="498" 
d="M96 745h118l-16 -283h-85zM401 745l-16 -283h-85l-17 283h118z" />
    <glyph glyph-name="numbersign" unicode="#" horiz-adv-x="915" 
d="M182 164h-120v115h153l55 188h-120v115h152l47 163h133l-47 -163h165l46 163h133l-47 -163h120v-115h-153l-54 -188h120v-115h-153l-47 -164h-132l46 164h-164l-47 -164h-133zM513 279l53 188h-164l-54 -188h165z" />
    <glyph glyph-name="dollar" unicode="$" horiz-adv-x="647" 
d="M290 -9q-90 13 -157.5 67.5t-93.5 136.5l113 49q21 -50 56.5 -83t81.5 -46v202l-48 15q-86 28 -130.5 81t-44.5 127q0 59 28 106.5t78.5 76t116.5 33.5v89h85v-93q79 -13 137 -61t84 -120l-112 -50q-16 40 -44 67.5t-65 40.5v-203l44 -14q178 -57 178 -206
q0 -58 -27.5 -104.5t-78 -76t-116.5 -35.5v-90h-85v91zM221.5 491.5q20.5 -23.5 60.5 -36.5l8 -3v184q-41 -6 -65 -30t-24 -60q0 -31 20.5 -54.5zM439.5 139.5q23.5 23.5 23.5 58.5q0 33 -19 54t-59 34l-10 3v-180q41 7 64.5 30.5z" />
    <glyph glyph-name="percent" unicode="%" horiz-adv-x="1046" 
d="M757 745h140l-604 -745h-140zM99 660q26 45 71 71t100 26q54 0 98.5 -26t70.5 -71t26 -98t-26 -98t-70.5 -71t-98.5 -26q-55 0 -100 26t-71 71t-26 98t26 98zM203.5 496q25.5 -28 66.5 -28t65.5 28t24.5 66t-24.5 66.5t-65.5 28.5t-66.5 -28.5t-25.5 -66.5t25.5 -66z
M607 281q26 45 71 71t99 26t99 -26t71 -71t26 -98t-26 -98t-71 -71t-99 -26t-99 26t-71 71t-26 98t26 98zM711 117q25 -28 66 -28t66 28t25 66t-25 66.5t-66 28.5t-66 -28.5t-25 -66.5t25 -66z" />
    <glyph glyph-name="ampersand" unicode="&#x26;" horiz-adv-x="793" 
d="M187 13q-53 25 -82 71t-29 106q0 129 136 209q-32 39 -50.5 79t-18.5 87q0 57 27.5 100.5t73 67.5t99.5 24t99.5 -24t71.5 -66.5t26 -95.5q0 -69 -40.5 -114.5t-102.5 -82.5l101 -113l72 104h137l-126 -196l151 -169h-157l-66 72q-82 -84 -201 -84q-68 0 -121 25z
M240.5 124.5q26.5 -24.5 72.5 -24.5q66 0 115 61l-137 150q-77 -50 -77 -119q0 -43 26.5 -67.5zM322 458q47 25 72.5 51.5t25.5 62.5q0 33 -21.5 55.5t-54.5 22.5t-55 -22.5t-22 -56.5q0 -52 55 -113z" />
    <glyph glyph-name="quotesingle" unicode="'" horiz-adv-x="311" 
d="M96 745h118l-16 -283h-85z" />
    <glyph glyph-name="parenleft" unicode="(" horiz-adv-x="379" 
d="M64 288q0 263 169 457h110q-143 -213 -143 -457t143 -458h-110q-169 196 -169 458z" />
    <glyph glyph-name="parenright" unicode=")" horiz-adv-x="379" 
d="M179 288q0 243 -142 457h110q168 -195 168 -457q0 -263 -168 -458h-110q142 215 142 458z" />
    <glyph glyph-name="asterisk" unicode="*" horiz-adv-x="540" 
d="M116 423l73 99l-115 39l31 94l115 -38v128h100v-128l115 38l31 -94l-115 -39l73 -99l-81 -59l-73 99l-74 -99z" />
    <glyph glyph-name="plus" unicode="+" horiz-adv-x="660" 
d="M274 194h-194v113h194v193h113v-193h193v-113h-193v-194h-113v194z" />
    <glyph glyph-name="comma" unicode="," horiz-adv-x="357" 
d="M184 0q-27 0 -44.5 19t-17.5 48t19 48.5t48 19.5q30 0 48.5 -19.5t18.5 -60.5q0 -88 -39 -141.5t-114 -69.5v63q69 17 81 93z" />
    <glyph glyph-name="hyphen" unicode="-" horiz-adv-x="600" 
d="M88 329h425v-115h-425v115z" />
    <glyph glyph-name="period" unicode="." horiz-adv-x="378" 
d="M136.5 21.5q-21.5 21.5 -21.5 53.5q0 31 21.5 52.5t53.5 21.5q31 0 52 -21t21 -53t-20.5 -53.5t-52.5 -21.5t-53.5 21.5z" />
    <glyph glyph-name="slash" unicode="/" horiz-adv-x="506" 
d="M348 785h143l-332 -825h-143z" />
    <glyph glyph-name="zero" unicode="0" horiz-adv-x="708" 
d="M198.5 36q-67.5 48 -105 135.5t-37.5 201.5t37.5 201t104.5 135t155 48q89 0 157 -48t105.5 -135t37.5 -201t-37.5 -201.5t-105 -135.5t-156.5 -48q-88 0 -155.5 48zM235 182q43 -70 119 -70t119.5 69.5t43.5 191.5q0 121 -43.5 190.5t-120.5 69.5q-76 0 -118.5 -69
t-42.5 -191q0 -121 43 -191z" />
    <glyph glyph-name="one" unicode="1" horiz-adv-x="403" 
d="M173 629h-144v116h280v-745h-136v629z" />
    <glyph glyph-name="two" unicode="2" horiz-adv-x="597" 
d="M46 103l202 211q65 68 95 103.5t43 62t13 54.5q0 46 -29 73.5t-76 27.5q-49 0 -83.5 -27.5t-50.5 -80.5l-119 37q12 58 48.5 101.5t90.5 67.5t114 24q71 0 126 -26.5t85.5 -74t30.5 -108.5q0 -60 -32.5 -116.5t-105.5 -132.5l-175 -184h323v-115h-500v103z" />
    <glyph glyph-name="three" unicode="3" horiz-adv-x="611" 
d="M177.5 11q-54.5 23 -93 65t-52.5 97l119 42q18 -50 55 -77t87 -27q60 0 96.5 34t36.5 92q0 57 -36.5 90.5t-97.5 33.5q-42 0 -76 -16l-31 65l193 220h-304v115h457v-107l-153 -179q84 -13 134 -71.5t50 -146.5q0 -71 -35 -129t-96.5 -91t-137.5 -33q-61 0 -115.5 23z" />
    <glyph glyph-name="four" unicode="4" horiz-adv-x="654" 
d="M378 164h-342v114l334 467h142v-467h109v-114h-109v-164h-134v164zM378 278v299l-208 -299h208z" />
    <glyph glyph-name="five" unicode="5" horiz-adv-x="615" 
d="M184 10q-54 22 -92 63t-52 96l118 42q17 -49 54 -74.5t85 -25.5q57 0 93 36.5t36 94.5t-36 94t-93 36q-40 0 -71 -17.5t-45 -48.5l-111 25l59 414h406v-115h-309l-23 -171q45 29 117 29t127.5 -31.5t85.5 -87.5t30 -127q0 -72 -34.5 -130t-95.5 -91t-136 -33
q-59 0 -113 22z" />
    <glyph glyph-name="six" unicode="6" horiz-adv-x="602" 
d="M168 20q-59 32 -92 88.5t-33 126.5q0 59 20 113.5t75 126.5l208 270h162l-213 -273q20 2 30 2q67 0 120.5 -31t84 -84.5t30.5 -120.5q0 -71 -33 -128t-92 -89.5t-133 -32.5q-75 0 -134 32zM214.5 146q35.5 -35 87.5 -35t87 35t35 90t-35 90t-87 35t-87.5 -35t-35.5 -90
t35.5 -90z" />
    <glyph glyph-name="seven" unicode="7" horiz-adv-x="559" 
d="M382 631h-351v115h494v-115l-303 -631h-150z" />
    <glyph glyph-name="eight" unicode="8" horiz-adv-x="632" 
d="M177 18.5q-60 30.5 -93 82t-33 114.5q0 61 28.5 107t82.5 74q-38 23 -59.5 65.5t-21.5 92.5q0 58 30 104t83.5 72.5t121.5 26.5q67 0 120.5 -26t83.5 -72.5t30 -104.5q0 -49 -21 -91t-59 -67q54 -29 82.5 -75t28.5 -107q0 -62 -33 -113.5t-93.5 -82t-138.5 -30.5
q-79 0 -139 30.5zM223 135q35 -32 93 -32t93.5 32t35.5 84t-35.5 83.5t-93.5 31.5t-93 -31.5t-35 -83.5t35 -84zM244.5 476.5q27.5 -27.5 71.5 -27.5q43 0 70.5 27.5t27.5 69.5t-27.5 69t-70.5 27q-44 0 -71.5 -27t-27.5 -69t27.5 -69.5z" />
    <glyph glyph-name="nine" unicode="9" horiz-adv-x="602" 
d="M306 273q-18 -2 -29 -2q-67 0 -120.5 31t-84 85t-30.5 121q0 71 33 128t92.5 89t133.5 32t133 -32t92.5 -88.5t33.5 -126.5q0 -59 -20 -113.5t-75 -126.5l-208 -270h-163zM213 419.5q35 -34.5 88 -34.5q52 0 87 34.5t35 89.5t-35 90.5t-87 35.5t-87.5 -35.5t-35.5 -90.5
t35 -89.5z" />
    <glyph glyph-name="colon" unicode=":" horiz-adv-x="378" 
d="M136 22q-22 22 -22 54q0 31 22 52.5t54 21.5t53 -21t21 -53q0 -33 -21 -54.5t-53 -21.5t-54 22zM136 522.5q22 21.5 54 21.5t53 -21.5t21 -53.5q0 -33 -21 -54.5t-53 -21.5t-54 22t-22 54t22 53.5z" />
    <glyph glyph-name="semicolon" unicode=";" horiz-adv-x="398" 
d="M156.5 415q-21.5 22 -21.5 54t21.5 53.5t53.5 21.5t53.5 -21.5t21.5 -53.5q0 -33 -21 -54.5t-54 -21.5q-32 0 -53.5 22zM115 -93q71 17 81 93q-26 0 -44 19.5t-18 47.5q0 29 19.5 48.5t48.5 19.5q30 0 48.5 -19.5t18.5 -60.5q0 -88 -39 -141.5t-115 -69.5v63z" />
    <glyph glyph-name="less" unicode="&#x3c;" horiz-adv-x="666" 
d="M104 208v128l458 196v-134l-297 -126l297 -126v-133z" />
    <glyph glyph-name="equal" unicode="=" horiz-adv-x="712" 
d="M131 414h450v-113h-450v113zM131 171h450v-112h-450v112z" />
    <glyph glyph-name="greater" unicode="&#x3e;" horiz-adv-x="644" 
d="M104 146l297 126l-297 126v134l458 -196v-128l-458 -195v133z" />
    <glyph glyph-name="question" unicode="?" horiz-adv-x="583" 
d="M235.5 347.5q24.5 42.5 67.5 85.5l16 15q34 34 49 55.5t15 49.5q0 35 -25.5 58.5t-70.5 23.5q-42 0 -72.5 -26t-37.5 -69l-122 30q13 84 77.5 135.5t157.5 51.5q71 0 123 -28.5t79.5 -74.5t27.5 -98q0 -37 -14.5 -67.5t-33 -51.5t-56.5 -59q-39 -37 -59.5 -68.5
t-20.5 -71.5v-12h-125v20q0 59 24.5 101.5zM222 127q21 21 53 21t53 -21t21 -52q0 -32 -21 -53.5t-53 -21.5t-53 21.5t-21 53.5q0 31 21 52z" />
    <glyph glyph-name="at" unicode="@" horiz-adv-x="927" 
d="M261 -43.5q-99 54.5 -155 152t-56 221.5t56.5 221t155 151.5t221.5 54.5t218.5 -54.5t148 -151.5t52.5 -220q0 -97 -48.5 -153.5t-128.5 -56.5q-40 0 -75.5 16t-54.5 49q-18 -30 -58.5 -47.5t-85.5 -17.5q-57 0 -105.5 27.5t-76.5 76.5t-28 109t28 110t77 80t109 30
q42 0 77 -14t53 -38v42h91v-254q0 -35 14 -54t38 -19q33 0 49 28t16 90q0 93 -36.5 166t-106 114.5t-166.5 41.5q-96 0 -170 -42t-115 -116t-41 -168q0 -95 42 -170t116.5 -117t167.5 -42q96 0 170 47l46 -88q-94 -59 -216 -59q-124 0 -223 54.5zM378.5 251
q33.5 -34 83.5 -34t82.5 34.5t32.5 85.5q0 52 -33.5 85.5t-84.5 33.5q-49 0 -81.5 -33.5t-32.5 -85.5t33.5 -86z" />
    <glyph glyph-name="A" unicode="A" horiz-adv-x="712" 
d="M268 745h176l257 -745h-148l-53 160h-288l-54 -160h-147zM461 280l-105 314l-105 -314h210z" />
    <glyph glyph-name="B" unicode="B" horiz-adv-x="691" 
d="M72 745h314q110 0 173 -56t63 -154q0 -80 -60 -134q90 -58 90 -173q0 -107 -70.5 -167.5t-195.5 -60.5h-314v745zM400 120q52 0 84 29.5t32 78.5t-31.5 79t-84.5 30h-192v-217h192zM393 456q42 0 67 24.5t25 63.5t-25 62t-67 23h-185v-173h185z" />
    <glyph glyph-name="C" unicode="C" horiz-adv-x="774" 
d="M232 38q-85 50 -133.5 138t-48.5 197t48.5 197t133 137.5t190.5 49.5q77 0 141 -26.5t108.5 -71t64.5 -98.5l-122 -57q-22 58 -73 93.5t-119 35.5q-69 0 -123 -32.5t-83.5 -91.5t-29.5 -136t29.5 -136.5t83.5 -92t123 -32.5q68 0 119 35.5t73 93.5l122 -57
q-20 -54 -64.5 -98.5t-108.5 -71t-141 -26.5q-105 0 -190 50z" />
    <glyph glyph-name="D" unicode="D" horiz-adv-x="740" 
d="M72 745h243q117 0 205 -47t136 -131.5t48 -193.5q0 -108 -48 -193t-136.5 -132.5t-204.5 -47.5h-243v745zM318 120q75 0 131.5 31t87 88.5t30.5 133.5t-30.5 133t-87 88t-131.5 31h-110v-505h110z" />
    <glyph glyph-name="E" unicode="E" horiz-adv-x="595" 
d="M72 745h495v-120h-359v-191h339v-120h-339v-194h359v-120h-495v745z" />
    <glyph glyph-name="F" unicode="F" horiz-adv-x="586" 
d="M72 745h497v-120h-361v-206h316v-120h-316v-299h-136v745z" />
    <glyph glyph-name="G" unicode="G" horiz-adv-x="808" 
d="M234 38q-86 50 -135 138t-49 197t48.5 197t133 137.5t190.5 49.5q77 0 141 -26.5t108.5 -71t64.5 -98.5l-121 -58q-22 59 -72.5 94.5t-120.5 35.5q-69 0 -123 -32.5t-83.5 -91.5t-29.5 -136t30.5 -136.5t85 -92t123.5 -32.5q57 0 105.5 23t77 65t28.5 97v3h-214v115h350
v-75q0 -111 -48.5 -190.5t-128 -120.5t-170.5 -41q-105 0 -191 50z" />
    <glyph glyph-name="H" unicode="H" horiz-adv-x="733" 
d="M72 745h136v-325h317v325h137v-745h-137v300h-317v-300h-136v745z" />
    <glyph glyph-name="I" unicode="I" horiz-adv-x="279" 
d="M72 745h136v-745h-136v745z" />
    <glyph glyph-name="J" unicode="J" horiz-adv-x="393" 
d="M39 125h43q48 0 76.5 27.5t28.5 73.5v519h137v-514q0 -69 -29.5 -121.5t-84.5 -81t-128 -28.5h-43v125z" />
    <glyph glyph-name="K" unicode="K" horiz-adv-x="679" 
d="M72 745h136v-331l280 331h171l-258 -306l267 -439h-160l-200 328l-100 -119v-209h-136v745z" />
    <glyph glyph-name="L" unicode="L" horiz-adv-x="543" 
d="M72 745h136v-625h319v-120h-455v745z" />
    <glyph glyph-name="M" unicode="M" horiz-adv-x="893" 
d="M72 745h130l248 -336l242 336h130v-745h-137v506l-230 -306h-16l-231 316v-516h-136v745z" />
    <glyph glyph-name="N" unicode="N" horiz-adv-x="741" 
d="M72 745h106l355 -478v478h136v-745h-107l-354 487v-487h-136v745z" />
    <glyph glyph-name="O" unicode="O" horiz-adv-x="878" 
d="M241 38.5q-89 50.5 -140 138.5t-51 196t51 196t140 138t198 50t198 -50t140.5 -138t51.5 -196t-51.5 -196t-140.5 -138.5t-198 -50.5t-198 50.5zM219 239q33 -60 90.5 -93.5t129.5 -33.5t129.5 33.5t90.5 93.5t33 134t-33 133.5t-90.5 93t-129.5 33.5t-129.5 -33.5
t-90.5 -93t-33 -133.5t33 -134z" />
    <glyph glyph-name="P" unicode="P" horiz-adv-x="648" 
d="M72 745h278q76 0 135 -27.5t91.5 -80.5t32.5 -127q0 -73 -33 -126t-91.5 -81t-134.5 -28h-142v-275h-136v745zM352 395q55 0 88 31.5t33 83.5t-33 83.5t-88 31.5h-144v-230h144z" />
    <glyph glyph-name="Q" unicode="Q" horiz-adv-x="878" 
d="M250.5 37q-93.5 49 -147 137t-53.5 199q0 108 51 196t140 138t198 50t198 -50t140.5 -138t51.5 -196q0 -74 -23 -139.5t-66 -116.5l86 -95l-100 -84l-86 95q-82 -45 -182 -45q-114 0 -207.5 49zM219 239q33 -60 90.5 -93.5t129.5 -33.5q58 0 109 23l-137 151l101 83
l135 -149q45 65 45 153q0 74 -33 133.5t-90.5 93t-129.5 33.5t-129.5 -33.5t-90.5 -93t-33 -133.5t33 -134z" />
    <glyph glyph-name="R" unicode="R" horiz-adv-x="661" 
d="M72 745h277q76 0 135 -27.5t91.5 -80.5t32.5 -127q0 -76 -36 -130.5t-99 -80.5l171 -299h-154l-154 275h-128v-275h-136v745zM351 395q55 0 88 31.5t33 83.5t-33 83.5t-88 31.5h-143v-230h143z" />
    <glyph glyph-name="S" unicode="S" horiz-adv-x="647" 
d="M185.5 21q-64.5 33 -100.5 83.5t-46 105.5l128 34q15 -61 60 -95t113 -34q52 0 84.5 26t32.5 62q0 33 -23.5 57.5t-63.5 32.5l-112 22q-89 17 -140 77t-51 146q0 60 34.5 110.5t92 79.5t122.5 29q83 0 141 -28t90.5 -70.5t43.5 -89.5l-127 -40q-21 54 -57 77.5t-91 23.5
q-31 0 -55.5 -13t-38 -33.5t-13.5 -41.5q0 -33 22 -57.5t61 -31.5l106 -23q97 -21 150 -79.5t53 -139.5q0 -58 -32 -109t-91.5 -82.5t-139.5 -31.5q-88 0 -152.5 33z" />
    <glyph glyph-name="T" unicode="T" horiz-adv-x="542" 
d="M204 625h-193v120h520v-120h-190v-625h-137v625z" />
    <glyph glyph-name="U" unicode="U" horiz-adv-x="718" 
d="M207 24q-67 36 -105 99.5t-38 142.5v479h136v-472q0 -71 44.5 -116t114.5 -45t114.5 45t44.5 116v472h136v-479q0 -79 -38 -142.5t-105 -99.5t-152 -36t-152 36z" />
    <glyph glyph-name="V" unicode="V" horiz-adv-x="697" 
d="M11 745h148l190 -573l189 573h148l-259 -745h-156z" />
    <glyph glyph-name="W" unicode="W" horiz-adv-x="1020" 
d="M11 745h146l138 -560l145 560h141l144 -560l138 560h146l-200 -745h-156l-143 536l-143 -536h-156z" />
    <glyph glyph-name="X" unicode="X" horiz-adv-x="661" 
d="M255 375l-242 370h156l162 -248l161 248h156l-241 -370l243 -375h-156l-163 252l-164 -252h-156z" />
    <glyph glyph-name="Y" unicode="Y" horiz-adv-x="660" 
d="M262 330l-251 415h155l164 -277l164 277h155l-250 -414v-331h-137v330z" />
    <glyph glyph-name="Z" unicode="Z" horiz-adv-x="571" 
d="M14 107l361 518h-340v120h513v-107l-360 -518h370v-120h-544v107z" />
    <glyph glyph-name="bracketleft" unicode="[" horiz-adv-x="416" 
d="M105 745h260v-115h-128v-685h128v-115h-260v915z" />
    <glyph glyph-name="backslash" unicode="\" horiz-adv-x="506" 
d="M16 785h143l332 -825h-143z" />
    <glyph glyph-name="bracketright" unicode="]" horiz-adv-x="416" 
d="M51 -55h128v685h-128v115h260v-915h-260v115z" />
    <glyph glyph-name="asciicircum" unicode="^" horiz-adv-x="604" 
d="M240 745h125l170 -325h-145l-88 168l-88 -168h-145z" />
    <glyph glyph-name="underscore" unicode="_" horiz-adv-x="663" 
d="M88 0h487v-115h-487v115z" />
    <glyph glyph-name="grave" unicode="`" horiz-adv-x="455" 
d="M123 784h147l63 -144h-115z" />
    <glyph glyph-name="a" unicode="a" horiz-adv-x="580" 
d="M89.5 30q-50.5 42 -50.5 114q0 69 47 114t141 60l162 26v18q0 36 -27.5 59t-72.5 23q-42 0 -74.5 -22.5t-47.5 -59.5l-107 52q24 64 88 103t146 39q66 0 117.5 -24.5t80 -69t28.5 -100.5v-362h-124v58q-64 -70 -170 -70q-86 0 -136.5 42zM196 104.5q21 -16.5 54 -16.5
q61 0 100 38.5t39 95.5v22l-137 -23q-39 -8 -58 -25.5t-19 -46.5q0 -28 21 -44.5z" />
    <glyph glyph-name="b" unicode="b" horiz-adv-x="672" 
d="M259.5 7q-45.5 19 -75.5 54v-61h-123v757h131v-268q29 32 72 49.5t95 17.5q76 0 139 -37.5t99 -102.5t36 -144t-36 -144t-98.5 -102.5t-140.5 -37.5q-53 0 -98.5 19zM211.5 187.5q19.5 -37.5 54 -58.5t77.5 -21q67 0 110.5 46.5t43.5 117.5q0 46 -20 83.5t-55 59
t-79 21.5q-43 0 -77.5 -21t-54 -58.5t-19.5 -84.5t19.5 -84.5z" />
    <glyph glyph-name="c" unicode="c" horiz-adv-x="608" 
d="M177.5 25.5q-65.5 37.5 -102.5 102.5t-37 145t37 144.5t102 101.5t146 37q87 0 155 -44.5t93 -116.5l-114 -50q-16 42 -52 66.5t-82 24.5q-42 0 -76 -21t-53.5 -58.5t-19.5 -84.5t19.5 -84.5t53.5 -58.5t76 -21q47 0 82.5 24.5t51.5 67.5l114 -52q-24 -71 -92.5 -115.5
t-155.5 -44.5q-80 0 -145.5 37.5z" />
    <glyph glyph-name="d" unicode="d" horiz-adv-x="672" 
d="M173.5 25.5q-62.5 37.5 -98.5 102.5t-36 144t36 144t99 102.5t139 37.5q52 0 95 -17.5t72 -49.5v268h131v-757h-124v60q-30 -35 -75 -53.5t-98 -18.5q-78 0 -140.5 37.5zM194.5 187.5q19.5 -37.5 54.5 -58.5t79 -21t78.5 21t54 58.5t19.5 84.5t-19.5 84.5t-54.5 58.5
t-78 21q-44 0 -79 -21.5t-54.5 -59t-19.5 -83.5q0 -47 19.5 -84.5z" />
    <glyph glyph-name="e" unicode="e" horiz-adv-x="612" 
d="M173.5 26q-63.5 38 -99 103t-35.5 144q0 80 35.5 144.5t97 101.5t137.5 37q82 0 142 -35.5t91.5 -96.5t31.5 -134q0 -34 -7 -55h-392q6 -60 46 -96t99 -36q44 0 75.5 18.5t50.5 51.5l106 -52q-25 -60 -88 -96.5t-145 -36.5t-145.5 38zM434 335q-5 50 -39 81.5t-86 31.5
q-50 0 -85 -29.5t-46 -83.5h256z" />
    <glyph glyph-name="f" unicode="f" horiz-adv-x="406" 
d="M124 417h-96v116h96v18q0 100 55.5 157.5t150.5 57.5q28 0 51 -5v-113q-18 3 -34 3q-92 0 -92 -100v-18h121v-116h-121v-417h-131v417z" />
    <glyph glyph-name="g" unicode="g" horiz-adv-x="652" 
d="M163.5 -176.5q-69.5 43.5 -95.5 115.5l122 46q12 -39 48 -62t87 -23q60 0 97.5 34t37.5 93v59q-58 -64 -157 -64q-75 0 -135.5 35t-94.5 96t-34 137t33.5 136.5t93.5 95t134 34.5q105 0 167 -74v62h124v-517q0 -71 -34 -127.5t-94.5 -88t-137.5 -31.5q-92 0 -161.5 43.5z
M215.5 184.5q40.5 -41.5 103.5 -41.5q62 0 101.5 41t39.5 105t-40 105.5t-101 41.5q-62 0 -103 -42t-41 -105t40.5 -104.5z" />
    <glyph glyph-name="h" unicode="h" 
d="M61 757h131v-267q23 32 61 49t85 17q59 0 106 -26t73 -73t26 -107v-350h-131v319q0 53 -30.5 85t-79.5 32q-48 0 -79 -32t-31 -85v-319h-131v757z" />
    <glyph glyph-name="i" unicode="i" horiz-adv-x="252" 
d="M61 544h131v-544h-131v544zM71 750q20 20 55 20q36 0 56 -20t20 -56q0 -35 -19.5 -55t-56.5 -20q-35 0 -55 20t-20 55q0 36 20 56z" />
    <glyph glyph-name="j" unicode="j" horiz-adv-x="252" 
d="M-65 -217v113q18 -3 36 -3q43 0 66.5 20t23.5 59v572h131v-572q0 -92 -55 -143t-151 -51q-29 0 -51 5zM71 750q20 20 55 20q36 0 56 -20t20 -56q0 -35 -19.5 -55t-56.5 -20q-35 0 -55 20t-20 55q0 36 20 56z" />
    <glyph glyph-name="k" unicode="k" horiz-adv-x="577" 
d="M61 757h131v-429l206 216h163l-201 -219l205 -325h-150l-153 242l-70 -76v-166h-131v757z" />
    <glyph glyph-name="l" unicode="l" horiz-adv-x="252" 
d="M61 757h131v-757h-131v757z" />
    <glyph glyph-name="m" unicode="m" horiz-adv-x="924" 
d="M61 544h123v-68q21 39 60.5 59.5t91.5 20.5q54 0 99 -23.5t69 -64.5q27 44 70.5 66t98.5 22q57 0 103 -26t72 -73t26 -107v-350h-131v319q0 54 -28.5 85.5t-76.5 31.5q-47 0 -76 -32t-29 -85v-319h-131v319q0 54 -28.5 85.5t-76.5 31.5q-47 0 -76 -32t-29 -85v-319h-131
v544z" />
    <glyph glyph-name="n" unicode="n" 
d="M61 544h123v-67q21 38 61.5 58.5t92.5 20.5q59 0 106 -26t73 -73t26 -107v-350h-131v319q0 53 -30.5 85t-79.5 32t-79.5 -32t-30.5 -85v-319h-131v544z" />
    <glyph glyph-name="o" unicode="o" horiz-adv-x="652" 
d="M182 25q-66 37 -104.5 102t-38.5 145t38 145t104 102t146 37q79 0 144.5 -37t104 -102t38.5 -145q0 -81 -38.5 -146t-104.5 -101.5t-144 -36.5q-79 0 -145 37zM217.5 154.5q42.5 -46.5 109.5 -46.5q43 0 77 21t53.5 58.5t19.5 84.5q0 46 -19.5 83.5t-53.5 59t-77 21.5
q-44 0 -78.5 -21.5t-54 -58.5t-19.5 -84q0 -71 42.5 -117.5z" />
    <glyph glyph-name="p" unicode="p" horiz-adv-x="672" 
d="M61 544h123v-64q30 36 74.5 56t100.5 20q76 0 139 -37.5t99 -102.5t36 -144t-36 -144t-98.5 -102.5t-140.5 -37.5q-50 0 -93 16.5t-73 47.5v-252h-131v744zM211.5 187.5q19.5 -37.5 54 -58.5t77.5 -21q67 0 110.5 46.5t43.5 117.5q0 46 -20 83.5t-55 59t-79 21.5
q-43 0 -77.5 -21t-54 -58.5t-19.5 -84.5t19.5 -84.5z" />
    <glyph glyph-name="q" unicode="q" horiz-adv-x="672" 
d="M480 52q-30 -31 -73 -47.5t-93 -16.5q-78 0 -140.5 37.5t-98.5 102.5t-36 144t36 144t99 102.5t139 37.5q55 0 100 -19.5t74 -55.5v63h124v-744h-131v252zM194.5 187.5q19.5 -37.5 54.5 -58.5t79 -21t78.5 21t54 58.5t19.5 84.5t-19.5 84.5t-54.5 58.5t-78 21
q-44 0 -79 -21.5t-54.5 -59t-19.5 -83.5q0 -47 19.5 -84.5z" />
    <glyph glyph-name="r" unicode="r" horiz-adv-x="374" 
d="M61 544h123v-76q20 44 57 63t90 19h32v-116h-47q-56 0 -90 -35t-34 -96v-303h-131v544z" />
    <glyph glyph-name="s" unicode="s" horiz-adv-x="514" 
d="M120.5 28q-62.5 39 -88.5 107l97 50q22 -44 58.5 -68.5t80.5 -24.5q38 0 59.5 15.5t21.5 42.5q0 23 -18 38.5t-47 20.5l-89 15q-69 18 -106.5 61.5t-37.5 102.5q0 49 26 87.5t72.5 59.5t105.5 21q75 0 132 -35.5t83 -98.5l-97 -50q-16 35 -49 56t-73 21q-33 0 -52.5 -15
t-19.5 -39q0 -44 66 -59l87 -16q69 -19 107 -62t38 -102q0 -49 -26.5 -87t-74.5 -59t-111 -21q-82 0 -144.5 39z" />
    <glyph glyph-name="t" unicode="t" horiz-adv-x="413" 
d="M166.5 44.5q-50.5 50.5 -50.5 142.5v240h-94v117h10q40 0 62 21t22 61v42h131v-124h125v-117h-125v-233q0 -85 92 -85q16 0 35 3v-113q-32 -5 -65 -5q-92 0 -142.5 50.5z" />
    <glyph glyph-name="u" unicode="u" 
d="M105 49q-55 61 -55 162v333h131v-322q0 -51 30.5 -82.5t79.5 -31.5t79.5 32t30.5 85v319h131v-544h-124v65q-22 -38 -61.5 -57.5t-91.5 -19.5q-95 0 -150 61z" />
    <glyph glyph-name="v" unicode="v" horiz-adv-x="566" 
d="M11 544h143l129 -355l129 355h143l-214 -544h-116z" />
    <glyph glyph-name="w" unicode="w" horiz-adv-x="883" 
d="M11 544h138l114 -343l121 343h116l120 -342l114 342h138l-187 -544h-117l-126 367l-128 -367h-116z" />
    <glyph glyph-name="x" unicode="x" horiz-adv-x="558" 
d="M202 273l-191 271h154l115 -169l114 169h153l-190 -271l189 -273h-153l-113 169l-114 -169h-154z" />
    <glyph glyph-name="y" unicode="y" horiz-adv-x="586" 
d="M223 8l-212 536h141l141 -375l140 375h142l-294 -744h-141z" />
    <glyph glyph-name="z" unicode="z" horiz-adv-x="481" 
d="M14 106l277 321h-263v117h438v-107l-272 -321h274v-116h-454v106z" />
    <glyph glyph-name="braceleft" unicode="{" horiz-adv-x="398" 
d="M170.5 -127.5q-46.5 42.5 -46.5 117.5v176q0 28 -13.5 43.5t-38.5 15.5h-31v115h31q25 0 38.5 15.5t13.5 43.5v186q0 75 46.5 117.5t130.5 42.5h46v-115h-46q-21 0 -33 -13t-11 -35v-172q0 -40 -15.5 -73t-44.5 -53q29 -18 44.5 -49.5t15.5 -70.5v-171q-1 -22 11 -35
t33 -13h46v-115h-46q-84 0 -130.5 42.5z" />
    <glyph glyph-name="bar" unicode="|" horiz-adv-x="395" 
d="M131 845h133v-1035h-133v1035z" />
    <glyph glyph-name="braceright" unicode="}" horiz-adv-x="398" 
d="M51 -55h46q21 0 33 13t12 35v171q-1 39 14.5 70.5t44.5 49.5q-29 20 -44.5 53t-14.5 73v172q0 22 -12 35t-33 13h-46v115h46q84 0 130.5 -42.5t46.5 -117.5v-186q0 -28 13.5 -43.5t38.5 -15.5h31v-115h-31q-25 0 -38.5 -15.5t-13.5 -43.5v-176q0 -75 -46.5 -117.5
t-130.5 -42.5h-46v115z" />
    <glyph glyph-name="asciitilde" unicode="~" horiz-adv-x="695" 
d="M387 200q-23 10 -53 29q-21 14 -34.5 20.5t-30.5 6.5q-24 0 -38.5 -15.5t-18.5 -45.5h-107q5 83 43.5 126.5t105.5 43.5q34 0 57 -10t53 -29q20 -13 34 -19.5t30 -6.5q22 0 36 14.5t20 46.5h106q-6 -84 -43 -127.5t-103 -43.5q-34 0 -57 10z" />
    <glyph glyph-name="uni00A0" unicode="&#xa0;" horiz-adv-x="178" 
 />
    <glyph glyph-name="exclamdown" unicode="&#xa1;" horiz-adv-x="371" 
d="M128 318h115l9 -520h-133zM132.5 523q21.5 21 52.5 21q32 0 53.5 -21t21.5 -53t-21.5 -53t-53.5 -21q-31 0 -52.5 21.5t-21.5 52.5q0 32 21.5 53z" />
    <glyph glyph-name="cent" unicode="&#xa2;" horiz-adv-x="608" 
d="M278 92q-69 10 -123.5 49.5t-85 100t-30.5 132.5t30.5 132.5t85 99t123.5 48.5v91h85v-91q73 -10 128.5 -52t78.5 -105l-115 -51q-12 32 -36 54.5t-56 31.5v-318q32 9 56 32t36 55l115 -52q-21 -62 -77 -104.5t-130 -52.5v-92h-85v92zM203 273q28 -43 75 -57v314
q-47 -14 -75 -56.5t-28 -100.5q0 -57 28 -100z" />
    <glyph glyph-name="sterling" unicode="&#xa3;" horiz-adv-x="663" 
d="M36 115h100v222h-100v84h100v93q0 72 30.5 127t87 85.5t133.5 30.5q60 0 112.5 -23t87 -65.5t41.5 -97.5l-120 -37q-7 48 -40 74.5t-81 26.5q-55 0 -85 -31.5t-30 -89.5v-93h184v-84h-184v-222h323v-115h-559v115z" />
    <glyph glyph-name="currency" unicode="&#xa4;" horiz-adv-x="594" 
d="M39 87l79 78q-29 46 -29 104q0 57 29 104l-79 79l76 76l79 -79q47 28 103 28t104 -28l79 79l76 -76l-79 -79q28 -48 28 -104q0 -57 -28 -104l79 -78l-76 -76l-79 78q-47 -28 -104 -28q-55 0 -103 28l-79 -78zM232 204q27 -27 65 -27t65 27t27 65t-27 65t-65 27t-65 -27
t-27 -65t27 -65z" />
    <glyph glyph-name="yen" unicode="&#xa5;" horiz-adv-x="660" 
d="M262 145h-142v84h142v60h-142v83h117l-226 373h155l164 -277l164 277h155l-225 -373h116v-83h-141v-60h141v-84h-141v-145h-137v145z" />
    <glyph glyph-name="brokenbar" unicode="&#xa6;" horiz-adv-x="395" 
d="M131 845h133v-417h-133v417zM131 228h133v-418h-133v418z" />
    <glyph glyph-name="section" unicode="&#xa7;" horiz-adv-x="534" 
d="M121.5 -54q-67.5 44 -93.5 118l99 47q23 -49 63 -76t89 -27q39 0 62.5 17t23.5 47q0 45 -69 63l-94 27q-72 20 -109.5 63t-37.5 102q0 40 16.5 73t47.5 57q-31 23 -47.5 55.5t-16.5 70.5q0 51 27 90.5t74.5 61.5t108.5 22q79 0 141 -39t88 -108l-100 -47
q-16 39 -51.5 62.5t-78.5 23.5q-36 0 -57.5 -16.5t-21.5 -43.5q0 -44 69 -63l93 -27q71 -21 109 -64t38 -103q0 -39 -16.5 -72t-47.5 -57q64 -47 64 -127q0 -51 -27 -90.5t-76 -61.5t-112 -22q-90 0 -157.5 44zM267 266l69 -20q29 23 29 64q0 62 -83 85l-67 19
q-14 -10 -22 -26.5t-8 -37.5q0 -61 82 -84z" />
    <glyph glyph-name="dieresis" unicode="&#xa8;" horiz-adv-x="585" 
d="M144 666.5q-21 21.5 -21 51.5t21 51t52 21q29 0 50.5 -21t21.5 -51t-21 -51.5t-51 -21.5q-31 0 -52 21.5zM339 769q21 21 52 21q29 0 50.5 -21t21.5 -51t-21 -51.5t-51 -21.5q-31 0 -52 21.5t-21 51.5t21 51z" />
    <glyph glyph-name="copyright" unicode="&#xa9;" horiz-adv-x="938" 
d="M276.5 40q-88.5 52 -140.5 140.5t-52 193.5q0 104 51.5 192t140 139.5t194.5 51.5q104 0 192 -51.5t140 -139.5t52 -192q0 -105 -51.5 -193.5t-140 -140.5t-192.5 -52q-105 0 -193.5 52zM216 226q39 -67 106 -106t148 -39q79 0 146 39t106 106t39 148q0 80 -39 146.5
t-106 105.5t-146 39q-81 0 -148 -39t-106 -106t-39 -146q0 -81 39 -148zM293 480.5q27 47.5 74.5 74.5t106.5 27q65 0 113.5 -31t64.5 -80l-90 -35q-10 25 -33.5 41t-54.5 16q-48 0 -78 -33.5t-30 -86.5t29.5 -86.5t78.5 -33.5q31 0 54.5 15.5t33.5 40.5l90 -35
q-16 -49 -64.5 -80t-113.5 -31q-58 0 -105.5 27.5t-75 75.5t-27.5 107q0 60 27 107.5z" />
    <glyph glyph-name="ordfeminine" unicode="&#xaa;" horiz-adv-x="445" 
d="M75 384.5q-36 29.5 -36 81.5q0 49 34 80.5t101 42.5l106 17v10q0 21 -17.5 36t-45.5 15t-49.5 -15.5t-30.5 -40.5l-85 40q17 48 63 76t106 28q72 0 118 -39t46 -100v-252h-99v34q-43 -43 -113 -43q-62 0 -98 29.5zM160.5 443q12.5 -10 32.5 -10q38 0 62.5 24t24.5 60v11
l-87 -16q-23 -4 -34 -14t-11 -28q0 -17 12.5 -27z" />
    <glyph glyph-name="guillemotleft" unicode="&#xab;" horiz-adv-x="674" 
d="M45 269l153 198h145l-152 -198l152 -197h-145zM483 467h145l-152 -198l152 -197h-145l-153 197z" />
    <glyph glyph-name="logicalnot" unicode="&#xac;" horiz-adv-x="726" 
d="M483 194h-388v113h500v-267h-112v154z" />
    <glyph glyph-name="uni00AD" unicode="&#xad;" horiz-adv-x="600" 
d="M88 329h425v-115h-425v115z" />
    <glyph glyph-name="registered" unicode="&#xae;" horiz-adv-x="680" 
d="M212 305.5q-59 34.5 -93.5 94t-34.5 128.5q0 70 34.5 129t93.5 93t129 34q69 0 127.5 -34t93 -93t34.5 -129q0 -69 -34 -128.5t-92.5 -94t-128.5 -34.5t-129 34.5zM179 434.5q25 -42.5 68 -67.5t94 -25q36 0 69 13.5t59 37.5h-74l-51 92h-38v-92h-74v271h119q46 0 74 -23
t28 -68q0 -49 -40 -74l59 -103q25 26 39.5 60t14.5 72q0 51 -25 94t-67.5 68t-92.5 25q-52 0 -94.5 -25t-67.5 -68t-25 -94t25 -93.5zM353 547q12 0 19.5 7.5t7.5 19.5t-7 19.5t-20 7.5h-47v-54h47z" />
    <glyph glyph-name="macron" unicode="&#xaf;" horiz-adv-x="526" 
d="M123 756h281v-97h-281v97z" />
    <glyph glyph-name="degree" unicode="&#xb0;" horiz-adv-x="535" 
d="M183 445.5q-38 22.5 -60.5 60.5t-22.5 84t22.5 84t60.5 60.5t84 22.5t84.5 -22.5t61 -60.5t22.5 -84t-22.5 -84t-61 -60.5t-84.5 -22.5t-84 22.5zM213 535q22 -22 54 -22t54.5 22t22.5 55t-22.5 55t-54.5 22t-54 -22t-22 -55t22 -55z" />
    <glyph glyph-name="plusminus" unicode="&#xb1;" horiz-adv-x="660" 
d="M274 329h-194v113h194v146h113v-146h193v-113h-193v-146h-113v146zM80 113h500v-113h-500v113z" />
    <glyph glyph-name="uni00B2" unicode="&#xb2;" horiz-adv-x="410" 
d="M23 308l141 145q59 61 79 88.5t20 52.5q0 28 -18.5 45t-46.5 17q-29 0 -51 -17t-32 -49l-95 30q12 61 63 97.5t115 36.5q78 0 126 -41t48 -106q0 -43 -22 -81.5t-69 -86.5l-119 -123h216v-92h-355v84z" />
    <glyph glyph-name="uni00B3" unicode="&#xb3;" horiz-adv-x="425" 
d="M83 252q-53 37 -67 95l95 33q13 -33 36.5 -49.5t54.5 -16.5q38 0 60.5 21.5t22.5 57.5q0 35 -22 56t-61 21q-31 0 -59 -13l-25 52l133 146h-202v90h324v-84l-101 -115q56 -9 89 -49.5t33 -100.5q0 -51 -25 -92.5t-69 -65t-98 -23.5q-66 0 -119 37z" />
    <glyph glyph-name="acute" unicode="&#xb4;" horiz-adv-x="455" 
d="M186 784h147l-96 -144h-114z" />
    <glyph glyph-name="uni00B5" unicode="&#xb5;" 
d="M50 544h131v-322q0 -51 30.5 -82.5t79.5 -31.5t79.5 32t30.5 85v319h131v-544h-124v68q-21 -39 -60.5 -59.5t-92.5 -20.5q-41 0 -74 12v-140h-131v684z" />
    <glyph glyph-name="paragraph" unicode="&#xb6;" horiz-adv-x="564" 
d="M180 337.5q-51 27.5 -79 76.5t-28 113t28 113.5t79 77t117 27.5h136v-845h-136v410q-66 0 -117 27.5z" />
    <glyph glyph-name="periodcentered" unicode="&#xb7;" horiz-adv-x="378" 
d="M136.5 223.5q-21.5 21.5 -21.5 53.5q0 31 21.5 52.5t53.5 21.5q31 0 52 -21t21 -53t-20.5 -53.5t-52.5 -21.5t-53.5 21.5z" />
    <glyph glyph-name="cedilla" unicode="&#xb8;" horiz-adv-x="476" 
d="M123 -210l12 68q24 -9 62 -9q24 0 37.5 8.5t13.5 24.5q0 13 -8.5 20.5t-24.5 7.5q-24 0 -39 -5l-23 11l15 114h87l-5 -62q5 1 15 1q39 0 64 -23t25 -61q0 -46 -38 -76t-109 -30q-48 0 -84 11z" />
    <glyph glyph-name="uni00B9" unicode="&#xb9;" horiz-adv-x="315" 
d="M117 654h-101v91h210v-521h-109v430z" />
    <glyph glyph-name="ordmasculine" unicode="&#xba;" horiz-adv-x="487" 
d="M141 381q-47 26 -74.5 72t-27.5 102q0 57 27.5 102.5t74.5 71.5t103 26t102.5 -26t74 -71.5t27.5 -102.5t-27.5 -102.5t-74.5 -71.5t-102 -26q-56 0 -103 26zM174.5 479.5q26.5 -29.5 69.5 -29.5q42 0 68.5 30t26.5 75q0 46 -26.5 75.5t-68.5 29.5t-69 -30t-27 -75
q0 -46 26.5 -75.5z" />
    <glyph glyph-name="guillemotright" unicode="&#xbb;" horiz-adv-x="674" 
d="M483 269l-152 198h144l154 -198l-154 -197h-144zM198 269l-152 198h144l154 -198l-154 -197h-144z" />
    <glyph glyph-name="onequarter" unicode="&#xbc;" horiz-adv-x="881" 
d="M97 667h-81v78h174v-417h-93v339zM550 745h108l-446 -745h-109zM696 89h-181v78l174 250h101v-250h66v-78h-66v-89h-94v89zM696 167v136l-92 -136h92z" />
    <glyph glyph-name="onehalf" unicode="&#xbd;" horiz-adv-x="825" 
d="M97 667h-81v78h174v-417h-93v339zM550 745h108l-446 -745h-109zM508 72l112 116q45 46 60.5 67.5t15.5 39.5q0 19 -13.5 32t-33.5 13q-21 0 -38 -12.5t-25 -36.5l-81 27q10 48 51.5 77t92.5 29q62 0 101 -33t39 -85q0 -35 -17.5 -65t-52.5 -66l-93 -96h167v-79h-285v72z
" />
    <glyph glyph-name="threequarters" unicode="&#xbe;" horiz-adv-x="953" 
d="M69.5 350.5q-42.5 29.5 -53.5 77.5l83 28q9 -25 26.5 -37.5t40.5 -12.5q28 0 45.5 16t17.5 43q0 25 -16.5 40.5t-46.5 15.5q-27 0 -49 -11l-22 44l105 114h-157v77h262v-73l-77 -85q43 -9 68 -41t25 -79q0 -41 -20 -74.5t-55.5 -52.5t-79.5 -19q-54 0 -96.5 29.5z
M622 745h108l-446 -745h-109zM768 89h-181v78l174 250h101v-250h66v-78h-66v-89h-94v89zM768 167v136l-92 -136h92z" />
    <glyph glyph-name="questiondown" unicode="&#xbf;" horiz-adv-x="583" 
d="M170 -185.5q-52 28.5 -79 74.5t-27 99q0 37 14.5 67.5t33.5 52.5t56 58q39 38 59.5 69t20.5 70v13h125v-20q0 -60 -24.5 -102t-67.5 -85l-17 -17q-33 -32 -48.5 -54t-15.5 -49q0 -36 25.5 -59t70.5 -23q43 0 73.5 25.5t37.5 68.5l122 -30q-14 -84 -78 -135.5t-158 -51.5
q-71 0 -123 28.5zM242 544h133v-140h-133v140z" />
    <glyph glyph-name="Agrave" unicode="&#xc0;" horiz-adv-x="712" 
d="M268 745h176l257 -745h-148l-53 160h-288l-54 -160h-147zM461 280l-105 314l-105 -314h210zM204 986h147l63 -144h-115z" />
    <glyph glyph-name="Aacute" unicode="&#xc1;" horiz-adv-x="712" 
d="M268 745h176l257 -745h-148l-53 160h-288l-54 -160h-147zM461 280l-105 314l-105 -314h210zM362 986h147l-96 -144h-114z" />
    <glyph glyph-name="Acircumflex" unicode="&#xc2;" horiz-adv-x="712" 
d="M268 745h176l257 -745h-148l-53 160h-288l-54 -160h-147zM461 280l-105 314l-105 -314h210zM287 986h136l120 -144h-119l-68 79l-66 -79h-122z" />
    <glyph glyph-name="Atilde" unicode="&#xc3;" horiz-adv-x="712" 
d="M268 745h176l257 -745h-148l-53 160h-288l-54 -160h-147zM461 280l-105 314l-105 -314h210zM388 861q-16 7 -37 22q-12 10 -21 14.5t-19 4.5q-28 0 -32 -44h-83q0 68 26.5 100.5t69.5 32.5q23 0 39 -7.5t33 -21.5q13 -10 21 -14.5t19 -4.5q14 0 22 12.5t8 30.5h84
q0 -69 -22.5 -100.5t-66.5 -31.5q-25 0 -41 7z" />
    <glyph glyph-name="Adieresis" unicode="&#xc4;" horiz-adv-x="712" 
d="M268 745h176l257 -745h-148l-53 160h-288l-54 -160h-147zM461 280l-105 314l-105 -314h210zM208 868.5q-21 21.5 -21 51.5t21 51t52 21q29 0 50.5 -21t21.5 -51t-21 -51.5t-51 -21.5q-31 0 -52 21.5zM403 971q21 21 52 21q29 0 50.5 -21t21.5 -51t-21 -51.5t-51 -21.5
q-31 0 -52 21.5t-21 51.5t21 51z" />
    <glyph glyph-name="Aring" unicode="&#xc5;" horiz-adv-x="712" 
d="M268 745h176l257 -745h-148l-53 160h-288l-54 -160h-147zM461 280l-105 314l-105 -314h210zM265.5 821q-36.5 36 -36.5 89t36.5 89.5t91.5 36.5q53 0 90 -36.5t37 -89.5q0 -52 -37 -88.5t-90 -36.5q-55 0 -91.5 36zM317.5 871.5q15.5 -15.5 39.5 -15.5q22 0 37.5 15.5
t15.5 38.5t-15.5 39t-37.5 16q-24 0 -39.5 -16t-15.5 -39t15.5 -38.5z" />
    <glyph glyph-name="AE" unicode="&#xc6;" horiz-adv-x="991" 
d="M268 745h696v-120h-360v-191h340v-120h-340v-194h360l-1 -120h-495v160h-256l-54 -160h-147zM468 280v345h-101l-116 -345h217z" />
    <glyph glyph-name="Ccedilla" unicode="&#xc7;" horiz-adv-x="774" 
d="M298 -240l12 68q24 -9 62 -9q24 0 37.5 8.5t13.5 24.5q0 13 -8.5 20.5t-24.5 7.5q-24 0 -39 -5l-23 11l14 110q-85 17 -151.5 70t-103.5 132.5t-37 174.5q0 109 48.5 197t133 137.5t190.5 49.5q77 0 141 -26.5t108.5 -71t64.5 -98.5l-122 -57q-22 58 -73 93.5t-119 35.5
q-69 0 -123 -32.5t-83.5 -91.5t-29.5 -136t29.5 -136.5t83.5 -92t123 -32.5q68 0 119 35.5t73 93.5l122 -57q-19 -53 -62.5 -97t-106.5 -71t-138 -28l-4 -50q5 1 15 1q39 0 64 -23t25 -61q0 -46 -38 -76t-109 -30q-48 0 -84 11z" />
    <glyph glyph-name="Egrave" unicode="&#xc8;" horiz-adv-x="595" 
d="M72 745h495v-120h-359v-191h339v-120h-339v-194h359v-120h-495v745zM167 986h147l63 -144h-115z" />
    <glyph glyph-name="Eacute" unicode="&#xc9;" horiz-adv-x="595" 
d="M72 745h495v-120h-359v-191h339v-120h-339v-194h359v-120h-495v745zM326 986h147l-96 -144h-114z" />
    <glyph glyph-name="Ecircumflex" unicode="&#xca;" horiz-adv-x="595" 
d="M72 745h495v-120h-359v-191h339v-120h-339v-194h359v-120h-495v745zM250 986h136l120 -144h-119l-68 79l-66 -79h-122z" />
    <glyph glyph-name="Edieresis" unicode="&#xcb;" horiz-adv-x="595" 
d="M72 745h495v-120h-359v-191h339v-120h-339v-194h359v-120h-495v745zM171 868.5q-21 21.5 -21 51.5t21 51t52 21q29 0 50.5 -21t21.5 -51t-21 -51.5t-51 -21.5q-31 0 -52 21.5zM366 971q21 21 52 21q29 0 50.5 -21t21.5 -51t-21 -51.5t-51 -21.5q-31 0 -52 21.5t-21 51.5
t21 51z" />
    <glyph glyph-name="Igrave" unicode="&#xcc;" horiz-adv-x="279" 
d="M72 745h136v-745h-136v745zM-13 986h147l63 -144h-115z" />
    <glyph glyph-name="Iacute" unicode="&#xcd;" horiz-adv-x="279" 
d="M72 745h136v-745h-136v745zM146 986h147l-96 -144h-114z" />
    <glyph glyph-name="Icircumflex" unicode="&#xce;" horiz-adv-x="279" 
d="M72 745h136v-745h-136v745zM70 986h136l120 -144h-119l-68 79l-66 -79h-122z" />
    <glyph glyph-name="Idieresis" unicode="&#xcf;" horiz-adv-x="279" 
d="M72 745h136v-745h-136v745zM-9 868.5q-21 21.5 -21 51.5t21 51t52 21q29 0 50.5 -21t21.5 -51t-21 -51.5t-51 -21.5q-31 0 -52 21.5zM186 971q21 21 52 21q29 0 50.5 -21t21.5 -51t-21 -51.5t-51 -21.5q-31 0 -52 21.5t-21 51.5t21 51z" />
    <glyph glyph-name="Eth" unicode="&#xd0;" horiz-adv-x="740" 
d="M72 331h-95v84h95v330h243q117 0 205 -47t136 -131.5t48 -193.5q0 -108 -48 -193t-136.5 -132.5t-204.5 -47.5h-243v331zM318 120q75 0 131.5 31t87 88.5t30.5 133.5t-30.5 133t-87 88t-131.5 31h-110v-210h195v-84h-195v-211h110z" />
    <glyph glyph-name="Ntilde" unicode="&#xd1;" horiz-adv-x="741" 
d="M72 745h106l355 -478v478h136v-745h-107l-354 487v-487h-136v745zM402 861q-16 7 -37 22q-12 10 -21 14.5t-19 4.5q-28 0 -32 -44h-83q0 68 26.5 100.5t69.5 32.5q23 0 39 -7.5t33 -21.5q13 -10 21 -14.5t19 -4.5q14 0 22 12.5t8 30.5h84q0 -69 -22.5 -100.5t-66.5 -31.5
q-25 0 -41 7z" />
    <glyph glyph-name="Ograve" unicode="&#xd2;" horiz-adv-x="878" 
d="M241 38.5q-89 50.5 -140 138.5t-51 196t51 196t140 138t198 50t198 -50t140.5 -138t51.5 -196t-51.5 -196t-140.5 -138.5t-198 -50.5t-198 50.5zM219 239q33 -60 90.5 -93.5t129.5 -33.5t129.5 33.5t90.5 93.5t33 134t-33 133.5t-90.5 93t-129.5 33.5t-129.5 -33.5
t-90.5 -93t-33 -133.5t33 -134zM287 986h147l63 -144h-115z" />
    <glyph glyph-name="Oacute" unicode="&#xd3;" horiz-adv-x="878" 
d="M241 38.5q-89 50.5 -140 138.5t-51 196t51 196t140 138t198 50t198 -50t140.5 -138t51.5 -196t-51.5 -196t-140.5 -138.5t-198 -50.5t-198 50.5zM219 239q33 -60 90.5 -93.5t129.5 -33.5t129.5 33.5t90.5 93.5t33 134t-33 133.5t-90.5 93t-129.5 33.5t-129.5 -33.5
t-90.5 -93t-33 -133.5t33 -134zM445 986h147l-96 -144h-114z" />
    <glyph glyph-name="Ocircumflex" unicode="&#xd4;" horiz-adv-x="878" 
d="M241 38.5q-89 50.5 -140 138.5t-51 196t51 196t140 138t198 50t198 -50t140.5 -138t51.5 -196t-51.5 -196t-140.5 -138.5t-198 -50.5t-198 50.5zM219 239q33 -60 90.5 -93.5t129.5 -33.5t129.5 33.5t90.5 93.5t33 134t-33 133.5t-90.5 93t-129.5 33.5t-129.5 -33.5
t-90.5 -93t-33 -133.5t33 -134zM370 986h136l120 -144h-119l-68 79l-66 -79h-122z" />
    <glyph glyph-name="Otilde" unicode="&#xd5;" horiz-adv-x="878" 
d="M241 38.5q-89 50.5 -140 138.5t-51 196t51 196t140 138t198 50t198 -50t140.5 -138t51.5 -196t-51.5 -196t-140.5 -138.5t-198 -50.5t-198 50.5zM219 239q33 -60 90.5 -93.5t129.5 -33.5t129.5 33.5t90.5 93.5t33 134t-33 133.5t-90.5 93t-129.5 33.5t-129.5 -33.5
t-90.5 -93t-33 -133.5t33 -134zM471 861q-16 7 -37 22q-12 10 -21 14.5t-19 4.5q-28 0 -32 -44h-83q0 68 26.5 100.5t69.5 32.5q23 0 39 -7.5t33 -21.5q13 -10 21 -14.5t19 -4.5q14 0 22 12.5t8 30.5h84q0 -69 -22.5 -100.5t-66.5 -31.5q-25 0 -41 7z" />
    <glyph glyph-name="Odieresis" unicode="&#xd6;" horiz-adv-x="878" 
d="M241 38.5q-89 50.5 -140 138.5t-51 196t51 196t140 138t198 50t198 -50t140.5 -138t51.5 -196t-51.5 -196t-140.5 -138.5t-198 -50.5t-198 50.5zM219 239q33 -60 90.5 -93.5t129.5 -33.5t129.5 33.5t90.5 93.5t33 134t-33 133.5t-90.5 93t-129.5 33.5t-129.5 -33.5
t-90.5 -93t-33 -133.5t33 -134zM291 868.5q-21 21.5 -21 51.5t21 51t52 21q29 0 50.5 -21t21.5 -51t-21 -51.5t-51 -21.5q-31 0 -52 21.5zM486 971q21 21 52 21q29 0 50.5 -21t21.5 -51t-21 -51.5t-51 -21.5q-31 0 -52 21.5t-21 51.5t21 51z" />
    <glyph glyph-name="multiply" unicode="&#xd7;" horiz-adv-x="618" 
d="M78 80l152 152l-151 150l80 79l150 -150l151 150l80 -79l-152 -150l152 -152l-79 -80l-152 152l-151 -152z" />
    <glyph glyph-name="Oslash" unicode="&#xd8;" horiz-adv-x="878" 
d="M237 41l-33 -41h-144l91 110q-48 52 -74.5 119t-26.5 144q0 108 51 196t140 138t198 50q111 0 202 -52l33 40h144l-90 -109q48 -52 74.5 -119t26.5 -144q0 -108 -51.5 -196t-140.5 -138.5t-198 -50.5q-110 0 -202 53zM235 213l323 392q-54 28 -119 28q-72 0 -129.5 -33.5
t-90.5 -93t-33 -133.5q0 -92 49 -160zM439 112q72 0 129.5 33.5t90.5 93.5t33 134q0 91 -49 159l-323 -392q54 -28 119 -28z" />
    <glyph glyph-name="Ugrave" unicode="&#xd9;" horiz-adv-x="718" 
d="M207 24q-67 36 -105 99.5t-38 142.5v479h136v-472q0 -71 44.5 -116t114.5 -45t114.5 45t44.5 116v472h136v-479q0 -79 -38 -142.5t-105 -99.5t-152 -36t-152 36zM207 986h147l63 -144h-115z" />
    <glyph glyph-name="Uacute" unicode="&#xda;" horiz-adv-x="718" 
d="M207 24q-67 36 -105 99.5t-38 142.5v479h136v-472q0 -71 44.5 -116t114.5 -45t114.5 45t44.5 116v472h136v-479q0 -79 -38 -142.5t-105 -99.5t-152 -36t-152 36zM365 986h147l-96 -144h-114z" />
    <glyph glyph-name="Ucircumflex" unicode="&#xdb;" horiz-adv-x="718" 
d="M207 24q-67 36 -105 99.5t-38 142.5v479h136v-472q0 -71 44.5 -116t114.5 -45t114.5 45t44.5 116v472h136v-479q0 -79 -38 -142.5t-105 -99.5t-152 -36t-152 36zM290 986h136l120 -144h-119l-68 79l-66 -79h-122z" />
    <glyph glyph-name="Udieresis" unicode="&#xdc;" horiz-adv-x="718" 
d="M207 24q-67 36 -105 99.5t-38 142.5v479h136v-472q0 -71 44.5 -116t114.5 -45t114.5 45t44.5 116v472h136v-479q0 -79 -38 -142.5t-105 -99.5t-152 -36t-152 36zM211 868.5q-21 21.5 -21 51.5t21 51t52 21q29 0 50.5 -21t21.5 -51t-21 -51.5t-51 -21.5q-31 0 -52 21.5z
M406 971q21 21 52 21q29 0 50.5 -21t21.5 -51t-21 -51.5t-51 -21.5q-31 0 -52 21.5t-21 51.5t21 51z" />
    <glyph glyph-name="Yacute" unicode="&#xdd;" horiz-adv-x="660" 
d="M262 330l-251 415h155l164 -277l164 277h155l-250 -414v-331h-137v330zM336 986h147l-96 -144h-114z" />
    <glyph glyph-name="Thorn" unicode="&#xde;" horiz-adv-x="650" 
d="M65 745h136v-137h143q76 0 135 -28t91.5 -81t32.5 -127q0 -73 -33 -126t-92 -80.5t-134 -27.5h-143v-138h-136v745zM345 258q55 0 88 31t33 83t-33 84t-88 32h-144v-230h144z" />
    <glyph glyph-name="germandbls" unicode="&#xdf;" horiz-adv-x="641" 
d="M105 637.5q33 57.5 91.5 88.5t132.5 31q72 0 127 -26.5t85.5 -74.5t30.5 -110q0 -45 -20 -83t-57 -62q57 -28 82.5 -69.5t25.5 -103.5q0 -69 -30.5 -120.5t-87 -79.5t-132.5 -28h-68v115h60q54 0 88 31t34 82q0 50 -33 80t-89 30h-60v115h51q43 0 71.5 26.5t28.5 67.5
q0 42 -29.5 68.5t-77.5 26.5q-57 0 -91.5 -37t-34.5 -102v-661h-131v661q0 77 33 134.5z" />
    <glyph glyph-name="agrave" unicode="&#xe0;" horiz-adv-x="580" 
d="M89.5 30q-50.5 42 -50.5 114q0 69 47 114t141 60l162 26v18q0 36 -27.5 59t-72.5 23q-42 0 -74.5 -22.5t-47.5 -59.5l-107 52q24 64 88 103t146 39q66 0 117.5 -24.5t80 -69t28.5 -100.5v-362h-124v58q-64 -70 -170 -70q-86 0 -136.5 42zM196 104.5q21 -16.5 54 -16.5
q61 0 100 38.5t39 95.5v22l-137 -23q-39 -8 -58 -25.5t-19 -46.5q0 -28 21 -44.5zM138 784h147l63 -144h-115z" />
    <glyph glyph-name="aacute" unicode="&#xe1;" horiz-adv-x="580" 
d="M89.5 30q-50.5 42 -50.5 114q0 69 47 114t141 60l162 26v18q0 36 -27.5 59t-72.5 23q-42 0 -74.5 -22.5t-47.5 -59.5l-107 52q24 64 88 103t146 39q66 0 117.5 -24.5t80 -69t28.5 -100.5v-362h-124v58q-64 -70 -170 -70q-86 0 -136.5 42zM196 104.5q21 -16.5 54 -16.5
q61 0 100 38.5t39 95.5v22l-137 -23q-39 -8 -58 -25.5t-19 -46.5q0 -28 21 -44.5zM297 784h147l-96 -144h-114z" />
    <glyph glyph-name="acircumflex" unicode="&#xe2;" horiz-adv-x="580" 
d="M89.5 30q-50.5 42 -50.5 114q0 69 47 114t141 60l162 26v18q0 36 -27.5 59t-72.5 23q-42 0 -74.5 -22.5t-47.5 -59.5l-107 52q24 64 88 103t146 39q66 0 117.5 -24.5t80 -69t28.5 -100.5v-362h-124v58q-64 -70 -170 -70q-86 0 -136.5 42zM196 104.5q21 -16.5 54 -16.5
q61 0 100 38.5t39 95.5v22l-137 -23q-39 -8 -58 -25.5t-19 -46.5q0 -28 21 -44.5zM221 784h136l120 -144h-119l-68 79l-66 -79h-122z" />
    <glyph glyph-name="atilde" unicode="&#xe3;" horiz-adv-x="580" 
d="M89.5 30q-50.5 42 -50.5 114q0 69 47 114t141 60l162 26v18q0 36 -27.5 59t-72.5 23q-42 0 -74.5 -22.5t-47.5 -59.5l-107 52q24 64 88 103t146 39q66 0 117.5 -24.5t80 -69t28.5 -100.5v-362h-124v58q-64 -70 -170 -70q-86 0 -136.5 42zM196 104.5q21 -16.5 54 -16.5
q61 0 100 38.5t39 95.5v22l-137 -23q-39 -8 -58 -25.5t-19 -46.5q0 -28 21 -44.5zM322 659q-16 7 -37 22q-12 10 -21 14.5t-19 4.5q-28 0 -32 -44h-83q0 68 26.5 100.5t69.5 32.5q23 0 39 -7.5t33 -21.5q13 -10 21 -14.5t19 -4.5q14 0 22 12.5t8 30.5h84q0 -69 -22.5 -100.5
t-66.5 -31.5q-25 0 -41 7z" />
    <glyph glyph-name="adieresis" unicode="&#xe4;" horiz-adv-x="580" 
d="M89.5 30q-50.5 42 -50.5 114q0 69 47 114t141 60l162 26v18q0 36 -27.5 59t-72.5 23q-42 0 -74.5 -22.5t-47.5 -59.5l-107 52q24 64 88 103t146 39q66 0 117.5 -24.5t80 -69t28.5 -100.5v-362h-124v58q-64 -70 -170 -70q-86 0 -136.5 42zM196 104.5q21 -16.5 54 -16.5
q61 0 100 38.5t39 95.5v22l-137 -23q-39 -8 -58 -25.5t-19 -46.5q0 -28 21 -44.5zM142 666.5q-21 21.5 -21 51.5t21 51t52 21q29 0 50.5 -21t21.5 -51t-21 -51.5t-51 -21.5q-31 0 -52 21.5zM337 769q21 21 52 21q29 0 50.5 -21t21.5 -51t-21 -51.5t-51 -21.5q-31 0 -52 21.5
t-21 51.5t21 51z" />
    <glyph glyph-name="aring" unicode="&#xe5;" horiz-adv-x="580" 
d="M89.5 30q-50.5 42 -50.5 114q0 69 47 114t141 60l162 26v18q0 36 -27.5 59t-72.5 23q-42 0 -74.5 -22.5t-47.5 -59.5l-107 52q24 64 88 103t146 39q66 0 117.5 -24.5t80 -69t28.5 -100.5v-362h-124v58q-64 -70 -170 -70q-86 0 -136.5 42zM196 104.5q21 -16.5 54 -16.5
q61 0 100 38.5t39 95.5v22l-137 -23q-39 -8 -58 -25.5t-19 -46.5q0 -28 21 -44.5zM199.5 619q-36.5 36 -36.5 89t36.5 89.5t91.5 36.5q53 0 90 -36.5t37 -89.5q0 -52 -37 -88.5t-90 -36.5q-55 0 -91.5 36zM251.5 669.5q15.5 -15.5 39.5 -15.5q22 0 37.5 15.5t15.5 38.5
t-15.5 39t-37.5 16q-24 0 -39.5 -16t-15.5 -39t15.5 -38.5z" />
    <glyph glyph-name="ae" unicode="&#xe6;" horiz-adv-x="967" 
d="M89.5 30q-50.5 42 -50.5 114q0 69 47 114t141 60l162 26v18q0 36 -27.5 59t-72.5 23q-42 0 -74.5 -22.5t-47.5 -59.5l-107 52q24 64 88 103t146 39q58 0 105.5 -19.5t77.5 -55.5q36 35 84.5 55t102.5 20q81 0 141 -35.5t91.5 -96.5t31.5 -134q0 -32 -6 -55h-392
q5 -60 45 -96t100 -36q43 0 74.5 18.5t51.5 51.5l106 -52q-25 -59 -86 -96t-133 -37q-112 0 -181 68v-56h-111v56q-63 -68 -170 -68q-86 0 -136.5 42zM196 104.5q21 -16.5 54 -16.5q61 0 100 38.5t39 95.5v22l-137 -23q-39 -8 -58 -25.5t-19 -46.5q0 -28 21 -44.5zM789 335
q-4 50 -38.5 81.5t-86.5 31.5q-50 0 -85.5 -30t-45.5 -83h256z" />
    <glyph glyph-name="ccedilla" unicode="&#xe7;" horiz-adv-x="608" 
d="M234 -240l12 68q24 -9 62 -9q24 0 37.5 8.5t13.5 24.5q0 13 -8.5 20.5t-24.5 7.5q-24 0 -39 -5l-23 11l14 105q-69 10 -124 49.5t-85.5 100t-30.5 132.5q0 80 37 144.5t102 101.5t146 37q87 0 155 -44.5t93 -116.5l-114 -50q-16 42 -52 66.5t-82 24.5q-42 0 -76 -21
t-53.5 -58.5t-19.5 -84.5t19.5 -84.5t53.5 -58.5t76 -21q47 0 82.5 24.5t51.5 67.5l114 -52q-21 -62 -76.5 -104.5t-129.5 -52.5l-4 -53q5 1 15 1q39 0 64 -23t25 -61q0 -46 -38 -76t-109 -30q-48 0 -84 11z" />
    <glyph glyph-name="egrave" unicode="&#xe8;" horiz-adv-x="612" 
d="M173.5 26q-63.5 38 -99 103t-35.5 144q0 80 35.5 144.5t97 101.5t137.5 37q82 0 142 -35.5t91.5 -96.5t31.5 -134q0 -34 -7 -55h-392q6 -60 46 -96t99 -36q44 0 75.5 18.5t50.5 51.5l106 -52q-25 -60 -88 -96.5t-145 -36.5t-145.5 38zM434 335q-5 50 -39 81.5t-86 31.5
q-50 0 -85 -29.5t-46 -83.5h256zM154 784h147l63 -144h-115z" />
    <glyph glyph-name="eacute" unicode="&#xe9;" horiz-adv-x="612" 
d="M173.5 26q-63.5 38 -99 103t-35.5 144q0 80 35.5 144.5t97 101.5t137.5 37q82 0 142 -35.5t91.5 -96.5t31.5 -134q0 -34 -7 -55h-392q6 -60 46 -96t99 -36q44 0 75.5 18.5t50.5 51.5l106 -52q-25 -60 -88 -96.5t-145 -36.5t-145.5 38zM434 335q-5 50 -39 81.5t-86 31.5
q-50 0 -85 -29.5t-46 -83.5h256zM313 784h147l-96 -144h-114z" />
    <glyph glyph-name="ecircumflex" unicode="&#xea;" horiz-adv-x="612" 
d="M173.5 26q-63.5 38 -99 103t-35.5 144q0 80 35.5 144.5t97 101.5t137.5 37q82 0 142 -35.5t91.5 -96.5t31.5 -134q0 -34 -7 -55h-392q6 -60 46 -96t99 -36q44 0 75.5 18.5t50.5 51.5l106 -52q-25 -60 -88 -96.5t-145 -36.5t-145.5 38zM434 335q-5 50 -39 81.5t-86 31.5
q-50 0 -85 -29.5t-46 -83.5h256zM237 784h136l120 -144h-119l-68 79l-66 -79h-122z" />
    <glyph glyph-name="edieresis" unicode="&#xeb;" horiz-adv-x="612" 
d="M173.5 26q-63.5 38 -99 103t-35.5 144q0 80 35.5 144.5t97 101.5t137.5 37q82 0 142 -35.5t91.5 -96.5t31.5 -134q0 -34 -7 -55h-392q6 -60 46 -96t99 -36q44 0 75.5 18.5t50.5 51.5l106 -52q-25 -60 -88 -96.5t-145 -36.5t-145.5 38zM434 335q-5 50 -39 81.5t-86 31.5
q-50 0 -85 -29.5t-46 -83.5h256zM158 666.5q-21 21.5 -21 51.5t21 51t52 21q29 0 50.5 -21t21.5 -51t-21 -51.5t-51 -21.5q-31 0 -52 21.5zM353 769q21 21 52 21q29 0 50.5 -21t21.5 -51t-21 -51.5t-51 -21.5q-31 0 -52 21.5t-21 51.5t21 51z" />
    <glyph glyph-name="igrave" unicode="&#xec;" horiz-adv-x="228" 
d="M49 544h131v-544h-131v544zM-39 784h147l63 -144h-115z" />
    <glyph glyph-name="iacute" unicode="&#xed;" horiz-adv-x="228" 
d="M49 544h131v-544h-131v544zM120 784h147l-96 -144h-114z" />
    <glyph glyph-name="icircumflex" unicode="&#xee;" horiz-adv-x="228" 
d="M49 544h131v-544h-131v544zM44 784h136l120 -144h-119l-68 79l-66 -79h-122z" />
    <glyph glyph-name="idieresis" unicode="&#xef;" horiz-adv-x="228" 
d="M49 544h131v-544h-131v544zM-35 666.5q-21 21.5 -21 51.5t21 51t52 21q29 0 50.5 -21t21.5 -51t-21 -51.5t-51 -21.5q-31 0 -52 21.5zM160 769q21 21 52 21q29 0 50.5 -21t21.5 -51t-21 -51.5t-51 -21.5q-31 0 -52 21.5t-21 51.5t21 51z" />
    <glyph glyph-name="eth" unicode="&#xf0;" horiz-adv-x="652" 
d="M183 24q-66 36 -105 100.5t-39 144.5q0 77 37 140.5t101 100t142 36.5q83 0 140 -46q-22 74 -83 122l-154 -59v60l92 35q-55 23 -117 23q-50 0 -104 -17l-15 107q74 25 142 25q133 0 233 -84l109 42v-60l-65 -25q56 -65 86.5 -153.5t30.5 -185.5q0 -111 -36.5 -188
t-101.5 -115.5t-148 -38.5q-79 0 -145 36zM195 185.5q20 -36.5 54.5 -57t77.5 -20.5t77 21t53.5 57.5t19.5 81.5q0 68 -41 113t-109 45t-110 -44.5t-42 -113.5q0 -46 20 -82.5z" />
    <glyph glyph-name="ntilde" unicode="&#xf1;" 
d="M61 544h123v-67q21 38 61.5 58.5t92.5 20.5q59 0 106 -26t73 -73t26 -107v-350h-131v319q0 53 -30.5 85t-79.5 32t-79.5 -32t-30.5 -85v-319h-131v544zM328 659q-16 7 -37 22q-12 10 -21 14.5t-19 4.5q-28 0 -32 -44h-83q0 68 26.5 100.5t69.5 32.5q23 0 39 -7.5
t33 -21.5q13 -10 21 -14.5t19 -4.5q14 0 22 12.5t8 30.5h84q0 -69 -22.5 -100.5t-66.5 -31.5q-25 0 -41 7z" />
    <glyph glyph-name="ograve" unicode="&#xf2;" horiz-adv-x="652" 
d="M182 25q-66 37 -104.5 102t-38.5 145t38 145t104 102t146 37q79 0 144.5 -37t104 -102t38.5 -145q0 -81 -38.5 -146t-104.5 -101.5t-144 -36.5q-79 0 -145 37zM217.5 154.5q42.5 -46.5 109.5 -46.5q43 0 77 21t53.5 58.5t19.5 84.5q0 46 -19.5 83.5t-53.5 59t-77 21.5
q-44 0 -78.5 -21.5t-54 -58.5t-19.5 -84q0 -71 42.5 -117.5zM174 784h147l63 -144h-115z" />
    <glyph glyph-name="oacute" unicode="&#xf3;" horiz-adv-x="652" 
d="M182 25q-66 37 -104.5 102t-38.5 145t38 145t104 102t146 37q79 0 144.5 -37t104 -102t38.5 -145q0 -81 -38.5 -146t-104.5 -101.5t-144 -36.5q-79 0 -145 37zM217.5 154.5q42.5 -46.5 109.5 -46.5q43 0 77 21t53.5 58.5t19.5 84.5q0 46 -19.5 83.5t-53.5 59t-77 21.5
q-44 0 -78.5 -21.5t-54 -58.5t-19.5 -84q0 -71 42.5 -117.5zM333 784h147l-96 -144h-114z" />
    <glyph glyph-name="ocircumflex" unicode="&#xf4;" horiz-adv-x="652" 
d="M182 25q-66 37 -104.5 102t-38.5 145t38 145t104 102t146 37q79 0 144.5 -37t104 -102t38.5 -145q0 -81 -38.5 -146t-104.5 -101.5t-144 -36.5q-79 0 -145 37zM217.5 154.5q42.5 -46.5 109.5 -46.5q43 0 77 21t53.5 58.5t19.5 84.5q0 46 -19.5 83.5t-53.5 59t-77 21.5
q-44 0 -78.5 -21.5t-54 -58.5t-19.5 -84q0 -71 42.5 -117.5zM257 784h136l120 -144h-119l-68 79l-66 -79h-122z" />
    <glyph glyph-name="otilde" unicode="&#xf5;" horiz-adv-x="652" 
d="M182 25q-66 37 -104.5 102t-38.5 145t38 145t104 102t146 37q79 0 144.5 -37t104 -102t38.5 -145q0 -81 -38.5 -146t-104.5 -101.5t-144 -36.5q-79 0 -145 37zM217.5 154.5q42.5 -46.5 109.5 -46.5q43 0 77 21t53.5 58.5t19.5 84.5q0 46 -19.5 83.5t-53.5 59t-77 21.5
q-44 0 -78.5 -21.5t-54 -58.5t-19.5 -84q0 -71 42.5 -117.5zM358 659q-16 7 -37 22q-12 10 -21 14.5t-19 4.5q-28 0 -32 -44h-83q0 68 26.5 100.5t69.5 32.5q23 0 39 -7.5t33 -21.5q13 -10 21 -14.5t19 -4.5q14 0 22 12.5t8 30.5h84q0 -69 -22.5 -100.5t-66.5 -31.5
q-25 0 -41 7z" />
    <glyph glyph-name="odieresis" unicode="&#xf6;" horiz-adv-x="652" 
d="M182 25q-66 37 -104.5 102t-38.5 145t38 145t104 102t146 37q79 0 144.5 -37t104 -102t38.5 -145q0 -81 -38.5 -146t-104.5 -101.5t-144 -36.5q-79 0 -145 37zM217.5 154.5q42.5 -46.5 109.5 -46.5q43 0 77 21t53.5 58.5t19.5 84.5q0 46 -19.5 83.5t-53.5 59t-77 21.5
q-44 0 -78.5 -21.5t-54 -58.5t-19.5 -84q0 -71 42.5 -117.5zM178 666.5q-21 21.5 -21 51.5t21 51t52 21q29 0 50.5 -21t21.5 -51t-21 -51.5t-51 -21.5q-31 0 -52 21.5zM373 769q21 21 52 21q29 0 50.5 -21t21.5 -51t-21 -51.5t-51 -21.5q-31 0 -52 21.5t-21 51.5t21 51z" />
    <glyph glyph-name="divide" unicode="&#xf7;" horiz-adv-x="662" 
d="M81 307h500v-113h-500v113zM264 114h133v-114h-133v114zM264 500h133v-114h-133v114z" />
    <glyph glyph-name="oslash" unicode="&#xf8;" horiz-adv-x="652" 
d="M187 22l-18 -22h-133l71 86q-33 37 -50.5 84.5t-17.5 101.5q0 80 38 145t104 102t146 37q75 0 138 -34l18 22h133l-70 -85q32 -38 50 -85.5t18 -101.5q0 -81 -38.5 -146t-104.5 -101.5t-144 -36.5q-77 0 -140 34zM193 191l192 234q-28 11 -58 11q-44 0 -78.5 -21.5
t-54 -58.5t-19.5 -84q0 -46 18 -81zM327 108q43 0 77 21t53.5 58.5t19.5 84.5q0 45 -18 81l-192 -233q27 -12 60 -12z" />
    <glyph glyph-name="ugrave" unicode="&#xf9;" 
d="M105 49q-55 61 -55 162v333h131v-322q0 -51 30.5 -82.5t79.5 -31.5t79.5 32t30.5 85v319h131v-544h-124v65q-22 -38 -61.5 -57.5t-91.5 -19.5q-95 0 -150 61zM144 784h147l63 -144h-115z" />
    <glyph glyph-name="uacute" unicode="&#xfa;" 
d="M105 49q-55 61 -55 162v333h131v-322q0 -51 30.5 -82.5t79.5 -31.5t79.5 32t30.5 85v319h131v-544h-124v65q-22 -38 -61.5 -57.5t-91.5 -19.5q-95 0 -150 61zM303 784h147l-96 -144h-114z" />
    <glyph glyph-name="ucircumflex" unicode="&#xfb;" 
d="M105 49q-55 61 -55 162v333h131v-322q0 -51 30.5 -82.5t79.5 -31.5t79.5 32t30.5 85v319h131v-544h-124v65q-22 -38 -61.5 -57.5t-91.5 -19.5q-95 0 -150 61zM227 784h136l120 -144h-119l-68 79l-66 -79h-122z" />
    <glyph glyph-name="udieresis" unicode="&#xfc;" 
d="M105 49q-55 61 -55 162v333h131v-322q0 -51 30.5 -82.5t79.5 -31.5t79.5 32t30.5 85v319h131v-544h-124v65q-22 -38 -61.5 -57.5t-91.5 -19.5q-95 0 -150 61zM148 666.5q-21 21.5 -21 51.5t21 51t52 21q29 0 50.5 -21t21.5 -51t-21 -51.5t-51 -21.5q-31 0 -52 21.5z
M343 769q21 21 52 21q29 0 50.5 -21t21.5 -51t-21 -51.5t-51 -21.5q-31 0 -52 21.5t-21 51.5t21 51z" />
    <glyph glyph-name="yacute" unicode="&#xfd;" horiz-adv-x="586" 
d="M299 784h147l-96 -144h-114z" />
    <glyph glyph-name="thorn" unicode="&#xfe;" horiz-adv-x="672" 
d="M61 745h123v-265q30 36 74.5 56t100.5 20q76 0 139 -37.5t99 -102.5t36 -144t-36 -144t-98.5 -102.5t-140.5 -37.5q-50 0 -93 16.5t-73 47.5v-252h-131v945zM211.5 187.5q19.5 -37.5 54 -58.5t77.5 -21q67 0 110.5 46.5t43.5 117.5q0 46 -20 83.5t-55 59t-79 21.5
q-43 0 -77.5 -21t-54 -58.5t-19.5 -84.5t19.5 -84.5z" />
    <glyph glyph-name="ydieresis" unicode="&#xff;" horiz-adv-x="586" 
d="M144 666.5q-21 21.5 -21 51.5t21 51t52 21q29 0 50.5 -21t21.5 -51t-21 -51.5t-51 -21.5q-31 0 -52 21.5zM339 769q21 21 52 21q29 0 50.5 -21t21.5 -51t-21 -51.5t-51 -21.5q-31 0 -52 21.5t-21 51.5t21 51z" />
    <glyph glyph-name="Amacron" unicode="&#x100;" horiz-adv-x="712" 
d="M268 745h176l257 -745h-148l-53 160h-288l-54 -160h-147zM461 280l-105 314l-105 -314h210zM216 958h281v-97h-281v97z" />
    <glyph glyph-name="amacron" unicode="&#x101;" horiz-adv-x="580" 
d="M89.5 30q-50.5 42 -50.5 114q0 69 47 114t141 60l162 26v18q0 36 -27.5 59t-72.5 23q-42 0 -74.5 -22.5t-47.5 -59.5l-107 52q24 64 88 103t146 39q66 0 117.5 -24.5t80 -69t28.5 -100.5v-362h-124v58q-64 -70 -170 -70q-86 0 -136.5 42zM196 104.5q21 -16.5 54 -16.5
q61 0 100 38.5t39 95.5v22l-137 -23q-39 -8 -58 -25.5t-19 -46.5q0 -28 21 -44.5zM151 756h281v-97h-281v97z" />
    <glyph glyph-name="Abreve" unicode="&#x102;" horiz-adv-x="712" 
d="M268 745h176l257 -745h-148l-53 160h-288l-54 -160h-147zM461 280l-105 314l-105 -314h210zM276 862q-37 20 -59 54t-22 72h103q0 -23 16.5 -38.5t41.5 -15.5t41.5 15.5t16.5 38.5h103q0 -39 -21.5 -72.5t-58.5 -53.5t-81 -20q-43 0 -80 20z" />
    <glyph glyph-name="abreve" unicode="&#x103;" horiz-adv-x="580" 
d="M89.5 30q-50.5 42 -50.5 114q0 69 47 114t141 60l162 26v18q0 36 -27.5 59t-72.5 23q-42 0 -74.5 -22.5t-47.5 -59.5l-107 52q24 64 88 103t146 39q66 0 117.5 -24.5t80 -69t28.5 -100.5v-362h-124v58q-64 -70 -170 -70q-86 0 -136.5 42zM196 104.5q21 -16.5 54 -16.5
q61 0 100 38.5t39 95.5v22l-137 -23q-39 -8 -58 -25.5t-19 -46.5q0 -28 21 -44.5zM211 660q-37 20 -59 54t-22 72h103q0 -23 16.5 -38.5t41.5 -15.5t41.5 15.5t16.5 38.5h103q0 -39 -21.5 -72.5t-58.5 -53.5t-81 -20q-43 0 -80 20z" />
    <glyph glyph-name="Aogonek" unicode="&#x104;" horiz-adv-x="712" 
d="M268 745h176l257 -745h-89q-60 -25 -60 -65q0 -21 15.5 -33.5t44.5 -12.5q43 0 87 28l40 -68q-64 -51 -140 -51q-64 0 -105 30t-41 81q0 39 24.5 70t66.5 49l-44 132h-288l-54 -160h-147zM461 280l-105 314l-105 -314h210z" />
    <glyph glyph-name="aogonek" unicode="&#x105;" horiz-adv-x="580" 
d="M89.5 30q-50.5 42 -50.5 114q0 69 47 114t141 60l162 26v18q0 36 -27.5 59t-72.5 23q-42 0 -74.5 -22.5t-47.5 -59.5l-107 52q24 64 88 103t146 39q66 0 117.5 -24.5t80 -69t28.5 -100.5v-362h-33q-70 -26 -70 -69q0 -21 15.5 -33.5t44.5 -12.5q43 0 87 28l40 -68
q-64 -51 -140 -51q-64 0 -105 30t-41 81q0 36 21 65.5t57 47.5v40q-64 -70 -170 -70q-86 0 -136.5 42zM196 104.5q21 -16.5 54 -16.5q61 0 100 38.5t39 95.5v22l-137 -23q-39 -8 -58 -25.5t-19 -46.5q0 -28 21 -44.5z" />
    <glyph glyph-name="Cacute" unicode="&#x106;" horiz-adv-x="774" 
d="M232 38q-85 50 -133.5 138t-48.5 197t48.5 197t133 137.5t190.5 49.5q77 0 141 -26.5t108.5 -71t64.5 -98.5l-122 -57q-22 58 -73 93.5t-119 35.5q-69 0 -123 -32.5t-83.5 -91.5t-29.5 -136t29.5 -136.5t83.5 -92t123 -32.5q68 0 119 35.5t73 93.5l122 -57
q-20 -54 -64.5 -98.5t-108.5 -71t-141 -26.5q-105 0 -190 50zM393 986h147l-96 -144h-114z" />
    <glyph glyph-name="cacute" unicode="&#x107;" horiz-adv-x="608" 
d="M177.5 25.5q-65.5 37.5 -102.5 102.5t-37 145t37 144.5t102 101.5t146 37q87 0 155 -44.5t93 -116.5l-114 -50q-16 42 -52 66.5t-82 24.5q-42 0 -76 -21t-53.5 -58.5t-19.5 -84.5t19.5 -84.5t53.5 -58.5t76 -21q47 0 82.5 24.5t51.5 67.5l114 -52q-24 -71 -92.5 -115.5
t-155.5 -44.5q-80 0 -145.5 37.5zM329 784h147l-96 -144h-114z" />
    <glyph glyph-name="Ccircumflex" unicode="&#x108;" horiz-adv-x="774" 
d="M232 38q-85 50 -133.5 138t-48.5 197t48.5 197t133 137.5t190.5 49.5q77 0 141 -26.5t108.5 -71t64.5 -98.5l-122 -57q-22 58 -73 93.5t-119 35.5q-69 0 -123 -32.5t-83.5 -91.5t-29.5 -136t29.5 -136.5t83.5 -92t123 -32.5q68 0 119 35.5t73 93.5l122 -57
q-20 -54 -64.5 -98.5t-108.5 -71t-141 -26.5q-105 0 -190 50zM318 986h136l120 -144h-119l-68 79l-66 -79h-122z" />
    <glyph glyph-name="ccircumflex" unicode="&#x109;" horiz-adv-x="608" 
d="M177.5 25.5q-65.5 37.5 -102.5 102.5t-37 145t37 144.5t102 101.5t146 37q87 0 155 -44.5t93 -116.5l-114 -50q-16 42 -52 66.5t-82 24.5q-42 0 -76 -21t-53.5 -58.5t-19.5 -84.5t19.5 -84.5t53.5 -58.5t76 -21q47 0 82.5 24.5t51.5 67.5l114 -52q-24 -71 -92.5 -115.5
t-155.5 -44.5q-80 0 -145.5 37.5zM253 784h136l120 -144h-119l-68 79l-66 -79h-122z" />
    <glyph glyph-name="Cdotaccent" unicode="&#x10a;" horiz-adv-x="774" 
d="M232 38q-85 50 -133.5 138t-48.5 197t48.5 197t133 137.5t190.5 49.5q77 0 141 -26.5t108.5 -71t64.5 -98.5l-122 -57q-22 58 -73 93.5t-119 35.5q-69 0 -123 -32.5t-83.5 -91.5t-29.5 -136t29.5 -136.5t83.5 -92t123 -32.5q68 0 119 35.5t73 93.5l122 -57
q-20 -54 -64.5 -98.5t-108.5 -71t-141 -26.5q-105 0 -190 50zM336 868.5q-21 21.5 -21 51.5t21 51t52 21q29 0 50.5 -21t21.5 -51t-21 -51.5t-51 -21.5q-31 0 -52 21.5z" />
    <glyph glyph-name="cdotaccent" unicode="&#x10b;" horiz-adv-x="608" 
d="M177.5 25.5q-65.5 37.5 -102.5 102.5t-37 145t37 144.5t102 101.5t146 37q87 0 155 -44.5t93 -116.5l-114 -50q-16 42 -52 66.5t-82 24.5q-42 0 -76 -21t-53.5 -58.5t-19.5 -84.5t19.5 -84.5t53.5 -58.5t76 -21q47 0 82.5 24.5t51.5 67.5l114 -52q-24 -71 -92.5 -115.5
t-155.5 -44.5q-80 0 -145.5 37.5zM271 666.5q-21 21.5 -21 51.5t21 51t52 21q29 0 50.5 -21t21.5 -51t-21 -51.5t-51 -21.5q-31 0 -52 21.5z" />
    <glyph glyph-name="Ccaron" unicode="&#x10c;" horiz-adv-x="774" 
d="M232 38q-85 50 -133.5 138t-48.5 197t48.5 197t133 137.5t190.5 49.5q77 0 141 -26.5t108.5 -71t64.5 -98.5l-122 -57q-22 58 -73 93.5t-119 35.5q-69 0 -123 -32.5t-83.5 -91.5t-29.5 -136t29.5 -136.5t83.5 -92t123 -32.5q68 0 119 35.5t73 93.5l122 -57
q-20 -54 -64.5 -98.5t-108.5 -71t-141 -26.5q-105 0 -190 50zM200 986h122l66 -79l68 79h119l-120 -144h-136z" />
    <glyph glyph-name="ccaron" unicode="&#x10d;" horiz-adv-x="608" 
d="M177.5 25.5q-65.5 37.5 -102.5 102.5t-37 145t37 144.5t102 101.5t146 37q87 0 155 -44.5t93 -116.5l-114 -50q-16 42 -52 66.5t-82 24.5q-42 0 -76 -21t-53.5 -58.5t-19.5 -84.5t19.5 -84.5t53.5 -58.5t76 -21q47 0 82.5 24.5t51.5 67.5l114 -52q-24 -71 -92.5 -115.5
t-155.5 -44.5q-80 0 -145.5 37.5zM135 784h122l66 -79l68 79h119l-120 -144h-136z" />
    <glyph glyph-name="Dcaron" unicode="&#x10e;" horiz-adv-x="740" 
d="M72 745h243q117 0 205 -47t136 -131.5t48 -193.5q0 -108 -48 -193t-136.5 -132.5t-204.5 -47.5h-243v745zM318 120q75 0 131.5 31t87 88.5t30.5 133.5t-30.5 133t-87 88t-131.5 31h-110v-505h110zM189 986h122l66 -79l68 79h119l-120 -144h-136z" />
    <glyph glyph-name="dcaron" unicode="&#x10f;" horiz-adv-x="845" 
d="M173.5 25.5q-62.5 37.5 -98.5 102.5t-36 144t36 144t99 102.5t139 37.5q52 0 95 -17.5t72 -49.5v268h131v-757h-124v60q-30 -35 -75 -53.5t-98 -18.5q-78 0 -140.5 37.5zM194.5 187.5q19.5 -37.5 54.5 -58.5t79 -21t78.5 21t54 58.5t19.5 84.5t-19.5 84.5t-54.5 58.5
t-78 21q-44 0 -79 -21.5t-54.5 -59t-19.5 -83.5q0 -47 19.5 -84.5zM692 830h141l-19 -184h-103z" />
    <glyph glyph-name="Dcroat" unicode="&#x110;" horiz-adv-x="740" 
d="M72 331h-95v84h95v330h243q117 0 205 -47t136 -131.5t48 -193.5q0 -108 -48 -193t-136.5 -132.5t-204.5 -47.5h-243v331zM318 120q75 0 131.5 31t87 88.5t30.5 133.5t-30.5 133t-87 88t-131.5 31h-110v-210h195v-84h-195v-211h110z" />
    <glyph glyph-name="dcroat" unicode="&#x111;" horiz-adv-x="672" 
d="M173.5 25.5q-62.5 37.5 -98.5 102.5t-36 144t36 144t99 102.5t139 37.5q52 0 95 -17.5t72 -49.5v109h-96v84h96v75h131v-75h98v-84h-98v-598h-124v60q-30 -35 -75 -53.5t-98 -18.5q-78 0 -140.5 37.5zM194.5 187.5q19.5 -37.5 54.5 -58.5t79 -21t78.5 21t54 58.5
t19.5 84.5t-19.5 84.5t-54.5 58.5t-78 21q-44 0 -79 -21.5t-54.5 -59t-19.5 -83.5q0 -47 19.5 -84.5z" />
    <glyph glyph-name="Emacron" unicode="&#x112;" horiz-adv-x="595" 
d="M72 745h495v-120h-359v-191h339v-120h-339v-194h359v-120h-495v745zM180 958h281v-97h-281v97z" />
    <glyph glyph-name="emacron" unicode="&#x113;" horiz-adv-x="612" 
d="M173.5 26q-63.5 38 -99 103t-35.5 144q0 80 35.5 144.5t97 101.5t137.5 37q82 0 142 -35.5t91.5 -96.5t31.5 -134q0 -34 -7 -55h-392q6 -60 46 -96t99 -36q44 0 75.5 18.5t50.5 51.5l106 -52q-25 -60 -88 -96.5t-145 -36.5t-145.5 38zM434 335q-5 50 -39 81.5t-86 31.5
q-50 0 -85 -29.5t-46 -83.5h256zM167 756h281v-97h-281v97z" />
    <glyph glyph-name="Ebreve" unicode="&#x114;" horiz-adv-x="595" 
d="M72 745h495v-120h-359v-191h339v-120h-339v-194h359v-120h-495v745zM240 862q-37 20 -59 54t-22 72h103q0 -23 16.5 -38.5t41.5 -15.5t41.5 15.5t16.5 38.5h103q0 -39 -21.5 -72.5t-58.5 -53.5t-81 -20q-43 0 -80 20z" />
    <glyph glyph-name="ebreve" unicode="&#x115;" horiz-adv-x="612" 
d="M173.5 26q-63.5 38 -99 103t-35.5 144q0 80 35.5 144.5t97 101.5t137.5 37q82 0 142 -35.5t91.5 -96.5t31.5 -134q0 -34 -7 -55h-392q6 -60 46 -96t99 -36q44 0 75.5 18.5t50.5 51.5l106 -52q-25 -60 -88 -96.5t-145 -36.5t-145.5 38zM434 335q-5 50 -39 81.5t-86 31.5
q-50 0 -85 -29.5t-46 -83.5h256zM227 660q-37 20 -59 54t-22 72h103q0 -23 16.5 -38.5t41.5 -15.5t41.5 15.5t16.5 38.5h103q0 -39 -21.5 -72.5t-58.5 -53.5t-81 -20q-43 0 -80 20z" />
    <glyph glyph-name="Edotaccent" unicode="&#x116;" horiz-adv-x="595" 
d="M72 745h495v-120h-359v-191h339v-120h-339v-194h359v-120h-495v745zM268 868.5q-21 21.5 -21 51.5t21 51t52 21q29 0 50.5 -21t21.5 -51t-21 -51.5t-51 -21.5q-31 0 -52 21.5z" />
    <glyph glyph-name="edotaccent" unicode="&#x117;" horiz-adv-x="612" 
d="M173.5 26q-63.5 38 -99 103t-35.5 144q0 80 35.5 144.5t97 101.5t137.5 37q82 0 142 -35.5t91.5 -96.5t31.5 -134q0 -34 -7 -55h-392q6 -60 46 -96t99 -36q44 0 75.5 18.5t50.5 51.5l106 -52q-25 -60 -88 -96.5t-145 -36.5t-145.5 38zM434 335q-5 50 -39 81.5t-86 31.5
q-50 0 -85 -29.5t-46 -83.5h256zM255 666.5q-21 21.5 -21 51.5t21 51t52 21q29 0 50.5 -21t21.5 -51t-21 -51.5t-51 -21.5q-31 0 -52 21.5z" />
    <glyph glyph-name="Eogonek" unicode="&#x118;" horiz-adv-x="595" 
d="M72 745h495v-120h-359v-191h339v-120h-339v-194h359v-120h-116q-60 -25 -60 -65q0 -21 15.5 -33.5t44.5 -12.5q43 0 87 28l40 -68q-64 -51 -140 -51q-64 0 -105 30t-41 81q0 52 44 91h-264v745z" />
    <glyph glyph-name="eogonek" unicode="&#x119;" horiz-adv-x="612" 
d="M289 -11q-46 -23 -46 -58q0 -21 15.5 -33.5t44.5 -12.5q43 0 87 28l40 -68q-64 -51 -140 -51q-64 0 -105 30t-41 81q0 32 16.5 59t45.5 46q-77 31 -122 102t-45 161q0 80 35.5 144.5t97 101.5t137.5 37q82 0 142 -35.5t91.5 -96.5t31.5 -134q0 -34 -7 -55h-392
q6 -60 46 -96t99 -36q44 0 75.5 18.5t50.5 51.5l106 -52q-25 -60 -88 -96.5t-145 -36.5q-20 0 -30 1zM434 335q-5 50 -39 81.5t-86 31.5q-50 0 -85 -29.5t-46 -83.5h256z" />
    <glyph glyph-name="Ecaron" unicode="&#x11a;" horiz-adv-x="595" 
d="M72 745h495v-120h-359v-191h339v-120h-339v-194h359v-120h-495v745zM132 986h122l66 -79l68 79h119l-120 -144h-136z" />
    <glyph glyph-name="ecaron" unicode="&#x11b;" horiz-adv-x="612" 
d="M173.5 26q-63.5 38 -99 103t-35.5 144q0 80 35.5 144.5t97 101.5t137.5 37q82 0 142 -35.5t91.5 -96.5t31.5 -134q0 -34 -7 -55h-392q6 -60 46 -96t99 -36q44 0 75.5 18.5t50.5 51.5l106 -52q-25 -60 -88 -96.5t-145 -36.5t-145.5 38zM434 335q-5 50 -39 81.5t-86 31.5
q-50 0 -85 -29.5t-46 -83.5h256zM119 784h122l66 -79l68 79h119l-120 -144h-136z" />
    <glyph glyph-name="Gcircumflex" unicode="&#x11c;" horiz-adv-x="808" 
d="M234 38q-86 50 -135 138t-49 197t48.5 197t133 137.5t190.5 49.5q77 0 141 -26.5t108.5 -71t64.5 -98.5l-121 -58q-22 59 -72.5 94.5t-120.5 35.5q-69 0 -123 -32.5t-83.5 -91.5t-29.5 -136t30.5 -136.5t85 -92t123.5 -32.5q57 0 105.5 23t77 65t28.5 97v3h-214v115h350
v-75q0 -111 -48.5 -190.5t-128 -120.5t-170.5 -41q-105 0 -191 50zM335 986h136l120 -144h-119l-68 79l-66 -79h-122z" />
    <glyph glyph-name="gcircumflex" unicode="&#x11d;" horiz-adv-x="652" 
d="M163.5 -176.5q-69.5 43.5 -95.5 115.5l122 46q12 -39 48 -62t87 -23q60 0 97.5 34t37.5 93v59q-58 -64 -157 -64q-75 0 -135.5 35t-94.5 96t-34 137t33.5 136.5t93.5 95t134 34.5q105 0 167 -74v62h124v-517q0 -71 -34 -127.5t-94.5 -88t-137.5 -31.5q-92 0 -161.5 43.5z
M215.5 184.5q40.5 -41.5 103.5 -41.5q62 0 101.5 41t39.5 105t-40 105.5t-101 41.5q-62 0 -103 -42t-41 -105t40.5 -104.5zM256 784h136l120 -144h-119l-68 79l-66 -79h-122z" />
    <glyph glyph-name="Gbreve" unicode="&#x11e;" horiz-adv-x="808" 
d="M234 38q-86 50 -135 138t-49 197t48.5 197t133 137.5t190.5 49.5q77 0 141 -26.5t108.5 -71t64.5 -98.5l-121 -58q-22 59 -72.5 94.5t-120.5 35.5q-69 0 -123 -32.5t-83.5 -91.5t-29.5 -136t30.5 -136.5t85 -92t123.5 -32.5q57 0 105.5 23t77 65t28.5 97v3h-214v115h350
v-75q0 -111 -48.5 -190.5t-128 -120.5t-170.5 -41q-105 0 -191 50zM325 862q-37 20 -59 54t-22 72h103q0 -23 16.5 -38.5t41.5 -15.5t41.5 15.5t16.5 38.5h103q0 -39 -21.5 -72.5t-58.5 -53.5t-81 -20q-43 0 -80 20z" />
    <glyph glyph-name="gbreve" unicode="&#x11f;" horiz-adv-x="652" 
d="M163.5 -176.5q-69.5 43.5 -95.5 115.5l122 46q12 -39 48 -62t87 -23q60 0 97.5 34t37.5 93v59q-58 -64 -157 -64q-75 0 -135.5 35t-94.5 96t-34 137t33.5 136.5t93.5 95t134 34.5q105 0 167 -74v62h124v-517q0 -71 -34 -127.5t-94.5 -88t-137.5 -31.5q-92 0 -161.5 43.5z
M215.5 184.5q40.5 -41.5 103.5 -41.5q62 0 101.5 41t39.5 105t-40 105.5t-101 41.5q-62 0 -103 -42t-41 -105t40.5 -104.5zM246 660q-37 20 -59 54t-22 72h103q0 -23 16.5 -38.5t41.5 -15.5t41.5 15.5t16.5 38.5h103q0 -39 -21.5 -72.5t-58.5 -53.5t-81 -20q-43 0 -80 20z
" />
    <glyph glyph-name="Gdotaccent" unicode="&#x120;" horiz-adv-x="808" 
d="M234 38q-86 50 -135 138t-49 197t48.5 197t133 137.5t190.5 49.5q77 0 141 -26.5t108.5 -71t64.5 -98.5l-121 -58q-22 59 -72.5 94.5t-120.5 35.5q-69 0 -123 -32.5t-83.5 -91.5t-29.5 -136t30.5 -136.5t85 -92t123.5 -32.5q57 0 105.5 23t77 65t28.5 97v3h-214v115h350
v-75q0 -111 -48.5 -190.5t-128 -120.5t-170.5 -41q-105 0 -191 50zM353 868.5q-21 21.5 -21 51.5t21 51t52 21q29 0 50.5 -21t21.5 -51t-21 -51.5t-51 -21.5q-31 0 -52 21.5z" />
    <glyph glyph-name="gdotaccent" unicode="&#x121;" horiz-adv-x="652" 
d="M163.5 -176.5q-69.5 43.5 -95.5 115.5l122 46q12 -39 48 -62t87 -23q60 0 97.5 34t37.5 93v59q-58 -64 -157 -64q-75 0 -135.5 35t-94.5 96t-34 137t33.5 136.5t93.5 95t134 34.5q105 0 167 -74v62h124v-517q0 -71 -34 -127.5t-94.5 -88t-137.5 -31.5q-92 0 -161.5 43.5z
M215.5 184.5q40.5 -41.5 103.5 -41.5q62 0 101.5 41t39.5 105t-40 105.5t-101 41.5q-62 0 -103 -42t-41 -105t40.5 -104.5zM274 666.5q-21 21.5 -21 51.5t21 51t52 21q29 0 50.5 -21t21.5 -51t-21 -51.5t-51 -21.5q-31 0 -52 21.5z" />
    <glyph glyph-name="uni0122" unicode="&#x122;" horiz-adv-x="808" 
d="M234 38q-86 50 -135 138t-49 197t48.5 197t133 137.5t190.5 49.5q77 0 141 -26.5t108.5 -71t64.5 -98.5l-121 -58q-22 59 -72.5 94.5t-120.5 35.5q-69 0 -123 -32.5t-83.5 -91.5t-29.5 -136t30.5 -136.5t85 -92t123.5 -32.5q57 0 105.5 23t77 65t28.5 97v3h-214v115h350
v-75q0 -111 -48.5 -190.5t-128 -120.5t-170.5 -41q-105 0 -191 50zM410 -220h-61v140h132v-86q0 -88 -38.5 -141t-113.5 -69v63q69 17 81 93z" />
    <glyph glyph-name="uni0123" unicode="&#x123;" horiz-adv-x="652" 
d="M163.5 -176.5q-69.5 43.5 -95.5 115.5l122 46q12 -39 48 -62t87 -23q60 0 97.5 34t37.5 93v59q-58 -64 -157 -64q-75 0 -135.5 35t-94.5 96t-34 137t33.5 136.5t93.5 95t134 34.5q105 0 167 -74v62h124v-517q0 -71 -34 -127.5t-94.5 -88t-137.5 -31.5q-92 0 -161.5 43.5z
M215.5 184.5q40.5 -41.5 103.5 -41.5q62 0 101.5 41t39.5 105t-40 105.5t-101 41.5q-62 0 -103 -42t-41 -105t40.5 -104.5zM299 829.5q39 51.5 113 67.5v-64q-33 -8 -54.5 -30t-26.5 -52h61v-140h-132v86q0 81 39 132.5z" />
    <glyph glyph-name="Hcircumflex" unicode="&#x124;" horiz-adv-x="733" 
d="M72 745h136v-325h317v325h137v-745h-137v300h-317v-300h-136v745zM297 986h136l120 -144h-119l-68 79l-66 -79h-122z" />
    <glyph glyph-name="hcircumflex" unicode="&#x125;" 
d="M61 757h131v-267q23 32 61 49t85 17q59 0 106 -26t73 -73t26 -107v-350h-131v319q0 53 -30.5 85t-79.5 32q-48 0 -79 -32t-31 -85v-319h-131v757zM57 995h136l120 -144h-119l-68 79l-66 -79h-122z" />
    <glyph glyph-name="Hbar" unicode="&#x126;" horiz-adv-x="733" 
d="M72 553h-86v84h86v108h136v-108h317v108h137v-108h85v-84h-85v-553h-137v300h-317v-300h-136v553zM525 420v133h-317v-133h317z" />
    <glyph glyph-name="hbar" unicode="&#x127;" 
d="M61 598h-98v84h98v75h131v-75h97v-84h-97v-108q23 32 61 49t85 17q59 0 106 -26t73 -73t26 -107v-350h-131v319q0 53 -30.5 85t-79.5 32q-48 0 -79 -32t-31 -85v-319h-131v598z" />
    <glyph glyph-name="Itilde" unicode="&#x128;" horiz-adv-x="279" 
d="M72 745h136v-745h-136v745zM171 861q-16 7 -37 22q-12 10 -21 14.5t-19 4.5q-28 0 -32 -44h-83q0 68 26.5 100.5t69.5 32.5q23 0 39 -7.5t33 -21.5q13 -10 21 -14.5t19 -4.5q14 0 22 12.5t8 30.5h84q0 -69 -22.5 -100.5t-66.5 -31.5q-25 0 -41 7z" />
    <glyph glyph-name="itilde" unicode="&#x129;" horiz-adv-x="228" 
d="M49 544h131v-544h-131v544zM145 659q-16 7 -37 22q-12 10 -21 14.5t-19 4.5q-28 0 -32 -44h-83q0 68 26.5 100.5t69.5 32.5q23 0 39 -7.5t33 -21.5q13 -10 21 -14.5t19 -4.5q14 0 22 12.5t8 30.5h84q0 -69 -22.5 -100.5t-66.5 -31.5q-25 0 -41 7z" />
    <glyph glyph-name="Imacron" unicode="&#x12a;" horiz-adv-x="279" 
d="M72 745h136v-745h-136v745zM0 958h281v-97h-281v97z" />
    <glyph glyph-name="imacron" unicode="&#x12b;" horiz-adv-x="228" 
d="M49 544h131v-544h-131v544zM-26 756h281v-97h-281v97z" />
    <glyph glyph-name="Ibreve" unicode="&#x12c;" horiz-adv-x="279" 
d="M72 745h136v-745h-136v745zM60 862q-37 20 -59 54t-22 72h103q0 -23 16.5 -38.5t41.5 -15.5t41.5 15.5t16.5 38.5h103q0 -39 -21.5 -72.5t-58.5 -53.5t-81 -20q-43 0 -80 20z" />
    <glyph glyph-name="ibreve" unicode="&#x12d;" horiz-adv-x="228" 
d="M49 544h131v-544h-131v544zM34 660q-37 20 -59 54t-22 72h103q0 -23 16.5 -38.5t41.5 -15.5t41.5 15.5t16.5 38.5h103q0 -39 -21.5 -72.5t-58.5 -53.5t-81 -20q-43 0 -80 20z" />
    <glyph glyph-name="Iogonek" unicode="&#x12e;" horiz-adv-x="279" 
d="M5.5 -172q-41.5 30 -41.5 81q0 43 29.5 76.5t78.5 49.5v710h136v-745h-84q-60 -25 -60 -65q0 -21 15.5 -33.5t44.5 -12.5q43 0 87 28l40 -68q-64 -51 -140 -51q-64 0 -105.5 30z" />
    <glyph glyph-name="iogonek" unicode="&#x12f;" horiz-adv-x="228" 
d="M62 666.5q-21 21.5 -21 51.5t21 51t52 21q29 0 50.5 -21t21.5 -51t-21 -51.5t-51 -21.5q-31 0 -52 21.5zM-31.5 -17.5q30.5 33.5 80.5 49.5v512h131v-544h-72q-70 -26 -70 -69q0 -21 15.5 -33.5t44.5 -12.5q43 0 87 28l40 -68q-64 -51 -140 -51q-64 0 -105.5 30t-41.5 81
q0 44 30.5 77.5z" />
    <glyph glyph-name="Idotaccent" unicode="&#x130;" horiz-adv-x="279" 
d="M72 745h136v-745h-136v745zM88 868.5q-21 21.5 -21 51.5t21 51t52 21q29 0 50.5 -21t21.5 -51t-21 -51.5t-51 -21.5q-31 0 -52 21.5z" />
    <glyph glyph-name="dotlessi" unicode="&#x131;" horiz-adv-x="228" 
d="M49 544h131v-544h-131v544z" />
    <glyph glyph-name="Jcircumflex" unicode="&#x134;" horiz-adv-x="393" 
d="M39 125h43q48 0 76.5 27.5t28.5 73.5v519h137v-514q0 -69 -29.5 -121.5t-84.5 -81t-128 -28.5h-43v125zM186 986h136l120 -144h-119l-68 79l-66 -79h-122z" />
    <glyph glyph-name="jcircumflex" unicode="&#x135;" horiz-adv-x="252" 
d="M-65 -217v113q18 -3 36 -3q43 0 66.5 20t23.5 59v572h131v-572q0 -92 -55 -143t-151 -51q-29 0 -51 5zM57 784h136l120 -144h-119l-68 79l-66 -79h-122z" />
    <glyph glyph-name="uni0136" unicode="&#x136;" horiz-adv-x="679" 
d="M72 745h136v-331l280 331h171l-258 -306l267 -439h-160l-200 328l-100 -119v-209h-136v745zM345 -220h-61v140h132v-86q0 -88 -38.5 -141t-113.5 -69v63q69 17 81 93z" />
    <glyph glyph-name="uni0137" unicode="&#x137;" horiz-adv-x="577" 
d="M61 757h131v-429l206 216h163l-201 -219l205 -325h-150l-153 242l-70 -76v-166h-131v757zM294 -220h-61v140h132v-86q0 -88 -38.5 -141t-113.5 -69v63q69 17 81 93z" />
    <glyph glyph-name="kgreenlandic" unicode="&#x138;" horiz-adv-x="577" 
d="M259 225h-67v-225h-131v544h131v-202h74l130 202h146l-168 -266l192 -278h-150z" />
    <glyph glyph-name="Lacute" unicode="&#x139;" horiz-adv-x="543" 
d="M72 745h136v-625h319v-120h-455v745zM146 986h147l-96 -144h-114z" />
    <glyph glyph-name="lacute" unicode="&#x13a;" horiz-adv-x="252" 
d="M61 757h131v-757h-131v757zM132 986h147l-96 -144h-114z" />
    <glyph glyph-name="uni013B" unicode="&#x13b;" horiz-adv-x="543" 
d="M72 745h136v-625h319v-120h-455v745zM304 -220h-61v140h132v-86q0 -88 -38.5 -141t-113.5 -69v63q69 17 81 93z" />
    <glyph glyph-name="uni013C" unicode="&#x13c;" horiz-adv-x="252" 
d="M61 757h131v-757h-131v757zM131 -220h-61v140h132v-86q0 -88 -38.5 -141t-113.5 -69v63q69 17 81 93z" />
    <glyph glyph-name="Lcaron" unicode="&#x13d;" horiz-adv-x="631" 
d="M72 745h136v-625h319v-120h-455v745zM363 745h141l-19 -184h-103z" />
    <glyph glyph-name="lcaron" unicode="&#x13e;" horiz-adv-x="426" 
d="M61 757h131v-757h-131v757zM273 830h141l-19 -184h-103z" />
    <glyph glyph-name="Ldot" unicode="&#x13f;" horiz-adv-x="543" 
d="M72 745h136v-625h319v-120h-455v745zM316.5 423q21.5 21 51.5 21t51 -21t21 -51q0 -31 -21 -52t-51 -21t-51.5 21.5t-21.5 51.5t21.5 51z" />
    <glyph glyph-name="ldot" unicode="&#x140;" horiz-adv-x="428" 
d="M61 757h131v-757h-131v757zM273.5 423q21.5 21 51.5 21t51 -21t21 -51q0 -31 -21 -52t-51 -21t-51.5 21.5t-21.5 51.5t21.5 51z" />
    <glyph glyph-name="Lslash" unicode="&#x141;" horiz-adv-x="543" 
d="M72 309l-101 -30v88l101 30v348h136v-308l101 30v-88l-101 -30v-229h319v-120h-455v309z" />
    <glyph glyph-name="lslash" unicode="&#x142;" horiz-adv-x="252" 
d="M61 324l-79 -27v89l79 27v344h131v-298l78 27v-89l-78 -27v-370h-131v324z" />
    <glyph glyph-name="Nacute" unicode="&#x143;" horiz-adv-x="741" 
d="M72 745h106l355 -478v478h136v-745h-107l-354 487v-487h-136v745zM376 986h147l-96 -144h-114z" />
    <glyph glyph-name="nacute" unicode="&#x144;" 
d="M61 544h123v-67q21 38 61.5 58.5t92.5 20.5q59 0 106 -26t73 -73t26 -107v-350h-131v319q0 53 -30.5 85t-79.5 32t-79.5 -32t-30.5 -85v-319h-131v544zM303 784h147l-96 -144h-114z" />
    <glyph glyph-name="uni0145" unicode="&#x145;" horiz-adv-x="741" 
d="M72 745h106l355 -478v478h136v-745h-107l-354 487v-487h-136v745zM376 -220h-61v140h132v-86q0 -88 -38.5 -141t-113.5 -69v63q69 17 81 93z" />
    <glyph glyph-name="uni0146" unicode="&#x146;" 
d="M61 544h123v-67q21 38 61.5 58.5t92.5 20.5q59 0 106 -26t73 -73t26 -107v-350h-131v319q0 53 -30.5 85t-79.5 32t-79.5 -32t-30.5 -85v-319h-131v544zM302 -220h-61v140h132v-86q0 -88 -38.5 -141t-113.5 -69v63q69 17 81 93z" />
    <glyph glyph-name="Ncaron" unicode="&#x147;" horiz-adv-x="741" 
d="M72 745h106l355 -478v478h136v-745h-107l-354 487v-487h-136v745zM183 986h122l66 -79l68 79h119l-120 -144h-136z" />
    <glyph glyph-name="ncaron" unicode="&#x148;" 
d="M61 544h123v-67q21 38 61.5 58.5t92.5 20.5q59 0 106 -26t73 -73t26 -107v-350h-131v319q0 53 -30.5 85t-79.5 32t-79.5 -32t-30.5 -85v-319h-131v544zM109 784h122l66 -79l68 79h119l-120 -144h-136z" />
    <glyph glyph-name="Eng" unicode="&#x14a;" horiz-adv-x="741" 
d="M413 -217v115q18 -3 36 -3q43 0 65.5 19.5t22.5 57.5v62l-329 454v-488h-136v745h106l355 -478v478h136v-773q0 -92 -55 -143t-151 -51q-30 0 -50 5z" />
    <glyph glyph-name="eng" unicode="&#x14b;" horiz-adv-x="600" 
d="M280 -217v113q18 -3 36 -3q42 0 65.5 20t23.5 59v347q0 53 -30.5 85t-79.5 32q-48 0 -79 -32t-31 -85v-319h-131v544h124v-65q22 38 61.5 57.5t91.5 19.5q59 0 106 -26t73 -73t26 -107v-378q0 -92 -55 -143t-150 -51q-31 0 -51 5z" />
    <glyph glyph-name="Omacron" unicode="&#x14c;" horiz-adv-x="878" 
d="M241 38.5q-89 50.5 -140 138.5t-51 196t51 196t140 138t198 50t198 -50t140.5 -138t51.5 -196t-51.5 -196t-140.5 -138.5t-198 -50.5t-198 50.5zM219 239q33 -60 90.5 -93.5t129.5 -33.5t129.5 33.5t90.5 93.5t33 134t-33 133.5t-90.5 93t-129.5 33.5t-129.5 -33.5
t-90.5 -93t-33 -133.5t33 -134zM299 958h281v-97h-281v97z" />
    <glyph glyph-name="omacron" unicode="&#x14d;" horiz-adv-x="652" 
d="M182 25q-66 37 -104.5 102t-38.5 145t38 145t104 102t146 37q79 0 144.5 -37t104 -102t38.5 -145q0 -81 -38.5 -146t-104.5 -101.5t-144 -36.5q-79 0 -145 37zM217.5 154.5q42.5 -46.5 109.5 -46.5q43 0 77 21t53.5 58.5t19.5 84.5q0 46 -19.5 83.5t-53.5 59t-77 21.5
q-44 0 -78.5 -21.5t-54 -58.5t-19.5 -84q0 -71 42.5 -117.5zM187 756h281v-97h-281v97z" />
    <glyph glyph-name="Obreve" unicode="&#x14e;" horiz-adv-x="878" 
d="M241 38.5q-89 50.5 -140 138.5t-51 196t51 196t140 138t198 50t198 -50t140.5 -138t51.5 -196t-51.5 -196t-140.5 -138.5t-198 -50.5t-198 50.5zM219 239q33 -60 90.5 -93.5t129.5 -33.5t129.5 33.5t90.5 93.5t33 134t-33 133.5t-90.5 93t-129.5 33.5t-129.5 -33.5
t-90.5 -93t-33 -133.5t33 -134zM359 862q-37 20 -59 54t-22 72h103q0 -23 16.5 -38.5t41.5 -15.5t41.5 15.5t16.5 38.5h103q0 -39 -21.5 -72.5t-58.5 -53.5t-81 -20q-43 0 -80 20z" />
    <glyph glyph-name="obreve" unicode="&#x14f;" horiz-adv-x="652" 
d="M182 25q-66 37 -104.5 102t-38.5 145t38 145t104 102t146 37q79 0 144.5 -37t104 -102t38.5 -145q0 -81 -38.5 -146t-104.5 -101.5t-144 -36.5q-79 0 -145 37zM217.5 154.5q42.5 -46.5 109.5 -46.5q43 0 77 21t53.5 58.5t19.5 84.5q0 46 -19.5 83.5t-53.5 59t-77 21.5
q-44 0 -78.5 -21.5t-54 -58.5t-19.5 -84q0 -71 42.5 -117.5zM247 660q-37 20 -59 54t-22 72h103q0 -23 16.5 -38.5t41.5 -15.5t41.5 15.5t16.5 38.5h103q0 -39 -21.5 -72.5t-58.5 -53.5t-81 -20q-43 0 -80 20z" />
    <glyph glyph-name="Ohungarumlaut" unicode="&#x150;" horiz-adv-x="878" 
d="M241 38.5q-89 50.5 -140 138.5t-51 196t51 196t140 138t198 50t198 -50t140.5 -138t51.5 -196t-51.5 -196t-140.5 -138.5t-198 -50.5t-198 50.5zM219 239q33 -60 90.5 -93.5t129.5 -33.5t129.5 33.5t90.5 93.5t33 134t-33 133.5t-90.5 93t-129.5 33.5t-129.5 -33.5
t-90.5 -93t-33 -133.5t33 -134zM352 986h147l-96 -144h-114zM538 986h147l-95 -144h-115z" />
    <glyph glyph-name="ohungarumlaut" unicode="&#x151;" horiz-adv-x="652" 
d="M182 25q-66 37 -104.5 102t-38.5 145t38 145t104 102t146 37q79 0 144.5 -37t104 -102t38.5 -145q0 -81 -38.5 -146t-104.5 -101.5t-144 -36.5q-79 0 -145 37zM217.5 154.5q42.5 -46.5 109.5 -46.5q43 0 77 21t53.5 58.5t19.5 84.5q0 46 -19.5 83.5t-53.5 59t-77 21.5
q-44 0 -78.5 -21.5t-54 -58.5t-19.5 -84q0 -71 42.5 -117.5zM239 784h147l-96 -144h-114zM425 784h147l-95 -144h-115z" />
    <glyph glyph-name="OE" unicode="&#x152;" horiz-adv-x="1221" 
d="M241 38.5q-89 50.5 -140 138.5t-51 196t51 196t140 138t198 50q75 0 141.5 -25.5t116.5 -72.5v86h496v-120h-359v-191h339v-120h-339v-194h359l-1 -120h-495v88q-50 -49 -116.5 -74.5t-141.5 -25.5q-109 0 -198 50.5zM219 239q33 -60 90.5 -93.5t129.5 -33.5t129.5 33.5
t90.5 93.5t33 134t-33 133.5t-90.5 93t-129.5 33.5t-129.5 -33.5t-90.5 -93t-33 -133.5t33 -134z" />
    <glyph glyph-name="oe" unicode="&#x153;" horiz-adv-x="1055" 
d="M182 25q-66 37 -104.5 102t-38.5 145t38 145t104 102t146 37q65 0 122 -26t96 -72q37 46 90.5 72t116.5 26q82 0 142 -35.5t91.5 -96.5t31.5 -134q0 -34 -7 -55h-392q6 -60 45.5 -96t99.5 -36q44 0 75.5 18.5t50.5 51.5l106 -52q-25 -60 -88 -96.5t-145 -36.5
q-67 0 -122.5 26t-94.5 72q-39 -46 -96 -72t-122 -26q-79 0 -145 37zM217.5 154.5q42.5 -46.5 109.5 -46.5q43 0 77 21t53.5 58.5t19.5 84.5q0 46 -19.5 83.5t-53.5 59t-77 21.5q-44 0 -78.5 -21.5t-54 -58.5t-19.5 -84q0 -71 42.5 -117.5zM877 335q-3 50 -38 81.5t-87 31.5
q-50 0 -85.5 -30t-45.5 -83h256z" />
    <glyph glyph-name="Racute" unicode="&#x154;" horiz-adv-x="661" 
d="M72 745h277q76 0 135 -27.5t91.5 -80.5t32.5 -127q0 -76 -36 -130.5t-99 -80.5l171 -299h-154l-154 275h-128v-275h-136v745zM351 395q55 0 88 31.5t33 83.5t-33 83.5t-88 31.5h-143v-230h143zM335 986h147l-96 -144h-114z" />
    <glyph glyph-name="racute" unicode="&#x155;" horiz-adv-x="374" 
d="M61 544h123v-76q20 44 57 63t90 19h32v-116h-47q-56 0 -90 -35t-34 -96v-303h-131v544zM218 784h147l-96 -144h-114z" />
    <glyph glyph-name="uni0156" unicode="&#x156;" horiz-adv-x="661" 
d="M72 745h277q76 0 135 -27.5t91.5 -80.5t32.5 -127q0 -76 -36 -130.5t-99 -80.5l171 -299h-154l-154 275h-128v-275h-136v745zM351 395q55 0 88 31.5t33 83.5t-33 83.5t-88 31.5h-143v-230h143zM335 -220h-61v140h132v-86q0 -88 -38.5 -141t-113.5 -69v63q69 17 81 93z
" />
    <glyph glyph-name="uni0157" unicode="&#x157;" horiz-adv-x="374" 
d="M61 544h123v-76q20 44 57 63t90 19h32v-116h-47q-56 0 -90 -35t-34 -96v-303h-131v544zM131 -220h-61v140h132v-86q0 -88 -38.5 -141t-113.5 -69v63q69 17 81 93z" />
    <glyph glyph-name="Rcaron" unicode="&#x158;" horiz-adv-x="661" 
d="M72 745h277q76 0 135 -27.5t91.5 -80.5t32.5 -127q0 -76 -36 -130.5t-99 -80.5l171 -299h-154l-154 275h-128v-275h-136v745zM351 395q55 0 88 31.5t33 83.5t-33 83.5t-88 31.5h-143v-230h143zM142 986h122l66 -79l68 79h119l-120 -144h-136z" />
    <glyph glyph-name="rcaron" unicode="&#x159;" horiz-adv-x="374" 
d="M61 544h123v-76q20 44 57 63t90 19h32v-116h-47q-56 0 -90 -35t-34 -96v-303h-131v544zM24 784h122l66 -79l68 79h119l-120 -144h-136z" />
    <glyph glyph-name="Sacute" unicode="&#x15a;" horiz-adv-x="647" 
d="M185.5 21q-64.5 33 -100.5 83.5t-46 105.5l128 34q15 -61 60 -95t113 -34q52 0 84.5 26t32.5 62q0 33 -23.5 57.5t-63.5 32.5l-112 22q-89 17 -140 77t-51 146q0 60 34.5 110.5t92 79.5t122.5 29q83 0 141 -28t90.5 -70.5t43.5 -89.5l-127 -40q-21 54 -57 77.5t-91 23.5
q-31 0 -55.5 -13t-38 -33.5t-13.5 -41.5q0 -33 22 -57.5t61 -31.5l106 -23q97 -21 150 -79.5t53 -139.5q0 -58 -32 -109t-91.5 -82.5t-139.5 -31.5q-88 0 -152.5 33zM330 986h147l-96 -144h-114z" />
    <glyph glyph-name="sacute" unicode="&#x15b;" horiz-adv-x="514" 
d="M120.5 28q-62.5 39 -88.5 107l97 50q22 -44 58.5 -68.5t80.5 -24.5q38 0 59.5 15.5t21.5 42.5q0 23 -18 38.5t-47 20.5l-89 15q-69 18 -106.5 61.5t-37.5 102.5q0 49 26 87.5t72.5 59.5t105.5 21q75 0 132 -35.5t83 -98.5l-97 -50q-16 35 -49 56t-73 21q-33 0 -52.5 -15
t-19.5 -39q0 -44 66 -59l87 -16q69 -19 107 -62t38 -102q0 -49 -26.5 -87t-74.5 -59t-111 -21q-82 0 -144.5 39zM263 784h147l-96 -144h-114z" />
    <glyph glyph-name="Scircumflex" unicode="&#x15c;" horiz-adv-x="647" 
d="M185.5 21q-64.5 33 -100.5 83.5t-46 105.5l128 34q15 -61 60 -95t113 -34q52 0 84.5 26t32.5 62q0 33 -23.5 57.5t-63.5 32.5l-112 22q-89 17 -140 77t-51 146q0 60 34.5 110.5t92 79.5t122.5 29q83 0 141 -28t90.5 -70.5t43.5 -89.5l-127 -40q-21 54 -57 77.5t-91 23.5
q-31 0 -55.5 -13t-38 -33.5t-13.5 -41.5q0 -33 22 -57.5t61 -31.5l106 -23q97 -21 150 -79.5t53 -139.5q0 -58 -32 -109t-91.5 -82.5t-139.5 -31.5q-88 0 -152.5 33zM254 986h136l120 -144h-119l-68 79l-66 -79h-122z" />
    <glyph glyph-name="scircumflex" unicode="&#x15d;" horiz-adv-x="514" 
d="M120.5 28q-62.5 39 -88.5 107l97 50q22 -44 58.5 -68.5t80.5 -24.5q38 0 59.5 15.5t21.5 42.5q0 23 -18 38.5t-47 20.5l-89 15q-69 18 -106.5 61.5t-37.5 102.5q0 49 26 87.5t72.5 59.5t105.5 21q75 0 132 -35.5t83 -98.5l-97 -50q-16 35 -49 56t-73 21q-33 0 -52.5 -15
t-19.5 -39q0 -44 66 -59l87 -16q69 -19 107 -62t38 -102q0 -49 -26.5 -87t-74.5 -59t-111 -21q-82 0 -144.5 39zM188 784h136l120 -144h-119l-68 79l-66 -79h-122z" />
    <glyph glyph-name="Scedilla" unicode="&#x15e;" horiz-adv-x="647" 
d="M235 -240l12 68q24 -9 62 -9q24 0 37.5 8.5t13.5 24.5q0 13 -8.5 20.5t-24.5 7.5q-24 0 -39 -5l-23 11l14 106q-103 16 -164.5 79t-75.5 139l128 34q15 -61 60 -95t113 -34q52 0 84.5 26t32.5 62q0 33 -23.5 57.5t-63.5 32.5l-112 22q-89 17 -140 77t-51 146
q0 60 34.5 110.5t92 79.5t122.5 29q83 0 141 -28t90.5 -70.5t43.5 -89.5l-127 -40q-21 54 -57 77.5t-91 23.5q-31 0 -55.5 -13t-38 -33.5t-13.5 -41.5q0 -33 22 -57.5t61 -31.5l106 -23q97 -21 150 -79.5t53 -139.5q0 -54 -28 -103t-81.5 -81t-125.5 -38l-4 -51q5 1 15 1
q39 0 64 -23t25 -61q0 -46 -38 -76t-109 -30q-48 0 -84 11z" />
    <glyph glyph-name="scedilla" unicode="&#x15f;" horiz-adv-x="514" 
d="M168 -240l12 68q24 -9 62 -9q24 0 37.5 8.5t13.5 24.5q0 13 -8.5 20.5t-24.5 7.5q-24 0 -39 -5l-23 11l14 107q-64 11 -111.5 48.5t-68.5 93.5l97 50q22 -44 58.5 -68.5t80.5 -24.5q38 0 59.5 15.5t21.5 42.5q0 23 -18 38.5t-47 20.5l-89 15q-69 18 -106.5 61.5
t-37.5 102.5q0 49 26 87.5t72.5 59.5t105.5 21q75 0 132 -35.5t83 -98.5l-97 -50q-16 35 -49 56t-73 21q-33 0 -52.5 -15t-19.5 -39q0 -44 66 -59l87 -16q69 -19 107 -62t38 -102q0 -68 -48 -113t-130 -53l-4 -52q5 1 15 1q39 0 64 -23t25 -61q0 -46 -38 -76t-109 -30
q-48 0 -84 11z" />
    <glyph glyph-name="Scaron" unicode="&#x160;" horiz-adv-x="647" 
d="M185.5 21q-64.5 33 -100.5 83.5t-46 105.5l128 34q15 -61 60 -95t113 -34q52 0 84.5 26t32.5 62q0 33 -23.5 57.5t-63.5 32.5l-112 22q-89 17 -140 77t-51 146q0 60 34.5 110.5t92 79.5t122.5 29q83 0 141 -28t90.5 -70.5t43.5 -89.5l-127 -40q-21 54 -57 77.5t-91 23.5
q-31 0 -55.5 -13t-38 -33.5t-13.5 -41.5q0 -33 22 -57.5t61 -31.5l106 -23q97 -21 150 -79.5t53 -139.5q0 -58 -32 -109t-91.5 -82.5t-139.5 -31.5q-88 0 -152.5 33zM136 986h122l66 -79l68 79h119l-120 -144h-136z" />
    <glyph glyph-name="scaron" unicode="&#x161;" horiz-adv-x="514" 
d="M120.5 28q-62.5 39 -88.5 107l97 50q22 -44 58.5 -68.5t80.5 -24.5q38 0 59.5 15.5t21.5 42.5q0 23 -18 38.5t-47 20.5l-89 15q-69 18 -106.5 61.5t-37.5 102.5q0 49 26 87.5t72.5 59.5t105.5 21q75 0 132 -35.5t83 -98.5l-97 -50q-16 35 -49 56t-73 21q-33 0 -52.5 -15
t-19.5 -39q0 -44 66 -59l87 -16q69 -19 107 -62t38 -102q0 -49 -26.5 -87t-74.5 -59t-111 -21q-82 0 -144.5 39zM69 784h122l66 -79l68 79h119l-120 -144h-136z" />
    <glyph glyph-name="uni0162" unicode="&#x162;" horiz-adv-x="542" 
d="M204 625h-193v120h520v-120h-190v-625h-137v625zM182 -240l12 68q24 -9 62 -9q24 0 37.5 8.5t13.5 24.5q0 13 -8.5 20.5t-24.5 7.5q-24 0 -39 -5l-23 11l15 114h87l-5 -62q5 1 15 1q39 0 64 -23t25 -61q0 -46 -38 -76t-109 -30q-48 0 -84 11z" />
    <glyph glyph-name="uni0163" unicode="&#x163;" horiz-adv-x="413" 
d="M213 -240l12 68q24 -9 62 -9q24 0 37.5 8.5t13.5 24.5q0 13 -8.5 20.5t-24.5 7.5q-24 0 -39 -5l-23 11l15 113q-68 13 -105 61.5t-37 126.5v240h-94v117h10q40 0 62 21t22 61v42h131v-124h125v-117h-125v-233q0 -85 92 -85q16 0 35 3v-113q-27 -3 -29 -3l-5 -58q5 1 15 1
q39 0 64 -23t25 -61q0 -46 -38 -76t-109 -30q-48 0 -84 11z" />
    <glyph glyph-name="Tcaron" unicode="&#x164;" horiz-adv-x="542" 
d="M204 625h-193v120h520v-120h-190v-625h-137v625zM83 986h122l66 -79l68 79h119l-120 -144h-136z" />
    <glyph glyph-name="tcaron" unicode="&#x165;" horiz-adv-x="491" 
d="M166.5 44.5q-50.5 50.5 -50.5 142.5v240h-94v117h10q40 0 62 21t22 61v42h131v-124h125v-117h-125v-233q0 -85 92 -85q16 0 35 3v-113q-32 -5 -65 -5q-92 0 -142.5 50.5zM330 830h141l-19 -184h-103z" />
    <glyph glyph-name="Tbar" unicode="&#x166;" horiz-adv-x="542" 
d="M204 331h-145v84h145v210h-193v120h520v-120h-190v-210h143v-84h-143v-331h-137v331z" />
    <glyph glyph-name="tbar" unicode="&#x167;" horiz-adv-x="413" 
d="M166.5 44.5q-50.5 50.5 -50.5 142.5v27h-92v116h92v97h-94v117h10q40 0 62 21t22 61v42h131v-124h125v-117h-125v-97h127v-116h-127v-20q0 -85 92 -85q16 0 35 3v-113q-32 -5 -65 -5q-92 0 -142.5 50.5z" />
    <glyph glyph-name="Utilde" unicode="&#x168;" horiz-adv-x="718" 
d="M207 24q-67 36 -105 99.5t-38 142.5v479h136v-472q0 -71 44.5 -116t114.5 -45t114.5 45t44.5 116v472h136v-479q0 -79 -38 -142.5t-105 -99.5t-152 -36t-152 36zM391 861q-16 7 -37 22q-12 10 -21 14.5t-19 4.5q-28 0 -32 -44h-83q0 68 26.5 100.5t69.5 32.5
q23 0 39 -7.5t33 -21.5q13 -10 21 -14.5t19 -4.5q14 0 22 12.5t8 30.5h84q0 -69 -22.5 -100.5t-66.5 -31.5q-25 0 -41 7z" />
    <glyph glyph-name="utilde" unicode="&#x169;" 
d="M105 49q-55 61 -55 162v333h131v-322q0 -51 30.5 -82.5t79.5 -31.5t79.5 32t30.5 85v319h131v-544h-124v65q-22 -38 -61.5 -57.5t-91.5 -19.5q-95 0 -150 61zM328 659q-16 7 -37 22q-12 10 -21 14.5t-19 4.5q-28 0 -32 -44h-83q0 68 26.5 100.5t69.5 32.5q23 0 39 -7.5
t33 -21.5q13 -10 21 -14.5t19 -4.5q14 0 22 12.5t8 30.5h84q0 -69 -22.5 -100.5t-66.5 -31.5q-25 0 -41 7z" />
    <glyph glyph-name="Umacron" unicode="&#x16a;" horiz-adv-x="718" 
d="M207 24q-67 36 -105 99.5t-38 142.5v479h136v-472q0 -71 44.5 -116t114.5 -45t114.5 45t44.5 116v472h136v-479q0 -79 -38 -142.5t-105 -99.5t-152 -36t-152 36zM219 958h281v-97h-281v97z" />
    <glyph glyph-name="umacron" unicode="&#x16b;" 
d="M105 49q-55 61 -55 162v333h131v-322q0 -51 30.5 -82.5t79.5 -31.5t79.5 32t30.5 85v319h131v-544h-124v65q-22 -38 -61.5 -57.5t-91.5 -19.5q-95 0 -150 61zM157 756h281v-97h-281v97z" />
    <glyph glyph-name="Ubreve" unicode="&#x16c;" horiz-adv-x="718" 
d="M207 24q-67 36 -105 99.5t-38 142.5v479h136v-472q0 -71 44.5 -116t114.5 -45t114.5 45t44.5 116v472h136v-479q0 -79 -38 -142.5t-105 -99.5t-152 -36t-152 36zM279 862q-37 20 -59 54t-22 72h103q0 -23 16.5 -38.5t41.5 -15.5t41.5 15.5t16.5 38.5h103
q0 -39 -21.5 -72.5t-58.5 -53.5t-81 -20q-43 0 -80 20z" />
    <glyph glyph-name="ubreve" unicode="&#x16d;" 
d="M105 49q-55 61 -55 162v333h131v-322q0 -51 30.5 -82.5t79.5 -31.5t79.5 32t30.5 85v319h131v-544h-124v65q-22 -38 -61.5 -57.5t-91.5 -19.5q-95 0 -150 61zM217 660q-37 20 -59 54t-22 72h103q0 -23 16.5 -38.5t41.5 -15.5t41.5 15.5t16.5 38.5h103q0 -39 -21.5 -72.5
t-58.5 -53.5t-81 -20q-43 0 -80 20z" />
    <glyph glyph-name="Uring" unicode="&#x16e;" horiz-adv-x="718" 
d="M207 24q-67 36 -105 99.5t-38 142.5v479h136v-472q0 -71 44.5 -116t114.5 -45t114.5 45t44.5 116v472h136v-479q0 -79 -38 -142.5t-105 -99.5t-152 -36t-152 36zM268.5 821q-36.5 36 -36.5 89t36.5 89.5t91.5 36.5q53 0 90 -36.5t37 -89.5q0 -52 -37 -88.5t-90 -36.5
q-55 0 -91.5 36zM320.5 871.5q15.5 -15.5 39.5 -15.5q22 0 37.5 15.5t15.5 38.5t-15.5 39t-37.5 16q-24 0 -39.5 -16t-15.5 -39t15.5 -38.5z" />
    <glyph glyph-name="uring" unicode="&#x16f;" 
d="M105 49q-55 61 -55 162v333h131v-322q0 -51 30.5 -82.5t79.5 -31.5t79.5 32t30.5 85v319h131v-544h-124v65q-22 -38 -61.5 -57.5t-91.5 -19.5q-95 0 -150 61zM206.5 619q-36.5 36 -36.5 89t36.5 89.5t91.5 36.5q53 0 90 -36.5t37 -89.5q0 -52 -37 -88.5t-90 -36.5
q-55 0 -91.5 36zM258.5 669.5q15.5 -15.5 39.5 -15.5q22 0 37.5 15.5t15.5 38.5t-15.5 39t-37.5 16q-24 0 -39.5 -16t-15.5 -39t15.5 -38.5z" />
    <glyph glyph-name="Uhungarumlaut" unicode="&#x170;" horiz-adv-x="718" 
d="M207 24q-67 36 -105 99.5t-38 142.5v479h136v-472q0 -71 44.5 -116t114.5 -45t114.5 45t44.5 116v472h136v-479q0 -79 -38 -142.5t-105 -99.5t-152 -36t-152 36zM272 986h147l-96 -144h-114zM458 986h147l-95 -144h-115z" />
    <glyph glyph-name="uhungarumlaut" unicode="&#x171;" 
d="M105 49q-55 61 -55 162v333h131v-322q0 -51 30.5 -82.5t79.5 -31.5t79.5 32t30.5 85v319h131v-544h-124v65q-22 -38 -61.5 -57.5t-91.5 -19.5q-95 0 -150 61zM210 784h147l-96 -144h-114zM396 784h147l-95 -144h-115z" />
    <glyph glyph-name="Uogonek" unicode="&#x172;" horiz-adv-x="718" 
d="M275 -172q-41 30 -41 81q0 52 42 89q-96 23 -154 96t-58 172v479h136v-472q0 -71 44.5 -116t114.5 -45t114.5 45t44.5 116v472h136v-479q0 -78 -36.5 -140.5t-101 -99t-146.5 -38.5q-37 -21 -37 -53q0 -21 15.5 -33.5t44.5 -12.5q43 0 87 28l40 -68q-64 -51 -140 -51
q-64 0 -105 30z" />
    <glyph glyph-name="uogonek" unicode="&#x173;" 
d="M105 49q-55 61 -55 162v333h131v-322q0 -51 30.5 -82.5t79.5 -31.5t79.5 32t30.5 85v319h131v-544h-45q-70 -26 -70 -69q0 -21 15.5 -33.5t44.5 -12.5q43 0 87 28l40 -68q-64 -51 -140 -51q-64 0 -105 30t-41 81q0 39 24.5 70t65.5 49v41q-22 -38 -61.5 -57.5
t-91.5 -19.5q-95 0 -150 61z" />
    <glyph glyph-name="Wcircumflex" unicode="&#x174;" horiz-adv-x="1020" 
d="M11 745h146l138 -560l145 560h141l144 -560l138 560h146l-200 -745h-156l-143 536l-143 -536h-156zM441 986h136l120 -144h-119l-68 79l-66 -79h-122z" />
    <glyph glyph-name="wcircumflex" unicode="&#x175;" horiz-adv-x="883" 
d="M11 544h138l114 -343l121 343h116l120 -342l114 342h138l-187 -544h-117l-126 367l-128 -367h-116zM372 784h136l120 -144h-119l-68 79l-66 -79h-122z" />
    <glyph glyph-name="Ycircumflex" unicode="&#x176;" horiz-adv-x="660" 
d="M262 330l-251 415h155l164 -277l164 277h155l-250 -414v-331h-137v330zM261 986h136l120 -144h-119l-68 79l-66 -79h-122z" />
    <glyph glyph-name="ycircumflex" unicode="&#x177;" horiz-adv-x="586" 
d="M223 784h136l120 -144h-119l-68 79l-66 -79h-122z" />
    <glyph glyph-name="Ydieresis" unicode="&#x178;" horiz-adv-x="660" 
d="M262 330l-251 415h155l164 -277l164 277h155l-250 -414v-331h-137v330zM182 868.5q-21 21.5 -21 51.5t21 51t52 21q29 0 50.5 -21t21.5 -51t-21 -51.5t-51 -21.5q-31 0 -52 21.5zM377 971q21 21 52 21q29 0 50.5 -21t21.5 -51t-21 -51.5t-51 -21.5q-31 0 -52 21.5
t-21 51.5t21 51z" />
    <glyph glyph-name="Zacute" unicode="&#x179;" horiz-adv-x="571" 
d="M14 107l361 518h-340v120h513v-107l-360 -518h370v-120h-544v107zM292 986h147l-96 -144h-114z" />
    <glyph glyph-name="zacute" unicode="&#x17a;" horiz-adv-x="481" 
d="M14 106l277 321h-263v117h438v-107l-272 -321h274v-116h-454v106zM250 784h147l-96 -144h-114z" />
    <glyph glyph-name="Zdotaccent" unicode="&#x17b;" horiz-adv-x="571" 
d="M14 107l361 518h-340v120h513v-107l-360 -518h370v-120h-544v107zM235 868.5q-21 21.5 -21 51.5t21 51t52 21q29 0 50.5 -21t21.5 -51t-21 -51.5t-51 -21.5q-31 0 -52 21.5z" />
    <glyph glyph-name="zdotaccent" unicode="&#x17c;" horiz-adv-x="481" 
d="M14 106l277 321h-263v117h438v-107l-272 -321h274v-116h-454v106zM192 666.5q-21 21.5 -21 51.5t21 51t52 21q29 0 50.5 -21t21.5 -51t-21 -51.5t-51 -21.5q-31 0 -52 21.5z" />
    <glyph glyph-name="Zcaron" unicode="&#x17d;" horiz-adv-x="571" 
d="M14 107l361 518h-340v120h513v-107l-360 -518h370v-120h-544v107zM98 986h122l66 -79l68 79h119l-120 -144h-136z" />
    <glyph glyph-name="zcaron" unicode="&#x17e;" horiz-adv-x="481" 
d="M14 106l277 321h-263v117h438v-107l-272 -321h274v-116h-454v106zM56 784h122l66 -79l68 79h119l-120 -144h-136z" />
    <glyph glyph-name="uni018F" unicode="&#x18f;" horiz-adv-x="814" 
d="M219.5 33.5q-79.5 45.5 -124.5 127t-45 184.5q0 35 6 68h571q-6 64 -38 114t-84.5 78t-118.5 28q-65 0 -116 -28.5t-81 -79.5l-113 55q36 80 120.5 128.5t190.5 48.5q109 0 195.5 -51t134.5 -139.5t48 -196.5q0 -107 -47 -194t-130.5 -137.5t-188.5 -50.5
q-100 0 -179.5 45.5zM226 205q27 -44 73 -68.5t104 -24.5q85 0 145 51.5t76 140.5h-427q2 -55 29 -99z" />
    <glyph glyph-name="florin" unicode="&#x192;" horiz-adv-x="570" 
d="M94 -7v113q18 -3 34 -3q45 0 68.5 23t23.5 75v115h-121v114h121v122q0 100 55 152.5t151 52.5q28 0 50 -5v-113q-18 3 -33 3q-46 0 -69 -22.5t-23 -75.5v-114h120v-114h-120v-123q0 -100 -55.5 -152.5t-150.5 -52.5q-29 0 -51 5z" />
    <glyph glyph-name="Ohorn" unicode="&#x1a0;" horiz-adv-x="878" 
d="M241 38.5q-89 50.5 -140 138.5t-51 196t51 196t140 138t198 50h203q20 0 34 9t14 41q0 27 -21 77h118q12 -25 17.5 -44.5t5.5 -44.5q0 -57 -29.5 -90t-81.5 -41q62 -53 96 -128t34 -163q0 -108 -51.5 -196t-140.5 -138.5t-198 -50.5t-198 50.5zM219 239
q33 -60 90.5 -93.5t129.5 -33.5t129.5 33.5t90.5 93.5t33 134t-33 133.5t-90.5 93t-129.5 33.5t-129.5 -33.5t-90.5 -93t-33 -133.5t33 -134z" />
    <glyph glyph-name="ohorn" unicode="&#x1a1;" horiz-adv-x="652" 
d="M182 25q-66 37 -104.5 102t-38.5 145t38 145t104 102t146 37h106q20 0 34 9t14 41q0 27 -21 77h113q11 -25 17 -45t6 -44q0 -86 -68 -117q41 -38 63.5 -91t22.5 -114q0 -81 -38.5 -146t-104.5 -101.5t-144 -36.5q-79 0 -145 37zM217.5 154.5q42.5 -46.5 109.5 -46.5
q43 0 77 21t53.5 58.5t19.5 84.5q0 46 -19.5 83.5t-53.5 59t-77 21.5q-44 0 -78.5 -21.5t-54 -58.5t-19.5 -84q0 -71 42.5 -117.5z" />
    <glyph glyph-name="Uhorn" unicode="&#x1af;" horiz-adv-x="718" 
d="M207 24q-67 36 -105 99.5t-38 142.5v479h136v-472q0 -71 44.5 -116t114.5 -45t114.5 45t44.5 116v472h115q20 0 34 9t14 41q0 27 -21 77h117q12 -24 18 -44t6 -45q0 -67 -39.5 -100.5t-107.5 -33.5v-383q0 -79 -38 -142.5t-105 -99.5t-152 -36t-152 36z" />
    <glyph glyph-name="uhorn" unicode="&#x1b0;" horiz-adv-x="660" 
d="M105 49q-55 61 -55 162v333h131v-322q0 -51 30.5 -82.5t79.5 -31.5t79.5 32t30.5 85v319h87q20 0 34 9t14 41q0 25 -20 77h113q11 -25 17 -45t6 -44q0 -59 -32 -92t-88 -38v-452h-124v65q-22 -38 -61.5 -57.5t-91.5 -19.5q-95 0 -150 61z" />
    <glyph glyph-name="uni01C4" unicode="&#x1c4;" horiz-adv-x="1311" 
d="M72 745h243q117 0 205 -47t136 -131.5t48 -193.5q0 -108 -48 -193t-136.5 -132.5t-204.5 -47.5h-243v745zM318 120q75 0 131.5 31t87 88.5t30.5 133.5t-30.5 133t-87 88t-131.5 31h-110v-505h110zM754 107l360 518h-339v120h513v-107l-360 -518h369v-120h-543v107z
M960 986l66 -79l68 79h119l-120 -144h-136l-119 144h122z" />
    <glyph glyph-name="uni01C5" unicode="&#x1c5;" horiz-adv-x="1221" 
d="M72 745h243q117 0 205 -47t136 -131.5t48 -193.5q0 -108 -48 -193t-136.5 -132.5t-204.5 -47.5h-243v745zM318 120q75 0 131.5 31t87 88.5t30.5 133.5t-30.5 133t-87 88t-131.5 31h-110v-505h110zM754 106l277 321h-263v117h438v-107l-272 -321h273v-116h-453v106z
M917 784l67 -79l67 79h120l-120 -144h-136l-120 144h122z" />
    <glyph glyph-name="uni01C6" unicode="&#x1c6;" horiz-adv-x="1153" 
d="M173.5 25.5q-62.5 37.5 -98.5 102.5t-36 144t36 144t99 102.5t139 37.5q52 0 95 -17.5t72 -49.5v256h131v-745h-124v60q-30 -35 -75 -53.5t-98 -18.5q-78 0 -140.5 37.5zM194.5 187.5q19.5 -37.5 54.5 -58.5t79 -21t78.5 21t54 58.5t19.5 84.5t-19.5 84.5t-54.5 58.5
t-78 21q-44 0 -79 -21.5t-54.5 -59t-19.5 -83.5q0 -47 19.5 -84.5zM685 106l278 321h-264v117h439v-107l-272 -321h273v-116h-454v106zM849 784l67 -79l67 79h120l-120 -144h-136l-120 144h122z" />
    <glyph glyph-name="uni01C7" unicode="&#x1c7;" horiz-adv-x="1156" 
d="M72 745h136v-625h319v-120h-455v745zM661 40.5q-70 52.5 -89 142.5l126 34q14 -50 50 -77.5t86 -27.5q54 0 85.5 32.5t31.5 88.5v512h136v-512q0 -71 -30.5 -126.5t-88 -87t-135.5 -31.5q-102 0 -172 52.5z" />
    <glyph glyph-name="uni01C8" unicode="&#x1c8;" horiz-adv-x="795" 
d="M72 745h136v-625h319v-120h-455v745zM478 -217v113q18 -3 36 -3q43 0 66.5 20t23.5 59v572h131v-572q0 -92 -55 -143t-151 -51q-29 0 -51 5zM614 750q20 20 55 20q36 0 56 -20t20 -56q0 -35 -19.5 -55t-56.5 -20q-35 0 -55 20t-20 55q0 36 20 56z" />
    <glyph glyph-name="uni01C9" unicode="&#x1c9;" horiz-adv-x="505" 
d="M61 757h131v-757h-131v757zM187 -217v113q18 -3 36 -3q43 0 66.5 20t23.5 59v572h131v-572q0 -92 -55 -143t-151 -51q-29 0 -51 5zM323 750q20 20 55 20q36 0 56 -20t20 -56q0 -35 -19.5 -55t-56.5 -20q-35 0 -55 20t-20 55q0 36 20 56z" />
    <glyph glyph-name="uni01CA" unicode="&#x1ca;" horiz-adv-x="1133" 
d="M72 745h106l355 -478v478h136v-745h-107l-354 487v-487h-136v745zM780 125h43q48 0 76.5 27.5t28.5 73.5v519h137v-514q0 -69 -29.5 -121.5t-84.5 -81t-128 -28.5h-43v125z" />
    <glyph glyph-name="uni01CB" unicode="&#x1cb;" horiz-adv-x="993" 
d="M72 745h106l355 -478v478h136v-745h-107l-354 487v-487h-136v745zM676 -217v113q18 -3 36 -3q43 0 66.5 20t23.5 59v572h131v-572q0 -92 -55 -143t-151 -51q-29 0 -51 5zM812 750q20 20 55 20q36 0 56 -20t20 -56q0 -35 -19.5 -55t-56.5 -20q-35 0 -55 20t-20 55
q0 36 20 56z" />
    <glyph glyph-name="uni01CC" unicode="&#x1cc;" horiz-adv-x="845" 
d="M61 544h123v-67q21 38 61.5 58.5t92.5 20.5q59 0 106 -26t73 -73t26 -107v-350h-131v319q0 53 -30.5 85t-79.5 32t-79.5 -32t-30.5 -85v-319h-131v544zM528 -217v113q18 -3 36 -3q43 0 66.5 20t23.5 59v572h131v-572q0 -92 -55 -143t-151 -51q-29 0 -51 5zM664 750
q20 20 55 20q36 0 56 -20t20 -56q0 -35 -19.5 -55t-56.5 -20q-35 0 -55 20t-20 55q0 36 20 56z" />
    <glyph glyph-name="Gcaron" unicode="&#x1e6;" horiz-adv-x="808" 
d="M234 38q-86 50 -135 138t-49 197t48.5 197t133 137.5t190.5 49.5q77 0 141 -26.5t108.5 -71t64.5 -98.5l-121 -58q-22 59 -72.5 94.5t-120.5 35.5q-69 0 -123 -32.5t-83.5 -91.5t-29.5 -136t30.5 -136.5t85 -92t123.5 -32.5q57 0 105.5 23t77 65t28.5 97v3h-214v115h350
v-75q0 -111 -48.5 -190.5t-128 -120.5t-170.5 -41q-105 0 -191 50zM217 986h122l66 -79l68 79h119l-120 -144h-136z" />
    <glyph glyph-name="gcaron" unicode="&#x1e7;" horiz-adv-x="652" 
d="M163.5 -176.5q-69.5 43.5 -95.5 115.5l122 46q12 -39 48 -62t87 -23q60 0 97.5 34t37.5 93v59q-58 -64 -157 -64q-75 0 -135.5 35t-94.5 96t-34 137t33.5 136.5t93.5 95t134 34.5q105 0 167 -74v62h124v-517q0 -71 -34 -127.5t-94.5 -88t-137.5 -31.5q-92 0 -161.5 43.5z
M215.5 184.5q40.5 -41.5 103.5 -41.5q62 0 101.5 41t39.5 105t-40 105.5t-101 41.5q-62 0 -103 -42t-41 -105t40.5 -104.5zM138 784h122l66 -79l68 79h119l-120 -144h-136z" />
    <glyph glyph-name="uni01EA" unicode="&#x1ea;" horiz-adv-x="878" 
d="M568.5 145.5q57.5 33.5 90.5 93.5t33 134t-33 133.5t-90.5 93t-129.5 33.5t-129.5 -33.5t-90.5 -93t-33 -133.5t33 -134t90.5 -93.5t129.5 -33.5t129.5 33.5zM101 569q51 88 140 138t198 50t198 -50t140.5 -138t51.5 -196q0 -99 -43.5 -182t-120 -135.5t-172.5 -64.5
q-42 -23 -42 -56q0 -21 15.5 -33.5t44.5 -12.5q43 0 87 28l40 -68q-64 -51 -140 -51q-64 0 -105 30t-41 81q0 47 35 82q-96 12 -173 64.5t-120.5 135.5t-43.5 182q0 108 51 196z" />
    <glyph glyph-name="uni01EB" unicode="&#x1eb;" horiz-adv-x="652" 
d="M307 -11q-44 -24 -44 -58q0 -21 15.5 -33.5t44.5 -12.5q43 0 87 28l40 -68q-64 -51 -140 -51q-64 0 -105 30t-41 81q0 31 15 57t43 44q-83 31 -133 102t-50 164q0 80 38 145t104 102t146 37q79 0 144.5 -37t104 -102t38.5 -145q0 -81 -38.5 -146t-104.5 -101.5
t-144 -36.5zM217.5 154.5q42.5 -46.5 109.5 -46.5q43 0 77 21t53.5 58.5t19.5 84.5q0 46 -19.5 83.5t-53.5 59t-77 21.5q-44 0 -78.5 -21.5t-54 -58.5t-19.5 -84q0 -71 42.5 -117.5z" />
    <glyph glyph-name="Aringacute" unicode="&#x1fa;" horiz-adv-x="712" 
d="M268 745h176l257 -745h-148l-53 160h-288l-54 -160h-147zM461 280l-105 314l-105 -314h210zM264.5 821q-36.5 36 -36.5 89t36.5 89.5t91.5 36.5q53 0 90 -36.5t37 -89.5q0 -52 -37 -88.5t-90 -36.5q-55 0 -91.5 36zM316.5 871.5q15.5 -15.5 39.5 -15.5q22 0 37.5 15.5
t15.5 38.5t-15.5 39t-37.5 16q-24 0 -39.5 -16t-15.5 -39t15.5 -38.5zM351 1175h139l-75 -111h-114z" />
    <glyph glyph-name="aringacute" unicode="&#x1fb;" horiz-adv-x="580" 
d="M89.5 30q-50.5 42 -50.5 114q0 69 47 114t141 60l162 26v18q0 36 -27.5 59t-72.5 23q-42 0 -74.5 -22.5t-47.5 -59.5l-107 52q24 64 88 103t146 39q66 0 117.5 -24.5t80 -69t28.5 -100.5v-362h-124v58q-64 -70 -170 -70q-86 0 -136.5 42zM196 104.5q21 -16.5 54 -16.5
q61 0 100 38.5t39 95.5v22l-137 -23q-39 -8 -58 -25.5t-19 -46.5q0 -28 21 -44.5zM199.5 619q-36.5 36 -36.5 89t36.5 89.5t91.5 36.5q53 0 90 -36.5t37 -89.5q0 -52 -37 -88.5t-90 -36.5q-55 0 -91.5 36zM251.5 669.5q15.5 -15.5 39.5 -15.5q22 0 37.5 15.5t15.5 38.5
t-15.5 39t-37.5 16q-24 0 -39.5 -16t-15.5 -39t15.5 -38.5zM286 973h139l-75 -111h-114z" />
    <glyph glyph-name="AEacute" unicode="&#x1fc;" horiz-adv-x="991" 
d="M268 745h696v-120h-360v-191h340v-120h-340v-194h360l-1 -120h-495v160h-256l-54 -160h-147zM468 280v345h-101l-116 -345h217zM502 986h147l-96 -144h-114z" />
    <glyph glyph-name="aeacute" unicode="&#x1fd;" horiz-adv-x="967" 
d="M89.5 30q-50.5 42 -50.5 114q0 69 47 114t141 60l162 26v18q0 36 -27.5 59t-72.5 23q-42 0 -74.5 -22.5t-47.5 -59.5l-107 52q24 64 88 103t146 39q58 0 105.5 -19.5t77.5 -55.5q36 35 84.5 55t102.5 20q81 0 141 -35.5t91.5 -96.5t31.5 -134q0 -32 -6 -55h-392
q5 -60 45 -96t100 -36q43 0 74.5 18.5t51.5 51.5l106 -52q-25 -59 -86 -96t-133 -37q-112 0 -181 68v-56h-111v56q-63 -68 -170 -68q-86 0 -136.5 42zM196 104.5q21 -16.5 54 -16.5q61 0 100 38.5t39 95.5v22l-137 -23q-39 -8 -58 -25.5t-19 -46.5q0 -28 21 -44.5zM789 335
q-4 50 -38.5 81.5t-86.5 31.5q-50 0 -85.5 -30t-45.5 -83h256zM490 784h147l-96 -144h-114z" />
    <glyph glyph-name="Oslashacute" unicode="&#x1fe;" horiz-adv-x="878" 
d="M237 41l-33 -41h-144l91 110q-48 52 -74.5 119t-26.5 144q0 108 51 196t140 138t198 50q111 0 202 -52l33 40h144l-90 -109q48 -52 74.5 -119t26.5 -144q0 -108 -51.5 -196t-140.5 -138.5t-198 -50.5q-110 0 -202 53zM235 213l323 392q-54 28 -119 28q-72 0 -129.5 -33.5
t-90.5 -93t-33 -133.5q0 -92 49 -160zM439 112q72 0 129.5 33.5t90.5 93.5t33 134q0 91 -49 159l-323 -392q54 -28 119 -28zM445 986h147l-96 -144h-114z" />
    <glyph glyph-name="oslashacute" unicode="&#x1ff;" horiz-adv-x="652" 
d="M187 22l-18 -22h-133l71 86q-33 37 -50.5 84.5t-17.5 101.5q0 80 38 145t104 102t146 37q75 0 138 -34l18 22h133l-70 -85q32 -38 50 -85.5t18 -101.5q0 -81 -38.5 -146t-104.5 -101.5t-144 -36.5q-77 0 -140 34zM193 191l192 234q-28 11 -58 11q-44 0 -78.5 -21.5
t-54 -58.5t-19.5 -84q0 -46 18 -81zM327 108q43 0 77 21t53.5 58.5t19.5 84.5q0 45 -18 81l-192 -233q27 -12 60 -12zM333 784h147l-96 -144h-114z" />
    <glyph glyph-name="uni0200" unicode="&#x200;" horiz-adv-x="712" 
d="M268 745h176l257 -745h-148l-53 160h-288l-54 -160h-147zM461 280l-105 314l-105 -314h210zM296 986h147l63 -144h-114zM257 986l63 -144h-115l-95 144h147z" />
    <glyph glyph-name="uni0201" unicode="&#x201;" horiz-adv-x="580" 
d="M89.5 30q-50.5 42 -50.5 114q0 69 47 114t141 60l162 26v18q0 36 -27.5 59t-72.5 23q-42 0 -74.5 -22.5t-47.5 -59.5l-107 52q24 64 88 103t146 39q66 0 117.5 -24.5t80 -69t28.5 -100.5v-362h-124v58q-64 -70 -170 -70q-86 0 -136.5 42zM196 104.5q21 -16.5 54 -16.5
q61 0 100 38.5t39 95.5v22l-137 -23q-39 -8 -58 -25.5t-19 -46.5q0 -28 21 -44.5zM231 784h147l63 -144h-114zM192 784l63 -144h-115l-95 144h147z" />
    <glyph glyph-name="uni0202" unicode="&#x202;" horiz-adv-x="712" 
d="M268 745h176l257 -745h-148l-53 160h-288l-54 -160h-147zM461 280l-105 314l-105 -314h210zM217 914q22 34 59 54t80 20q44 0 81 -20t58.5 -53.5t21.5 -72.5h-103q0 23 -16.5 38.5t-41.5 15.5t-41.5 -15.5t-16.5 -38.5h-103q0 38 22 72z" />
    <glyph glyph-name="uni0203" unicode="&#x203;" horiz-adv-x="580" 
d="M89.5 30q-50.5 42 -50.5 114q0 69 47 114t141 60l162 26v18q0 36 -27.5 59t-72.5 23q-42 0 -74.5 -22.5t-47.5 -59.5l-107 52q24 64 88 103t146 39q66 0 117.5 -24.5t80 -69t28.5 -100.5v-362h-124v58q-64 -70 -170 -70q-86 0 -136.5 42zM196 104.5q21 -16.5 54 -16.5
q61 0 100 38.5t39 95.5v22l-137 -23q-39 -8 -58 -25.5t-19 -46.5q0 -28 21 -44.5zM152 712q22 34 59 54t80 20q44 0 81 -20t58.5 -53.5t21.5 -72.5h-103q0 23 -16.5 38.5t-41.5 15.5t-41.5 -15.5t-16.5 -38.5h-103q0 38 22 72z" />
    <glyph glyph-name="uni0204" unicode="&#x204;" horiz-adv-x="595" 
d="M72 745h495v-120h-359v-191h339v-120h-339v-194h359v-120h-495v745zM260 986h147l63 -144h-114zM221 986l63 -144h-115l-95 144h147z" />
    <glyph glyph-name="uni0205" unicode="&#x205;" horiz-adv-x="612" 
d="M173.5 26q-63.5 38 -99 103t-35.5 144q0 80 35.5 144.5t97 101.5t137.5 37q82 0 142 -35.5t91.5 -96.5t31.5 -134q0 -34 -7 -55h-392q6 -60 46 -96t99 -36q44 0 75.5 18.5t50.5 51.5l106 -52q-25 -60 -88 -96.5t-145 -36.5t-145.5 38zM434 335q-5 50 -39 81.5t-86 31.5
q-50 0 -85 -29.5t-46 -83.5h256zM247 784h147l63 -144h-114zM208 784l63 -144h-115l-95 144h147z" />
    <glyph glyph-name="uni0206" unicode="&#x206;" horiz-adv-x="595" 
d="M72 745h495v-120h-359v-191h339v-120h-339v-194h359v-120h-495v745zM181 914q22 34 59 54t80 20q44 0 81 -20t58.5 -53.5t21.5 -72.5h-103q0 23 -16.5 38.5t-41.5 15.5t-41.5 -15.5t-16.5 -38.5h-103q0 38 22 72z" />
    <glyph glyph-name="uni0207" unicode="&#x207;" horiz-adv-x="612" 
d="M173.5 26q-63.5 38 -99 103t-35.5 144q0 80 35.5 144.5t97 101.5t137.5 37q82 0 142 -35.5t91.5 -96.5t31.5 -134q0 -34 -7 -55h-392q6 -60 46 -96t99 -36q44 0 75.5 18.5t50.5 51.5l106 -52q-25 -60 -88 -96.5t-145 -36.5t-145.5 38zM434 335q-5 50 -39 81.5t-86 31.5
q-50 0 -85 -29.5t-46 -83.5h256zM168 712q22 34 59 54t80 20q44 0 81 -20t58.5 -53.5t21.5 -72.5h-103q0 23 -16.5 38.5t-41.5 15.5t-41.5 -15.5t-16.5 -38.5h-103q0 38 22 72z" />
    <glyph glyph-name="uni0208" unicode="&#x208;" horiz-adv-x="279" 
d="M72 745h136v-745h-136v745zM80 986h147l63 -144h-114zM41 986l63 -144h-115l-95 144h147z" />
    <glyph glyph-name="uni0209" unicode="&#x209;" horiz-adv-x="228" 
d="M49 544h131v-544h-131v544zM54 784h147l63 -144h-114zM15 784l63 -144h-115l-95 144h147z" />
    <glyph glyph-name="uni020A" unicode="&#x20a;" horiz-adv-x="279" 
d="M72 745h136v-745h-136v745zM1 914q22 34 59 54t80 20q44 0 81 -20t58.5 -53.5t21.5 -72.5h-103q0 23 -16.5 38.5t-41.5 15.5t-41.5 -15.5t-16.5 -38.5h-103q0 38 22 72z" />
    <glyph glyph-name="uni020B" unicode="&#x20b;" horiz-adv-x="228" 
d="M49 544h131v-544h-131v544zM-25 712q22 34 59 54t80 20q44 0 81 -20t58.5 -53.5t21.5 -72.5h-103q0 23 -16.5 38.5t-41.5 15.5t-41.5 -15.5t-16.5 -38.5h-103q0 38 22 72z" />
    <glyph glyph-name="uni020C" unicode="&#x20c;" horiz-adv-x="878" 
d="M241 38.5q-89 50.5 -140 138.5t-51 196t51 196t140 138t198 50t198 -50t140.5 -138t51.5 -196t-51.5 -196t-140.5 -138.5t-198 -50.5t-198 50.5zM219 239q33 -60 90.5 -93.5t129.5 -33.5t129.5 33.5t90.5 93.5t33 134t-33 133.5t-90.5 93t-129.5 33.5t-129.5 -33.5
t-90.5 -93t-33 -133.5t33 -134zM379 986h147l63 -144h-114zM340 986l63 -144h-115l-95 144h147z" />
    <glyph glyph-name="uni020D" unicode="&#x20d;" horiz-adv-x="652" 
d="M182 25q-66 37 -104.5 102t-38.5 145t38 145t104 102t146 37q79 0 144.5 -37t104 -102t38.5 -145q0 -81 -38.5 -146t-104.5 -101.5t-144 -36.5q-79 0 -145 37zM217.5 154.5q42.5 -46.5 109.5 -46.5q43 0 77 21t53.5 58.5t19.5 84.5q0 46 -19.5 83.5t-53.5 59t-77 21.5
q-44 0 -78.5 -21.5t-54 -58.5t-19.5 -84q0 -71 42.5 -117.5zM267 784h147l63 -144h-114zM228 784l63 -144h-115l-95 144h147z" />
    <glyph glyph-name="uni020E" unicode="&#x20e;" horiz-adv-x="878" 
d="M241 38.5q-89 50.5 -140 138.5t-51 196t51 196t140 138t198 50t198 -50t140.5 -138t51.5 -196t-51.5 -196t-140.5 -138.5t-198 -50.5t-198 50.5zM219 239q33 -60 90.5 -93.5t129.5 -33.5t129.5 33.5t90.5 93.5t33 134t-33 133.5t-90.5 93t-129.5 33.5t-129.5 -33.5
t-90.5 -93t-33 -133.5t33 -134zM300 914q22 34 59 54t80 20q44 0 81 -20t58.5 -53.5t21.5 -72.5h-103q0 23 -16.5 38.5t-41.5 15.5t-41.5 -15.5t-16.5 -38.5h-103q0 38 22 72z" />
    <glyph glyph-name="uni020F" unicode="&#x20f;" horiz-adv-x="652" 
d="M182 25q-66 37 -104.5 102t-38.5 145t38 145t104 102t146 37q79 0 144.5 -37t104 -102t38.5 -145q0 -81 -38.5 -146t-104.5 -101.5t-144 -36.5q-79 0 -145 37zM217.5 154.5q42.5 -46.5 109.5 -46.5q43 0 77 21t53.5 58.5t19.5 84.5q0 46 -19.5 83.5t-53.5 59t-77 21.5
q-44 0 -78.5 -21.5t-54 -58.5t-19.5 -84q0 -71 42.5 -117.5zM188 712q22 34 59 54t80 20q44 0 81 -20t58.5 -53.5t21.5 -72.5h-103q0 23 -16.5 38.5t-41.5 15.5t-41.5 -15.5t-16.5 -38.5h-103q0 38 22 72z" />
    <glyph glyph-name="uni0210" unicode="&#x210;" horiz-adv-x="661" 
d="M72 745h277q76 0 135 -27.5t91.5 -80.5t32.5 -127q0 -76 -36 -130.5t-99 -80.5l171 -299h-154l-154 275h-128v-275h-136v745zM351 395q55 0 88 31.5t33 83.5t-33 83.5t-88 31.5h-143v-230h143zM269 986h147l63 -144h-114zM230 986l63 -144h-115l-95 144h147z" />
    <glyph glyph-name="uni0211" unicode="&#x211;" horiz-adv-x="374" 
d="M61 544h123v-76q20 44 57 63t90 19h32v-116h-47q-56 0 -90 -35t-34 -96v-303h-131v544zM152 784h147l63 -144h-114zM113 784l63 -144h-115l-95 144h147z" />
    <glyph glyph-name="uni0212" unicode="&#x212;" horiz-adv-x="661" 
d="M72 745h277q76 0 135 -27.5t91.5 -80.5t32.5 -127q0 -76 -36 -130.5t-99 -80.5l171 -299h-154l-154 275h-128v-275h-136v745zM351 395q55 0 88 31.5t33 83.5t-33 83.5t-88 31.5h-143v-230h143zM191 914q22 34 59 54t80 20q44 0 81 -20t58.5 -53.5t21.5 -72.5h-103
q0 23 -16.5 38.5t-41.5 15.5t-41.5 -15.5t-16.5 -38.5h-103q0 38 22 72z" />
    <glyph glyph-name="uni0213" unicode="&#x213;" horiz-adv-x="374" 
d="M61 544h123v-76q20 44 57 63t90 19h32v-116h-47q-56 0 -90 -35t-34 -96v-303h-131v544zM73 712q22 34 59 54t80 20q44 0 81 -20t58.5 -53.5t21.5 -72.5h-103q0 23 -16.5 38.5t-41.5 15.5t-41.5 -15.5t-16.5 -38.5h-103q0 38 22 72z" />
    <glyph glyph-name="uni0214" unicode="&#x214;" horiz-adv-x="718" 
d="M207 24q-67 36 -105 99.5t-38 142.5v479h136v-472q0 -71 44.5 -116t114.5 -45t114.5 45t44.5 116v472h136v-479q0 -79 -38 -142.5t-105 -99.5t-152 -36t-152 36zM299 986h147l63 -144h-114zM260 986l63 -144h-115l-95 144h147z" />
    <glyph glyph-name="uni0215" unicode="&#x215;" 
d="M105 49q-55 61 -55 162v333h131v-322q0 -51 30.5 -82.5t79.5 -31.5t79.5 32t30.5 85v319h131v-544h-124v65q-22 -38 -61.5 -57.5t-91.5 -19.5q-95 0 -150 61zM237 784h147l63 -144h-114zM198 784l63 -144h-115l-95 144h147z" />
    <glyph glyph-name="uni0216" unicode="&#x216;" horiz-adv-x="718" 
d="M207 24q-67 36 -105 99.5t-38 142.5v479h136v-472q0 -71 44.5 -116t114.5 -45t114.5 45t44.5 116v472h136v-479q0 -79 -38 -142.5t-105 -99.5t-152 -36t-152 36zM220 914q22 34 59 54t80 20q44 0 81 -20t58.5 -53.5t21.5 -72.5h-103q0 23 -16.5 38.5t-41.5 15.5
t-41.5 -15.5t-16.5 -38.5h-103q0 38 22 72z" />
    <glyph glyph-name="uni0217" unicode="&#x217;" 
d="M105 49q-55 61 -55 162v333h131v-322q0 -51 30.5 -82.5t79.5 -31.5t79.5 32t30.5 85v319h131v-544h-124v65q-22 -38 -61.5 -57.5t-91.5 -19.5q-95 0 -150 61zM158 712q22 34 59 54t80 20q44 0 81 -20t58.5 -53.5t21.5 -72.5h-103q0 23 -16.5 38.5t-41.5 15.5t-41.5 -15.5
t-16.5 -38.5h-103q0 38 22 72z" />
    <glyph glyph-name="uni0218" unicode="&#x218;" horiz-adv-x="647" 
d="M185.5 21q-64.5 33 -100.5 83.5t-46 105.5l128 34q15 -61 60 -95t113 -34q52 0 84.5 26t32.5 62q0 33 -23.5 57.5t-63.5 32.5l-112 22q-89 17 -140 77t-51 146q0 60 34.5 110.5t92 79.5t122.5 29q83 0 141 -28t90.5 -70.5t43.5 -89.5l-127 -40q-21 54 -57 77.5t-91 23.5
q-31 0 -55.5 -13t-38 -33.5t-13.5 -41.5q0 -33 22 -57.5t61 -31.5l106 -23q97 -21 150 -79.5t53 -139.5q0 -58 -32 -109t-91.5 -82.5t-139.5 -31.5q-88 0 -152.5 33zM329 -220h-61v140h132v-86q0 -88 -38.5 -141t-113.5 -69v63q69 17 81 93z" />
    <glyph glyph-name="uni0219" unicode="&#x219;" horiz-adv-x="514" 
d="M120.5 28q-62.5 39 -88.5 107l97 50q22 -44 58.5 -68.5t80.5 -24.5q38 0 59.5 15.5t21.5 42.5q0 23 -18 38.5t-47 20.5l-89 15q-69 18 -106.5 61.5t-37.5 102.5q0 49 26 87.5t72.5 59.5t105.5 21q75 0 132 -35.5t83 -98.5l-97 -50q-16 35 -49 56t-73 21q-33 0 -52.5 -15
t-19.5 -39q0 -44 66 -59l87 -16q69 -19 107 -62t38 -102q0 -49 -26.5 -87t-74.5 -59t-111 -21q-82 0 -144.5 39zM263 -220h-61v140h132v-86q0 -88 -38.5 -141t-113.5 -69v63q69 17 81 93z" />
    <glyph glyph-name="uni021A" unicode="&#x21a;" horiz-adv-x="542" 
d="M204 625h-193v120h520v-120h-190v-625h-137v625zM276 -220h-61v140h132v-86q0 -88 -38.5 -141t-113.5 -69v63q69 17 81 93z" />
    <glyph glyph-name="uni021B" unicode="&#x21b;" horiz-adv-x="413" 
d="M166.5 44.5q-50.5 50.5 -50.5 142.5v240h-94v117h10q40 0 62 21t22 61v42h131v-124h125v-117h-125v-233q0 -85 92 -85q16 0 35 3v-113q-32 -5 -65 -5q-92 0 -142.5 50.5zM307 -220h-61v140h132v-86q0 -88 -38.5 -141t-113.5 -69v63q69 17 81 93z" />
    <glyph glyph-name="uni022A" unicode="&#x22a;" horiz-adv-x="878" 
d="M241 38.5q-89 50.5 -140 138.5t-51 196t51 196t140 138t198 50t198 -50t140.5 -138t51.5 -196t-51.5 -196t-140.5 -138.5t-198 -50.5t-198 50.5zM219 239q33 -60 90.5 -93.5t129.5 -33.5t129.5 33.5t90.5 93.5t33 134t-33 133.5t-90.5 93t-129.5 33.5t-129.5 -33.5
t-90.5 -93t-33 -133.5t33 -134zM291 868.5q-21 21.5 -21 51.5t21 51t52 21q29 0 50.5 -21t21.5 -51t-21 -51.5t-51 -21.5q-31 0 -52 21.5zM301 1119h278v-97h-278v97zM486 971q21 21 52 21q29 0 50.5 -21t21.5 -51t-21 -51.5t-51 -21.5q-31 0 -52 21.5t-21 51.5t21 51z" />
    <glyph glyph-name="uni022B" unicode="&#x22b;" horiz-adv-x="652" 
d="M182 25q-66 37 -104.5 102t-38.5 145t38 145t104 102t146 37q79 0 144.5 -37t104 -102t38.5 -145q0 -81 -38.5 -146t-104.5 -101.5t-144 -36.5q-79 0 -145 37zM217.5 154.5q42.5 -46.5 109.5 -46.5q43 0 77 21t53.5 58.5t19.5 84.5q0 46 -19.5 83.5t-53.5 59t-77 21.5
q-44 0 -78.5 -21.5t-54 -58.5t-19.5 -84q0 -71 42.5 -117.5zM178 666.5q-21 21.5 -21 51.5t21 51t52 21q29 0 50.5 -21t21.5 -51t-21 -51.5t-51 -21.5q-31 0 -52 21.5zM188 917h278v-97h-278v97zM373 769q21 21 52 21q29 0 50.5 -21t21.5 -51t-21 -51.5t-51 -21.5
q-31 0 -52 21.5t-21 51.5t21 51z" />
    <glyph glyph-name="uni022C" unicode="&#x22c;" horiz-adv-x="878" 
d="M241 38.5q-89 50.5 -140 138.5t-51 196t51 196t140 138t198 50t198 -50t140.5 -138t51.5 -196t-51.5 -196t-140.5 -138.5t-198 -50.5t-198 50.5zM219 239q33 -60 90.5 -93.5t129.5 -33.5t129.5 33.5t90.5 93.5t33 134t-33 133.5t-90.5 93t-129.5 33.5t-129.5 -33.5
t-90.5 -93t-33 -133.5t33 -134zM471 861q-16 7 -37 22q-12 10 -21 14.5t-19 4.5q-28 0 -32 -44h-83q0 68 26.5 100.5t69.5 32.5q23 0 39 -7.5t33 -21.5q13 -10 21 -14.5t19 -4.5q14 0 22 12.5t8 30.5h84q0 -69 -22.5 -100.5t-66.5 -31.5q-25 0 -41 7zM300 1134h279v-97h-279
v97z" />
    <glyph glyph-name="uni022D" unicode="&#x22d;" horiz-adv-x="652" 
d="M182 25q-66 37 -104.5 102t-38.5 145t38 145t104 102t146 37q79 0 144.5 -37t104 -102t38.5 -145q0 -81 -38.5 -146t-104.5 -101.5t-144 -36.5q-79 0 -145 37zM217.5 154.5q42.5 -46.5 109.5 -46.5q43 0 77 21t53.5 58.5t19.5 84.5q0 46 -19.5 83.5t-53.5 59t-77 21.5
q-44 0 -78.5 -21.5t-54 -58.5t-19.5 -84q0 -71 42.5 -117.5zM359 659q-16 7 -37 22q-12 10 -21 14.5t-19 4.5q-28 0 -32 -44h-83q0 68 26.5 100.5t69.5 32.5q23 0 39 -7.5t33 -21.5q13 -10 21 -14.5t19 -4.5q14 0 22 12.5t8 30.5h84q0 -69 -22.5 -100.5t-66.5 -31.5
q-25 0 -41 7zM188 932h279v-97h-279v97z" />
    <glyph glyph-name="uni0230" unicode="&#x230;" horiz-adv-x="878" 
d="M241 38.5q-89 50.5 -140 138.5t-51 196t51 196t140 138t198 50t198 -50t140.5 -138t51.5 -196t-51.5 -196t-140.5 -138.5t-198 -50.5t-198 50.5zM219 239q33 -60 90.5 -93.5t129.5 -33.5t129.5 33.5t90.5 93.5t33 134t-33 133.5t-90.5 93t-129.5 33.5t-129.5 -33.5
t-90.5 -93t-33 -133.5t33 -134zM300 1119h278v-97h-278v97zM388 971q21 21 52 21q29 0 50.5 -21t21.5 -51t-21 -51.5t-51 -21.5q-31 0 -52 21.5t-21 51.5t21 51z" />
    <glyph glyph-name="uni0231" unicode="&#x231;" horiz-adv-x="652" 
d="M182 25q-66 37 -104.5 102t-38.5 145t38 145t104 102t146 37q79 0 144.5 -37t104 -102t38.5 -145q0 -81 -38.5 -146t-104.5 -101.5t-144 -36.5q-79 0 -145 37zM217.5 154.5q42.5 -46.5 109.5 -46.5q43 0 77 21t53.5 58.5t19.5 84.5q0 46 -19.5 83.5t-53.5 59t-77 21.5
q-44 0 -78.5 -21.5t-54 -58.5t-19.5 -84q0 -71 42.5 -117.5zM188 917h278v-97h-278v97zM276 769q21 21 52 21q29 0 50.5 -21t21.5 -51t-21 -51.5t-51 -21.5q-31 0 -52 21.5t-21 51.5t21 51z" />
    <glyph glyph-name="uni0232" unicode="&#x232;" horiz-adv-x="660" 
d="M262 330l-251 415h155l164 -277l164 277h155l-250 -414v-331h-137v330zM190 958h281v-97h-281v97z" />
    <glyph glyph-name="uni0233" unicode="&#x233;" horiz-adv-x="586" 
d="M153 756h281v-97h-281v97z" />
    <glyph glyph-name="uni0237" unicode="&#x237;" horiz-adv-x="252" 
d="M-65 -217v113q18 -3 36 -3q43 0 66.5 20t23.5 59v572h131v-572q0 -92 -55 -143t-151 -51q-29 0 -51 5z" />
    <glyph glyph-name="uni0259" unicode="&#x259;" horiz-adv-x="612" 
d="M161.5 23.5q-59.5 35.5 -91 96t-31.5 134.5q0 37 6 55h392q-6 60 -46 96t-99 36q-43 0 -75 -18.5t-51 -51.5l-106 51q25 60 88 97t145 37t146 -38t99.5 -103t35.5 -144q0 -80 -35.5 -145t-97.5 -101.5t-138 -36.5q-82 0 -141.5 35.5zM216.5 127.5q34.5 -31.5 86.5 -31.5
q50 0 85.5 29.5t45.5 83.5h-256q4 -50 38.5 -81.5z" />
    <glyph glyph-name="uni02BB" unicode="&#x2bb;" horiz-adv-x="398" 
d="M220 661.5q-21 -23.5 -26 -60.5q26 0 44 -19.5t18 -47.5q0 -29 -19 -48.5t-48 -19.5q-31 0 -49 19.5t-18 60.5q0 88 39 141.5t114 69.5v-64q-34 -8 -55 -31.5z" />
    <glyph glyph-name="uni02BC" unicode="&#x2bc;" horiz-adv-x="363" 
d="M122 745h118l-16 -283h-85z" />
    <glyph glyph-name="uni02BE" unicode="&#x2be;" horiz-adv-x="374" 
d="M162.5 669.5q15.5 15.5 15.5 38.5t-15.5 39t-39.5 16v71q54 0 91 -36.5t37 -89.5t-37 -89t-91 -36v71q24 0 39.5 15.5z" />
    <glyph glyph-name="uni02BF" unicode="&#x2bf;" horiz-adv-x="374" 
d="M159.5 619q-36.5 36 -36.5 89t36.5 89.5t91.5 36.5v-71q-24 0 -39.5 -16t-15.5 -39t15.5 -38.5t39.5 -15.5v-71q-55 0 -91.5 36z" />
    <glyph glyph-name="circumflex" unicode="&#x2c6;" horiz-adv-x="621" 
d="M242 784h136l120 -144h-119l-68 79l-66 -79h-122z" />
    <glyph glyph-name="caron" unicode="&#x2c7;" horiz-adv-x="621" 
d="M123 784h122l66 -79l68 79h119l-120 -144h-136z" />
    <glyph glyph-name="uni02C8" unicode="&#x2c8;" horiz-adv-x="363" 
d="M123 745h117v-195h-117v195z" />
    <glyph glyph-name="uni02C9" unicode="&#x2c9;" horiz-adv-x="526" 
d="M123 756h281v-97h-281v97z" />
    <glyph glyph-name="uni02CA" unicode="&#x2ca;" horiz-adv-x="455" 
d="M186 784h147l-96 -144h-114z" />
    <glyph glyph-name="uni02CB" unicode="&#x2cb;" horiz-adv-x="455" 
d="M123 784h147l63 -144h-115z" />
    <glyph glyph-name="uni02CC" unicode="&#x2cc;" horiz-adv-x="363" 
d="M123 0h117v-195h-117v195z" />
    <glyph glyph-name="breve" unicode="&#x2d8;" horiz-adv-x="567" 
d="M204 660q-37 20 -59 54t-22 72h103q0 -23 16.5 -38.5t41.5 -15.5t41.5 15.5t16.5 38.5h103q0 -39 -21.5 -72.5t-58.5 -53.5t-81 -20q-43 0 -80 20z" />
    <glyph glyph-name="dotaccent" unicode="&#x2d9;" horiz-adv-x="390" 
d="M144 666.5q-21 21.5 -21 51.5t21 51t52 21q29 0 50.5 -21t21.5 -51t-21 -51.5t-51 -21.5q-31 0 -52 21.5z" />
    <glyph glyph-name="ring" unicode="&#x2da;" horiz-adv-x="500" 
d="M159.5 619q-36.5 36 -36.5 89t36.5 89.5t91.5 36.5q53 0 90 -36.5t37 -89.5q0 -52 -37 -88.5t-90 -36.5q-55 0 -91.5 36zM211.5 669.5q15.5 -15.5 39.5 -15.5q22 0 37.5 15.5t15.5 38.5t-15.5 39t-37.5 16q-24 0 -39.5 -16t-15.5 -39t15.5 -38.5z" />
    <glyph glyph-name="ogonek" unicode="&#x2db;" horiz-adv-x="532" 
d="M164 -186q-41 30 -41 81q0 54 44 91t111 45h40v-34q-52 -13 -74 -33t-22 -43q0 -21 15.5 -33.5t44.5 -12.5q43 0 87 28l40 -68q-64 -51 -140 -51q-64 0 -105 30z" />
    <glyph glyph-name="tilde" unicode="&#x2dc;" horiz-adv-x="567" 
d="M315 629q-16 7 -37 22q-12 10 -21 14.5t-19 4.5q-28 0 -32 -44h-83q0 68 26.5 100.5t69.5 32.5q23 0 39 -7.5t33 -21.5q13 -10 21 -14.5t19 -4.5q14 0 22 12.5t8 30.5h84q0 -69 -22.5 -100.5t-66.5 -31.5q-25 0 -41 7z" />
    <glyph glyph-name="hungarumlaut" unicode="&#x2dd;" horiz-adv-x="642" 
d="M186 784h147l-96 -144h-114zM372 784h147l-95 -144h-115z" />
    <glyph glyph-name="gravecomb" unicode="&#x300;" horiz-adv-x="0" 
d="M123 784h147l63 -144h-115z" />
    <glyph glyph-name="acutecomb" unicode="&#x301;" horiz-adv-x="0" 
d="M186 784h147l-96 -144h-114z" />
    <glyph glyph-name="uni0302" unicode="&#x302;" horiz-adv-x="0" 
d="M242 784h136l120 -144h-119l-68 79l-66 -79h-122z" />
    <glyph glyph-name="tildecomb" unicode="&#x303;" horiz-adv-x="0" 
d="M315 629q-16 7 -37 22q-12 10 -21 14.5t-19 4.5q-28 0 -32 -44h-83q0 68 26.5 100.5t69.5 32.5q23 0 39 -7.5t33 -21.5q13 -10 21 -14.5t19 -4.5q14 0 22 12.5t8 30.5h84q0 -69 -22.5 -100.5t-66.5 -31.5q-25 0 -41 7z" />
    <glyph glyph-name="uni0304" unicode="&#x304;" horiz-adv-x="0" 
d="M123 756h281v-97h-281v97z" />
    <glyph glyph-name="uni0306" unicode="&#x306;" horiz-adv-x="0" 
d="M204 660q-37 20 -59 54t-22 72h103q0 -23 16.5 -38.5t41.5 -15.5t41.5 15.5t16.5 38.5h103q0 -39 -21.5 -72.5t-58.5 -53.5t-81 -20q-43 0 -80 20z" />
    <glyph glyph-name="uni0307" unicode="&#x307;" horiz-adv-x="0" 
d="M144 666.5q-21 21.5 -21 51.5t21 51t52 21q29 0 50.5 -21t21.5 -51t-21 -51.5t-51 -21.5q-31 0 -52 21.5z" />
    <glyph glyph-name="uni0308" unicode="&#x308;" horiz-adv-x="0" 
d="M144 666.5q-21 21.5 -21 51.5t21 51t52 21q29 0 50.5 -21t21.5 -51t-21 -51.5t-51 -21.5q-31 0 -52 21.5zM339 769q21 21 52 21q29 0 50.5 -21t21.5 -51t-21 -51.5t-51 -21.5q-31 0 -52 21.5t-21 51.5t21 51z" />
    <glyph glyph-name="hookabovecomb" unicode="&#x309;" horiz-adv-x="0" 
d="M205.5 664q12.5 14 12.5 32q0 21 -16 34t-45 13q-14 0 -34 -6v67q26 9 63 9q56 0 92 -28t36 -72q0 -39 -30 -71t-92 -52l-26 46q27 14 39.5 28z" />
    <glyph glyph-name="uni030A" unicode="&#x30a;" horiz-adv-x="0" 
d="M159.5 619q-36.5 36 -36.5 89t36.5 89.5t91.5 36.5q53 0 90 -36.5t37 -89.5q0 -52 -37 -88.5t-90 -36.5q-55 0 -91.5 36zM211.5 669.5q15.5 -15.5 39.5 -15.5q22 0 37.5 15.5t15.5 38.5t-15.5 39t-37.5 16q-24 0 -39.5 -16t-15.5 -39t15.5 -38.5z" />
    <glyph glyph-name="uni030B" unicode="&#x30b;" horiz-adv-x="0" 
d="M186 784h147l-96 -144h-114zM372 784h147l-95 -144h-115z" />
    <glyph glyph-name="uni030C" unicode="&#x30c;" horiz-adv-x="0" 
d="M123 784h122l66 -79l68 79h119l-120 -144h-136z" />
    <glyph glyph-name="uni030F" unicode="&#x30f;" horiz-adv-x="0" 
d="M309 784h147l63 -144h-114zM270 784l63 -144h-115l-95 144h147z" />
    <glyph glyph-name="uni0311" unicode="&#x311;" horiz-adv-x="0" 
d="M145 712q22 34 59 54t80 20q44 0 81 -20t58.5 -53.5t21.5 -72.5h-103q0 23 -16.5 38.5t-41.5 15.5t-41.5 -15.5t-16.5 -38.5h-103q0 38 22 72z" />
    <glyph glyph-name="uni0312" unicode="&#x312;" horiz-adv-x="0" 
d="M162 739.5q39 51.5 113 67.5v-64q-33 -8 -54.5 -30t-26.5 -52h61v-140h-132v86q0 81 39 132.5z" />
    <glyph glyph-name="uni031B" unicode="&#x31b;" horiz-adv-x="0" 
d="M123 733h6q20 0 34 9t14 41q0 27 -21 77h113q11 -25 17 -45t6 -44q0 -65 -38.5 -98t-104.5 -33h-26v93z" />
    <glyph glyph-name="dotbelowcomb" unicode="&#x323;" horiz-adv-x="0" 
d="M144 -204q-21 21 -21 52q0 29 21.5 50.5t51.5 21.5q29 0 50.5 -21.5t21.5 -50.5q0 -31 -21 -52t-51 -21q-31 0 -52 21z" />
    <glyph glyph-name="uni0324" unicode="&#x324;" horiz-adv-x="0" 
d="M144 -204q-21 21 -21 52q0 29 21.5 50.5t51.5 21.5q29 0 50.5 -21.5t21.5 -50.5q0 -31 -21 -52t-51 -21q-31 0 -52 21zM339.5 -101.5q21.5 21.5 51.5 21.5q29 0 50.5 -21.5t21.5 -50.5q0 -31 -21 -52t-51 -21q-31 0 -52 21t-21 52q0 29 21.5 50.5z" />
    <glyph glyph-name="uni0326" unicode="&#x326;" horiz-adv-x="0" 
d="M204 -220h-61v140h132v-86q0 -88 -38.5 -141t-113.5 -69v63q69 17 81 93z" />
    <glyph glyph-name="uni0327" unicode="&#x327;" horiz-adv-x="0" 
d="M123 -210l12 68q24 -9 62 -9q24 0 37.5 8.5t13.5 24.5q0 13 -8.5 20.5t-24.5 7.5q-24 0 -39 -5l-23 11l15 114h87l-5 -62q5 1 15 1q39 0 64 -23t25 -61q0 -46 -38 -76t-109 -30q-48 0 -84 11z" />
    <glyph glyph-name="uni0328" unicode="&#x328;" horiz-adv-x="0" 
d="M164 -186q-41 30 -41 81q0 54 44 91t111 45h40v-34q-52 -13 -74 -33t-22 -43q0 -21 15.5 -33.5t44.5 -12.5q43 0 87 28l40 -68q-64 -51 -140 -51q-64 0 -105 30z" />
    <glyph glyph-name="uni032E" unicode="&#x32e;" horiz-adv-x="0" 
d="M204 -206q-37 20 -59 54t-22 72h103q0 -23 16.5 -38.5t41.5 -15.5t41.5 15.5t16.5 38.5h103q0 -39 -21.5 -72.5t-58.5 -53.5t-81 -20q-43 0 -80 20z" />
    <glyph glyph-name="uni0331" unicode="&#x331;" horiz-adv-x="0" 
d="M123 -100h281v-97h-281v97z" />
    <glyph glyph-name="uni0394" unicode="&#x394;" horiz-adv-x="630" 
d="M11 120l216 625h176l216 -625v-120h-608v120zM472 120l-157 473l-158 -473h315z" />
    <glyph glyph-name="uni03A9" unicode="&#x3a9;" horiz-adv-x="878" 
d="M50 120h113q-53 48 -83 113.5t-30 139.5q0 108 51 196t140 138t198 50t198 -50t140.5 -138t51.5 -196q0 -74 -30 -139.5t-84 -113.5h114v-120h-313v120q79 24 127.5 92.5t48.5 160.5q0 74 -33 133.5t-90.5 93t-129.5 33.5t-129.5 -33.5t-90.5 -93t-33 -133.5
q0 -92 48.5 -160.5t127.5 -92.5v-120h-312v120z" />
    <glyph glyph-name="pi" unicode="&#x3c0;" horiz-adv-x="682" 
d="M114 427h-92v117h638v-117h-91v-427h-131v427h-192v-427h-132v427z" />
    <glyph glyph-name="uni0E3F" unicode="&#xe3f;" horiz-adv-x="691" 
d="M72 745h228v100h85v-100h1q110 0 173 -56t63 -154q0 -80 -60 -134q90 -58 90 -173q0 -107 -70.5 -167.5t-195.5 -60.5h-1v-100h-85v100h-228v745zM300 120v217h-92v-217h92zM300 456v173h-92v-173h92zM400 120q52 0 84 29.5t32 78.5t-31.5 79t-84.5 30h-15v-217h15z
M393 456q42 0 67 24.5t25 63.5t-25 62t-67 23h-8v-173h8z" />
    <glyph glyph-name="uni1E08" unicode="&#x1e08;" horiz-adv-x="774" 
d="M298 -240l12 68q24 -9 62 -9q24 0 37.5 8.5t13.5 24.5q0 13 -8.5 20.5t-24.5 7.5q-24 0 -39 -5l-23 11l14 110q-85 17 -151.5 70t-103.5 132.5t-37 174.5q0 109 48.5 197t133 137.5t190.5 49.5q77 0 141 -26.5t108.5 -71t64.5 -98.5l-122 -57q-22 58 -73 93.5t-119 35.5
q-69 0 -123 -32.5t-83.5 -91.5t-29.5 -136t29.5 -136.5t83.5 -92t123 -32.5q68 0 119 35.5t73 93.5l122 -57q-19 -53 -62.5 -97t-106.5 -71t-138 -28l-4 -50q5 1 15 1q39 0 64 -23t25 -61q0 -46 -38 -76t-109 -30q-48 0 -84 11zM393 986h147l-96 -144h-114z" />
    <glyph glyph-name="uni1E09" unicode="&#x1e09;" horiz-adv-x="608" 
d="M234 -240l12 68q24 -9 62 -9q24 0 37.5 8.5t13.5 24.5q0 13 -8.5 20.5t-24.5 7.5q-24 0 -39 -5l-23 11l14 105q-69 10 -124 49.5t-85.5 100t-30.5 132.5q0 80 37 144.5t102 101.5t146 37q87 0 155 -44.5t93 -116.5l-114 -50q-16 42 -52 66.5t-82 24.5q-42 0 -76 -21
t-53.5 -58.5t-19.5 -84.5t19.5 -84.5t53.5 -58.5t76 -21q47 0 82.5 24.5t51.5 67.5l114 -52q-21 -62 -76.5 -104.5t-129.5 -52.5l-4 -53q5 1 15 1q39 0 64 -23t25 -61q0 -46 -38 -76t-109 -30q-48 0 -84 11zM329 784h147l-96 -144h-114z" />
    <glyph glyph-name="uni1E0C" unicode="&#x1e0c;" horiz-adv-x="740" 
d="M72 745h243q117 0 205 -47t136 -131.5t48 -193.5q0 -108 -48 -193t-136.5 -132.5t-204.5 -47.5h-243v745zM318 120q75 0 131.5 31t87 88.5t30.5 133.5t-30.5 133t-87 88t-131.5 31h-110v-505h110zM325 -204q-21 21 -21 52q0 29 21.5 50.5t51.5 21.5q29 0 50.5 -21.5
t21.5 -50.5q0 -31 -21 -52t-51 -21q-31 0 -52 21z" />
    <glyph glyph-name="uni1E0D" unicode="&#x1e0d;" horiz-adv-x="672" 
d="M173.5 25.5q-62.5 37.5 -98.5 102.5t-36 144t36 144t99 102.5t139 37.5q52 0 95 -17.5t72 -49.5v268h131v-757h-124v60q-30 -35 -75 -53.5t-98 -18.5q-78 0 -140.5 37.5zM194.5 187.5q19.5 -37.5 54.5 -58.5t79 -21t78.5 21t54 58.5t19.5 84.5t-19.5 84.5t-54.5 58.5
t-78 21q-44 0 -79 -21.5t-54.5 -59t-19.5 -83.5q0 -47 19.5 -84.5zM285 -204q-21 21 -21 52q0 29 21.5 50.5t51.5 21.5q29 0 50.5 -21.5t21.5 -50.5q0 -31 -21 -52t-51 -21q-31 0 -52 21z" />
    <glyph glyph-name="uni1E0E" unicode="&#x1e0e;" horiz-adv-x="740" 
d="M72 745h243q117 0 205 -47t136 -131.5t48 -193.5q0 -108 -48 -193t-136.5 -132.5t-204.5 -47.5h-243v745zM318 120q75 0 131.5 31t87 88.5t30.5 133.5t-30.5 133t-87 88t-131.5 31h-110v-505h110zM237 -100h281v-97h-281v97z" />
    <glyph glyph-name="uni1E0F" unicode="&#x1e0f;" horiz-adv-x="672" 
d="M173.5 25.5q-62.5 37.5 -98.5 102.5t-36 144t36 144t99 102.5t139 37.5q52 0 95 -17.5t72 -49.5v268h131v-757h-124v60q-30 -35 -75 -53.5t-98 -18.5q-78 0 -140.5 37.5zM194.5 187.5q19.5 -37.5 54.5 -58.5t79 -21t78.5 21t54 58.5t19.5 84.5t-19.5 84.5t-54.5 58.5
t-78 21q-44 0 -79 -21.5t-54.5 -59t-19.5 -83.5q0 -47 19.5 -84.5zM196 -100h281v-97h-281v97z" />
    <glyph glyph-name="uni1E14" unicode="&#x1e14;" horiz-adv-x="595" 
d="M72 745h495v-120h-359v-191h339v-120h-339v-194h359v-120h-495v745zM180 958h281v-97h-281v97zM338 1112l49 -112h-114l-75 112h140z" />
    <glyph glyph-name="uni1E15" unicode="&#x1e15;" horiz-adv-x="612" 
d="M173.5 26q-63.5 38 -99 103t-35.5 144q0 80 35.5 144.5t97 101.5t137.5 37q82 0 142 -35.5t91.5 -96.5t31.5 -134q0 -34 -7 -55h-392q6 -60 46 -96t99 -36q44 0 75.5 18.5t50.5 51.5l106 -52q-25 -60 -88 -96.5t-145 -36.5t-145.5 38zM434 335q-5 50 -39 81.5t-86 31.5
q-50 0 -85 -29.5t-46 -83.5h256zM167 756h281v-97h-281v97zM325 910l49 -112h-114l-75 112h140z" />
    <glyph glyph-name="uni1E16" unicode="&#x1e16;" horiz-adv-x="595" 
d="M72 745h495v-120h-359v-191h339v-120h-339v-194h359v-120h-495v745zM180 958h281v-97h-281v97zM303 1112h139l-75 -112h-114z" />
    <glyph glyph-name="uni1E17" unicode="&#x1e17;" horiz-adv-x="612" 
d="M173.5 26q-63.5 38 -99 103t-35.5 144q0 80 35.5 144.5t97 101.5t137.5 37q82 0 142 -35.5t91.5 -96.5t31.5 -134q0 -34 -7 -55h-392q6 -60 46 -96t99 -36q44 0 75.5 18.5t50.5 51.5l106 -52q-25 -60 -88 -96.5t-145 -36.5t-145.5 38zM434 335q-5 50 -39 81.5t-86 31.5
q-50 0 -85 -29.5t-46 -83.5h256zM167 756h281v-97h-281v97zM290 910h139l-75 -112h-114z" />
    <glyph glyph-name="uni1E1C" unicode="&#x1e1c;" horiz-adv-x="595" 
d="M72 745h495v-120h-359v-191h339v-120h-339v-194h359v-120h-495v745zM231 -240l12 68q24 -9 62 -9q24 0 37.5 8.5t13.5 24.5q0 13 -8.5 20.5t-24.5 7.5q-24 0 -39 -5l-23 11l15 114h87l-5 -62q5 1 15 1q39 0 64 -23t25 -61q0 -46 -38 -76t-109 -30q-48 0 -84 11zM240 862
q-37 20 -59 54t-22 72h103q0 -23 16.5 -38.5t41.5 -15.5t41.5 15.5t16.5 38.5h103q0 -39 -21.5 -72.5t-58.5 -53.5t-81 -20q-43 0 -80 20z" />
    <glyph glyph-name="uni1E1D" unicode="&#x1e1d;" horiz-adv-x="612" 
d="M218 -240l12 68q24 -9 62 -9q24 0 37.5 8.5t13.5 24.5q0 13 -8.5 20.5t-24.5 7.5q-24 0 -39 -5l-23 11l14 107q-66 12 -117 52t-78.5 99t-27.5 129q0 80 35.5 144.5t97 101.5t137.5 37q82 0 142 -35.5t91.5 -96.5t31.5 -134q0 -34 -7 -55h-392q6 -60 46 -96t99 -36
q44 0 75.5 18.5t50.5 51.5l106 -52q-23 -54 -77 -89.5t-126 -42.5l-4 -51q5 1 15 1q39 0 64 -23t25 -61q0 -46 -38 -76t-109 -30q-48 0 -84 11zM249 786q0 -23 16.5 -38.5t41.5 -15.5t41.5 15.5t16.5 38.5h103q0 -39 -21.5 -72.5t-58.5 -53.5t-81 -20q-43 0 -80 20t-59 54
t-22 72h103zM434 335q-5 50 -39 81.5t-86 31.5q-50 0 -85 -29.5t-46 -83.5h256z" />
    <glyph glyph-name="uni1E20" unicode="&#x1e20;" horiz-adv-x="808" 
d="M234 38q-86 50 -135 138t-49 197t48.5 197t133 137.5t190.5 49.5q77 0 141 -26.5t108.5 -71t64.5 -98.5l-121 -58q-22 59 -72.5 94.5t-120.5 35.5q-69 0 -123 -32.5t-83.5 -91.5t-29.5 -136t30.5 -136.5t85 -92t123.5 -32.5q57 0 105.5 23t77 65t28.5 97v3h-214v115h350
v-75q0 -111 -48.5 -190.5t-128 -120.5t-170.5 -41q-105 0 -191 50zM264 958h281v-97h-281v97z" />
    <glyph glyph-name="uni1E21" unicode="&#x1e21;" horiz-adv-x="652" 
d="M163.5 -176.5q-69.5 43.5 -95.5 115.5l122 46q12 -39 48 -62t87 -23q60 0 97.5 34t37.5 93v59q-58 -64 -157 -64q-75 0 -135.5 35t-94.5 96t-34 137t33.5 136.5t93.5 95t134 34.5q105 0 167 -74v62h124v-517q0 -71 -34 -127.5t-94.5 -88t-137.5 -31.5q-92 0 -161.5 43.5z
M215.5 184.5q40.5 -41.5 103.5 -41.5q62 0 101.5 41t39.5 105t-40 105.5t-101 41.5q-62 0 -103 -42t-41 -105t40.5 -104.5zM186 756h281v-97h-281v97z" />
    <glyph glyph-name="uni1E24" unicode="&#x1e24;" horiz-adv-x="733" 
d="M72 745h136v-325h317v325h137v-745h-137v300h-317v-300h-136v745zM315 -204q-21 21 -21 52q0 29 21.5 50.5t51.5 21.5q29 0 50.5 -21.5t21.5 -50.5q0 -31 -21 -52t-51 -21q-31 0 -52 21z" />
    <glyph glyph-name="uni1E25" unicode="&#x1e25;" 
d="M61 757h131v-267q23 32 61 49t85 17q59 0 106 -26t73 -73t26 -107v-350h-131v319q0 53 -30.5 85t-79.5 32q-48 0 -79 -32t-31 -85v-319h-131v757zM245 -204q-21 21 -21 52q0 29 21.5 50.5t51.5 21.5q29 0 50.5 -21.5t21.5 -50.5q0 -31 -21 -52t-51 -21q-31 0 -52 21z" />
    <glyph glyph-name="uni1E2A" unicode="&#x1e2a;" horiz-adv-x="733" 
d="M72 745h136v-325h317v325h137v-745h-137v300h-317v-300h-136v745zM287 -206q-37 20 -59 54t-22 72h103q0 -23 16.5 -38.5t41.5 -15.5t41.5 15.5t16.5 38.5h103q0 -39 -21.5 -72.5t-58.5 -53.5t-81 -20q-43 0 -80 20z" />
    <glyph glyph-name="uni1E2B" unicode="&#x1e2b;" 
d="M61 757h131v-267q23 32 61 49t85 17q59 0 106 -26t73 -73t26 -107v-350h-131v319q0 53 -30.5 85t-79.5 32q-48 0 -79 -32t-31 -85v-319h-131v757zM217 -206q-37 20 -59 54t-22 72h103q0 -23 16.5 -38.5t41.5 -15.5t41.5 15.5t16.5 38.5h103q0 -39 -21.5 -72.5
t-58.5 -53.5t-81 -20q-43 0 -80 20z" />
    <glyph glyph-name="uni1E2E" unicode="&#x1e2e;" horiz-adv-x="279" 
d="M72 745h136v-745h-136v745zM186 868.5q-21 21.5 -21 51.5t21 51t52 21q29 0 50.5 -21t21.5 -51t-21 -51.5t-51 -21.5q-31 0 -52 21.5zM-9 971q21 21 52 21q29 0 50.5 -21t21.5 -51t-21 -51.5t-51 -21.5q-31 0 -52 21.5t-21 51.5t21 51zM141 1126h115l-68 -104h-96z" />
    <glyph glyph-name="uni1E2F" unicode="&#x1e2f;" horiz-adv-x="228" 
d="M49 544h131v-544h-131v544zM160 666.5q-21 21.5 -21 51.5t21 51t52 21q29 0 50.5 -21t21.5 -51t-21 -51.5t-51 -21.5q-31 0 -52 21.5zM-35 769q21 21 52 21q29 0 50.5 -21t21.5 -51t-21 -51.5t-51 -21.5q-31 0 -52 21.5t-21 51.5t21 51zM115 924h115l-68 -104h-96z" />
    <glyph glyph-name="uni1E36" unicode="&#x1e36;" horiz-adv-x="543" 
d="M72 745h136v-625h319v-120h-455v745zM248 -204q-21 21 -21 52q0 29 21.5 50.5t51.5 21.5q29 0 50.5 -21.5t21.5 -50.5q0 -31 -21 -52t-51 -21q-31 0 -52 21z" />
    <glyph glyph-name="uni1E37" unicode="&#x1e37;" horiz-adv-x="252" 
d="M61 757h131v-757h-131v757zM75 -204q-21 21 -21 52q0 29 21.5 50.5t51.5 21.5q29 0 50.5 -21.5t21.5 -50.5q0 -31 -21 -52t-51 -21q-31 0 -52 21z" />
    <glyph glyph-name="uni1E3A" unicode="&#x1e3a;" horiz-adv-x="543" 
d="M72 745h136v-625h319v-120h-455v745zM159 -100h281v-97h-281v97z" />
    <glyph glyph-name="uni1E3B" unicode="&#x1e3b;" horiz-adv-x="252" 
d="M61 757h131v-757h-131v757zM-14 -100h281v-97h-281v97z" />
    <glyph glyph-name="uni1E42" unicode="&#x1e42;" horiz-adv-x="893" 
d="M72 745h130l248 -336l242 336h130v-745h-137v506l-230 -306h-16l-231 316v-516h-136v745zM395 -204q-21 21 -21 52q0 29 21.5 50.5t51.5 21.5q29 0 50.5 -21.5t21.5 -50.5q0 -31 -21 -52t-51 -21q-31 0 -52 21z" />
    <glyph glyph-name="uni1E43" unicode="&#x1e43;" horiz-adv-x="924" 
d="M61 544h123v-68q21 39 60.5 59.5t91.5 20.5q54 0 99 -23.5t69 -64.5q27 44 70.5 66t98.5 22q57 0 103 -26t72 -73t26 -107v-350h-131v319q0 54 -28.5 85.5t-76.5 31.5q-47 0 -76 -32t-29 -85v-319h-131v319q0 54 -28.5 85.5t-76.5 31.5q-47 0 -76 -32t-29 -85v-319h-131
v544zM411 -204q-21 21 -21 52q0 29 21.5 50.5t51.5 21.5q29 0 50.5 -21.5t21.5 -50.5q0 -31 -21 -52t-51 -21q-31 0 -52 21z" />
    <glyph glyph-name="uni1E44" unicode="&#x1e44;" horiz-adv-x="741" 
d="M72 745h106l355 -478v478h136v-745h-107l-354 487v-487h-136v745zM319 868.5q-21 21.5 -21 51.5t21 51t52 21q29 0 50.5 -21t21.5 -51t-21 -51.5t-51 -21.5q-31 0 -52 21.5z" />
    <glyph glyph-name="uni1E45" unicode="&#x1e45;" 
d="M61 544h123v-67q21 38 61.5 58.5t92.5 20.5q59 0 106 -26t73 -73t26 -107v-350h-131v319q0 53 -30.5 85t-79.5 32t-79.5 -32t-30.5 -85v-319h-131v544zM245 666.5q-21 21.5 -21 51.5t21 51t52 21q29 0 50.5 -21t21.5 -51t-21 -51.5t-51 -21.5q-31 0 -52 21.5z" />
    <glyph glyph-name="uni1E46" unicode="&#x1e46;" horiz-adv-x="741" 
d="M72 745h106l355 -478v478h136v-745h-107l-354 487v-487h-136v745zM319 -204q-21 21 -21 52q0 29 21.5 50.5t51.5 21.5q29 0 50.5 -21.5t21.5 -50.5q0 -31 -21 -52t-51 -21q-31 0 -52 21z" />
    <glyph glyph-name="uni1E47" unicode="&#x1e47;" 
d="M61 544h123v-67q21 38 61.5 58.5t92.5 20.5q59 0 106 -26t73 -73t26 -107v-350h-131v319q0 53 -30.5 85t-79.5 32t-79.5 -32t-30.5 -85v-319h-131v544zM245 -204q-21 21 -21 52q0 29 21.5 50.5t51.5 21.5q29 0 50.5 -21.5t21.5 -50.5q0 -31 -21 -52t-51 -21q-31 0 -52 21
z" />
    <glyph glyph-name="uni1E48" unicode="&#x1e48;" horiz-adv-x="741" 
d="M72 745h106l355 -478v478h136v-745h-107l-354 487v-487h-136v745zM230 -100h281v-97h-281v97z" />
    <glyph glyph-name="uni1E49" unicode="&#x1e49;" 
d="M61 544h123v-67q21 38 61.5 58.5t92.5 20.5q59 0 106 -26t73 -73t26 -107v-350h-131v319q0 53 -30.5 85t-79.5 32t-79.5 -32t-30.5 -85v-319h-131v544zM157 -100h281v-97h-281v97z" />
    <glyph glyph-name="uni1E4C" unicode="&#x1e4c;" horiz-adv-x="878" 
d="M241 38.5q-89 50.5 -140 138.5t-51 196t51 196t140 138t198 50t198 -50t140.5 -138t51.5 -196t-51.5 -196t-140.5 -138.5t-198 -50.5t-198 50.5zM219 239q33 -60 90.5 -93.5t129.5 -33.5t129.5 33.5t90.5 93.5t33 134t-33 133.5t-90.5 93t-129.5 33.5t-129.5 -33.5
t-90.5 -93t-33 -133.5t33 -134zM471 861q-16 7 -37 22q-12 10 -21 14.5t-19 4.5q-28 0 -32 -44h-83q0 68 26.5 100.5t69.5 32.5q23 0 39 -7.5t33 -21.5q13 -10 21 -14.5t19 -4.5q14 0 22 12.5t8 30.5h84q0 -69 -22.5 -100.5t-66.5 -31.5q-25 0 -41 7zM437 1134h140l-75 -112
h-114z" />
    <glyph glyph-name="uni1E4D" unicode="&#x1e4d;" horiz-adv-x="652" 
d="M182 25q-66 37 -104.5 102t-38.5 145t38 145t104 102t146 37q79 0 144.5 -37t104 -102t38.5 -145q0 -81 -38.5 -146t-104.5 -101.5t-144 -36.5q-79 0 -145 37zM217.5 154.5q42.5 -46.5 109.5 -46.5q43 0 77 21t53.5 58.5t19.5 84.5q0 46 -19.5 83.5t-53.5 59t-77 21.5
q-44 0 -78.5 -21.5t-54 -58.5t-19.5 -84q0 -71 42.5 -117.5zM358 659q-16 7 -37 22q-12 10 -21 14.5t-19 4.5q-28 0 -32 -44h-83q0 68 26.5 100.5t69.5 32.5q23 0 39 -7.5t33 -21.5q13 -10 21 -14.5t19 -4.5q14 0 22 12.5t8 30.5h84q0 -69 -22.5 -100.5t-66.5 -31.5
q-25 0 -41 7zM324 932h140l-75 -112h-114z" />
    <glyph glyph-name="uni1E4E" unicode="&#x1e4e;" horiz-adv-x="878" 
d="M241 38.5q-89 50.5 -140 138.5t-51 196t51 196t140 138t198 50t198 -50t140.5 -138t51.5 -196t-51.5 -196t-140.5 -138.5t-198 -50.5t-198 50.5zM219 239q33 -60 90.5 -93.5t129.5 -33.5t129.5 33.5t90.5 93.5t33 134t-33 133.5t-90.5 93t-129.5 33.5t-129.5 -33.5
t-90.5 -93t-33 -133.5t33 -134zM469.5 861.5q-16.5 7.5 -36.5 22.5q-14 10 -22 14t-18 4q-28 0 -32 -44h-83q0 68 26.5 100.5t70.5 32.5q23 0 38.5 -7.5t32.5 -21.5q13 -10 21 -14.5t19 -4.5q14 0 22 12.5t9 30.5h83q0 -132 -88 -132q-26 0 -42.5 7.5zM291.5 1139
q21.5 21 51.5 21q29 0 50.5 -21.5t21.5 -50.5q0 -31 -21 -52t-51 -21q-31 0 -52 21t-21 52q0 30 21.5 51zM486.5 1139q21.5 21 51.5 21q29 0 50.5 -21.5t21.5 -50.5q0 -31 -21 -52t-51 -21q-31 0 -52 21t-21 52q0 30 21.5 51z" />
    <glyph glyph-name="uni1E4F" unicode="&#x1e4f;" horiz-adv-x="652" 
d="M182 25q-66 37 -104.5 102t-38.5 145t38 145t104 102t146 37q79 0 144.5 -37t104 -102t38.5 -145q0 -81 -38.5 -146t-104.5 -101.5t-144 -36.5q-79 0 -145 37zM217.5 154.5q42.5 -46.5 109.5 -46.5q43 0 77 21t53.5 58.5t19.5 84.5q0 46 -19.5 83.5t-53.5 59t-77 21.5
q-44 0 -78.5 -21.5t-54 -58.5t-19.5 -84q0 -71 42.5 -117.5zM356.5 659.5q-16.5 7.5 -36.5 22.5q-14 10 -22 14t-18 4q-28 0 -32 -44h-83q0 68 26.5 100.5t70.5 32.5q23 0 38.5 -7.5t32.5 -21.5q13 -10 21 -14.5t19 -4.5q14 0 22 12.5t9 30.5h83q0 -132 -88 -132
q-26 0 -42.5 7.5zM178.5 937q21.5 21 51.5 21q29 0 50.5 -21.5t21.5 -50.5q0 -31 -21 -52t-51 -21q-31 0 -52 21t-21 52q0 30 21.5 51zM373.5 937q21.5 21 51.5 21q29 0 50.5 -21.5t21.5 -50.5q0 -31 -21 -52t-51 -21q-31 0 -52 21t-21 52q0 30 21.5 51z" />
    <glyph glyph-name="uni1E50" unicode="&#x1e50;" horiz-adv-x="878" 
d="M241 38.5q-89 50.5 -140 138.5t-51 196t51 196t140 138t198 50t198 -50t140.5 -138t51.5 -196t-51.5 -196t-140.5 -138.5t-198 -50.5t-198 50.5zM219 239q33 -60 90.5 -93.5t129.5 -33.5t129.5 33.5t90.5 93.5t33 134t-33 133.5t-90.5 93t-129.5 33.5t-129.5 -33.5
t-90.5 -93t-33 -133.5t33 -134zM299 958h281v-97h-281v97zM457 1112l49 -112h-114l-75 112h140z" />
    <glyph glyph-name="uni1E51" unicode="&#x1e51;" horiz-adv-x="652" 
d="M182 25q-66 37 -104.5 102t-38.5 145t38 145t104 102t146 37q79 0 144.5 -37t104 -102t38.5 -145q0 -81 -38.5 -146t-104.5 -101.5t-144 -36.5q-79 0 -145 37zM217.5 154.5q42.5 -46.5 109.5 -46.5q43 0 77 21t53.5 58.5t19.5 84.5q0 46 -19.5 83.5t-53.5 59t-77 21.5
q-44 0 -78.5 -21.5t-54 -58.5t-19.5 -84q0 -71 42.5 -117.5zM187 756h281v-97h-281v97zM345 910l49 -112h-114l-75 112h140z" />
    <glyph glyph-name="uni1E52" unicode="&#x1e52;" horiz-adv-x="878" 
d="M241 38.5q-89 50.5 -140 138.5t-51 196t51 196t140 138t198 50t198 -50t140.5 -138t51.5 -196t-51.5 -196t-140.5 -138.5t-198 -50.5t-198 50.5zM219 239q33 -60 90.5 -93.5t129.5 -33.5t129.5 33.5t90.5 93.5t33 134t-33 133.5t-90.5 93t-129.5 33.5t-129.5 -33.5
t-90.5 -93t-33 -133.5t33 -134zM299 958h281v-97h-281v97zM422 1112h139l-75 -112h-114z" />
    <glyph glyph-name="uni1E53" unicode="&#x1e53;" horiz-adv-x="652" 
d="M182 25q-66 37 -104.5 102t-38.5 145t38 145t104 102t146 37q79 0 144.5 -37t104 -102t38.5 -145q0 -81 -38.5 -146t-104.5 -101.5t-144 -36.5q-79 0 -145 37zM217.5 154.5q42.5 -46.5 109.5 -46.5q43 0 77 21t53.5 58.5t19.5 84.5q0 46 -19.5 83.5t-53.5 59t-77 21.5
q-44 0 -78.5 -21.5t-54 -58.5t-19.5 -84q0 -71 42.5 -117.5zM187 756h281v-97h-281v97zM310 910h139l-75 -112h-114z" />
    <glyph glyph-name="uni1E5A" unicode="&#x1e5a;" horiz-adv-x="661" 
d="M72 745h277q76 0 135 -27.5t91.5 -80.5t32.5 -127q0 -76 -36 -130.5t-99 -80.5l171 -299h-154l-154 275h-128v-275h-136v745zM351 395q55 0 88 31.5t33 83.5t-33 83.5t-88 31.5h-143v-230h143zM278 -204q-21 21 -21 52q0 29 21.5 50.5t51.5 21.5q29 0 50.5 -21.5
t21.5 -50.5q0 -31 -21 -52t-51 -21q-31 0 -52 21z" />
    <glyph glyph-name="uni1E5B" unicode="&#x1e5b;" horiz-adv-x="374" 
d="M61 544h123v-76q20 44 57 63t90 19h32v-116h-47q-56 0 -90 -35t-34 -96v-303h-131v544zM75 -204q-21 21 -21 52q0 29 21.5 50.5t51.5 21.5q29 0 50.5 -21.5t21.5 -50.5q0 -31 -21 -52t-51 -21q-31 0 -52 21z" />
    <glyph glyph-name="uni1E5E" unicode="&#x1e5e;" horiz-adv-x="661" 
d="M72 745h277q76 0 135 -27.5t91.5 -80.5t32.5 -127q0 -76 -36 -130.5t-99 -80.5l171 -299h-154l-154 275h-128v-275h-136v745zM351 395q55 0 88 31.5t33 83.5t-33 83.5t-88 31.5h-143v-230h143zM189 -100h281v-97h-281v97z" />
    <glyph glyph-name="uni1E5F" unicode="&#x1e5f;" horiz-adv-x="374" 
d="M61 544h123v-76q20 44 57 63t90 19h32v-116h-47q-56 0 -90 -35t-34 -96v-303h-131v544zM-14 -100h281v-97h-281v97z" />
    <glyph glyph-name="uni1E60" unicode="&#x1e60;" horiz-adv-x="647" 
d="M185.5 21q-64.5 33 -100.5 83.5t-46 105.5l128 34q15 -61 60 -95t113 -34q52 0 84.5 26t32.5 62q0 33 -23.5 57.5t-63.5 32.5l-112 22q-89 17 -140 77t-51 146q0 60 34.5 110.5t92 79.5t122.5 29q83 0 141 -28t90.5 -70.5t43.5 -89.5l-127 -40q-21 54 -57 77.5t-91 23.5
q-31 0 -55.5 -13t-38 -33.5t-13.5 -41.5q0 -33 22 -57.5t61 -31.5l106 -23q97 -21 150 -79.5t53 -139.5q0 -58 -32 -109t-91.5 -82.5t-139.5 -31.5q-88 0 -152.5 33zM272 868.5q-21 21.5 -21 51.5t21 51t52 21q29 0 50.5 -21t21.5 -51t-21 -51.5t-51 -21.5q-31 0 -52 21.5z
" />
    <glyph glyph-name="uni1E61" unicode="&#x1e61;" horiz-adv-x="514" 
d="M120.5 28q-62.5 39 -88.5 107l97 50q22 -44 58.5 -68.5t80.5 -24.5q38 0 59.5 15.5t21.5 42.5q0 23 -18 38.5t-47 20.5l-89 15q-69 18 -106.5 61.5t-37.5 102.5q0 49 26 87.5t72.5 59.5t105.5 21q75 0 132 -35.5t83 -98.5l-97 -50q-16 35 -49 56t-73 21q-33 0 -52.5 -15
t-19.5 -39q0 -44 66 -59l87 -16q69 -19 107 -62t38 -102q0 -49 -26.5 -87t-74.5 -59t-111 -21q-82 0 -144.5 39zM206 666.5q-21 21.5 -21 51.5t21 51t52 21q29 0 50.5 -21t21.5 -51t-21 -51.5t-51 -21.5q-31 0 -52 21.5z" />
    <glyph glyph-name="uni1E62" unicode="&#x1e62;" horiz-adv-x="647" 
d="M185.5 21q-64.5 33 -100.5 83.5t-46 105.5l128 34q15 -61 60 -95t113 -34q52 0 84.5 26t32.5 62q0 33 -23.5 57.5t-63.5 32.5l-112 22q-89 17 -140 77t-51 146q0 60 34.5 110.5t92 79.5t122.5 29q83 0 141 -28t90.5 -70.5t43.5 -89.5l-127 -40q-21 54 -57 77.5t-91 23.5
q-31 0 -55.5 -13t-38 -33.5t-13.5 -41.5q0 -33 22 -57.5t61 -31.5l106 -23q97 -21 150 -79.5t53 -139.5q0 -58 -32 -109t-91.5 -82.5t-139.5 -31.5q-88 0 -152.5 33zM272 -204q-21 21 -21 52q0 29 21.5 50.5t51.5 21.5q29 0 50.5 -21.5t21.5 -50.5q0 -31 -21 -52t-51 -21
q-31 0 -52 21z" />
    <glyph glyph-name="uni1E63" unicode="&#x1e63;" horiz-adv-x="514" 
d="M120.5 28q-62.5 39 -88.5 107l97 50q22 -44 58.5 -68.5t80.5 -24.5q38 0 59.5 15.5t21.5 42.5q0 23 -18 38.5t-47 20.5l-89 15q-69 18 -106.5 61.5t-37.5 102.5q0 49 26 87.5t72.5 59.5t105.5 21q75 0 132 -35.5t83 -98.5l-97 -50q-16 35 -49 56t-73 21q-33 0 -52.5 -15
t-19.5 -39q0 -44 66 -59l87 -16q69 -19 107 -62t38 -102q0 -49 -26.5 -87t-74.5 -59t-111 -21q-82 0 -144.5 39zM206 -204q-21 21 -21 52q0 29 21.5 50.5t51.5 21.5q29 0 50.5 -21.5t21.5 -50.5q0 -31 -21 -52t-51 -21q-31 0 -52 21z" />
    <glyph glyph-name="uni1E64" unicode="&#x1e64;" horiz-adv-x="647" 
d="M185.5 21q-64.5 33 -100.5 83.5t-46 105.5l128 34q15 -61 60 -95t113 -34q52 0 84.5 26t32.5 62q0 33 -23.5 57.5t-63.5 32.5l-112 22q-89 17 -140 77t-51 146q0 60 34.5 110.5t92 79.5t122.5 29q83 0 141 -28t90.5 -70.5t43.5 -89.5l-127 -40q-21 54 -57 77.5t-91 23.5
q-31 0 -55.5 -13t-38 -33.5t-13.5 -41.5q0 -33 22 -57.5t61 -31.5l106 -23q97 -21 150 -79.5t53 -139.5q0 -58 -32 -109t-91.5 -82.5t-139.5 -31.5q-88 0 -152.5 33zM272 868.5q-21 21.5 -21 51.5t21 51t52 21q29 0 50.5 -21t21.5 -51t-21 -51.5t-51 -21.5q-31 0 -52 21.5z
M319 1134h140l-75 -112h-114z" />
    <glyph glyph-name="uni1E65" unicode="&#x1e65;" horiz-adv-x="514" 
d="M120.5 28q-62.5 39 -88.5 107l97 50q22 -44 58.5 -68.5t80.5 -24.5q38 0 59.5 15.5t21.5 42.5q0 23 -18 38.5t-47 20.5l-89 15q-69 18 -106.5 61.5t-37.5 102.5q0 49 26 87.5t72.5 59.5t105.5 21q75 0 132 -35.5t83 -98.5l-97 -50q-16 35 -49 56t-73 21q-33 0 -52.5 -15
t-19.5 -39q0 -44 66 -59l87 -16q69 -19 107 -62t38 -102q0 -49 -26.5 -87t-74.5 -59t-111 -21q-82 0 -144.5 39zM206 666.5q-21 21.5 -21 51.5t21 51t52 21q29 0 50.5 -21t21.5 -51t-21 -51.5t-51 -21.5q-31 0 -52 21.5zM253 932h140l-75 -112h-114z" />
    <glyph glyph-name="uni1E66" unicode="&#x1e66;" horiz-adv-x="647" 
d="M185.5 21q-64.5 33 -100.5 83.5t-46 105.5l128 34q15 -61 60 -95t113 -34q52 0 84.5 26t32.5 62q0 33 -23.5 57.5t-63.5 32.5l-112 22q-89 17 -140 77t-51 146q0 60 34.5 110.5t92 79.5t122.5 29q83 0 141 -28t90.5 -70.5t43.5 -89.5l-127 -40q-21 54 -57 77.5t-91 23.5
q-31 0 -55.5 -13t-38 -33.5t-13.5 -41.5q0 -33 22 -57.5t61 -31.5l106 -23q97 -21 150 -79.5t53 -139.5q0 -58 -32 -109t-91.5 -82.5t-139.5 -31.5q-88 0 -152.5 33zM136 986h122l66 -79l68 79h119l-120 -144h-136zM273 1110q21 21 52 21q29 0 50.5 -21t21.5 -51t-21 -51.5
t-51 -21.5q-31 0 -52 21.5t-21 51.5t21 51z" />
    <glyph glyph-name="uni1E67" unicode="&#x1e67;" horiz-adv-x="514" 
d="M120.5 28q-62.5 39 -88.5 107l97 50q22 -44 58.5 -68.5t80.5 -24.5q38 0 59.5 15.5t21.5 42.5q0 23 -18 38.5t-47 20.5l-89 15q-69 18 -106.5 61.5t-37.5 102.5q0 49 26 87.5t72.5 59.5t105.5 21q75 0 132 -35.5t83 -98.5l-97 -50q-16 35 -49 56t-73 21q-33 0 -52.5 -15
t-19.5 -39q0 -44 66 -59l87 -16q69 -19 107 -62t38 -102q0 -49 -26.5 -87t-74.5 -59t-111 -21q-82 0 -144.5 39zM69 784h122l66 -79l68 79h119l-120 -144h-136zM206 908q21 21 52 21q29 0 50.5 -21t21.5 -51t-21 -51.5t-51 -21.5q-31 0 -52 21.5t-21 51.5t21 51z" />
    <glyph glyph-name="uni1E68" unicode="&#x1e68;" horiz-adv-x="647" 
d="M185.5 21q-64.5 33 -100.5 83.5t-46 105.5l128 34q15 -61 60 -95t113 -34q52 0 84.5 26t32.5 62q0 33 -23.5 57.5t-63.5 32.5l-112 22q-89 17 -140 77t-51 146q0 60 34.5 110.5t92 79.5t122.5 29q83 0 141 -28t90.5 -70.5t43.5 -89.5l-127 -40q-21 54 -57 77.5t-91 23.5
q-31 0 -55.5 -13t-38 -33.5t-13.5 -41.5q0 -33 22 -57.5t61 -31.5l106 -23q97 -21 150 -79.5t53 -139.5q0 -58 -32 -109t-91.5 -82.5t-139.5 -31.5q-88 0 -152.5 33zM272 -204q-21 21 -21 52q0 29 21.5 50.5t51.5 21.5q29 0 50.5 -21.5t21.5 -50.5q0 -31 -21 -52t-51 -21
q-31 0 -52 21zM272 868.5q-21 21.5 -21 51.5t21 51t52 21q29 0 50.5 -21t21.5 -51t-21 -51.5t-51 -21.5q-31 0 -52 21.5z" />
    <glyph glyph-name="uni1E69" unicode="&#x1e69;" horiz-adv-x="514" 
d="M120.5 28q-62.5 39 -88.5 107l97 50q22 -44 58.5 -68.5t80.5 -24.5q38 0 59.5 15.5t21.5 42.5q0 23 -18 38.5t-47 20.5l-89 15q-69 18 -106.5 61.5t-37.5 102.5q0 49 26 87.5t72.5 59.5t105.5 21q75 0 132 -35.5t83 -98.5l-97 -50q-16 35 -49 56t-73 21q-33 0 -52.5 -15
t-19.5 -39q0 -44 66 -59l87 -16q69 -19 107 -62t38 -102q0 -49 -26.5 -87t-74.5 -59t-111 -21q-82 0 -144.5 39zM206 -204q-21 21 -21 52q0 29 21.5 50.5t51.5 21.5q29 0 50.5 -21.5t21.5 -50.5q0 -31 -21 -52t-51 -21q-31 0 -52 21zM206 666.5q-21 21.5 -21 51.5t21 51
t52 21q29 0 50.5 -21t21.5 -51t-21 -51.5t-51 -21.5q-31 0 -52 21.5z" />
    <glyph glyph-name="uni1E6C" unicode="&#x1e6c;" horiz-adv-x="542" 
d="M204 625h-193v120h520v-120h-190v-625h-137v625zM220 -204q-21 21 -21 52q0 29 21.5 50.5t51.5 21.5q29 0 50.5 -21.5t21.5 -50.5q0 -31 -21 -52t-51 -21q-31 0 -52 21z" />
    <glyph glyph-name="uni1E6D" unicode="&#x1e6d;" horiz-adv-x="413" 
d="M166.5 44.5q-50.5 50.5 -50.5 142.5v240h-94v117h10q40 0 62 21t22 61v42h131v-124h125v-117h-125v-233q0 -85 92 -85q16 0 35 3v-113q-32 -5 -65 -5q-92 0 -142.5 50.5zM250 -204q-21 21 -21 52q0 29 21.5 50.5t51.5 21.5q29 0 50.5 -21.5t21.5 -50.5q0 -31 -21 -52
t-51 -21q-31 0 -52 21z" />
    <glyph glyph-name="uni1E6E" unicode="&#x1e6e;" horiz-adv-x="542" 
d="M204 625h-193v120h520v-120h-190v-625h-137v625zM131 -100h281v-97h-281v97z" />
    <glyph glyph-name="uni1E6F" unicode="&#x1e6f;" horiz-adv-x="413" 
d="M166.5 44.5q-50.5 50.5 -50.5 142.5v240h-94v117h10q40 0 62 21t22 61v42h131v-124h125v-117h-125v-233q0 -85 92 -85q16 0 35 3v-113q-32 -5 -65 -5q-92 0 -142.5 50.5zM162 -100h281v-97h-281v97z" />
    <glyph glyph-name="uni1E78" unicode="&#x1e78;" horiz-adv-x="718" 
d="M207 24q-67 36 -105 99.5t-38 142.5v479h136v-472q0 -71 44.5 -116t114.5 -45t114.5 45t44.5 116v472h136v-479q0 -79 -38 -142.5t-105 -99.5t-152 -36t-152 36zM391 861q-16 7 -37 22q-12 10 -21 14.5t-19 4.5q-28 0 -32 -44h-83q0 68 26.5 100.5t69.5 32.5
q23 0 39 -7.5t33 -21.5q13 -10 21 -14.5t19 -4.5q14 0 22 12.5t8 30.5h84q0 -69 -22.5 -100.5t-66.5 -31.5q-25 0 -41 7zM357 1134h140l-75 -112h-114z" />
    <glyph glyph-name="uni1E79" unicode="&#x1e79;" 
d="M105 49q-55 61 -55 162v333h131v-322q0 -51 30.5 -82.5t79.5 -31.5t79.5 32t30.5 85v319h131v-544h-124v65q-22 -38 -61.5 -57.5t-91.5 -19.5q-95 0 -150 61zM328 659q-16 7 -37 22q-12 10 -21 14.5t-19 4.5q-28 0 -32 -44h-83q0 68 26.5 100.5t69.5 32.5q23 0 39 -7.5
t33 -21.5q13 -10 21 -14.5t19 -4.5q14 0 22 12.5t8 30.5h84q0 -69 -22.5 -100.5t-66.5 -31.5q-25 0 -41 7zM294 932h140l-75 -112h-114z" />
    <glyph glyph-name="uni1E7A" unicode="&#x1e7a;" horiz-adv-x="718" 
d="M207 24q-67 36 -105 99.5t-38 142.5v479h136v-472q0 -71 44.5 -116t114.5 -45t114.5 45t44.5 116v472h136v-479q0 -79 -38 -142.5t-105 -99.5t-152 -36t-152 36zM219 958h281v-97h-281v97zM212.5 1125q21.5 21 51.5 21q29 0 50.5 -21.5t21.5 -50.5q0 -30 -21 -51.5
t-51 -21.5q-31 0 -52 21t-21 52q0 30 21.5 51zM407.5 1125q21.5 21 51.5 21q29 0 50.5 -21.5t21.5 -50.5q0 -30 -21 -51.5t-51 -21.5q-31 0 -52 21t-21 52q0 30 21.5 51z" />
    <glyph glyph-name="uni1E7B" unicode="&#x1e7b;" 
d="M105 49q-55 61 -55 162v333h131v-322q0 -51 30.5 -82.5t79.5 -31.5t79.5 32t30.5 85v319h131v-544h-124v65q-22 -38 -61.5 -57.5t-91.5 -19.5q-95 0 -150 61zM157 756h281v-97h-281v97zM150.5 923q21.5 21 51.5 21q29 0 50.5 -21.5t21.5 -50.5q0 -30 -21 -51.5t-51 -21.5
q-31 0 -52 21t-21 52q0 30 21.5 51zM345.5 923q21.5 21 51.5 21q29 0 50.5 -21.5t21.5 -50.5q0 -30 -21 -51.5t-51 -21.5q-31 0 -52 21t-21 52q0 30 21.5 51z" />
    <glyph glyph-name="Wgrave" unicode="&#x1e80;" horiz-adv-x="1020" 
d="M11 745h146l138 -560l145 560h141l144 -560l138 560h146l-200 -745h-156l-143 536l-143 -536h-156zM358 986h147l63 -144h-115z" />
    <glyph glyph-name="wgrave" unicode="&#x1e81;" horiz-adv-x="883" 
d="M11 544h138l114 -343l121 343h116l120 -342l114 342h138l-187 -544h-117l-126 367l-128 -367h-116zM289 784h147l63 -144h-115z" />
    <glyph glyph-name="Wacute" unicode="&#x1e82;" horiz-adv-x="1020" 
d="M11 745h146l138 -560l145 560h141l144 -560l138 560h146l-200 -745h-156l-143 536l-143 -536h-156zM516 986h147l-96 -144h-114z" />
    <glyph glyph-name="wacute" unicode="&#x1e83;" horiz-adv-x="883" 
d="M11 544h138l114 -343l121 343h116l120 -342l114 342h138l-187 -544h-117l-126 367l-128 -367h-116zM448 784h147l-96 -144h-114z" />
    <glyph glyph-name="Wdieresis" unicode="&#x1e84;" horiz-adv-x="1020" 
d="M11 745h146l138 -560l145 560h141l144 -560l138 560h146l-200 -745h-156l-143 536l-143 -536h-156zM362 868.5q-21 21.5 -21 51.5t21 51t52 21q29 0 50.5 -21t21.5 -51t-21 -51.5t-51 -21.5q-31 0 -52 21.5zM557 971q21 21 52 21q29 0 50.5 -21t21.5 -51t-21 -51.5
t-51 -21.5q-31 0 -52 21.5t-21 51.5t21 51z" />
    <glyph glyph-name="wdieresis" unicode="&#x1e85;" horiz-adv-x="883" 
d="M11 544h138l114 -343l121 343h116l120 -342l114 342h138l-187 -544h-117l-126 367l-128 -367h-116zM293 666.5q-21 21.5 -21 51.5t21 51t52 21q29 0 50.5 -21t21.5 -51t-21 -51.5t-51 -21.5q-31 0 -52 21.5zM488 769q21 21 52 21q29 0 50.5 -21t21.5 -51t-21 -51.5
t-51 -21.5q-31 0 -52 21.5t-21 51.5t21 51z" />
    <glyph glyph-name="uni1E8E" unicode="&#x1e8e;" horiz-adv-x="660" 
d="M262 330l-251 415h155l164 -277l164 277h155l-250 -414v-331h-137v330zM279 868.5q-21 21.5 -21 51.5t21 51t52 21q29 0 50.5 -21t21.5 -51t-21 -51.5t-51 -21.5q-31 0 -52 21.5z" />
    <glyph glyph-name="uni1E8F" unicode="&#x1e8f;" horiz-adv-x="586" 
d="M241 666.5q-21 21.5 -21 51.5t21 51t52 21q29 0 50.5 -21t21.5 -51t-21 -51.5t-51 -21.5q-31 0 -52 21.5z" />
    <glyph glyph-name="uni1E92" unicode="&#x1e92;" horiz-adv-x="571" 
d="M14 107l361 518h-340v120h513v-107l-360 -518h370v-120h-544v107zM235 -204q-21 21 -21 52q0 29 21.5 50.5t51.5 21.5q29 0 50.5 -21.5t21.5 -50.5q0 -31 -21 -52t-51 -21q-31 0 -52 21z" />
    <glyph glyph-name="uni1E93" unicode="&#x1e93;" horiz-adv-x="481" 
d="M14 106l277 321h-263v117h438v-107l-272 -321h274v-116h-454v106zM192 -204q-21 21 -21 52q0 29 21.5 50.5t51.5 21.5q29 0 50.5 -21.5t21.5 -50.5q0 -31 -21 -52t-51 -21q-31 0 -52 21z" />
    <glyph glyph-name="uni1E97" unicode="&#x1e97;" horiz-adv-x="413" 
d="M166.5 44.5q-50.5 50.5 -50.5 142.5v240h-94v117h10q40 0 62 21t22 61v42h131v-124h125v-117h-125v-233q0 -85 92 -85q16 0 35 3v-113q-32 -5 -65 -5q-92 0 -142.5 50.5zM33 790.5q-21 21.5 -21 51.5t21 51t52 21q29 0 50.5 -21t21.5 -51t-21 -51.5t-51 -21.5
q-31 0 -52 21.5zM228 893q21 21 52 21q29 0 50.5 -21t21.5 -51t-21 -51.5t-51 -21.5q-31 0 -52 21.5t-21 51.5t21 51z" />
    <glyph glyph-name="uni1E9E" unicode="&#x1e9e;" horiz-adv-x="1294" 
d="M185.5 21q-64.5 33 -100.5 83.5t-46 105.5l128 34q15 -61 60 -95t113 -34q52 0 84.5 26t32.5 62q0 33 -23.5 57.5t-63.5 32.5l-112 22q-89 17 -140 77t-51 146q0 60 34.5 110.5t92 79.5t122.5 29q83 0 141 -28t90.5 -70.5t43.5 -89.5l-127 -40q-21 54 -57 77.5t-91 23.5
q-31 0 -55.5 -13t-38 -33.5t-13.5 -41.5q0 -33 22 -57.5t61 -31.5l106 -23q97 -21 150 -79.5t53 -139.5q0 -58 -32 -109t-91.5 -82.5t-139.5 -31.5q-88 0 -152.5 33zM832.5 21q-64.5 33 -100.5 83.5t-46 105.5l128 34q15 -61 60 -95t113 -34q52 0 84.5 26t32.5 62
q0 33 -23.5 57.5t-63.5 32.5l-112 22q-89 17 -140 77t-51 146q0 60 34.5 110.5t92 79.5t122.5 29q83 0 141 -28t90.5 -70.5t43.5 -89.5l-127 -40q-21 54 -57 77.5t-91 23.5q-31 0 -55.5 -13t-38 -33.5t-13.5 -41.5q0 -33 22 -57.5t61 -31.5l106 -23q97 -21 150 -79.5
t53 -139.5q0 -58 -32 -109t-91.5 -82.5t-139.5 -31.5q-88 0 -152.5 33z" />
    <glyph glyph-name="uni1EA0" unicode="&#x1ea0;" horiz-adv-x="712" 
d="M268 745h176l257 -745h-148l-53 160h-288l-54 -160h-147zM461 280l-105 314l-105 -314h210zM305 -204q-21 21 -21 52q0 29 21.5 50.5t51.5 21.5q29 0 50.5 -21.5t21.5 -50.5q0 -31 -21 -52t-51 -21q-31 0 -52 21z" />
    <glyph glyph-name="uni1EA1" unicode="&#x1ea1;" horiz-adv-x="580" 
d="M89.5 30q-50.5 42 -50.5 114q0 69 47 114t141 60l162 26v18q0 36 -27.5 59t-72.5 23q-42 0 -74.5 -22.5t-47.5 -59.5l-107 52q24 64 88 103t146 39q66 0 117.5 -24.5t80 -69t28.5 -100.5v-362h-124v58q-64 -70 -170 -70q-86 0 -136.5 42zM196 104.5q21 -16.5 54 -16.5
q61 0 100 38.5t39 95.5v22l-137 -23q-39 -8 -58 -25.5t-19 -46.5q0 -28 21 -44.5zM239 -204q-21 21 -21 52q0 29 21.5 50.5t51.5 21.5q29 0 50.5 -21.5t21.5 -50.5q0 -31 -21 -52t-51 -21q-31 0 -52 21z" />
    <glyph glyph-name="uni1EA2" unicode="&#x1ea2;" horiz-adv-x="712" 
d="M268 745h176l257 -745h-148l-53 160h-288l-54 -160h-147zM461 280l-105 314l-105 -314h210zM343.5 866q12.5 14 12.5 32q0 21 -16 34t-45 13q-14 0 -34 -6v67q26 9 63 9q56 0 92 -28t36 -72q0 -39 -30 -71t-92 -52l-26 46q27 14 39.5 28z" />
    <glyph glyph-name="uni1EA3" unicode="&#x1ea3;" horiz-adv-x="580" 
d="M89.5 30q-50.5 42 -50.5 114q0 69 47 114t141 60l162 26v18q0 36 -27.5 59t-72.5 23q-42 0 -74.5 -22.5t-47.5 -59.5l-107 52q24 64 88 103t146 39q66 0 117.5 -24.5t80 -69t28.5 -100.5v-362h-124v58q-64 -70 -170 -70q-86 0 -136.5 42zM196 104.5q21 -16.5 54 -16.5
q61 0 100 38.5t39 95.5v22l-137 -23q-39 -8 -58 -25.5t-19 -46.5q0 -28 21 -44.5zM277.5 664q12.5 14 12.5 32q0 21 -16 34t-45 13q-14 0 -34 -6v67q26 9 63 9q56 0 92 -28t36 -72q0 -39 -30 -71t-92 -52l-26 46q27 14 39.5 28z" />
    <glyph glyph-name="uni1EA4" unicode="&#x1ea4;" horiz-adv-x="712" 
d="M268 745h176l257 -745h-148l-53 160h-288l-54 -160h-147zM461 280l-105 314l-105 -314h210zM287 986h136l120 -144h-119l-68 79l-66 -79h-122zM493 1076h139l-75 -112h-114z" />
    <glyph glyph-name="uni1EA5" unicode="&#x1ea5;" horiz-adv-x="580" 
d="M89.5 30q-50.5 42 -50.5 114q0 69 47 114t141 60l162 26v18q0 36 -27.5 59t-72.5 23q-42 0 -74.5 -22.5t-47.5 -59.5l-107 52q24 64 88 103t146 39q66 0 117.5 -24.5t80 -69t28.5 -100.5v-362h-124v58q-64 -70 -170 -70q-86 0 -136.5 42zM196 104.5q21 -16.5 54 -16.5
q61 0 100 38.5t39 95.5v22l-137 -23q-39 -8 -58 -25.5t-19 -46.5q0 -28 21 -44.5zM221 784h136l120 -144h-119l-68 79l-66 -79h-122zM427 874h139l-75 -112h-114z" />
    <glyph glyph-name="uni1EA6" unicode="&#x1ea6;" horiz-adv-x="712" 
d="M268 745h176l257 -745h-148l-53 160h-288l-54 -160h-147zM461 280l-105 314l-105 -314h210zM287 986h136l120 -144h-119l-68 79l-66 -79h-122zM513 1067l49 -103h-96l-68 103h115z" />
    <glyph glyph-name="uni1EA7" unicode="&#x1ea7;" horiz-adv-x="580" 
d="M89.5 30q-50.5 42 -50.5 114q0 69 47 114t141 60l162 26v18q0 36 -27.5 59t-72.5 23q-42 0 -74.5 -22.5t-47.5 -59.5l-107 52q24 64 88 103t146 39q66 0 117.5 -24.5t80 -69t28.5 -100.5v-362h-124v58q-64 -70 -170 -70q-86 0 -136.5 42zM196 104.5q21 -16.5 54 -16.5
q61 0 100 38.5t39 95.5v22l-137 -23q-39 -8 -58 -25.5t-19 -46.5q0 -28 21 -44.5zM221 784h136l120 -144h-119l-68 79l-66 -79h-122zM447 865l49 -103h-96l-68 103h115z" />
    <glyph glyph-name="uni1EA8" unicode="&#x1ea8;" horiz-adv-x="712" 
d="M268 745h176l257 -745h-148l-53 160h-288l-54 -160h-147zM461 280l-105 314l-105 -314h210zM287 986h136l120 -144h-119l-68 79l-66 -79h-122zM435 1134q27 9 63 9q56 0 92 -28t36 -72q0 -39 -30 -71t-92 -52l-26 46q28 14 40 28t12 32q0 21 -16 34t-45 13q-14 0 -34 -6
v67z" />
    <glyph glyph-name="uni1EA9" unicode="&#x1ea9;" horiz-adv-x="580" 
d="M89.5 30q-50.5 42 -50.5 114q0 69 47 114t141 60l162 26v18q0 36 -27.5 59t-72.5 23q-42 0 -74.5 -22.5t-47.5 -59.5l-107 52q24 64 88 103t146 39q66 0 117.5 -24.5t80 -69t28.5 -100.5v-362h-124v58q-64 -70 -170 -70q-86 0 -136.5 42zM196 104.5q21 -16.5 54 -16.5
q61 0 100 38.5t39 95.5v22l-137 -23q-39 -8 -58 -25.5t-19 -46.5q0 -28 21 -44.5zM221 784h136l120 -144h-119l-68 79l-66 -79h-122zM369 932q27 9 63 9q56 0 92 -28t36 -72q0 -39 -30 -71t-92 -52l-26 46q28 14 40 28t12 32q0 21 -16 34t-45 13q-14 0 -34 -6v67z" />
    <glyph glyph-name="uni1EAA" unicode="&#x1eaa;" horiz-adv-x="712" 
d="M268 745h176l257 -745h-148l-53 160h-288l-54 -160h-147zM461 280l-105 314l-105 -314h210zM287 986h136l120 -144h-119l-68 79l-66 -79h-122zM226.5 1114q25.5 31 66.5 31q23 0 38 -7.5t32 -21.5q15 -11 22.5 -15t18.5 -4q15 0 23 12t9 31h75q-1 -123 -86 -123
q-25 0 -41.5 7.5t-34.5 21.5q-2 1 -10.5 7t-16 8.5t-14.5 2.5q-29 0 -32 -43h-75q0 62 25.5 93z" />
    <glyph glyph-name="uni1EAB" unicode="&#x1eab;" horiz-adv-x="580" 
d="M89.5 30q-50.5 42 -50.5 114q0 69 47 114t141 60l162 26v18q0 36 -27.5 59t-72.5 23q-42 0 -74.5 -22.5t-47.5 -59.5l-107 52q24 64 88 103t146 39q66 0 117.5 -24.5t80 -69t28.5 -100.5v-362h-124v58q-64 -70 -170 -70q-86 0 -136.5 42zM196 104.5q21 -16.5 54 -16.5
q61 0 100 38.5t39 95.5v22l-137 -23q-39 -8 -58 -25.5t-19 -46.5q0 -28 21 -44.5zM222 784h136l120 -144h-119l-68 79l-66 -79h-122zM161.5 912q25.5 31 66.5 31q23 0 38 -7.5t32 -21.5q15 -11 22.5 -15t18.5 -4q15 0 23 12t9 31h75q-1 -123 -86 -123q-25 0 -41.5 7.5
t-34.5 21.5q-2 1 -10.5 7t-16 8.5t-14.5 2.5q-29 0 -32 -43h-75q0 62 25.5 93z" />
    <glyph glyph-name="uni1EAC" unicode="&#x1eac;" horiz-adv-x="712" 
d="M268 745h176l257 -745h-148l-53 160h-288l-54 -160h-147zM461 280l-105 314l-105 -314h210zM305 -204q-21 21 -21 52q0 29 21.5 50.5t51.5 21.5q29 0 50.5 -21.5t21.5 -50.5q0 -31 -21 -52t-51 -21q-31 0 -52 21zM287 986h136l120 -144h-119l-68 79l-66 -79h-122z" />
    <glyph glyph-name="uni1EAD" unicode="&#x1ead;" horiz-adv-x="580" 
d="M89.5 30q-50.5 42 -50.5 114q0 69 47 114t141 60l162 26v18q0 36 -27.5 59t-72.5 23q-42 0 -74.5 -22.5t-47.5 -59.5l-107 52q24 64 88 103t146 39q66 0 117.5 -24.5t80 -69t28.5 -100.5v-362h-124v58q-64 -70 -170 -70q-86 0 -136.5 42zM196 104.5q21 -16.5 54 -16.5
q61 0 100 38.5t39 95.5v22l-137 -23q-39 -8 -58 -25.5t-19 -46.5q0 -28 21 -44.5zM239 -204q-21 21 -21 52q0 29 21.5 50.5t51.5 21.5q29 0 50.5 -21.5t21.5 -50.5q0 -31 -21 -52t-51 -21q-31 0 -52 21zM221 784h136l120 -144h-119l-68 79l-66 -79h-122z" />
    <glyph glyph-name="uni1EAE" unicode="&#x1eae;" horiz-adv-x="712" 
d="M268 745h176l257 -745h-148l-53 160h-288l-54 -160h-147zM461 280l-105 314l-105 -314h210zM276 862q-37 20 -59 54t-22 72h103q0 -23 16.5 -38.5t41.5 -15.5t41.5 15.5t16.5 38.5h103q0 -39 -21.5 -72.5t-58.5 -53.5t-81 -20q-43 0 -80 20zM349 1134h140l-75 -112h-114z
" />
    <glyph glyph-name="uni1EAF" unicode="&#x1eaf;" horiz-adv-x="580" 
d="M89.5 30q-50.5 42 -50.5 114q0 69 47 114t141 60l162 26v18q0 36 -27.5 59t-72.5 23q-42 0 -74.5 -22.5t-47.5 -59.5l-107 52q24 64 88 103t146 39q66 0 117.5 -24.5t80 -69t28.5 -100.5v-362h-124v58q-64 -70 -170 -70q-86 0 -136.5 42zM196 104.5q21 -16.5 54 -16.5
q61 0 100 38.5t39 95.5v22l-137 -23q-39 -8 -58 -25.5t-19 -46.5q0 -28 21 -44.5zM211 660q-37 20 -59 54t-22 72h103q0 -23 16.5 -38.5t41.5 -15.5t41.5 15.5t16.5 38.5h103q0 -39 -21.5 -72.5t-58.5 -53.5t-81 -20q-43 0 -80 20zM284 932h140l-75 -112h-114z" />
    <glyph glyph-name="uni1EB0" unicode="&#x1eb0;" horiz-adv-x="712" 
d="M268 745h176l257 -745h-148l-53 160h-288l-54 -160h-147zM461 280l-105 314l-105 -314h210zM276 862q-37 20 -59 54t-22 72h102q0 -23 17 -38.5t42 -15.5t41.5 15.5t16.5 38.5h103q0 -39 -21.5 -72.5t-58.5 -53.5t-81 -20q-43 0 -80 20zM363 1134l49 -112h-114l-75 112
h140z" />
    <glyph glyph-name="uni1EB1" unicode="&#x1eb1;" horiz-adv-x="580" 
d="M89.5 30q-50.5 42 -50.5 114q0 69 47 114t141 60l162 26v18q0 36 -27.5 59t-72.5 23q-42 0 -74.5 -22.5t-47.5 -59.5l-107 52q24 64 88 103t146 39q66 0 117.5 -24.5t80 -69t28.5 -100.5v-362h-124v58q-64 -70 -170 -70q-86 0 -136.5 42zM196 104.5q21 -16.5 54 -16.5
q61 0 100 38.5t39 95.5v22l-137 -23q-39 -8 -58 -25.5t-19 -46.5q0 -28 21 -44.5zM211 660q-37 20 -59 54t-22 72h102q0 -23 17 -38.5t42 -15.5t41.5 15.5t16.5 38.5h103q0 -39 -21.5 -72.5t-58.5 -53.5t-81 -20q-43 0 -80 20zM298 932l49 -112h-114l-75 112h140z" />
    <glyph glyph-name="uni1EB2" unicode="&#x1eb2;" horiz-adv-x="712" 
d="M268 745h176l257 -745h-148l-53 160h-288l-54 -160h-147zM461 280l-105 314l-105 -314h210zM276 862q-37 20 -59 54t-22 72h103q0 -23 16.5 -38.5t41.5 -15.5t41.5 15.5t16.5 38.5h103q0 -39 -21.5 -72.5t-58.5 -53.5t-81 -20q-43 0 -80 20zM272 1197q30 10 63 10
q56 0 92 -28.5t36 -72.5q0 -38 -30 -70t-92 -52l-26 46q28 14 40 28t12 32q0 21 -16 34t-45 13q-14 0 -34 -6v66z" />
    <glyph glyph-name="uni1EB3" unicode="&#x1eb3;" horiz-adv-x="580" 
d="M89.5 30q-50.5 42 -50.5 114q0 69 47 114t141 60l162 26v18q0 36 -27.5 59t-72.5 23q-42 0 -74.5 -22.5t-47.5 -59.5l-107 52q24 64 88 103t146 39q66 0 117.5 -24.5t80 -69t28.5 -100.5v-362h-124v58q-64 -70 -170 -70q-86 0 -136.5 42zM196 104.5q21 -16.5 54 -16.5
q61 0 100 38.5t39 95.5v22l-137 -23q-39 -8 -58 -25.5t-19 -46.5q0 -28 21 -44.5zM211 660q-37 20 -59 54t-22 72h103q0 -23 16.5 -38.5t41.5 -15.5t41.5 15.5t16.5 38.5h103q0 -39 -21.5 -72.5t-58.5 -53.5t-81 -20q-43 0 -80 20zM207 995q30 10 63 10q56 0 92 -28.5
t36 -72.5q0 -38 -30 -70t-92 -52l-26 46q28 14 40 28t12 32q0 21 -16 34t-45 13q-14 0 -34 -6v66z" />
    <glyph glyph-name="uni1EB4" unicode="&#x1eb4;" horiz-adv-x="712" 
d="M268 745h176l257 -745h-148l-53 160h-288l-54 -160h-147zM461 280l-105 314l-105 -314h210zM276 862q-37 20 -59 54t-22 72h103q0 -23 16.5 -38.5t41.5 -15.5t42 15.5t17 38.5h103q0 -39 -21.5 -72.5t-59 -53.5t-81.5 -20q-43 0 -80 20zM227.5 1121.5
q25.5 30.5 66.5 30.5q22 0 37 -7t33 -21q15 -11 22.5 -15t18.5 -4q14 0 22 12t9 30h75q0 -62 -22.5 -92t-63.5 -30q-25 0 -41 7.5t-34 21.5q-2 1 -10.5 7t-16 8.5t-14.5 2.5q-28 0 -33 -43h-75q1 62 26.5 92.5z" />
    <glyph glyph-name="uni1EB5" unicode="&#x1eb5;" horiz-adv-x="580" 
d="M89.5 30q-50.5 42 -50.5 114q0 69 47 114t141 60l162 26v18q0 36 -27.5 59t-72.5 23q-42 0 -74.5 -22.5t-47.5 -59.5l-107 52q24 64 88 103t146 39q66 0 117.5 -24.5t80 -69t28.5 -100.5v-362h-124v58q-64 -70 -170 -70q-86 0 -136.5 42zM196 104.5q21 -16.5 54 -16.5
q61 0 100 38.5t39 95.5v22l-137 -23q-39 -8 -58 -25.5t-19 -46.5q0 -28 21 -44.5zM210 660q-37 20 -59 54t-22 72h103q0 -23 16.5 -38.5t41.5 -15.5t42 15.5t17 38.5h103q0 -39 -21.5 -72.5t-59 -53.5t-81.5 -20q-43 0 -80 20zM161.5 919.5q25.5 30.5 66.5 30.5q22 0 37 -7
t33 -21q15 -11 22.5 -15t18.5 -4q14 0 22 12t9 30h75q0 -62 -22.5 -92t-63.5 -30q-25 0 -41 7.5t-34 21.5q-2 1 -10.5 7t-16 8.5t-14.5 2.5q-28 0 -33 -43h-75q1 62 26.5 92.5z" />
    <glyph glyph-name="uni1EB6" unicode="&#x1eb6;" horiz-adv-x="712" 
d="M268 745h176l257 -745h-148l-53 160h-288l-54 -160h-147zM461 280l-105 314l-105 -314h210zM305 -204q-21 21 -21 52q0 29 21.5 50.5t51.5 21.5q29 0 50.5 -21.5t21.5 -50.5q0 -31 -21 -52t-51 -21q-31 0 -52 21zM276 862q-37 20 -59 54t-22 72h103q0 -23 16.5 -38.5
t41.5 -15.5t41.5 15.5t16.5 38.5h103q0 -39 -21.5 -72.5t-58.5 -53.5t-81 -20q-43 0 -80 20z" />
    <glyph glyph-name="uni1EB7" unicode="&#x1eb7;" horiz-adv-x="580" 
d="M89.5 30q-50.5 42 -50.5 114q0 69 47 114t141 60l162 26v18q0 36 -27.5 59t-72.5 23q-42 0 -74.5 -22.5t-47.5 -59.5l-107 52q24 64 88 103t146 39q66 0 117.5 -24.5t80 -69t28.5 -100.5v-362h-124v58q-64 -70 -170 -70q-86 0 -136.5 42zM196 104.5q21 -16.5 54 -16.5
q61 0 100 38.5t39 95.5v22l-137 -23q-39 -8 -58 -25.5t-19 -46.5q0 -28 21 -44.5zM239 -204q-21 21 -21 52q0 29 21.5 50.5t51.5 21.5q29 0 50.5 -21.5t21.5 -50.5q0 -31 -21 -52t-51 -21q-31 0 -52 21zM211 660q-37 20 -59 54t-22 72h103q0 -23 16.5 -38.5t41.5 -15.5
t41.5 15.5t16.5 38.5h103q0 -39 -21.5 -72.5t-58.5 -53.5t-81 -20q-43 0 -80 20z" />
    <glyph glyph-name="uni1EB8" unicode="&#x1eb8;" horiz-adv-x="595" 
d="M72 745h495v-120h-359v-191h339v-120h-339v-194h359v-120h-495v745zM268 -204q-21 21 -21 52q0 29 21.5 50.5t51.5 21.5q29 0 50.5 -21.5t21.5 -50.5q0 -31 -21 -52t-51 -21q-31 0 -52 21z" />
    <glyph glyph-name="uni1EB9" unicode="&#x1eb9;" horiz-adv-x="612" 
d="M173.5 26q-63.5 38 -99 103t-35.5 144q0 80 35.5 144.5t97 101.5t137.5 37q82 0 142 -35.5t91.5 -96.5t31.5 -134q0 -34 -7 -55h-392q6 -60 46 -96t99 -36q44 0 75.5 18.5t50.5 51.5l106 -52q-25 -60 -88 -96.5t-145 -36.5t-145.5 38zM434 335q-5 50 -39 81.5t-86 31.5
q-50 0 -85 -29.5t-46 -83.5h256zM255 -204q-21 21 -21 52q0 29 21.5 50.5t51.5 21.5q29 0 50.5 -21.5t21.5 -50.5q0 -31 -21 -52t-51 -21q-31 0 -52 21z" />
    <glyph glyph-name="uni1EBA" unicode="&#x1eba;" horiz-adv-x="595" 
d="M72 745h495v-120h-359v-191h339v-120h-339v-194h359v-120h-495v745zM306.5 866q12.5 14 12.5 32q0 21 -16 34t-45 13q-14 0 -34 -6v67q26 9 63 9q56 0 92 -28t36 -72q0 -39 -30 -71t-92 -52l-26 46q27 14 39.5 28z" />
    <glyph glyph-name="uni1EBB" unicode="&#x1ebb;" horiz-adv-x="612" 
d="M173.5 26q-63.5 38 -99 103t-35.5 144q0 80 35.5 144.5t97 101.5t137.5 37q82 0 142 -35.5t91.5 -96.5t31.5 -134q0 -34 -7 -55h-392q6 -60 46 -96t99 -36q44 0 75.5 18.5t50.5 51.5l106 -52q-25 -60 -88 -96.5t-145 -36.5t-145.5 38zM434 335q-5 50 -39 81.5t-86 31.5
q-50 0 -85 -29.5t-46 -83.5h256zM293.5 664q12.5 14 12.5 32q0 21 -16 34t-45 13q-14 0 -34 -6v67q26 9 63 9q56 0 92 -28t36 -72q0 -39 -30 -71t-92 -52l-26 46q27 14 39.5 28z" />
    <glyph glyph-name="uni1EBC" unicode="&#x1ebc;" horiz-adv-x="595" 
d="M72 745h495v-120h-359v-191h339v-120h-339v-194h359v-120h-495v745zM351 861q-16 7 -37 22q-12 10 -21 14.5t-19 4.5q-28 0 -32 -44h-83q0 68 26.5 100.5t69.5 32.5q23 0 39 -7.5t33 -21.5q13 -10 21 -14.5t19 -4.5q14 0 22 12.5t8 30.5h84q0 -69 -22.5 -100.5
t-66.5 -31.5q-25 0 -41 7z" />
    <glyph glyph-name="uni1EBD" unicode="&#x1ebd;" horiz-adv-x="612" 
d="M173.5 26q-63.5 38 -99 103t-35.5 144q0 80 35.5 144.5t97 101.5t137.5 37q82 0 142 -35.5t91.5 -96.5t31.5 -134q0 -34 -7 -55h-392q6 -60 46 -96t99 -36q44 0 75.5 18.5t50.5 51.5l106 -52q-25 -60 -88 -96.5t-145 -36.5t-145.5 38zM434 335q-5 50 -39 81.5t-86 31.5
q-50 0 -85 -29.5t-46 -83.5h256zM338 659q-16 7 -37 22q-12 10 -21 14.5t-19 4.5q-28 0 -32 -44h-83q0 68 26.5 100.5t69.5 32.5q23 0 39 -7.5t33 -21.5q13 -10 21 -14.5t19 -4.5q14 0 22 12.5t8 30.5h84q0 -69 -22.5 -100.5t-66.5 -31.5q-25 0 -41 7z" />
    <glyph glyph-name="uni1EBE" unicode="&#x1ebe;" horiz-adv-x="595" 
d="M72 745h495v-120h-359v-191h339v-120h-339v-194h359v-120h-495v745zM250 986h136l120 -144h-119l-68 79l-66 -79h-122zM456 1076h139l-75 -112h-114z" />
    <glyph glyph-name="uni1EBF" unicode="&#x1ebf;" horiz-adv-x="612" 
d="M173.5 26q-63.5 38 -99 103t-35.5 144q0 80 35.5 144.5t97 101.5t137.5 37q82 0 142 -35.5t91.5 -96.5t31.5 -134q0 -34 -7 -55h-392q6 -60 46 -96t99 -36q44 0 75.5 18.5t50.5 51.5l106 -52q-25 -60 -88 -96.5t-145 -36.5t-145.5 38zM434 335q-5 50 -39 81.5t-86 31.5
q-50 0 -85 -29.5t-46 -83.5h256zM237 784h136l120 -144h-119l-68 79l-66 -79h-122zM443 874h139l-75 -112h-114z" />
    <glyph glyph-name="uni1EC0" unicode="&#x1ec0;" horiz-adv-x="595" 
d="M72 745h495v-120h-359v-191h339v-120h-339v-194h359v-120h-495v745zM250 986h136l120 -144h-119l-68 79l-66 -79h-122zM476 1067l49 -103h-96l-68 103h115z" />
    <glyph glyph-name="uni1EC1" unicode="&#x1ec1;" horiz-adv-x="612" 
d="M173.5 26q-63.5 38 -99 103t-35.5 144q0 80 35.5 144.5t97 101.5t137.5 37q82 0 142 -35.5t91.5 -96.5t31.5 -134q0 -34 -7 -55h-392q6 -60 46 -96t99 -36q44 0 75.5 18.5t50.5 51.5l106 -52q-25 -60 -88 -96.5t-145 -36.5t-145.5 38zM434 335q-5 50 -39 81.5t-86 31.5
q-50 0 -85 -29.5t-46 -83.5h256zM237 784h136l120 -144h-119l-68 79l-66 -79h-122zM463 865l49 -103h-96l-68 103h115z" />
    <glyph glyph-name="uni1EC2" unicode="&#x1ec2;" horiz-adv-x="595" 
d="M72 745h495v-120h-359v-191h339v-120h-339v-194h359v-120h-495v745zM250 986h136l120 -144h-119l-68 79l-66 -79h-122zM398 1134q27 9 63 9q56 0 92 -28t36 -72q0 -39 -30 -71t-92 -52l-26 46q28 14 40 28t12 32q0 21 -16 34t-45 13q-14 0 -34 -6v67z" />
    <glyph glyph-name="uni1EC3" unicode="&#x1ec3;" horiz-adv-x="612" 
d="M173.5 26q-63.5 38 -99 103t-35.5 144q0 80 35.5 144.5t97 101.5t137.5 37q82 0 142 -35.5t91.5 -96.5t31.5 -134q0 -34 -7 -55h-392q6 -60 46 -96t99 -36q44 0 75.5 18.5t50.5 51.5l106 -52q-25 -60 -88 -96.5t-145 -36.5t-145.5 38zM434 335q-5 50 -39 81.5t-86 31.5
q-50 0 -85 -29.5t-46 -83.5h256zM237 784h136l120 -144h-119l-68 79l-66 -79h-122zM385 932q27 9 63 9q56 0 92 -28t36 -72q0 -39 -30 -71t-92 -52l-26 46q28 14 40 28t12 32q0 21 -16 34t-45 13q-14 0 -34 -6v67z" />
    <glyph glyph-name="uni1EC4" unicode="&#x1ec4;" horiz-adv-x="595" 
d="M72 745h495v-120h-359v-191h339v-120h-339v-194h359v-120h-495v745zM251 986h136l120 -144h-119l-68 79l-66 -79h-122zM190.5 1114q25.5 31 66.5 31q23 0 38 -7.5t32 -21.5q15 -11 22.5 -15t18.5 -4q15 0 23 12t9 31h75q-1 -123 -86 -123q-25 0 -41.5 7.5t-34.5 21.5
q-2 1 -10.5 7t-16 8.5t-14.5 2.5q-29 0 -32 -43h-75q0 62 25.5 93z" />
    <glyph glyph-name="uni1EC5" unicode="&#x1ec5;" horiz-adv-x="612" 
d="M173.5 26q-63.5 38 -99 103t-35.5 144q0 80 35.5 144.5t97 101.5t137.5 37q82 0 142 -35.5t91.5 -96.5t31.5 -134q0 -34 -7 -55h-392q6 -60 46 -96t99 -36q44 0 75.5 18.5t50.5 51.5l106 -52q-25 -60 -88 -96.5t-145 -36.5t-145.5 38zM434 335q-5 50 -39 81.5t-86 31.5
q-50 0 -85 -29.5t-46 -83.5h256zM238 784h136l120 -144h-119l-68 79l-66 -79h-122zM177.5 912q25.5 31 66.5 31q23 0 38 -7.5t32 -21.5q15 -11 22.5 -15t18.5 -4q15 0 23 12t9 31h75q-1 -123 -86 -123q-25 0 -41.5 7.5t-34.5 21.5q-2 1 -10.5 7t-16 8.5t-14.5 2.5
q-29 0 -32 -43h-75q0 62 25.5 93z" />
    <glyph glyph-name="uni1EC6" unicode="&#x1ec6;" horiz-adv-x="595" 
d="M72 745h495v-120h-359v-191h339v-120h-339v-194h359v-120h-495v745zM268 -204q-21 21 -21 52q0 29 21.5 50.5t51.5 21.5q29 0 50.5 -21.5t21.5 -50.5q0 -31 -21 -52t-51 -21q-31 0 -52 21zM250 986h136l120 -144h-119l-68 79l-66 -79h-122z" />
    <glyph glyph-name="uni1EC7" unicode="&#x1ec7;" horiz-adv-x="612" 
d="M173.5 26q-63.5 38 -99 103t-35.5 144q0 80 35.5 144.5t97 101.5t137.5 37q82 0 142 -35.5t91.5 -96.5t31.5 -134q0 -34 -7 -55h-392q6 -60 46 -96t99 -36q44 0 75.5 18.5t50.5 51.5l106 -52q-25 -60 -88 -96.5t-145 -36.5t-145.5 38zM434 335q-5 50 -39 81.5t-86 31.5
q-50 0 -85 -29.5t-46 -83.5h256zM255 -204q-21 21 -21 52q0 29 21.5 50.5t51.5 21.5q29 0 50.5 -21.5t21.5 -50.5q0 -31 -21 -52t-51 -21q-31 0 -52 21zM237 784h136l120 -144h-119l-68 79l-66 -79h-122z" />
    <glyph glyph-name="uni1EC8" unicode="&#x1ec8;" horiz-adv-x="279" 
d="M72 745h136v-745h-136v745zM126.5 866q12.5 14 12.5 32q0 21 -16 34t-45 13q-14 0 -34 -6v67q26 9 63 9q56 0 92 -28t36 -72q0 -39 -30 -71t-92 -52l-26 46q27 14 39.5 28z" />
    <glyph glyph-name="uni1EC9" unicode="&#x1ec9;" horiz-adv-x="228" 
d="M49 544h131v-544h-131v544zM100.5 664q12.5 14 12.5 32q0 21 -16 34t-45 13q-14 0 -34 -6v67q26 9 63 9q56 0 92 -28t36 -72q0 -39 -30 -71t-92 -52l-26 46q27 14 39.5 28z" />
    <glyph glyph-name="uni1ECA" unicode="&#x1eca;" horiz-adv-x="279" 
d="M72 745h136v-745h-136v745zM88 -204q-21 21 -21 52q0 29 21.5 50.5t51.5 21.5q29 0 50.5 -21.5t21.5 -50.5q0 -31 -21 -52t-51 -21q-31 0 -52 21z" />
    <glyph glyph-name="uni1ECB" unicode="&#x1ecb;" horiz-adv-x="252" 
d="M61 544h131v-544h-131v544zM71 750q20 20 55 20q36 0 56 -20t20 -56q0 -35 -19.5 -55t-56.5 -20q-35 0 -55 20t-20 55q0 36 20 56zM75 -204q-21 21 -21 52q0 29 21.5 50.5t51.5 21.5q29 0 50.5 -21.5t21.5 -50.5q0 -31 -21 -52t-51 -21q-31 0 -52 21z" />
    <glyph glyph-name="uni1ECC" unicode="&#x1ecc;" horiz-adv-x="878" 
d="M241 38.5q-89 50.5 -140 138.5t-51 196t51 196t140 138t198 50t198 -50t140.5 -138t51.5 -196t-51.5 -196t-140.5 -138.5t-198 -50.5t-198 50.5zM219 239q33 -60 90.5 -93.5t129.5 -33.5t129.5 33.5t90.5 93.5t33 134t-33 133.5t-90.5 93t-129.5 33.5t-129.5 -33.5
t-90.5 -93t-33 -133.5t33 -134zM388 -204q-21 21 -21 52q0 29 21.5 50.5t51.5 21.5q29 0 50.5 -21.5t21.5 -50.5q0 -31 -21 -52t-51 -21q-31 0 -52 21z" />
    <glyph glyph-name="uni1ECD" unicode="&#x1ecd;" horiz-adv-x="652" 
d="M182 25q-66 37 -104.5 102t-38.5 145t38 145t104 102t146 37q79 0 144.5 -37t104 -102t38.5 -145q0 -81 -38.5 -146t-104.5 -101.5t-144 -36.5q-79 0 -145 37zM217.5 154.5q42.5 -46.5 109.5 -46.5q43 0 77 21t53.5 58.5t19.5 84.5q0 46 -19.5 83.5t-53.5 59t-77 21.5
q-44 0 -78.5 -21.5t-54 -58.5t-19.5 -84q0 -71 42.5 -117.5zM275 -204q-21 21 -21 52q0 29 21.5 50.5t51.5 21.5q29 0 50.5 -21.5t21.5 -50.5q0 -31 -21 -52t-51 -21q-31 0 -52 21z" />
    <glyph glyph-name="uni1ECE" unicode="&#x1ece;" horiz-adv-x="878" 
d="M241 38.5q-89 50.5 -140 138.5t-51 196t51 196t140 138t198 50t198 -50t140.5 -138t51.5 -196t-51.5 -196t-140.5 -138.5t-198 -50.5t-198 50.5zM219 239q33 -60 90.5 -93.5t129.5 -33.5t129.5 33.5t90.5 93.5t33 134t-33 133.5t-90.5 93t-129.5 33.5t-129.5 -33.5
t-90.5 -93t-33 -133.5t33 -134zM426.5 866q12.5 14 12.5 32q0 21 -16 34t-45 13q-14 0 -34 -6v67q26 9 63 9q56 0 92 -28t36 -72q0 -39 -30 -71t-92 -52l-26 46q27 14 39.5 28z" />
    <glyph glyph-name="uni1ECF" unicode="&#x1ecf;" horiz-adv-x="652" 
d="M182 25q-66 37 -104.5 102t-38.5 145t38 145t104 102t146 37q79 0 144.5 -37t104 -102t38.5 -145q0 -81 -38.5 -146t-104.5 -101.5t-144 -36.5q-79 0 -145 37zM217.5 154.5q42.5 -46.5 109.5 -46.5q43 0 77 21t53.5 58.5t19.5 84.5q0 46 -19.5 83.5t-53.5 59t-77 21.5
q-44 0 -78.5 -21.5t-54 -58.5t-19.5 -84q0 -71 42.5 -117.5zM313.5 664q12.5 14 12.5 32q0 21 -16 34t-45 13q-14 0 -34 -6v67q26 9 63 9q56 0 92 -28t36 -72q0 -39 -30 -71t-92 -52l-26 46q27 14 39.5 28z" />
    <glyph glyph-name="uni1ED0" unicode="&#x1ed0;" horiz-adv-x="878" 
d="M241 38.5q-89 50.5 -140 138.5t-51 196t51 196t140 138t198 50t198 -50t140.5 -138t51.5 -196t-51.5 -196t-140.5 -138.5t-198 -50.5t-198 50.5zM219 239q33 -60 90.5 -93.5t129.5 -33.5t129.5 33.5t90.5 93.5t33 134t-33 133.5t-90.5 93t-129.5 33.5t-129.5 -33.5
t-90.5 -93t-33 -133.5t33 -134zM370 986h136l120 -144h-119l-68 79l-66 -79h-122zM576 1076h139l-75 -112h-114z" />
    <glyph glyph-name="uni1ED1" unicode="&#x1ed1;" horiz-adv-x="652" 
d="M182 25q-66 37 -104.5 102t-38.5 145t38 145t104 102t146 37q79 0 144.5 -37t104 -102t38.5 -145q0 -81 -38.5 -146t-104.5 -101.5t-144 -36.5q-79 0 -145 37zM217.5 154.5q42.5 -46.5 109.5 -46.5q43 0 77 21t53.5 58.5t19.5 84.5q0 46 -19.5 83.5t-53.5 59t-77 21.5
q-44 0 -78.5 -21.5t-54 -58.5t-19.5 -84q0 -71 42.5 -117.5zM257 784h136l120 -144h-119l-68 79l-66 -79h-122zM463 874h139l-75 -112h-114z" />
    <glyph glyph-name="uni1ED2" unicode="&#x1ed2;" horiz-adv-x="878" 
d="M241 38.5q-89 50.5 -140 138.5t-51 196t51 196t140 138t198 50t198 -50t140.5 -138t51.5 -196t-51.5 -196t-140.5 -138.5t-198 -50.5t-198 50.5zM219 239q33 -60 90.5 -93.5t129.5 -33.5t129.5 33.5t90.5 93.5t33 134t-33 133.5t-90.5 93t-129.5 33.5t-129.5 -33.5
t-90.5 -93t-33 -133.5t33 -134zM370 986h136l120 -144h-119l-68 79l-66 -79h-122zM596 1067l49 -103h-96l-68 103h115z" />
    <glyph glyph-name="uni1ED3" unicode="&#x1ed3;" horiz-adv-x="652" 
d="M182 25q-66 37 -104.5 102t-38.5 145t38 145t104 102t146 37q79 0 144.5 -37t104 -102t38.5 -145q0 -81 -38.5 -146t-104.5 -101.5t-144 -36.5q-79 0 -145 37zM217.5 154.5q42.5 -46.5 109.5 -46.5q43 0 77 21t53.5 58.5t19.5 84.5q0 46 -19.5 83.5t-53.5 59t-77 21.5
q-44 0 -78.5 -21.5t-54 -58.5t-19.5 -84q0 -71 42.5 -117.5zM257 784h136l120 -144h-119l-68 79l-66 -79h-122zM483 865l49 -103h-96l-68 103h115z" />
    <glyph glyph-name="uni1ED4" unicode="&#x1ed4;" horiz-adv-x="878" 
d="M241 38.5q-89 50.5 -140 138.5t-51 196t51 196t140 138t198 50t198 -50t140.5 -138t51.5 -196t-51.5 -196t-140.5 -138.5t-198 -50.5t-198 50.5zM219 239q33 -60 90.5 -93.5t129.5 -33.5t129.5 33.5t90.5 93.5t33 134t-33 133.5t-90.5 93t-129.5 33.5t-129.5 -33.5
t-90.5 -93t-33 -133.5t33 -134zM370 986h136l120 -144h-119l-68 79l-66 -79h-122zM518 1134q27 9 63 9q56 0 92 -28t36 -72q0 -39 -30 -71t-92 -52l-26 46q28 14 40 28t12 32q0 21 -16 34t-45 13q-14 0 -34 -6v67z" />
    <glyph glyph-name="uni1ED5" unicode="&#x1ed5;" horiz-adv-x="652" 
d="M182 25q-66 37 -104.5 102t-38.5 145t38 145t104 102t146 37q79 0 144.5 -37t104 -102t38.5 -145q0 -81 -38.5 -146t-104.5 -101.5t-144 -36.5q-79 0 -145 37zM217.5 154.5q42.5 -46.5 109.5 -46.5q43 0 77 21t53.5 58.5t19.5 84.5q0 46 -19.5 83.5t-53.5 59t-77 21.5
q-44 0 -78.5 -21.5t-54 -58.5t-19.5 -84q0 -71 42.5 -117.5zM257 784h136l120 -144h-119l-68 79l-66 -79h-122zM405 932q27 9 63 9q56 0 92 -28t36 -72q0 -39 -30 -71t-92 -52l-26 46q28 14 40 28t12 32q0 21 -16 34t-45 13q-14 0 -34 -6v67z" />
    <glyph glyph-name="uni1ED6" unicode="&#x1ed6;" horiz-adv-x="878" 
d="M241 38.5q-89 50.5 -140 138.5t-51 196t51 196t140 138t198 50t198 -50t140.5 -138t51.5 -196t-51.5 -196t-140.5 -138.5t-198 -50.5t-198 50.5zM219 239q33 -60 90.5 -93.5t129.5 -33.5t129.5 33.5t90.5 93.5t33 134t-33 133.5t-90.5 93t-129.5 33.5t-129.5 -33.5
t-90.5 -93t-33 -133.5t33 -134zM370 986h136l120 -144h-119l-68 79l-66 -79h-122zM309.5 1114q25.5 31 66.5 31q23 0 38 -7.5t32 -21.5q15 -11 22.5 -15t18.5 -4q15 0 23 12t9 31h75q-1 -123 -86 -123q-25 0 -41.5 7.5t-34.5 21.5q-2 1 -10.5 7t-16 8.5t-14.5 2.5
q-29 0 -32 -43h-75q0 62 25.5 93z" />
    <glyph glyph-name="uni1ED7" unicode="&#x1ed7;" horiz-adv-x="652" 
d="M182 25q-66 37 -104.5 102t-38.5 145t38 145t104 102t146 37q79 0 144.5 -37t104 -102t38.5 -145q0 -81 -38.5 -146t-104.5 -101.5t-144 -36.5q-79 0 -145 37zM217.5 154.5q42.5 -46.5 109.5 -46.5q43 0 77 21t53.5 58.5t19.5 84.5q0 46 -19.5 83.5t-53.5 59t-77 21.5
q-44 0 -78.5 -21.5t-54 -58.5t-19.5 -84q0 -71 42.5 -117.5zM258 784h136l120 -144h-119l-68 79l-66 -79h-122zM197.5 912q25.5 31 66.5 31q23 0 38 -7.5t32 -21.5q15 -11 22.5 -15t18.5 -4q15 0 23 12t9 31h75q-1 -123 -86 -123q-25 0 -41.5 7.5t-34.5 21.5q-2 1 -10.5 7
t-16 8.5t-14.5 2.5q-29 0 -32 -43h-75q0 62 25.5 93z" />
    <glyph glyph-name="uni1ED8" unicode="&#x1ed8;" horiz-adv-x="878" 
d="M241 38.5q-89 50.5 -140 138.5t-51 196t51 196t140 138t198 50t198 -50t140.5 -138t51.5 -196t-51.5 -196t-140.5 -138.5t-198 -50.5t-198 50.5zM219 239q33 -60 90.5 -93.5t129.5 -33.5t129.5 33.5t90.5 93.5t33 134t-33 133.5t-90.5 93t-129.5 33.5t-129.5 -33.5
t-90.5 -93t-33 -133.5t33 -134zM388 -204q-21 21 -21 52q0 29 21.5 50.5t51.5 21.5q29 0 50.5 -21.5t21.5 -50.5q0 -31 -21 -52t-51 -21q-31 0 -52 21zM370 986h136l120 -144h-119l-68 79l-66 -79h-122z" />
    <glyph glyph-name="uni1ED9" unicode="&#x1ed9;" horiz-adv-x="652" 
d="M182 25q-66 37 -104.5 102t-38.5 145t38 145t104 102t146 37q79 0 144.5 -37t104 -102t38.5 -145q0 -81 -38.5 -146t-104.5 -101.5t-144 -36.5q-79 0 -145 37zM217.5 154.5q42.5 -46.5 109.5 -46.5q43 0 77 21t53.5 58.5t19.5 84.5q0 46 -19.5 83.5t-53.5 59t-77 21.5
q-44 0 -78.5 -21.5t-54 -58.5t-19.5 -84q0 -71 42.5 -117.5zM275 -204q-21 21 -21 52q0 29 21.5 50.5t51.5 21.5q29 0 50.5 -21.5t21.5 -50.5q0 -31 -21 -52t-51 -21q-31 0 -52 21zM257 784h136l120 -144h-119l-68 79l-66 -79h-122z" />
    <glyph glyph-name="uni1EDA" unicode="&#x1eda;" horiz-adv-x="878" 
d="M241 38.5q-89 50.5 -140 138.5t-51 196t51 196t140 138t198 50h203q20 0 34 9t14 41q0 27 -21 77h118q12 -25 17.5 -44.5t5.5 -44.5q0 -57 -29.5 -90t-81.5 -41q62 -53 96 -128t34 -163q0 -108 -51.5 -196t-140.5 -138.5t-198 -50.5t-198 50.5zM219 239
q33 -60 90.5 -93.5t129.5 -33.5t129.5 33.5t90.5 93.5t33 134t-33 133.5t-90.5 93t-129.5 33.5t-129.5 -33.5t-90.5 -93t-33 -133.5t33 -134zM445 986h147l-96 -144h-114z" />
    <glyph glyph-name="uni1EDB" unicode="&#x1edb;" horiz-adv-x="652" 
d="M182 25q-66 37 -104.5 102t-38.5 145t38 145t104 102t146 37h106q20 0 34 9t14 41q0 27 -21 77h113q11 -25 17 -45t6 -44q0 -86 -68 -117q41 -38 63.5 -91t22.5 -114q0 -81 -38.5 -146t-104.5 -101.5t-144 -36.5q-79 0 -145 37zM217.5 154.5q42.5 -46.5 109.5 -46.5
q43 0 77 21t53.5 58.5t19.5 84.5q0 46 -19.5 83.5t-53.5 59t-77 21.5q-44 0 -78.5 -21.5t-54 -58.5t-19.5 -84q0 -71 42.5 -117.5zM333 784h147l-96 -144h-114z" />
    <glyph glyph-name="uni1EDC" unicode="&#x1edc;" horiz-adv-x="878" 
d="M241 38.5q-89 50.5 -140 138.5t-51 196t51 196t140 138t198 50h203q20 0 34 9t14 41q0 27 -21 77h118q12 -25 17.5 -44.5t5.5 -44.5q0 -57 -29.5 -90t-81.5 -41q62 -53 96 -128t34 -163q0 -108 -51.5 -196t-140.5 -138.5t-198 -50.5t-198 50.5zM219 239
q33 -60 90.5 -93.5t129.5 -33.5t129.5 33.5t90.5 93.5t33 134t-33 133.5t-90.5 93t-129.5 33.5t-129.5 -33.5t-90.5 -93t-33 -133.5t33 -134zM287 986h147l63 -144h-115z" />
    <glyph glyph-name="uni1EDD" unicode="&#x1edd;" horiz-adv-x="652" 
d="M182 25q-66 37 -104.5 102t-38.5 145t38 145t104 102t146 37h106q20 0 34 9t14 41q0 27 -21 77h113q11 -25 17 -45t6 -44q0 -86 -68 -117q41 -38 63.5 -91t22.5 -114q0 -81 -38.5 -146t-104.5 -101.5t-144 -36.5q-79 0 -145 37zM217.5 154.5q42.5 -46.5 109.5 -46.5
q43 0 77 21t53.5 58.5t19.5 84.5q0 46 -19.5 83.5t-53.5 59t-77 21.5q-44 0 -78.5 -21.5t-54 -58.5t-19.5 -84q0 -71 42.5 -117.5zM174 784h147l63 -144h-115z" />
    <glyph glyph-name="uni1EDE" unicode="&#x1ede;" horiz-adv-x="878" 
d="M241 38.5q-89 50.5 -140 138.5t-51 196t51 196t140 138t198 50h203q20 0 34 9t14 41q0 27 -21 77h118q12 -25 17.5 -44.5t5.5 -44.5q0 -57 -29.5 -90t-81.5 -41q62 -53 96 -128t34 -163q0 -108 -51.5 -196t-140.5 -138.5t-198 -50.5t-198 50.5zM219 239
q33 -60 90.5 -93.5t129.5 -33.5t129.5 33.5t90.5 93.5t33 134t-33 133.5t-90.5 93t-129.5 33.5t-129.5 -33.5t-90.5 -93t-33 -133.5t33 -134zM426.5 866q12.5 14 12.5 32q0 21 -16 34t-45 13q-14 0 -34 -6v67q26 9 63 9q56 0 92 -28t36 -72q0 -39 -30 -71t-92 -52l-26 46
q27 14 39.5 28z" />
    <glyph glyph-name="uni1EDF" unicode="&#x1edf;" horiz-adv-x="652" 
d="M182 25q-66 37 -104.5 102t-38.5 145t38 145t104 102t146 37h106q20 0 34 9t14 41q0 27 -21 77h113q11 -25 17 -45t6 -44q0 -86 -68 -117q41 -38 63.5 -91t22.5 -114q0 -81 -38.5 -146t-104.5 -101.5t-144 -36.5q-79 0 -145 37zM217.5 154.5q42.5 -46.5 109.5 -46.5
q43 0 77 21t53.5 58.5t19.5 84.5q0 46 -19.5 83.5t-53.5 59t-77 21.5q-44 0 -78.5 -21.5t-54 -58.5t-19.5 -84q0 -71 42.5 -117.5zM313.5 664q12.5 14 12.5 32q0 21 -16 34t-45 13q-14 0 -34 -6v67q26 9 63 9q56 0 92 -28t36 -72q0 -39 -30 -71t-92 -52l-26 46
q27 14 39.5 28z" />
    <glyph glyph-name="uni1EE0" unicode="&#x1ee0;" horiz-adv-x="878" 
d="M241 38.5q-89 50.5 -140 138.5t-51 196t51 196t140 138t198 50h203q20 0 34 9t14 41q0 27 -21 77h118q12 -25 17.5 -44.5t5.5 -44.5q0 -57 -29.5 -90t-81.5 -41q62 -53 96 -128t34 -163q0 -108 -51.5 -196t-140.5 -138.5t-198 -50.5t-198 50.5zM219 239
q33 -60 90.5 -93.5t129.5 -33.5t129.5 33.5t90.5 93.5t33 134t-33 133.5t-90.5 93t-129.5 33.5t-129.5 -33.5t-90.5 -93t-33 -133.5t33 -134zM471 861q-16 7 -37 22q-12 10 -21 14.5t-19 4.5q-28 0 -32 -44h-83q0 68 26.5 100.5t69.5 32.5q23 0 39 -7.5t33 -21.5
q13 -10 21 -14.5t19 -4.5q14 0 22 12.5t8 30.5h84q0 -69 -22.5 -100.5t-66.5 -31.5q-25 0 -41 7z" />
    <glyph glyph-name="uni1EE1" unicode="&#x1ee1;" horiz-adv-x="652" 
d="M182 25q-66 37 -104.5 102t-38.5 145t38 145t104 102t146 37h106q20 0 34 9t14 41q0 26 -19 73q-21 -27 -63 -27q-25 0 -41 7t-37 22q-12 10 -21 14.5t-19 4.5q-28 0 -32 -44h-83q0 68 26.5 100.5t69.5 32.5q23 0 39 -7.5t33 -21.5q13 -10 21 -14.5t19 -4.5q14 0 22 12.5
t8 30.5h84q0 -69 -23 -101h108q11 -25 17 -45t6 -44q0 -86 -68 -117q41 -38 63.5 -91t22.5 -114q0 -81 -38.5 -146t-104.5 -101.5t-144 -36.5q-79 0 -145 37zM217.5 154.5q42.5 -46.5 109.5 -46.5q43 0 77 21t53.5 58.5t19.5 84.5q0 46 -19.5 83.5t-53.5 59t-77 21.5
q-44 0 -78.5 -21.5t-54 -58.5t-19.5 -84q0 -71 42.5 -117.5z" />
    <glyph glyph-name="uni1EE2" unicode="&#x1ee2;" horiz-adv-x="878" 
d="M241 38.5q-89 50.5 -140 138.5t-51 196t51 196t140 138t198 50h203q20 0 34 9t14 41q0 27 -21 77h118q12 -25 17.5 -44.5t5.5 -44.5q0 -57 -29.5 -90t-81.5 -41q62 -53 96 -128t34 -163q0 -108 -51.5 -196t-140.5 -138.5t-198 -50.5t-198 50.5zM219 239
q33 -60 90.5 -93.5t129.5 -33.5t129.5 33.5t90.5 93.5t33 134t-33 133.5t-90.5 93t-129.5 33.5t-129.5 -33.5t-90.5 -93t-33 -133.5t33 -134zM388 -204q-21 21 -21 52q0 29 21.5 50.5t51.5 21.5q29 0 50.5 -21.5t21.5 -50.5q0 -31 -21 -52t-51 -21q-31 0 -52 21z" />
    <glyph glyph-name="uni1EE3" unicode="&#x1ee3;" horiz-adv-x="652" 
d="M182 25q-66 37 -104.5 102t-38.5 145t38 145t104 102t146 37h106q20 0 34 9t14 41q0 27 -21 77h113q11 -25 17 -45t6 -44q0 -86 -68 -117q41 -38 63.5 -91t22.5 -114q0 -81 -38.5 -146t-104.5 -101.5t-144 -36.5q-79 0 -145 37zM217.5 154.5q42.5 -46.5 109.5 -46.5
q43 0 77 21t53.5 58.5t19.5 84.5q0 46 -19.5 83.5t-53.5 59t-77 21.5q-44 0 -78.5 -21.5t-54 -58.5t-19.5 -84q0 -71 42.5 -117.5zM275 -204q-21 21 -21 52q0 29 21.5 50.5t51.5 21.5q29 0 50.5 -21.5t21.5 -50.5q0 -31 -21 -52t-51 -21q-31 0 -52 21z" />
    <glyph glyph-name="uni1EE4" unicode="&#x1ee4;" horiz-adv-x="718" 
d="M207 24q-67 36 -105 99.5t-38 142.5v479h136v-472q0 -71 44.5 -116t114.5 -45t114.5 45t44.5 116v472h136v-479q0 -79 -38 -142.5t-105 -99.5t-152 -36t-152 36zM308 -204q-21 21 -21 52q0 29 21.5 50.5t51.5 21.5q29 0 50.5 -21.5t21.5 -50.5q0 -31 -21 -52t-51 -21
q-31 0 -52 21z" />
    <glyph glyph-name="uni1EE5" unicode="&#x1ee5;" 
d="M105 49q-55 61 -55 162v333h131v-322q0 -51 30.5 -82.5t79.5 -31.5t79.5 32t30.5 85v319h131v-544h-124v65q-22 -38 -61.5 -57.5t-91.5 -19.5q-95 0 -150 61zM245 -204q-21 21 -21 52q0 29 21.5 50.5t51.5 21.5q29 0 50.5 -21.5t21.5 -50.5q0 -31 -21 -52t-51 -21
q-31 0 -52 21z" />
    <glyph glyph-name="uni1EE6" unicode="&#x1ee6;" horiz-adv-x="718" 
d="M207 24q-67 36 -105 99.5t-38 142.5v479h136v-472q0 -71 44.5 -116t114.5 -45t114.5 45t44.5 116v472h136v-479q0 -79 -38 -142.5t-105 -99.5t-152 -36t-152 36zM346.5 866q12.5 14 12.5 32q0 21 -16 34t-45 13q-14 0 -34 -6v67q26 9 63 9q56 0 92 -28t36 -72
q0 -39 -30 -71t-92 -52l-26 46q27 14 39.5 28z" />
    <glyph glyph-name="uni1EE7" unicode="&#x1ee7;" 
d="M105 49q-55 61 -55 162v333h131v-322q0 -51 30.5 -82.5t79.5 -31.5t79.5 32t30.5 85v319h131v-544h-124v65q-22 -38 -61.5 -57.5t-91.5 -19.5q-95 0 -150 61zM283.5 664q12.5 14 12.5 32q0 21 -16 34t-45 13q-14 0 -34 -6v67q26 9 63 9q56 0 92 -28t36 -72q0 -39 -30 -71
t-92 -52l-26 46q27 14 39.5 28z" />
    <glyph glyph-name="uni1EE8" unicode="&#x1ee8;" horiz-adv-x="718" 
d="M207 24q-67 36 -105 99.5t-38 142.5v479h136v-472q0 -71 44.5 -116t114.5 -45t114.5 45t44.5 116v472h115q20 0 34 9t14 41q0 27 -21 77h117q12 -24 18 -44t6 -45q0 -67 -39.5 -100.5t-107.5 -33.5v-383q0 -79 -38 -142.5t-105 -99.5t-152 -36t-152 36zM365 986h147
l-96 -144h-114z" />
    <glyph glyph-name="uni1EE9" unicode="&#x1ee9;" horiz-adv-x="660" 
d="M105 49q-55 61 -55 162v333h131v-322q0 -51 30.5 -82.5t79.5 -31.5t79.5 32t30.5 85v319h87q20 0 34 9t14 41q0 25 -20 77h113q11 -25 17 -45t6 -44q0 -59 -32 -92t-88 -38v-452h-124v65q-22 -38 -61.5 -57.5t-91.5 -19.5q-95 0 -150 61zM303 784h147l-96 -144h-114z" />
    <glyph glyph-name="uni1EEA" unicode="&#x1eea;" horiz-adv-x="718" 
d="M207 24q-67 36 -105 99.5t-38 142.5v479h136v-472q0 -71 44.5 -116t114.5 -45t114.5 45t44.5 116v472h115q20 0 34 9t14 41q0 27 -21 77h117q12 -24 18 -44t6 -45q0 -67 -39.5 -100.5t-107.5 -33.5v-383q0 -79 -38 -142.5t-105 -99.5t-152 -36t-152 36zM207 986h147
l63 -144h-115z" />
    <glyph glyph-name="uni1EEB" unicode="&#x1eeb;" horiz-adv-x="660" 
d="M105 49q-55 61 -55 162v333h131v-322q0 -51 30.5 -82.5t79.5 -31.5t79.5 32t30.5 85v319h87q20 0 34 9t14 41q0 25 -20 77h113q11 -25 17 -45t6 -44q0 -59 -32 -92t-88 -38v-452h-124v65q-22 -38 -61.5 -57.5t-91.5 -19.5q-95 0 -150 61zM144 784h147l63 -144h-115z" />
    <glyph glyph-name="uni1EEC" unicode="&#x1eec;" horiz-adv-x="718" 
d="M207 24q-67 36 -105 99.5t-38 142.5v479h136v-472q0 -71 44.5 -116t114.5 -45t114.5 45t44.5 116v472h115q20 0 34 9t14 41q0 27 -21 77h117q12 -24 18 -44t6 -45q0 -67 -39.5 -100.5t-107.5 -33.5v-383q0 -79 -38 -142.5t-105 -99.5t-152 -36t-152 36zM346.5 866
q12.5 14 12.5 32q0 21 -16 34t-45 13q-14 0 -34 -6v67q26 9 63 9q56 0 92 -28t36 -72q0 -39 -30 -71t-92 -52l-26 46q27 14 39.5 28z" />
    <glyph glyph-name="uni1EED" unicode="&#x1eed;" horiz-adv-x="660" 
d="M105 49q-55 61 -55 162v333h131v-322q0 -51 30.5 -82.5t79.5 -31.5t79.5 32t30.5 85v319h87q20 0 34 9t14 41q0 25 -20 77h113q11 -25 17 -45t6 -44q0 -59 -32 -92t-88 -38v-452h-124v65q-22 -38 -61.5 -57.5t-91.5 -19.5q-95 0 -150 61zM283.5 664q12.5 14 12.5 32
q0 21 -16 34t-45 13q-14 0 -34 -6v67q26 9 63 9q56 0 92 -28t36 -72q0 -39 -30 -71t-92 -52l-26 46q27 14 39.5 28z" />
    <glyph glyph-name="uni1EEE" unicode="&#x1eee;" horiz-adv-x="718" 
d="M207 24q-67 36 -105 99.5t-38 142.5v479h136v-472q0 -71 44.5 -116t114.5 -45t114.5 45t44.5 116v472h115q20 0 34 9t14 41q0 27 -21 77h117q12 -24 18 -44t6 -45q0 -67 -39.5 -100.5t-107.5 -33.5v-383q0 -79 -38 -142.5t-105 -99.5t-152 -36t-152 36zM391 861
q-16 7 -37 22q-12 10 -21 14.5t-19 4.5q-28 0 -32 -44h-83q0 68 26.5 100.5t69.5 32.5q23 0 39 -7.5t33 -21.5q13 -10 21 -14.5t19 -4.5q14 0 22 12.5t8 30.5h84q0 -69 -22.5 -100.5t-66.5 -31.5q-25 0 -41 7z" />
    <glyph glyph-name="uni1EEF" unicode="&#x1eef;" horiz-adv-x="660" 
d="M105 49q-55 61 -55 162v333h131v-322q0 -51 30.5 -82.5t79.5 -31.5t79.5 32t30.5 85v319h87q20 0 34 9t14 41q0 25 -20 77h113q11 -25 17 -45t6 -44q0 -59 -32 -92t-88 -38v-452h-124v65q-22 -38 -61.5 -57.5t-91.5 -19.5q-95 0 -150 61zM328 659q-16 7 -37 22
q-12 10 -21 14.5t-19 4.5q-28 0 -32 -44h-83q0 68 26.5 100.5t69.5 32.5q23 0 39 -7.5t33 -21.5q13 -10 21 -14.5t19 -4.5q14 0 22 12.5t8 30.5h84q0 -69 -22.5 -100.5t-66.5 -31.5q-25 0 -41 7z" />
    <glyph glyph-name="uni1EF0" unicode="&#x1ef0;" horiz-adv-x="718" 
d="M207 24q-67 36 -105 99.5t-38 142.5v479h136v-472q0 -71 44.5 -116t114.5 -45t114.5 45t44.5 116v472h115q20 0 34 9t14 41q0 27 -21 77h117q12 -24 18 -44t6 -45q0 -67 -39.5 -100.5t-107.5 -33.5v-383q0 -79 -38 -142.5t-105 -99.5t-152 -36t-152 36zM308 -204
q-21 21 -21 52q0 29 21.5 50.5t51.5 21.5q29 0 50.5 -21.5t21.5 -50.5q0 -31 -21 -52t-51 -21q-31 0 -52 21z" />
    <glyph glyph-name="uni1EF1" unicode="&#x1ef1;" horiz-adv-x="660" 
d="M105 49q-55 61 -55 162v333h131v-322q0 -51 30.5 -82.5t79.5 -31.5t79.5 32t30.5 85v319h87q20 0 34 9t14 41q0 25 -20 77h113q11 -25 17 -45t6 -44q0 -59 -32 -92t-88 -38v-452h-124v65q-22 -38 -61.5 -57.5t-91.5 -19.5q-95 0 -150 61zM245 -204q-21 21 -21 52
q0 29 21.5 50.5t51.5 21.5q29 0 50.5 -21.5t21.5 -50.5q0 -31 -21 -52t-51 -21q-31 0 -52 21z" />
    <glyph glyph-name="Ygrave" unicode="&#x1ef2;" horiz-adv-x="660" 
d="M262 330l-251 415h155l164 -277l164 277h155l-250 -414v-331h-137v330zM178 986h147l63 -144h-115z" />
    <glyph glyph-name="ygrave" unicode="&#x1ef3;" horiz-adv-x="586" 
d="M140 784h147l63 -144h-115z" />
    <glyph glyph-name="uni1EF4" unicode="&#x1ef4;" horiz-adv-x="660" 
d="M262 330l-251 415h155l164 -277l164 277h155l-250 -414v-331h-137v330zM279 -204q-21 21 -21 52q0 29 21.5 50.5t51.5 21.5q29 0 50.5 -21.5t21.5 -50.5q0 -31 -21 -52t-51 -21q-31 0 -52 21z" />
    <glyph glyph-name="uni1EF5" unicode="&#x1ef5;" horiz-adv-x="586" 
d="M484 -104q-21 21 -21 52q0 29 21.5 50.5t51.5 21.5q29 0 50.5 -21.5t21.5 -50.5q0 -31 -21 -52t-51 -21q-31 0 -52 21z" />
    <glyph glyph-name="uni1EF6" unicode="&#x1ef6;" horiz-adv-x="660" 
d="M262 330l-251 415h155l164 -277l164 277h155l-250 -414v-331h-137v330zM317.5 866q12.5 14 12.5 32q0 21 -16 34t-45 13q-14 0 -34 -6v67q26 9 63 9q56 0 92 -28t36 -72q0 -39 -30 -71t-92 -52l-26 46q27 14 39.5 28z" />
    <glyph glyph-name="uni1EF7" unicode="&#x1ef7;" horiz-adv-x="586" 
d="M279.5 664q12.5 14 12.5 32q0 21 -16 34t-45 13q-14 0 -34 -6v67q26 9 63 9q56 0 92 -28t36 -72q0 -39 -30 -71t-92 -52l-26 46q27 14 39.5 28z" />
    <glyph glyph-name="uni1EF8" unicode="&#x1ef8;" horiz-adv-x="660" 
d="M262 330l-251 415h155l164 -277l164 277h155l-250 -414v-331h-137v330zM362 861q-16 7 -37 22q-12 10 -21 14.5t-19 4.5q-28 0 -32 -44h-83q0 68 26.5 100.5t69.5 32.5q23 0 39 -7.5t33 -21.5q13 -10 21 -14.5t19 -4.5q14 0 22 12.5t8 30.5h84q0 -69 -22.5 -100.5
t-66.5 -31.5q-25 0 -41 7z" />
    <glyph glyph-name="uni1EF9" unicode="&#x1ef9;" horiz-adv-x="586" 
d="M324 659q-16 7 -37 22q-12 10 -21 14.5t-19 4.5q-28 0 -32 -44h-83q0 68 26.5 100.5t69.5 32.5q23 0 39 -7.5t33 -21.5q13 -10 21 -14.5t19 -4.5q14 0 22 12.5t8 30.5h84q0 -69 -22.5 -100.5t-66.5 -31.5q-25 0 -41 7z" />
    <glyph glyph-name="uni2007" unicode="&#x2007;" horiz-adv-x="708" 
 />
    <glyph glyph-name="uni2008" unicode="&#x2008;" horiz-adv-x="378" 
 />
    <glyph glyph-name="uni2009" unicode="&#x2009;" horiz-adv-x="200" 
 />
    <glyph glyph-name="uni200A" unicode="&#x200a;" horiz-adv-x="143" 
 />
    <glyph glyph-name="uni200B" unicode="&#x200b;" horiz-adv-x="0" 
 />
    <glyph glyph-name="uni2010" unicode="&#x2010;" horiz-adv-x="600" 
d="M111 329h425v-115h-425v115z" />
    <glyph glyph-name="figuredash" unicode="&#x2012;" horiz-adv-x="655" 
d="M111 329h480v-115h-480v115z" />
    <glyph glyph-name="endash" unicode="&#x2013;" horiz-adv-x="655" 
d="M88 329h480v-115h-480v115z" />
    <glyph glyph-name="emdash" unicode="&#x2014;" horiz-adv-x="985" 
d="M88 329h810v-115h-810v115z" />
    <glyph glyph-name="uni2015" unicode="&#x2015;" horiz-adv-x="985" 
d="M111 329h810v-115h-810v115z" />
    <glyph glyph-name="quoteleft" unicode="&#x2018;" horiz-adv-x="357" 
d="M142 689.5q39 51.5 113 67.5v-64q-33 -8 -54.5 -30t-26.5 -52h61v-140h-132v86q0 81 39 132.5z" />
    <glyph glyph-name="quoteright" unicode="&#x2019;" horiz-adv-x="357" 
d="M157 552.5q21 21.5 27 52.5h-61v140h132v-86q0 -81 -39 -132.5t-113 -67.5v64q33 8 54 29.5z" />
    <glyph glyph-name="quotesinglbase" unicode="&#x201a;" horiz-adv-x="357" 
d="M157 -53q21 22 27 53h-61v140h132v-86q0 -81 -39 -132.5t-113 -67.5v63q33 8 54 30z" />
    <glyph glyph-name="quotedblleft" unicode="&#x201c;" horiz-adv-x="560" 
d="M344 689.5q39 51.5 114 67.5v-64q-34 -8 -55 -29.5t-26 -52.5h61v-140h-133v86q0 81 39 132.5zM103 557q0 81 39 132.5t113 67.5v-64q-33 -8 -54.5 -30t-26.5 -52h61v-140h-132v86z" />
    <glyph glyph-name="quotedblright" unicode="&#x201d;" horiz-adv-x="560" 
d="M359.5 553q21.5 22 26.5 52h-61v140h133v-86q0 -81 -39 -132.5t-114 -67.5v64q33 8 54.5 30zM103 523q33 8 54 29.5t27 52.5h-61v140h132v-86q0 -81 -39 -132.5t-113 -67.5v64z" />
    <glyph glyph-name="quotedblbase" unicode="&#x201e;" horiz-adv-x="560" 
d="M157 -53q21 22 27 53h-61v140h132v-86q0 -81 -39 -132.5t-113 -67.5v63q33 8 54 30zM305 -83q33 8 54.5 30t26.5 53h-61v140h133v-86q0 -81 -39 -132.5t-114 -67.5v63z" />
    <glyph glyph-name="dagger" unicode="&#x2020;" horiz-adv-x="674" 
d="M271 414h-204v124h204v207h132v-207h204v-124h-204v-604h-132v604z" />
    <glyph glyph-name="daggerdbl" unicode="&#x2021;" horiz-adv-x="709" 
d="M288 17h-204v124h204v273h-204v124h204v207h133v-207h203v-124h-203v-273h203v-124h-203v-207h-133v207z" />
    <glyph glyph-name="bullet" unicode="&#x2022;" horiz-adv-x="568" 
d="M203 132.5q-37 21.5 -58.5 58.5t-21.5 83q0 44 21.5 81t58.5 58t83 21q44 0 81 -21t58 -58t21 -81q0 -46 -21 -83t-58 -58.5t-81 -21.5q-46 0 -83 21.5z" />
    <glyph glyph-name="ellipsis" unicode="&#x2026;" horiz-adv-x="778" 
d="M136.5 21.5q-21.5 21.5 -21.5 53.5q0 31 21.5 52.5t53.5 21.5q31 0 52 -21t21 -53t-20.5 -53.5t-52.5 -21.5t-53.5 21.5zM336.5 21.5q-21.5 21.5 -21.5 53.5q0 31 21.5 52.5t53.5 21.5q31 0 52 -21t21 -53t-20.5 -53.5t-52.5 -21.5t-53.5 21.5zM536.5 21.5
q-21.5 21.5 -21.5 53.5q0 31 21.5 52.5t53.5 21.5q31 0 52 -21t21 -53t-20.5 -53.5t-52.5 -21.5t-53.5 21.5z" />
    <glyph glyph-name="perthousand" unicode="&#x2030;" horiz-adv-x="1481" 
d="M757 745h140l-604 -745h-140zM99 660q26 45 71 71t100 26q54 0 98.5 -26t70.5 -71t26 -98t-26 -98t-70.5 -71t-98.5 -26q-55 0 -100 26t-71 71t-26 98t26 98zM203.5 496q25.5 -28 66.5 -28t65.5 28t24.5 66t-24.5 66.5t-65.5 28.5t-66.5 -28.5t-25.5 -66.5t25.5 -66z
M607 281q26 45 71 71t99 26t99 -26t71 -71t26 -98t-26 -98t-71 -71t-99 -26t-99 26t-71 71t-26 98t26 98zM711 117q25 -28 66 -28t66 28t25 66t-25 66.5t-66 28.5t-66 -28.5t-25 -66.5t25 -66zM1041 281q26 45 71 71t100 26q54 0 98.5 -26t70.5 -71t26 -98t-26 -98
t-70.5 -71t-98.5 -26q-55 0 -100 26t-71 71t-26 98t26 98zM1145.5 117q25.5 -28 66.5 -28t65.5 28t24.5 66t-24.5 66.5t-65.5 28.5t-66.5 -28.5t-25.5 -66.5t25.5 -66z" />
    <glyph glyph-name="minute" unicode="&#x2032;" horiz-adv-x="372" 
d="M131 745h118l-16 -283h-102v283z" />
    <glyph glyph-name="second" unicode="&#x2033;" horiz-adv-x="558" 
d="M131 745h118l-16 -283h-102v283zM318 745h117l-15 -283h-102v283z" />
    <glyph glyph-name="guilsinglleft" unicode="&#x2039;" horiz-adv-x="389" 
d="M45 269l153 198h145l-152 -198l152 -197h-145z" />
    <glyph glyph-name="guilsinglright" unicode="&#x203a;" horiz-adv-x="389" 
d="M198 269l-152 198h144l154 -198l-154 -197h-144z" />
    <glyph glyph-name="fraction" unicode="&#x2044;" horiz-adv-x="205" 
d="M270 745h108l-446 -745h-109z" />
    <glyph glyph-name="uni2070" unicode="&#x2070;" horiz-adv-x="478" 
d="M129.5 249q-47.5 34 -74 95t-26.5 141t26 141t74 94.5t110 33.5t110 -33.5t74 -94.5t26 -141q0 -79 -26 -140.5t-74 -95.5t-110 -34t-109.5 34zM164.5 359.5q26.5 -45.5 74.5 -45.5t75 45.5t27 125.5t-27 125t-75 45t-74.5 -44.5t-26.5 -125.5q0 -80 26.5 -125.5z" />
    <glyph glyph-name="uni2074" unicode="&#x2074;" horiz-adv-x="474" 
d="M262 336h-232v92l224 317h116v-318h80v-91h-80v-112h-108v112zM262 427v186l-127 -186h127z" />
    <glyph glyph-name="uni2075" unicode="&#x2075;" horiz-adv-x="425" 
d="M92 250.5q-52 35.5 -65 93.5l96 32q10 -31 33 -46.5t52 -15.5q36 0 58.5 22.5t22.5 58.5t-22.5 59t-58.5 23q-24 0 -44 -11t-29 -33l-89 21l43 291h290v-90h-213l-14 -105q30 17 77 17q77 0 123 -47.5t46 -124.5q0 -50 -25 -91.5t-68 -65t-97 -23.5q-64 0 -116 35.5z" />
    <glyph glyph-name="uni2076" unicode="&#x2076;" horiz-adv-x="420" 
d="M115 237.5q-42 22.5 -66 62.5t-24 89q0 43 15 81t53 87l145 188h130l-147 -186h9q47 0 85 -22t59.5 -59.5t21.5 -83.5q0 -51 -23.5 -92t-66 -64t-95.5 -23q-54 0 -96 22.5zM156 335.5q22 -21.5 55 -21.5q32 0 54 21.5t22 56.5q0 34 -22 55.5t-54 21.5q-33 0 -55 -21.5
t-22 -55.5q0 -35 22 -56.5z" />
    <glyph glyph-name="uni2077" unicode="&#x2077;" horiz-adv-x="386" 
d="M256 655h-241v91h355v-91l-204 -431h-121z" />
    </font>
</defs>
</svg>
