<?xml version="1.0" standalone="no"?>
<!DOCTYPE svg PUBLIC "-//W3C//DTD SVG 1.1//EN" "http://www.w3.org/Graphics/SVG/1.1/DTD/svg11.dtd" >
<svg xmlns="http://www.w3.org/2000/svg" xmlns:xlink="http://www.w3.org/1999/xlink" version="1.1">
<metadata>
Created by FontForge 20170731 at Fri Jan  8 00:23:18 2021
 By Aleksey,,,
Copyright 2021 Stijn de Vries &#38; The Plus Jakarta Sans Project Authors (https://github.com/tokotype/PlusJakartaSans)
</metadata>
<defs>
<font id="EudoxusSans-Medium" horiz-adv-x="580" >
  <font-face 
    font-family="Eudoxus Sans Medium"
    font-weight="500"
    font-stretch="normal"
    units-per-em="1000"
    panose-1="0 0 0 0 0 0 0 0 0 0"
    ascent="800"
    descent="-200"
    x-height="539"
    cap-height="745"
    bbox="-164 -339 1376 1192"
    underline-thickness="40"
    underline-position="-215"
    unicode-range="U+000D-FB02"
  />
<missing-glyph horiz-adv-x="600" 
d="M492 -240h-380v1200h380v-1200zM400 -157v39h-123l84 57h39v39h-200v-39h84l-84 -57v-39h200zM400 6v136h-200v-136h200zM400 214v135h-120v-67h40v28h40v-57h-120v96h-40v-135h200zM400 376v120h-40v-80h-160v-40h200zM320 444v84h80v40h-200v-40h80v-44h-80v-40h120z
M400 600v41h-80v84h-120v-125h200zM400 756v40h-80v44h80v40h-198v-40h78v-44h-80v-40h200zM240 102h120v-56h-120v56zM240 684h40v-43h-40v43z" />
    <glyph glyph-name="fi" unicode="fi" horiz-adv-x="596" 
d="M129 450h-103v89h103v38q0 56 25 97t67.5 62t95.5 21q27 0 47 -5v-83q-15 3 -36 3q-105 0 -105 -95v-38h315v-539h-93v450h-222v-450h-94v450z" />
    <glyph glyph-name="fl" unicode="fl" horiz-adv-x="634" 
d="M129 450h-103v89h103v38q0 56 25 97t67.5 62t95.5 21q27 0 47 -5v-83q-15 3 -36 3q-105 0 -105 -95v-38h246v218h93v-757h-93v450h-246v-450h-94v450z" />
    <glyph glyph-name="f_f" unicode="ff" horiz-adv-x="785" 
d="M129 450h-103v89h103v38q0 56 25 97t67.5 62t95.5 21q27 0 47 -5v-83q-15 3 -36 3q-105 0 -105 -95v-38h280v-4h13v38q0 58 25 100t67.5 64.5t95.5 22.5q27 0 47 -5v-83q-15 3 -36 3q-49 0 -77 -24.5t-28 -77.5v-38h128v-89h-128v-446h-94v446h-103v4h-190v-450h-94v450z
" />
    <glyph glyph-name="f_f_i" unicode="ffi" horiz-adv-x="993" 
d="M129 450h-103v89h103v38q0 56 25 97t67.5 62t95.5 21q27 0 47 -5v-83q-15 3 -36 3q-105 0 -105 -95v-38h303v38q0 56 25 97t67.5 62t95.5 21q27 0 47 -5v-83q-15 3 -36 3q-105 0 -105 -95v-38h316v-539h-94v450h-222v-450h-94v450h-303v-450h-94v450z" />
    <glyph glyph-name="f_f_l" unicode="ffl" horiz-adv-x="1031" 
d="M129 450h-103v89h103v38q0 56 25 97t67.5 62t95.5 21q27 0 47 -5v-83q-15 3 -36 3q-105 0 -105 -95v-38h303v38q0 56 25 97t67.5 62t95.5 21q27 0 47 -5v-83q-15 3 -36 3q-105 0 -105 -95v-38h246v218h94v-757h-94v450h-246v-450h-94v450h-303v-450h-94v450z" />
    <glyph glyph-name=".notdef" horiz-adv-x="600" 
d="M492 -240h-380v1200h380v-1200zM400 -157v39h-123l84 57h39v39h-200v-39h84l-84 -57v-39h200zM400 6v136h-200v-136h200zM400 214v135h-120v-67h40v28h40v-57h-120v96h-40v-135h200zM400 376v120h-40v-80h-160v-40h200zM320 444v84h80v40h-200v-40h80v-44h-80v-40h120z
M400 600v41h-80v84h-120v-125h200zM400 756v40h-80v44h80v40h-198v-40h78v-44h-80v-40h200zM240 102h120v-56h-120v56zM240 684h40v-43h-40v43z" />
    <glyph glyph-name=".null" horiz-adv-x="0" 
 />
    <glyph glyph-name="nonmarkingreturn" unicode="&#xd;" horiz-adv-x="173" 
 />
    <glyph glyph-name="space" unicode=" " horiz-adv-x="173" 
 />
    <glyph glyph-name="exclam" unicode="!" horiz-adv-x="312" 
d="M107 745h98l-7 -527h-85zM114 101.5q17 16.5 42 16.5t42 -16.5t17 -41.5q0 -26 -17 -43t-42 -17t-42 17.5t-17 42.5t17 41.5z" />
    <glyph glyph-name="quotedbl" unicode="&#x22;" horiz-adv-x="429" 
d="M87 745h92l-13 -240h-65zM342 745l-14 -240h-65l-14 240h93z" />
    <glyph glyph-name="numbersign" unicode="#" horiz-adv-x="832" 
d="M167 185h-120v85h144l60 206h-120v85h144l53 184h97l-53 -184h195l53 184h98l-53 -184h120v-85h-145l-59 -206h120v-85h-144l-53 -185h-98l53 185h-195l-53 -185h-97zM484 270l59 206h-195l-59 -206h195z" />
    <glyph glyph-name="dollar" unicode="$" horiz-adv-x="646" 
d="M294 -9q-89 12 -154 66.5t-90 132.5l85 35q22 -60 63 -96.5t96 -47.5v252l-47 14q-80 24 -123.5 78t-43.5 125q0 57 27 103t76 73.5t111 30.5v88h75v-93q77 -14 133 -61.5t79 -114.5l-84 -35q-18 48 -50.5 78.5t-77.5 42.5v-253l39 -12q178 -55 178 -201
q0 -56 -27.5 -101t-76.5 -73t-113 -33v-89h-75v91zM204.5 482q26.5 -32 78.5 -48l11 -3v237q-53 -5 -84.5 -34.5t-31.5 -77.5q0 -42 26.5 -74zM369 78q54 6 86.5 36t32.5 75q0 46 -26 73t-78 43l-15 5v-232z" />
    <glyph glyph-name="percent" unicode="%" horiz-adv-x="998" 
d="M751 745h111l-608 -745h-111zM85 660q26 45 71 71t99 26q53 0 97.5 -26t70.5 -71t26 -98t-26 -98t-70.5 -71t-97.5 -26q-54 0 -99 26t-71 71t-26 98t26 98zM176 483q32 -34 79 -34t78 34t31 79t-31 79.5t-78 34.5q-31 0 -56.5 -16t-40 -42.5t-14.5 -55.5q0 -45 32 -79z
M574 281q26 45 71 71t99 26q53 0 97.5 -26t70.5 -71t26 -98t-26 -98t-70.5 -71t-97.5 -26q-54 0 -99 26t-71 71t-26 98t26 98zM665 104q32 -34 79 -34t78 34t31 79t-31 79.5t-78 34.5q-31 0 -56.5 -16t-40 -42.5t-14.5 -55.5q0 -45 32 -79z" />
    <glyph glyph-name="ampersand" unicode="&#x26;" horiz-adv-x="754" 
d="M167 11.5q-49 23.5 -76.5 67t-27.5 100.5q0 81 44.5 131.5t101.5 84.5q-38 42 -61.5 85.5t-23.5 95.5t25 93.5t68 64.5t93 23t92 -23t66.5 -63.5t24.5 -90.5q0 -69 -41 -116t-100 -83l131 -141l86 128h107l-129 -197l160 -171h-123l-90 95q-89 -107 -215 -107
q-63 0 -112 23.5zM197 103q32 -28 85 -28q49 0 83 23t65 64l-160 168q-105 -63 -105 -149q0 -50 32 -78zM238.5 513q19.5 -33 53.5 -69q49 29 79 61t30 76q0 39 -26 65t-65 26t-65 -26t-26 -66q0 -34 19.5 -67z" />
    <glyph glyph-name="quotesingle" unicode="'" horiz-adv-x="267" 
d="M87 745h92l-13 -240h-65z" />
    <glyph glyph-name="parenleft" unicode="(" horiz-adv-x="323" 
d="M95 56q-42 114 -42 242t41.5 241.5t123.5 205.5h80q-72 -102 -109 -215.5t-37 -231.5t37 -231.5t109 -216.5h-80q-81 92 -123 206z" />
    <glyph glyph-name="parenright" unicode=")" horiz-adv-x="323" 
d="M134 66.5q37 113.5 37 231.5t-37 231.5t-108 215.5h80q81 -92 122.5 -205.5t41.5 -241.5t-41.5 -242t-122.5 -206h-80q71 103 108 216.5z" />
    <glyph glyph-name="asterisk" unicode="*" horiz-adv-x="499" 
d="M101 424l82 109l-123 42l25 77l124 -41v134h81v-134l124 41l25 -77l-123 -42l81 -109l-65 -47l-83 109l-82 -109z" />
    <glyph glyph-name="plus" unicode="+" horiz-adv-x="624" 
d="M269 207h-207v87h207v206h87v-206h206v-87h-206v-207h-87v207z" />
    <glyph glyph-name="comma" unicode="," horiz-adv-x="299" 
d="M157 0q-22 0 -37 15t-15 37t14.5 37t36.5 15q23 0 37.5 -18t14.5 -48q0 -73 -31 -118t-89 -59v41q63 17 69 98z" />
    <glyph glyph-name="hyphen" unicode="-" horiz-adv-x="532" 
d="M79 312h375v-85h-375v85z" />
    <glyph glyph-name="period" unicode="." horiz-adv-x="317" 
d="M118.5 16.5q-16.5 16.5 -16.5 41.5t16.5 41.5t40.5 16.5t40 -16.5t16 -41.5t-15.5 -41.5t-40.5 -16.5q-24 0 -40.5 16.5z" />
    <glyph glyph-name="slash" unicode="/" horiz-adv-x="455" 
d="M343 785h105l-336 -825h-105z" />
    <glyph glyph-name="zero" unicode="0" horiz-adv-x="724" 
d="M208 36q-67 48 -104 135.5t-37 201.5t37 201t103.5 135t154.5 48t155 -48t104 -135t37 -201t-37 -201.5t-103.5 -135.5t-154.5 -48t-155 48zM189.5 218.5q24.5 -66.5 69.5 -103t104 -36.5t103.5 36.5t69 103t24.5 154.5t-24.5 154t-69.5 102.5t-104 36.5t-103.5 -36.5
t-69 -102.5t-24.5 -154t24.5 -154.5z" />
    <glyph glyph-name="one" unicode="1" horiz-adv-x="382" 
d="M178 660h-141v85h240v-745h-99v660z" />
    <glyph glyph-name="two" unicode="2" horiz-adv-x="599" 
d="M54 68l206 223l18 19q64 69 92.5 103.5t43 65t14.5 64.5q0 60 -35.5 93.5t-95.5 33.5t-102 -34.5t-58 -97.5l-89 23q19 90 87 143t162 53q67 0 119.5 -26.5t81.5 -74t29 -108.5q0 -59 -34.5 -115.5t-118.5 -147.5l-184 -200h353v-85h-489v68z" />
    <glyph glyph-name="three" unicode="3" horiz-adv-x="610" 
d="M136 34q-69 46 -95 126l83 34q21 -55 66 -86.5t104 -31.5q71 0 115 40.5t44 111.5t-44.5 111.5t-115.5 40.5q-30 0 -62 -8l-21 45l199 243h-330v85h441v-82l-170 -210q90 -11 145.5 -71.5t55.5 -151.5q0 -67 -33 -122.5t-91.5 -87.5t-132.5 -32q-89 0 -158 46z" />
    <glyph glyph-name="four" unicode="4" horiz-adv-x="638" 
d="M409 172h-366v81l364 492h94v-492h97v-81h-97v-172h-92v172zM409 253v363l-266 -363h266z" />
    <glyph glyph-name="five" unicode="5" horiz-adv-x="616" 
d="M143 34q-69 46 -95 124l80 34q21 -54 68 -85t104 -31q45 0 80.5 20.5t56 57t20.5 81.5q0 46 -20.5 82.5t-56 57t-79.5 20.5q-45 0 -83 -21t-56 -53l-79 17l57 408h386v-85h-316l-31 -218q53 38 132 38q71 0 127 -32.5t87 -88.5t31 -125q0 -70 -33.5 -126t-92 -88.5
t-130.5 -32.5q-88 0 -157 46z" />
    <glyph glyph-name="six" unicode="6" horiz-adv-x="599" 
d="M173.5 19.5q-56.5 31.5 -88 87.5t-31.5 127q0 59 21 116t68 119l210 276h118l-224 -292q27 12 68 12q65 0 118 -30.5t83.5 -84.5t30.5 -121q0 -68 -32 -123t-88 -86.5t-126 -31.5q-71 0 -127.5 31.5zM195 119q42 -43 106 -43q42 0 75.5 19.5t52.5 54.5t19 78
q0 66 -41.5 109t-105.5 43t-106 -43t-42 -109t42 -109z" />
    <glyph glyph-name="seven" unicode="7" horiz-adv-x="548" 
d="M404 661h-365v85h468v-85l-324 -661h-106z" />
    <glyph glyph-name="eight" unicode="8" horiz-adv-x="629" 
d="M183 17.5q-58 29.5 -90.5 81.5t-32.5 116t32 114t89 77q-40 25 -62.5 66t-22.5 89q0 55 28.5 100t78.5 70.5t112 25.5t112 -25t78 -70t28 -101q0 -48 -23 -89t-62 -66q58 -28 90 -78t32 -113q0 -64 -32.5 -116t-91 -81.5t-131.5 -29.5q-74 0 -132 29.5zM202 112.5
q43 -39.5 113 -39.5t113 39.5t43 103.5t-43 103.5t-113 39.5t-113 -39t-43 -104q0 -64 43 -103.5zM228.5 476q34.5 -32 86.5 -32q51 0 85 32t34 83q0 50 -34 81.5t-85 31.5q-52 0 -86.5 -31.5t-34.5 -81.5q0 -51 34.5 -83z" />
    <glyph glyph-name="nine" unicode="9" horiz-adv-x="599" 
d="M352 292q-27 -12 -68 -12q-65 0 -118 30.5t-83.5 84.5t-30.5 122t32 123t88 86t126 31q71 0 127.5 -31.5t88 -87.5t31.5 -127q0 -59 -21 -116t-68 -119l-210 -276h-118zM192.5 408.5q41.5 -42.5 105.5 -42.5t106 42.5t42 108.5q0 43 -19 78t-53 55t-76 20q-41 0 -75 -20
t-53 -55t-19 -78q0 -66 41.5 -108.5z" />
    <glyph glyph-name="colon" unicode=":" horiz-adv-x="317" 
d="M115.5 17.5q-17.5 17.5 -17.5 43.5t17.5 43t43.5 17t43 -17t17 -43t-17 -43.5t-43 -17.5t-43.5 17.5zM115.5 521.5q17.5 17.5 43.5 17.5t43 -17.5t17 -43.5t-17 -43t-43 -17t-43.5 17t-17.5 43t17.5 43.5z" />
    <glyph glyph-name="semicolon" unicode=";" horiz-adv-x="337" 
d="M135.5 435.5q-17.5 17.5 -17.5 42.5q0 26 17 43.5t43 17.5t43 -17.5t17 -43.5t-17 -43t-43 -17q-25 0 -42.5 17.5zM104 -98q63 16 69 98q-22 0 -37 15t-15 37t15 37t37 15t36.5 -18t14.5 -48q0 -73 -31 -118t-89 -59v41z" />
    <glyph glyph-name="less" unicode="&#x3c;" horiz-adv-x="591" 
d="M83 225v88l426 196v-99l-316 -140l316 -141v-99z" />
    <glyph glyph-name="equal" unicode="=" horiz-adv-x="684" 
d="M117 409h450v-88h-450v88zM117 171h450v-87h-450v87z" />
    <glyph glyph-name="greater" unicode="&#x3e;" horiz-adv-x="573" 
d="M83 129l315 141l-315 140v99l426 -196v-88l-426 -195v99z" />
    <glyph glyph-name="question" unicode="?" horiz-adv-x="527" 
d="M209 333.5q27 42.5 77 90.5q35 34 51.5 52t28.5 42t12 52q0 41 -31 70.5t-83 29.5q-51 0 -87.5 -32t-46.5 -85l-88 20q13 83 74 133.5t149 50.5q62 0 110.5 -26t75 -68.5t26.5 -91.5q0 -37 -14 -68t-34 -54.5t-54 -57.5l-16 -15q-40 -39 -61 -72.5t-21 -74.5v-11h-95v13
q0 60 27 102.5zM191.5 98q16.5 16 40.5 16t40 -16t16 -40q0 -25 -15.5 -41.5t-40.5 -16.5q-24 0 -40.5 16.5t-16.5 41.5q0 24 16.5 40z" />
    <glyph glyph-name="at" unicode="@" horiz-adv-x="928" 
d="M268.5 -24q-96.5 55 -152 150.5t-55.5 213.5t55.5 213t151.5 149.5t214 54.5q119 0 214 -56t148.5 -151t53.5 -207q0 -96 -45.5 -153.5t-123.5 -57.5q-41 0 -75 18t-51 51q-22 -33 -61 -51t-86 -18q-57 0 -104.5 27.5t-74.5 76.5t-27 109q0 59 27 108.5t75 78.5t106 29
q44 0 81.5 -16.5t59.5 -45.5v52h74v-269q0 -36 15 -54t43 -18q39 0 60 33.5t21 99.5q0 94 -41 170.5t-116 120t-172 43.5t-173.5 -43.5t-119.5 -120t-43 -172.5q0 -95 43 -172.5t119.5 -122.5t174.5 -45q94 0 165 41l37 -70q-88 -51 -203 -51q-118 0 -214.5 55zM370.5 249
q36.5 -39 91.5 -39t91.5 39t36.5 97q0 59 -36.5 96.5t-93.5 37.5q-54 0 -90 -38t-36 -96t36.5 -97z" />
    <glyph glyph-name="A" unicode="A" horiz-adv-x="672" 
d="M278 745h116l267 -745h-105l-61 175h-318l-61 -175h-105zM464 265l-128 369l-128 -369h256z" />
    <glyph glyph-name="B" unicode="B" horiz-adv-x="692" 
d="M83 745h313q100 0 158.5 -53t58.5 -142q0 -47 -19.5 -85t-56.5 -64q52 -29 79 -76t27 -104q0 -103 -66 -162t-180 -59h-314v745zM401 90q65 0 104 35t39 95q0 59 -39 95t-104 36h-220v-261h220zM394 439q54 0 87 31t33 81t-32.5 77.5t-87.5 27.5h-213v-217h213z" />
    <glyph glyph-name="C" unicode="C" horiz-adv-x="779" 
d="M238.5 37.5q-83.5 49.5 -130.5 137t-47 197.5t47 198t130.5 137.5t187.5 49.5q74 0 136 -26.5t105 -69.5t62 -93l-90 -41q-27 64 -82.5 101.5t-130.5 37.5q-78 0 -138.5 -37t-94.5 -104t-34 -153t34 -152.5t94.5 -103.5t138.5 -37q75 0 130.5 37.5t82.5 101.5l90 -41
q-19 -51 -62 -94t-105 -69t-136 -26q-104 0 -187.5 49.5z" />
    <glyph glyph-name="D" unicode="D" horiz-adv-x="741" 
d="M83 745h244q112 0 196.5 -46t130.5 -130.5t46 -195.5t-46 -195.5t-130.5 -131t-196.5 -46.5h-244v745zM328 90q82 0 143 34.5t94 98.5t33 150t-33 149.5t-94.5 98t-142.5 34.5h-147v-565h147z" />
    <glyph glyph-name="E" unicode="E" horiz-adv-x="606" 
d="M83 745h485v-90h-387v-236h367v-90h-367v-239h387v-90h-485v745z" />
    <glyph glyph-name="F" unicode="F" horiz-adv-x="583" 
d="M83 745h472v-90h-374v-241h339v-90h-339v-324h-98v745z" />
    <glyph glyph-name="G" unicode="G" horiz-adv-x="817" 
d="M239.5 37.5q-83.5 49.5 -131 137t-47.5 197.5t47 198t130.5 137.5t187.5 49.5q74 0 136 -26.5t105 -69.5t62 -93l-88 -43q-26 66 -82 103.5t-133 37.5q-78 0 -138.5 -37t-94.5 -104t-34 -153t34 -152.5t95 -103.5t139 -37q67 0 122.5 29t87.5 80.5t32 117.5v4h-243v85
h342v-66q0 -101 -46 -178.5t-124 -120t-171 -42.5q-104 0 -187.5 49.5z" />
    <glyph glyph-name="H" unicode="H" horiz-adv-x="735" 
d="M83 745h98v-332h373v332h99v-745h-99v323h-373v-323h-98v745z" />
    <glyph glyph-name="I" unicode="I" horiz-adv-x="264" 
d="M83 745h98v-745h-98v745z" />
    <glyph glyph-name="J" unicode="J" horiz-adv-x="386" 
d="M50 95h41q53 0 84 31.5t31 85.5v533h99v-531q0 -98 -58 -156t-156 -58h-41v95z" />
    <glyph glyph-name="K" unicode="K" horiz-adv-x="662" 
d="M83 745h98v-381l332 381h123l-270 -312l285 -433h-117l-236 354l-117 -134v-220h-98v745z" />
    <glyph glyph-name="L" unicode="L" horiz-adv-x="535" 
d="M83 745h98v-655h327v-90h-425v745z" />
    <glyph glyph-name="M" unicode="M" horiz-adv-x="855" 
d="M83 745h90l256 -364l254 364h90v-745h-99v561l-242 -341h-8l-243 346v-566h-98v745z" />
    <glyph glyph-name="N" unicode="N" horiz-adv-x="738" 
d="M83 745h82l391 -550v550h99v-745h-82l-392 558v-558h-98v745z" />
    <glyph glyph-name="O" unicode="O" horiz-adv-x="878" 
d="M247.5 38q-86.5 50 -136.5 138t-50 197t50 197t136.5 137.5t191.5 49.5t191.5 -50t137 -137.5t50.5 -196.5t-50.5 -197t-137 -138t-191.5 -50t-191.5 50zM195 224.5q36 -67.5 100 -106.5t144 -39t144 39t100 106.5t36 148.5t-36 148t-100 106t-144 39t-144 -39t-100 -106
t-36 -148t36 -148.5z" />
    <glyph glyph-name="P" unicode="P" horiz-adv-x="645" 
d="M83 745h263q74 0 130.5 -28t87.5 -80t31 -122t-31 -122t-87.5 -80t-130.5 -28h-165v-285h-98v745zM349 375q67 0 107 38t40 102t-40 102t-107 38h-168v-280h168z" />
    <glyph glyph-name="Q" unicode="Q" horiz-adv-x="878" 
d="M251 37.5q-88 49.5 -139 137.5t-51 198q0 109 50 197t136.5 137.5t191.5 49.5t191.5 -50t137 -137.5t50.5 -196.5q0 -76 -24.5 -142.5t-68.5 -117.5l91 -101l-80 -64l-89 98q-89 -58 -202 -58q-106 0 -194 49.5zM195 224.5q36 -67.5 100 -106.5t144 -39q79 0 143 39
l-161 178l81 63l156 -173q30 39 45.5 86.5t15.5 100.5q0 81 -36 148t-100 106t-144 39t-144 -39t-100 -106t-36 -148t36 -148.5z" />
    <glyph glyph-name="R" unicode="R" horiz-adv-x="648" 
d="M83 745h263q74 0 130.5 -28t87.5 -80t31 -122q0 -78 -39.5 -133.5t-108.5 -79.5l173 -302h-114l-161 285h-164v-285h-98v745zM349 375q66 0 106.5 38t40.5 102t-40.5 102t-106.5 38h-168v-280h168z" />
    <glyph glyph-name="S" unicode="S" horiz-adv-x="646" 
d="M203 16.5q-60 28.5 -99 76t-54 102.5l90 28q21 -67 78.5 -106t120.5 -39q42 0 75.5 17t52.5 43t19 52q0 41 -28.5 74t-78.5 44l-126 28q-80 17 -126.5 76.5t-46.5 136.5q0 59 30.5 106.5t83.5 74.5t117 27q71 0 126.5 -25t91 -66.5t50.5 -89.5l-89 -32q-22 59 -72.5 91
t-105.5 32q-38 0 -68 -16.5t-47 -42.5t-17 -53q0 -42 30.5 -76.5t76.5 -44.5l114 -26q90 -20 138 -76t48 -134q0 -59 -31 -107t-87.5 -75.5t-129.5 -27.5q-76 0 -136 28.5z" />
    <glyph glyph-name="T" unicode="T" horiz-adv-x="522" 
d="M213 655h-202v90h500v-90h-199v-655h-99v655z" />
    <glyph glyph-name="U" unicode="U" horiz-adv-x="706" 
d="M210.5 22q-62.5 34 -97.5 94t-35 135v494h99v-492q0 -77 49 -125.5t127 -48.5t127 48.5t49 125.5v492h99v-494q0 -75 -35 -135t-97.5 -94t-142.5 -34t-142.5 34z" />
    <glyph glyph-name="V" unicode="V" horiz-adv-x="667" 
d="M11 745h105l218 -625l217 625h105l-268 -745h-108z" />
    <glyph glyph-name="W" unicode="W" horiz-adv-x="996" 
d="M11 745h103l163 -612l170 612h103l168 -610l164 610h103l-209 -745h-109l-169 606l-169 -606h-109z" />
    <glyph glyph-name="X" unicode="X" horiz-adv-x="618" 
d="M254 378l-237 367h112l180 -280l180 280h112l-237 -367l243 -378h-112l-186 291l-187 -291h-111z" />
    <glyph glyph-name="Y" unicode="Y" horiz-adv-x="635" 
d="M269 341l-258 404h111l196 -308l195 308h111l-256 -404v-341h-99v341z" />
    <glyph glyph-name="Z" unicode="Z" 
d="M19 72l405 583h-381v90h508v-72l-403 -583h413v-90h-542v72z" />
    <glyph glyph-name="bracketleft" unicode="[" horiz-adv-x="349" 
d="M94 745h220v-85h-123v-725h123v-85h-220v895z" />
    <glyph glyph-name="backslash" unicode="\" horiz-adv-x="455" 
d="M7 785h105l336 -825h-105z" />
    <glyph glyph-name="bracketright" unicode="]" horiz-adv-x="349" 
d="M35 -65h123v725h-123v85h220v-895h-220v85z" />
    <glyph glyph-name="asciicircum" unicode="^" horiz-adv-x="537" 
d="M225 745h88l169 -322h-105l-107 208l-109 -208h-106z" />
    <glyph glyph-name="underscore" unicode="_" horiz-adv-x="620" 
d="M79 0h462v-85h-462v85z" />
    <glyph glyph-name="grave" unicode="`" horiz-adv-x="392" 
d="M110 784h99l73 -144h-80z" />
    <glyph glyph-name="a" unicode="a" horiz-adv-x="575" 
d="M100 30.5q-50 42.5 -50 110.5q0 66 43.5 110.5t132.5 59.5l184 30v25q0 44 -33 71.5t-85 27.5q-46 0 -81.5 -23.5t-52.5 -62.5l-81 42q23 56 84 93t133 37q61 0 108.5 -23.5t74 -65.5t26.5 -96v-366h-91v70q-29 -38 -76.5 -60t-105.5 -22q-80 0 -130 42.5zM174.5 89
q26.5 -22 66.5 -22q49 0 87.5 21.5t60 58.5t21.5 82v34l-163 -27q-99 -17 -99 -92q0 -33 26.5 -55z" />
    <glyph glyph-name="b" unicode="b" horiz-adv-x="669" 
d="M243 11.5q-49 23.5 -80 66.5v-78h-91v757h93v-291q32 40 80.5 62.5t106.5 22.5q75 0 136 -37t96 -101.5t35 -143.5t-35 -143t-96 -101t-137 -37q-59 0 -108 23.5zM188.5 171.5q23.5 -43.5 64.5 -68.5t91 -25t90.5 25t63 68.5t22.5 97.5t-23 98t-63 69t-90 25t-91 -25
t-64.5 -69t-23.5 -98t23.5 -97.5z" />
    <glyph glyph-name="c" unicode="c" horiz-adv-x="603" 
d="M180 25q-63 37 -98 101.5t-35 143.5q0 80 35 144t97.5 100.5t142.5 36.5q78 0 142.5 -40.5t91.5 -104.5l-84 -40q-19 43 -59.5 69t-90.5 26q-49 0 -89.5 -25t-63.5 -68.5t-23 -98.5q0 -54 23.5 -97.5t63.5 -68.5t89 -25q51 0 91 26t59 71l84 -42q-26 -63 -91 -104
t-143 -41q-79 0 -142 37z" />
    <glyph glyph-name="d" unicode="d" horiz-adv-x="669" 
d="M181 25q-61 37 -96 101t-35 143t35 143.5t96 101.5t136 37q59 0 106.5 -22t79.5 -62v290h94v-757h-91v79q-30 -43 -79.5 -67t-109.5 -24q-75 0 -136 37zM171 171.5q23 -43.5 63.5 -68.5t90.5 -25t90.5 25t64 68.5t23.5 97.5t-23.5 98t-64 69t-90.5 25t-90.5 -25
t-63.5 -69t-23 -98t23 -97.5z" />
    <glyph glyph-name="e" unicode="e" horiz-adv-x="614" 
d="M182 25q-62 37 -97 101.5t-35 144.5t34.5 144t94 100t133.5 36q77 0 134.5 -36t88 -95.5t30.5 -127.5q0 -23 -5 -50h-412q2 -51 26 -89t62.5 -59t84.5 -21q98 0 151 89l78 -40q-26 -58 -88 -96t-142 -38q-76 0 -138 37zM464 322q-2 63 -45.5 104.5t-106.5 41.5
q-62 0 -107 -39.5t-55 -106.5h314z" />
    <glyph glyph-name="f" unicode="f" horiz-adv-x="397" 
d="M129 446h-103v89h103v38q0 58 25 100t67.5 64.5t95.5 22.5q27 0 47 -5v-83q-15 3 -36 3q-49 0 -77 -24.5t-28 -77.5v-38h128v-89h-128v-446h-94v446z" />
    <glyph glyph-name="g" unicode="g" horiz-adv-x="659" 
d="M179.5 -181.5q-64.5 38.5 -91.5 102.5l87 40q15 -40 55 -65.5t98 -25.5q71 0 118 40.5t47 112.5v75q-30 -41 -77 -63t-102 -22q-75 0 -135 35.5t-94.5 97t-34.5 136.5t34 136.5t94 97t135 35.5q56 0 103 -22.5t80 -64.5v75h91v-516q0 -70 -33 -125t-92 -86.5t-133 -31.5
q-85 0 -149.5 38.5zM170.5 192q22.5 -41 62.5 -65t89 -24q47 0 86.5 24t62 65t22.5 90t-22.5 90t-62 65t-86.5 24q-49 0 -88.5 -24t-62.5 -65t-23 -90t22.5 -90z" />
    <glyph glyph-name="h" unicode="h" 
d="M72 757h93v-281q24 36 63.5 55.5t88.5 19.5q57 0 103 -26.5t72.5 -72.5t26.5 -103v-349h-94v319q0 66 -36 104t-93 38t-94 -38.5t-37 -103.5v-319h-93v757z" />
    <glyph glyph-name="i" unicode="i" horiz-adv-x="237" 
d="M72 539h93v-539h-93v539zM77 725q16 16 42 16t42 -16t16 -42t-16 -42t-42 -16t-42 16t-16 42t16 42z" />
    <glyph glyph-name="j" unicode="j" horiz-adv-x="237" 
d="M-64 -216v83q21 -3 40 -3q43 0 69.5 24t26.5 69v582h93v-582q0 -84 -52 -131t-133 -47q-26 0 -44 5zM77 725q16 16 42 16t42 -16t16 -42t-16 -42t-42 -16t-42 16t-16 42t16 42z" />
    <glyph glyph-name="k" unicode="k" horiz-adv-x="558" 
d="M72 757h93v-471l248 253h119l-207 -217l221 -322h-110l-179 259l-92 -97v-162h-93v757z" />
    <glyph glyph-name="l" unicode="l" horiz-adv-x="237" 
d="M72 757h93v-757h-93v757z" />
    <glyph glyph-name="m" unicode="m" horiz-adv-x="913" 
d="M72 539h91v-67q23 38 62.5 58.5t87.5 20.5q55 0 100.5 -26.5t69.5 -71.5q26 47 70.5 72.5t98.5 25.5q55 0 101 -26.5t73 -72.5t27 -103v-349h-94v319q0 66 -34.5 104t-89.5 38q-56 0 -91 -38.5t-35 -103.5v-319h-94v319q0 66 -34 104t-90 38q-55 0 -90.5 -38.5
t-35.5 -103.5v-319h-93v539z" />
    <glyph glyph-name="n" unicode="n" 
d="M72 539h91v-66q24 38 64 58t90 20q57 0 103 -26.5t72.5 -72.5t26.5 -103v-349h-94v319q0 66 -35.5 104t-93.5 38t-94.5 -38.5t-36.5 -103.5v-319h-93v539z" />
    <glyph glyph-name="o" unicode="o" horiz-adv-x="654" 
d="M187.5 24.5q-63.5 36.5 -100.5 101t-37 144.5q0 79 36.5 143.5t100 101t141.5 36.5q77 0 140.5 -36.5t100 -100.5t36.5 -144q0 -81 -37 -145t-100.5 -100.5t-139.5 -36.5q-77 0 -140.5 36.5zM171.5 172q23.5 -44 65 -69t91.5 -25q49 0 90 25t64.5 69t23.5 98t-23.5 97.5
t-64.5 68.5t-90 25q-50 0 -91.5 -25t-65 -68.5t-23.5 -97.5t23.5 -98z" />
    <glyph glyph-name="p" unicode="p" horiz-adv-x="669" 
d="M72 539h91v-75q32 41 80.5 64t108.5 23q75 0 136 -37t96 -101.5t35 -143.5t-35 -143t-96 -101t-137 -37q-58 0 -106.5 22.5t-79.5 64.5v-275h-93v739zM188.5 171.5q23.5 -43.5 64.5 -68.5t91 -25t90.5 25t63 68.5t22.5 97.5t-23 98t-63 69t-90 25t-91 -25t-64.5 -69
t-23.5 -98t23.5 -97.5z" />
    <glyph glyph-name="q" unicode="q" horiz-adv-x="669" 
d="M503 75q-30 -42 -79 -64.5t-107 -22.5q-75 0 -136 37t-96 101t-35 143t35 143.5t96 101.5t136 37q60 0 108.5 -23t80.5 -64v75h91v-739h-94v275zM171 171.5q23 -43.5 63.5 -68.5t90.5 -25t90.5 25t64 68.5t23.5 97.5t-23.5 98t-64 69t-90.5 25t-90.5 -25t-63.5 -69
t-23 -98t23 -97.5z" />
    <glyph glyph-name="r" unicode="r" horiz-adv-x="350" 
d="M72 539h91v-64q42 70 143 70h33v-88h-47q-58 0 -92.5 -36t-34.5 -100v-321h-93v539z" />
    <glyph glyph-name="s" unicode="s" horiz-adv-x="511" 
d="M127 26.5q-60 38.5 -86 104.5l75 38q23 -47 63 -74t87 -27q45 0 74 21t29 55q0 33 -26 53.5t-56 24.5l-81 11q-72 18 -108 60t-36 99q0 47 24.5 83t68 56t96.5 20q70 0 125.5 -35t79.5 -97l-74 -38q-20 41 -55.5 65t-78.5 24q-41 0 -66 -20t-25 -52q0 -33 23.5 -52.5
t51.5 -24.5l89 -12q67 -18 104.5 -61.5t37.5 -100.5q0 -46 -25 -82t-70 -56.5t-103 -20.5q-78 0 -138 38.5z" />
    <glyph glyph-name="t" unicode="t" horiz-adv-x="396" 
d="M169.5 38.5q-42.5 44.5 -42.5 127.5v284h-98v89h20q36 0 57 21.5t21 58.5v44h93v-124h121v-89h-121v-281q0 -90 90 -90q19 0 37 3v-83q-21 -5 -56 -5q-79 0 -121.5 44.5z" />
    <glyph glyph-name="u" unicode="u" 
d="M159 15q-46 27 -72 75.5t-26 111.5v337h93v-327q0 -60 36 -97t94 -37t94 38.5t36 103.5v319h94v-539h-91v66q-24 -38 -64 -58t-90 -20q-58 0 -104 27z" />
    <glyph glyph-name="v" unicode="v" horiz-adv-x="533" 
d="M11 539h104l151 -408l152 408h104l-212 -539h-88z" />
    <glyph glyph-name="w" unicode="w" horiz-adv-x="826" 
d="M11 539h103l129 -395l126 395h88l126 -395l130 395h102l-185 -539h-89l-128 406l-128 -406h-89z" />
    <glyph glyph-name="x" unicode="x" horiz-adv-x="511" 
d="M200 270l-188 269h112l132 -192l131 192h113l-188 -269l187 -270h-112l-131 193l-131 -193h-114z" />
    <glyph glyph-name="y" unicode="y" horiz-adv-x="553" 
d="M225 1l-214 538h101l164 -421l163 421h103l-298 -739h-103z" />
    <glyph glyph-name="z" unicode="z" horiz-adv-x="460" 
d="M19 79l294 371h-278v89h404v-79l-291 -371h293v-89h-422v79z" />
    <glyph glyph-name="braceleft" unicode="{" horiz-adv-x="344" 
d="M158 -110.5q-42 39.5 -42 107.5v188q0 32 -15 50t-45 18h-29v85h29q30 0 45 18t15 50v192q0 68 42 107.5t113 39.5h38v-85h-38q-27 0 -42.5 -17.5t-14.5 -45.5v-184q1 -35 -12.5 -65.5t-39.5 -51.5q25 -19 39 -48.5t13 -64.5v-185q-1 -28 14.5 -45.5t42.5 -17.5h38v-85
h-38q-71 0 -113 39.5z" />
    <glyph glyph-name="bar" unicode="|" horiz-adv-x="332" 
d="M117 845h98v-1035h-98v1035z" />
    <glyph glyph-name="braceright" unicode="}" horiz-adv-x="344" 
d="M35 -65h38q27 0 43 17t15 46v185q-1 34 12 64t39 49q-26 21 -39.5 51.5t-11.5 65.5v184q1 29 -15 46t-43 17h-38v85h38q71 0 113 -39.5t42 -107.5v-192q0 -32 15.5 -50t44.5 -18h29v-85h-29q-29 0 -44.5 -18t-15.5 -50v-188q0 -68 -42 -107.5t-113 -39.5h-38v85z" />
    <glyph glyph-name="asciitilde" unicode="~" horiz-adv-x="644" 
d="M363 220q-23 10 -51 29q-22 15 -37.5 22.5t-34.5 7.5q-28 0 -45.5 -17t-21.5 -48h-81q6 72 42 110t95 38q33 0 56 -10t51 -29q22 -15 37.5 -22.5t34.5 -7.5q52 0 63 65h80q-6 -73 -39.5 -110.5t-92.5 -37.5q-33 0 -56 10z" />
    <glyph glyph-name="uni00A0" unicode="&#xa0;" horiz-adv-x="173" 
 />
    <glyph glyph-name="exclamdown" unicode="&#xa1;" horiz-adv-x="312" 
d="M113 321h85l7 -528h-98zM115.5 522.5q16.5 16.5 40.5 16.5t40.5 -16t16.5 -41t-16 -41t-41 -16q-24 0 -40.5 16t-16.5 41q0 24 16.5 40.5z" />
    <glyph glyph-name="cent" unicode="&#xa2;" horiz-adv-x="603" 
d="M279 95q-67 10 -119 48.5t-81 98.5t-29 132t29 132t81 98t119 47v94h75v-93q68 -8 122 -47t77 -95l-83 -41q-16 36 -46 60.5t-70 31.5v-376q39 7 69 31.5t47 61.5l83 -42q-24 -56 -77.5 -95t-121.5 -47v-94h-75v95zM184.5 253q36.5 -51 94.5 -66v372q-58 -15 -94.5 -65.5
t-36.5 -120.5q0 -69 36.5 -120z" />
    <glyph glyph-name="sterling" unicode="&#xa3;" horiz-adv-x="650" 
d="M41 85h100v258h-100v71h100v117q0 67 29 118t83 79.5t125 28.5q91 0 155.5 -52t75.5 -139l-89 -23q-7 61 -45 94t-97 33q-65 0 -101.5 -37t-36.5 -102v-117h174v-71h-174v-258h334v-85h-533v85z" />
    <glyph glyph-name="currency" unicode="&#xa4;" horiz-adv-x="590" 
d="M50 82l77 76q-35 51 -35 111q0 59 35 111l-77 77l58 58l77 -77q52 34 110 34q60 0 111 -34l77 77l58 -58l-77 -77q34 -53 34 -111q0 -59 -34 -111l77 -76l-58 -58l-77 76q-52 -34 -111 -34t-110 34l-77 -76zM214.5 189q33.5 -33 80.5 -33t80 33t33 80t-33 80.5t-80 33.5
t-80.5 -33.5t-33.5 -80.5t33.5 -80z" />
    <glyph glyph-name="yen" unicode="&#xa5;" horiz-adv-x="635" 
d="M269 150h-138v72h138v80h-138v71h118l-238 372h111l196 -308l195 308h111l-236 -372h116v-71h-136v-80h136v-72h-136v-150h-99v150z" />
    <glyph glyph-name="brokenbar" unicode="&#xa6;" horiz-adv-x="332" 
d="M117 845h98v-417h-98v417zM117 228h98v-418h-98v418z" />
    <glyph glyph-name="section" unicode="&#xa7;" horiz-adv-x="531" 
d="M128.5 -61q-63.5 42 -89.5 114l76 36q24 -51 67 -80.5t94 -29.5q47 0 78 23t31 59q0 58 -86 81l-86 25q-74 21 -110.5 61.5t-36.5 95.5q0 44 21 79.5t58 57.5q-79 45 -79 129q0 49 25.5 87t70.5 59t100 21q74 0 133.5 -38t83.5 -104l-77 -37q-19 45 -57.5 70.5
t-85.5 25.5q-44 0 -70.5 -21.5t-26.5 -56.5q0 -33 22.5 -50t56.5 -27l94 -27q70 -21 108 -63.5t38 -99.5q0 -42 -20.5 -76.5t-57.5 -56.5q78 -50 78 -133q0 -48 -26 -86t-73 -59t-106 -21q-84 0 -147.5 42zM246 252l79 -23q28 11 44 33.5t16 52.5q0 38 -26 60.5t-65 33.5
l-67 20q-30 -8 -47.5 -31t-17.5 -55q0 -67 84 -91z" />
    <glyph glyph-name="dieresis" unicode="&#xa8;" horiz-adv-x="519" 
d="M128 673.5q-18 18.5 -18 44.5t18 44t45 18q26 0 44 -18t18 -44q0 -27 -18 -45t-44 -18q-27 0 -45 18.5zM303 762q18 18 45 18q26 0 44 -18t18 -44q0 -27 -18 -45t-44 -18q-27 0 -45 18.5t-18 44.5t18 44z" />
    <glyph glyph-name="copyright" unicode="&#xa9;" horiz-adv-x="909" 
d="M261.5 39.5q-88.5 51.5 -140 140t-51.5 193.5q0 104 51.5 192.5t139.5 140t194 51.5q105 0 193 -51.5t139.5 -140t51.5 -192.5q0 -105 -51.5 -193.5t-140 -140t-192.5 -51.5q-105 0 -193.5 51.5zM189 218q41 -70 111 -111t155 -41q84 0 154.5 41t111.5 111t41 155
q0 84 -41 154.5t-111.5 111.5t-154.5 41q-85 0 -155 -41t-111 -111.5t-41 -154.5q0 -85 41 -155zM283.5 480.5q26.5 47.5 73 74.5t104.5 27q62 0 109 -30.5t63 -76.5l-71 -32q-12 30 -38.5 48.5t-62.5 18.5q-55 0 -89.5 -38t-34.5 -99t34 -99t90 -38q35 0 62 18.5t39 47.5
l71 -32q-16 -46 -63 -76.5t-109 -30.5q-58 0 -104.5 27t-73 75t-26.5 108t26.5 107.5z" />
    <glyph glyph-name="ordfeminine" unicode="&#xaa;" horiz-adv-x="452" 
d="M85.5 388.5q-35.5 29.5 -35.5 78.5t32.5 80t96.5 41l118 20v13q0 27 -21 44t-53 17q-30 0 -53 -16t-34 -42l-70 34q17 44 61.5 70.5t98.5 26.5q68 0 111 -37.5t43 -96.5v-254h-79v43q-45 -51 -121 -51q-59 0 -94.5 29.5zM153 437q16 -13 40 -13q45 0 74.5 29t29.5 71v18
l-102 -17q-58 -10 -58 -54q0 -21 16 -34z" />
    <glyph glyph-name="guillemotleft" unicode="&#xab;" horiz-adv-x="585" 
d="M34 269l153 193h108l-152 -193l152 -192h-108zM442 462h108l-152 -193l152 -192h-108l-153 192z" />
    <glyph glyph-name="logicalnot" unicode="&#xac;" horiz-adv-x="693" 
d="M488 207h-412v87h500v-254h-88v167z" />
    <glyph glyph-name="uni00AD" unicode="&#xad;" horiz-adv-x="532" 
d="M79 312h375v-85h-375v85z" />
    <glyph glyph-name="registered" unicode="&#xae;" horiz-adv-x="653" 
d="M198 306.5q-59 34.5 -93.5 93.5t-34.5 128q0 70 34.5 128.5t93.5 93t129 34.5q69 0 128 -34.5t93.5 -93t34.5 -128.5q0 -69 -34.5 -128t-93.5 -93.5t-128 -34.5q-70 0 -129 34.5zM158 430.5q26 -44.5 70.5 -70.5t98.5 -26q53 0 97.5 26t70.5 70t26 98q0 53 -26.5 97.5
t-71 70.5t-96.5 26q-54 0 -98.5 -26t-70.5 -70.5t-26 -97.5t26 -97.5zM225 664h113q44 0 71 -23t27 -65q0 -52 -44 -76l62 -106h-70l-53 94h-42v-94h-64v270zM338 543q15 0 24.5 9.5t9.5 23.5t-9 23t-25 9h-49v-65h49z" />
    <glyph glyph-name="macron" unicode="&#xaf;" horiz-adv-x="486" 
d="M110 739h267v-73h-267v73z" />
    <glyph glyph-name="degree" unicode="&#xb0;" horiz-adv-x="500" 
d="M167.5 455q-37.5 21 -59 58t-21.5 82t21.5 82t59 58.5t82.5 21.5t82 -21.5t58.5 -58.5t21.5 -82t-21.5 -82t-58.5 -58t-82 -21t-82.5 21zM186 531q26 -25 63 -25q38 0 64.5 25t26.5 64q0 40 -26.5 65.5t-64.5 25.5q-37 0 -63 -25.5t-26 -65.5q0 -39 26 -64z" />
    <glyph glyph-name="plusminus" unicode="&#xb1;" horiz-adv-x="624" 
d="M269 322h-207v87h207v164h87v-164h206v-87h-206v-164h-87v164zM62 88h500v-88h-500v88z" />
    <glyph glyph-name="uni00B2" unicode="&#xb2;" horiz-adv-x="421" 
d="M34 288l143 151q50 54 69 76t29.5 42t10.5 41q0 35 -22 55.5t-57 20.5q-36 0 -62.5 -20.5t-36.5 -59.5l-77 23q13 62 62.5 99t113.5 37q74 0 120 -41t46 -105q0 -45 -24 -84t-75 -93l-125 -132h234v-75h-349v65z" />
    <glyph glyph-name="uni00B3" unicode="&#xb3;" horiz-adv-x="432" 
d="M95 249.5q-50 34.5 -66 90.5l75 28q13 -36 41 -55.5t64 -19.5q45 0 72 25t27 69q0 43 -27 68t-72 25q-25 0 -50 -9l-20 40l137 160h-218v74h316v-70l-111 -132q60 -8 96 -49.5t36 -104.5q0 -49 -24 -88.5t-66.5 -62.5t-95.5 -23q-64 0 -114 34.5z" />
    <glyph glyph-name="acute" unicode="&#xb4;" horiz-adv-x="392" 
d="M183 784h99l-92 -144h-80z" />
    <glyph glyph-name="uni00B5" unicode="&#xb5;" 
d="M61 539h93v-327q0 -60 36 -97t94 -37t94 38.5t36 103.5v319h94v-539h-91v68q-22 -38 -62.5 -59t-91.5 -21q-61 0 -109 31v-159h-93v679z" />
    <glyph glyph-name="paragraph" unicode="&#xb6;" horiz-adv-x="453" 
d="M144.5 408.5q-41.5 23.5 -65 65t-23.5 91.5t23.5 91.5t65 65t93.5 23.5h98v-845h-98v485q-52 0 -93.5 23.5z" />
    <glyph glyph-name="periodcentered" unicode="&#xb7;" horiz-adv-x="317" 
d="M118.5 225.5q-16.5 16.5 -16.5 41.5t16.5 41.5t40.5 16.5t40 -16.5t16 -41.5t-15.5 -41.5t-40.5 -16.5q-24 0 -40.5 16.5z" />
    <glyph glyph-name="cedilla" unicode="&#xb8;" horiz-adv-x="416" 
d="M147 -203q-22 4 -37 10l12 50q27 -10 60 -10q23 0 36 10t13 27q0 15 -9 23t-26 8q-24 0 -40 -8l-21 9l13 107h63l-6 -62q12 2 19 2q36 0 59.5 -21t23.5 -55q0 -41 -31.5 -67.5t-87.5 -26.5q-19 0 -41 4z" />
    <glyph glyph-name="uni00B9" unicode="&#xb9;" horiz-adv-x="306" 
d="M119 670h-100v75h188v-522h-88v447z" />
    <glyph glyph-name="ordmasculine" unicode="&#xba;" horiz-adv-x="498" 
d="M149 385q-46 26 -72.5 71t-26.5 101t26.5 101.5t72 71t100.5 25.5t100.5 -25.5t72 -71t26.5 -101.5t-27 -101.5t-72.5 -71t-99.5 -25.5t-100 26zM169 471.5q32 -34.5 80 -34.5t79.5 34t31.5 86t-31.5 86t-79.5 34q-49 0 -80.5 -34t-31.5 -86q0 -51 32 -85.5z" />
    <glyph glyph-name="guillemotright" unicode="&#xbb;" horiz-adv-x="585" 
d="M442 269l-152 193h108l152 -193l-152 -192h-108zM187 269l-152 193h108l152 -193l-152 -192h-108z" />
    <glyph glyph-name="onequarter" unicode="&#xbc;" horiz-adv-x="888" 
d="M100 678h-81v67h160v-417h-79v350zM562 745h90l-446 -745h-91zM714 92h-191v66l186 259h83v-259h62v-66h-62v-92h-78v92zM714 158v162l-113 -162h113z" />
    <glyph glyph-name="onehalf" unicode="&#xbd;" horiz-adv-x="843" 
d="M100 678h-81v67h160v-417h-79v350zM562 745h90l-446 -745h-91zM524 60l113 119q49 51 66 74t17 45q0 25 -16 40t-41 15q-26 0 -45.5 -15.5t-27.5 -43.5l-69 23q10 48 50.5 77.5t91.5 29.5q60 0 98 -33t38 -84q0 -36 -19 -67t-57 -70l-97 -102h179v-68h-281v60z" />
    <glyph glyph-name="threequarters" unicode="&#xbe;" horiz-adv-x="972" 
d="M82 349.5q-41 28.5 -53 74.5l69 25q10 -27 30 -41.5t47 -14.5q33 0 53 18.5t20 50.5q0 31 -19.5 48.5t-53.5 17.5q-25 0 -43 -9l-18 38l107 122h-168v66h257v-63l-85 -97q47 -8 74 -40.5t27 -81.5q0 -40 -19.5 -72.5t-54 -51t-77.5 -18.5q-52 0 -93 28.5zM646 745h90
l-446 -745h-91zM798 92h-191v66l186 259h83v-259h62v-66h-62v-92h-78v92zM798 158v162l-113 -162h113z" />
    <glyph glyph-name="questiondown" unicode="&#xbf;" horiz-adv-x="527" 
d="M151.5 -193q-48.5 26 -74.5 69t-26 92q0 40 16.5 73.5t36.5 55t65 66.5q40 39 61 72.5t21 74.5v11h95v-14q0 -60 -27 -102.5t-77 -90.5q-35 -34 -51.5 -51.5t-29 -41.5t-12.5 -52q0 -42 30.5 -71t83.5 -29q52 0 88 32t47 85l88 -20q-14 -84 -75 -134.5t-149 -50.5
q-62 0 -110.5 26zM247 539h97v-120h-97v120z" />
    <glyph glyph-name="Agrave" unicode="&#xc0;" horiz-adv-x="672" 
d="M278 745h116l267 -745h-105l-61 175h-318l-61 -175h-105zM464 265l-128 369l-128 -369h256zM204 991h99l73 -144h-80z" />
    <glyph glyph-name="Aacute" unicode="&#xc1;" horiz-adv-x="672" 
d="M278 745h116l267 -745h-105l-61 175h-318l-61 -175h-105zM464 265l-128 369l-128 -369h256zM369 991h99l-92 -144h-80z" />
    <glyph glyph-name="Acircumflex" unicode="&#xc2;" horiz-adv-x="672" 
d="M278 745h116l267 -745h-105l-61 175h-318l-61 -175h-105zM464 265l-128 369l-128 -369h256zM288 991h95l116 -144h-85l-78 94l-76 -94h-86z" />
    <glyph glyph-name="Atilde" unicode="&#xc3;" horiz-adv-x="672" 
d="M278 745h116l267 -745h-105l-61 175h-318l-61 -175h-105zM464 265l-128 369l-128 -369h256zM361.5 885q-15.5 7 -34.5 21q-14 9 -22 13.5t-19 4.5q-28 0 -33 -42h-63q1 52 24.5 80.5t61.5 28.5q23 0 38 -7t32 -20q14 -10 22.5 -14.5t19.5 -4.5q14 0 22 11.5t10 29.5h64
q-1 -53 -23 -80.5t-60 -27.5q-24 0 -39.5 7z" />
    <glyph glyph-name="Adieresis" unicode="&#xc4;" horiz-adv-x="672" 
d="M278 745h116l267 -745h-105l-61 175h-318l-61 -175h-105zM464 265l-128 369l-128 -369h256zM205 880.5q-18 18.5 -18 44.5t18 44t45 18q26 0 44 -18t18 -44q0 -27 -18 -45t-44 -18q-27 0 -45 18.5zM380 969q18 18 45 18q26 0 44 -18t18 -44q0 -27 -18 -45t-44 -18
q-27 0 -45 18.5t-18 44.5t18 44z" />
    <glyph glyph-name="Aring" unicode="&#xc5;" horiz-adv-x="672" 
d="M278 745h116l267 -745h-105l-61 175h-318l-61 -175h-105zM464 265l-128 369l-128 -369h256zM248.5 830q-35.5 35 -35.5 86q0 52 35.5 87t87.5 35t87 -35t35 -87q0 -51 -35 -86t-87 -35t-87.5 35zM291 871.5q18 -17.5 44 -17.5t44 17.5t18 44.5t-18 45t-44 18t-44 -17.5
t-18 -45.5q0 -27 18 -44.5z" />
    <glyph glyph-name="AE" unicode="&#xc6;" horiz-adv-x="987" 
d="M278 745h671v-90h-387v-236h367v-90h-367v-239h387l-1 -90h-485v175h-286l-61 -175h-105zM463 265v390h-119l-136 -390h255z" />
    <glyph glyph-name="Ccedilla" unicode="&#xc7;" horiz-adv-x="779" 
d="M420 -12l-5 -50q12 2 19 2q36 0 59.5 -21t23.5 -55q0 -41 -31.5 -67.5t-87.5 -26.5q-19 0 -41 4t-37 10l12 50q27 -10 60 -10q23 0 36 10t13 27q0 15 -9 23t-26 8q-24 0 -40 -8l-21 9l12 101q-87 15 -154 67.5t-104.5 133t-37.5 177.5q0 110 47 198t130.5 137.5
t187.5 49.5q74 0 136 -26.5t105 -69.5t62 -93l-90 -41q-27 64 -82.5 101.5t-130.5 37.5q-78 0 -138.5 -37t-94.5 -104t-34 -153t34 -152.5t94.5 -103.5t138.5 -37q75 0 130.5 37.5t82.5 101.5l90 -41q-19 -51 -62 -94t-105 -69t-136 -26h-6z" />
    <glyph glyph-name="Egrave" unicode="&#xc8;" horiz-adv-x="606" 
d="M83 745h485v-90h-387v-236h367v-90h-367v-239h387v-90h-485v745zM193 991h99l73 -144h-80z" />
    <glyph glyph-name="Eacute" unicode="&#xc9;" horiz-adv-x="606" 
d="M83 745h485v-90h-387v-236h367v-90h-367v-239h387v-90h-485v745zM358 991h99l-92 -144h-80z" />
    <glyph glyph-name="Ecircumflex" unicode="&#xca;" horiz-adv-x="606" 
d="M83 745h485v-90h-387v-236h367v-90h-367v-239h387v-90h-485v745zM277 991h95l116 -144h-85l-78 94l-76 -94h-86z" />
    <glyph glyph-name="Edieresis" unicode="&#xcb;" horiz-adv-x="606" 
d="M83 745h485v-90h-387v-236h367v-90h-367v-239h387v-90h-485v745zM194 880.5q-18 18.5 -18 44.5t18 44t45 18q26 0 44 -18t18 -44q0 -27 -18 -45t-44 -18q-27 0 -45 18.5zM369 969q18 18 45 18q26 0 44 -18t18 -44q0 -27 -18 -45t-44 -18q-27 0 -45 18.5t-18 44.5t18 44z
" />
    <glyph glyph-name="Igrave" unicode="&#xcc;" horiz-adv-x="264" 
d="M83 745h98v-745h-98v745zM-1 991h99l73 -144h-80z" />
    <glyph glyph-name="Iacute" unicode="&#xcd;" horiz-adv-x="264" 
d="M83 745h98v-745h-98v745zM165 991h99l-92 -144h-80z" />
    <glyph glyph-name="Icircumflex" unicode="&#xce;" horiz-adv-x="264" 
d="M83 745h98v-745h-98v745zM83 991h95l116 -144h-85l-78 94l-76 -94h-86z" />
    <glyph glyph-name="Idieresis" unicode="&#xcf;" horiz-adv-x="264" 
d="M83 745h98v-745h-98v745zM0 880.5q-18 18.5 -18 44.5t18 44t45 18q26 0 44 -18t18 -44q0 -27 -18 -45t-44 -18q-27 0 -45 18.5zM175 969q18 18 45 18q26 0 44 -18t18 -44q0 -27 -18 -45t-44 -18q-27 0 -45 18.5t-18 44.5t18 44z" />
    <glyph glyph-name="Eth" unicode="&#xd0;" horiz-adv-x="741" 
d="M83 337h-89v71h89v337h244q112 0 196.5 -46t130.5 -130.5t46 -195.5t-46 -195.5t-130.5 -131t-196.5 -46.5h-244v337zM328 90q82 0 143 34.5t94 98.5t33 150t-33 149.5t-94.5 98t-142.5 34.5h-147v-247h189v-71h-189v-247h147z" />
    <glyph glyph-name="Ntilde" unicode="&#xd1;" horiz-adv-x="738" 
d="M83 745h82l391 -550v550h99v-745h-82l-392 558v-558h-98v745zM393.5 885q-15.5 7 -34.5 21q-14 9 -22 13.5t-19 4.5q-28 0 -33 -42h-63q1 52 24.5 80.5t61.5 28.5q23 0 38 -7t32 -20q14 -10 22.5 -14.5t19.5 -4.5q14 0 22 11.5t10 29.5h64q-1 -53 -23 -80.5t-60 -27.5
q-24 0 -39.5 7z" />
    <glyph glyph-name="Ograve" unicode="&#xd2;" horiz-adv-x="878" 
d="M247.5 38q-86.5 50 -136.5 138t-50 197t50 197t136.5 137.5t191.5 49.5t191.5 -50t137 -137.5t50.5 -196.5t-50.5 -197t-137 -138t-191.5 -50t-191.5 50zM195 224.5q36 -67.5 100 -106.5t144 -39t144 39t100 106.5t36 148.5t-36 148t-100 106t-144 39t-144 -39t-100 -106
t-36 -148t36 -148.5zM307 991h99l73 -144h-80z" />
    <glyph glyph-name="Oacute" unicode="&#xd3;" horiz-adv-x="878" 
d="M247.5 38q-86.5 50 -136.5 138t-50 197t50 197t136.5 137.5t191.5 49.5t191.5 -50t137 -137.5t50.5 -196.5t-50.5 -197t-137 -138t-191.5 -50t-191.5 50zM195 224.5q36 -67.5 100 -106.5t144 -39t144 39t100 106.5t36 148.5t-36 148t-100 106t-144 39t-144 -39t-100 -106
t-36 -148t36 -148.5zM472 991h99l-92 -144h-80z" />
    <glyph glyph-name="Ocircumflex" unicode="&#xd4;" horiz-adv-x="878" 
d="M247.5 38q-86.5 50 -136.5 138t-50 197t50 197t136.5 137.5t191.5 49.5t191.5 -50t137 -137.5t50.5 -196.5t-50.5 -197t-137 -138t-191.5 -50t-191.5 50zM195 224.5q36 -67.5 100 -106.5t144 -39t144 39t100 106.5t36 148.5t-36 148t-100 106t-144 39t-144 -39t-100 -106
t-36 -148t36 -148.5zM391 991h95l116 -144h-85l-78 94l-76 -94h-86z" />
    <glyph glyph-name="Otilde" unicode="&#xd5;" horiz-adv-x="878" 
d="M247.5 38q-86.5 50 -136.5 138t-50 197t50 197t136.5 137.5t191.5 49.5t191.5 -50t137 -137.5t50.5 -196.5t-50.5 -197t-137 -138t-191.5 -50t-191.5 50zM195 224.5q36 -67.5 100 -106.5t144 -39t144 39t100 106.5t36 148.5t-36 148t-100 106t-144 39t-144 -39t-100 -106
t-36 -148t36 -148.5zM464.5 885q-15.5 7 -34.5 21q-14 9 -22 13.5t-19 4.5q-28 0 -33 -42h-63q1 52 24.5 80.5t61.5 28.5q23 0 38 -7t32 -20q14 -10 22.5 -14.5t19.5 -4.5q14 0 22 11.5t10 29.5h64q-1 -53 -23 -80.5t-60 -27.5q-24 0 -39.5 7z" />
    <glyph glyph-name="Odieresis" unicode="&#xd6;" horiz-adv-x="878" 
d="M247.5 38q-86.5 50 -136.5 138t-50 197t50 197t136.5 137.5t191.5 49.5t191.5 -50t137 -137.5t50.5 -196.5t-50.5 -197t-137 -138t-191.5 -50t-191.5 50zM195 224.5q36 -67.5 100 -106.5t144 -39t144 39t100 106.5t36 148.5t-36 148t-100 106t-144 39t-144 -39t-100 -106
t-36 -148t36 -148.5zM308 880.5q-18 18.5 -18 44.5t18 44t45 18q26 0 44 -18t18 -44q0 -27 -18 -45t-44 -18q-27 0 -45 18.5zM483 969q18 18 45 18q26 0 44 -18t18 -44q0 -27 -18 -45t-44 -18q-27 0 -45 18.5t-18 44.5t18 44z" />
    <glyph glyph-name="multiply" unicode="&#xd7;" horiz-adv-x="574" 
d="M65 62l160 161l-159 159l62 62l159 -160l160 160l62 -62l-160 -159l160 -161l-61 -62l-161 161l-160 -161z" />
    <glyph glyph-name="Oslash" unicode="&#xd8;" horiz-adv-x="878" 
d="M226 51l-42 -51h-108l87 105q-48 52 -75 120.5t-27 147.5q0 109 50 197t136.5 137.5t191.5 49.5q117 0 213 -63l42 51h108l-87 -104q49 -52 76 -120.5t27 -147.5q0 -109 -50.5 -197t-137 -138t-191.5 -50q-117 0 -213 63zM176 267.5q17 -49.5 49 -88.5l367 443
q-68 44 -153 44q-80 0 -144 -39t-100 -106t-36 -148q0 -56 17 -105.5zM439 79q80 0 144 39t100 106.5t36 148.5q0 55 -17 104.5t-49 88.5l-367 -442q67 -45 153 -45z" />
    <glyph glyph-name="Ugrave" unicode="&#xd9;" horiz-adv-x="706" 
d="M210.5 22q-62.5 34 -97.5 94t-35 135v494h99v-492q0 -77 49 -125.5t127 -48.5t127 48.5t49 125.5v492h99v-494q0 -75 -35 -135t-97.5 -94t-142.5 -34t-142.5 34zM221 991h99l73 -144h-80z" />
    <glyph glyph-name="Uacute" unicode="&#xda;" horiz-adv-x="706" 
d="M210.5 22q-62.5 34 -97.5 94t-35 135v494h99v-492q0 -77 49 -125.5t127 -48.5t127 48.5t49 125.5v492h99v-494q0 -75 -35 -135t-97.5 -94t-142.5 -34t-142.5 34zM386 991h99l-92 -144h-80z" />
    <glyph glyph-name="Ucircumflex" unicode="&#xdb;" horiz-adv-x="706" 
d="M210.5 22q-62.5 34 -97.5 94t-35 135v494h99v-492q0 -77 49 -125.5t127 -48.5t127 48.5t49 125.5v492h99v-494q0 -75 -35 -135t-97.5 -94t-142.5 -34t-142.5 34zM305 991h95l116 -144h-85l-78 94l-76 -94h-86z" />
    <glyph glyph-name="Udieresis" unicode="&#xdc;" horiz-adv-x="706" 
d="M210.5 22q-62.5 34 -97.5 94t-35 135v494h99v-492q0 -77 49 -125.5t127 -48.5t127 48.5t49 125.5v492h99v-494q0 -75 -35 -135t-97.5 -94t-142.5 -34t-142.5 34zM222 880.5q-18 18.5 -18 44.5t18 44t45 18q26 0 44 -18t18 -44q0 -27 -18 -45t-44 -18q-27 0 -45 18.5z
M397 969q18 18 45 18q26 0 44 -18t18 -44q0 -27 -18 -45t-44 -18q-27 0 -45 18.5t-18 44.5t18 44z" />
    <glyph glyph-name="Yacute" unicode="&#xdd;" horiz-adv-x="635" 
d="M269 341l-258 404h111l196 -308l195 308h111l-256 -404v-341h-99v341zM351 991h99l-92 -144h-80z" />
    <glyph glyph-name="Thorn" unicode="&#xde;" horiz-adv-x="640" 
d="M75 745h99v-142h165q74 0 130 -28.5t87.5 -80.5t31.5 -122q0 -69 -31.5 -121t-87.5 -80t-130 -28h-165v-143h-99v745zM342 233q67 0 107 37.5t40 102.5q0 64 -40.5 102t-106.5 38h-168v-280h168z" />
    <glyph glyph-name="germandbls" unicode="&#xdf;" horiz-adv-x="616" 
d="M113 649q30 52 82.5 80t118.5 28q65 0 115.5 -24.5t78.5 -69.5t28 -104q0 -53 -22.5 -95t-62.5 -65q58 -28 86.5 -72t28.5 -108q0 -66 -29.5 -115.5t-84 -76.5t-126.5 -27h-62v85h59q65 0 105 37t40 97q0 61 -40 97.5t-105 36.5h-59v85h52q53 0 87 33.5t34 84.5
q0 52 -34 84t-89 32q-62 0 -100 -39t-38 -105v-681h-93v681q0 69 30 121z" />
    <glyph glyph-name="agrave" unicode="&#xe0;" horiz-adv-x="575" 
d="M100 30.5q-50 42.5 -50 110.5q0 66 43.5 110.5t132.5 59.5l184 30v25q0 44 -33 71.5t-85 27.5q-46 0 -81.5 -23.5t-52.5 -62.5l-81 42q23 56 84 93t133 37q61 0 108.5 -23.5t74 -65.5t26.5 -96v-366h-91v70q-29 -38 -76.5 -60t-105.5 -22q-80 0 -130 42.5zM174.5 89
q26.5 -22 66.5 -22q49 0 87.5 21.5t60 58.5t21.5 82v34l-163 -27q-99 -17 -99 -92q0 -33 26.5 -55zM155 784h99l73 -144h-80z" />
    <glyph glyph-name="aacute" unicode="&#xe1;" horiz-adv-x="575" 
d="M100 30.5q-50 42.5 -50 110.5q0 66 43.5 110.5t132.5 59.5l184 30v25q0 44 -33 71.5t-85 27.5q-46 0 -81.5 -23.5t-52.5 -62.5l-81 42q23 56 84 93t133 37q61 0 108.5 -23.5t74 -65.5t26.5 -96v-366h-91v70q-29 -38 -76.5 -60t-105.5 -22q-80 0 -130 42.5zM174.5 89
q26.5 -22 66.5 -22q49 0 87.5 21.5t60 58.5t21.5 82v34l-163 -27q-99 -17 -99 -92q0 -33 26.5 -55zM321 784h99l-92 -144h-80z" />
    <glyph glyph-name="acircumflex" unicode="&#xe2;" horiz-adv-x="575" 
d="M100 30.5q-50 42.5 -50 110.5q0 66 43.5 110.5t132.5 59.5l184 30v25q0 44 -33 71.5t-85 27.5q-46 0 -81.5 -23.5t-52.5 -62.5l-81 42q23 56 84 93t133 37q61 0 108.5 -23.5t74 -65.5t26.5 -96v-366h-91v70q-29 -38 -76.5 -60t-105.5 -22q-80 0 -130 42.5zM174.5 89
q26.5 -22 66.5 -22q49 0 87.5 21.5t60 58.5t21.5 82v34l-163 -27q-99 -17 -99 -92q0 -33 26.5 -55zM239 784h95l116 -144h-85l-78 94l-76 -94h-86z" />
    <glyph glyph-name="atilde" unicode="&#xe3;" horiz-adv-x="575" 
d="M100 30.5q-50 42.5 -50 110.5q0 66 43.5 110.5t132.5 59.5l184 30v25q0 44 -33 71.5t-85 27.5q-46 0 -81.5 -23.5t-52.5 -62.5l-81 42q23 56 84 93t133 37q61 0 108.5 -23.5t74 -65.5t26.5 -96v-366h-91v70q-29 -38 -76.5 -60t-105.5 -22q-80 0 -130 42.5zM174.5 89
q26.5 -22 66.5 -22q49 0 87.5 21.5t60 58.5t21.5 82v34l-163 -27q-99 -17 -99 -92q0 -33 26.5 -55zM312.5 678q-15.5 7 -34.5 21q-14 9 -22 13.5t-19 4.5q-28 0 -33 -42h-63q1 52 24.5 80.5t61.5 28.5q23 0 38 -7t32 -20q14 -10 22.5 -14.5t19.5 -4.5q14 0 22 11.5t10 29.5
h64q-1 -53 -23 -80.5t-60 -27.5q-24 0 -39.5 7z" />
    <glyph glyph-name="adieresis" unicode="&#xe4;" horiz-adv-x="575" 
d="M100 30.5q-50 42.5 -50 110.5q0 66 43.5 110.5t132.5 59.5l184 30v25q0 44 -33 71.5t-85 27.5q-46 0 -81.5 -23.5t-52.5 -62.5l-81 42q23 56 84 93t133 37q61 0 108.5 -23.5t74 -65.5t26.5 -96v-366h-91v70q-29 -38 -76.5 -60t-105.5 -22q-80 0 -130 42.5zM174.5 89
q26.5 -22 66.5 -22q49 0 87.5 21.5t60 58.5t21.5 82v34l-163 -27q-99 -17 -99 -92q0 -33 26.5 -55zM156 673.5q-18 18.5 -18 44.5t18 44t45 18q26 0 44 -18t18 -44q0 -27 -18 -45t-44 -18q-27 0 -45 18.5zM331 762q18 18 45 18q26 0 44 -18t18 -44q0 -27 -18 -45t-44 -18
q-27 0 -45 18.5t-18 44.5t18 44z" />
    <glyph glyph-name="aring" unicode="&#xe5;" horiz-adv-x="575" 
d="M100 30.5q-50 42.5 -50 110.5q0 66 43.5 110.5t132.5 59.5l184 30v25q0 44 -33 71.5t-85 27.5q-46 0 -81.5 -23.5t-52.5 -62.5l-81 42q23 56 84 93t133 37q61 0 108.5 -23.5t74 -65.5t26.5 -96v-366h-91v70q-29 -38 -76.5 -60t-105.5 -22q-80 0 -130 42.5zM174.5 89
q26.5 -22 66.5 -22q49 0 87.5 21.5t60 58.5t21.5 82v34l-163 -27q-99 -17 -99 -92q0 -33 26.5 -55zM200.5 623q-35.5 35 -35.5 86q0 52 35.5 87t87.5 35t87 -35t35 -87q0 -51 -35 -86t-87 -35t-87.5 35zM243 664.5q18 -17.5 44 -17.5t44 17.5t18 44.5t-18 45t-44 18
t-44 -17.5t-18 -45.5q0 -27 18 -44.5z" />
    <glyph glyph-name="ae" unicode="&#xe6;" horiz-adv-x="978" 
d="M100 30.5q-50 42.5 -50 110.5q0 66 43.5 110.5t132.5 59.5l184 30v25q0 44 -33 71.5t-85 27.5q-46 0 -81.5 -23.5t-52.5 -62.5l-81 42q23 56 84 93t133 37q62 0 110 -24.5t74 -67.5q36 43 87 67.5t110 24.5q77 0 134.5 -36t88 -95.5t30.5 -127.5q0 -30 -5 -50h-412
q2 -51 26 -89t63 -59t84 -21q99 0 152 89l78 -40q-26 -58 -87 -96t-138 -38q-57 0 -105.5 20.5t-84.5 60.5v-69h-87v70q-29 -38 -76.5 -60t-105.5 -22q-80 0 -130 42.5zM174.5 89q26.5 -22 66.5 -22q49 0 87.5 21.5t60 58.5t21.5 82v34l-163 -27q-99 -17 -99 -92
q0 -33 26.5 -55zM828 322q-1 42 -21.5 75t-55.5 52t-76 19q-61 0 -107 -40t-54 -106h314z" />
    <glyph glyph-name="ccedilla" unicode="&#xe7;" horiz-adv-x="603" 
d="M289 -226q-22 4 -37 10l12 50q27 -10 60 -10q23 0 36 10t13 27q0 15 -9 23t-26 8q-24 0 -40 -8l-21 9l12 97q-71 7 -126 45.5t-85.5 99.5t-30.5 135q0 80 35 144t97.5 100.5t142.5 36.5q78 0 142.5 -40.5t91.5 -104.5l-84 -40q-19 43 -59.5 69t-90.5 26q-49 0 -89.5 -25
t-63.5 -68.5t-23 -98.5q0 -54 23.5 -97.5t63.5 -68.5t89 -25q51 0 91 26t59 71l84 -42q-23 -57 -79 -96.5t-125 -46.5l-5 -52q12 2 19 2q36 0 59.5 -21t23.5 -55q0 -41 -31.5 -67.5t-87.5 -26.5q-19 0 -41 4z" />
    <glyph glyph-name="egrave" unicode="&#xe8;" horiz-adv-x="614" 
d="M182 25q-62 37 -97 101.5t-35 144.5t34.5 144t94 100t133.5 36q77 0 134.5 -36t88 -95.5t30.5 -127.5q0 -23 -5 -50h-412q2 -51 26 -89t62.5 -59t84.5 -21q98 0 151 89l78 -40q-26 -58 -88 -96t-142 -38q-76 0 -138 37zM464 322q-2 63 -45.5 104.5t-106.5 41.5
q-62 0 -107 -39.5t-55 -106.5h314zM175 784h99l73 -144h-80z" />
    <glyph glyph-name="eacute" unicode="&#xe9;" horiz-adv-x="614" 
d="M182 25q-62 37 -97 101.5t-35 144.5t34.5 144t94 100t133.5 36q77 0 134.5 -36t88 -95.5t30.5 -127.5q0 -23 -5 -50h-412q2 -51 26 -89t62.5 -59t84.5 -21q98 0 151 89l78 -40q-26 -58 -88 -96t-142 -38q-76 0 -138 37zM464 322q-2 63 -45.5 104.5t-106.5 41.5
q-62 0 -107 -39.5t-55 -106.5h314zM341 784h99l-92 -144h-80z" />
    <glyph glyph-name="ecircumflex" unicode="&#xea;" horiz-adv-x="614" 
d="M182 25q-62 37 -97 101.5t-35 144.5t34.5 144t94 100t133.5 36q77 0 134.5 -36t88 -95.5t30.5 -127.5q0 -23 -5 -50h-412q2 -51 26 -89t62.5 -59t84.5 -21q98 0 151 89l78 -40q-26 -58 -88 -96t-142 -38q-76 0 -138 37zM464 322q-2 63 -45.5 104.5t-106.5 41.5
q-62 0 -107 -39.5t-55 -106.5h314zM259 784h95l116 -144h-85l-78 94l-76 -94h-86z" />
    <glyph glyph-name="edieresis" unicode="&#xeb;" horiz-adv-x="614" 
d="M182 25q-62 37 -97 101.5t-35 144.5t34.5 144t94 100t133.5 36q77 0 134.5 -36t88 -95.5t30.5 -127.5q0 -23 -5 -50h-412q2 -51 26 -89t62.5 -59t84.5 -21q98 0 151 89l78 -40q-26 -58 -88 -96t-142 -38q-76 0 -138 37zM464 322q-2 63 -45.5 104.5t-106.5 41.5
q-62 0 -107 -39.5t-55 -106.5h314zM176 673.5q-18 18.5 -18 44.5t18 44t45 18q26 0 44 -18t18 -44q0 -27 -18 -45t-44 -18q-27 0 -45 18.5zM351 762q18 18 45 18q26 0 44 -18t18 -44q0 -27 -18 -45t-44 -18q-27 0 -45 18.5t-18 44.5t18 44z" />
    <glyph glyph-name="igrave" unicode="&#xec;" horiz-adv-x="209" 
d="M58 539h93v-539h-93v539zM-29 784h99l73 -144h-80z" />
    <glyph glyph-name="iacute" unicode="&#xed;" horiz-adv-x="209" 
d="M58 539h93v-539h-93v539zM137 784h99l-92 -144h-80z" />
    <glyph glyph-name="icircumflex" unicode="&#xee;" horiz-adv-x="209" 
d="M58 539h93v-539h-93v539zM55 784h95l116 -144h-85l-78 94l-76 -94h-86z" />
    <glyph glyph-name="idieresis" unicode="&#xef;" horiz-adv-x="209" 
d="M58 539h93v-539h-93v539zM-28 673.5q-18 18.5 -18 44.5t18 44t45 18q26 0 44 -18t18 -44q0 -27 -18 -45t-44 -18q-27 0 -45 18.5zM147 762q18 18 45 18q26 0 44 -18t18 -44q0 -27 -18 -45t-44 -18q-27 0 -45 18.5t-18 44.5t18 44z" />
    <glyph glyph-name="eth" unicode="&#xf0;" horiz-adv-x="654" 
d="M188.5 24q-64.5 36 -101.5 99.5t-37 142.5q0 77 35.5 140t98.5 99t140 36q46 0 88 -14t75 -44q-22 93 -95 155l-157 -58v59l101 37q-65 34 -140 34q-58 0 -114 -19l-16 80q74 24 139 24q135 0 233 -80l109 40v-60l-64 -24q59 -66 90.5 -158.5t31.5 -193.5
q0 -111 -36 -185t-97.5 -110t-139.5 -36q-79 0 -143.5 36zM172 170q24 -43 65.5 -67.5t90.5 -24.5t90 25t64.5 68t23.5 96q0 51 -22.5 93t-63 66.5t-92.5 24.5t-93 -24.5t-64 -67t-23 -94.5t24 -95z" />
    <glyph glyph-name="ntilde" unicode="&#xf1;" 
d="M72 539h91v-66q24 38 64 58t90 20q57 0 103 -26.5t72.5 -72.5t26.5 -103v-349h-94v319q0 66 -35.5 104t-93.5 38t-94.5 -38.5t-36.5 -103.5v-319h-93v539zM315.5 678q-15.5 7 -34.5 21q-14 9 -22 13.5t-19 4.5q-28 0 -33 -42h-63q1 52 24.5 80.5t61.5 28.5q23 0 38 -7
t32 -20q14 -10 22.5 -14.5t19.5 -4.5q14 0 22 11.5t10 29.5h64q-1 -53 -23 -80.5t-60 -27.5q-24 0 -39.5 7z" />
    <glyph glyph-name="ograve" unicode="&#xf2;" horiz-adv-x="654" 
d="M187.5 24.5q-63.5 36.5 -100.5 101t-37 144.5q0 79 36.5 143.5t100 101t141.5 36.5q77 0 140.5 -36.5t100 -100.5t36.5 -144q0 -81 -37 -145t-100.5 -100.5t-139.5 -36.5q-77 0 -140.5 36.5zM171.5 172q23.5 -44 65 -69t91.5 -25q49 0 90 25t64.5 69t23.5 98t-23.5 97.5
t-64.5 68.5t-90 25q-50 0 -91.5 -25t-65 -68.5t-23.5 -97.5t23.5 -98zM195 784h99l73 -144h-80z" />
    <glyph glyph-name="oacute" unicode="&#xf3;" horiz-adv-x="654" 
d="M187.5 24.5q-63.5 36.5 -100.5 101t-37 144.5q0 79 36.5 143.5t100 101t141.5 36.5q77 0 140.5 -36.5t100 -100.5t36.5 -144q0 -81 -37 -145t-100.5 -100.5t-139.5 -36.5q-77 0 -140.5 36.5zM171.5 172q23.5 -44 65 -69t91.5 -25q49 0 90 25t64.5 69t23.5 98t-23.5 97.5
t-64.5 68.5t-90 25q-50 0 -91.5 -25t-65 -68.5t-23.5 -97.5t23.5 -98zM361 784h99l-92 -144h-80z" />
    <glyph glyph-name="ocircumflex" unicode="&#xf4;" horiz-adv-x="654" 
d="M187.5 24.5q-63.5 36.5 -100.5 101t-37 144.5q0 79 36.5 143.5t100 101t141.5 36.5q77 0 140.5 -36.5t100 -100.5t36.5 -144q0 -81 -37 -145t-100.5 -100.5t-139.5 -36.5q-77 0 -140.5 36.5zM171.5 172q23.5 -44 65 -69t91.5 -25q49 0 90 25t64.5 69t23.5 98t-23.5 97.5
t-64.5 68.5t-90 25q-50 0 -91.5 -25t-65 -68.5t-23.5 -97.5t23.5 -98zM279 784h95l116 -144h-85l-78 94l-76 -94h-86z" />
    <glyph glyph-name="otilde" unicode="&#xf5;" horiz-adv-x="654" 
d="M187.5 24.5q-63.5 36.5 -100.5 101t-37 144.5q0 79 36.5 143.5t100 101t141.5 36.5q77 0 140.5 -36.5t100 -100.5t36.5 -144q0 -81 -37 -145t-100.5 -100.5t-139.5 -36.5q-77 0 -140.5 36.5zM171.5 172q23.5 -44 65 -69t91.5 -25q49 0 90 25t64.5 69t23.5 98t-23.5 97.5
t-64.5 68.5t-90 25q-50 0 -91.5 -25t-65 -68.5t-23.5 -97.5t23.5 -98zM352.5 678q-15.5 7 -34.5 21q-14 9 -22 13.5t-19 4.5q-28 0 -33 -42h-63q1 52 24.5 80.5t61.5 28.5q23 0 38 -7t32 -20q14 -10 22.5 -14.5t19.5 -4.5q14 0 22 11.5t10 29.5h64q-1 -53 -23 -80.5
t-60 -27.5q-24 0 -39.5 7z" />
    <glyph glyph-name="odieresis" unicode="&#xf6;" horiz-adv-x="654" 
d="M187.5 24.5q-63.5 36.5 -100.5 101t-37 144.5q0 79 36.5 143.5t100 101t141.5 36.5q77 0 140.5 -36.5t100 -100.5t36.5 -144q0 -81 -37 -145t-100.5 -100.5t-139.5 -36.5q-77 0 -140.5 36.5zM171.5 172q23.5 -44 65 -69t91.5 -25q49 0 90 25t64.5 69t23.5 98t-23.5 97.5
t-64.5 68.5t-90 25q-50 0 -91.5 -25t-65 -68.5t-23.5 -97.5t23.5 -98zM196 673.5q-18 18.5 -18 44.5t18 44t45 18q26 0 44 -18t18 -44q0 -27 -18 -45t-44 -18q-27 0 -45 18.5zM371 762q18 18 45 18q26 0 44 -18t18 -44q0 -27 -18 -45t-44 -18q-27 0 -45 18.5t-18 44.5t18 44
z" />
    <glyph glyph-name="divide" unicode="&#xf7;" horiz-adv-x="630" 
d="M64 294h500v-87h-500v87zM265 107h97v-107h-97v107zM265 500h97v-107h-97v107z" />
    <glyph glyph-name="oslash" unicode="&#xf8;" horiz-adv-x="654" 
d="M179 29l-24 -29h-101l66 80q-34 37 -52 86t-18 104q0 79 36.5 143.5t100 101t141.5 36.5q82 0 148 -41l24 29h101l-65 -79q33 -37 51 -86t18 -104q0 -81 -37 -145t-100.5 -100.5t-139.5 -36.5q-81 0 -149 41zM182 155l234 282q-39 24 -88 24q-50 0 -91.5 -25t-65 -68.5
t-23.5 -97.5q0 -65 34 -115zM328 78q49 0 90 25t64.5 69t23.5 98q0 64 -33 114l-234 -282q39 -24 89 -24z" />
    <glyph glyph-name="ugrave" unicode="&#xf9;" 
d="M159 15q-46 27 -72 75.5t-26 111.5v337h93v-327q0 -60 36 -97t94 -37t94 38.5t36 103.5v319h94v-539h-91v66q-24 -38 -64 -58t-90 -20q-58 0 -104 27zM158 784h99l73 -144h-80z" />
    <glyph glyph-name="uacute" unicode="&#xfa;" 
d="M159 15q-46 27 -72 75.5t-26 111.5v337h93v-327q0 -60 36 -97t94 -37t94 38.5t36 103.5v319h94v-539h-91v66q-24 -38 -64 -58t-90 -20q-58 0 -104 27zM323 784h99l-92 -144h-80z" />
    <glyph glyph-name="ucircumflex" unicode="&#xfb;" 
d="M159 15q-46 27 -72 75.5t-26 111.5v337h93v-327q0 -60 36 -97t94 -37t94 38.5t36 103.5v319h94v-539h-91v66q-24 -38 -64 -58t-90 -20q-58 0 -104 27zM242 784h95l116 -144h-85l-78 94l-76 -94h-86z" />
    <glyph glyph-name="udieresis" unicode="&#xfc;" 
d="M159 15q-46 27 -72 75.5t-26 111.5v337h93v-327q0 -60 36 -97t94 -37t94 38.5t36 103.5v319h94v-539h-91v66q-24 -38 -64 -58t-90 -20q-58 0 -104 27zM159 673.5q-18 18.5 -18 44.5t18 44t45 18q26 0 44 -18t18 -44q0 -27 -18 -45t-44 -18q-27 0 -45 18.5zM334 762
q18 18 45 18q26 0 44 -18t18 -44q0 -27 -18 -45t-44 -18q-27 0 -45 18.5t-18 44.5t18 44z" />
    <glyph glyph-name="yacute" unicode="&#xfd;" horiz-adv-x="553" 
d="M309 784h99l-92 -144h-80z" />
    <glyph glyph-name="thorn" unicode="&#xfe;" horiz-adv-x="669" 
d="M72 745h91v-281q32 41 80.5 64t108.5 23q75 0 136 -37t96 -101.5t35 -143.5t-35 -143t-96 -101t-137 -37q-58 0 -106.5 22.5t-79.5 64.5v-275h-93v945zM188.5 171.5q23.5 -43.5 64.5 -68.5t91 -25t90.5 25t63 68.5t22.5 97.5t-23 98t-63 69t-90 25t-91 -25t-64.5 -69
t-23.5 -98t23.5 -97.5z" />
    <glyph glyph-name="ydieresis" unicode="&#xff;" horiz-adv-x="553" 
d="M145 673.5q-18 18.5 -18 44.5t18 44t45 18q26 0 44 -18t18 -44q0 -27 -18 -45t-44 -18q-27 0 -45 18.5zM320 762q18 18 45 18q26 0 44 -18t18 -44q0 -27 -18 -45t-44 -18q-27 0 -45 18.5t-18 44.5t18 44z" />
    <glyph glyph-name="Amacron" unicode="&#x100;" horiz-adv-x="672" 
d="M278 745h116l267 -745h-105l-61 175h-318l-61 -175h-105zM464 265l-128 369l-128 -369h256zM203 946h267v-73h-267v73z" />
    <glyph glyph-name="amacron" unicode="&#x101;" horiz-adv-x="575" 
d="M100 30.5q-50 42.5 -50 110.5q0 66 43.5 110.5t132.5 59.5l184 30v25q0 44 -33 71.5t-85 27.5q-46 0 -81.5 -23.5t-52.5 -62.5l-81 42q23 56 84 93t133 37q61 0 108.5 -23.5t74 -65.5t26.5 -96v-366h-91v70q-29 -38 -76.5 -60t-105.5 -22q-80 0 -130 42.5zM174.5 89
q26.5 -22 66.5 -22q49 0 87.5 21.5t60 58.5t21.5 82v34l-163 -27q-99 -17 -99 -92q0 -33 26.5 -55zM155 739h267v-73h-267v73z" />
    <glyph glyph-name="Abreve" unicode="&#x102;" horiz-adv-x="672" 
d="M278 745h116l267 -745h-105l-61 175h-318l-61 -175h-105zM464 265l-128 369l-128 -369h256zM263.5 866q-33.5 19 -53 51t-19.5 69h71q0 -30 21.5 -52t52.5 -22t53 22t22 52h70q0 -37 -19.5 -69t-53 -51t-72.5 -19t-72.5 19z" />
    <glyph glyph-name="abreve" unicode="&#x103;" horiz-adv-x="575" 
d="M100 30.5q-50 42.5 -50 110.5q0 66 43.5 110.5t132.5 59.5l184 30v25q0 44 -33 71.5t-85 27.5q-46 0 -81.5 -23.5t-52.5 -62.5l-81 42q23 56 84 93t133 37q61 0 108.5 -23.5t74 -65.5t26.5 -96v-366h-91v70q-29 -38 -76.5 -60t-105.5 -22q-80 0 -130 42.5zM174.5 89
q26.5 -22 66.5 -22q49 0 87.5 21.5t60 58.5t21.5 82v34l-163 -27q-99 -17 -99 -92q0 -33 26.5 -55zM214.5 659q-33.5 19 -53 51t-19.5 69h71q0 -30 21.5 -52t52.5 -22t53 22t22 52h70q0 -37 -19.5 -69t-53 -51t-72.5 -19t-72.5 19z" />
    <glyph glyph-name="Aogonek" unicode="&#x104;" horiz-adv-x="672" 
d="M278 745h116l267 -745h-67q-56 -30 -56 -72q0 -22 14.5 -34.5t39.5 -12.5q36 0 76 28l30 -48q-50 -42 -113 -42q-50 0 -82 25.5t-32 67.5q0 33 20.5 61t57.5 46l-54 156h-318l-61 -175h-105zM464 265l-128 369l-128 -369h256z" />
    <glyph glyph-name="aogonek" unicode="&#x105;" horiz-adv-x="575" 
d="M100 30.5q-50 42.5 -50 110.5q0 66 43.5 110.5t132.5 59.5l184 30v25q0 44 -33 71.5t-85 27.5q-46 0 -81.5 -23.5t-52.5 -62.5l-81 42q23 56 84 93t133 37q61 0 108.5 -23.5t74 -65.5t26.5 -96v-366h-45q-46 -29 -46 -66q0 -22 14.5 -34.5t39.5 -12.5q36 0 76 28l30 -48
q-50 -42 -113 -42q-50 0 -82 25.5t-32 67.5q0 31 17.5 57t49.5 44v51q-29 -38 -76.5 -60t-105.5 -22q-80 0 -130 42.5zM174.5 89q26.5 -22 66.5 -22q49 0 87.5 21.5t60 58.5t21.5 82v34l-163 -27q-99 -17 -99 -92q0 -33 26.5 -55z" />
    <glyph glyph-name="Cacute" unicode="&#x106;" horiz-adv-x="779" 
d="M238.5 37.5q-83.5 49.5 -130.5 137t-47 197.5t47 198t130.5 137.5t187.5 49.5q74 0 136 -26.5t105 -69.5t62 -93l-90 -41q-27 64 -82.5 101.5t-130.5 37.5q-78 0 -138.5 -37t-94.5 -104t-34 -153t34 -152.5t94.5 -103.5t138.5 -37q75 0 130.5 37.5t82.5 101.5l90 -41
q-19 -51 -62 -94t-105 -69t-136 -26q-104 0 -187.5 49.5zM423 991h99l-92 -144h-80z" />
    <glyph glyph-name="cacute" unicode="&#x107;" horiz-adv-x="603" 
d="M180 25q-63 37 -98 101.5t-35 143.5q0 80 35 144t97.5 100.5t142.5 36.5q78 0 142.5 -40.5t91.5 -104.5l-84 -40q-19 43 -59.5 69t-90.5 26q-49 0 -89.5 -25t-63.5 -68.5t-23 -98.5q0 -54 23.5 -97.5t63.5 -68.5t89 -25q51 0 91 26t59 71l84 -42q-26 -63 -91 -104
t-143 -41q-79 0 -142 37zM355 784h99l-92 -144h-80z" />
    <glyph glyph-name="Ccircumflex" unicode="&#x108;" horiz-adv-x="779" 
d="M238.5 37.5q-83.5 49.5 -130.5 137t-47 197.5t47 198t130.5 137.5t187.5 49.5q74 0 136 -26.5t105 -69.5t62 -93l-90 -41q-27 64 -82.5 101.5t-130.5 37.5q-78 0 -138.5 -37t-94.5 -104t-34 -153t34 -152.5t94.5 -103.5t138.5 -37q75 0 130.5 37.5t82.5 101.5l90 -41
q-19 -51 -62 -94t-105 -69t-136 -26q-104 0 -187.5 49.5zM341 991h95l116 -144h-85l-78 94l-76 -94h-86z" />
    <glyph glyph-name="ccircumflex" unicode="&#x109;" horiz-adv-x="603" 
d="M180 25q-63 37 -98 101.5t-35 143.5q0 80 35 144t97.5 100.5t142.5 36.5q78 0 142.5 -40.5t91.5 -104.5l-84 -40q-19 43 -59.5 69t-90.5 26q-49 0 -89.5 -25t-63.5 -68.5t-23 -98.5q0 -54 23.5 -97.5t63.5 -68.5t89 -25q51 0 91 26t59 71l84 -42q-26 -63 -91 -104
t-143 -41q-79 0 -142 37zM274 784h95l116 -144h-85l-78 94l-76 -94h-86z" />
    <glyph glyph-name="Cdotaccent" unicode="&#x10a;" horiz-adv-x="779" 
d="M238.5 37.5q-83.5 49.5 -130.5 137t-47 197.5t47 198t130.5 137.5t187.5 49.5q74 0 136 -26.5t105 -69.5t62 -93l-90 -41q-27 64 -82.5 101.5t-130.5 37.5q-78 0 -138.5 -37t-94.5 -104t-34 -153t34 -152.5t94.5 -103.5t138.5 -37q75 0 130.5 37.5t82.5 101.5l90 -41
q-19 -51 -62 -94t-105 -69t-136 -26q-104 0 -187.5 49.5zM345 880.5q-18 18.5 -18 44.5t18 44t45 18q26 0 44 -18t18 -44q0 -27 -18 -45t-44 -18q-27 0 -45 18.5z" />
    <glyph glyph-name="cdotaccent" unicode="&#x10b;" horiz-adv-x="603" 
d="M180 25q-63 37 -98 101.5t-35 143.5q0 80 35 144t97.5 100.5t142.5 36.5q78 0 142.5 -40.5t91.5 -104.5l-84 -40q-19 43 -59.5 69t-90.5 26q-49 0 -89.5 -25t-63.5 -68.5t-23 -98.5q0 -54 23.5 -97.5t63.5 -68.5t89 -25q51 0 91 26t59 71l84 -42q-26 -63 -91 -104
t-143 -41q-79 0 -142 37zM278 673.5q-18 18.5 -18 44.5t18 44t45 18q26 0 44 -18t18 -44q0 -27 -18 -45t-44 -18q-27 0 -45 18.5z" />
    <glyph glyph-name="Ccaron" unicode="&#x10c;" horiz-adv-x="779" 
d="M238.5 37.5q-83.5 49.5 -130.5 137t-47 197.5t47 198t130.5 137.5t187.5 49.5q74 0 136 -26.5t105 -69.5t62 -93l-90 -41q-27 64 -82.5 101.5t-130.5 37.5q-78 0 -138.5 -37t-94.5 -104t-34 -153t34 -152.5t94.5 -103.5t138.5 -37q75 0 130.5 37.5t82.5 101.5l90 -41
q-19 -51 -62 -94t-105 -69t-136 -26q-104 0 -187.5 49.5zM228 991h86l76 -94l78 94h85l-116 -144h-95z" />
    <glyph glyph-name="ccaron" unicode="&#x10d;" horiz-adv-x="603" 
d="M180 25q-63 37 -98 101.5t-35 143.5q0 80 35 144t97.5 100.5t142.5 36.5q78 0 142.5 -40.5t91.5 -104.5l-84 -40q-19 43 -59.5 69t-90.5 26q-49 0 -89.5 -25t-63.5 -68.5t-23 -98.5q0 -54 23.5 -97.5t63.5 -68.5t89 -25q51 0 91 26t59 71l84 -42q-26 -63 -91 -104
t-143 -41q-79 0 -142 37zM160 784h86l76 -94l78 94h85l-116 -144h-95z" />
    <glyph glyph-name="Dcaron" unicode="&#x10e;" horiz-adv-x="741" 
d="M83 745h244q112 0 196.5 -46t130.5 -130.5t46 -195.5t-46 -195.5t-130.5 -131t-196.5 -46.5h-244v745zM328 90q82 0 143 34.5t94 98.5t33 150t-33 149.5t-94.5 98t-142.5 34.5h-147v-565h147zM218 991h86l76 -94l78 94h85l-116 -144h-95z" />
    <glyph glyph-name="dcaron" unicode="&#x10f;" horiz-adv-x="803" 
d="M181 25q-61 37 -96 101t-35 143t35 143.5t96 101.5t136 37q59 0 106.5 -22t79.5 -62v290h94v-757h-91v79q-30 -43 -79.5 -67t-109.5 -24q-75 0 -136 37zM171 171.5q23 -43.5 63.5 -68.5t90.5 -25t90.5 25t64 68.5t23.5 97.5t-23.5 98t-64 69t-90.5 25t-90.5 -25
t-63.5 -69t-23 -98t23 -97.5zM689 839h100l-14 -184h-71z" />
    <glyph glyph-name="Dcroat" unicode="&#x110;" horiz-adv-x="741" 
d="M83 337h-89v71h89v337h244q112 0 196.5 -46t130.5 -130.5t46 -195.5t-46 -195.5t-130.5 -131t-196.5 -46.5h-244v337zM328 90q82 0 143 34.5t94 98.5t33 150t-33 149.5t-94.5 98t-142.5 34.5h-147v-247h189v-71h-189v-247h147z" />
    <glyph glyph-name="dcroat" unicode="&#x111;" horiz-adv-x="669" 
d="M181 25q-61 37 -96 101t-35 143t35 143.5t96 101.5t136 37q59 0 106.5 -22t79.5 -62v137h-89v71h89v82h94v-82h92v-71h-92v-604h-91v79q-30 -43 -79.5 -67t-109.5 -24q-75 0 -136 37zM171 171.5q23 -43.5 63.5 -68.5t90.5 -25t90.5 25t64 68.5t23.5 97.5t-23.5 98t-64 69
t-90.5 25t-90.5 -25t-63.5 -69t-23 -98t23 -97.5z" />
    <glyph glyph-name="Emacron" unicode="&#x112;" horiz-adv-x="606" 
d="M83 745h485v-90h-387v-236h367v-90h-367v-239h387v-90h-485v745zM192 946h267v-73h-267v73z" />
    <glyph glyph-name="emacron" unicode="&#x113;" horiz-adv-x="614" 
d="M182 25q-62 37 -97 101.5t-35 144.5t34.5 144t94 100t133.5 36q77 0 134.5 -36t88 -95.5t30.5 -127.5q0 -23 -5 -50h-412q2 -51 26 -89t62.5 -59t84.5 -21q98 0 151 89l78 -40q-26 -58 -88 -96t-142 -38q-76 0 -138 37zM464 322q-2 63 -45.5 104.5t-106.5 41.5
q-62 0 -107 -39.5t-55 -106.5h314zM175 739h267v-73h-267v73z" />
    <glyph glyph-name="Ebreve" unicode="&#x114;" horiz-adv-x="606" 
d="M83 745h485v-90h-387v-236h367v-90h-367v-239h387v-90h-485v745zM252.5 866q-33.5 19 -53 51t-19.5 69h71q0 -30 21.5 -52t52.5 -22t53 22t22 52h70q0 -37 -19.5 -69t-53 -51t-72.5 -19t-72.5 19z" />
    <glyph glyph-name="ebreve" unicode="&#x115;" horiz-adv-x="614" 
d="M182 25q-62 37 -97 101.5t-35 144.5t34.5 144t94 100t133.5 36q77 0 134.5 -36t88 -95.5t30.5 -127.5q0 -23 -5 -50h-412q2 -51 26 -89t62.5 -59t84.5 -21q98 0 151 89l78 -40q-26 -58 -88 -96t-142 -38q-76 0 -138 37zM464 322q-2 63 -45.5 104.5t-106.5 41.5
q-62 0 -107 -39.5t-55 -106.5h314zM234.5 659q-33.5 19 -53 51t-19.5 69h71q0 -30 21.5 -52t52.5 -22t53 22t22 52h70q0 -37 -19.5 -69t-53 -51t-72.5 -19t-72.5 19z" />
    <glyph glyph-name="Edotaccent" unicode="&#x116;" horiz-adv-x="606" 
d="M83 745h485v-90h-387v-236h367v-90h-367v-239h387v-90h-485v745zM281 880.5q-18 18.5 -18 44.5t18 44t45 18q26 0 44 -18t18 -44q0 -27 -18 -45t-44 -18q-27 0 -45 18.5z" />
    <glyph glyph-name="edotaccent" unicode="&#x117;" horiz-adv-x="614" 
d="M182 25q-62 37 -97 101.5t-35 144.5t34.5 144t94 100t133.5 36q77 0 134.5 -36t88 -95.5t30.5 -127.5q0 -23 -5 -50h-412q2 -51 26 -89t62.5 -59t84.5 -21q98 0 151 89l78 -40q-26 -58 -88 -96t-142 -38q-76 0 -138 37zM464 322q-2 63 -45.5 104.5t-106.5 41.5
q-62 0 -107 -39.5t-55 -106.5h314zM263 673.5q-18 18.5 -18 44.5t18 44t45 18q26 0 44 -18t18 -44q0 -27 -18 -45t-44 -18q-27 0 -45 18.5z" />
    <glyph glyph-name="Eogonek" unicode="&#x118;" horiz-adv-x="606" 
d="M83 745h485v-90h-387v-236h367v-90h-367v-239h387v-90h-75q-56 -30 -56 -72q0 -22 14.5 -34.5t39.5 -12.5q36 0 76 28l30 -48q-50 -42 -113 -42q-50 0 -82 25.5t-32 67.5q0 25 12 48t35 40h-334v745z" />
    <glyph glyph-name="eogonek" unicode="&#x119;" horiz-adv-x="614" 
d="M281 -9q-32 -26 -32 -57q0 -22 14.5 -34.5t39.5 -12.5q36 0 76 28l30 -48q-50 -42 -113 -42q-50 0 -82 25.5t-32 67.5q0 50 44 86q-80 29 -128 101t-48 166q0 80 34.5 144t94 100t133.5 36q77 0 134.5 -36t88 -95.5t30.5 -127.5q0 -23 -5 -50h-412q2 -51 26 -89t62.5 -59
t84.5 -21q98 0 151 89l78 -40q-26 -58 -88 -96t-142 -38q-19 0 -39 3zM464 322q-2 63 -45.5 104.5t-106.5 41.5q-62 0 -107 -39.5t-55 -106.5h314z" />
    <glyph glyph-name="Ecaron" unicode="&#x11a;" horiz-adv-x="606" 
d="M83 745h485v-90h-387v-236h367v-90h-367v-239h387v-90h-485v745zM163 991h86l76 -94l78 94h85l-116 -144h-95z" />
    <glyph glyph-name="ecaron" unicode="&#x11b;" horiz-adv-x="614" 
d="M182 25q-62 37 -97 101.5t-35 144.5t34.5 144t94 100t133.5 36q77 0 134.5 -36t88 -95.5t30.5 -127.5q0 -23 -5 -50h-412q2 -51 26 -89t62.5 -59t84.5 -21q98 0 151 89l78 -40q-26 -58 -88 -96t-142 -38q-76 0 -138 37zM464 322q-2 63 -45.5 104.5t-106.5 41.5
q-62 0 -107 -39.5t-55 -106.5h314zM145 784h86l76 -94l78 94h85l-116 -144h-95z" />
    <glyph glyph-name="Gcircumflex" unicode="&#x11c;" horiz-adv-x="817" 
d="M239.5 37.5q-83.5 49.5 -131 137t-47.5 197.5t47 198t130.5 137.5t187.5 49.5q74 0 136 -26.5t105 -69.5t62 -93l-88 -43q-26 66 -82 103.5t-133 37.5q-78 0 -138.5 -37t-94.5 -104t-34 -153t34 -152.5t95 -103.5t139 -37q67 0 122.5 29t87.5 80.5t32 117.5v4h-243v85
h342v-66q0 -101 -46 -178.5t-124 -120t-171 -42.5q-104 0 -187.5 49.5zM360 991h95l116 -144h-85l-78 94l-76 -94h-86z" />
    <glyph glyph-name="gcircumflex" unicode="&#x11d;" horiz-adv-x="659" 
d="M179.5 -181.5q-64.5 38.5 -91.5 102.5l87 40q15 -40 55 -65.5t98 -25.5q71 0 118 40.5t47 112.5v75q-30 -41 -77 -63t-102 -22q-75 0 -135 35.5t-94.5 97t-34.5 136.5t34 136.5t94 97t135 35.5q56 0 103 -22.5t80 -64.5v75h91v-516q0 -70 -33 -125t-92 -86.5t-133 -31.5
q-85 0 -149.5 38.5zM170.5 192q22.5 -41 62.5 -65t89 -24q47 0 86.5 24t62 65t22.5 90t-22.5 90t-62 65t-86.5 24q-49 0 -88.5 -24t-62.5 -65t-23 -90t22.5 -90zM281 784h95l116 -144h-85l-78 94l-76 -94h-86z" />
    <glyph glyph-name="Gbreve" unicode="&#x11e;" horiz-adv-x="817" 
d="M239.5 37.5q-83.5 49.5 -131 137t-47.5 197.5t47 198t130.5 137.5t187.5 49.5q74 0 136 -26.5t105 -69.5t62 -93l-88 -43q-26 66 -82 103.5t-133 37.5q-78 0 -138.5 -37t-94.5 -104t-34 -153t34 -152.5t95 -103.5t139 -37q67 0 122.5 29t87.5 80.5t32 117.5v4h-243v85
h342v-66q0 -101 -46 -178.5t-124 -120t-171 -42.5q-104 0 -187.5 49.5zM336.5 866q-33.5 19 -53 51t-19.5 69h71q0 -30 21.5 -52t52.5 -22t53 22t22 52h70q0 -37 -19.5 -69t-53 -51t-72.5 -19t-72.5 19z" />
    <glyph glyph-name="gbreve" unicode="&#x11f;" horiz-adv-x="659" 
d="M179.5 -181.5q-64.5 38.5 -91.5 102.5l87 40q15 -40 55 -65.5t98 -25.5q71 0 118 40.5t47 112.5v75q-30 -41 -77 -63t-102 -22q-75 0 -135 35.5t-94.5 97t-34.5 136.5t34 136.5t94 97t135 35.5q56 0 103 -22.5t80 -64.5v75h91v-516q0 -70 -33 -125t-92 -86.5t-133 -31.5
q-85 0 -149.5 38.5zM170.5 192q22.5 -41 62.5 -65t89 -24q47 0 86.5 24t62 65t22.5 90t-22.5 90t-62 65t-86.5 24q-49 0 -88.5 -24t-62.5 -65t-23 -90t22.5 -90zM256.5 659q-33.5 19 -53 51t-19.5 69h71q0 -30 21.5 -52t52.5 -22t53 22t22 52h70q0 -37 -19.5 -69t-53 -51
t-72.5 -19t-72.5 19z" />
    <glyph glyph-name="Gdotaccent" unicode="&#x120;" horiz-adv-x="817" 
d="M239.5 37.5q-83.5 49.5 -131 137t-47.5 197.5t47 198t130.5 137.5t187.5 49.5q74 0 136 -26.5t105 -69.5t62 -93l-88 -43q-26 66 -82 103.5t-133 37.5q-78 0 -138.5 -37t-94.5 -104t-34 -153t34 -152.5t95 -103.5t139 -37q67 0 122.5 29t87.5 80.5t32 117.5v4h-243v85
h342v-66q0 -101 -46 -178.5t-124 -120t-171 -42.5q-104 0 -187.5 49.5zM364 880.5q-18 18.5 -18 44.5t18 44t45 18q26 0 44 -18t18 -44q0 -27 -18 -45t-44 -18q-27 0 -45 18.5z" />
    <glyph glyph-name="gdotaccent" unicode="&#x121;" horiz-adv-x="659" 
d="M179.5 -181.5q-64.5 38.5 -91.5 102.5l87 40q15 -40 55 -65.5t98 -25.5q71 0 118 40.5t47 112.5v75q-30 -41 -77 -63t-102 -22q-75 0 -135 35.5t-94.5 97t-34.5 136.5t34 136.5t94 97t135 35.5q56 0 103 -22.5t80 -64.5v75h91v-516q0 -70 -33 -125t-92 -86.5t-133 -31.5
q-85 0 -149.5 38.5zM170.5 192q22.5 -41 62.5 -65t89 -24q47 0 86.5 24t62 65t22.5 90t-22.5 90t-62 65t-86.5 24q-49 0 -88.5 -24t-62.5 -65t-23 -90t22.5 -90zM285 673.5q-18 18.5 -18 44.5t18 44t45 18q26 0 44 -18t18 -44q0 -27 -18 -45t-44 -18q-27 0 -45 18.5z" />
    <glyph glyph-name="uni0122" unicode="&#x122;" horiz-adv-x="817" 
d="M239.5 37.5q-83.5 49.5 -131 137t-47.5 197.5t47 198t130.5 137.5t187.5 49.5q74 0 136 -26.5t105 -69.5t62 -93l-88 -43q-26 66 -82 103.5t-133 37.5q-78 0 -138.5 -37t-94.5 -104t-34 -153t34 -152.5t95 -103.5t139 -37q67 0 122.5 29t87.5 80.5t32 117.5v4h-243v85
h342v-66q0 -101 -46 -178.5t-124 -120t-171 -42.5q-104 0 -187.5 49.5zM420 -200h-49v120h97v-85q0 -73 -29.5 -116.5t-87.5 -57.5v41q63 17 69 98z" />
    <glyph glyph-name="uni0123" unicode="&#x123;" horiz-adv-x="659" 
d="M179.5 -181.5q-64.5 38.5 -91.5 102.5l87 40q15 -40 55 -65.5t98 -25.5q71 0 118 40.5t47 112.5v75q-30 -41 -77 -63t-102 -22q-75 0 -135 35.5t-94.5 97t-34.5 136.5t34 136.5t94 97t135 35.5q56 0 103 -22.5t80 -64.5v75h91v-516q0 -70 -33 -125t-92 -86.5t-133 -31.5
q-85 0 -149.5 38.5zM170.5 192q22.5 -41 62.5 -65t89 -24q47 0 86.5 24t62 65t22.5 90t-22.5 90t-62 65t-86.5 24q-49 0 -88.5 -24t-62.5 -65t-23 -90t22.5 -90zM311 820.5q30 42.5 87 55.5v-41q-31 -8 -48.5 -31t-20.5 -57h49v-120h-97v85q0 66 30 108.5z" />
    <glyph glyph-name="Hcircumflex" unicode="&#x124;" horiz-adv-x="735" 
d="M83 745h98v-332h373v332h99v-745h-99v323h-373v-323h-98v745zM319 991h95l116 -144h-85l-78 94l-76 -94h-86z" />
    <glyph glyph-name="hcircumflex" unicode="&#x125;" 
d="M72 757h93v-281q24 36 63.5 55.5t88.5 19.5q57 0 103 -26.5t72.5 -72.5t26.5 -103v-349h-94v319q0 66 -36 104t-93 38t-94 -38.5t-37 -103.5v-319h-93v757zM70 994h95l116 -144h-85l-78 94l-76 -94h-86z" />
    <glyph glyph-name="Hbar" unicode="&#x126;" horiz-adv-x="735" 
d="M83 560h-75v71h75v114h98v-114h373v114h99v-114h75v-71h-75v-560h-99v323h-373v-323h-98v560zM554 413v147h-373v-147h373z" />
    <glyph glyph-name="hbar" unicode="&#x127;" 
d="M72 604h-91v71h91v82h93v-82h92v-71h-92v-128q24 36 63.5 55.5t88.5 19.5q57 0 103 -26.5t72.5 -72.5t26.5 -103v-349h-94v319q0 66 -36 104t-93 38t-94 -38.5t-37 -103.5v-319h-93v604z" />
    <glyph glyph-name="Itilde" unicode="&#x128;" horiz-adv-x="264" 
d="M83 745h98v-745h-98v745zM156.5 885q-15.5 7 -34.5 21q-14 9 -22 13.5t-19 4.5q-28 0 -33 -42h-63q1 52 24.5 80.5t61.5 28.5q23 0 38 -7t32 -20q14 -10 22.5 -14.5t19.5 -4.5q14 0 22 11.5t10 29.5h64q-1 -53 -23 -80.5t-60 -27.5q-24 0 -39.5 7z" />
    <glyph glyph-name="itilde" unicode="&#x129;" horiz-adv-x="209" 
d="M58 539h93v-539h-93v539zM128.5 678q-15.5 7 -34.5 21q-14 9 -22 13.5t-19 4.5q-28 0 -33 -42h-63q1 52 24.5 80.5t61.5 28.5q23 0 38 -7t32 -20q14 -10 22.5 -14.5t19.5 -4.5q14 0 22 11.5t10 29.5h64q-1 -53 -23 -80.5t-60 -27.5q-24 0 -39.5 7z" />
    <glyph glyph-name="Imacron" unicode="&#x12a;" horiz-adv-x="264" 
d="M83 745h98v-745h-98v745zM-1 946h267v-73h-267v73z" />
    <glyph glyph-name="imacron" unicode="&#x12b;" horiz-adv-x="209" 
d="M58 539h93v-539h-93v539zM-29 739h267v-73h-267v73z" />
    <glyph glyph-name="Ibreve" unicode="&#x12c;" horiz-adv-x="264" 
d="M83 745h98v-745h-98v745zM59.5 866q-33.5 19 -53 51t-19.5 69h71q0 -30 21.5 -52t52.5 -22t53 22t22 52h70q0 -37 -19.5 -69t-53 -51t-72.5 -19t-72.5 19z" />
    <glyph glyph-name="ibreve" unicode="&#x12d;" horiz-adv-x="209" 
d="M58 539h93v-539h-93v539zM31.5 659q-33.5 19 -53 51t-19.5 69h71q0 -30 21.5 -52t52.5 -22t53 22t22 52h70q0 -37 -19.5 -69t-53 -51t-72.5 -19t-72.5 19z" />
    <glyph glyph-name="Iogonek" unicode="&#x12e;" horiz-adv-x="264" 
d="M25.5 -155.5q-32.5 25.5 -32.5 67.5q0 36 24 65.5t66 46.5v721h98v-745h-64q-56 -30 -56 -72q0 -22 14.5 -34.5t39.5 -12.5q36 0 76 28l30 -48q-50 -42 -113 -42q-50 0 -82.5 25.5z" />
    <glyph glyph-name="iogonek" unicode="&#x12f;" horiz-adv-x="209" 
d="M59 673.5q-18 18.5 -18 44.5t18 44t45 18q26 0 44 -18t18 -44q0 -27 -18 -45t-44 -18q-27 0 -45 18.5zM-9.5 -16q24.5 30 67.5 47v508h93v-539h-71q-46 -29 -46 -66q0 -22 14.5 -34.5t39.5 -12.5q36 0 76 28l30 -48q-50 -42 -113 -42q-50 0 -82.5 25.5t-32.5 67.5
q0 36 24.5 66z" />
    <glyph glyph-name="Idotaccent" unicode="&#x130;" horiz-adv-x="264" 
d="M83 745h98v-745h-98v745zM87 880.5q-18 18.5 -18 44.5t18 44t45 18q26 0 44 -18t18 -44q0 -27 -18 -45t-44 -18q-27 0 -45 18.5z" />
    <glyph glyph-name="dotlessi" unicode="&#x131;" horiz-adv-x="209" 
d="M58 539h93v-539h-93v539z" />
    <glyph glyph-name="Jcircumflex" unicode="&#x134;" horiz-adv-x="386" 
d="M50 95h41q53 0 84 31.5t31 85.5v533h99v-531q0 -98 -58 -156t-156 -58h-41v95zM207 991h95l116 -144h-85l-78 94l-76 -94h-86z" />
    <glyph glyph-name="jcircumflex" unicode="&#x135;" horiz-adv-x="237" 
d="M-64 -216v83q21 -3 40 -3q43 0 69.5 24t26.5 69v582h93v-582q0 -84 -52 -131t-133 -47q-26 0 -44 5zM70 784h95l116 -144h-85l-78 94l-76 -94h-86z" />
    <glyph glyph-name="uni0136" unicode="&#x136;" horiz-adv-x="662" 
d="M83 745h98v-381l332 381h123l-270 -312l285 -433h-117l-236 354l-117 -134v-220h-98v745zM342 -200h-49v120h97v-85q0 -73 -29.5 -116.5t-87.5 -57.5v41q63 17 69 98z" />
    <glyph glyph-name="uni0137" unicode="&#x137;" horiz-adv-x="558" 
d="M72 757h93v-471l248 253h119l-207 -217l221 -322h-110l-179 259l-92 -97v-162h-93v757zM290 -200h-49v120h97v-85q0 -73 -29.5 -116.5t-87.5 -57.5v41q63 17 69 98z" />
    <glyph glyph-name="kgreenlandic" unicode="&#x138;" horiz-adv-x="558" 
d="M266 240h-101v-240h-93v539h93v-210h104l139 210h109l-168 -256l198 -283h-110z" />
    <glyph glyph-name="Lacute" unicode="&#x139;" horiz-adv-x="535" 
d="M83 745h98v-655h327v-90h-425v745zM165 991h99l-92 -144h-80z" />
    <glyph glyph-name="lacute" unicode="&#x13a;" horiz-adv-x="237" 
d="M72 757h93v-757h-93v757zM152 991h99l-92 -144h-80z" />
    <glyph glyph-name="uni013B" unicode="&#x13b;" horiz-adv-x="535" 
d="M83 745h98v-655h327v-90h-425v745zM306 -200h-49v120h97v-85q0 -73 -29.5 -116.5t-87.5 -57.5v41q63 17 69 98z" />
    <glyph glyph-name="uni013C" unicode="&#x13c;" horiz-adv-x="237" 
d="M72 757h93v-757h-93v757zM129 -200h-49v120h97v-85q0 -73 -29.5 -116.5t-87.5 -57.5v41q63 17 69 98z" />
    <glyph glyph-name="Lcaron" unicode="&#x13d;" horiz-adv-x="622" 
d="M83 745h98v-655h327v-90h-425v745zM390 745h100l-14 -184h-71z" />
    <glyph glyph-name="lcaron" unicode="&#x13e;" horiz-adv-x="371" 
d="M72 757h93v-757h-93v757zM257 839h100l-14 -184h-71z" />
    <glyph glyph-name="Ldot" unicode="&#x13f;" horiz-adv-x="535" 
d="M83 745h98v-655h327v-90h-425v745zM300.5 417q18.5 18 44.5 18t44 -18t18 -44q0 -27 -18 -45t-44 -18t-44.5 18.5t-18.5 44.5t18.5 44z" />
    <glyph glyph-name="ldot" unicode="&#x140;" horiz-adv-x="393" 
d="M72 757h93v-757h-93v757zM250.5 417q18.5 18 44.5 18t44 -18t18 -44q0 -27 -18 -45t-44 -18t-44.5 18t-18.5 45q0 26 18.5 44z" />
    <glyph glyph-name="Lslash" unicode="&#x141;" horiz-adv-x="535" 
d="M83 320l-108 -35v76l108 35v349h98v-318l107 34v-76l-107 -34v-261h327v-90h-425v320z" />
    <glyph glyph-name="lslash" unicode="&#x142;" horiz-adv-x="237" 
d="M72 336l-85 -32v76l85 32v345h93v-309l85 32v-76l-85 -32v-372h-93v336z" />
    <glyph glyph-name="Nacute" unicode="&#x143;" horiz-adv-x="738" 
d="M83 745h82l391 -550v550h99v-745h-82l-392 558v-558h-98v745zM402 991h99l-92 -144h-80z" />
    <glyph glyph-name="nacute" unicode="&#x144;" 
d="M72 539h91v-66q24 38 64 58t90 20q57 0 103 -26.5t72.5 -72.5t26.5 -103v-349h-94v319q0 66 -35.5 104t-93.5 38t-94.5 -38.5t-36.5 -103.5v-319h-93v539zM323 784h99l-92 -144h-80z" />
    <glyph glyph-name="uni0145" unicode="&#x145;" horiz-adv-x="738" 
d="M83 745h82l391 -550v550h99v-745h-82l-392 558v-558h-98v745zM380 -200h-49v120h97v-85q0 -73 -29.5 -116.5t-87.5 -57.5v41q63 17 69 98z" />
    <glyph glyph-name="uni0146" unicode="&#x146;" 
d="M72 539h91v-66q24 38 64 58t90 20q57 0 103 -26.5t72.5 -72.5t26.5 -103v-349h-94v319q0 66 -35.5 104t-93.5 38t-94.5 -38.5t-36.5 -103.5v-319h-93v539zM301 -200h-49v120h97v-85q0 -73 -29.5 -116.5t-87.5 -57.5v41q63 17 69 98z" />
    <glyph glyph-name="Ncaron" unicode="&#x147;" horiz-adv-x="738" 
d="M83 745h82l391 -550v550h99v-745h-82l-392 558v-558h-98v745zM207 991h86l76 -94l78 94h85l-116 -144h-95z" />
    <glyph glyph-name="ncaron" unicode="&#x148;" 
d="M72 539h91v-66q24 38 64 58t90 20q57 0 103 -26.5t72.5 -72.5t26.5 -103v-349h-94v319q0 66 -35.5 104t-93.5 38t-94.5 -38.5t-36.5 -103.5v-319h-93v539zM128 784h86l76 -94l78 94h85l-116 -144h-95z" />
    <glyph glyph-name="Eng" unicode="&#x14a;" horiz-adv-x="738" 
d="M426 -216v87q21 -3 40 -3q43 0 67.5 22t24.5 67v63l-377 537v-557h-98v745h82l391 -551v551h99v-788q0 -84 -52 -131t-133 -47q-26 0 -44 5z" />
    <glyph glyph-name="eng" unicode="&#x14b;" horiz-adv-x="600" 
d="M280 -216v83q20 -3 40 -3q43 0 69 24t26 69v362q0 66 -35.5 104t-93.5 38t-94.5 -38.5t-36.5 -103.5v-319h-94v539h92v-66q23 37 63 57.5t90 20.5q57 0 103.5 -26.5t73 -72.5t26.5 -103v-392q0 -84 -52 -131t-133 -47q-26 0 -44 5z" />
    <glyph glyph-name="Omacron" unicode="&#x14c;" horiz-adv-x="878" 
d="M247.5 38q-86.5 50 -136.5 138t-50 197t50 197t136.5 137.5t191.5 49.5t191.5 -50t137 -137.5t50.5 -196.5t-50.5 -197t-137 -138t-191.5 -50t-191.5 50zM195 224.5q36 -67.5 100 -106.5t144 -39t144 39t100 106.5t36 148.5t-36 148t-100 106t-144 39t-144 -39t-100 -106
t-36 -148t36 -148.5zM306 946h267v-73h-267v73z" />
    <glyph glyph-name="omacron" unicode="&#x14d;" horiz-adv-x="654" 
d="M187.5 24.5q-63.5 36.5 -100.5 101t-37 144.5q0 79 36.5 143.5t100 101t141.5 36.5q77 0 140.5 -36.5t100 -100.5t36.5 -144q0 -81 -37 -145t-100.5 -100.5t-139.5 -36.5q-77 0 -140.5 36.5zM171.5 172q23.5 -44 65 -69t91.5 -25q49 0 90 25t64.5 69t23.5 98t-23.5 97.5
t-64.5 68.5t-90 25q-50 0 -91.5 -25t-65 -68.5t-23.5 -97.5t23.5 -98zM195 739h267v-73h-267v73z" />
    <glyph glyph-name="Obreve" unicode="&#x14e;" horiz-adv-x="878" 
d="M247.5 38q-86.5 50 -136.5 138t-50 197t50 197t136.5 137.5t191.5 49.5t191.5 -50t137 -137.5t50.5 -196.5t-50.5 -197t-137 -138t-191.5 -50t-191.5 50zM195 224.5q36 -67.5 100 -106.5t144 -39t144 39t100 106.5t36 148.5t-36 148t-100 106t-144 39t-144 -39t-100 -106
t-36 -148t36 -148.5zM366.5 866q-33.5 19 -53 51t-19.5 69h71q0 -30 21.5 -52t52.5 -22t53 22t22 52h70q0 -37 -19.5 -69t-53 -51t-72.5 -19t-72.5 19z" />
    <glyph glyph-name="obreve" unicode="&#x14f;" horiz-adv-x="654" 
d="M187.5 24.5q-63.5 36.5 -100.5 101t-37 144.5q0 79 36.5 143.5t100 101t141.5 36.5q77 0 140.5 -36.5t100 -100.5t36.5 -144q0 -81 -37 -145t-100.5 -100.5t-139.5 -36.5q-77 0 -140.5 36.5zM171.5 172q23.5 -44 65 -69t91.5 -25q49 0 90 25t64.5 69t23.5 98t-23.5 97.5
t-64.5 68.5t-90 25q-50 0 -91.5 -25t-65 -68.5t-23.5 -97.5t23.5 -98zM254.5 659q-33.5 19 -53 51t-19.5 69h71q0 -30 21.5 -52t52.5 -22t53 22t22 52h70q0 -37 -19.5 -69t-53 -51t-72.5 -19t-72.5 19z" />
    <glyph glyph-name="Ohungarumlaut" unicode="&#x150;" horiz-adv-x="878" 
d="M247.5 38q-86.5 50 -136.5 138t-50 197t50 197t136.5 137.5t191.5 49.5t191.5 -50t137 -137.5t50.5 -196.5t-50.5 -197t-137 -138t-191.5 -50t-191.5 50zM195 224.5q36 -67.5 100 -106.5t144 -39t144 39t100 106.5t36 148.5t-36 148t-100 106t-144 39t-144 -39t-100 -106
t-36 -148t36 -148.5zM394 991h99l-92 -144h-80zM549 991h100l-93 -144h-80z" />
    <glyph glyph-name="ohungarumlaut" unicode="&#x151;" horiz-adv-x="654" 
d="M187.5 24.5q-63.5 36.5 -100.5 101t-37 144.5q0 79 36.5 143.5t100 101t141.5 36.5q77 0 140.5 -36.5t100 -100.5t36.5 -144q0 -81 -37 -145t-100.5 -100.5t-139.5 -36.5q-77 0 -140.5 36.5zM171.5 172q23.5 -44 65 -69t91.5 -25q49 0 90 25t64.5 69t23.5 98t-23.5 97.5
t-64.5 68.5t-90 25q-50 0 -91.5 -25t-65 -68.5t-23.5 -97.5t23.5 -98zM283 784h99l-92 -144h-80zM438 784h100l-93 -144h-80z" />
    <glyph glyph-name="OE" unicode="&#x152;" horiz-adv-x="1248" 
d="M247.5 38q-86.5 50 -136.5 138t-50 197t50 197t136.5 137.5t191.5 49.5q85 0 159.5 -34.5t125.5 -96.5v119h485v-90h-386v-236h366v-90h-366v-239h386v-90h-485v119q-51 -62 -125.5 -96.5t-159.5 -34.5q-105 0 -191.5 50zM195 224.5q36 -67.5 100 -106.5t144 -39t144 39
t100 106.5t36 148.5t-36 148t-100 106t-144 39t-144 -39t-100 -106t-36 -148t36 -148.5z" />
    <glyph glyph-name="oe" unicode="&#x153;" horiz-adv-x="1075" 
d="M187.5 24.5q-63.5 36.5 -100.5 101t-37 144.5q0 79 36.5 143.5t100 101t141.5 36.5q71 0 131 -31.5t97 -87.5q35 56 92 87.5t125 31.5q77 0 134.5 -36t88 -95.5t30.5 -127.5q0 -23 -5 -50h-412q2 -51 26 -89t62.5 -59t84.5 -21q98 0 151 89l78 -40q-26 -58 -88 -96
t-142 -38q-71 0 -129.5 32.5t-94.5 88.5q-38 -57 -98.5 -89t-130.5 -32q-77 0 -140.5 36.5zM171.5 172q23.5 -44 65 -69t91.5 -25q49 0 90 25t64.5 69t23.5 98t-23.5 97.5t-64.5 68.5t-90 25q-50 0 -91.5 -25t-65 -68.5t-23.5 -97.5t23.5 -98zM925 322q0 42 -21 75t-55.5 52
t-75.5 19q-61 0 -107 -40t-55 -106h314z" />
    <glyph glyph-name="Racute" unicode="&#x154;" horiz-adv-x="648" 
d="M83 745h263q74 0 130.5 -28t87.5 -80t31 -122q0 -78 -39.5 -133.5t-108.5 -79.5l173 -302h-114l-161 285h-164v-285h-98v745zM349 375q66 0 106.5 38t40.5 102t-40.5 102t-106.5 38h-168v-280h168zM353 991h99l-92 -144h-80z" />
    <glyph glyph-name="racute" unicode="&#x155;" horiz-adv-x="350" 
d="M72 539h91v-64q42 70 143 70h33v-88h-47q-58 0 -92.5 -36t-34.5 -100v-321h-93v539zM238 784h99l-92 -144h-80z" />
    <glyph glyph-name="uni0156" unicode="&#x156;" horiz-adv-x="648" 
d="M83 745h263q74 0 130.5 -28t87.5 -80t31 -122q0 -78 -39.5 -133.5t-108.5 -79.5l173 -302h-114l-161 285h-164v-285h-98v745zM349 375q66 0 106.5 38t40.5 102t-40.5 102t-106.5 38h-168v-280h168zM331 -200h-49v120h97v-85q0 -73 -29.5 -116.5t-87.5 -57.5v41
q63 17 69 98z" />
    <glyph glyph-name="uni0157" unicode="&#x157;" horiz-adv-x="350" 
d="M72 539h91v-64q42 70 143 70h33v-88h-47q-58 0 -92.5 -36t-34.5 -100v-321h-93v539zM129 -200h-49v120h97v-85q0 -73 -29.5 -116.5t-87.5 -57.5v41q63 17 69 98z" />
    <glyph glyph-name="Rcaron" unicode="&#x158;" horiz-adv-x="648" 
d="M83 745h263q74 0 130.5 -28t87.5 -80t31 -122q0 -78 -39.5 -133.5t-108.5 -79.5l173 -302h-114l-161 285h-164v-285h-98v745zM349 375q66 0 106.5 38t40.5 102t-40.5 102t-106.5 38h-168v-280h168zM158 991h86l76 -94l78 94h85l-116 -144h-95z" />
    <glyph glyph-name="rcaron" unicode="&#x159;" horiz-adv-x="350" 
d="M72 539h91v-64q42 70 143 70h33v-88h-47q-58 0 -92.5 -36t-34.5 -100v-321h-93v539zM43 784h86l76 -94l78 94h85l-116 -144h-95z" />
    <glyph glyph-name="Sacute" unicode="&#x15a;" horiz-adv-x="646" 
d="M203 16.5q-60 28.5 -99 76t-54 102.5l90 28q21 -67 78.5 -106t120.5 -39q42 0 75.5 17t52.5 43t19 52q0 41 -28.5 74t-78.5 44l-126 28q-80 17 -126.5 76.5t-46.5 136.5q0 59 30.5 106.5t83.5 74.5t117 27q71 0 126.5 -25t91 -66.5t50.5 -89.5l-89 -32q-22 59 -72.5 91
t-105.5 32q-38 0 -68 -16.5t-47 -42.5t-17 -53q0 -42 30.5 -76.5t76.5 -44.5l114 -26q90 -20 138 -76t48 -134q0 -59 -31 -107t-87.5 -75.5t-129.5 -27.5q-76 0 -136 28.5zM356 991h99l-92 -144h-80z" />
    <glyph glyph-name="sacute" unicode="&#x15b;" horiz-adv-x="511" 
d="M127 26.5q-60 38.5 -86 104.5l75 38q23 -47 63 -74t87 -27q45 0 74 21t29 55q0 33 -26 53.5t-56 24.5l-81 11q-72 18 -108 60t-36 99q0 47 24.5 83t68 56t96.5 20q70 0 125.5 -35t79.5 -97l-74 -38q-20 41 -55.5 65t-78.5 24q-41 0 -66 -20t-25 -52q0 -33 23.5 -52.5
t51.5 -24.5l89 -12q67 -18 104.5 -61.5t37.5 -100.5q0 -46 -25 -82t-70 -56.5t-103 -20.5q-78 0 -138 38.5zM289 784h99l-92 -144h-80z" />
    <glyph glyph-name="Scircumflex" unicode="&#x15c;" horiz-adv-x="646" 
d="M203 16.5q-60 28.5 -99 76t-54 102.5l90 28q21 -67 78.5 -106t120.5 -39q42 0 75.5 17t52.5 43t19 52q0 41 -28.5 74t-78.5 44l-126 28q-80 17 -126.5 76.5t-46.5 136.5q0 59 30.5 106.5t83.5 74.5t117 27q71 0 126.5 -25t91 -66.5t50.5 -89.5l-89 -32q-22 59 -72.5 91
t-105.5 32q-38 0 -68 -16.5t-47 -42.5t-17 -53q0 -42 30.5 -76.5t76.5 -44.5l114 -26q90 -20 138 -76t48 -134q0 -59 -31 -107t-87.5 -75.5t-129.5 -27.5q-76 0 -136 28.5zM275 991h95l116 -144h-85l-78 94l-76 -94h-86z" />
    <glyph glyph-name="scircumflex" unicode="&#x15d;" horiz-adv-x="511" 
d="M127 26.5q-60 38.5 -86 104.5l75 38q23 -47 63 -74t87 -27q45 0 74 21t29 55q0 33 -26 53.5t-56 24.5l-81 11q-72 18 -108 60t-36 99q0 47 24.5 83t68 56t96.5 20q70 0 125.5 -35t79.5 -97l-74 -38q-20 41 -55.5 65t-78.5 24q-41 0 -66 -20t-25 -52q0 -33 23.5 -52.5
t51.5 -24.5l89 -12q67 -18 104.5 -61.5t37.5 -100.5q0 -46 -25 -82t-70 -56.5t-103 -20.5q-78 0 -138 38.5zM207 784h95l116 -144h-85l-78 94l-76 -94h-86z" />
    <glyph glyph-name="Scedilla" unicode="&#x15e;" horiz-adv-x="646" 
d="M290 -226q-22 4 -37 10l12 50q27 -10 60 -10q23 0 36 10t13 27q0 15 -9 23t-26 8q-24 0 -40 -8l-21 9l12 98q-93 14 -156 71t-84 133l90 28q21 -67 78.5 -106t120.5 -39q42 0 75.5 17t52.5 43t19 52q0 41 -28.5 74t-78.5 44l-126 28q-80 17 -126.5 76.5t-46.5 136.5
q0 59 30.5 106.5t83.5 74.5t117 27q71 0 126.5 -25t91 -66.5t50.5 -89.5l-89 -32q-22 59 -72.5 91t-105.5 32q-38 0 -68 -16.5t-47 -42.5t-17 -53q0 -42 30.5 -76.5t76.5 -44.5l114 -26q90 -20 138 -76t48 -134q0 -57 -29 -103.5t-82 -75t-123 -31.5l-5 -50q12 2 19 2
q36 0 59.5 -21t23.5 -55q0 -41 -31.5 -67.5t-87.5 -26.5q-19 0 -41 4z" />
    <glyph glyph-name="scedilla" unicode="&#x15f;" horiz-adv-x="511" 
d="M223 -226q-22 4 -37 10l12 50q27 -10 60 -10q23 0 36 10t13 27q0 15 -9 23t-26 8q-24 0 -40 -8l-21 9l12 98q-64 10 -112 46.5t-70 93.5l75 38q23 -47 63 -74t87 -27q45 0 74 21t29 55q0 33 -26 53.5t-56 24.5l-81 11q-72 18 -108 60t-36 99q0 47 24.5 83t68 56t96.5 20
q70 0 125.5 -35t79.5 -97l-74 -38q-20 41 -55.5 65t-78.5 24q-41 0 -66 -20t-25 -52q0 -33 23.5 -52.5t51.5 -24.5l89 -12q67 -18 104.5 -61.5t37.5 -100.5q0 -65 -48.5 -108.5t-128.5 -49.5l-5 -51q12 2 19 2q36 0 59.5 -21t23.5 -55q0 -41 -31.5 -67.5t-87.5 -26.5
q-19 0 -41 4z" />
    <glyph glyph-name="Scaron" unicode="&#x160;" horiz-adv-x="646" 
d="M203 16.5q-60 28.5 -99 76t-54 102.5l90 28q21 -67 78.5 -106t120.5 -39q42 0 75.5 17t52.5 43t19 52q0 41 -28.5 74t-78.5 44l-126 28q-80 17 -126.5 76.5t-46.5 136.5q0 59 30.5 106.5t83.5 74.5t117 27q71 0 126.5 -25t91 -66.5t50.5 -89.5l-89 -32q-22 59 -72.5 91
t-105.5 32q-38 0 -68 -16.5t-47 -42.5t-17 -53q0 -42 30.5 -76.5t76.5 -44.5l114 -26q90 -20 138 -76t48 -134q0 -59 -31 -107t-87.5 -75.5t-129.5 -27.5q-76 0 -136 28.5zM161 991h86l76 -94l78 94h85l-116 -144h-95z" />
    <glyph glyph-name="scaron" unicode="&#x161;" horiz-adv-x="511" 
d="M127 26.5q-60 38.5 -86 104.5l75 38q23 -47 63 -74t87 -27q45 0 74 21t29 55q0 33 -26 53.5t-56 24.5l-81 11q-72 18 -108 60t-36 99q0 47 24.5 83t68 56t96.5 20q70 0 125.5 -35t79.5 -97l-74 -38q-20 41 -55.5 65t-78.5 24q-41 0 -66 -20t-25 -52q0 -33 23.5 -52.5
t51.5 -24.5l89 -12q67 -18 104.5 -61.5t37.5 -100.5q0 -46 -25 -82t-70 -56.5t-103 -20.5q-78 0 -138 38.5zM93 784h86l76 -94l78 94h85l-116 -144h-95z" />
    <glyph glyph-name="uni0162" unicode="&#x162;" horiz-adv-x="522" 
d="M213 655h-202v90h500v-90h-199v-655h-20l-6 -62q12 2 19 2q36 0 59.5 -21t23.5 -55q0 -41 -31.5 -67.5t-87.5 -26.5q-19 0 -41 4t-37 10l12 50q27 -10 60 -10q23 0 36 10t13 27q0 15 -9 23t-26 8q-24 0 -40 -8l-21 9l13 107h-16v655z" />
    <glyph glyph-name="uni0163" unicode="&#x163;" horiz-adv-x="396" 
d="M250 -226q-22 4 -37 10l12 50q27 -10 60 -10q23 0 36 10t13 27q0 15 -9 23t-26 8q-24 0 -40 -8l-21 9l13 104q-60 11 -92 54.5t-32 114.5v284h-98v89h20q36 0 57 21.5t21 58.5v44h93v-124h121v-89h-121v-281q0 -90 90 -90q19 0 37 3v-83q-20 -4 -34 -4l-5 -57q12 2 19 2
q36 0 59.5 -21t23.5 -55q0 -41 -31.5 -67.5t-87.5 -26.5q-19 0 -41 4z" />
    <glyph glyph-name="Tcaron" unicode="&#x164;" horiz-adv-x="522" 
d="M213 655h-202v90h500v-90h-199v-655h-99v655zM99 991h86l76 -94l78 94h85l-116 -144h-95z" />
    <glyph glyph-name="tcaron" unicode="&#x165;" horiz-adv-x="426" 
d="M169.5 38.5q-42.5 44.5 -42.5 127.5v284h-98v89h20q36 0 57 21.5t21 58.5v44h93v-124h121v-89h-121v-281q0 -90 90 -90q19 0 37 3v-83q-21 -5 -56 -5q-79 0 -121.5 44.5zM301 839h100l-14 -184h-71z" />
    <glyph glyph-name="Tbar" unicode="&#x166;" horiz-adv-x="522" 
d="M213 337h-139v71h139v247h-202v90h500v-90h-199v-247h137v-71h-137v-337h-99v337z" />
    <glyph glyph-name="tbar" unicode="&#x167;" horiz-adv-x="396" 
d="M169.5 38.5q-42.5 44.5 -42.5 127.5v58h-95v89h95v137h-98v89h20q36 0 57 21.5t21 58.5v44h93v-124h121v-89h-121v-137h123v-89h-123v-55q0 -90 90 -90q19 0 37 3v-83q-21 -5 -56 -5q-79 0 -121.5 44.5z" />
    <glyph glyph-name="Utilde" unicode="&#x168;" horiz-adv-x="706" 
d="M210.5 22q-62.5 34 -97.5 94t-35 135v494h99v-492q0 -77 49 -125.5t127 -48.5t127 48.5t49 125.5v492h99v-494q0 -75 -35 -135t-97.5 -94t-142.5 -34t-142.5 34zM378.5 885q-15.5 7 -34.5 21q-14 9 -22 13.5t-19 4.5q-28 0 -33 -42h-63q1 52 24.5 80.5t61.5 28.5
q23 0 38 -7t32 -20q14 -10 22.5 -14.5t19.5 -4.5q14 0 22 11.5t10 29.5h64q-1 -53 -23 -80.5t-60 -27.5q-24 0 -39.5 7z" />
    <glyph glyph-name="utilde" unicode="&#x169;" 
d="M159 15q-46 27 -72 75.5t-26 111.5v337h93v-327q0 -60 36 -97t94 -37t94 38.5t36 103.5v319h94v-539h-91v66q-24 -38 -64 -58t-90 -20q-58 0 -104 27zM315.5 678q-15.5 7 -34.5 21q-14 9 -22 13.5t-19 4.5q-28 0 -33 -42h-63q1 52 24.5 80.5t61.5 28.5q23 0 38 -7t32 -20
q14 -10 22.5 -14.5t19.5 -4.5q14 0 22 11.5t10 29.5h64q-1 -53 -23 -80.5t-60 -27.5q-24 0 -39.5 7z" />
    <glyph glyph-name="Umacron" unicode="&#x16a;" horiz-adv-x="706" 
d="M210.5 22q-62.5 34 -97.5 94t-35 135v494h99v-492q0 -77 49 -125.5t127 -48.5t127 48.5t49 125.5v492h99v-494q0 -75 -35 -135t-97.5 -94t-142.5 -34t-142.5 34zM220 946h267v-73h-267v73z" />
    <glyph glyph-name="umacron" unicode="&#x16b;" 
d="M159 15q-46 27 -72 75.5t-26 111.5v337h93v-327q0 -60 36 -97t94 -37t94 38.5t36 103.5v319h94v-539h-91v66q-24 -38 -64 -58t-90 -20q-58 0 -104 27zM157 739h267v-73h-267v73z" />
    <glyph glyph-name="Ubreve" unicode="&#x16c;" horiz-adv-x="706" 
d="M210.5 22q-62.5 34 -97.5 94t-35 135v494h99v-492q0 -77 49 -125.5t127 -48.5t127 48.5t49 125.5v492h99v-494q0 -75 -35 -135t-97.5 -94t-142.5 -34t-142.5 34zM280.5 866q-33.5 19 -53 51t-19.5 69h71q0 -30 21.5 -52t52.5 -22t53 22t22 52h70q0 -37 -19.5 -69t-53 -51
t-72.5 -19t-72.5 19z" />
    <glyph glyph-name="ubreve" unicode="&#x16d;" 
d="M159 15q-46 27 -72 75.5t-26 111.5v337h93v-327q0 -60 36 -97t94 -37t94 38.5t36 103.5v319h94v-539h-91v66q-24 -38 -64 -58t-90 -20q-58 0 -104 27zM217.5 659q-33.5 19 -53 51t-19.5 69h71q0 -30 21.5 -52t52.5 -22t53 22t22 52h70q0 -37 -19.5 -69t-53 -51t-72.5 -19
t-72.5 19z" />
    <glyph glyph-name="Uring" unicode="&#x16e;" horiz-adv-x="706" 
d="M210.5 22q-62.5 34 -97.5 94t-35 135v494h99v-492q0 -77 49 -125.5t127 -48.5t127 48.5t49 125.5v492h99v-494q0 -75 -35 -135t-97.5 -94t-142.5 -34t-142.5 34zM265.5 830q-35.5 35 -35.5 86q0 52 35.5 87t87.5 35t87 -35t35 -87q0 -51 -35 -86t-87 -35t-87.5 35z
M308 871.5q18 -17.5 44 -17.5t44 17.5t18 44.5t-18 45t-44 18t-44 -17.5t-18 -45.5q0 -27 18 -44.5z" />
    <glyph glyph-name="uring" unicode="&#x16f;" 
d="M159 15q-46 27 -72 75.5t-26 111.5v337h93v-327q0 -60 36 -97t94 -37t94 38.5t36 103.5v319h94v-539h-91v66q-24 -38 -64 -58t-90 -20q-58 0 -104 27zM203.5 623q-35.5 35 -35.5 86q0 52 35.5 87t87.5 35t87 -35t35 -87q0 -51 -35 -86t-87 -35t-87.5 35zM246 664.5
q18 -17.5 44 -17.5t44 17.5t18 44.5t-18 45t-44 18t-44 -17.5t-18 -45.5q0 -27 18 -44.5z" />
    <glyph glyph-name="Uhungarumlaut" unicode="&#x170;" horiz-adv-x="706" 
d="M210.5 22q-62.5 34 -97.5 94t-35 135v494h99v-492q0 -77 49 -125.5t127 -48.5t127 48.5t49 125.5v492h99v-494q0 -75 -35 -135t-97.5 -94t-142.5 -34t-142.5 34zM308 991h99l-92 -144h-80zM463 991h100l-93 -144h-80z" />
    <glyph glyph-name="uhungarumlaut" unicode="&#x171;" 
d="M159 15q-46 27 -72 75.5t-26 111.5v337h93v-327q0 -60 36 -97t94 -37t94 38.5t36 103.5v319h94v-539h-91v66q-24 -38 -64 -58t-90 -20q-58 0 -104 27zM246 784h99l-92 -144h-80zM401 784h100l-93 -144h-80z" />
    <glyph glyph-name="Uogonek" unicode="&#x172;" horiz-adv-x="706" 
d="M297 -155.5q-32 25.5 -32 67.5q0 46 37 80q-67 10 -117.5 45.5t-78.5 91t-28 122.5v494h99v-492q0 -77 49 -125.5t127 -48.5t127 48.5t49 125.5v492h99v-494q0 -73 -32.5 -131.5t-91.5 -93t-135 -38.5q-37 -26 -37 -60q0 -22 14.5 -34.5t39.5 -12.5q36 0 76 28l30 -48
q-50 -42 -113 -42q-50 0 -82 25.5z" />
    <glyph glyph-name="uogonek" unicode="&#x173;" 
d="M159 15q-46 27 -72 75.5t-26 111.5v337h93v-327q0 -60 36 -97t94 -37t94 38.5t36 103.5v319h94v-539h-50q-46 -29 -46 -66q0 -22 14.5 -34.5t39.5 -12.5q36 0 76 28l30 -48q-50 -42 -113 -42q-50 0 -82 25.5t-32 67.5q0 32 18.5 59t53.5 45v44q-24 -38 -64 -58t-90 -20
q-58 0 -104 27z" />
    <glyph glyph-name="Wcircumflex" unicode="&#x174;" horiz-adv-x="996" 
d="M11 745h103l163 -612l170 612h103l168 -610l164 610h103l-209 -745h-109l-169 606l-169 -606h-109zM450 991h95l116 -144h-85l-78 94l-76 -94h-86z" />
    <glyph glyph-name="wcircumflex" unicode="&#x175;" horiz-adv-x="826" 
d="M11 539h103l129 -395l126 395h88l126 -395l130 395h102l-185 -539h-89l-128 406l-128 -406h-89zM365 784h95l116 -144h-85l-78 94l-76 -94h-86z" />
    <glyph glyph-name="Ycircumflex" unicode="&#x176;" horiz-adv-x="635" 
d="M269 341l-258 404h111l196 -308l195 308h111l-256 -404v-341h-99v341zM270 991h95l116 -144h-85l-78 94l-76 -94h-86z" />
    <glyph glyph-name="ycircumflex" unicode="&#x177;" horiz-adv-x="553" 
d="M228 784h95l116 -144h-85l-78 94l-76 -94h-86z" />
    <glyph glyph-name="Ydieresis" unicode="&#x178;" horiz-adv-x="635" 
d="M269 341l-258 404h111l196 -308l195 308h111l-256 -404v-341h-99v341zM187 880.5q-18 18.5 -18 44.5t18 44t45 18q26 0 44 -18t18 -44q0 -27 -18 -45t-44 -18q-27 0 -45 18.5zM362 969q18 18 45 18q26 0 44 -18t18 -44q0 -27 -18 -45t-44 -18q-27 0 -45 18.5t-18 44.5
t18 44z" />
    <glyph glyph-name="Zacute" unicode="&#x179;" 
d="M19 72l405 583h-381v90h508v-72l-403 -583h413v-90h-542v72zM323 991h99l-92 -144h-80z" />
    <glyph glyph-name="zacute" unicode="&#x17a;" horiz-adv-x="460" 
d="M19 79l294 371h-278v89h404v-79l-291 -371h293v-89h-422v79zM260 784h99l-92 -144h-80z" />
    <glyph glyph-name="Zdotaccent" unicode="&#x17b;" 
d="M19 72l405 583h-381v90h508v-72l-403 -583h413v-90h-542v72zM246 880.5q-18 18.5 -18 44.5t18 44t45 18q26 0 44 -18t18 -44q0 -27 -18 -45t-44 -18q-27 0 -45 18.5z" />
    <glyph glyph-name="zdotaccent" unicode="&#x17c;" horiz-adv-x="460" 
d="M19 79l294 371h-278v89h404v-79l-291 -371h293v-89h-422v79zM183 673.5q-18 18.5 -18 44.5t18 44t45 18q26 0 44 -18t18 -44q0 -27 -18 -45t-44 -18q-27 0 -45 18.5z" />
    <glyph glyph-name="Zcaron" unicode="&#x17d;" 
d="M19 72l405 583h-381v90h508v-72l-403 -583h413v-90h-542v72zM128 991h86l76 -94l78 94h85l-116 -144h-95z" />
    <glyph glyph-name="zcaron" unicode="&#x17e;" horiz-adv-x="460" 
d="M19 79l294 371h-278v89h404v-79l-291 -371h293v-89h-422v79zM65 784h86l76 -94l78 94h85l-116 -144h-95z" />
    <glyph glyph-name="uni018F" unicode="&#x18f;" horiz-adv-x="826" 
d="M229 34q-79 46 -123.5 126.5t-44.5 180.5q0 32 6 63h599q-5 74 -41.5 134t-97.5 94t-136 34t-134 -34t-91 -94l-85 43q38 79 122.5 127.5t188.5 48.5q106 0 191.5 -51t134 -139.5t48.5 -197.5q0 -104 -44.5 -191.5t-126 -138.5t-187.5 -51q-100 0 -179 46zM200 194
q31 -54 86.5 -84.5t125.5 -30.5q66 0 120.5 29t89 83t43.5 127h-496v-3q0 -67 31 -121z" />
    <glyph glyph-name="florin" unicode="&#x192;" horiz-adv-x="515" 
d="M70 -7v83q15 -3 35 -3q106 0 106 108v151h-128v81h128v154q0 91 53 140.5t135 49.5q26 0 46 -5v-83q-15 3 -35 3q-50 0 -78 -25t-28 -83v-151h128v-81h-128v-154q0 -91 -53 -140.5t-135 -49.5q-26 0 -46 5z" />
    <glyph glyph-name="Ohorn" unicode="&#x1a0;" horiz-adv-x="878" 
d="M247.5 38q-86.5 50 -136.5 138t-50 197t50 197t136.5 137.5t191.5 49.5h210q49 0 49 51q0 31 -22 79h100q25 -46 25 -88q0 -59 -33 -89.5t-91 -33.5q66 -52 103.5 -131t37.5 -172q0 -109 -50.5 -197t-137 -138t-191.5 -50t-191.5 50zM195 224.5q36 -67.5 100 -106.5
t144 -39t144 39t100 106.5t36 148.5t-36 148t-100 106t-144 39t-144 -39t-100 -106t-36 -148t36 -148.5z" />
    <glyph glyph-name="ohorn" unicode="&#x1a1;" horiz-adv-x="654" 
d="M187.5 24.5q-63.5 36.5 -100.5 101t-37 144.5q0 79 36.5 143.5t100 101t141.5 36.5h110q22 0 36 10.5t14 41.5q0 18 -5.5 36t-15.5 43h87q12 -27 17.5 -46t5.5 -42q0 -42 -18.5 -68.5t-51.5 -38.5q46 -38 72 -94t26 -123q0 -81 -37 -145t-100.5 -100.5t-139.5 -36.5
q-77 0 -140.5 36.5zM171.5 172q23.5 -44 65 -69t91.5 -25q49 0 90 25t64.5 69t23.5 98t-23.5 97.5t-64.5 68.5t-90 25q-50 0 -91.5 -25t-65 -68.5t-23.5 -97.5t23.5 -98z" />
    <glyph glyph-name="Uhorn" unicode="&#x1af;" horiz-adv-x="706" 
d="M210.5 22q-62.5 34 -97.5 94t-35 135v494h99v-492q0 -77 49 -125.5t127 -48.5t127 48.5t49 125.5v492h87q21 0 35.5 10t14.5 41q0 33 -23 79h101q24 -45 24 -88q0 -62 -36 -92.5t-99 -30.5h-5v-413q0 -75 -35 -135t-97.5 -94t-142.5 -34t-142.5 34z" />
    <glyph glyph-name="uhorn" unicode="&#x1b0;" horiz-adv-x="617" 
d="M159 15q-46 27 -72 75.5t-26 111.5v337h93v-327q0 -60 36 -97t94 -37t94 38.5t36 103.5v319h55q50 0 50 52q0 30 -22 79h87q11 -25 17 -45t6 -43q0 -50 -26.5 -79t-72.5 -34v-469h-91v66q-24 -38 -64 -58t-90 -20q-58 0 -104 27z" />
    <glyph glyph-name="uni01C4" unicode="&#x1c4;" horiz-adv-x="1321" 
d="M83 745h244q112 0 196.5 -46t130.5 -130.5t46 -195.5t-46 -195.5t-130.5 -131t-196.5 -46.5h-244v745zM328 90q82 0 143 34.5t94 98.5t33 150t-33 149.5t-94.5 98t-142.5 34.5h-147v-565h147zM761 72l404 583h-381v90h509v-72l-404 -583h413v-90h-541v72zM955 991l76 -95
l78 95h85l-116 -144h-95l-114 144h86z" />
    <glyph glyph-name="uni01C5" unicode="&#x1c5;" horiz-adv-x="1201" 
d="M83 745h244q112 0 196.5 -46t130.5 -130.5t46 -195.5t-46 -195.5t-130.5 -131t-196.5 -46.5h-244v745zM328 90q82 0 143 34.5t94 98.5t33 150t-33 149.5t-94.5 98t-142.5 34.5h-147v-565h147zM761 79l293 371h-277v89h403v-79l-291 -371h293v-89h-421v79zM892 784l76 -94
l78 94h85l-116 -144h-95l-114 144h86z" />
    <glyph glyph-name="uni01C6" unicode="&#x1c6;" horiz-adv-x="1128" 
d="M181 25q-61 37 -96 101t-35 143t35 143.5t96 101.5t136 37q59 0 106.5 -22t79.5 -62v278h94v-745h-91v79q-30 -43 -79.5 -67t-109.5 -24q-75 0 -136 37zM171 171.5q23 -43.5 63.5 -68.5t90.5 -25t90.5 25t64 68.5t23.5 97.5t-23.5 98t-64 69t-90.5 25t-90.5 -25
t-63.5 -69t-23 -98t23 -97.5zM688 79l294 371h-278v89h403v-79l-291 -371h293v-89h-421v79zM819 784l76 -95l78 95h85l-116 -144h-94l-115 144h86z" />
    <glyph glyph-name="uni01C7" unicode="&#x1c7;" horiz-adv-x="1125" 
d="M83 745h98v-655h327v-90h-425v745zM659 37.5q-65 49.5 -84 132.5l91 26q17 -55 56.5 -86t94.5 -31q59 0 93 35.5t34 93.5v537h99v-537q0 -63 -27.5 -113t-79 -78.5t-120.5 -28.5q-92 0 -157 49.5z" />
    <glyph glyph-name="uni01C8" unicode="&#x1c8;" horiz-adv-x="772" 
d="M83 745h98v-655h327v-90h-425v745zM471 -216v83q21 -3 40 -3q43 0 69.5 24t26.5 69v582h93v-582q0 -84 -52 -131t-133 -47q-26 0 -44 5zM612 725q16 16 42 16t42 -16t16 -42t-16 -42t-42 -16t-42 16t-16 42t16 42z" />
    <glyph glyph-name="uni01C9" unicode="&#x1c9;" horiz-adv-x="474" 
d="M72 757h93v-757h-93v757zM173 -216v83q21 -3 40 -3q43 0 69.5 24t26.5 69v582h93v-582q0 -84 -52 -131t-133 -47q-26 0 -44 5zM314 725q16 16 42 16t42 -16t16 -42t-16 -42t-42 -16t-42 16t-16 42t16 42z" />
    <glyph glyph-name="uni01CA" unicode="&#x1ca;" horiz-adv-x="1124" 
d="M83 745h82l391 -550v550h99v-745h-82l-392 558v-558h-98v745zM788 95h41q53 0 84 31.5t31 85.5v533h99v-531q0 -98 -58 -156t-156 -58h-41v95z" />
    <glyph glyph-name="uni01CB" unicode="&#x1cb;" horiz-adv-x="974" 
d="M83 745h82l391 -550v550h99v-745h-82l-392 558v-558h-98v745zM674 -216v83q21 -3 40 -3q43 0 69.5 24t26.5 69v582h93v-582q0 -84 -52 -131t-133 -47q-26 0 -44 5zM815 725q16 16 42 16t42 -16t16 -42t-16 -42t-42 -16t-42 16t-16 42t16 42z" />
    <glyph glyph-name="uni01CC" unicode="&#x1cc;" horiz-adv-x="816" 
d="M72 539h91v-66q24 38 64 58t90 20q57 0 103 -26.5t72.5 -72.5t26.5 -103v-349h-94v319q0 66 -35.5 104t-93.5 38t-94.5 -38.5t-36.5 -103.5v-319h-93v539zM516 -216v83q21 -3 40 -3q43 0 69.5 24t26.5 69v582h93v-582q0 -84 -52 -131t-133 -47q-26 0 -44 5zM657 725
q16 16 42 16t42 -16t16 -42t-16 -42t-42 -16t-42 16t-16 42t16 42z" />
    <glyph glyph-name="Gcaron" unicode="&#x1e6;" horiz-adv-x="817" 
d="M239.5 37.5q-83.5 49.5 -131 137t-47.5 197.5t47 198t130.5 137.5t187.5 49.5q74 0 136 -26.5t105 -69.5t62 -93l-88 -43q-26 66 -82 103.5t-133 37.5q-78 0 -138.5 -37t-94.5 -104t-34 -153t34 -152.5t95 -103.5t139 -37q67 0 122.5 29t87.5 80.5t32 117.5v4h-243v85
h342v-66q0 -101 -46 -178.5t-124 -120t-171 -42.5q-104 0 -187.5 49.5zM247 991h86l76 -94l78 94h85l-116 -144h-95z" />
    <glyph glyph-name="gcaron" unicode="&#x1e7;" horiz-adv-x="659" 
d="M179.5 -181.5q-64.5 38.5 -91.5 102.5l87 40q15 -40 55 -65.5t98 -25.5q71 0 118 40.5t47 112.5v75q-30 -41 -77 -63t-102 -22q-75 0 -135 35.5t-94.5 97t-34.5 136.5t34 136.5t94 97t135 35.5q56 0 103 -22.5t80 -64.5v75h91v-516q0 -70 -33 -125t-92 -86.5t-133 -31.5
q-85 0 -149.5 38.5zM170.5 192q22.5 -41 62.5 -65t89 -24q47 0 86.5 24t62 65t22.5 90t-22.5 90t-62 65t-86.5 24q-49 0 -88.5 -24t-62.5 -65t-23 -90t22.5 -90zM167 784h86l76 -94l78 94h85l-116 -144h-95z" />
    <glyph glyph-name="uni01EA" unicode="&#x1ea;" horiz-adv-x="878" 
d="M583 118q64 39 100 106.5t36 148.5t-36 148t-100 106t-144 39t-144 -39t-100 -106t-36 -148t36 -148.5t100 -106.5t144 -39t144 39zM111 570q50 88 136.5 137.5t191.5 49.5t191.5 -50t137 -137.5t50.5 -196.5q0 -104 -45.5 -189t-125.5 -136.5t-178 -58.5
q-38 -26 -38 -61q0 -22 14.5 -34.5t39.5 -12.5q36 0 76 28l30 -48q-50 -42 -113 -42q-50 0 -82 25.5t-32 67.5q0 45 35 78q-96 9 -173 61t-121 136t-44 186q0 109 50 197z" />
    <glyph glyph-name="uni01EB" unicode="&#x1eb;" horiz-adv-x="654" 
d="M323 -12q-29 -25 -29 -54q0 -22 14.5 -34.5t39.5 -12.5q36 0 76 28l30 -48q-50 -42 -113 -42q-50 0 -82 25.5t-32 67.5q0 45 35 78q-61 14 -109.5 52.5t-75.5 96t-27 125.5q0 79 36.5 143.5t100 101t141.5 36.5q77 0 140.5 -36.5t100 -100.5t36.5 -144q0 -81 -37 -145
t-100.5 -100.5t-139.5 -36.5h-5zM171.5 172q23.5 -44 65 -69t91.5 -25q49 0 90 25t64.5 69t23.5 98t-23.5 97.5t-64.5 68.5t-90 25q-50 0 -91.5 -25t-65 -68.5t-23.5 -97.5t23.5 -98z" />
    <glyph glyph-name="Aringacute" unicode="&#x1fa;" horiz-adv-x="672" 
d="M278 745h116l267 -745h-105l-61 175h-318l-61 -175h-105zM464 265l-128 369l-128 -369h256zM248.5 830q-35.5 35 -35.5 86q0 52 35.5 87t87.5 35t87 -35t35 -87q0 -51 -35 -86t-87 -35t-87.5 35zM291 871.5q18 -17.5 44 -17.5t44 17.5t18 44.5t-18 45t-44 18t-44 -17.5
t-18 -45.5q0 -27 18 -44.5zM341 1154h96l-60 -94h-83z" />
    <glyph glyph-name="aringacute" unicode="&#x1fb;" horiz-adv-x="575" 
d="M100 30.5q-50 42.5 -50 110.5q0 66 43.5 110.5t132.5 59.5l184 30v25q0 44 -33 71.5t-85 27.5q-46 0 -81.5 -23.5t-52.5 -62.5l-81 42q23 56 84 93t133 37q61 0 108.5 -23.5t74 -65.5t26.5 -96v-366h-91v70q-29 -38 -76.5 -60t-105.5 -22q-80 0 -130 42.5zM174.5 89
q26.5 -22 66.5 -22q49 0 87.5 21.5t60 58.5t21.5 82v34l-163 -27q-99 -17 -99 -92q0 -33 26.5 -55zM200.5 623q-35.5 35 -35.5 86q0 52 35.5 87t87.5 35t87 -35t35 -87q0 -51 -35 -86t-87 -35t-87.5 35zM243 664.5q18 -17.5 44 -17.5t44 17.5t18 44.5t-18 45t-44 18
t-44 -17.5t-18 -45.5q0 -27 18 -44.5zM293 947h96l-60 -94h-83z" />
    <glyph glyph-name="AEacute" unicode="&#x1fc;" horiz-adv-x="987" 
d="M278 745h671v-90h-387v-236h367v-90h-367v-239h387l-1 -90h-485v175h-286l-61 -175h-105zM463 265v390h-119l-136 -390h255zM527 991h99l-92 -144h-80z" />
    <glyph glyph-name="aeacute" unicode="&#x1fd;" horiz-adv-x="978" 
d="M100 30.5q-50 42.5 -50 110.5q0 66 43.5 110.5t132.5 59.5l184 30v25q0 44 -33 71.5t-85 27.5q-46 0 -81.5 -23.5t-52.5 -62.5l-81 42q23 56 84 93t133 37q62 0 110 -24.5t74 -67.5q36 43 87 67.5t110 24.5q77 0 134.5 -36t88 -95.5t30.5 -127.5q0 -30 -5 -50h-412
q2 -51 26 -89t63 -59t84 -21q99 0 152 89l78 -40q-26 -58 -87 -96t-138 -38q-57 0 -105.5 20.5t-84.5 60.5v-69h-87v70q-29 -38 -76.5 -60t-105.5 -22q-80 0 -130 42.5zM174.5 89q26.5 -22 66.5 -22q49 0 87.5 21.5t60 58.5t21.5 82v34l-163 -27q-99 -17 -99 -92
q0 -33 26.5 -55zM828 322q-1 42 -21.5 75t-55.5 52t-76 19q-61 0 -107 -40t-54 -106h314zM522 784h99l-92 -144h-80z" />
    <glyph glyph-name="Oslashacute" unicode="&#x1fe;" horiz-adv-x="878" 
d="M226 51l-42 -51h-108l87 105q-48 52 -75 120.5t-27 147.5q0 109 50 197t136.5 137.5t191.5 49.5q117 0 213 -63l42 51h108l-87 -104q49 -52 76 -120.5t27 -147.5q0 -109 -50.5 -197t-137 -138t-191.5 -50q-117 0 -213 63zM176 267.5q17 -49.5 49 -88.5l367 443
q-68 44 -153 44q-80 0 -144 -39t-100 -106t-36 -148q0 -56 17 -105.5zM439 79q80 0 144 39t100 106.5t36 148.5q0 55 -17 104.5t-49 88.5l-367 -442q67 -45 153 -45zM472 991h99l-92 -144h-80z" />
    <glyph glyph-name="oslashacute" unicode="&#x1ff;" horiz-adv-x="654" 
d="M179 29l-24 -29h-101l66 80q-34 37 -52 86t-18 104q0 79 36.5 143.5t100 101t141.5 36.5q82 0 148 -41l24 29h101l-65 -79q33 -37 51 -86t18 -104q0 -81 -37 -145t-100.5 -100.5t-139.5 -36.5q-81 0 -149 41zM182 155l234 282q-39 24 -88 24q-50 0 -91.5 -25t-65 -68.5
t-23.5 -97.5q0 -65 34 -115zM328 78q49 0 90 25t64.5 69t23.5 98q0 64 -33 114l-234 -282q39 -24 89 -24zM361 784h99l-92 -144h-80z" />
    <glyph glyph-name="uni0200" unicode="&#x200;" horiz-adv-x="672" 
d="M278 745h116l267 -745h-105l-61 175h-318l-61 -175h-105zM464 265l-128 369l-128 -369h256zM281 991h100l73 -144h-80zM225 991l73 -144h-80l-92 144h99z" />
    <glyph glyph-name="uni0201" unicode="&#x201;" horiz-adv-x="575" 
d="M100 30.5q-50 42.5 -50 110.5q0 66 43.5 110.5t132.5 59.5l184 30v25q0 44 -33 71.5t-85 27.5q-46 0 -81.5 -23.5t-52.5 -62.5l-81 42q23 56 84 93t133 37q61 0 108.5 -23.5t74 -65.5t26.5 -96v-366h-91v70q-29 -38 -76.5 -60t-105.5 -22q-80 0 -130 42.5zM174.5 89
q26.5 -22 66.5 -22q49 0 87.5 21.5t60 58.5t21.5 82v34l-163 -27q-99 -17 -99 -92q0 -33 26.5 -55zM232 784h100l73 -144h-80zM176 784l73 -144h-80l-92 144h99z" />
    <glyph glyph-name="uni0202" unicode="&#x202;" horiz-adv-x="672" 
d="M278 745h116l267 -745h-105l-61 175h-318l-61 -175h-105zM464 265l-128 369l-128 -369h256zM210.5 916q19.5 32 53 51t72.5 19t72.5 -19t53 -51t19.5 -69h-70q0 30 -22 52t-53 22t-52.5 -22t-21.5 -52h-71q0 37 19.5 69z" />
    <glyph glyph-name="uni0203" unicode="&#x203;" horiz-adv-x="575" 
d="M100 30.5q-50 42.5 -50 110.5q0 66 43.5 110.5t132.5 59.5l184 30v25q0 44 -33 71.5t-85 27.5q-46 0 -81.5 -23.5t-52.5 -62.5l-81 42q23 56 84 93t133 37q61 0 108.5 -23.5t74 -65.5t26.5 -96v-366h-91v70q-29 -38 -76.5 -60t-105.5 -22q-80 0 -130 42.5zM174.5 89
q26.5 -22 66.5 -22q49 0 87.5 21.5t60 58.5t21.5 82v34l-163 -27q-99 -17 -99 -92q0 -33 26.5 -55zM161.5 709q19.5 32 53 51t72.5 19t72.5 -19t53 -51t19.5 -69h-70q0 30 -22 52t-53 22t-52.5 -22t-21.5 -52h-71q0 37 19.5 69z" />
    <glyph glyph-name="uni0204" unicode="&#x204;" horiz-adv-x="606" 
d="M83 745h485v-90h-387v-236h367v-90h-367v-239h387v-90h-485v745zM270 991h100l73 -144h-80zM214 991l73 -144h-80l-92 144h99z" />
    <glyph glyph-name="uni0205" unicode="&#x205;" horiz-adv-x="614" 
d="M182 25q-62 37 -97 101.5t-35 144.5t34.5 144t94 100t133.5 36q77 0 134.5 -36t88 -95.5t30.5 -127.5q0 -23 -5 -50h-412q2 -51 26 -89t62.5 -59t84.5 -21q98 0 151 89l78 -40q-26 -58 -88 -96t-142 -38q-76 0 -138 37zM464 322q-2 63 -45.5 104.5t-106.5 41.5
q-62 0 -107 -39.5t-55 -106.5h314zM252 784h100l73 -144h-80zM196 784l73 -144h-80l-92 144h99z" />
    <glyph glyph-name="uni0206" unicode="&#x206;" horiz-adv-x="606" 
d="M83 745h485v-90h-387v-236h367v-90h-367v-239h387v-90h-485v745zM199.5 916q19.5 32 53 51t72.5 19t72.5 -19t53 -51t19.5 -69h-70q0 30 -22 52t-53 22t-52.5 -22t-21.5 -52h-71q0 37 19.5 69z" />
    <glyph glyph-name="uni0207" unicode="&#x207;" horiz-adv-x="614" 
d="M182 25q-62 37 -97 101.5t-35 144.5t34.5 144t94 100t133.5 36q77 0 134.5 -36t88 -95.5t30.5 -127.5q0 -23 -5 -50h-412q2 -51 26 -89t62.5 -59t84.5 -21q98 0 151 89l78 -40q-26 -58 -88 -96t-142 -38q-76 0 -138 37zM464 322q-2 63 -45.5 104.5t-106.5 41.5
q-62 0 -107 -39.5t-55 -106.5h314zM181.5 709q19.5 32 53 51t72.5 19t72.5 -19t53 -51t19.5 -69h-70q0 30 -22 52t-53 22t-52.5 -22t-21.5 -52h-71q0 37 19.5 69z" />
    <glyph glyph-name="uni0208" unicode="&#x208;" horiz-adv-x="264" 
d="M83 745h98v-745h-98v745zM77 991h100l73 -144h-80zM21 991l73 -144h-80l-92 144h99z" />
    <glyph glyph-name="uni0209" unicode="&#x209;" horiz-adv-x="209" 
d="M58 539h93v-539h-93v539zM49 784h100l73 -144h-80zM-7 784l73 -144h-80l-92 144h99z" />
    <glyph glyph-name="uni020A" unicode="&#x20a;" horiz-adv-x="264" 
d="M83 745h98v-745h-98v745zM6.5 916q19.5 32 53 51t72.5 19t72.5 -19t53 -51t19.5 -69h-70q0 30 -22 52t-53 22t-52.5 -22t-21.5 -52h-71q0 37 19.5 69z" />
    <glyph glyph-name="uni020B" unicode="&#x20b;" horiz-adv-x="209" 
d="M58 539h93v-539h-93v539zM-21.5 709q19.5 32 53 51t72.5 19t72.5 -19t53 -51t19.5 -69h-70q0 30 -22 52t-53 22t-52.5 -22t-21.5 -52h-71q0 37 19.5 69z" />
    <glyph glyph-name="uni020C" unicode="&#x20c;" horiz-adv-x="878" 
d="M247.5 38q-86.5 50 -136.5 138t-50 197t50 197t136.5 137.5t191.5 49.5t191.5 -50t137 -137.5t50.5 -196.5t-50.5 -197t-137 -138t-191.5 -50t-191.5 50zM195 224.5q36 -67.5 100 -106.5t144 -39t144 39t100 106.5t36 148.5t-36 148t-100 106t-144 39t-144 -39t-100 -106
t-36 -148t36 -148.5zM384 991h100l73 -144h-80zM328 991l73 -144h-80l-92 144h99z" />
    <glyph glyph-name="uni020D" unicode="&#x20d;" horiz-adv-x="654" 
d="M187.5 24.5q-63.5 36.5 -100.5 101t-37 144.5q0 79 36.5 143.5t100 101t141.5 36.5q77 0 140.5 -36.5t100 -100.5t36.5 -144q0 -81 -37 -145t-100.5 -100.5t-139.5 -36.5q-77 0 -140.5 36.5zM171.5 172q23.5 -44 65 -69t91.5 -25q49 0 90 25t64.5 69t23.5 98t-23.5 97.5
t-64.5 68.5t-90 25q-50 0 -91.5 -25t-65 -68.5t-23.5 -97.5t23.5 -98zM272 784h100l73 -144h-80zM216 784l73 -144h-80l-92 144h99z" />
    <glyph glyph-name="uni020E" unicode="&#x20e;" horiz-adv-x="878" 
d="M247.5 38q-86.5 50 -136.5 138t-50 197t50 197t136.5 137.5t191.5 49.5t191.5 -50t137 -137.5t50.5 -196.5t-50.5 -197t-137 -138t-191.5 -50t-191.5 50zM195 224.5q36 -67.5 100 -106.5t144 -39t144 39t100 106.5t36 148.5t-36 148t-100 106t-144 39t-144 -39t-100 -106
t-36 -148t36 -148.5zM313.5 916q19.5 32 53 51t72.5 19t72.5 -19t53 -51t19.5 -69h-70q0 30 -22 52t-53 22t-52.5 -22t-21.5 -52h-71q0 37 19.5 69z" />
    <glyph glyph-name="uni020F" unicode="&#x20f;" horiz-adv-x="654" 
d="M187.5 24.5q-63.5 36.5 -100.5 101t-37 144.5q0 79 36.5 143.5t100 101t141.5 36.5q77 0 140.5 -36.5t100 -100.5t36.5 -144q0 -81 -37 -145t-100.5 -100.5t-139.5 -36.5q-77 0 -140.5 36.5zM171.5 172q23.5 -44 65 -69t91.5 -25q49 0 90 25t64.5 69t23.5 98t-23.5 97.5
t-64.5 68.5t-90 25q-50 0 -91.5 -25t-65 -68.5t-23.5 -97.5t23.5 -98zM201.5 709q19.5 32 53 51t72.5 19t72.5 -19t53 -51t19.5 -69h-70q0 30 -22 52t-53 22t-52.5 -22t-21.5 -52h-71q0 37 19.5 69z" />
    <glyph glyph-name="uni0210" unicode="&#x210;" horiz-adv-x="648" 
d="M83 745h263q74 0 130.5 -28t87.5 -80t31 -122q0 -78 -39.5 -133.5t-108.5 -79.5l173 -302h-114l-161 285h-164v-285h-98v745zM349 375q66 0 106.5 38t40.5 102t-40.5 102t-106.5 38h-168v-280h168zM264 991h100l73 -144h-80zM208 991l73 -144h-80l-92 144h99z" />
    <glyph glyph-name="uni0211" unicode="&#x211;" horiz-adv-x="350" 
d="M72 539h91v-64q42 70 143 70h33v-88h-47q-58 0 -92.5 -36t-34.5 -100v-321h-93v539zM150 784h100l73 -144h-80zM94 784l73 -144h-80l-92 144h99z" />
    <glyph glyph-name="uni0212" unicode="&#x212;" horiz-adv-x="648" 
d="M83 745h263q74 0 130.5 -28t87.5 -80t31 -122q0 -78 -39.5 -133.5t-108.5 -79.5l173 -302h-114l-161 285h-164v-285h-98v745zM349 375q66 0 106.5 38t40.5 102t-40.5 102t-106.5 38h-168v-280h168zM194.5 916q19.5 32 53 51t72.5 19t72.5 -19t53 -51t19.5 -69h-70
q0 30 -22 52t-53 22t-52.5 -22t-21.5 -52h-71q0 37 19.5 69z" />
    <glyph glyph-name="uni0213" unicode="&#x213;" horiz-adv-x="350" 
d="M72 539h91v-64q42 70 143 70h33v-88h-47q-58 0 -92.5 -36t-34.5 -100v-321h-93v539zM79.5 709q19.5 32 53 51t72.5 19t72.5 -19t53 -51t19.5 -69h-70q0 30 -22 52t-53 22t-52.5 -22t-21.5 -52h-71q0 37 19.5 69z" />
    <glyph glyph-name="uni0214" unicode="&#x214;" horiz-adv-x="706" 
d="M210.5 22q-62.5 34 -97.5 94t-35 135v494h99v-492q0 -77 49 -125.5t127 -48.5t127 48.5t49 125.5v492h99v-494q0 -75 -35 -135t-97.5 -94t-142.5 -34t-142.5 34zM298 991h100l73 -144h-80zM242 991l73 -144h-80l-92 144h99z" />
    <glyph glyph-name="uni0215" unicode="&#x215;" 
d="M159 15q-46 27 -72 75.5t-26 111.5v337h93v-327q0 -60 36 -97t94 -37t94 38.5t36 103.5v319h94v-539h-91v66q-24 -38 -64 -58t-90 -20q-58 0 -104 27zM235 784h100l73 -144h-80zM179 784l73 -144h-80l-92 144h99z" />
    <glyph glyph-name="uni0216" unicode="&#x216;" horiz-adv-x="706" 
d="M210.5 22q-62.5 34 -97.5 94t-35 135v494h99v-492q0 -77 49 -125.5t127 -48.5t127 48.5t49 125.5v492h99v-494q0 -75 -35 -135t-97.5 -94t-142.5 -34t-142.5 34zM227.5 916q19.5 32 53 51t72.5 19t72.5 -19t53 -51t19.5 -69h-70q0 30 -22 52t-53 22t-52.5 -22t-21.5 -52
h-71q0 37 19.5 69z" />
    <glyph glyph-name="uni0217" unicode="&#x217;" 
d="M159 15q-46 27 -72 75.5t-26 111.5v337h93v-327q0 -60 36 -97t94 -37t94 38.5t36 103.5v319h94v-539h-91v66q-24 -38 -64 -58t-90 -20q-58 0 -104 27zM164.5 709q19.5 32 53 51t72.5 19t72.5 -19t53 -51t19.5 -69h-70q0 30 -22 52t-53 22t-52.5 -22t-21.5 -52h-71
q0 37 19.5 69z" />
    <glyph glyph-name="uni0218" unicode="&#x218;" horiz-adv-x="646" 
d="M203 16.5q-60 28.5 -99 76t-54 102.5l90 28q21 -67 78.5 -106t120.5 -39q42 0 75.5 17t52.5 43t19 52q0 41 -28.5 74t-78.5 44l-126 28q-80 17 -126.5 76.5t-46.5 136.5q0 59 30.5 106.5t83.5 74.5t117 27q71 0 126.5 -25t91 -66.5t50.5 -89.5l-89 -32q-22 59 -72.5 91
t-105.5 32q-38 0 -68 -16.5t-47 -42.5t-17 -53q0 -42 30.5 -76.5t76.5 -44.5l114 -26q90 -20 138 -76t48 -134q0 -59 -31 -107t-87.5 -75.5t-129.5 -27.5q-76 0 -136 28.5zM334 -200h-49v120h97v-85q0 -73 -29.5 -116.5t-87.5 -57.5v41q63 17 69 98z" />
    <glyph glyph-name="uni0219" unicode="&#x219;" horiz-adv-x="511" 
d="M127 26.5q-60 38.5 -86 104.5l75 38q23 -47 63 -74t87 -27q45 0 74 21t29 55q0 33 -26 53.5t-56 24.5l-81 11q-72 18 -108 60t-36 99q0 47 24.5 83t68 56t96.5 20q70 0 125.5 -35t79.5 -97l-74 -38q-20 41 -55.5 65t-78.5 24q-41 0 -66 -20t-25 -52q0 -33 23.5 -52.5
t51.5 -24.5l89 -12q67 -18 104.5 -61.5t37.5 -100.5q0 -46 -25 -82t-70 -56.5t-103 -20.5q-78 0 -138 38.5zM267 -200h-49v120h97v-85q0 -73 -29.5 -116.5t-87.5 -57.5v41q63 17 69 98z" />
    <glyph glyph-name="uni021A" unicode="&#x21a;" horiz-adv-x="522" 
d="M213 655h-202v90h500v-90h-199v-655h-99v655zM272 -200h-49v120h97v-85q0 -73 -29.5 -116.5t-87.5 -57.5v41q63 17 69 98z" />
    <glyph glyph-name="uni021B" unicode="&#x21b;" horiz-adv-x="396" 
d="M169.5 38.5q-42.5 44.5 -42.5 127.5v284h-98v89h20q36 0 57 21.5t21 58.5v44h93v-124h121v-89h-121v-281q0 -90 90 -90q19 0 37 3v-83q-21 -5 -56 -5q-79 0 -121.5 44.5zM294 -200h-49v120h97v-85q0 -73 -29.5 -116.5t-87.5 -57.5v41q63 17 69 98z" />
    <glyph glyph-name="uni022A" unicode="&#x22a;" horiz-adv-x="878" 
d="M247.5 38q-86.5 50 -136.5 138t-50 197t50 197t136.5 137.5t191.5 49.5t191.5 -50t137 -137.5t50.5 -196.5t-50.5 -197t-137 -138t-191.5 -50t-191.5 50zM195 224.5q36 -67.5 100 -106.5t144 -39t144 39t100 106.5t36 148.5t-36 148t-100 106t-144 39t-144 -39t-100 -106
t-36 -148t36 -148.5zM308 880.5q-18 18.5 -18 44.5t18 44t45 18q26 0 44 -18t18 -44q0 -27 -18 -45t-44 -18q-27 0 -45 18.5zM311 1089h259v-72h-259v72zM483 969q18 18 45 18q26 0 44 -18t18 -44q0 -27 -18 -45t-44 -18q-27 0 -45 18.5t-18 44.5t18 44z" />
    <glyph glyph-name="uni022B" unicode="&#x22b;" horiz-adv-x="654" 
d="M187.5 24.5q-63.5 36.5 -100.5 101t-37 144.5q0 79 36.5 143.5t100 101t141.5 36.5q77 0 140.5 -36.5t100 -100.5t36.5 -144q0 -81 -37 -145t-100.5 -100.5t-139.5 -36.5q-77 0 -140.5 36.5zM171.5 172q23.5 -44 65 -69t91.5 -25q49 0 90 25t64.5 69t23.5 98t-23.5 97.5
t-64.5 68.5t-90 25q-50 0 -91.5 -25t-65 -68.5t-23.5 -97.5t23.5 -98zM196 673.5q-18 18.5 -18 44.5t18 44t45 18q26 0 44 -18t18 -44q0 -27 -18 -45t-44 -18q-27 0 -45 18.5zM199 882h259v-72h-259v72zM371 762q18 18 45 18q26 0 44 -18t18 -44q0 -27 -18 -45t-44 -18
q-27 0 -45 18.5t-18 44.5t18 44z" />
    <glyph glyph-name="uni022C" unicode="&#x22c;" horiz-adv-x="878" 
d="M247.5 38q-86.5 50 -136.5 138t-50 197t50 197t136.5 137.5t191.5 49.5t191.5 -50t137 -137.5t50.5 -196.5t-50.5 -197t-137 -138t-191.5 -50t-191.5 50zM195 224.5q36 -67.5 100 -106.5t144 -39t144 39t100 106.5t36 148.5t-36 148t-100 106t-144 39t-144 -39t-100 -106
t-36 -148t36 -148.5zM465.5 885q-15.5 7 -34.5 21q-14 9 -22 13.5t-19 4.5q-28 0 -33 -42h-63q1 52 24.5 80.5t61.5 28.5q23 0 38 -7t32 -20q14 -10 22.5 -14.5t19.5 -4.5q14 0 22 11.5t10 29.5h64q-1 -53 -23 -80.5t-60 -27.5q-24 0 -39.5 7zM311 1114h259v-72h-259v72z
" />
    <glyph glyph-name="uni022D" unicode="&#x22d;" horiz-adv-x="654" 
d="M187.5 24.5q-63.5 36.5 -100.5 101t-37 144.5q0 79 36.5 143.5t100 101t141.5 36.5q77 0 140.5 -36.5t100 -100.5t36.5 -144q0 -81 -37 -145t-100.5 -100.5t-139.5 -36.5q-77 0 -140.5 36.5zM171.5 172q23.5 -44 65 -69t91.5 -25q49 0 90 25t64.5 69t23.5 98t-23.5 97.5
t-64.5 68.5t-90 25q-50 0 -91.5 -25t-65 -68.5t-23.5 -97.5t23.5 -98zM354.5 678q-15.5 7 -34.5 21q-14 9 -22 13.5t-19 4.5q-28 0 -33 -42h-63q1 52 24.5 80.5t61.5 28.5q23 0 38 -7t32 -20q14 -10 22.5 -14.5t19.5 -4.5q14 0 22 11.5t10 29.5h64q-1 -53 -23 -80.5
t-60 -27.5q-24 0 -39.5 7zM200 907h259v-72h-259v72z" />
    <glyph glyph-name="uni0230" unicode="&#x230;" horiz-adv-x="878" 
d="M247.5 38q-86.5 50 -136.5 138t-50 197t50 197t136.5 137.5t191.5 49.5t191.5 -50t137 -137.5t50.5 -196.5t-50.5 -197t-137 -138t-191.5 -50t-191.5 50zM195 224.5q36 -67.5 100 -106.5t144 -39t144 39t100 106.5t36 148.5t-36 148t-100 106t-144 39t-144 -39t-100 -106
t-36 -148t36 -148.5zM310 1089h259v-72h-259v72zM395.5 969q18.5 18 44.5 18t44 -18t18 -44q0 -27 -18 -45t-44 -18t-44.5 18.5t-18.5 44.5t18.5 44z" />
    <glyph glyph-name="uni0231" unicode="&#x231;" horiz-adv-x="654" 
d="M187.5 24.5q-63.5 36.5 -100.5 101t-37 144.5q0 79 36.5 143.5t100 101t141.5 36.5q77 0 140.5 -36.5t100 -100.5t36.5 -144q0 -81 -37 -145t-100.5 -100.5t-139.5 -36.5q-77 0 -140.5 36.5zM171.5 172q23.5 -44 65 -69t91.5 -25q49 0 90 25t64.5 69t23.5 98t-23.5 97.5
t-64.5 68.5t-90 25q-50 0 -91.5 -25t-65 -68.5t-23.5 -97.5t23.5 -98zM198 882h259v-72h-259v72zM283.5 762q18.5 18 44.5 18t44 -18t18 -44q0 -27 -18 -45t-44 -18t-44.5 18.5t-18.5 44.5t18.5 44z" />
    <glyph glyph-name="uni0232" unicode="&#x232;" horiz-adv-x="635" 
d="M269 341l-258 404h111l196 -308l195 308h111l-256 -404v-341h-99v341zM185 946h267v-73h-267v73z" />
    <glyph glyph-name="uni0233" unicode="&#x233;" horiz-adv-x="553" 
d="M143 739h267v-73h-267v73z" />
    <glyph glyph-name="uni0237" unicode="&#x237;" horiz-adv-x="237" 
d="M-64 -216v83q21 -3 40 -3q43 0 69.5 24t26.5 69v582h93v-582q0 -84 -52 -131t-133 -47q-26 0 -44 5z" />
    <glyph glyph-name="uni0259" unicode="&#x259;" horiz-adv-x="614" 
d="M168.5 24q-57.5 36 -88 95.5t-30.5 127.5q0 29 4 50h412q-2 50 -26 88.5t-62.5 59.5t-84.5 21q-51 0 -88.5 -24t-62.5 -65l-78 40q26 58 88 96t142 38q77 0 139 -37t97 -101.5t35 -144.5t-34.5 -144t-94.5 -100t-134 -36q-76 0 -133.5 36zM195.5 112.5
q43.5 -41.5 106.5 -41.5q62 0 107 39.5t55 106.5h-314q2 -63 45.5 -104.5z" />
    <glyph glyph-name="uni02BB" unicode="&#x2bb;" horiz-adv-x="337" 
d="M158 618q22 0 37 -14.5t15 -36.5t-14.5 -37t-37.5 -15q-22 0 -36.5 17.5t-14.5 48.5q0 72 31 117t89 59v-41q-63 -16 -69 -98z" />
    <glyph glyph-name="uni02BC" unicode="&#x2bc;" horiz-adv-x="312" 
d="M110 745h92l-13 -240h-65z" />
    <glyph glyph-name="uni02BE" unicode="&#x2be;" horiz-adv-x="343" 
d="M155 664.5q18 17.5 18 44.5q0 28 -18 45.5t-45 17.5v59q52 0 87.5 -35t35.5 -87q0 -51 -35.5 -86t-87.5 -35v59q27 0 45 17.5z" />
    <glyph glyph-name="uni02BF" unicode="&#x2bf;" horiz-adv-x="343" 
d="M145.5 623q-35.5 35 -35.5 86q0 52 35.5 87t87.5 35v-59q-27 0 -45 -17.5t-18 -45.5q0 -27 18 -44.5t45 -17.5v-59q-52 0 -87.5 35z" />
    <glyph glyph-name="circumflex" unicode="&#x2c6;" horiz-adv-x="544" 
d="M224 784h95l116 -144h-85l-78 94l-76 -94h-86z" />
    <glyph glyph-name="caron" unicode="&#x2c7;" horiz-adv-x="544" 
d="M110 784h86l76 -94l78 94h85l-116 -144h-95z" />
    <glyph glyph-name="uni02C8" unicode="&#x2c8;" horiz-adv-x="312" 
d="M110 745h92v-195h-92v195z" />
    <glyph glyph-name="uni02C9" unicode="&#x2c9;" horiz-adv-x="486" 
d="M110 739h267v-73h-267v73z" />
    <glyph glyph-name="uni02CA" unicode="&#x2ca;" horiz-adv-x="392" 
d="M183 784h99l-92 -144h-80z" />
    <glyph glyph-name="uni02CB" unicode="&#x2cb;" horiz-adv-x="392" 
d="M110 784h99l73 -144h-80z" />
    <glyph glyph-name="uni02CC" unicode="&#x2cc;" horiz-adv-x="312" 
d="M110 0h92v-195h-92v195z" />
    <glyph glyph-name="breve" unicode="&#x2d8;" horiz-adv-x="510" 
d="M182.5 659q-33.5 19 -53 51t-19.5 69h71q0 -30 21.5 -52t52.5 -22t53 22t22 52h70q0 -37 -19.5 -69t-53 -51t-72.5 -19t-72.5 19z" />
    <glyph glyph-name="dotaccent" unicode="&#x2d9;" horiz-adv-x="344" 
d="M128 673.5q-18 18.5 -18 44.5t18 44t45 18q26 0 44 -18t18 -44q0 -27 -18 -45t-44 -18q-27 0 -45 18.5z" />
    <glyph glyph-name="ring" unicode="&#x2da;" horiz-adv-x="465" 
d="M145.5 623q-35.5 35 -35.5 86q0 52 35.5 87t87.5 35t87 -35t35 -87q0 -51 -35 -86t-87 -35t-87.5 35zM188 664.5q18 -17.5 44 -17.5t44 17.5t18 44.5t-18 45t-44 18t-44 -17.5t-18 -45.5q0 -27 18 -44.5z" />
    <glyph glyph-name="ogonek" unicode="&#x2db;" horiz-adv-x="447" 
d="M142 -166.5q-32 25.5 -32 67.5q0 43 32.5 75.5t88.5 47.5h34v-21q-45 -17 -66.5 -39t-21.5 -47q0 -22 14.5 -34.5t39.5 -12.5q36 0 76 28l30 -48q-50 -42 -113 -42q-50 0 -82 25.5z" />
    <glyph glyph-name="tilde" unicode="&#x2dc;" horiz-adv-x="513" 
d="M281.5 648q-15.5 7 -34.5 21q-14 9 -22 13.5t-19 4.5q-28 0 -33 -42h-63q1 52 24.5 80.5t61.5 28.5q23 0 38 -7t32 -20q14 -10 22.5 -14.5t19.5 -4.5q14 0 22 11.5t10 29.5h64q-1 -53 -23 -80.5t-60 -27.5q-24 0 -39.5 7z" />
    <glyph glyph-name="hungarumlaut" unicode="&#x2dd;" horiz-adv-x="547" 
d="M183 784h99l-92 -144h-80zM338 784h100l-93 -144h-80z" />
    <glyph glyph-name="gravecomb" unicode="&#x300;" horiz-adv-x="0" 
d="M110 784h99l73 -144h-80z" />
    <glyph glyph-name="acutecomb" unicode="&#x301;" horiz-adv-x="0" 
d="M183 784h99l-92 -144h-80z" />
    <glyph glyph-name="uni0302" unicode="&#x302;" horiz-adv-x="0" 
d="M224 784h95l116 -144h-85l-78 94l-76 -94h-86z" />
    <glyph glyph-name="tildecomb" unicode="&#x303;" horiz-adv-x="0" 
d="M281.5 648q-15.5 7 -34.5 21q-14 9 -22 13.5t-19 4.5q-28 0 -33 -42h-63q1 52 24.5 80.5t61.5 28.5q23 0 38 -7t32 -20q14 -10 22.5 -14.5t19.5 -4.5q14 0 22 11.5t10 29.5h64q-1 -53 -23 -80.5t-60 -27.5q-24 0 -39.5 7z" />
    <glyph glyph-name="uni0304" unicode="&#x304;" horiz-adv-x="0" 
d="M110 739h267v-73h-267v73z" />
    <glyph glyph-name="uni0306" unicode="&#x306;" horiz-adv-x="0" 
d="M182.5 659q-33.5 19 -53 51t-19.5 69h71q0 -30 21.5 -52t52.5 -22t53 22t22 52h70q0 -37 -19.5 -69t-53 -51t-72.5 -19t-72.5 19z" />
    <glyph glyph-name="uni0307" unicode="&#x307;" horiz-adv-x="0" 
d="M128 673.5q-18 18.5 -18 44.5t18 44t45 18q26 0 44 -18t18 -44q0 -27 -18 -45t-44 -18q-27 0 -45 18.5z" />
    <glyph glyph-name="uni0308" unicode="&#x308;" horiz-adv-x="0" 
d="M128 673.5q-18 18.5 -18 44.5t18 44t45 18q26 0 44 -18t18 -44q0 -27 -18 -45t-44 -18q-27 0 -45 18.5zM303 762q18 18 45 18q26 0 44 -18t18 -44q0 -27 -18 -45t-44 -18q-27 0 -45 18.5t-18 44.5t18 44z" />
    <glyph glyph-name="hookabovecomb" unicode="&#x309;" horiz-adv-x="0" 
d="M209 697q0 22 -15.5 35.5t-45.5 13.5q-20 0 -38 -6v51q23 9 55 9q52 0 84 -25.5t32 -66.5q0 -76 -109 -118l-21 38q58 27 58 69z" />
    <glyph glyph-name="uni030A" unicode="&#x30a;" horiz-adv-x="0" 
d="M145.5 623q-35.5 35 -35.5 86q0 52 35.5 87t87.5 35t87 -35t35 -87q0 -51 -35 -86t-87 -35t-87.5 35zM188 664.5q18 -17.5 44 -17.5t44 17.5t18 44.5t-18 45t-44 18t-44 -17.5t-18 -45.5q0 -27 18 -44.5z" />
    <glyph glyph-name="uni030B" unicode="&#x30b;" horiz-adv-x="0" 
d="M183 784h99l-92 -144h-80zM338 784h100l-93 -144h-80z" />
    <glyph glyph-name="uni030C" unicode="&#x30c;" horiz-adv-x="0" 
d="M110 784h86l76 -94l78 94h85l-116 -144h-95z" />
    <glyph glyph-name="uni030F" unicode="&#x30f;" horiz-adv-x="0" 
d="M265 784h100l73 -144h-80zM209 784l73 -144h-80l-92 144h99z" />
    <glyph glyph-name="uni0311" unicode="&#x311;" horiz-adv-x="0" 
d="M129.5 709q19.5 32 53 51t72.5 19t72.5 -19t53 -51t19.5 -69h-70q0 30 -22 52t-53 22t-52.5 -22t-21.5 -52h-71q0 37 19.5 69z" />
    <glyph glyph-name="uni0312" unicode="&#x312;" horiz-adv-x="0" 
d="M140 751.5q30 42.5 87 55.5v-41q-31 -8 -48.5 -31t-20.5 -57h49v-120h-97v85q0 66 30 108.5z" />
    <glyph glyph-name="uni031B" unicode="&#x31b;" horiz-adv-x="0" 
d="M110 714h10q22 0 36 10.5t14 41.5q0 18 -5.5 36t-15.5 43h87q12 -27 17.5 -46t5.5 -42q0 -57 -33.5 -86t-91.5 -29h-24v72z" />
    <glyph glyph-name="dotbelowcomb" unicode="&#x323;" horiz-adv-x="0" 
d="M128 -187q-18 18 -18 45q0 26 18 44t45 18q26 0 44 -18.5t18 -43.5q0 -27 -18 -45t-44 -18q-27 0 -45 18z" />
    <glyph glyph-name="uni0324" unicode="&#x324;" horiz-adv-x="0" 
d="M128 -187q-18 18 -18 45q0 26 18 44t45 18q26 0 44 -18.5t18 -43.5q0 -27 -18 -45t-44 -18q-27 0 -45 18zM303 -98q18 18 45 18q26 0 44 -18.5t18 -43.5q0 -27 -18 -45t-44 -18q-27 0 -45 18t-18 45q0 26 18 44z" />
    <glyph glyph-name="uni0326" unicode="&#x326;" horiz-adv-x="0" 
d="M179 -200h-49v120h97v-85q0 -73 -29.5 -116.5t-87.5 -57.5v41q63 17 69 98z" />
    <glyph glyph-name="uni0327" unicode="&#x327;" horiz-adv-x="0" 
d="M147 -203q-22 4 -37 10l12 50q27 -10 60 -10q23 0 36 10t13 27q0 15 -9 23t-26 8q-24 0 -40 -8l-21 9l13 107h63l-6 -62q12 2 19 2q36 0 59.5 -21t23.5 -55q0 -41 -31.5 -67.5t-87.5 -26.5q-19 0 -41 4z" />
    <glyph glyph-name="uni0328" unicode="&#x328;" horiz-adv-x="0" 
d="M142 -166.5q-32 25.5 -32 67.5q0 43 32.5 75.5t88.5 47.5h34v-21q-45 -17 -66.5 -39t-21.5 -47q0 -22 14.5 -34.5t39.5 -12.5q36 0 76 28l30 -48q-50 -42 -113 -42q-50 0 -82 25.5z" />
    <glyph glyph-name="uni032E" unicode="&#x32e;" horiz-adv-x="0" 
d="M182.5 -200q-33.5 19 -53 51t-19.5 69h71q0 -30 21.5 -52t52.5 -22t53 22t22 52h70q0 -37 -19.5 -69t-53 -51t-72.5 -19t-72.5 19z" />
    <glyph glyph-name="uni0331" unicode="&#x331;" horiz-adv-x="0" 
d="M110 -100h267v-72h-267v72z" />
    <glyph glyph-name="uni0394" unicode="&#x394;" horiz-adv-x="609" 
d="M11 90l235 655h116l236 -655v-90h-587v90zM493 90l-189 541l-189 -541h378z" />
    <glyph glyph-name="uni03A9" unicode="&#x3a9;" horiz-adv-x="878" 
d="M61 90h134q-63 49 -98.5 122.5t-35.5 160.5q0 109 50 197t136.5 137.5t191.5 49.5t192 -49.5t137 -137.5t50 -197q0 -87 -35.5 -160.5t-98.5 -122.5h134v-90h-299v90q90 26 145 103.5t55 179.5q0 81 -36 148t-100 106t-144 39t-144 -39t-100 -106t-36 -148
q0 -102 55 -179.5t145 -103.5v-90h-298v90z" />
    <glyph glyph-name="pi" unicode="&#x3c0;" horiz-adv-x="658" 
d="M127 450h-98v89h600v-89h-97v-450h-94v450h-217v-450h-94v450z" />
    <glyph glyph-name="uni0E3F" unicode="&#xe3f;" horiz-adv-x="692" 
d="M83 745h216v100h75v-100h22q100 0 158.5 -53t58.5 -142q0 -47 -19.5 -85t-56.5 -64q52 -29 79 -76t27 -104q0 -103 -66 -162t-180 -59h-23v-100h-75v100h-216v745zM299 90v261h-118v-261h118zM299 439v217h-118v-217h118zM401 90q65 0 104 35t39 95q0 59 -39 95t-104 36
h-27v-261h27zM394 439q54 0 87 31t33 81t-32.5 77.5t-87.5 27.5h-20v-217h20z" />
    <glyph glyph-name="uni1E08" unicode="&#x1e08;" horiz-adv-x="779" 
d="M420 -12l-5 -50q12 2 19 2q36 0 59.5 -21t23.5 -55q0 -41 -31.5 -67.5t-87.5 -26.5q-19 0 -41 4t-37 10l12 50q27 -10 60 -10q23 0 36 10t13 27q0 15 -9 23t-26 8q-24 0 -40 -8l-21 9l12 101q-87 15 -154 67.5t-104.5 133t-37.5 177.5q0 110 47 198t130.5 137.5
t187.5 49.5q74 0 136 -26.5t105 -69.5t62 -93l-90 -41q-27 64 -82.5 101.5t-130.5 37.5q-78 0 -138.5 -37t-94.5 -104t-34 -153t34 -152.5t94.5 -103.5t138.5 -37q75 0 130.5 37.5t82.5 101.5l90 -41q-19 -51 -62 -94t-105 -69t-136 -26h-6zM423 991h99l-92 -144h-80z" />
    <glyph glyph-name="uni1E09" unicode="&#x1e09;" horiz-adv-x="603" 
d="M289 -226q-22 4 -37 10l12 50q27 -10 60 -10q23 0 36 10t13 27q0 15 -9 23t-26 8q-24 0 -40 -8l-21 9l12 97q-71 7 -126 45.5t-85.5 99.5t-30.5 135q0 80 35 144t97.5 100.5t142.5 36.5q78 0 142.5 -40.5t91.5 -104.5l-84 -40q-19 43 -59.5 69t-90.5 26q-49 0 -89.5 -25
t-63.5 -68.5t-23 -98.5q0 -54 23.5 -97.5t63.5 -68.5t89 -25q51 0 91 26t59 71l84 -42q-23 -57 -79 -96.5t-125 -46.5l-5 -52q12 2 19 2q36 0 59.5 -21t23.5 -55q0 -41 -31.5 -67.5t-87.5 -26.5q-19 0 -41 4zM355 784h99l-92 -144h-80z" />
    <glyph glyph-name="uni1E0C" unicode="&#x1e0c;" horiz-adv-x="741" 
d="M83 745h244q112 0 196.5 -46t130.5 -130.5t46 -195.5t-46 -195.5t-130.5 -131t-196.5 -46.5h-244v745zM328 90q82 0 143 34.5t94 98.5t33 150t-33 149.5t-94.5 98t-142.5 34.5h-147v-565h147zM336 -187q-18 18 -18 45q0 26 18 44t45 18q26 0 44 -18.5t18 -43.5
q0 -27 -18 -45t-44 -18q-27 0 -45 18z" />
    <glyph glyph-name="uni1E0D" unicode="&#x1e0d;" horiz-adv-x="669" 
d="M181 25q-61 37 -96 101t-35 143t35 143.5t96 101.5t136 37q59 0 106.5 -22t79.5 -62v290h94v-757h-91v79q-30 -43 -79.5 -67t-109.5 -24q-75 0 -136 37zM171 171.5q23 -43.5 63.5 -68.5t90.5 -25t90.5 25t64 68.5t23.5 97.5t-23.5 98t-64 69t-90.5 25t-90.5 -25
t-63.5 -69t-23 -98t23 -97.5zM290 -187q-18 18 -18 45q0 26 18 44t45 18q26 0 44 -18.5t18 -43.5q0 -27 -18 -45t-44 -18q-27 0 -45 18z" />
    <glyph glyph-name="uni1E0E" unicode="&#x1e0e;" horiz-adv-x="741" 
d="M83 745h244q112 0 196.5 -46t130.5 -130.5t46 -195.5t-46 -195.5t-130.5 -131t-196.5 -46.5h-244v745zM328 90q82 0 143 34.5t94 98.5t33 150t-33 149.5t-94.5 98t-142.5 34.5h-147v-565h147zM247 -100h267v-72h-267v72z" />
    <glyph glyph-name="uni1E0F" unicode="&#x1e0f;" horiz-adv-x="669" 
d="M181 25q-61 37 -96 101t-35 143t35 143.5t96 101.5t136 37q59 0 106.5 -22t79.5 -62v290h94v-757h-91v79q-30 -43 -79.5 -67t-109.5 -24q-75 0 -136 37zM171 171.5q23 -43.5 63.5 -68.5t90.5 -25t90.5 25t64 68.5t23.5 97.5t-23.5 98t-64 69t-90.5 25t-90.5 -25
t-63.5 -69t-23 -98t23 -97.5zM202 -100h267v-72h-267v72z" />
    <glyph glyph-name="uni1E14" unicode="&#x1e14;" horiz-adv-x="606" 
d="M83 745h485v-90h-387v-236h367v-90h-367v-239h387v-90h-485v745zM192 946h267v-73h-267v73zM328 1084l46 -94h-83l-60 94h97z" />
    <glyph glyph-name="uni1E15" unicode="&#x1e15;" horiz-adv-x="614" 
d="M182 25q-62 37 -97 101.5t-35 144.5t34.5 144t94 100t133.5 36q77 0 134.5 -36t88 -95.5t30.5 -127.5q0 -23 -5 -50h-412q2 -51 26 -89t62.5 -59t84.5 -21q98 0 151 89l78 -40q-26 -58 -88 -96t-142 -38q-76 0 -138 37zM464 322q-2 63 -45.5 104.5t-106.5 41.5
q-62 0 -107 -39.5t-55 -106.5h314zM175 739h267v-73h-267v73zM311 877l46 -94h-83l-60 94h97z" />
    <glyph glyph-name="uni1E16" unicode="&#x1e16;" horiz-adv-x="606" 
d="M83 745h485v-90h-387v-236h367v-90h-367v-239h387v-90h-485v745zM192 946h267v-73h-267v73zM323 1084h96l-60 -94h-83z" />
    <glyph glyph-name="uni1E17" unicode="&#x1e17;" horiz-adv-x="614" 
d="M182 25q-62 37 -97 101.5t-35 144.5t34.5 144t94 100t133.5 36q77 0 134.5 -36t88 -95.5t30.5 -127.5q0 -23 -5 -50h-412q2 -51 26 -89t62.5 -59t84.5 -21q98 0 151 89l78 -40q-26 -58 -88 -96t-142 -38q-76 0 -138 37zM464 322q-2 63 -45.5 104.5t-106.5 41.5
q-62 0 -107 -39.5t-55 -106.5h314zM175 739h267v-73h-267v73zM306 877h96l-60 -94h-83z" />
    <glyph glyph-name="uni1E1C" unicode="&#x1e1c;" horiz-adv-x="606" 
d="M83 745h485v-90h-387v-236h367v-90h-367v-239h387v-90h-212l-6 -62q12 2 19 2q36 0 59.5 -21t23.5 -55q0 -41 -31.5 -67.5t-87.5 -26.5q-19 0 -41 4t-37 10l12 50q27 -10 60 -10q23 0 36 10t13 27q0 15 -9 23t-26 8q-24 0 -40 -8l-21 9l13 107h-210v745zM251 986
q0 -30 21.5 -52t52.5 -22t53 22t22 52h70q0 -37 -19.5 -69t-53 -51t-72.5 -19t-72.5 19t-53 51t-19.5 69h71z" />
    <glyph glyph-name="uni1E1D" unicode="&#x1e1d;" horiz-adv-x="614" 
d="M275 -226q-22 4 -37 10l12 50q27 -10 60 -10q23 0 36 10t13 27q0 15 -9 23t-26 8q-24 0 -40 -8l-21 9l12 99q-65 10 -116.5 48.5t-80 98.5t-28.5 132q0 80 34.5 144t94 100t133.5 36q77 0 134.5 -36t88 -95.5t30.5 -127.5q0 -23 -5 -50h-412q2 -51 26 -89t62.5 -59
t84.5 -21q98 0 151 89l78 -40q-24 -55 -81 -92t-131 -41l-5 -51q12 2 19 2q36 0 59.5 -21t23.5 -55q0 -41 -31.5 -67.5t-87.5 -26.5q-19 0 -41 4zM464 322q-2 63 -45.5 104.5t-106.5 41.5q-62 0 -107 -39.5t-55 -106.5h314zM233 779q0 -30 21.5 -52t52.5 -22t53 22t22 52h70
q0 -37 -19.5 -69t-53 -51t-72.5 -19t-72.5 19t-53 51t-19.5 69h71z" />
    <glyph glyph-name="uni1E20" unicode="&#x1e20;" horiz-adv-x="817" 
d="M239.5 37.5q-83.5 49.5 -131 137t-47.5 197.5t47 198t130.5 137.5t187.5 49.5q74 0 136 -26.5t105 -69.5t62 -93l-88 -43q-26 66 -82 103.5t-133 37.5q-78 0 -138.5 -37t-94.5 -104t-34 -153t34 -152.5t95 -103.5t139 -37q67 0 122.5 29t87.5 80.5t32 117.5v4h-243v85
h342v-66q0 -101 -46 -178.5t-124 -120t-171 -42.5q-104 0 -187.5 49.5zM276 946h267v-73h-267v73z" />
    <glyph glyph-name="uni1E21" unicode="&#x1e21;" horiz-adv-x="659" 
d="M179.5 -181.5q-64.5 38.5 -91.5 102.5l87 40q15 -40 55 -65.5t98 -25.5q71 0 118 40.5t47 112.5v75q-30 -41 -77 -63t-102 -22q-75 0 -135 35.5t-94.5 97t-34.5 136.5t34 136.5t94 97t135 35.5q56 0 103 -22.5t80 -64.5v75h91v-516q0 -70 -33 -125t-92 -86.5t-133 -31.5
q-85 0 -149.5 38.5zM170.5 192q22.5 -41 62.5 -65t89 -24q47 0 86.5 24t62 65t22.5 90t-22.5 90t-62 65t-86.5 24q-49 0 -88.5 -24t-62.5 -65t-23 -90t22.5 -90zM196 739h267v-73h-267v73z" />
    <glyph glyph-name="uni1E24" unicode="&#x1e24;" horiz-adv-x="735" 
d="M83 745h98v-332h373v332h99v-745h-99v323h-373v-323h-98v745zM323 -187q-18 18 -18 45q0 26 18 44t45 18q26 0 44 -18.5t18 -43.5q0 -27 -18 -45t-44 -18q-27 0 -45 18z" />
    <glyph glyph-name="uni1E25" unicode="&#x1e25;" 
d="M72 757h93v-281q24 36 63.5 55.5t88.5 19.5q57 0 103 -26.5t72.5 -72.5t26.5 -103v-349h-94v319q0 66 -36 104t-93 38t-94 -38.5t-37 -103.5v-319h-93v757zM246 -187q-18 18 -18 45q0 26 18 44t45 18q26 0 44 -18.5t18 -43.5q0 -27 -18 -45t-44 -18q-27 0 -45 18z" />
    <glyph glyph-name="uni1E2A" unicode="&#x1e2a;" horiz-adv-x="735" 
d="M83 745h98v-332h373v332h99v-745h-99v323h-373v-323h-98v745zM294.5 -200q-33.5 19 -53 51t-19.5 69h71q0 -30 21.5 -52t52.5 -22t53 22t22 52h70q0 -37 -19.5 -69t-53 -51t-72.5 -19t-72.5 19z" />
    <glyph glyph-name="uni1E2B" unicode="&#x1e2b;" 
d="M72 757h93v-281q24 36 63.5 55.5t88.5 19.5q57 0 103 -26.5t72.5 -72.5t26.5 -103v-349h-94v319q0 66 -36 104t-93 38t-94 -38.5t-37 -103.5v-319h-93v757zM217.5 -200q-33.5 19 -53 51t-19.5 69h71q0 -30 21.5 -52t52.5 -22t53 22t22 52h70q0 -37 -19.5 -69t-53 -51
t-72.5 -19t-72.5 19z" />
    <glyph glyph-name="uni1E2E" unicode="&#x1e2e;" horiz-adv-x="264" 
d="M83 745h98v-745h-98v745zM175 880.5q-18 18.5 -18 44.5t18 44t45 18q26 0 44 -18t18 -44q0 -27 -18 -45t-44 -18q-27 0 -45 18.5zM0 969q18 18 45 18q26 0 44 -18t18 -44q0 -27 -18 -45t-44 -18q-27 0 -45 18.5t-18 44.5t18 44zM139 1108h89l-58 -91h-77z" />
    <glyph glyph-name="uni1E2F" unicode="&#x1e2f;" horiz-adv-x="209" 
d="M58 539h93v-539h-93v539zM147 673.5q-18 18.5 -18 44.5t18 44t45 18q26 0 44 -18t18 -44q0 -27 -18 -45t-44 -18q-27 0 -45 18.5zM-28 762q18 18 45 18q26 0 44 -18t18 -44q0 -27 -18 -45t-44 -18q-27 0 -45 18.5t-18 44.5t18 44zM111 901h89l-58 -91h-77z" />
    <glyph glyph-name="uni1E36" unicode="&#x1e36;" horiz-adv-x="535" 
d="M83 745h98v-655h327v-90h-425v745zM251 -187q-18 18 -18 45q0 26 18 44t45 18q26 0 44 -18.5t18 -43.5q0 -27 -18 -45t-44 -18q-27 0 -45 18z" />
    <glyph glyph-name="uni1E37" unicode="&#x1e37;" horiz-adv-x="237" 
d="M72 757h93v-757h-93v757zM74 -187q-18 18 -18 45q0 26 18 44t45 18q26 0 44 -18.5t18 -43.5q0 -27 -18 -45t-44 -18q-27 0 -45 18z" />
    <glyph glyph-name="uni1E3A" unicode="&#x1e3a;" horiz-adv-x="535" 
d="M83 745h98v-655h327v-90h-425v745zM162 -100h267v-72h-267v72z" />
    <glyph glyph-name="uni1E3B" unicode="&#x1e3b;" horiz-adv-x="237" 
d="M72 757h93v-757h-93v757zM-14 -100h267v-72h-267v72z" />
    <glyph glyph-name="uni1E42" unicode="&#x1e42;" horiz-adv-x="855" 
d="M83 745h90l256 -364l254 364h90v-745h-99v561l-242 -341h-8l-243 346v-566h-98v745zM383 -187q-18 18 -18 45q0 26 18 44t45 18q26 0 44 -18.5t18 -43.5q0 -27 -18 -45t-44 -18q-27 0 -45 18z" />
    <glyph glyph-name="uni1E43" unicode="&#x1e43;" horiz-adv-x="913" 
d="M72 539h91v-67q23 38 62.5 58.5t87.5 20.5q55 0 100.5 -26.5t69.5 -71.5q26 47 70.5 72.5t98.5 25.5q55 0 101 -26.5t73 -72.5t27 -103v-349h-94v319q0 66 -34.5 104t-89.5 38q-56 0 -91 -38.5t-35 -103.5v-319h-94v319q0 66 -34 104t-90 38q-55 0 -90.5 -38.5
t-35.5 -103.5v-319h-93v539zM412 -187q-18 18 -18 45q0 26 18 44t45 18q26 0 44 -18.5t18 -43.5q0 -27 -18 -45t-44 -18q-27 0 -45 18z" />
    <glyph glyph-name="uni1E44" unicode="&#x1e44;" horiz-adv-x="738" 
d="M83 745h82l391 -550v550h99v-745h-82l-392 558v-558h-98v745zM324 880.5q-18 18.5 -18 44.5t18 44t45 18q26 0 44 -18t18 -44q0 -27 -18 -45t-44 -18q-27 0 -45 18.5z" />
    <glyph glyph-name="uni1E45" unicode="&#x1e45;" 
d="M72 539h91v-66q24 38 64 58t90 20q57 0 103 -26.5t72.5 -72.5t26.5 -103v-349h-94v319q0 66 -35.5 104t-93.5 38t-94.5 -38.5t-36.5 -103.5v-319h-93v539zM246 673.5q-18 18.5 -18 44.5t18 44t45 18q26 0 44 -18t18 -44q0 -27 -18 -45t-44 -18q-27 0 -45 18.5z" />
    <glyph glyph-name="uni1E46" unicode="&#x1e46;" horiz-adv-x="738" 
d="M83 745h82l391 -550v550h99v-745h-82l-392 558v-558h-98v745zM324 -187q-18 18 -18 45q0 26 18 44t45 18q26 0 44 -18.5t18 -43.5q0 -27 -18 -45t-44 -18q-27 0 -45 18z" />
    <glyph glyph-name="uni1E47" unicode="&#x1e47;" 
d="M72 539h91v-66q24 38 64 58t90 20q57 0 103 -26.5t72.5 -72.5t26.5 -103v-349h-94v319q0 66 -35.5 104t-93.5 38t-94.5 -38.5t-36.5 -103.5v-319h-93v539zM246 -187q-18 18 -18 45q0 26 18 44t45 18q26 0 44 -18.5t18 -43.5q0 -27 -18 -45t-44 -18q-27 0 -45 18z" />
    <glyph glyph-name="uni1E48" unicode="&#x1e48;" horiz-adv-x="738" 
d="M83 745h82l391 -550v550h99v-745h-82l-392 558v-558h-98v745zM236 -100h267v-72h-267v72z" />
    <glyph glyph-name="uni1E49" unicode="&#x1e49;" 
d="M72 539h91v-66q24 38 64 58t90 20q57 0 103 -26.5t72.5 -72.5t26.5 -103v-349h-94v319q0 66 -35.5 104t-93.5 38t-94.5 -38.5t-36.5 -103.5v-319h-93v539zM157 -100h267v-72h-267v72z" />
    <glyph glyph-name="uni1E4C" unicode="&#x1e4c;" horiz-adv-x="878" 
d="M247.5 38q-86.5 50 -136.5 138t-50 197t50 197t136.5 137.5t191.5 49.5t191.5 -50t137 -137.5t50.5 -196.5t-50.5 -197t-137 -138t-191.5 -50t-191.5 50zM195 224.5q36 -67.5 100 -106.5t144 -39t144 39t100 106.5t36 148.5t-36 148t-100 106t-144 39t-144 -39t-100 -106
t-36 -148t36 -148.5zM464.5 885q-15.5 7 -34.5 21q-14 9 -22 13.5t-19 4.5q-28 0 -33 -42h-63q1 52 24.5 80.5t61.5 28.5q23 0 38 -7t32 -20q14 -10 22.5 -14.5t19.5 -4.5q14 0 22 11.5t10 29.5h64q-1 -53 -23 -80.5t-60 -27.5q-24 0 -39.5 7zM454 1111h97l-61 -94h-82z" />
    <glyph glyph-name="uni1E4D" unicode="&#x1e4d;" horiz-adv-x="654" 
d="M187.5 24.5q-63.5 36.5 -100.5 101t-37 144.5q0 79 36.5 143.5t100 101t141.5 36.5q77 0 140.5 -36.5t100 -100.5t36.5 -144q0 -81 -37 -145t-100.5 -100.5t-139.5 -36.5q-77 0 -140.5 36.5zM171.5 172q23.5 -44 65 -69t91.5 -25q49 0 90 25t64.5 69t23.5 98t-23.5 97.5
t-64.5 68.5t-90 25q-50 0 -91.5 -25t-65 -68.5t-23.5 -97.5t23.5 -98zM352.5 678q-15.5 7 -34.5 21q-14 9 -22 13.5t-19 4.5q-28 0 -33 -42h-63q1 52 24.5 80.5t61.5 28.5q23 0 38 -7t32 -20q14 -10 22.5 -14.5t19.5 -4.5q14 0 22 11.5t10 29.5h64q-1 -53 -23 -80.5
t-60 -27.5q-24 0 -39.5 7zM342 904h97l-61 -94h-82z" />
    <glyph glyph-name="uni1E4E" unicode="&#x1e4e;" horiz-adv-x="878" 
d="M247.5 38q-86.5 50 -136.5 138t-50 197t50 197t136.5 137.5t191.5 49.5t191.5 -50t137 -137.5t50.5 -196.5t-50.5 -197t-137 -138t-191.5 -50t-191.5 50zM195 224.5q36 -67.5 100 -106.5t144 -39t144 39t100 106.5t36 148.5t-36 148t-100 106t-144 39t-144 -39t-100 -106
t-36 -148t36 -148.5zM463.5 885.5q-16.5 7.5 -33.5 20.5q-2 1 -10.5 7t-16 8.5t-14.5 2.5q-28 0 -33 -42h-64q1 53 25 81t62 28q22 0 36.5 -6.5t33.5 -20.5q15 -11 22.5 -15t18.5 -4q15 0 23 11.5t10 29.5h63q-1 -52 -23 -80t-59 -28q-24 0 -40.5 7.5zM308 1132q18 18 45 18
q26 0 44 -18t18 -44q0 -27 -18 -45t-44 -18q-27 0 -45 18t-18 45q0 26 18 44zM483 1132q18 18 45 18q26 0 44 -18t18 -44q0 -27 -18 -45t-44 -18q-27 0 -45 18t-18 45q0 26 18 44z" />
    <glyph glyph-name="uni1E4F" unicode="&#x1e4f;" horiz-adv-x="654" 
d="M187.5 24.5q-63.5 36.5 -100.5 101t-37 144.5q0 79 36.5 143.5t100 101t141.5 36.5q77 0 140.5 -36.5t100 -100.5t36.5 -144q0 -81 -37 -145t-100.5 -100.5t-139.5 -36.5q-77 0 -140.5 36.5zM171.5 172q23.5 -44 65 -69t91.5 -25q49 0 90 25t64.5 69t23.5 98t-23.5 97.5
t-64.5 68.5t-90 25q-50 0 -91.5 -25t-65 -68.5t-23.5 -97.5t23.5 -98zM351.5 678.5q-16.5 7.5 -33.5 20.5q-2 1 -10.5 7t-16 8.5t-14.5 2.5q-28 0 -33 -42h-64q1 53 25 81t62 28q22 0 36.5 -6.5t33.5 -20.5q15 -11 22.5 -15t18.5 -4q15 0 23 11.5t10 29.5h63q-1 -52 -23 -80
t-59 -28q-24 0 -40.5 7.5zM196 925q18 18 45 18q26 0 44 -18t18 -44q0 -27 -18 -45t-44 -18q-27 0 -45 18t-18 45q0 26 18 44zM371 925q18 18 45 18q26 0 44 -18t18 -44q0 -27 -18 -45t-44 -18q-27 0 -45 18t-18 45q0 26 18 44z" />
    <glyph glyph-name="uni1E50" unicode="&#x1e50;" horiz-adv-x="878" 
d="M247.5 38q-86.5 50 -136.5 138t-50 197t50 197t136.5 137.5t191.5 49.5t191.5 -50t137 -137.5t50.5 -196.5t-50.5 -197t-137 -138t-191.5 -50t-191.5 50zM195 224.5q36 -67.5 100 -106.5t144 -39t144 39t100 106.5t36 148.5t-36 148t-100 106t-144 39t-144 -39t-100 -106
t-36 -148t36 -148.5zM306 946h267v-73h-267v73zM442 1084l46 -94h-83l-60 94h97z" />
    <glyph glyph-name="uni1E51" unicode="&#x1e51;" horiz-adv-x="654" 
d="M187.5 24.5q-63.5 36.5 -100.5 101t-37 144.5q0 79 36.5 143.5t100 101t141.5 36.5q77 0 140.5 -36.5t100 -100.5t36.5 -144q0 -81 -37 -145t-100.5 -100.5t-139.5 -36.5q-77 0 -140.5 36.5zM171.5 172q23.5 -44 65 -69t91.5 -25q49 0 90 25t64.5 69t23.5 98t-23.5 97.5
t-64.5 68.5t-90 25q-50 0 -91.5 -25t-65 -68.5t-23.5 -97.5t23.5 -98zM195 739h267v-73h-267v73zM331 877l46 -94h-83l-60 94h97z" />
    <glyph glyph-name="uni1E52" unicode="&#x1e52;" horiz-adv-x="878" 
d="M247.5 38q-86.5 50 -136.5 138t-50 197t50 197t136.5 137.5t191.5 49.5t191.5 -50t137 -137.5t50.5 -196.5t-50.5 -197t-137 -138t-191.5 -50t-191.5 50zM195 224.5q36 -67.5 100 -106.5t144 -39t144 39t100 106.5t36 148.5t-36 148t-100 106t-144 39t-144 -39t-100 -106
t-36 -148t36 -148.5zM306 946h267v-73h-267v73zM437 1084h96l-60 -94h-83z" />
    <glyph glyph-name="uni1E53" unicode="&#x1e53;" horiz-adv-x="654" 
d="M187.5 24.5q-63.5 36.5 -100.5 101t-37 144.5q0 79 36.5 143.5t100 101t141.5 36.5q77 0 140.5 -36.5t100 -100.5t36.5 -144q0 -81 -37 -145t-100.5 -100.5t-139.5 -36.5q-77 0 -140.5 36.5zM171.5 172q23.5 -44 65 -69t91.5 -25q49 0 90 25t64.5 69t23.5 98t-23.5 97.5
t-64.5 68.5t-90 25q-50 0 -91.5 -25t-65 -68.5t-23.5 -97.5t23.5 -98zM195 739h267v-73h-267v73zM326 877h96l-60 -94h-83z" />
    <glyph glyph-name="uni1E5A" unicode="&#x1e5a;" horiz-adv-x="648" 
d="M83 745h263q74 0 130.5 -28t87.5 -80t31 -122q0 -78 -39.5 -133.5t-108.5 -79.5l173 -302h-114l-161 285h-164v-285h-98v745zM349 375q66 0 106.5 38t40.5 102t-40.5 102t-106.5 38h-168v-280h168zM275 -187q-18 18 -18 45q0 26 18 44t45 18q26 0 44 -18.5t18 -43.5
q0 -27 -18 -45t-44 -18q-27 0 -45 18z" />
    <glyph glyph-name="uni1E5B" unicode="&#x1e5b;" horiz-adv-x="350" 
d="M72 539h91v-64q42 70 143 70h33v-88h-47q-58 0 -92.5 -36t-34.5 -100v-321h-93v539zM74 -187q-18 18 -18 45q0 26 18 44t45 18q26 0 44 -18.5t18 -43.5q0 -27 -18 -45t-44 -18q-27 0 -45 18z" />
    <glyph glyph-name="uni1E5E" unicode="&#x1e5e;" horiz-adv-x="648" 
d="M83 745h263q74 0 130.5 -28t87.5 -80t31 -122q0 -78 -39.5 -133.5t-108.5 -79.5l173 -302h-114l-161 285h-164v-285h-98v745zM349 375q66 0 106.5 38t40.5 102t-40.5 102t-106.5 38h-168v-280h168zM187 -100h267v-72h-267v72z" />
    <glyph glyph-name="uni1E5F" unicode="&#x1e5f;" horiz-adv-x="350" 
d="M72 539h91v-64q42 70 143 70h33v-88h-47q-58 0 -92.5 -36t-34.5 -100v-321h-93v539zM-14 -100h267v-72h-267v72z" />
    <glyph glyph-name="uni1E60" unicode="&#x1e60;" horiz-adv-x="646" 
d="M203 16.5q-60 28.5 -99 76t-54 102.5l90 28q21 -67 78.5 -106t120.5 -39q42 0 75.5 17t52.5 43t19 52q0 41 -28.5 74t-78.5 44l-126 28q-80 17 -126.5 76.5t-46.5 136.5q0 59 30.5 106.5t83.5 74.5t117 27q71 0 126.5 -25t91 -66.5t50.5 -89.5l-89 -32q-22 59 -72.5 91
t-105.5 32q-38 0 -68 -16.5t-47 -42.5t-17 -53q0 -42 30.5 -76.5t76.5 -44.5l114 -26q90 -20 138 -76t48 -134q0 -59 -31 -107t-87.5 -75.5t-129.5 -27.5q-76 0 -136 28.5zM279 880.5q-18 18.5 -18 44.5t18 44t45 18q26 0 44 -18t18 -44q0 -27 -18 -45t-44 -18
q-27 0 -45 18.5z" />
    <glyph glyph-name="uni1E61" unicode="&#x1e61;" horiz-adv-x="511" 
d="M127 26.5q-60 38.5 -86 104.5l75 38q23 -47 63 -74t87 -27q45 0 74 21t29 55q0 33 -26 53.5t-56 24.5l-81 11q-72 18 -108 60t-36 99q0 47 24.5 83t68 56t96.5 20q70 0 125.5 -35t79.5 -97l-74 -38q-20 41 -55.5 65t-78.5 24q-41 0 -66 -20t-25 -52q0 -33 23.5 -52.5
t51.5 -24.5l89 -12q67 -18 104.5 -61.5t37.5 -100.5q0 -46 -25 -82t-70 -56.5t-103 -20.5q-78 0 -138 38.5zM211 673.5q-18 18.5 -18 44.5t18 44t45 18q26 0 44 -18t18 -44q0 -27 -18 -45t-44 -18q-27 0 -45 18.5z" />
    <glyph glyph-name="uni1E62" unicode="&#x1e62;" horiz-adv-x="646" 
d="M203 16.5q-60 28.5 -99 76t-54 102.5l90 28q21 -67 78.5 -106t120.5 -39q42 0 75.5 17t52.5 43t19 52q0 41 -28.5 74t-78.5 44l-126 28q-80 17 -126.5 76.5t-46.5 136.5q0 59 30.5 106.5t83.5 74.5t117 27q71 0 126.5 -25t91 -66.5t50.5 -89.5l-89 -32q-22 59 -72.5 91
t-105.5 32q-38 0 -68 -16.5t-47 -42.5t-17 -53q0 -42 30.5 -76.5t76.5 -44.5l114 -26q90 -20 138 -76t48 -134q0 -59 -31 -107t-87.5 -75.5t-129.5 -27.5q-76 0 -136 28.5zM279 -187q-18 18 -18 45q0 26 18 44t45 18q26 0 44 -18.5t18 -43.5q0 -27 -18 -45t-44 -18
q-27 0 -45 18z" />
    <glyph glyph-name="uni1E63" unicode="&#x1e63;" horiz-adv-x="511" 
d="M127 26.5q-60 38.5 -86 104.5l75 38q23 -47 63 -74t87 -27q45 0 74 21t29 55q0 33 -26 53.5t-56 24.5l-81 11q-72 18 -108 60t-36 99q0 47 24.5 83t68 56t96.5 20q70 0 125.5 -35t79.5 -97l-74 -38q-20 41 -55.5 65t-78.5 24q-41 0 -66 -20t-25 -52q0 -33 23.5 -52.5
t51.5 -24.5l89 -12q67 -18 104.5 -61.5t37.5 -100.5q0 -46 -25 -82t-70 -56.5t-103 -20.5q-78 0 -138 38.5zM211 -187q-18 18 -18 45q0 26 18 44t45 18q26 0 44 -18.5t18 -43.5q0 -27 -18 -45t-44 -18q-27 0 -45 18z" />
    <glyph glyph-name="uni1E64" unicode="&#x1e64;" horiz-adv-x="646" 
d="M203 16.5q-60 28.5 -99 76t-54 102.5l90 28q21 -67 78.5 -106t120.5 -39q42 0 75.5 17t52.5 43t19 52q0 41 -28.5 74t-78.5 44l-126 28q-80 17 -126.5 76.5t-46.5 136.5q0 59 30.5 106.5t83.5 74.5t117 27q71 0 126.5 -25t91 -66.5t50.5 -89.5l-89 -32q-22 59 -72.5 91
t-105.5 32q-38 0 -68 -16.5t-47 -42.5t-17 -53q0 -42 30.5 -76.5t76.5 -44.5l114 -26q90 -20 138 -76t48 -134q0 -59 -31 -107t-87.5 -75.5t-129.5 -27.5q-76 0 -136 28.5zM279 880.5q-18 18.5 -18 44.5t18 44t45 18q26 0 44 -18t18 -44q0 -27 -18 -45t-44 -18
q-27 0 -45 18.5zM331 1111h96l-60 -94h-83z" />
    <glyph glyph-name="uni1E65" unicode="&#x1e65;" horiz-adv-x="511" 
d="M127 26.5q-60 38.5 -86 104.5l75 38q23 -47 63 -74t87 -27q45 0 74 21t29 55q0 33 -26 53.5t-56 24.5l-81 11q-72 18 -108 60t-36 99q0 47 24.5 83t68 56t96.5 20q70 0 125.5 -35t79.5 -97l-74 -38q-20 41 -55.5 65t-78.5 24q-41 0 -66 -20t-25 -52q0 -33 23.5 -52.5
t51.5 -24.5l89 -12q67 -18 104.5 -61.5t37.5 -100.5q0 -46 -25 -82t-70 -56.5t-103 -20.5q-78 0 -138 38.5zM211 673.5q-18 18.5 -18 44.5t18 44t45 18q26 0 44 -18t18 -44q0 -27 -18 -45t-44 -18q-27 0 -45 18.5zM263 904h96l-60 -94h-83z" />
    <glyph glyph-name="uni1E66" unicode="&#x1e66;" horiz-adv-x="646" 
d="M203 16.5q-60 28.5 -99 76t-54 102.5l90 28q21 -67 78.5 -106t120.5 -39q42 0 75.5 17t52.5 43t19 52q0 41 -28.5 74t-78.5 44l-126 28q-80 17 -126.5 76.5t-46.5 136.5q0 59 30.5 106.5t83.5 74.5t117 27q71 0 126.5 -25t91 -66.5t50.5 -89.5l-89 -32q-22 59 -72.5 91
t-105.5 32q-38 0 -68 -16.5t-47 -42.5t-17 -53q0 -42 30.5 -76.5t76.5 -44.5l114 -26q90 -20 138 -76t48 -134q0 -59 -31 -107t-87.5 -75.5t-129.5 -27.5q-76 0 -136 28.5zM161 991h86l76 -94l78 94h85l-116 -144h-95zM279.5 1098q18.5 18 44.5 18t44 -18t18 -44
q0 -27 -18 -45t-44 -18t-44.5 18.5t-18.5 44.5t18.5 44z" />
    <glyph glyph-name="uni1E67" unicode="&#x1e67;" horiz-adv-x="511" 
d="M127 26.5q-60 38.5 -86 104.5l75 38q23 -47 63 -74t87 -27q45 0 74 21t29 55q0 33 -26 53.5t-56 24.5l-81 11q-72 18 -108 60t-36 99q0 47 24.5 83t68 56t96.5 20q70 0 125.5 -35t79.5 -97l-74 -38q-20 41 -55.5 65t-78.5 24q-41 0 -66 -20t-25 -52q0 -33 23.5 -52.5
t51.5 -24.5l89 -12q67 -18 104.5 -61.5t37.5 -100.5q0 -46 -25 -82t-70 -56.5t-103 -20.5q-78 0 -138 38.5zM93 784h86l76 -94l78 94h85l-116 -144h-95zM211.5 891q18.5 18 44.5 18t44 -18t18 -44q0 -27 -18 -45t-44 -18t-44.5 18.5t-18.5 44.5t18.5 44z" />
    <glyph glyph-name="uni1E68" unicode="&#x1e68;" horiz-adv-x="646" 
d="M203 16.5q-60 28.5 -99 76t-54 102.5l90 28q21 -67 78.5 -106t120.5 -39q42 0 75.5 17t52.5 43t19 52q0 41 -28.5 74t-78.5 44l-126 28q-80 17 -126.5 76.5t-46.5 136.5q0 59 30.5 106.5t83.5 74.5t117 27q71 0 126.5 -25t91 -66.5t50.5 -89.5l-89 -32q-22 59 -72.5 91
t-105.5 32q-38 0 -68 -16.5t-47 -42.5t-17 -53q0 -42 30.5 -76.5t76.5 -44.5l114 -26q90 -20 138 -76t48 -134q0 -59 -31 -107t-87.5 -75.5t-129.5 -27.5q-76 0 -136 28.5zM279 -187q-18 18 -18 45q0 26 18 44t45 18q26 0 44 -18.5t18 -43.5q0 -27 -18 -45t-44 -18
q-27 0 -45 18zM279 880.5q-18 18.5 -18 44.5t18 44t45 18q26 0 44 -18t18 -44q0 -27 -18 -45t-44 -18q-27 0 -45 18.5z" />
    <glyph glyph-name="uni1E69" unicode="&#x1e69;" horiz-adv-x="511" 
d="M127 26.5q-60 38.5 -86 104.5l75 38q23 -47 63 -74t87 -27q45 0 74 21t29 55q0 33 -26 53.5t-56 24.5l-81 11q-72 18 -108 60t-36 99q0 47 24.5 83t68 56t96.5 20q70 0 125.5 -35t79.5 -97l-74 -38q-20 41 -55.5 65t-78.5 24q-41 0 -66 -20t-25 -52q0 -33 23.5 -52.5
t51.5 -24.5l89 -12q67 -18 104.5 -61.5t37.5 -100.5q0 -46 -25 -82t-70 -56.5t-103 -20.5q-78 0 -138 38.5zM211 -187q-18 18 -18 45q0 26 18 44t45 18q26 0 44 -18.5t18 -43.5q0 -27 -18 -45t-44 -18q-27 0 -45 18zM211 673.5q-18 18.5 -18 44.5t18 44t45 18q26 0 44 -18
t18 -44q0 -27 -18 -45t-44 -18q-27 0 -45 18.5z" />
    <glyph glyph-name="uni1E6C" unicode="&#x1e6c;" horiz-adv-x="522" 
d="M213 655h-202v90h500v-90h-199v-655h-99v655zM217 -187q-18 18 -18 45q0 26 18 44t45 18q26 0 44 -18.5t18 -43.5q0 -27 -18 -45t-44 -18q-27 0 -45 18z" />
    <glyph glyph-name="uni1E6D" unicode="&#x1e6d;" horiz-adv-x="396" 
d="M169.5 38.5q-42.5 44.5 -42.5 127.5v284h-98v89h20q36 0 57 21.5t21 58.5v44h93v-124h121v-89h-121v-281q0 -90 90 -90q19 0 37 3v-83q-21 -5 -56 -5q-79 0 -121.5 44.5zM239 -187q-18 18 -18 45q0 26 18 44t45 18q26 0 44 -18.5t18 -43.5q0 -27 -18 -45t-44 -18
q-27 0 -45 18z" />
    <glyph glyph-name="uni1E6E" unicode="&#x1e6e;" horiz-adv-x="522" 
d="M213 655h-202v90h500v-90h-199v-655h-99v655zM128 -100h267v-72h-267v72z" />
    <glyph glyph-name="uni1E6F" unicode="&#x1e6f;" horiz-adv-x="396" 
d="M169.5 38.5q-42.5 44.5 -42.5 127.5v284h-98v89h20q36 0 57 21.5t21 58.5v44h93v-124h121v-89h-121v-281q0 -90 90 -90q19 0 37 3v-83q-21 -5 -56 -5q-79 0 -121.5 44.5zM150 -100h267v-72h-267v72z" />
    <glyph glyph-name="uni1E78" unicode="&#x1e78;" horiz-adv-x="706" 
d="M210.5 22q-62.5 34 -97.5 94t-35 135v494h99v-492q0 -77 49 -125.5t127 -48.5t127 48.5t49 125.5v492h99v-494q0 -75 -35 -135t-97.5 -94t-142.5 -34t-142.5 34zM378.5 885q-15.5 7 -34.5 21q-14 9 -22 13.5t-19 4.5q-28 0 -33 -42h-63q1 52 24.5 80.5t61.5 28.5
q23 0 38 -7t32 -20q14 -10 22.5 -14.5t19.5 -4.5q14 0 22 11.5t10 29.5h64q-1 -53 -23 -80.5t-60 -27.5q-24 0 -39.5 7zM368 1111h97l-61 -94h-82z" />
    <glyph glyph-name="uni1E79" unicode="&#x1e79;" 
d="M159 15q-46 27 -72 75.5t-26 111.5v337h93v-327q0 -60 36 -97t94 -37t94 38.5t36 103.5v319h94v-539h-91v66q-24 -38 -64 -58t-90 -20q-58 0 -104 27zM315.5 678q-15.5 7 -34.5 21q-14 9 -22 13.5t-19 4.5q-28 0 -33 -42h-63q1 52 24.5 80.5t61.5 28.5q23 0 38 -7t32 -20
q14 -10 22.5 -14.5t19.5 -4.5q14 0 22 11.5t10 29.5h64q-1 -53 -23 -80.5t-60 -27.5q-24 0 -39.5 7zM305 904h97l-61 -94h-82z" />
    <glyph glyph-name="uni1E7A" unicode="&#x1e7a;" horiz-adv-x="706" 
d="M210.5 22q-62.5 34 -97.5 94t-35 135v494h99v-492q0 -77 49 -125.5t127 -48.5t127 48.5t49 125.5v492h99v-494q0 -75 -35 -135t-97.5 -94t-142.5 -34t-142.5 34zM220 946h267v-73h-267v73zM222 1100q18 18 45 18q26 0 44 -18t18 -44t-18 -44.5t-44 -18.5q-27 0 -45 18.5
t-18 44.5t18 44zM397 1100q18 18 45 18q26 0 44 -18t18 -44t-18 -44.5t-44 -18.5q-27 0 -45 18.5t-18 44.5t18 44z" />
    <glyph glyph-name="uni1E7B" unicode="&#x1e7b;" 
d="M159 15q-46 27 -72 75.5t-26 111.5v337h93v-327q0 -60 36 -97t94 -37t94 38.5t36 103.5v319h94v-539h-91v66q-24 -38 -64 -58t-90 -20q-58 0 -104 27zM157 739h267v-73h-267v73zM159 893q18 18 45 18q26 0 44 -18t18 -44t-18 -44.5t-44 -18.5q-27 0 -45 18.5t-18 44.5
t18 44zM334 893q18 18 45 18q26 0 44 -18t18 -44t-18 -44.5t-44 -18.5q-27 0 -45 18.5t-18 44.5t18 44z" />
    <glyph glyph-name="Wgrave" unicode="&#x1e80;" horiz-adv-x="996" 
d="M11 745h103l163 -612l170 612h103l168 -610l164 610h103l-209 -745h-109l-169 606l-169 -606h-109zM366 991h99l73 -144h-80z" />
    <glyph glyph-name="wgrave" unicode="&#x1e81;" horiz-adv-x="826" 
d="M11 539h103l129 -395l126 395h88l126 -395l130 395h102l-185 -539h-89l-128 406l-128 -406h-89zM281 784h99l73 -144h-80z" />
    <glyph glyph-name="Wacute" unicode="&#x1e82;" horiz-adv-x="996" 
d="M11 745h103l163 -612l170 612h103l168 -610l164 610h103l-209 -745h-109l-169 606l-169 -606h-109zM531 991h99l-92 -144h-80z" />
    <glyph glyph-name="wacute" unicode="&#x1e83;" horiz-adv-x="826" 
d="M11 539h103l129 -395l126 395h88l126 -395l130 395h102l-185 -539h-89l-128 406l-128 -406h-89zM446 784h99l-92 -144h-80z" />
    <glyph glyph-name="Wdieresis" unicode="&#x1e84;" horiz-adv-x="996" 
d="M11 745h103l163 -612l170 612h103l168 -610l164 610h103l-209 -745h-109l-169 606l-169 -606h-109zM367 880.5q-18 18.5 -18 44.5t18 44t45 18q26 0 44 -18t18 -44q0 -27 -18 -45t-44 -18q-27 0 -45 18.5zM542 969q18 18 45 18q26 0 44 -18t18 -44q0 -27 -18 -45t-44 -18
q-27 0 -45 18.5t-18 44.5t18 44z" />
    <glyph glyph-name="wdieresis" unicode="&#x1e85;" horiz-adv-x="826" 
d="M11 539h103l129 -395l126 395h88l126 -395l130 395h102l-185 -539h-89l-128 406l-128 -406h-89zM282 673.5q-18 18.5 -18 44.5t18 44t45 18q26 0 44 -18t18 -44q0 -27 -18 -45t-44 -18q-27 0 -45 18.5zM457 762q18 18 45 18q26 0 44 -18t18 -44q0 -27 -18 -45t-44 -18
q-27 0 -45 18.5t-18 44.5t18 44z" />
    <glyph glyph-name="uni1E8E" unicode="&#x1e8e;" horiz-adv-x="635" 
d="M269 341l-258 404h111l196 -308l195 308h111l-256 -404v-341h-99v341zM274 880.5q-18 18.5 -18 44.5t18 44t45 18q26 0 44 -18t18 -44q0 -27 -18 -45t-44 -18q-27 0 -45 18.5z" />
    <glyph glyph-name="uni1E8F" unicode="&#x1e8f;" horiz-adv-x="553" 
d="M232 673.5q-18 18.5 -18 44.5t18 44t45 18q26 0 44 -18t18 -44q0 -27 -18 -45t-44 -18q-27 0 -45 18.5z" />
    <glyph glyph-name="uni1E92" unicode="&#x1e92;" 
d="M19 72l405 583h-381v90h508v-72l-403 -583h413v-90h-542v72zM246 -187q-18 18 -18 45q0 26 18 44t45 18q26 0 44 -18.5t18 -43.5q0 -27 -18 -45t-44 -18q-27 0 -45 18z" />
    <glyph glyph-name="uni1E93" unicode="&#x1e93;" horiz-adv-x="460" 
d="M19 79l294 371h-278v89h404v-79l-291 -371h293v-89h-422v79zM183 -187q-18 18 -18 45q0 26 18 44t45 18q26 0 44 -18.5t18 -43.5q0 -27 -18 -45t-44 -18q-27 0 -45 18z" />
    <glyph glyph-name="uni1E97" unicode="&#x1e97;" horiz-adv-x="396" 
d="M169.5 38.5q-42.5 44.5 -42.5 127.5v284h-98v89h20q36 0 57 21.5t21 58.5v44h93v-124h121v-89h-121v-281q0 -90 90 -90q19 0 37 3v-83q-21 -5 -56 -5q-79 0 -121.5 44.5zM42 797.5q-18 18.5 -18 44.5t18 44t45 18q26 0 44 -18t18 -44q0 -27 -18 -45t-44 -18
q-27 0 -45 18.5zM217 886q18 18 45 18q26 0 44 -18t18 -44q0 -27 -18 -45t-44 -18q-27 0 -45 18.5t-18 44.5t18 44z" />
    <glyph glyph-name="uni1E9E" unicode="&#x1e9e;" horiz-adv-x="1293" 
d="M203 16.5q-60 28.5 -99 76t-54 102.5l90 28q21 -67 78.5 -106t120.5 -39q42 0 75.5 17t52.5 43t19 52q0 41 -28.5 74t-78.5 44l-126 28q-80 17 -126.5 76.5t-46.5 136.5q0 59 30.5 106.5t83.5 74.5t117 27q71 0 126.5 -25t91 -66.5t50.5 -89.5l-89 -32q-22 59 -72.5 91
t-105.5 32q-38 0 -68 -16.5t-47 -42.5t-17 -53q0 -42 30.5 -76.5t76.5 -44.5l114 -26q90 -20 138 -76t48 -134q0 -59 -31 -107t-87.5 -75.5t-129.5 -27.5q-76 0 -136 28.5zM849 16.5q-60 28.5 -99 76t-54 102.5l90 28q21 -67 78.5 -106t120.5 -39q42 0 75.5 17t52.5 43
t19 52q0 41 -28.5 74t-78.5 44l-126 28q-80 17 -126.5 76.5t-46.5 136.5q0 59 30.5 106.5t83.5 74.5t117 27q71 0 126.5 -25t91 -66.5t50.5 -89.5l-89 -32q-22 59 -72.5 91t-105.5 32q-38 0 -68 -16.5t-47 -42.5t-17 -53q0 -42 30.5 -76.5t76.5 -44.5l114 -26
q90 -20 138 -76t48 -134q0 -59 -31 -107t-87.5 -75.5t-129.5 -27.5q-76 0 -136 28.5z" />
    <glyph glyph-name="uni1EA0" unicode="&#x1ea0;" horiz-adv-x="672" 
d="M278 745h116l267 -745h-105l-61 175h-318l-61 -175h-105zM464 265l-128 369l-128 -369h256zM292 -187q-18 18 -18 45q0 26 18 44t45 18q26 0 44 -18.5t18 -43.5q0 -27 -18 -45t-44 -18q-27 0 -45 18z" />
    <glyph glyph-name="uni1EA1" unicode="&#x1ea1;" horiz-adv-x="575" 
d="M100 30.5q-50 42.5 -50 110.5q0 66 43.5 110.5t132.5 59.5l184 30v25q0 44 -33 71.5t-85 27.5q-46 0 -81.5 -23.5t-52.5 -62.5l-81 42q23 56 84 93t133 37q61 0 108.5 -23.5t74 -65.5t26.5 -96v-366h-91v70q-29 -38 -76.5 -60t-105.5 -22q-80 0 -130 42.5zM174.5 89
q26.5 -22 66.5 -22q49 0 87.5 21.5t60 58.5t21.5 82v34l-163 -27q-99 -17 -99 -92q0 -33 26.5 -55zM243 -187q-18 18 -18 45q0 26 18 44t45 18q26 0 44 -18.5t18 -43.5q0 -27 -18 -45t-44 -18q-27 0 -45 18z" />
    <glyph glyph-name="uni1EA2" unicode="&#x1ea2;" horiz-adv-x="672" 
d="M278 745h116l267 -745h-105l-61 175h-318l-61 -175h-105zM464 265l-128 369l-128 -369h256zM350 904q0 22 -15.5 35.5t-45.5 13.5q-20 0 -38 -6v51q23 9 55 9q52 0 84 -25.5t32 -66.5q0 -76 -109 -118l-21 38q58 27 58 69z" />
    <glyph glyph-name="uni1EA3" unicode="&#x1ea3;" horiz-adv-x="575" 
d="M100 30.5q-50 42.5 -50 110.5q0 66 43.5 110.5t132.5 59.5l184 30v25q0 44 -33 71.5t-85 27.5q-46 0 -81.5 -23.5t-52.5 -62.5l-81 42q23 56 84 93t133 37q61 0 108.5 -23.5t74 -65.5t26.5 -96v-366h-91v70q-29 -38 -76.5 -60t-105.5 -22q-80 0 -130 42.5zM174.5 89
q26.5 -22 66.5 -22q49 0 87.5 21.5t60 58.5t21.5 82v34l-163 -27q-99 -17 -99 -92q0 -33 26.5 -55zM301 697q0 22 -15.5 35.5t-45.5 13.5q-20 0 -38 -6v51q23 9 55 9q52 0 84 -25.5t32 -66.5q0 -76 -109 -118l-21 38q58 27 58 69z" />
    <glyph glyph-name="uni1EA4" unicode="&#x1ea4;" horiz-adv-x="672" 
d="M278 745h116l267 -745h-105l-61 175h-318l-61 -175h-105zM464 265l-128 369l-128 -369h256zM288 991h95l116 -144h-85l-78 94l-76 -94h-86zM463 1058h96l-60 -94h-83z" />
    <glyph glyph-name="uni1EA5" unicode="&#x1ea5;" horiz-adv-x="575" 
d="M100 30.5q-50 42.5 -50 110.5q0 66 43.5 110.5t132.5 59.5l184 30v25q0 44 -33 71.5t-85 27.5q-46 0 -81.5 -23.5t-52.5 -62.5l-81 42q23 56 84 93t133 37q61 0 108.5 -23.5t74 -65.5t26.5 -96v-366h-91v70q-29 -38 -76.5 -60t-105.5 -22q-80 0 -130 42.5zM174.5 89
q26.5 -22 66.5 -22q49 0 87.5 21.5t60 58.5t21.5 82v34l-163 -27q-99 -17 -99 -92q0 -33 26.5 -55zM239 784h95l116 -144h-85l-78 94l-76 -94h-86zM414 851h96l-60 -94h-83z" />
    <glyph glyph-name="uni1EA6" unicode="&#x1ea6;" horiz-adv-x="672" 
d="M278 745h116l267 -745h-105l-61 175h-318l-61 -175h-105zM464 265l-128 369l-128 -369h256zM288 991h95l116 -144h-85l-78 94l-76 -94h-86zM469 1055l47 -91h-77l-58 91h88z" />
    <glyph glyph-name="uni1EA7" unicode="&#x1ea7;" horiz-adv-x="575" 
d="M100 30.5q-50 42.5 -50 110.5q0 66 43.5 110.5t132.5 59.5l184 30v25q0 44 -33 71.5t-85 27.5q-46 0 -81.5 -23.5t-52.5 -62.5l-81 42q23 56 84 93t133 37q61 0 108.5 -23.5t74 -65.5t26.5 -96v-366h-91v70q-29 -38 -76.5 -60t-105.5 -22q-80 0 -130 42.5zM174.5 89
q26.5 -22 66.5 -22q49 0 87.5 21.5t60 58.5t21.5 82v34l-163 -27q-99 -17 -99 -92q0 -33 26.5 -55zM239 784h95l116 -144h-85l-78 94l-76 -94h-86zM420 848l47 -91h-77l-58 91h88z" />
    <glyph glyph-name="uni1EA8" unicode="&#x1ea8;" horiz-adv-x="672" 
d="M278 745h116l267 -745h-105l-61 175h-318l-61 -175h-105zM464 265l-128 369l-128 -369h256zM288 991h95l116 -144h-85l-78 94l-76 -94h-86zM399 1134q24 9 56 9q51 0 83 -25.5t32 -66.5q0 -76 -108 -118l-21 38q58 27 58 69q0 22 -16 35.5t-46 13.5q-18 0 -38 -6v51z" />
    <glyph glyph-name="uni1EA9" unicode="&#x1ea9;" horiz-adv-x="575" 
d="M100 30.5q-50 42.5 -50 110.5q0 66 43.5 110.5t132.5 59.5l184 30v25q0 44 -33 71.5t-85 27.5q-46 0 -81.5 -23.5t-52.5 -62.5l-81 42q23 56 84 93t133 37q61 0 108.5 -23.5t74 -65.5t26.5 -96v-366h-91v70q-29 -38 -76.5 -60t-105.5 -22q-80 0 -130 42.5zM174.5 89
q26.5 -22 66.5 -22q49 0 87.5 21.5t60 58.5t21.5 82v34l-163 -27q-99 -17 -99 -92q0 -33 26.5 -55zM239 784h95l116 -144h-85l-78 94l-76 -94h-86zM350 927q24 9 56 9q51 0 83 -25.5t32 -66.5q0 -76 -108 -118l-21 38q58 27 58 69q0 22 -16 35.5t-46 13.5q-18 0 -38 -6v51z
" />
    <glyph glyph-name="uni1EAA" unicode="&#x1eaa;" horiz-adv-x="672" 
d="M278 745h116l267 -745h-105l-61 175h-318l-61 -175h-105zM464 265l-128 369l-128 -369h256zM288 991h95l116 -144h-85l-78 94l-76 -94h-86zM215.5 1107.5q23.5 27.5 60.5 27.5q23 0 38 -7t32 -20q14 -10 22.5 -14.5t19.5 -4.5q15 0 23 11t9 30h61q-1 -51 -23 -78.5
t-59 -27.5q-23 0 -38 7t-34 20q-14 10 -22.5 14.5t-19.5 4.5q-29 0 -33 -41h-61q1 51 24.5 78.5z" />
    <glyph glyph-name="uni1EAB" unicode="&#x1eab;" horiz-adv-x="575" 
d="M100 30.5q-50 42.5 -50 110.5q0 66 43.5 110.5t132.5 59.5l184 30v25q0 44 -33 71.5t-85 27.5q-46 0 -81.5 -23.5t-52.5 -62.5l-81 42q23 56 84 93t133 37q61 0 108.5 -23.5t74 -65.5t26.5 -96v-366h-91v70q-29 -38 -76.5 -60t-105.5 -22q-80 0 -130 42.5zM174.5 89
q26.5 -22 66.5 -22q49 0 87.5 21.5t60 58.5t21.5 82v34l-163 -27q-99 -17 -99 -92q0 -33 26.5 -55zM239 784h95l116 -144h-85l-78 94l-76 -94h-86zM166.5 900.5q23.5 27.5 60.5 27.5q23 0 38 -7t32 -20q14 -10 22.5 -14.5t19.5 -4.5q15 0 23 11t9 30h61q-1 -51 -23 -78.5
t-59 -27.5q-23 0 -38 7t-34 20q-14 10 -22.5 14.5t-19.5 4.5q-29 0 -33 -41h-61q1 51 24.5 78.5z" />
    <glyph glyph-name="uni1EAC" unicode="&#x1eac;" horiz-adv-x="672" 
d="M278 745h116l267 -745h-105l-61 175h-318l-61 -175h-105zM464 265l-128 369l-128 -369h256zM292 -187q-18 18 -18 45q0 26 18 44t45 18q26 0 44 -18.5t18 -43.5q0 -27 -18 -45t-44 -18q-27 0 -45 18zM288 991h95l116 -144h-85l-78 94l-76 -94h-86z" />
    <glyph glyph-name="uni1EAD" unicode="&#x1ead;" horiz-adv-x="575" 
d="M100 30.5q-50 42.5 -50 110.5q0 66 43.5 110.5t132.5 59.5l184 30v25q0 44 -33 71.5t-85 27.5q-46 0 -81.5 -23.5t-52.5 -62.5l-81 42q23 56 84 93t133 37q61 0 108.5 -23.5t74 -65.5t26.5 -96v-366h-91v70q-29 -38 -76.5 -60t-105.5 -22q-80 0 -130 42.5zM174.5 89
q26.5 -22 66.5 -22q49 0 87.5 21.5t60 58.5t21.5 82v34l-163 -27q-99 -17 -99 -92q0 -33 26.5 -55zM243 -187q-18 18 -18 45q0 26 18 44t45 18q26 0 44 -18.5t18 -43.5q0 -27 -18 -45t-44 -18q-27 0 -45 18zM239 784h95l116 -144h-85l-78 94l-76 -94h-86z" />
    <glyph glyph-name="uni1EAE" unicode="&#x1eae;" horiz-adv-x="672" 
d="M278 745h116l267 -745h-105l-61 175h-318l-61 -175h-105zM464 265l-128 369l-128 -369h256zM263.5 866q-33.5 19 -53 51t-19.5 69h71q0 -30 21.5 -52t52.5 -22t53 22t22 52h70q0 -37 -19.5 -69t-53 -51t-72.5 -19t-72.5 19zM341 1111h96l-60 -94h-83z" />
    <glyph glyph-name="uni1EAF" unicode="&#x1eaf;" horiz-adv-x="575" 
d="M100 30.5q-50 42.5 -50 110.5q0 66 43.5 110.5t132.5 59.5l184 30v25q0 44 -33 71.5t-85 27.5q-46 0 -81.5 -23.5t-52.5 -62.5l-81 42q23 56 84 93t133 37q61 0 108.5 -23.5t74 -65.5t26.5 -96v-366h-91v70q-29 -38 -76.5 -60t-105.5 -22q-80 0 -130 42.5zM174.5 89
q26.5 -22 66.5 -22q49 0 87.5 21.5t60 58.5t21.5 82v34l-163 -27q-99 -17 -99 -92q0 -33 26.5 -55zM214.5 659q-33.5 19 -53 51t-19.5 69h71q0 -30 21.5 -52t52.5 -22t53 22t22 52h70q0 -37 -19.5 -69t-53 -51t-72.5 -19t-72.5 19zM292 904h96l-60 -94h-83z" />
    <glyph glyph-name="uni1EB0" unicode="&#x1eb0;" horiz-adv-x="672" 
d="M278 745h116l267 -745h-105l-61 175h-318l-61 -175h-105zM464 265l-128 369l-128 -369h256zM263.5 866q-33.5 19 -53 51t-19.5 69h70q0 -30 22 -52t53 -22t52.5 22t21.5 52h71q0 -37 -19.5 -69t-52.5 -51t-73 -19q-39 0 -72.5 19zM331 1111l47 -94h-83l-60 94h96z" />
    <glyph glyph-name="uni1EB1" unicode="&#x1eb1;" horiz-adv-x="575" 
d="M100 30.5q-50 42.5 -50 110.5q0 66 43.5 110.5t132.5 59.5l184 30v25q0 44 -33 71.5t-85 27.5q-46 0 -81.5 -23.5t-52.5 -62.5l-81 42q23 56 84 93t133 37q61 0 108.5 -23.5t74 -65.5t26.5 -96v-366h-91v70q-29 -38 -76.5 -60t-105.5 -22q-80 0 -130 42.5zM174.5 89
q26.5 -22 66.5 -22q49 0 87.5 21.5t60 58.5t21.5 82v34l-163 -27q-99 -17 -99 -92q0 -33 26.5 -55zM214.5 659q-33.5 19 -53 51t-19.5 69h70q0 -30 22 -52t53 -22t52.5 22t21.5 52h71q0 -37 -19.5 -69t-52.5 -51t-73 -19q-39 0 -72.5 19zM282 904l47 -94h-83l-60 94h96z" />
    <glyph glyph-name="uni1EB2" unicode="&#x1eb2;" horiz-adv-x="672" 
d="M278 745h116l267 -745h-105l-61 175h-318l-61 -175h-105zM464 265l-128 369l-128 -369h256zM263.5 866q-33.5 19 -53 51t-19.5 69h71q0 -30 21.5 -52t52.5 -22t53 22t22 52h70q0 -37 -19.5 -69t-53 -51t-72.5 -19t-72.5 19zM256 1183q24 9 56 9q51 0 83 -25.5t32 -66.5
q0 -36 -26.5 -66.5t-81.5 -51.5l-21 38q58 29 58 69q0 22 -16 36t-46 14q-15 0 -38 -7v51z" />
    <glyph glyph-name="uni1EB3" unicode="&#x1eb3;" horiz-adv-x="575" 
d="M100 30.5q-50 42.5 -50 110.5q0 66 43.5 110.5t132.5 59.5l184 30v25q0 44 -33 71.5t-85 27.5q-46 0 -81.5 -23.5t-52.5 -62.5l-81 42q23 56 84 93t133 37q61 0 108.5 -23.5t74 -65.5t26.5 -96v-366h-91v70q-29 -38 -76.5 -60t-105.5 -22q-80 0 -130 42.5zM174.5 89
q26.5 -22 66.5 -22q49 0 87.5 21.5t60 58.5t21.5 82v34l-163 -27q-99 -17 -99 -92q0 -33 26.5 -55zM214.5 659q-33.5 19 -53 51t-19.5 69h71q0 -30 21.5 -52t52.5 -22t53 22t22 52h70q0 -37 -19.5 -69t-53 -51t-72.5 -19t-72.5 19zM207 976q24 9 56 9q51 0 83 -25.5
t32 -66.5q0 -36 -26.5 -66.5t-81.5 -51.5l-21 38q58 29 58 69q0 22 -16 36t-46 14q-15 0 -38 -7v51z" />
    <glyph glyph-name="uni1EB4" unicode="&#x1eb4;" horiz-adv-x="672" 
d="M278 745h116l267 -745h-105l-61 175h-318l-61 -175h-105zM464 265l-128 369l-128 -369h256zM263.5 866q-33.5 19 -53 51t-19.5 69h71q0 -30 21.5 -52t52.5 -22t53 22t22 52h71q0 -37 -19.5 -69t-53 -51t-73.5 -19q-39 0 -72.5 19zM215.5 1109q23.5 28 60.5 28
q22 0 36.5 -6.5t33.5 -20.5q15 -11 22.5 -15t18.5 -4q30 0 33 41h61q-1 -50 -23 -77.5t-59 -27.5q-23 0 -40 7t-33 20q-13 10 -21.5 14t-19.5 4q-29 0 -33 -41h-61q1 50 24.5 78z" />
    <glyph glyph-name="uni1EB5" unicode="&#x1eb5;" horiz-adv-x="575" 
d="M100 30.5q-50 42.5 -50 110.5q0 66 43.5 110.5t132.5 59.5l184 30v25q0 44 -33 71.5t-85 27.5q-46 0 -81.5 -23.5t-52.5 -62.5l-81 42q23 56 84 93t133 37q61 0 108.5 -23.5t74 -65.5t26.5 -96v-366h-91v70q-29 -38 -76.5 -60t-105.5 -22q-80 0 -130 42.5zM174.5 89
q26.5 -22 66.5 -22q49 0 87.5 21.5t60 58.5t21.5 82v34l-163 -27q-99 -17 -99 -92q0 -33 26.5 -55zM215.5 659q-33.5 19 -53 51t-19.5 69h71q0 -30 21.5 -52t52.5 -22t53 22t22 52h71q0 -37 -19.5 -69t-53 -51t-73.5 -19q-39 0 -72.5 19zM167.5 902q23.5 28 60.5 28
q22 0 36.5 -6.5t33.5 -20.5q15 -11 22.5 -15t18.5 -4q30 0 33 41h61q-1 -50 -23 -77.5t-59 -27.5q-23 0 -40 7t-33 20q-13 10 -21.5 14t-19.5 4q-29 0 -33 -41h-61q1 50 24.5 78z" />
    <glyph glyph-name="uni1EB6" unicode="&#x1eb6;" horiz-adv-x="672" 
d="M278 745h116l267 -745h-105l-61 175h-318l-61 -175h-105zM464 265l-128 369l-128 -369h256zM292 -187q-18 18 -18 45q0 26 18 44t45 18q26 0 44 -18.5t18 -43.5q0 -27 -18 -45t-44 -18q-27 0 -45 18zM263.5 866q-33.5 19 -53 51t-19.5 69h71q0 -30 21.5 -52t52.5 -22
t53 22t22 52h70q0 -37 -19.5 -69t-53 -51t-72.5 -19t-72.5 19z" />
    <glyph glyph-name="uni1EB7" unicode="&#x1eb7;" horiz-adv-x="575" 
d="M100 30.5q-50 42.5 -50 110.5q0 66 43.5 110.5t132.5 59.5l184 30v25q0 44 -33 71.5t-85 27.5q-46 0 -81.5 -23.5t-52.5 -62.5l-81 42q23 56 84 93t133 37q61 0 108.5 -23.5t74 -65.5t26.5 -96v-366h-91v70q-29 -38 -76.5 -60t-105.5 -22q-80 0 -130 42.5zM174.5 89
q26.5 -22 66.5 -22q49 0 87.5 21.5t60 58.5t21.5 82v34l-163 -27q-99 -17 -99 -92q0 -33 26.5 -55zM243 -187q-18 18 -18 45q0 26 18 44t45 18q26 0 44 -18.5t18 -43.5q0 -27 -18 -45t-44 -18q-27 0 -45 18zM214.5 659q-33.5 19 -53 51t-19.5 69h71q0 -30 21.5 -52t52.5 -22
t53 22t22 52h70q0 -37 -19.5 -69t-53 -51t-72.5 -19t-72.5 19z" />
    <glyph glyph-name="uni1EB8" unicode="&#x1eb8;" horiz-adv-x="606" 
d="M83 745h485v-90h-387v-236h367v-90h-367v-239h387v-90h-485v745zM281 -187q-18 18 -18 45q0 26 18 44t45 18q26 0 44 -18.5t18 -43.5q0 -27 -18 -45t-44 -18q-27 0 -45 18z" />
    <glyph glyph-name="uni1EB9" unicode="&#x1eb9;" horiz-adv-x="614" 
d="M182 25q-62 37 -97 101.5t-35 144.5t34.5 144t94 100t133.5 36q77 0 134.5 -36t88 -95.5t30.5 -127.5q0 -23 -5 -50h-412q2 -51 26 -89t62.5 -59t84.5 -21q98 0 151 89l78 -40q-26 -58 -88 -96t-142 -38q-76 0 -138 37zM464 322q-2 63 -45.5 104.5t-106.5 41.5
q-62 0 -107 -39.5t-55 -106.5h314zM263 -187q-18 18 -18 45q0 26 18 44t45 18q26 0 44 -18.5t18 -43.5q0 -27 -18 -45t-44 -18q-27 0 -45 18z" />
    <glyph glyph-name="uni1EBA" unicode="&#x1eba;" horiz-adv-x="606" 
d="M83 745h485v-90h-387v-236h367v-90h-367v-239h387v-90h-485v745zM339 904q0 22 -15.5 35.5t-45.5 13.5q-20 0 -38 -6v51q23 9 55 9q52 0 84 -25.5t32 -66.5q0 -76 -109 -118l-21 38q58 27 58 69z" />
    <glyph glyph-name="uni1EBB" unicode="&#x1ebb;" horiz-adv-x="614" 
d="M182 25q-62 37 -97 101.5t-35 144.5t34.5 144t94 100t133.5 36q77 0 134.5 -36t88 -95.5t30.5 -127.5q0 -23 -5 -50h-412q2 -51 26 -89t62.5 -59t84.5 -21q98 0 151 89l78 -40q-26 -58 -88 -96t-142 -38q-76 0 -138 37zM464 322q-2 63 -45.5 104.5t-106.5 41.5
q-62 0 -107 -39.5t-55 -106.5h314zM321 697q0 22 -15.5 35.5t-45.5 13.5q-20 0 -38 -6v51q23 9 55 9q52 0 84 -25.5t32 -66.5q0 -76 -109 -118l-21 38q58 27 58 69z" />
    <glyph glyph-name="uni1EBC" unicode="&#x1ebc;" horiz-adv-x="606" 
d="M83 745h485v-90h-387v-236h367v-90h-367v-239h387v-90h-485v745zM350.5 885q-15.5 7 -34.5 21q-14 9 -22 13.5t-19 4.5q-28 0 -33 -42h-63q1 52 24.5 80.5t61.5 28.5q23 0 38 -7t32 -20q14 -10 22.5 -14.5t19.5 -4.5q14 0 22 11.5t10 29.5h64q-1 -53 -23 -80.5t-60 -27.5
q-24 0 -39.5 7z" />
    <glyph glyph-name="uni1EBD" unicode="&#x1ebd;" horiz-adv-x="614" 
d="M182 25q-62 37 -97 101.5t-35 144.5t34.5 144t94 100t133.5 36q77 0 134.5 -36t88 -95.5t30.5 -127.5q0 -23 -5 -50h-412q2 -51 26 -89t62.5 -59t84.5 -21q98 0 151 89l78 -40q-26 -58 -88 -96t-142 -38q-76 0 -138 37zM464 322q-2 63 -45.5 104.5t-106.5 41.5
q-62 0 -107 -39.5t-55 -106.5h314zM332.5 678q-15.5 7 -34.5 21q-14 9 -22 13.5t-19 4.5q-28 0 -33 -42h-63q1 52 24.5 80.5t61.5 28.5q23 0 38 -7t32 -20q14 -10 22.5 -14.5t19.5 -4.5q14 0 22 11.5t10 29.5h64q-1 -53 -23 -80.5t-60 -27.5q-24 0 -39.5 7z" />
    <glyph glyph-name="uni1EBE" unicode="&#x1ebe;" horiz-adv-x="606" 
d="M83 745h485v-90h-387v-236h367v-90h-367v-239h387v-90h-485v745zM277 991h95l116 -144h-85l-78 94l-76 -94h-86zM452 1058h96l-60 -94h-83z" />
    <glyph glyph-name="uni1EBF" unicode="&#x1ebf;" horiz-adv-x="614" 
d="M182 25q-62 37 -97 101.5t-35 144.5t34.5 144t94 100t133.5 36q77 0 134.5 -36t88 -95.5t30.5 -127.5q0 -23 -5 -50h-412q2 -51 26 -89t62.5 -59t84.5 -21q98 0 151 89l78 -40q-26 -58 -88 -96t-142 -38q-76 0 -138 37zM464 322q-2 63 -45.5 104.5t-106.5 41.5
q-62 0 -107 -39.5t-55 -106.5h314zM259 784h95l116 -144h-85l-78 94l-76 -94h-86zM434 851h96l-60 -94h-83z" />
    <glyph glyph-name="uni1EC0" unicode="&#x1ec0;" horiz-adv-x="606" 
d="M83 745h485v-90h-387v-236h367v-90h-367v-239h387v-90h-485v745zM277 991h95l116 -144h-85l-78 94l-76 -94h-86zM458 1055l47 -91h-77l-58 91h88z" />
    <glyph glyph-name="uni1EC1" unicode="&#x1ec1;" horiz-adv-x="614" 
d="M182 25q-62 37 -97 101.5t-35 144.5t34.5 144t94 100t133.5 36q77 0 134.5 -36t88 -95.5t30.5 -127.5q0 -23 -5 -50h-412q2 -51 26 -89t62.5 -59t84.5 -21q98 0 151 89l78 -40q-26 -58 -88 -96t-142 -38q-76 0 -138 37zM464 322q-2 63 -45.5 104.5t-106.5 41.5
q-62 0 -107 -39.5t-55 -106.5h314zM259 784h95l116 -144h-85l-78 94l-76 -94h-86zM440 848l47 -91h-77l-58 91h88z" />
    <glyph glyph-name="uni1EC2" unicode="&#x1ec2;" horiz-adv-x="606" 
d="M83 745h485v-90h-387v-236h367v-90h-367v-239h387v-90h-485v745zM277 991h95l116 -144h-85l-78 94l-76 -94h-86zM388 1134q24 9 56 9q51 0 83 -25.5t32 -66.5q0 -76 -108 -118l-21 38q58 27 58 69q0 22 -16 35.5t-46 13.5q-18 0 -38 -6v51z" />
    <glyph glyph-name="uni1EC3" unicode="&#x1ec3;" horiz-adv-x="614" 
d="M182 25q-62 37 -97 101.5t-35 144.5t34.5 144t94 100t133.5 36q77 0 134.5 -36t88 -95.5t30.5 -127.5q0 -23 -5 -50h-412q2 -51 26 -89t62.5 -59t84.5 -21q98 0 151 89l78 -40q-26 -58 -88 -96t-142 -38q-76 0 -138 37zM464 322q-2 63 -45.5 104.5t-106.5 41.5
q-62 0 -107 -39.5t-55 -106.5h314zM259 784h95l116 -144h-85l-78 94l-76 -94h-86zM370 927q24 9 56 9q51 0 83 -25.5t32 -66.5q0 -76 -108 -118l-21 38q58 27 58 69q0 22 -16 35.5t-46 13.5q-18 0 -38 -6v51z" />
    <glyph glyph-name="uni1EC4" unicode="&#x1ec4;" horiz-adv-x="606" 
d="M83 745h485v-90h-387v-236h367v-90h-367v-239h387v-90h-485v745zM277 991h95l116 -144h-85l-78 94l-76 -94h-86zM204.5 1107.5q23.5 27.5 60.5 27.5q23 0 38 -7t32 -20q14 -10 22.5 -14.5t19.5 -4.5q15 0 23 11t9 30h61q-1 -51 -23 -78.5t-59 -27.5q-23 0 -38 7t-34 20
q-14 10 -22.5 14.5t-19.5 4.5q-29 0 -33 -41h-61q1 51 24.5 78.5z" />
    <glyph glyph-name="uni1EC5" unicode="&#x1ec5;" horiz-adv-x="614" 
d="M182 25q-62 37 -97 101.5t-35 144.5t34.5 144t94 100t133.5 36q77 0 134.5 -36t88 -95.5t30.5 -127.5q0 -23 -5 -50h-412q2 -51 26 -89t62.5 -59t84.5 -21q98 0 151 89l78 -40q-26 -58 -88 -96t-142 -38q-76 0 -138 37zM464 322q-2 63 -45.5 104.5t-106.5 41.5
q-62 0 -107 -39.5t-55 -106.5h314zM259 784h95l116 -144h-85l-78 94l-76 -94h-86zM186.5 900.5q23.5 27.5 60.5 27.5q23 0 38 -7t32 -20q14 -10 22.5 -14.5t19.5 -4.5q15 0 23 11t9 30h61q-1 -51 -23 -78.5t-59 -27.5q-23 0 -38 7t-34 20q-14 10 -22.5 14.5t-19.5 4.5
q-29 0 -33 -41h-61q1 51 24.5 78.5z" />
    <glyph glyph-name="uni1EC6" unicode="&#x1ec6;" horiz-adv-x="606" 
d="M83 745h485v-90h-387v-236h367v-90h-367v-239h387v-90h-485v745zM281 -187q-18 18 -18 45q0 26 18 44t45 18q26 0 44 -18.5t18 -43.5q0 -27 -18 -45t-44 -18q-27 0 -45 18zM277 991h95l116 -144h-85l-78 94l-76 -94h-86z" />
    <glyph glyph-name="uni1EC7" unicode="&#x1ec7;" horiz-adv-x="614" 
d="M182 25q-62 37 -97 101.5t-35 144.5t34.5 144t94 100t133.5 36q77 0 134.5 -36t88 -95.5t30.5 -127.5q0 -23 -5 -50h-412q2 -51 26 -89t62.5 -59t84.5 -21q98 0 151 89l78 -40q-26 -58 -88 -96t-142 -38q-76 0 -138 37zM464 322q-2 63 -45.5 104.5t-106.5 41.5
q-62 0 -107 -39.5t-55 -106.5h314zM263 -187q-18 18 -18 45q0 26 18 44t45 18q26 0 44 -18.5t18 -43.5q0 -27 -18 -45t-44 -18q-27 0 -45 18zM259 784h95l116 -144h-85l-78 94l-76 -94h-86z" />
    <glyph glyph-name="uni1EC8" unicode="&#x1ec8;" horiz-adv-x="264" 
d="M83 745h98v-745h-98v745zM145 904q0 22 -15.5 35.5t-45.5 13.5q-20 0 -38 -6v51q23 9 55 9q52 0 84 -25.5t32 -66.5q0 -76 -109 -118l-21 38q58 27 58 69z" />
    <glyph glyph-name="uni1EC9" unicode="&#x1ec9;" horiz-adv-x="209" 
d="M58 539h93v-539h-93v539zM117 697q0 22 -15.5 35.5t-45.5 13.5q-20 0 -38 -6v51q23 9 55 9q52 0 84 -25.5t32 -66.5q0 -76 -109 -118l-21 38q58 27 58 69z" />
    <glyph glyph-name="uni1ECA" unicode="&#x1eca;" horiz-adv-x="264" 
d="M83 745h98v-745h-98v745zM87 -187q-18 18 -18 45q0 26 18 44t45 18q26 0 44 -18.5t18 -43.5q0 -27 -18 -45t-44 -18q-27 0 -45 18z" />
    <glyph glyph-name="uni1ECB" unicode="&#x1ecb;" horiz-adv-x="237" 
d="M72 539h93v-539h-93v539zM77 725q16 16 42 16t42 -16t16 -42t-16 -42t-42 -16t-42 16t-16 42t16 42zM74 -187q-18 18 -18 45q0 26 18 44t45 18q26 0 44 -18.5t18 -43.5q0 -27 -18 -45t-44 -18q-27 0 -45 18z" />
    <glyph glyph-name="uni1ECC" unicode="&#x1ecc;" horiz-adv-x="878" 
d="M247.5 38q-86.5 50 -136.5 138t-50 197t50 197t136.5 137.5t191.5 49.5t191.5 -50t137 -137.5t50.5 -196.5t-50.5 -197t-137 -138t-191.5 -50t-191.5 50zM195 224.5q36 -67.5 100 -106.5t144 -39t144 39t100 106.5t36 148.5t-36 148t-100 106t-144 39t-144 -39t-100 -106
t-36 -148t36 -148.5zM395 -187q-18 18 -18 45q0 26 18 44t45 18q26 0 44 -18.5t18 -43.5q0 -27 -18 -45t-44 -18q-27 0 -45 18z" />
    <glyph glyph-name="uni1ECD" unicode="&#x1ecd;" horiz-adv-x="654" 
d="M187.5 24.5q-63.5 36.5 -100.5 101t-37 144.5q0 79 36.5 143.5t100 101t141.5 36.5q77 0 140.5 -36.5t100 -100.5t36.5 -144q0 -81 -37 -145t-100.5 -100.5t-139.5 -36.5q-77 0 -140.5 36.5zM171.5 172q23.5 -44 65 -69t91.5 -25q49 0 90 25t64.5 69t23.5 98t-23.5 97.5
t-64.5 68.5t-90 25q-50 0 -91.5 -25t-65 -68.5t-23.5 -97.5t23.5 -98zM283 -187q-18 18 -18 45q0 26 18 44t45 18q26 0 44 -18.5t18 -43.5q0 -27 -18 -45t-44 -18q-27 0 -45 18z" />
    <glyph glyph-name="uni1ECE" unicode="&#x1ece;" horiz-adv-x="878" 
d="M247.5 38q-86.5 50 -136.5 138t-50 197t50 197t136.5 137.5t191.5 49.5t191.5 -50t137 -137.5t50.5 -196.5t-50.5 -197t-137 -138t-191.5 -50t-191.5 50zM195 224.5q36 -67.5 100 -106.5t144 -39t144 39t100 106.5t36 148.5t-36 148t-100 106t-144 39t-144 -39t-100 -106
t-36 -148t36 -148.5zM453 904q0 22 -15.5 35.5t-45.5 13.5q-20 0 -38 -6v51q23 9 55 9q52 0 84 -25.5t32 -66.5q0 -76 -109 -118l-21 38q58 27 58 69z" />
    <glyph glyph-name="uni1ECF" unicode="&#x1ecf;" horiz-adv-x="654" 
d="M187.5 24.5q-63.5 36.5 -100.5 101t-37 144.5q0 79 36.5 143.5t100 101t141.5 36.5q77 0 140.5 -36.5t100 -100.5t36.5 -144q0 -81 -37 -145t-100.5 -100.5t-139.5 -36.5q-77 0 -140.5 36.5zM171.5 172q23.5 -44 65 -69t91.5 -25q49 0 90 25t64.5 69t23.5 98t-23.5 97.5
t-64.5 68.5t-90 25q-50 0 -91.5 -25t-65 -68.5t-23.5 -97.5t23.5 -98zM341 697q0 22 -15.5 35.5t-45.5 13.5q-20 0 -38 -6v51q23 9 55 9q52 0 84 -25.5t32 -66.5q0 -76 -109 -118l-21 38q58 27 58 69z" />
    <glyph glyph-name="uni1ED0" unicode="&#x1ed0;" horiz-adv-x="878" 
d="M247.5 38q-86.5 50 -136.5 138t-50 197t50 197t136.5 137.5t191.5 49.5t191.5 -50t137 -137.5t50.5 -196.5t-50.5 -197t-137 -138t-191.5 -50t-191.5 50zM195 224.5q36 -67.5 100 -106.5t144 -39t144 39t100 106.5t36 148.5t-36 148t-100 106t-144 39t-144 -39t-100 -106
t-36 -148t36 -148.5zM391 991h95l116 -144h-85l-78 94l-76 -94h-86zM566 1058h96l-60 -94h-83z" />
    <glyph glyph-name="uni1ED1" unicode="&#x1ed1;" horiz-adv-x="654" 
d="M187.5 24.5q-63.5 36.5 -100.5 101t-37 144.5q0 79 36.5 143.5t100 101t141.5 36.5q77 0 140.5 -36.5t100 -100.5t36.5 -144q0 -81 -37 -145t-100.5 -100.5t-139.5 -36.5q-77 0 -140.5 36.5zM171.5 172q23.5 -44 65 -69t91.5 -25q49 0 90 25t64.5 69t23.5 98t-23.5 97.5
t-64.5 68.5t-90 25q-50 0 -91.5 -25t-65 -68.5t-23.5 -97.5t23.5 -98zM279 784h95l116 -144h-85l-78 94l-76 -94h-86zM454 851h96l-60 -94h-83z" />
    <glyph glyph-name="uni1ED2" unicode="&#x1ed2;" horiz-adv-x="878" 
d="M247.5 38q-86.5 50 -136.5 138t-50 197t50 197t136.5 137.5t191.5 49.5t191.5 -50t137 -137.5t50.5 -196.5t-50.5 -197t-137 -138t-191.5 -50t-191.5 50zM195 224.5q36 -67.5 100 -106.5t144 -39t144 39t100 106.5t36 148.5t-36 148t-100 106t-144 39t-144 -39t-100 -106
t-36 -148t36 -148.5zM391 991h95l116 -144h-85l-78 94l-76 -94h-86zM572 1055l47 -91h-77l-58 91h88z" />
    <glyph glyph-name="uni1ED3" unicode="&#x1ed3;" horiz-adv-x="654" 
d="M187.5 24.5q-63.5 36.5 -100.5 101t-37 144.5q0 79 36.5 143.5t100 101t141.5 36.5q77 0 140.5 -36.5t100 -100.5t36.5 -144q0 -81 -37 -145t-100.5 -100.5t-139.5 -36.5q-77 0 -140.5 36.5zM171.5 172q23.5 -44 65 -69t91.5 -25q49 0 90 25t64.5 69t23.5 98t-23.5 97.5
t-64.5 68.5t-90 25q-50 0 -91.5 -25t-65 -68.5t-23.5 -97.5t23.5 -98zM279 784h95l116 -144h-85l-78 94l-76 -94h-86zM460 848l47 -91h-77l-58 91h88z" />
    <glyph glyph-name="uni1ED4" unicode="&#x1ed4;" horiz-adv-x="878" 
d="M247.5 38q-86.5 50 -136.5 138t-50 197t50 197t136.5 137.5t191.5 49.5t191.5 -50t137 -137.5t50.5 -196.5t-50.5 -197t-137 -138t-191.5 -50t-191.5 50zM195 224.5q36 -67.5 100 -106.5t144 -39t144 39t100 106.5t36 148.5t-36 148t-100 106t-144 39t-144 -39t-100 -106
t-36 -148t36 -148.5zM391 991h95l116 -144h-85l-78 94l-76 -94h-86zM502 1134q24 9 56 9q51 0 83 -25.5t32 -66.5q0 -76 -108 -118l-21 38q58 27 58 69q0 22 -16 35.5t-46 13.5q-18 0 -38 -6v51z" />
    <glyph glyph-name="uni1ED5" unicode="&#x1ed5;" horiz-adv-x="654" 
d="M187.5 24.5q-63.5 36.5 -100.5 101t-37 144.5q0 79 36.5 143.5t100 101t141.5 36.5q77 0 140.5 -36.5t100 -100.5t36.5 -144q0 -81 -37 -145t-100.5 -100.5t-139.5 -36.5q-77 0 -140.5 36.5zM171.5 172q23.5 -44 65 -69t91.5 -25q49 0 90 25t64.5 69t23.5 98t-23.5 97.5
t-64.5 68.5t-90 25q-50 0 -91.5 -25t-65 -68.5t-23.5 -97.5t23.5 -98zM279 784h95l116 -144h-85l-78 94l-76 -94h-86zM390 927q24 9 56 9q51 0 83 -25.5t32 -66.5q0 -76 -108 -118l-21 38q58 27 58 69q0 22 -16 35.5t-46 13.5q-18 0 -38 -6v51z" />
    <glyph glyph-name="uni1ED6" unicode="&#x1ed6;" horiz-adv-x="878" 
d="M247.5 38q-86.5 50 -136.5 138t-50 197t50 197t136.5 137.5t191.5 49.5t191.5 -50t137 -137.5t50.5 -196.5t-50.5 -197t-137 -138t-191.5 -50t-191.5 50zM195 224.5q36 -67.5 100 -106.5t144 -39t144 39t100 106.5t36 148.5t-36 148t-100 106t-144 39t-144 -39t-100 -106
t-36 -148t36 -148.5zM391 991h95l116 -144h-85l-78 94l-76 -94h-86zM318.5 1107.5q23.5 27.5 60.5 27.5q23 0 38 -7t32 -20q14 -10 22.5 -14.5t19.5 -4.5q15 0 23 11t9 30h61q-1 -51 -23 -78.5t-59 -27.5q-23 0 -38 7t-34 20q-14 10 -22.5 14.5t-19.5 4.5q-29 0 -33 -41h-61
q1 51 24.5 78.5z" />
    <glyph glyph-name="uni1ED7" unicode="&#x1ed7;" horiz-adv-x="654" 
d="M187.5 24.5q-63.5 36.5 -100.5 101t-37 144.5q0 79 36.5 143.5t100 101t141.5 36.5q77 0 140.5 -36.5t100 -100.5t36.5 -144q0 -81 -37 -145t-100.5 -100.5t-139.5 -36.5q-77 0 -140.5 36.5zM171.5 172q23.5 -44 65 -69t91.5 -25q49 0 90 25t64.5 69t23.5 98t-23.5 97.5
t-64.5 68.5t-90 25q-50 0 -91.5 -25t-65 -68.5t-23.5 -97.5t23.5 -98zM279 784h95l116 -144h-85l-78 94l-76 -94h-86zM206.5 900.5q23.5 27.5 60.5 27.5q23 0 38 -7t32 -20q14 -10 22.5 -14.5t19.5 -4.5q15 0 23 11t9 30h61q-1 -51 -23 -78.5t-59 -27.5q-23 0 -38 7t-34 20
q-14 10 -22.5 14.5t-19.5 4.5q-29 0 -33 -41h-61q1 51 24.5 78.5z" />
    <glyph glyph-name="uni1ED8" unicode="&#x1ed8;" horiz-adv-x="878" 
d="M247.5 38q-86.5 50 -136.5 138t-50 197t50 197t136.5 137.5t191.5 49.5t191.5 -50t137 -137.5t50.5 -196.5t-50.5 -197t-137 -138t-191.5 -50t-191.5 50zM195 224.5q36 -67.5 100 -106.5t144 -39t144 39t100 106.5t36 148.5t-36 148t-100 106t-144 39t-144 -39t-100 -106
t-36 -148t36 -148.5zM395 -187q-18 18 -18 45q0 26 18 44t45 18q26 0 44 -18.5t18 -43.5q0 -27 -18 -45t-44 -18q-27 0 -45 18zM391 991h95l116 -144h-85l-78 94l-76 -94h-86z" />
    <glyph glyph-name="uni1ED9" unicode="&#x1ed9;" horiz-adv-x="654" 
d="M187.5 24.5q-63.5 36.5 -100.5 101t-37 144.5q0 79 36.5 143.5t100 101t141.5 36.5q77 0 140.5 -36.5t100 -100.5t36.5 -144q0 -81 -37 -145t-100.5 -100.5t-139.5 -36.5q-77 0 -140.5 36.5zM171.5 172q23.5 -44 65 -69t91.5 -25q49 0 90 25t64.5 69t23.5 98t-23.5 97.5
t-64.5 68.5t-90 25q-50 0 -91.5 -25t-65 -68.5t-23.5 -97.5t23.5 -98zM283 -187q-18 18 -18 45q0 26 18 44t45 18q26 0 44 -18.5t18 -43.5q0 -27 -18 -45t-44 -18q-27 0 -45 18zM279 784h95l116 -144h-85l-78 94l-76 -94h-86z" />
    <glyph glyph-name="uni1EDA" unicode="&#x1eda;" horiz-adv-x="878" 
d="M247.5 38q-86.5 50 -136.5 138t-50 197t50 197t136.5 137.5t191.5 49.5h210q49 0 49 51q0 31 -22 79h100q25 -46 25 -88q0 -59 -33 -89.5t-91 -33.5q66 -52 103.5 -131t37.5 -172q0 -109 -50.5 -197t-137 -138t-191.5 -50t-191.5 50zM195 224.5q36 -67.5 100 -106.5
t144 -39t144 39t100 106.5t36 148.5t-36 148t-100 106t-144 39t-144 -39t-100 -106t-36 -148t36 -148.5zM472 991h99l-92 -144h-80z" />
    <glyph glyph-name="uni1EDB" unicode="&#x1edb;" horiz-adv-x="654" 
d="M187.5 24.5q-63.5 36.5 -100.5 101t-37 144.5q0 79 36.5 143.5t100 101t141.5 36.5h110q22 0 36 10.5t14 41.5q0 18 -5.5 36t-15.5 43h87q12 -27 17.5 -46t5.5 -42q0 -42 -18.5 -68.5t-51.5 -38.5q46 -38 72 -94t26 -123q0 -81 -37 -145t-100.5 -100.5t-139.5 -36.5
q-77 0 -140.5 36.5zM171.5 172q23.5 -44 65 -69t91.5 -25q49 0 90 25t64.5 69t23.5 98t-23.5 97.5t-64.5 68.5t-90 25q-50 0 -91.5 -25t-65 -68.5t-23.5 -97.5t23.5 -98zM361 784h99l-92 -144h-80z" />
    <glyph glyph-name="uni1EDC" unicode="&#x1edc;" horiz-adv-x="878" 
d="M247.5 38q-86.5 50 -136.5 138t-50 197t50 197t136.5 137.5t191.5 49.5h210q49 0 49 51q0 31 -22 79h100q25 -46 25 -88q0 -59 -33 -89.5t-91 -33.5q66 -52 103.5 -131t37.5 -172q0 -109 -50.5 -197t-137 -138t-191.5 -50t-191.5 50zM195 224.5q36 -67.5 100 -106.5
t144 -39t144 39t100 106.5t36 148.5t-36 148t-100 106t-144 39t-144 -39t-100 -106t-36 -148t36 -148.5zM307 991h99l73 -144h-80z" />
    <glyph glyph-name="uni1EDD" unicode="&#x1edd;" horiz-adv-x="654" 
d="M187.5 24.5q-63.5 36.5 -100.5 101t-37 144.5q0 79 36.5 143.5t100 101t141.5 36.5h110q22 0 36 10.5t14 41.5q0 18 -5.5 36t-15.5 43h87q12 -27 17.5 -46t5.5 -42q0 -42 -18.5 -68.5t-51.5 -38.5q46 -38 72 -94t26 -123q0 -81 -37 -145t-100.5 -100.5t-139.5 -36.5
q-77 0 -140.5 36.5zM171.5 172q23.5 -44 65 -69t91.5 -25q49 0 90 25t64.5 69t23.5 98t-23.5 97.5t-64.5 68.5t-90 25q-50 0 -91.5 -25t-65 -68.5t-23.5 -97.5t23.5 -98zM195 784h99l73 -144h-80z" />
    <glyph glyph-name="uni1EDE" unicode="&#x1ede;" horiz-adv-x="878" 
d="M247.5 38q-86.5 50 -136.5 138t-50 197t50 197t136.5 137.5t191.5 49.5h210q49 0 49 51q0 31 -22 79h100q25 -46 25 -88q0 -59 -33 -89.5t-91 -33.5q66 -52 103.5 -131t37.5 -172q0 -109 -50.5 -197t-137 -138t-191.5 -50t-191.5 50zM195 224.5q36 -67.5 100 -106.5
t144 -39t144 39t100 106.5t36 148.5t-36 148t-100 106t-144 39t-144 -39t-100 -106t-36 -148t36 -148.5zM453 904q0 22 -15.5 35.5t-45.5 13.5q-20 0 -38 -6v51q23 9 55 9q52 0 84 -25.5t32 -66.5q0 -76 -109 -118l-21 38q58 27 58 69z" />
    <glyph glyph-name="uni1EDF" unicode="&#x1edf;" horiz-adv-x="654" 
d="M187.5 24.5q-63.5 36.5 -100.5 101t-37 144.5q0 79 36.5 143.5t100 101t141.5 36.5h110q22 0 36 10.5t14 41.5q0 18 -5.5 36t-15.5 43h87q12 -27 17.5 -46t5.5 -42q0 -42 -18.5 -68.5t-51.5 -38.5q46 -38 72 -94t26 -123q0 -81 -37 -145t-100.5 -100.5t-139.5 -36.5
q-77 0 -140.5 36.5zM171.5 172q23.5 -44 65 -69t91.5 -25q49 0 90 25t64.5 69t23.5 98t-23.5 97.5t-64.5 68.5t-90 25q-50 0 -91.5 -25t-65 -68.5t-23.5 -97.5t23.5 -98zM341 697q0 22 -15.5 35.5t-45.5 13.5q-20 0 -38 -6v51q23 9 55 9q52 0 84 -25.5t32 -66.5
q0 -76 -109 -118l-21 38q58 27 58 69z" />
    <glyph glyph-name="uni1EE0" unicode="&#x1ee0;" horiz-adv-x="878" 
d="M247.5 38q-86.5 50 -136.5 138t-50 197t50 197t136.5 137.5t191.5 49.5h210q49 0 49 51q0 31 -22 79h100q25 -46 25 -88q0 -59 -33 -89.5t-91 -33.5q66 -52 103.5 -131t37.5 -172q0 -109 -50.5 -197t-137 -138t-191.5 -50t-191.5 50zM195 224.5q36 -67.5 100 -106.5
t144 -39t144 39t100 106.5t36 148.5t-36 148t-100 106t-144 39t-144 -39t-100 -106t-36 -148t36 -148.5zM464.5 885q-15.5 7 -34.5 21q-14 9 -22 13.5t-19 4.5q-28 0 -33 -42h-63q1 52 24.5 80.5t61.5 28.5q23 0 38 -7t32 -20q14 -10 22.5 -14.5t19.5 -4.5q14 0 22 11.5
t10 29.5h64q-1 -53 -23 -80.5t-60 -27.5q-24 0 -39.5 7z" />
    <glyph glyph-name="uni1EE1" unicode="&#x1ee1;" horiz-adv-x="654" 
d="M187.5 24.5q-63.5 36.5 -100.5 101t-37 144.5q0 79 36.5 143.5t100 101t141.5 36.5h110q22 0 36 10.5t14 41.5q0 18 -5.5 36t-15.5 43h87q12 -27 17.5 -46t5.5 -42q0 -42 -18.5 -68.5t-51.5 -38.5q46 -38 72 -94t26 -123q0 -81 -37 -145t-100.5 -100.5t-139.5 -36.5
q-77 0 -140.5 36.5zM171.5 172q23.5 -44 65 -69t91.5 -25q49 0 90 25t64.5 69t23.5 98t-23.5 97.5t-64.5 68.5t-90 25q-50 0 -91.5 -25t-65 -68.5t-23.5 -97.5t23.5 -98zM352.5 678q-15.5 7 -34.5 21q-14 9 -22 13.5t-19 4.5q-28 0 -33 -42h-63q1 52 24.5 80.5t61.5 28.5
q23 0 38 -7t32 -20q14 -10 22.5 -14.5t19.5 -4.5q14 0 22 11.5t10 29.5h64q-1 -53 -23 -80.5t-60 -27.5q-24 0 -39.5 7z" />
    <glyph glyph-name="uni1EE2" unicode="&#x1ee2;" horiz-adv-x="878" 
d="M247.5 38q-86.5 50 -136.5 138t-50 197t50 197t136.5 137.5t191.5 49.5h210q49 0 49 51q0 31 -22 79h100q25 -46 25 -88q0 -59 -33 -89.5t-91 -33.5q66 -52 103.5 -131t37.5 -172q0 -109 -50.5 -197t-137 -138t-191.5 -50t-191.5 50zM195 224.5q36 -67.5 100 -106.5
t144 -39t144 39t100 106.5t36 148.5t-36 148t-100 106t-144 39t-144 -39t-100 -106t-36 -148t36 -148.5zM395 -187q-18 18 -18 45q0 26 18 44t45 18q26 0 44 -18.5t18 -43.5q0 -27 -18 -45t-44 -18q-27 0 -45 18z" />
    <glyph glyph-name="uni1EE3" unicode="&#x1ee3;" horiz-adv-x="654" 
d="M187.5 24.5q-63.5 36.5 -100.5 101t-37 144.5q0 79 36.5 143.5t100 101t141.5 36.5h110q22 0 36 10.5t14 41.5q0 18 -5.5 36t-15.5 43h87q12 -27 17.5 -46t5.5 -42q0 -42 -18.5 -68.5t-51.5 -38.5q46 -38 72 -94t26 -123q0 -81 -37 -145t-100.5 -100.5t-139.5 -36.5
q-77 0 -140.5 36.5zM171.5 172q23.5 -44 65 -69t91.5 -25q49 0 90 25t64.5 69t23.5 98t-23.5 97.5t-64.5 68.5t-90 25q-50 0 -91.5 -25t-65 -68.5t-23.5 -97.5t23.5 -98zM283 -187q-18 18 -18 45q0 26 18 44t45 18q26 0 44 -18.5t18 -43.5q0 -27 -18 -45t-44 -18
q-27 0 -45 18z" />
    <glyph glyph-name="uni1EE4" unicode="&#x1ee4;" horiz-adv-x="706" 
d="M210.5 22q-62.5 34 -97.5 94t-35 135v494h99v-492q0 -77 49 -125.5t127 -48.5t127 48.5t49 125.5v492h99v-494q0 -75 -35 -135t-97.5 -94t-142.5 -34t-142.5 34zM309 -187q-18 18 -18 45q0 26 18 44t45 18q26 0 44 -18.5t18 -43.5q0 -27 -18 -45t-44 -18q-27 0 -45 18z
" />
    <glyph glyph-name="uni1EE5" unicode="&#x1ee5;" 
d="M159 15q-46 27 -72 75.5t-26 111.5v337h93v-327q0 -60 36 -97t94 -37t94 38.5t36 103.5v319h94v-539h-91v66q-24 -38 -64 -58t-90 -20q-58 0 -104 27zM246 -187q-18 18 -18 45q0 26 18 44t45 18q26 0 44 -18.5t18 -43.5q0 -27 -18 -45t-44 -18q-27 0 -45 18z" />
    <glyph glyph-name="uni1EE6" unicode="&#x1ee6;" horiz-adv-x="706" 
d="M210.5 22q-62.5 34 -97.5 94t-35 135v494h99v-492q0 -77 49 -125.5t127 -48.5t127 48.5t49 125.5v492h99v-494q0 -75 -35 -135t-97.5 -94t-142.5 -34t-142.5 34zM367 904q0 22 -15.5 35.5t-45.5 13.5q-20 0 -38 -6v51q23 9 55 9q52 0 84 -25.5t32 -66.5q0 -76 -109 -118
l-21 38q58 27 58 69z" />
    <glyph glyph-name="uni1EE7" unicode="&#x1ee7;" 
d="M159 15q-46 27 -72 75.5t-26 111.5v337h93v-327q0 -60 36 -97t94 -37t94 38.5t36 103.5v319h94v-539h-91v66q-24 -38 -64 -58t-90 -20q-58 0 -104 27zM304 697q0 22 -15.5 35.5t-45.5 13.5q-20 0 -38 -6v51q23 9 55 9q52 0 84 -25.5t32 -66.5q0 -76 -109 -118l-21 38
q58 27 58 69z" />
    <glyph glyph-name="uni1EE8" unicode="&#x1ee8;" horiz-adv-x="706" 
d="M210.5 22q-62.5 34 -97.5 94t-35 135v494h99v-492q0 -77 49 -125.5t127 -48.5t127 48.5t49 125.5v492h87q21 0 35.5 10t14.5 41q0 33 -23 79h101q24 -45 24 -88q0 -62 -36 -92.5t-99 -30.5h-5v-413q0 -75 -35 -135t-97.5 -94t-142.5 -34t-142.5 34zM386 991h99l-92 -144
h-80z" />
    <glyph glyph-name="uni1EE9" unicode="&#x1ee9;" horiz-adv-x="617" 
d="M159 15q-46 27 -72 75.5t-26 111.5v337h93v-327q0 -60 36 -97t94 -37t94 38.5t36 103.5v319h55q50 0 50 52q0 30 -22 79h87q11 -25 17 -45t6 -43q0 -50 -26.5 -79t-72.5 -34v-469h-91v66q-24 -38 -64 -58t-90 -20q-58 0 -104 27zM323 784h99l-92 -144h-80z" />
    <glyph glyph-name="uni1EEA" unicode="&#x1eea;" horiz-adv-x="706" 
d="M210.5 22q-62.5 34 -97.5 94t-35 135v494h99v-492q0 -77 49 -125.5t127 -48.5t127 48.5t49 125.5v492h87q21 0 35.5 10t14.5 41q0 33 -23 79h101q24 -45 24 -88q0 -62 -36 -92.5t-99 -30.5h-5v-413q0 -75 -35 -135t-97.5 -94t-142.5 -34t-142.5 34zM221 991h99l73 -144
h-80z" />
    <glyph glyph-name="uni1EEB" unicode="&#x1eeb;" horiz-adv-x="617" 
d="M159 15q-46 27 -72 75.5t-26 111.5v337h93v-327q0 -60 36 -97t94 -37t94 38.5t36 103.5v319h55q50 0 50 52q0 30 -22 79h87q11 -25 17 -45t6 -43q0 -50 -26.5 -79t-72.5 -34v-469h-91v66q-24 -38 -64 -58t-90 -20q-58 0 -104 27zM158 784h99l73 -144h-80z" />
    <glyph glyph-name="uni1EEC" unicode="&#x1eec;" horiz-adv-x="706" 
d="M210.5 22q-62.5 34 -97.5 94t-35 135v494h99v-492q0 -77 49 -125.5t127 -48.5t127 48.5t49 125.5v492h87q21 0 35.5 10t14.5 41q0 33 -23 79h101q24 -45 24 -88q0 -62 -36 -92.5t-99 -30.5h-5v-413q0 -75 -35 -135t-97.5 -94t-142.5 -34t-142.5 34zM367 904
q0 22 -15.5 35.5t-45.5 13.5q-20 0 -38 -6v51q23 9 55 9q52 0 84 -25.5t32 -66.5q0 -76 -109 -118l-21 38q58 27 58 69z" />
    <glyph glyph-name="uni1EED" unicode="&#x1eed;" horiz-adv-x="617" 
d="M159 15q-46 27 -72 75.5t-26 111.5v337h93v-327q0 -60 36 -97t94 -37t94 38.5t36 103.5v319h55q50 0 50 52q0 30 -22 79h87q11 -25 17 -45t6 -43q0 -50 -26.5 -79t-72.5 -34v-469h-91v66q-24 -38 -64 -58t-90 -20q-58 0 -104 27zM304 697q0 22 -15.5 35.5t-45.5 13.5
q-20 0 -38 -6v51q23 9 55 9q52 0 84 -25.5t32 -66.5q0 -76 -109 -118l-21 38q58 27 58 69z" />
    <glyph glyph-name="uni1EEE" unicode="&#x1eee;" horiz-adv-x="706" 
d="M210.5 22q-62.5 34 -97.5 94t-35 135v494h99v-492q0 -77 49 -125.5t127 -48.5t127 48.5t49 125.5v492h87q21 0 35.5 10t14.5 41q0 33 -23 79h101q24 -45 24 -88q0 -62 -36 -92.5t-99 -30.5h-5v-413q0 -75 -35 -135t-97.5 -94t-142.5 -34t-142.5 34zM378.5 885
q-15.5 7 -34.5 21q-14 9 -22 13.5t-19 4.5q-28 0 -33 -42h-63q1 52 24.5 80.5t61.5 28.5q23 0 38 -7t32 -20q14 -10 22.5 -14.5t19.5 -4.5q14 0 22 11.5t10 29.5h64q-1 -53 -23 -80.5t-60 -27.5q-24 0 -39.5 7z" />
    <glyph glyph-name="uni1EEF" unicode="&#x1eef;" horiz-adv-x="617" 
d="M159 15q-46 27 -72 75.5t-26 111.5v337h93v-327q0 -60 36 -97t94 -37t94 38.5t36 103.5v319h55q50 0 50 52q0 30 -22 79h87q11 -25 17 -45t6 -43q0 -50 -26.5 -79t-72.5 -34v-469h-91v66q-24 -38 -64 -58t-90 -20q-58 0 -104 27zM315.5 678q-15.5 7 -34.5 21
q-14 9 -22 13.5t-19 4.5q-28 0 -33 -42h-63q1 52 24.5 80.5t61.5 28.5q23 0 38 -7t32 -20q14 -10 22.5 -14.5t19.5 -4.5q14 0 22 11.5t10 29.5h64q-1 -53 -23 -80.5t-60 -27.5q-24 0 -39.5 7z" />
    <glyph glyph-name="uni1EF0" unicode="&#x1ef0;" horiz-adv-x="706" 
d="M210.5 22q-62.5 34 -97.5 94t-35 135v494h99v-492q0 -77 49 -125.5t127 -48.5t127 48.5t49 125.5v492h87q21 0 35.5 10t14.5 41q0 33 -23 79h101q24 -45 24 -88q0 -62 -36 -92.5t-99 -30.5h-5v-413q0 -75 -35 -135t-97.5 -94t-142.5 -34t-142.5 34zM309 -187
q-18 18 -18 45q0 26 18 44t45 18q26 0 44 -18.5t18 -43.5q0 -27 -18 -45t-44 -18q-27 0 -45 18z" />
    <glyph glyph-name="uni1EF1" unicode="&#x1ef1;" horiz-adv-x="617" 
d="M159 15q-46 27 -72 75.5t-26 111.5v337h93v-327q0 -60 36 -97t94 -37t94 38.5t36 103.5v319h55q50 0 50 52q0 30 -22 79h87q11 -25 17 -45t6 -43q0 -50 -26.5 -79t-72.5 -34v-469h-91v66q-24 -38 -64 -58t-90 -20q-58 0 -104 27zM246 -187q-18 18 -18 45q0 26 18 44
t45 18q26 0 44 -18.5t18 -43.5q0 -27 -18 -45t-44 -18q-27 0 -45 18z" />
    <glyph glyph-name="Ygrave" unicode="&#x1ef2;" horiz-adv-x="635" 
d="M269 341l-258 404h111l196 -308l195 308h111l-256 -404v-341h-99v341zM186 991h99l73 -144h-80z" />
    <glyph glyph-name="ygrave" unicode="&#x1ef3;" horiz-adv-x="553" 
d="M144 784h99l73 -144h-80z" />
    <glyph glyph-name="uni1EF4" unicode="&#x1ef4;" horiz-adv-x="635" 
d="M269 341l-258 404h111l196 -308l195 308h111l-256 -404v-341h-99v341zM274 -187q-18 18 -18 45q0 26 18 44t45 18q26 0 44 -18.5t18 -43.5q0 -27 -18 -45t-44 -18q-27 0 -45 18z" />
    <glyph glyph-name="uni1EF5" unicode="&#x1ef5;" horiz-adv-x="553" 
d="M458 -87q-18 18 -18 45q0 26 18 44t45 18q26 0 44 -18.5t18 -43.5q0 -27 -18 -45t-44 -18q-27 0 -45 18z" />
    <glyph glyph-name="uni1EF6" unicode="&#x1ef6;" horiz-adv-x="635" 
d="M269 341l-258 404h111l196 -308l195 308h111l-256 -404v-341h-99v341zM332 904q0 22 -15.5 35.5t-45.5 13.5q-20 0 -38 -6v51q23 9 55 9q52 0 84 -25.5t32 -66.5q0 -76 -109 -118l-21 38q58 27 58 69z" />
    <glyph glyph-name="uni1EF7" unicode="&#x1ef7;" horiz-adv-x="553" 
d="M290 697q0 22 -15.5 35.5t-45.5 13.5q-20 0 -38 -6v51q23 9 55 9q52 0 84 -25.5t32 -66.5q0 -76 -109 -118l-21 38q58 27 58 69z" />
    <glyph glyph-name="uni1EF8" unicode="&#x1ef8;" horiz-adv-x="635" 
d="M269 341l-258 404h111l196 -308l195 308h111l-256 -404v-341h-99v341zM343.5 885q-15.5 7 -34.5 21q-14 9 -22 13.5t-19 4.5q-28 0 -33 -42h-63q1 52 24.5 80.5t61.5 28.5q23 0 38 -7t32 -20q14 -10 22.5 -14.5t19.5 -4.5q14 0 22 11.5t10 29.5h64q-1 -53 -23 -80.5
t-60 -27.5q-24 0 -39.5 7z" />
    <glyph glyph-name="uni1EF9" unicode="&#x1ef9;" horiz-adv-x="553" 
d="M301.5 678q-15.5 7 -34.5 21q-14 9 -22 13.5t-19 4.5q-28 0 -33 -42h-63q1 52 24.5 80.5t61.5 28.5q23 0 38 -7t32 -20q14 -10 22.5 -14.5t19.5 -4.5q14 0 22 11.5t10 29.5h64q-1 -53 -23 -80.5t-60 -27.5q-24 0 -39.5 7z" />
    <glyph glyph-name="uni2007" unicode="&#x2007;" horiz-adv-x="724" 
 />
    <glyph glyph-name="uni2008" unicode="&#x2008;" horiz-adv-x="317" 
 />
    <glyph glyph-name="uni2009" unicode="&#x2009;" horiz-adv-x="200" 
 />
    <glyph glyph-name="uni200A" unicode="&#x200a;" horiz-adv-x="143" 
 />
    <glyph glyph-name="uni200B" unicode="&#x200b;" horiz-adv-x="0" 
 />
    <glyph glyph-name="uni2010" unicode="&#x2010;" horiz-adv-x="532" 
d="M72 312h375v-85h-375v85z" />
    <glyph glyph-name="figuredash" unicode="&#x2012;" horiz-adv-x="597" 
d="M72 312h440v-85h-440v85z" />
    <glyph glyph-name="endash" unicode="&#x2013;" horiz-adv-x="597" 
d="M79 312h440v-85h-440v85z" />
    <glyph glyph-name="emdash" unicode="&#x2014;" horiz-adv-x="927" 
d="M79 312h770v-85h-770v85z" />
    <glyph glyph-name="uni2015" unicode="&#x2015;" horiz-adv-x="927" 
d="M72 312h770v-85h-770v85z" />
    <glyph glyph-name="quoteleft" unicode="&#x2018;" horiz-adv-x="299" 
d="M118 701.5q30 42.5 87 55.5v-41q-31 -8 -48.5 -31t-20.5 -57h49v-120h-97v85q0 66 30 108.5z" />
    <glyph glyph-name="quoteright" unicode="&#x2019;" horiz-adv-x="299" 
d="M136 569q18 23 21 56h-49v120h97v-85q0 -66 -30 -108.5t-87 -55.5v42q30 8 48 31z" />
    <glyph glyph-name="quotesinglbase" unicode="&#x201a;" horiz-adv-x="299" 
d="M136 -57q18 23 21 57h-49v120h97v-85q0 -66 -30 -108.5t-87 -55.5v41q30 8 48 31z" />
    <glyph glyph-name="quotedblleft" unicode="&#x201c;" horiz-adv-x="467" 
d="M285 701.5q30 42.5 88 55.5v-41q-31 -8 -49 -31.5t-20 -56.5h49v-120h-98v85q0 66 30 108.5zM88 593q0 66 30 108.5t87 55.5v-41q-31 -8 -48.5 -31t-20.5 -57h49v-120h-97v85z" />
    <glyph glyph-name="quotedblright" unicode="&#x201d;" horiz-adv-x="467" 
d="M303.5 569q17.5 23 20.5 56h-49v120h98v-85q0 -66 -30 -108.5t-88 -55.5v42q31 8 48.5 31zM88 538q30 8 48 31t21 56h-49v120h97v-85q0 -66 -30 -108.5t-87 -55.5v42z" />
    <glyph glyph-name="quotedblbase" unicode="&#x201e;" horiz-adv-x="467" 
d="M136 -57q18 23 21 57h-49v120h97v-85q0 -66 -30 -108.5t-87 -55.5v41q30 8 48 31zM255 -88q31 8 48.5 31t20.5 57h-49v120h98v-85q0 -66 -30 -108.5t-88 -55.5v41z" />
    <glyph glyph-name="dagger" unicode="&#x2020;" horiz-adv-x="641" 
d="M272 447h-222v91h222v207h97v-207h221v-91h-221v-637h-97v637z" />
    <glyph glyph-name="daggerdbl" unicode="&#x2021;" horiz-adv-x="670" 
d="M286 17h-221v91h221v339h-221v91h221v207h98v-207h221v-91h-221v-339h221v-91h-221v-207h-98v207z" />
    <glyph glyph-name="bullet" unicode="&#x2022;" horiz-adv-x="463" 
d="M145.5 183.5q-35.5 35.5 -35.5 87.5q0 51 35.5 86t87.5 35q51 0 85.5 -35.5t34.5 -87.5q0 -51 -34.5 -86t-85.5 -35q-52 0 -87.5 35.5z" />
    <glyph glyph-name="ellipsis" unicode="&#x2026;" horiz-adv-x="717" 
d="M118.5 16.5q-16.5 16.5 -16.5 41.5t16.5 41.5t40.5 16.5t40 -16.5t16 -41.5t-15.5 -41.5t-40.5 -16.5q-24 0 -40.5 16.5zM318.5 16.5q-16.5 16.5 -16.5 41.5t16.5 41.5t40.5 16.5t40 -16.5t16 -41.5t-15.5 -41.5t-40.5 -16.5q-24 0 -40.5 16.5zM518.5 16.5
q-16.5 16.5 -16.5 41.5t16.5 41.5t40.5 16.5t40 -16.5t16 -41.5t-15.5 -41.5t-40.5 -16.5q-24 0 -40.5 16.5z" />
    <glyph glyph-name="perthousand" unicode="&#x2030;" horiz-adv-x="1436" 
d="M751 745h111l-608 -745h-111zM85 660q26 45 71 71t99 26q53 0 97.5 -26t70.5 -71t26 -98t-26 -98t-70.5 -71t-97.5 -26q-54 0 -99 26t-71 71t-26 98t26 98zM176 483q32 -34 79 -34t78 34t31 79t-31 79.5t-78 34.5q-31 0 -56.5 -16t-40 -42.5t-14.5 -55.5q0 -45 32 -79z
M574 281q26 45 71 71t99 26q53 0 97.5 -26t70.5 -71t26 -98t-26 -98t-70.5 -71t-97.5 -26q-54 0 -99 26t-71 71t-26 98t26 98zM665 104q32 -34 79 -34t78 34t31 79t-31 79.5t-78 34.5q-31 0 -56.5 -16t-40 -42.5t-14.5 -55.5q0 -45 32 -79zM1012 281q26 45 70.5 71t98.5 26
q53 0 98 -26t71 -71t26 -98t-26 -98t-71 -71t-98 -26q-54 0 -98.5 26t-70.5 71t-26 98t26 98zM1102.5 104q31.5 -34 78.5 -34t78.5 34t31.5 79t-31.5 79.5t-78.5 34.5t-78.5 -34.5t-31.5 -79.5t31.5 -79z" />
    <glyph glyph-name="minute" unicode="&#x2032;" horiz-adv-x="321" 
d="M117 745h93l-14 -240h-79v240z" />
    <glyph glyph-name="second" unicode="&#x2033;" horiz-adv-x="483" 
d="M117 745h93l-14 -240h-79v240zM279 745h93l-13 -240h-80v240z" />
    <glyph glyph-name="guilsinglleft" unicode="&#x2039;" horiz-adv-x="330" 
d="M34 269l153 193h108l-152 -193l152 -192h-108z" />
    <glyph glyph-name="guilsinglright" unicode="&#x203a;" horiz-adv-x="330" 
d="M187 269l-152 193h108l152 -193l-152 -192h-108z" />
    <glyph glyph-name="fraction" unicode="&#x2044;" horiz-adv-x="211" 
d="M283 745h90l-446 -745h-91z" />
    <glyph glyph-name="uni2070" unicode="&#x2070;" horiz-adv-x="501" 
d="M142.5 249q-47.5 34 -74 95t-26.5 140t26 140t73.5 95t108.5 34q62 0 109.5 -34t73.5 -95t26 -140q0 -80 -26 -141t-73 -94.5t-109 -33.5q-61 0 -108.5 34zM162.5 345.5q32.5 -51.5 88.5 -51.5t88.5 51.5t32.5 138.5t-32.5 138t-89.5 51q-56 0 -88 -50.5t-32 -138.5
q0 -87 32.5 -138.5z" />
    <glyph glyph-name="uni2074" unicode="&#x2074;" horiz-adv-x="471" 
d="M279 340h-246v72l241 333h89v-333h74v-72h-74v-117h-84v117zM279 412v224l-159 -224h159z" />
    <glyph glyph-name="uni2075" unicode="&#x2075;" horiz-adv-x="438" 
d="M101 248q-50 33 -66 90l75 28q12 -35 40 -54t64 -19q42 0 69 27.5t27 70.5q0 42 -27 70t-69 28q-28 0 -52 -13t-34 -35l-71 15l41 289h280v-74h-217l-19 -130q35 22 86 22q50 0 88.5 -22.5t59.5 -61.5t21 -88t-23.5 -89.5t-65.5 -63.5t-94 -23q-63 0 -113 33z" />
    <glyph glyph-name="uni2076" unicode="&#x2076;" horiz-adv-x="420" 
d="M118.5 237.5q-40.5 22.5 -63.5 61.5t-23 88q0 42 14.5 81.5t50.5 85.5l146 191h104l-150 -195q14 3 28 3q46 0 83.5 -21.5t59 -59t21.5 -84.5q0 -49 -23 -88.5t-64 -62t-92 -22.5t-91.5 22.5zM145 319.5q26 -26.5 65 -26.5t65 26.5t26 66.5q0 41 -26 67t-65 26t-65 -26
t-26 -67q0 -40 26 -66.5z" />
    <glyph glyph-name="uni2077" unicode="&#x2077;" horiz-adv-x="384" 
d="M273 671h-249v74h340v-74l-216 -448h-96z" />
    <glyph glyph-name="uni2078" unicode="&#x2078;" horiz-adv-x="452" 
d="M129.5 236q-41.5 21 -64.5 57.5t-23 80.5q0 43 20.5 75.5t59.5 52.5q-27 17 -42 46.5t-15 63.5q0 40 20.5 72t57 50.5t82.5 18.5t83 -18t58 -50.5t21 -72.5q0 -34 -15.5 -63.5t-41.5 -46.5q38 -19 58.5 -52.5t20.5 -76.5q0 -44 -23 -80t-65 -57t-96 -21t-95.5 21z
M156.5 313q26.5 -24 68.5 -24q43 0 70 24t27 63q0 38 -27 62t-70 24t-69 -24t-26 -62q0 -39 26.5 -63zM172.5 556.5q20.5 -20.5 52.5 -20.5t53 20.5t21 50.5q0 31 -21 51.5t-53 20.5t-52.5 -20.5t-20.5 -51.5q0 -30 20.5 -50.5z" />
    <glyph glyph-name="uni2079" unicode="&#x2079;" horiz-adv-x="420" 
d="M224 418q-12 -3 -28 -3q-46 0 -83.5 21.5t-59 59t-21.5 84.5q0 49 23 88.5t63.5 62t91.5 22.5t92 -22.5t64 -62t23 -88.5q0 -41 -14.5 -79.5t-50.5 -86.5l-146 -191h-105zM145 514.5q26 -26.5 65 -26.5t65 26.5t26 66.5t-26 66.5t-65 26.5t-65 -26.5t-26 -66.5t26 -66.5z
" />
    <glyph glyph-name="uni207A" unicode="&#x207a;" horiz-adv-x="474" 
d="M200 447h-138v74h138v137h74v-137h138v-74h-138v-139h-74v139z" />
    <glyph glyph-name="uni207B" unicode="&#x207b;" horiz-adv-x="549" 
d="M117 521h315v-74h-315v74z" />
    <glyph glyph-name="uni207C" unicode="&#x207c;" horiz-adv-x="549" 
d="M117 597h315v-74h-315v74zM117 428h315v-74h-315v74z" />
    <glyph glyph-name="uni207D" unicode="&#x207d;" horiz-adv-x="267" 
d="M53 426q0 184 118 319h70q-100 -151 -100 -319q0 -170 100 -317h-70q-118 135 -118 317z" />
    <glyph glyph-name="uni207E" unicode="&#x207e;" horiz-adv-x="267" 
d="M100.5 262.5q25.5 80.5 25.5 163.5q0 169 -100 319h70q117 -135 117 -319q0 -182 -117 -317h-70q49 73 74.5 153.5z" />
    <glyph glyph-name="uni2080" unicode="&#x2080;" horiz-adv-x="501" 
d="M142.5 26q-47.5 34 -74 95t-26.5 140t26 140t73.5 95t108.5 34q62 0 109.5 -34t73.5 -95t26 -140q0 -80 -26 -141t-73 -94.5t-109 -33.5q-61 0 -108.5 34zM162.5 122.5q32.5 -51.5 88.5 -51.5t88.5 51.5t32.5 138.5t-32.5 138t-89.5 51q-56 0 -88 -50.5t-32 -138.5
q0 -87 32.5 -138.5z" />
    <glyph glyph-name="uni2081" unicode="&#x2081;" horiz-adv-x="306" 
d="M119 447h-100v75h188v-522h-88v447z" />
    <glyph glyph-name="uni2082" unicode="&#x2082;" horiz-adv-x="421" 
d="M34 65l143 151q50 54 69 76t29.5 42t10.5 41q0 35 -22 55.5t-57 20.5q-36 0 -62.5 -20.5t-36.5 -59.5l-77 23q13 62 62.5 99t113.5 37q74 0 120 -41t46 -105q0 -45 -24 -84t-75 -93l-125 -132h234v-75h-349v65z" />
    <glyph glyph-name="uni2083" unicode="&#x2083;" horiz-adv-x="432" 
d="M95 26.5q-50 34.5 -66 90.5l75 28q13 -36 41 -55.5t64 -19.5q45 0 72 25t27 69q0 43 -27 68t-72 25q-25 0 -50 -9l-20 40l137 160h-218v74h316v-70l-111 -132q60 -8 96 -49.5t36 -104.5q0 -49 -24 -88.5t-66.5 -62.5t-95.5 -23q-64 0 -114 34.5z" />
    <glyph glyph-name="uni2084" unicode="&#x2084;" horiz-adv-x="471" 
d="M279 117h-246v72l241 333h89v-333h74v-72h-74v-117h-84v117zM279 189v224l-159 -224h159z" />
    </font>
</defs>
</svg>
